<svg width="108" height="108" viewBox="0 0 108 108" fill="none" xmlns="http://www.w3.org/2000/svg">
<g filter="url(#filter0_d_11219_2319)">
<rect x="4" y="3" width="100" height="100" rx="10" fill="white"/>
<g clip-path="url(#clip0_11219_2319)">
<path d="M73.1559 64.1201H65.9131C65.7231 64.1201 65.5408 64.196 65.4066 64.331C65.2722 64.466 65.1967 64.6492 65.1967 64.8401V71.4801C65.1967 71.6711 65.2722 71.8542 65.4066 71.9892C65.5408 72.1243 65.7231 72.2001 65.9131 72.2001H73.1559C73.3458 72.2001 73.5281 72.1243 73.6625 71.9892C73.7967 71.8542 73.8723 71.6711 73.8723 71.4801V64.8401C73.8723 64.6492 73.7967 64.466 73.6625 64.331C73.5281 64.196 73.3458 64.1201 73.1559 64.1201ZM69.3355 65.0801C69.5136 65.0785 69.6903 65.1126 69.8552 65.1804C70.02 65.2481 70.1698 65.3483 70.2958 65.4748C70.4218 65.6015 70.5214 65.752 70.5888 65.9178C70.6563 66.0835 70.6902 66.2611 70.6886 66.4401C70.6886 66.7091 70.6092 66.972 70.4606 67.1957C70.3119 67.4193 70.1006 67.5936 69.8533 67.6966C69.6061 67.7996 69.334 67.8264 69.0715 67.774C68.809 67.7215 68.5679 67.592 68.3788 67.4018C68.1895 67.2116 68.0606 66.9692 68.0084 66.7054C67.9562 66.4416 67.983 66.1682 68.0855 65.9196C68.1878 65.6712 68.3612 65.4588 68.5838 65.3093C68.8062 65.1599 69.0679 65.0801 69.3355 65.0801ZM71.8825 71.2401H66.9478V70.2001C66.9502 69.7553 67.1272 69.3295 67.44 69.0149C67.753 68.7004 68.1767 68.5226 68.6192 68.5201H70.1314C70.5823 68.5196 71.0161 68.694 71.3423 69.007C71.6684 69.32 71.8619 69.7473 71.8825 70.2001V71.2401Z" fill="#007BFF"/>
<path d="M70.3703 57.2401V62.5201H68.7784V56.8401H55.6458V62.5201H54.054V56.8401H40.9213V62.5201H39.3294V57.2401C39.3269 56.9767 39.3766 56.7155 39.4757 56.4717C39.5748 56.2279 39.7213 56.0064 39.9066 55.8202C40.0918 55.6339 40.3122 55.4867 40.5548 55.3871C40.7973 55.2875 41.0572 55.2375 41.3192 55.2401H54.054V50.6001H55.6458V55.2401H68.3805C68.9056 55.2483 69.407 55.4617 69.7784 55.835C70.1498 56.2083 70.3621 56.7123 70.3703 57.2401Z" fill="#007BFF"/>
<path d="M66.0731 35.0004V47.8804C66.0653 48.1962 65.9371 48.497 65.7149 48.7204C65.4926 48.9438 65.1934 49.0727 64.8792 49.0804H44.822C44.5078 49.0727 44.2085 48.9438 43.9863 48.7204C43.764 48.497 43.6358 48.1962 43.6282 47.8804V35.0004C43.6185 34.8403 43.6428 34.68 43.6994 34.53C43.756 34.38 43.8435 34.2438 43.9564 34.1304C44.0693 34.0169 44.2048 33.9289 44.354 33.872C44.5032 33.8151 44.6627 33.7907 44.822 33.8004H64.8792C65.0368 33.7975 65.1933 33.8265 65.3395 33.8858C65.4857 33.9451 65.6184 34.0333 65.7299 34.1454C65.8413 34.2574 65.9292 34.3908 65.9881 34.5377C66.047 34.6847 66.0759 34.842 66.0731 35.0004Z" fill="#CBCBCB"/>
<path d="M43.6278 64.1198H36.4645C36.2745 64.1198 36.0923 64.1957 35.958 64.3307C35.8236 64.4658 35.7482 64.6489 35.7482 64.8398V71.4798C35.7317 71.5711 35.7361 71.665 35.7611 71.7544C35.786 71.8438 35.8309 71.9262 35.8922 71.9956C35.9535 72.0649 36.0298 72.1194 36.1151 72.1548C36.2005 72.1902 36.2927 72.2056 36.3849 72.1998H43.5482C43.7382 72.1998 43.9203 72.124 44.0547 71.989C44.189 71.8539 44.2645 71.6708 44.2645 71.4798V64.8398C44.281 64.7485 44.2766 64.6546 44.2516 64.5653C44.2267 64.4759 44.1818 64.3934 44.1204 64.3241C44.0591 64.2547 43.9829 64.2002 43.8975 64.1649C43.8122 64.1295 43.7199 64.1141 43.6278 64.1198ZM39.8869 65.0798C40.2458 65.0798 40.59 65.2231 40.8437 65.4782C41.0975 65.7332 41.24 66.0791 41.24 66.4398C41.24 66.8006 41.0975 67.1465 40.8437 67.4015C40.59 67.6565 40.2458 67.7998 39.8869 67.7998C39.5314 67.7894 39.1932 67.6427 38.9417 67.3899C38.6902 67.1371 38.5443 66.7972 38.5339 66.4398C38.5255 66.259 38.5547 66.0784 38.6198 65.9096C38.6848 65.7407 38.7842 65.5874 38.9115 65.4594C39.0389 65.3314 39.1914 65.2315 39.3594 65.1662C39.5273 65.1008 39.707 65.0714 39.8869 65.0798ZM42.3543 71.2398H37.4196V70.1998C37.4232 69.9734 37.4715 69.7501 37.5618 69.5426C37.652 69.3352 37.7824 69.1478 37.9454 68.9915C38.1083 68.8352 38.3005 68.713 38.5109 68.632C38.7212 68.551 38.9455 68.5129 39.1706 68.5198H40.6829C41.1338 68.5193 41.5675 68.6937 41.8937 69.0067C42.2199 69.3197 42.4134 69.747 42.4339 70.1998V71.2398H42.3543Z" fill="#007BFF"/>
<path d="M58.4311 64.1201H51.2678C51.0779 64.1201 50.8956 64.196 50.7613 64.331C50.627 64.466 50.5515 64.6492 50.5515 64.8401V71.4801C50.5515 71.6711 50.627 71.8542 50.7613 71.9892C50.8956 72.1243 51.0779 72.2001 51.2678 72.2001H58.4311C58.6211 72.2001 58.8033 72.1243 58.9376 71.9892C59.0719 71.8542 59.1474 71.6711 59.1474 71.4801V64.8401C59.1474 64.6492 59.0719 64.466 58.9376 64.331C58.8033 64.196 58.6211 64.1201 58.4311 64.1201ZM54.6903 65.0801C55.0491 65.0801 55.3932 65.2234 55.647 65.4784C55.9008 65.7335 56.0433 66.0794 56.0433 66.4401C56.0433 66.8008 55.9008 67.1468 55.647 67.4018C55.3932 67.6568 55.0491 67.8001 54.6903 67.8001C54.5122 67.8017 54.3355 67.7676 54.1706 67.6999C54.0057 67.632 53.8559 67.532 53.7299 67.4053C53.604 67.2788 53.5044 67.1282 53.437 66.9624C53.3695 66.7968 53.3356 66.6192 53.3372 66.4401C53.3288 66.2592 53.3581 66.0787 53.4231 65.9099C53.4881 65.741 53.5875 65.5877 53.7148 65.4597C53.8422 65.3317 53.9947 65.2318 54.1627 65.1664C54.3307 65.1011 54.5103 65.0716 54.6903 65.0801ZM57.1576 71.2401H52.2229V70.2001C52.2254 69.7553 52.4023 69.3295 52.7152 69.0149C53.0282 68.7004 53.4518 68.5226 53.8944 68.5201H55.4066C55.8491 68.5226 56.2728 68.7004 56.5857 69.0149C56.8986 69.3295 57.0755 69.7553 57.078 70.2001V71.2401H57.1576Z" fill="#007BFF"/>
<path d="M58.4311 64.1201H51.2678C51.0779 64.1201 50.8956 64.196 50.7613 64.331C50.627 64.466 50.5515 64.6492 50.5515 64.8401V71.4801C50.5515 71.6711 50.627 71.8542 50.7613 71.9892C50.8956 72.1243 51.0779 72.2001 51.2678 72.2001H58.4311C58.6211 72.2001 58.8033 72.1243 58.9376 71.9892C59.0719 71.8542 59.1474 71.6711 59.1474 71.4801V64.8401C59.1474 64.6492 59.0719 64.466 58.9376 64.331C58.8033 64.196 58.6211 64.1201 58.4311 64.1201ZM54.6903 65.0801C55.0491 65.0801 55.3932 65.2234 55.647 65.4784C55.9008 65.7335 56.0433 66.0794 56.0433 66.4401C56.0433 66.8008 55.9008 67.1468 55.647 67.4018C55.3932 67.6568 55.0491 67.8001 54.6903 67.8001C54.5122 67.8017 54.3355 67.7676 54.1706 67.6999C54.0057 67.632 53.8559 67.532 53.7299 67.4053C53.604 67.2788 53.5044 67.1282 53.437 66.9624C53.3695 66.7968 53.3356 66.6192 53.3372 66.4401C53.3288 66.2592 53.3581 66.0787 53.4231 65.9099C53.4881 65.741 53.5875 65.5877 53.7148 65.4597C53.8422 65.3317 53.9947 65.2318 54.1627 65.1664C54.3307 65.1011 54.5103 65.0716 54.6903 65.0801ZM57.1576 71.2401H52.2229V70.2001C52.2254 69.7553 52.4023 69.3295 52.7152 69.0149C53.0282 68.7004 53.4518 68.5226 53.8944 68.5201H55.4066C55.8491 68.5226 56.2728 68.7004 56.5857 69.0149C56.8986 69.3295 57.0755 69.7553 57.078 70.2001V71.2401H57.1576Z" fill="#007BFF"/>
</g>
</g>
<defs>
<filter id="filter0_d_11219_2319" x="0" y="0" width="108" height="108" filterUnits="userSpaceOnUse" color-interpolation-filters="sRGB">
<feFlood flood-opacity="0" result="BackgroundImageFix"/>
<feColorMatrix in="SourceAlpha" type="matrix" values="0 0 0 0 0 0 0 0 0 0 0 0 0 0 0 0 0 0 127 0" result="hardAlpha"/>
<feOffset dy="1"/>
<feGaussianBlur stdDeviation="2"/>
<feColorMatrix type="matrix" values="0 0 0 0 0 0 0 0 0 0 0 0 0 0 0 0 0 0 0.04 0"/>
<feBlend mode="normal" in2="BackgroundImageFix" result="effect1_dropShadow_11219_2319"/>
<feBlend mode="normal" in="SourceGraphic" in2="effect1_dropShadow_11219_2319" result="shape"/>
</filter>
<clipPath id="clip0_11219_2319">
<rect width="39" height="40" fill="white" transform="translate(35 33)"/>
</clipPath>
</defs>
</svg>
