<svg width="24" height="25" viewBox="0 0 24 25" fill="none" xmlns="http://www.w3.org/2000/svg">
<path d="M10.7327 20.291C11.0326 20.5766 11.5074 20.5651 11.7931 20.2652C12.0787 19.9652 12.0672 19.4905 11.7673 19.2048L5.51587 13.2502L20.25 13.2502C20.6642 13.2502 21 12.9144 21 12.5002C21 12.086 20.6642 11.7502 20.25 11.7502L5.51577 11.7502L11.7673 5.79551C12.0672 5.50982 12.0787 5.03509 11.7931 4.73516C11.5074 4.43523 11.0326 4.42369 10.7327 4.70938L3.31379 11.7761C3.14486 11.937 3.04491 12.1422 3.01393 12.3556C3.00479 12.4024 3 12.4507 3 12.5002C3 12.5498 3.00481 12.5982 3.01398 12.6451C3.04502 12.8583 3.14496 13.0634 3.31379 13.2243L10.7327 20.291Z" fill="#0047FF"/>
</svg>
