<svg width="24" height="25" viewBox="0 0 24 25" fill="none" xmlns="http://www.w3.org/2000/svg">
<path d="M13.2673 4.70938C12.9674 4.42369 12.4926 4.43523 12.2069 4.73516C11.9213 5.03509 11.9328 5.50982 12.2327 5.79551L18.4841 11.7501H3.75C3.33579 11.7501 3 12.0859 3 12.5001C3 12.9143 3.33579 13.2501 3.75 13.2501H18.4842L12.2327 19.2048C11.9328 19.4905 11.9213 19.9652 12.2069 20.2652C12.4926 20.5651 12.9674 20.5766 13.2673 20.291L20.6862 13.2243C20.8551 13.0634 20.9551 12.8581 20.9861 12.6448C20.9952 12.598 21 12.5496 21 12.5001C21 12.4506 20.9952 12.4021 20.986 12.3552C20.955 12.142 20.855 11.9369 20.6862 11.7761L13.2673 4.70938Z" fill="#ADADAD"/>
</svg>
