<svg width="24" height="24" viewBox="0 0 24 24" fill="none" xmlns="http://www.w3.org/2000/svg">
<g clip-path="url(#clip0_10948_9301)">
<path d="M18.75 2.2501H12.2006L11.2575 0.835219C11.0865 0.578074 10.8545 0.367242 10.5823 0.221525C10.31 0.0758079 10.0059 -0.000264174 9.69712 9.28033e-05H5.25C4.7529 0.000688251 4.27633 0.198424 3.92483 0.549926C3.57333 0.901428 3.3756 1.378 3.375 1.8751V12.3751C3.3756 12.8722 3.57333 13.3488 3.92483 13.7003C4.27633 14.0518 4.7529 14.2495 5.25 14.2501H18.75C19.2471 14.2495 19.7237 14.0518 20.0752 13.7003C20.4267 13.3488 20.6244 12.8722 20.625 12.3751V4.1251C20.6244 3.628 20.4267 3.15143 20.0752 2.79993C19.7237 2.44843 19.2471 2.25069 18.75 2.2501Z" fill="#E6ECFF"/>
<path d="M15.993 7.3336C16.0075 7.22306 16.0147 7.1117 16.0148 7.00022C15.9939 6.21864 15.6642 5.47718 15.0977 4.93828C14.5312 4.39937 13.7743 4.10695 12.9926 4.12509C12.4288 4.1172 11.874 4.26714 11.3909 4.55799C10.9078 4.84883 10.5157 5.26898 10.2589 5.77097C10.0721 5.71565 9.87838 5.68761 9.68362 5.68772C9.18902 5.67849 8.70859 5.85315 8.33539 6.17785C7.96219 6.50256 7.72277 6.95422 7.6635 7.44535C7.18128 7.62835 6.765 7.95175 6.46846 8.37376C6.17193 8.79578 6.00874 9.29701 6 9.81272C6.01828 10.509 6.3118 11.1697 6.81627 11.65C7.32074 12.1303 7.99502 12.391 8.69138 12.3751H15.3086C16.005 12.391 16.6793 12.1303 17.1837 11.65C17.6882 11.1697 17.9817 10.509 18 9.81272C17.9919 9.23428 17.7897 8.67534 17.4257 8.22572C17.0617 7.77609 16.5571 7.46189 15.993 7.3336Z" fill="#4294FF"/>
<path d="M14.5346 9.88134L12.2846 7.25634C12.2484 7.21695 12.2044 7.1855 12.1554 7.16399C12.1064 7.14248 12.0535 7.13138 12 7.13138C11.9465 7.13138 11.8936 7.14248 11.8446 7.16399C11.7956 7.1855 11.7516 7.21695 11.7154 7.25634L9.46536 9.88134C9.41878 9.93579 9.38879 10.0025 9.37891 10.0734C9.36904 10.1444 9.37971 10.2167 9.40965 10.2818C9.4396 10.3469 9.48757 10.4021 9.54788 10.4407C9.6082 10.4794 9.67833 10.5 9.74999 10.5001H10.875V16.1251C10.875 16.2245 10.9145 16.3199 10.9848 16.3903C11.0551 16.4606 11.1505 16.5001 11.25 16.5001H12.75C12.8494 16.5001 12.9448 16.4606 13.0152 16.3903C13.0855 16.3199 13.125 16.2245 13.125 16.1251V10.5001H14.25C14.3216 10.5 14.3918 10.4794 14.4521 10.4407C14.5124 10.4021 14.5604 10.3469 14.5903 10.2818C14.6203 10.2167 14.6309 10.1444 14.6211 10.0734C14.6112 10.0025 14.5812 9.93579 14.5346 9.88134Z" fill="#376CFB"/>
<path d="M16.125 18.0001L13.875 15.7501H9C8.90054 15.7501 8.80516 15.7896 8.73483 15.8599C8.66451 15.9303 8.625 16.0257 8.625 16.1251V23.6251C8.625 23.7246 8.66451 23.8199 8.73483 23.8903C8.80516 23.9606 8.90054 24.0001 9 24.0001H15.75C15.8495 24.0001 15.9448 23.9606 16.0152 23.8903C16.0855 23.8199 16.125 23.7246 16.125 23.6251V18.0001Z" fill="#E6ECFF"/>
<path d="M16.125 18.0001H13.875V15.7501L16.125 18.0001Z" fill="#D0DBF7"/>
<path d="M12.75 18.0001H10.5C10.4005 18.0001 10.3052 17.9606 10.2348 17.8903C10.1645 17.8199 10.125 17.7245 10.125 17.6251C10.125 17.5256 10.1645 17.4303 10.2348 17.3599C10.3052 17.2896 10.4005 17.2501 10.5 17.2501H12.75C12.8495 17.2501 12.9448 17.2896 13.0152 17.3599C13.0855 17.4303 13.125 17.5256 13.125 17.6251C13.125 17.7245 13.0855 17.8199 13.0152 17.8903C12.9448 17.9606 12.8495 18.0001 12.75 18.0001Z" fill="#D0DBF7"/>
<path d="M14.25 19.5001H10.5C10.4005 19.5001 10.3052 19.4606 10.2348 19.3903C10.1645 19.3199 10.125 19.2245 10.125 19.1251C10.125 19.0256 10.1645 18.9303 10.2348 18.8599C10.3052 18.7896 10.4005 18.7501 10.5 18.7501H14.25C14.3495 18.7501 14.4448 18.7896 14.5152 18.8599C14.5855 18.9303 14.625 19.0256 14.625 19.1251C14.625 19.2245 14.5855 19.3199 14.5152 19.3903C14.4448 19.4606 14.3495 19.5001 14.25 19.5001Z" fill="#D0DBF7"/>
<path d="M14.25 21.0001H10.5C10.4005 21.0001 10.3052 20.9606 10.2348 20.8903C10.1645 20.8199 10.125 20.7245 10.125 20.6251C10.125 20.5256 10.1645 20.4303 10.2348 20.3599C10.3052 20.2896 10.4005 20.2501 10.5 20.2501H14.25C14.3495 20.2501 14.4448 20.2896 14.5152 20.3599C14.5855 20.4303 14.625 20.5256 14.625 20.6251C14.625 20.7245 14.5855 20.8199 14.5152 20.8903C14.4448 20.9606 14.3495 21.0001 14.25 21.0001Z" fill="#D0DBF7"/>
<path d="M14.25 22.5001H10.5C10.4005 22.5001 10.3052 22.4606 10.2348 22.3903C10.1645 22.3199 10.125 22.2245 10.125 22.1251C10.125 22.0256 10.1645 21.9303 10.2348 21.8599C10.3052 21.7896 10.4005 21.7501 10.5 21.7501H14.25C14.3495 21.7501 14.4448 21.7896 14.5152 21.8599C14.5855 21.9303 14.625 22.0256 14.625 22.1251C14.625 22.2245 14.5855 22.3199 14.5152 22.3903C14.4448 22.4606 14.3495 22.5001 14.25 22.5001Z" fill="#D0DBF7"/>
</g>
<defs>
<clipPath id="clip0_10948_9301">
<rect width="24" height="24" fill="white"/>
</clipPath>
</defs>
</svg>
