<svg width="1296" height="354" viewBox="0 0 1296 354" fill="none" xmlns="http://www.w3.org/2000/svg">
<path d="M1384 238.682L1368.03 247.894L1306.28 212.205L1331.15 197.83L1327.58 195.688L1302.7 210.062L1240.95 174.395L1265.82 160.192L1262.25 158.05L1237.38 172.424L1175.62 136.628L1200.58 122.318L1197.01 120.176L1172.11 134.55L1110.36 98.8609L1135.25 84.4868L1131.66 82.3446L1106.78 96.7187L1044.94 61.2011L1069.82 46.8269L1066.24 44.6847L1041.37 59.0589L979.617 23.4556L1004.49 9.08141L1000.91 6.93921L976.042 21.3776L914.289 -14.3114L939.161 -28.6855L935.587 -30.8277L910.693 -16.4536L848.939 -52.0569L873.812 -66.431L870.237 -68.5732L845.365 -54.0277L783.611 -89.8024L808.484 -104.177L804.909 -106.319L780.037 -91.9446L718.283 -127.548L743.156 -141.858L739.581 -144L714.687 -129.626L689.815 -144L686.24 -141.858L711.113 -127.484L649.359 -91.8803L624.487 -106.254L620.912 -104.112L645.785 -89.7381L584.117 -54.0277L559.244 -68.4019L555.648 -66.2597L580.542 -51.8855L518.703 -16.3679L493.809 -30.742L490.234 -28.5998L515.107 -14.2257L453.354 21.3776L428.481 7.00346L424.906 9.14568L449.779 23.5198L388.026 59.1231L363.153 44.749L359.578 46.8912L384.451 61.2653L322.698 96.9543L297.804 82.5802L294.229 84.7224L319.102 99.0965L257.348 134.786L232.476 120.411L228.901 122.554L253.774 136.906L192.02 172.595L167.148 158.05L163.573 160.192L188.445 174.566L126.692 210.127L101.819 195.752L98.2234 197.895L123.096 212.269L61.3426 247.894L36.47 233.519L32.8954 235.662L57.768 249.95L-3.9854 285.639L-28.858 271.265L-32.4326 273.407L-7.56003 287.76L-69.3134 323.385L-88 312.674V316.829L-72.8881 325.548L-88 334.181V338.316L-69.3134 327.605L-7.56003 363.294L-69.3134 398.897L-88 388.186V392.32L-72.8881 401.039L-88 409.672V413.828L-69.3134 403.117L-7.56003 438.678L-32.347 453.073L-28.7724 455.215L-3.9854 440.82L57.768 476.466L32.8954 490.84L36.47 492.982L61.3426 478.608L123.096 514.297L98.2234 528.65L101.798 530.792L126.692 516.439L188.445 552.107L163.573 566.481L167.148 568.623L192.02 554.249L253.774 589.917L228.901 604.291L232.476 606.433L257.348 592.059L319.102 627.748L294.229 642.122L297.804 644.264L322.698 629.89L384.451 665.579L359.557 679.953L363.153 682.096L388.026 667.721L449.779 703.41L424.906 717.784L428.481 719.927L453.354 705.552L515.107 740.727L490.234 755.102L493.809 757.244L518.682 742.87L580.435 778.559L555.563 792.933L559.137 795.075L584.117 780.529L645.87 816.218L620.912 830.7L624.487 832.842L649.359 818.468L709.101 853H720.274L780.037 818.468L804.909 832.842L808.484 830.7L783.611 816.326L845.365 780.637L870.237 795.011L873.812 792.868L848.939 778.494L910.693 742.87L935.565 757.244L939.161 755.102L914.267 740.727L976.021 705.06L1000.91 719.434L1004.49 717.292L979.617 702.918L1041.37 667.229L1066.24 681.603L1069.82 679.461L1044.94 665.086L1106.7 629.397L1131.57 643.772L1135.15 641.629L1110.27 627.255L1172.03 591.566L1196.92 605.94L1200.49 603.798L1175.62 589.424L1237.38 553.756L1262.25 568.131L1265.82 565.988L1240.95 551.614L1302.7 515.925L1327.58 530.299L1331.15 528.157L1306.28 513.783L1368.03 478.094L1384 487.327V483.664L1371.63 476.509L1384 469.354V465.198L1368.03 474.431L1306.28 438.678L1368.03 403.01L1384 412.243V408.087L1371.63 400.932L1384 393.777V389.643L1368.03 398.876L1306.28 363.187L1368.03 327.498L1384 336.73V332.596L1371.63 325.441L1384 318.286V314.13L1368.03 323.363L1306.28 287.674L1368.03 252.007L1384 261.239V257.084L1371.63 249.929L1384 242.774V238.682ZM1299.04 212.205L1237.29 247.894L1175.54 212.205L1237.29 176.516L1299.04 212.205ZM718.283 325.462L780.037 289.773L841.79 325.462L780.037 361.13L718.283 325.462ZM776.441 363.208L714.687 398.897L652.934 363.208L714.687 327.519L776.441 363.208ZM714.687 323.385L652.934 287.696L714.687 252.028L776.441 287.696L714.687 323.385ZM711.113 325.527L649.359 361.13L587.606 325.462L649.359 289.773L711.113 325.527ZM645.785 363.272L584.117 398.897L522.363 363.208L584.117 327.519L645.785 363.272ZM649.359 365.414L711.113 401.104L649.359 436.792L587.606 401.104L649.359 365.414ZM714.687 403.031L776.441 438.678L714.687 474.388L652.934 438.678L714.687 403.031ZM718.283 400.889L780.037 365.2L841.79 400.889L780.037 436.578L718.283 400.889ZM783.611 363.144L845.365 327.455L907.118 363.144L845.365 398.833L783.611 363.144ZM848.939 325.398L910.693 289.709L972.446 325.398L910.693 361.13L848.939 325.398ZM845.365 323.256L783.611 287.696L845.365 252.028L907.118 287.696L845.365 323.256ZM780.037 285.511L718.283 249.95L780.037 214.282L841.79 249.95L780.037 285.511ZM714.687 247.894L652.934 212.205L714.687 176.516L776.441 212.205L714.687 247.894ZM711.113 250.036L649.359 285.725L587.606 249.95L649.359 214.282L711.113 250.036ZM645.785 287.781L584.117 323.385L522.363 287.696L584.117 252.028L645.785 287.781ZM580.457 325.548L518.682 361.13L456.928 325.462L518.682 289.773L580.457 325.548ZM515.107 363.294L453.354 398.983L391.6 363.294L453.354 327.605L515.107 363.294ZM518.682 365.436L580.457 401.104L518.682 436.792L456.928 401.104L518.682 365.436ZM584.117 403.031L645.785 438.678L584.117 474.388L522.278 438.678L584.117 403.031ZM649.359 440.82L711.113 476.509L649.359 512.176L587.606 476.509L649.359 440.82ZM714.687 478.523L776.441 514.211L714.687 549.901L652.934 514.211L714.687 478.523ZM718.283 476.38L780.037 440.82L841.79 476.509L780.037 512.176L718.283 476.38ZM783.611 438.678L845.365 403.01L907.118 438.678L845.365 474.367L783.611 438.678ZM848.939 400.932L910.693 365.243L972.446 400.932L910.693 436.621L848.939 400.932ZM914.267 363.187L976.042 327.498L1037.9 363.208L976.042 398.897L914.267 363.187ZM979.617 325.441L1041.37 289.752L1103.12 325.441L1041.37 361.13L979.617 325.441ZM976.042 323.299L914.289 287.61L976.042 251.942L1037.9 287.696L976.042 323.299ZM910.693 285.553L848.939 249.95L910.693 214.261L972.446 249.95L910.693 285.553ZM845.365 247.808L783.611 212.205L845.365 176.516L907.118 212.205L845.365 247.808ZM780.037 210.041L718.283 174.373L780.037 138.77L841.79 174.459L780.037 210.041ZM714.687 172.381L652.934 136.628L714.687 101.025L776.441 136.628L714.687 172.381ZM711.113 174.523L649.359 210.191L587.606 174.523L649.359 138.77L711.113 174.523ZM645.785 212.269L584.117 247.894L522.363 212.205L584.117 176.516L645.785 212.269ZM580.457 249.95L518.682 285.639L456.928 249.95L518.703 214.282L580.457 249.95ZM515.107 287.696L453.354 323.385L391.6 287.696L453.354 252.028L515.107 287.696ZM449.779 325.462L388.026 361.13L326.272 325.462L388.026 289.773L449.779 325.462ZM384.451 363.208L322.698 398.897L260.901 363.208L322.655 327.519L384.451 363.208ZM388.026 365.35L449.779 401.018L388.026 436.707L326.272 401.018L388.026 365.35ZM453.354 403.096L515.107 438.678L453.354 474.367L391.6 438.678L453.354 403.096ZM518.682 440.82L580.435 476.509L518.682 512.176L456.928 476.509L518.682 440.82ZM584.117 478.523L645.87 514.211L584.117 549.901L522.363 514.211L584.117 478.523ZM649.445 516.268L711.198 551.957L649.445 587.646L587.691 551.957L649.445 516.268ZM714.687 554.035L776.441 589.703L714.687 625.392L652.934 589.703L714.687 554.035ZM718.283 551.893L780.037 516.204L841.79 551.893L780.037 587.582L718.283 551.893ZM783.611 514.147L845.365 478.458L907.118 514.147L845.365 549.836L783.611 514.147ZM848.939 476.402L910.693 440.82L972.446 476.509L910.693 512.176L848.939 476.402ZM914.267 438.678L976.042 403.01L1037.9 438.678L976.042 474.388L914.267 438.678ZM979.617 400.932L1041.37 365.243L1103.12 400.932L1041.37 436.621L979.617 400.932ZM1044.94 363.187L1106.7 327.498L1168.47 363.208L1106.72 398.897L1044.94 363.187ZM1044.94 287.674L1106.7 252.007L1168.47 287.696L1106.72 323.385L1044.94 287.674ZM1041.37 285.532L979.617 249.95L1041.37 214.261L1103.12 249.95L1041.37 285.532ZM976.042 247.894L914.289 212.205L976.042 176.516L1037.9 212.205L976.042 247.894ZM910.693 210.127L848.939 174.459L910.693 138.77L972.446 174.459L910.693 210.127ZM845.365 172.381L783.611 136.628L845.365 100.96L907.118 136.628L845.365 172.381ZM780.037 134.636L718.283 98.9466L780.037 63.279L841.79 98.9466L780.037 134.636ZM714.687 96.8901L652.934 61.2011L714.687 25.5121L776.441 61.2011L714.687 96.8901ZM711.113 99.0323L649.359 134.721L587.606 99.0323L649.359 63.3647L711.113 99.0323ZM645.785 136.628L584.117 172.381L522.278 136.628L584.117 101.025L645.785 136.628ZM580.457 174.395L518.703 210.062L456.928 174.395L518.703 138.77L580.457 174.395ZM515.107 212.14L453.354 247.829L391.6 212.14L453.354 176.451L515.107 212.14ZM449.779 249.95L388.026 285.639L326.272 249.95L388.026 214.282L449.779 249.95ZM384.451 287.696L322.698 323.385L260.901 287.696L322.655 252.028L384.451 287.696ZM319.102 325.462L257.348 361.13L195.595 325.462L257.348 289.773L319.102 325.462ZM253.774 363.208L192.02 398.897L130.331 363.208L192.084 327.519L253.774 363.208ZM257.348 365.35L319.102 401.018L257.348 436.707L195.595 401.018L257.348 365.35ZM322.698 403.096L384.451 438.678L322.698 474.367L260.901 438.678L322.698 403.096ZM388.026 440.82L449.779 476.509L388.026 512.176L326.272 476.509L388.026 440.82ZM453.354 478.565L515.107 514.254L453.354 549.943L391.6 514.254L453.354 478.565ZM518.682 516.311L580.435 552L518.682 587.689L456.928 552L518.682 516.311ZM584.117 554.035L645.87 589.703L584.117 625.392L522.278 589.703L584.117 554.035ZM649.445 591.78L711.198 627.469L649.445 663.137L587.691 627.469L649.445 591.78ZM714.687 629.526L776.441 665.215L714.687 700.904L652.934 665.215L714.687 629.526ZM718.283 627.384L780.037 591.695L841.79 627.384L780.037 663.051L718.283 627.384ZM783.611 589.703L845.365 554.035L907.118 589.703L845.365 625.392L783.611 589.703ZM848.939 551.957L910.693 516.268L972.446 551.957L910.693 587.646L848.939 551.957ZM914.267 514.211L976.042 478.523L1037.9 514.211L976.128 549.901L914.267 514.211ZM979.617 476.466L1041.37 440.82L1103.12 476.509L1041.37 512.176L979.617 476.466ZM1044.94 438.678L1106.7 403.01L1168.47 438.678L1106.72 474.367L1044.94 438.678ZM1110.27 400.932L1172.03 365.243L1233.78 400.932L1172.03 436.621L1110.27 400.932ZM1110.27 325.441L1172.03 289.752L1233.78 325.441L1172.03 361.13L1110.27 325.441ZM1110.27 249.929L1172.03 214.24L1233.8 249.929L1172.03 285.618L1110.27 249.929ZM1106.7 247.786L1044.94 212.097L1106.7 176.408L1168.47 212.205L1106.7 247.786ZM1041.37 210.02L979.617 174.352L1041.37 138.77L1103.12 174.459L1041.37 210.02ZM976.042 172.381L914.289 136.628L976.042 100.96L1037.9 136.628L976.042 172.381ZM910.693 134.636L848.939 98.9466L910.693 63.279L972.446 98.9466L910.693 134.636ZM845.365 96.8901L783.611 61.2011L845.365 25.5121L907.118 61.2011L845.365 96.8901ZM780.037 59.1231L718.283 23.4556L780.037 -12.2335L841.79 23.4556L780.037 59.1231ZM714.687 21.3776L652.934 -14.3114L714.687 -49.979L776.441 -14.3114L714.687 21.3776ZM711.113 23.5198L649.359 59.1231L587.606 23.4556L649.359 -12.2335L711.113 23.5198ZM645.785 61.2011L584.117 96.8901L522.278 61.2011L584.117 25.5121L645.785 61.2011ZM580.457 98.9466L518.703 134.636L456.928 98.9466L518.703 63.279L580.457 98.9466ZM515.107 136.628L453.354 172.317L391.6 136.628L453.354 100.96L515.107 136.628ZM449.779 174.395L388.026 210.062L326.272 174.395L388.026 138.77L449.779 174.395ZM384.451 212.14L322.698 247.829L260.901 212.205L322.655 176.516L384.451 212.14ZM319.102 249.95L257.348 285.639L195.595 249.95L257.348 214.282L319.102 249.95ZM253.774 287.696L192.02 323.385L130.331 287.696L192.084 252.028L253.774 287.696ZM188.445 325.462L126.692 361.13L64.9387 325.462L126.692 289.773L188.445 325.462ZM123.096 363.208L61.3426 398.897L-0.410767 363.208L61.3426 327.519L123.096 363.208ZM126.692 365.35L188.445 401.018L126.692 436.643L64.9387 400.954L126.692 365.35ZM192.02 403.096L253.774 438.678L192.02 474.367L130.331 438.678L192.02 403.096ZM257.348 440.82L319.102 476.509L257.348 512.176L195.595 476.509L257.348 440.82ZM322.698 478.565L384.451 514.254L322.698 549.943L260.901 514.211L322.698 478.565ZM388.026 516.311L449.779 552L388.026 587.689L326.272 552L388.026 516.311ZM453.354 554.078L515.107 589.745L453.354 625.434L391.6 589.703L453.354 554.078ZM518.682 591.823L580.435 627.512L518.682 663.18L456.928 627.512L518.682 591.823ZM584.117 629.526L645.87 665.215L584.117 700.904L522.363 665.215L584.117 629.526ZM649.445 667.271L711.198 702.96L649.359 738.585L587.606 702.896L649.445 667.271ZM714.687 705.038L776.441 740.727L714.687 776.395L652.934 740.727L714.687 705.038ZM718.283 702.896L780.037 667.207L841.79 702.896L780.037 738.585L718.283 702.896ZM783.611 665.151L845.365 629.462L907.118 665.151L845.365 700.84L783.611 665.151ZM848.939 627.405L910.693 591.716L972.446 627.405L910.693 663.073L848.939 627.405ZM914.267 589.638L976.021 553.971L1037.9 589.703L976.128 625.392L914.267 589.638ZM979.617 551.893L1041.37 516.204L1103.12 551.893L1041.37 587.582L979.617 551.893ZM1044.94 514.147L1106.7 478.458L1168.47 514.211L1106.72 549.901L1044.94 514.147ZM1110.27 476.402L1172.03 440.82L1233.78 476.509L1172.03 512.176L1110.27 476.402ZM1175.62 438.678L1237.38 403.01L1299.04 438.678L1237.29 474.367L1175.62 438.678ZM1175.62 363.187L1237.38 327.498L1299.04 363.208L1237.29 398.897L1175.62 363.187ZM1175.62 287.674L1237.38 252.007L1299.04 287.696L1237.29 323.385L1175.62 287.674ZM1233.8 174.438L1172.03 210.105L1110.27 174.438L1172.03 138.77L1233.8 174.438ZM1168.47 136.628L1106.72 172.317L1044.94 136.628L1106.7 100.96L1168.47 136.628ZM1103.15 98.8823L1041.39 134.571L979.638 98.8823L1041.39 63.2147L1103.15 98.8823ZM1037.9 61.2011L976.042 96.8901L914.289 61.2011L976.042 25.5121L1037.9 61.2011ZM972.446 23.4556L910.693 59.1231L848.939 23.4556L910.693 -12.2335L972.446 23.4556ZM907.118 -14.3114L845.365 21.3776L783.611 -14.3114L845.365 -49.979L907.118 -14.3114ZM841.79 -52.0569L780.037 -16.3679L718.283 -52.0569L780.037 -87.7245L841.79 -52.0569ZM714.687 -125.491L776.462 -89.8024L714.687 -54.0277L652.934 -89.8024L714.687 -125.491ZM649.359 -87.7245L711.113 -52.0569L649.359 -16.3679L587.606 -52.0569L649.359 -87.7245ZM584.117 -49.979L645.87 -14.3114L584.117 21.3776L522.278 -14.29L584.117 -49.979ZM518.703 -12.2335L580.457 23.4556L518.703 59.1231L456.95 23.4556L518.703 -12.2335ZM453.354 25.5121L515.107 61.2011L453.354 96.8901L391.6 61.2011L453.354 25.5121ZM388.026 63.279L449.779 98.9466L388.026 134.636L326.272 98.9466L388.026 63.279ZM322.698 101.025L384.451 136.628L322.698 172.317L260.901 136.628L322.698 101.025ZM257.348 138.77L319.102 174.459L257.348 210.127L195.595 174.459L257.348 138.77ZM192.02 176.516L253.774 212.205L192.02 247.894L130.331 212.205L192.02 176.516ZM126.692 214.282L188.445 249.95L126.692 285.639L64.9387 249.95L126.692 214.282ZM61.3426 252.028L123.096 287.696L61.3426 323.385L-0.410767 287.696L61.3426 252.028ZM-65.7388 325.462L-3.9854 289.773L57.768 325.462L-3.9854 361.13L-65.7388 325.462ZM-65.7388 400.954L-3.9854 365.286L57.768 400.954L-3.9854 436.643L-65.7388 400.954ZM-0.410767 438.678L61.3426 403.01L123.096 438.678L61.3426 474.388L-0.410767 438.678ZM64.9387 476.445L126.692 440.82L188.445 476.509L126.692 512.134L64.9387 476.445ZM130.331 514.211L192.084 478.523L253.838 514.211L192.084 549.901L130.331 514.211ZM195.659 551.957L257.412 516.289L319.166 551.957L257.412 587.646L195.659 551.957ZM260.901 589.703L322.676 554.035L384.43 589.703L322.676 625.392L260.901 589.703ZM326.251 627.469L388.004 591.78L449.758 627.469L388.004 663.137L326.251 627.469ZM391.579 665.215L453.332 629.526L515.086 665.215L453.332 700.904L391.579 665.215ZM456.907 702.96L518.66 667.271L580.414 702.96L518.682 738.585L456.907 702.96ZM522.278 740.727L584.117 705.038L645.785 740.727L584.117 776.395L522.278 740.727ZM587.606 778.494L649.359 742.87L711.113 778.559L649.359 814.226L587.606 778.494ZM714.687 851.907L652.934 816.218L714.687 780.529L776.441 816.218L714.687 851.907ZM780.037 814.141L718.262 778.473L780.037 742.87L841.79 778.559L780.037 814.141ZM845.365 776.395L783.611 740.727L845.365 705.06L907.118 740.727L845.365 776.395ZM910.693 738.585L848.939 702.896L910.693 667.207L972.446 702.896L910.693 738.585ZM976.021 700.84L914.267 665.151L976.021 629.462L1037.9 665.215L976.021 700.84ZM1041.37 663.073L979.617 627.405L1041.37 591.716L1103.12 627.405L1041.37 663.073ZM1106.7 625.327L1044.94 589.703L1106.7 554.035L1168.47 589.703L1106.7 625.327ZM1172.03 587.582L1110.27 551.893L1172.03 516.204L1233.78 551.893L1172.03 587.582ZM1237.38 549.836L1175.62 514.147L1237.38 478.458L1299.04 514.211L1237.38 549.836ZM1364.46 476.402L1302.7 512.069L1240.95 476.402L1302.7 440.82L1364.46 476.402ZM1364.46 400.889L1302.7 436.578L1240.95 400.889L1302.7 365.2L1364.46 400.889ZM1364.46 325.398L1302.7 361.13L1240.95 325.462L1302.7 289.773L1364.46 325.398ZM1302.7 285.575L1240.95 249.95L1302.7 214.261L1364.46 249.95L1302.7 285.575Z" fill="url(#paint0_radial_11954_25490)" fill-opacity="0.11"/>
<defs>
<radialGradient id="paint0_radial_11954_25490" cx="0" cy="0" r="1" gradientUnits="userSpaceOnUse" gradientTransform="translate(647.989 353.444) scale(680.529 456.316)">
<stop stop-color="#0066FF"/>
<stop offset="1" stop-color="white" stop-opacity="0"/>
</radialGradient>
</defs>
</svg>
