<svg width="79" height="80" viewBox="0 0 79 80" fill="none" xmlns="http://www.w3.org/2000/svg">
<path d="M4 5.12891C1.79086 5.12891 0 6.91977 0 9.12891V70.8711C0 73.0802 1.79086 74.8711 4 74.8711H75C77.2091 74.8711 79 73.0802 79 70.8711V9.12891C79 6.91977 77.2091 5.12891 75 5.12891H4ZM74.3711 66.2422C74.3711 68.4513 72.5802 70.2422 70.3711 70.2422H8.62891C6.41977 70.2422 4.62891 68.4513 4.62891 66.2422V23.0156C4.62891 20.8065 6.41977 19.0156 8.62891 19.0156H70.3711C72.5802 19.0156 74.3711 20.8065 74.3711 23.0156V66.2422ZM74.3711 12.0723C74.3711 13.3505 73.3349 14.3867 72.0566 14.3867H6.94336C5.66512 14.3867 4.62891 13.3505 4.62891 12.0723C4.62891 10.794 5.66512 9.75781 6.94336 9.75781H72.0566C73.3349 9.75781 74.3711 10.794 74.3711 12.0723Z" fill="url(#paint0_linear_10986_2512)"/>
<path d="M44.8145 25.1875C43.1576 25.1875 41.8145 26.5306 41.8145 28.1875V61.0703C41.8145 62.7272 43.1576 64.0703 44.8145 64.0703H66.7422C68.399 64.0703 69.7422 62.7272 69.7422 61.0703V28.1875C69.7422 26.5306 68.399 25.1875 66.7422 25.1875H44.8145ZM65.1133 56.4414C65.1133 58.0983 63.7701 59.4414 62.1133 59.4414H49.4434C47.7865 59.4414 46.4434 58.0983 46.4434 56.4414V32.8164C46.4434 31.1596 47.7865 29.8164 49.4434 29.8164H62.1133C63.7701 29.8164 65.1133 31.1596 65.1133 32.8164V56.4414Z" fill="url(#paint1_linear_10986_2512)"/>
<path d="M34.8711 25.1875H11.5723C10.294 25.1875 9.25781 26.2237 9.25781 27.502C9.25781 28.7802 10.294 29.8164 11.5723 29.8164H34.8711C36.1493 29.8164 37.1855 28.7802 37.1855 27.502C37.1855 26.2237 36.1493 25.1875 34.8711 25.1875Z" fill="#0047FF"/>
<path d="M25.6133 34.4453H11.5723C10.294 34.4453 9.25781 35.4815 9.25781 36.7598C9.25781 38.038 10.294 39.0742 11.5723 39.0742H25.6133C26.8915 39.0742 27.9277 38.038 27.9277 36.7598C27.9277 35.4815 26.8915 34.4453 25.6133 34.4453Z" fill="#0047FF"/>
<path d="M12 50V48C12 47.1716 11.3284 46.5 10.5 46.5C9.67157 46.5 9 47.1716 9 48V50C9 50.8284 9.67157 51.5 10.5 51.5C11.3284 51.5 12 50.8284 12 50Z" fill="#386FFF"/>
<path d="M16 50V48C16 47.1716 15.3284 46.5 14.5 46.5C13.6716 46.5 13 47.1716 13 48V50C13 50.8284 13.6716 51.5 14.5 51.5C15.3284 51.5 16 50.8284 16 50Z" fill="#386FFF"/>
<path d="M20 50V48C20 47.1716 19.3284 46.5 18.5 46.5C17.6716 46.5 17 47.1716 17 48V50C17 50.8284 17.6716 51.5 18.5 51.5C19.3284 51.5 20 50.8284 20 50Z" fill="#386FFF"/>
<path d="M24 50V48C24 47.1716 23.3284 46.5 22.5 46.5C21.6716 46.5 21 47.1716 21 48V50C21 50.8284 21.6716 51.5 22.5 51.5C23.3284 51.5 24 50.8284 24 50Z" fill="#386FFF"/>
<path d="M28 50V48C28 47.1716 27.3284 46.5 26.5 46.5C25.6716 46.5 25 47.1716 25 48V50C25 50.8284 25.6716 51.5 26.5 51.5C27.3284 51.5 28 50.8284 28 50Z" fill="#386FFF"/>
<path d="M32 50V48C32 47.1716 31.3284 46.5 30.5 46.5C29.6716 46.5 29 47.1716 29 48V50C29 50.8284 29.6716 51.5 30.5 51.5C31.3284 51.5 32 50.8284 32 50Z" fill="#386FFF"/>
<path d="M36 50V48C36 47.1716 35.3284 46.5 34.5 46.5C33.6716 46.5 33 47.1716 33 48V50C33 50.8284 33.6716 51.5 34.5 51.5C35.3284 51.5 36 50.8284 36 50Z" fill="#386FFF"/>
<path d="M25.6133 56.0469H11.5723C10.294 56.0469 9.25781 57.0831 9.25781 58.3613C9.25781 59.6396 10.294 60.6758 11.5723 60.6758H25.6133C26.8915 60.6758 27.9277 59.6396 27.9277 58.3613C27.9277 57.0831 26.8915 56.0469 25.6133 56.0469Z" fill="#0047FF"/>
<defs>
<linearGradient id="paint0_linear_10986_2512" x1="39.5" y1="5.12891" x2="79" y2="99.5" gradientUnits="userSpaceOnUse">
<stop stop-color="#7098FF"/>
<stop offset="1" stop-color="white" stop-opacity="0"/>
</linearGradient>
<linearGradient id="paint1_linear_10986_2512" x1="55.7783" y1="25.1875" x2="55.7783" y2="64.0703" gradientUnits="userSpaceOnUse">
<stop stop-color="#C4D5FF"/>
<stop offset="1" stop-color="#C4D5FF" stop-opacity="0"/>
</linearGradient>
</defs>
</svg>
