<svg width="636" height="608" viewBox="0 0 636 608" fill="none" xmlns="http://www.w3.org/2000/svg">
<g clip-path="url(#clip0_11276_3859)">
<path d="M379.876 517.253C379.623 517.253 379.378 517.167 379.18 517.01C378.982 516.853 378.843 516.634 378.785 516.388C378.727 516.142 378.754 515.884 378.862 515.655C378.969 515.427 379.151 515.241 379.377 515.128L518.994 445.342C519.126 445.276 519.27 445.237 519.417 445.226C519.564 445.216 519.711 445.235 519.851 445.281C519.991 445.328 520.12 445.401 520.232 445.498C520.343 445.595 520.434 445.712 520.5 445.844C520.566 445.976 520.606 446.119 520.616 446.266C520.627 446.413 520.608 446.561 520.561 446.7C520.515 446.84 520.441 446.969 520.344 447.081C520.248 447.192 520.13 447.283 519.998 447.349L380.375 517.135C380.22 517.212 380.049 517.253 379.876 517.253Z" fill="#A5B6F5"/>
<path d="M368.803 511.714C368.549 511.715 368.303 511.63 368.104 511.474C367.905 511.317 367.765 511.098 367.707 510.852C367.648 510.606 367.675 510.347 367.782 510.118C367.889 509.888 368.071 509.702 368.298 509.589L507.921 439.809C508.053 439.743 508.196 439.704 508.343 439.693C508.49 439.683 508.638 439.701 508.778 439.748C508.918 439.794 509.047 439.868 509.159 439.965C509.27 440.061 509.361 440.179 509.427 440.311C509.493 440.442 509.532 440.586 509.543 440.733C509.553 440.88 509.535 441.027 509.488 441.167C509.441 441.307 509.368 441.436 509.271 441.547C509.174 441.659 509.057 441.75 508.925 441.816L369.302 511.596C369.147 511.675 368.976 511.716 368.803 511.714Z" fill="#A5B6F5"/>
<path d="M374.339 514.483C374.086 514.484 373.84 514.4 373.641 514.243C373.442 514.087 373.302 513.868 373.243 513.621C373.185 513.375 373.211 513.116 373.319 512.887C373.426 512.658 373.608 512.472 373.834 512.359L513.458 442.578C513.721 442.465 514.017 442.456 514.286 442.554C514.556 442.652 514.777 442.849 514.906 443.105C515.034 443.361 515.06 443.656 514.977 443.931C514.895 444.205 514.71 444.437 514.462 444.58L374.839 514.366C374.683 514.443 374.513 514.483 374.339 514.483Z" fill="#A5B6F5"/>
<path style="mix-blend-mode:multiply" d="M287.284 627L37 501.903L79.302 480.785L329.586 605.876L287.284 627Z" fill="url(#paint0_linear_11276_3859)"/>
<path d="M329.586 480.785L204.441 418.242V293.162L329.586 355.704V480.785Z" fill="url(#paint1_linear_11276_3859)"/>
<path d="M329.586 480.785L454.725 418.242V293.162L329.586 355.704V480.785Z" fill="#E3E5F9"/>
<path d="M329.586 355.721L204.441 293.173L329.586 230.624L454.725 293.173L329.586 355.721Z" fill="url(#paint2_linear_11276_3859)"/>
<path d="M204.441 543.333L79.302 480.785V355.704L204.441 418.253V543.333Z" fill="url(#paint3_linear_11276_3859)"/>
<path d="M204.441 543.333L329.586 480.785V355.704L204.441 418.253V543.333Z" fill="#E3E5F9"/>
<path d="M204.441 418.264L79.302 355.721L204.441 293.173L329.586 355.721L204.441 418.264Z" fill="url(#paint4_linear_11276_3859)"/>
<path d="M329.586 605.876L204.441 543.333V418.253L329.586 480.796V605.876Z" fill="url(#paint5_linear_11276_3859)"/>
<path d="M285.984 536.365C294.167 529.98 292.305 513.928 281.825 500.513C271.345 487.097 256.215 481.398 248.032 487.783C239.849 494.168 241.711 510.219 252.191 523.635C262.671 537.05 277.801 542.75 285.984 536.365Z" fill="#5B78E6"/>
<path d="M288.378 522.741L272.357 514.736L287.189 515.139C286.046 511.366 284.345 507.785 282.14 504.516L270.814 510.178L276.34 497.502C273.598 494.768 270.445 492.481 266.994 490.724V506.736L259.982 488.409C257.245 487.9 254.417 488.256 251.893 489.429L263.236 506.422L247.787 493.18C246.424 495.305 245.649 498.074 245.649 501.41L261.67 509.415L246.839 509.012C247.98 512.786 249.682 516.367 251.887 519.636L263.213 513.973L257.704 526.604C260.427 529.344 263.561 531.643 266.994 533.416V517.41L274.012 535.731C276.761 536.254 279.605 535.897 282.14 534.711L270.814 517.729L286.263 530.977C287.604 528.847 288.378 526.077 288.378 522.741Z" fill="url(#paint6_linear_11276_3859)"/>
<path d="M272.918 519.639C275.467 517.65 274.888 512.65 271.624 508.472C268.36 504.294 263.648 502.519 261.098 504.508C258.549 506.498 259.128 511.497 262.392 515.675C265.656 519.854 270.369 521.628 272.918 519.639Z" fill="url(#paint7_linear_11276_3859)"/>
<path d="M329.586 605.876L454.725 543.333V418.253L329.586 480.796V605.876Z" fill="url(#paint8_linear_11276_3859)"/>
<path d="M329.586 480.813L204.441 418.264L329.586 355.721L454.725 418.264L329.586 480.813Z" fill="url(#paint9_linear_11276_3859)"/>
<path d="M363.401 563.044L420.91 534.301C423.3 533.107 425.235 530.203 425.235 527.815C425.235 525.427 423.3 524.451 420.91 525.651L363.401 554.405C361.011 555.605 359.076 558.509 359.076 560.897C359.076 563.285 361.011 564.25 363.401 563.044Z" fill="#5B78E6"/>
<path d="M401.552 539.667C401.552 540.278 402.045 540.53 402.673 540.227L420.697 531.201C421.011 531.038 421.278 530.798 421.474 530.504C421.67 530.21 421.789 529.871 421.819 529.519C421.819 528.908 421.32 528.656 420.697 528.959L402.645 537.979C402.336 538.145 402.073 538.387 401.882 538.682C401.69 538.977 401.577 539.316 401.552 539.667ZM375.495 552.69C375.495 553.301 375.994 553.553 376.617 553.25L383.909 549.601C384.223 549.438 384.491 549.198 384.687 548.904C384.883 548.61 385.002 548.271 385.031 547.919C385.031 547.302 384.532 547.056 383.909 547.358L376.617 551.008C376.303 551.171 376.036 551.411 375.84 551.705C375.644 551.999 375.525 552.338 375.495 552.69ZM362.486 559.187C362.486 559.804 362.985 560.051 363.608 559.748L370.901 556.104C371.214 555.941 371.482 555.701 371.678 555.407C371.874 555.113 371.993 554.774 372.023 554.422C372.023 553.811 371.523 553.559 370.901 553.861L363.608 557.511C363.295 557.674 363.028 557.913 362.832 558.206C362.636 558.499 362.517 558.836 362.486 559.187Z" fill="white"/>
<path d="M363.401 575.406L420.91 546.663C423.3 545.469 425.235 542.565 425.235 540.177C425.235 537.788 423.3 536.813 420.91 538.013L363.401 566.761C361.011 567.955 359.076 570.859 359.076 573.248C359.076 575.636 361.011 576.6 363.401 575.406Z" fill="#5B78E6"/>
<path d="M401.552 552.017C401.552 552.628 402.045 552.88 402.673 552.578L420.697 543.552C421.011 543.388 421.278 543.149 421.474 542.855C421.67 542.561 421.789 542.222 421.819 541.87C421.819 541.259 421.32 541.006 420.697 541.309L402.645 550.329C402.336 550.496 402.073 550.738 401.882 551.033C401.69 551.328 401.577 551.666 401.552 552.017ZM375.495 565.04C375.495 565.651 375.994 565.903 376.617 565.601L383.909 561.951C384.223 561.788 384.491 561.549 384.687 561.255C384.883 560.961 385.002 560.622 385.031 560.269C385.031 559.653 384.532 559.406 383.909 559.709L376.617 563.358C376.303 563.521 376.036 563.761 375.84 564.055C375.644 564.349 375.525 564.688 375.495 565.04ZM362.486 571.538C362.486 572.154 362.985 572.401 363.608 572.098L370.901 568.449C371.214 568.286 371.482 568.046 371.678 567.752C371.874 567.458 371.993 567.119 372.023 566.767C372.023 566.156 371.523 565.903 370.901 566.206L363.608 569.856C363.294 570.019 363.027 570.259 362.831 570.553C362.635 570.847 362.516 571.186 362.486 571.538Z" fill="white"/>
<path d="M363.401 518.413L420.91 489.665C423.3 488.471 425.235 485.567 425.235 483.178C425.235 480.79 423.3 479.815 420.91 481.02L363.401 509.785C361.011 510.98 359.076 513.884 359.076 516.272C359.076 518.66 361.011 519.607 363.401 518.413Z" fill="#5B78E6"/>
<path d="M401.552 495.019C401.552 495.635 402.045 495.882 402.673 495.579L420.697 486.553C421.011 486.39 421.278 486.15 421.474 485.856C421.67 485.562 421.789 485.224 421.819 484.871C421.819 484.26 421.32 484.014 420.697 484.311L402.645 493.331C402.336 493.498 402.073 493.74 401.882 494.035C401.69 494.33 401.577 494.668 401.552 495.019ZM375.495 508.042C375.495 508.653 375.994 508.905 376.617 508.603L383.909 504.953C384.224 504.791 384.492 504.551 384.688 504.257C384.884 503.963 385.002 503.623 385.031 503.271C385.031 502.654 384.532 502.408 383.909 502.71L376.617 506.354C376.302 506.518 376.035 506.759 375.838 507.054C375.642 507.349 375.524 507.689 375.495 508.042ZM362.486 514.545C362.486 515.156 362.985 515.408 363.608 515.106L370.901 511.456C371.214 511.293 371.482 511.053 371.678 510.759C371.874 510.465 371.993 510.126 372.023 509.774C372.023 509.163 371.523 508.911 370.901 509.214L363.608 512.863C363.294 513.026 363.027 513.266 362.831 513.56C362.635 513.854 362.516 514.193 362.486 514.545Z" fill="white"/>
<path d="M363.401 530.764L420.91 502.015C423.3 500.821 425.235 497.917 425.235 495.529C425.235 493.141 423.3 492.165 420.91 493.37L363.401 522.119C361.011 523.313 359.076 526.217 359.076 528.605C359.076 530.994 361.011 531.958 363.401 530.764Z" fill="#5B78E6"/>
<path d="M401.552 507.369C401.552 507.986 402.045 508.233 402.673 507.93L420.697 498.904C421.011 498.741 421.278 498.501 421.474 498.207C421.67 497.913 421.789 497.574 421.819 497.222C421.819 496.605 421.32 496.359 420.697 496.661L402.645 505.687C402.336 505.853 402.073 506.094 401.882 506.388C401.691 506.682 401.577 507.019 401.552 507.369ZM375.495 520.392C375.495 521.009 375.994 521.256 376.617 520.953L383.909 517.303C384.224 517.141 384.492 516.902 384.688 516.607C384.884 516.313 385.002 515.974 385.031 515.622C385.031 515.005 384.532 514.758 383.909 515.061L376.617 518.705C376.302 518.869 376.035 519.109 375.838 519.404C375.642 519.699 375.524 520.039 375.495 520.392ZM362.486 526.896C362.486 527.507 362.985 527.759 363.608 527.456L370.901 523.807C371.214 523.643 371.482 523.404 371.678 523.11C371.874 522.816 371.993 522.477 372.023 522.125C372.023 521.508 371.523 521.261 370.901 521.564L363.608 525.214C363.294 525.377 363.027 525.617 362.831 525.911C362.635 526.205 362.516 526.544 362.486 526.896Z" fill="#42EAFF"/>
<path d="M363.401 543.114L420.91 514.371C423.3 513.172 425.235 510.268 425.235 507.879C425.235 505.491 423.3 504.516 420.91 505.721L363.401 534.453C361.011 535.647 359.076 538.551 359.076 540.939C359.076 543.327 361.011 544.308 363.401 543.114Z" fill="#5B78E6"/>
<path d="M401.552 519.72C401.552 520.336 402.045 520.583 402.673 520.28L420.697 511.254C421.011 511.091 421.278 510.851 421.474 510.557C421.67 510.263 421.789 509.924 421.819 509.572C421.819 508.956 421.32 508.709 420.697 509.012L402.645 518.032C402.335 518.198 402.072 518.44 401.881 518.735C401.69 519.03 401.576 519.369 401.552 519.72ZM375.495 532.771C375.495 533.387 375.994 533.634 376.617 533.331L383.909 529.687C384.223 529.525 384.491 529.285 384.687 528.991C384.883 528.697 385.002 528.358 385.031 528.006C385.031 527.389 384.532 527.142 383.909 527.445L376.617 531.095C376.304 531.257 376.036 531.496 375.84 531.789C375.644 532.082 375.525 532.42 375.495 532.771ZM362.486 539.274C362.486 539.885 362.985 540.137 363.608 539.835L370.901 536.185C371.214 536.022 371.482 535.782 371.678 535.488C371.874 535.194 371.993 534.855 372.023 534.503C372.023 533.886 371.523 533.64 370.901 533.943L363.608 537.592C363.298 537.753 363.033 537.988 362.837 538.277C362.641 538.566 362.521 538.899 362.486 539.246V539.274Z" fill="#42EAFF"/>
<path d="M363.401 486.116L420.91 457.373C423.3 456.179 425.235 453.275 425.235 450.887C425.235 448.498 423.3 447.523 420.91 448.723L363.401 477.466C361.011 478.66 359.076 481.564 359.076 483.952C359.076 486.34 361.011 487.31 363.401 486.116Z" fill="#5B78E6"/>
<path d="M401.552 462.721C401.552 463.338 402.045 463.585 402.673 463.282L420.697 454.284C421.011 454.121 421.279 453.882 421.475 453.588C421.671 453.293 421.79 452.954 421.819 452.602C421.819 451.985 421.32 451.739 420.697 452.041L402.645 461.062C402.339 461.226 402.079 461.463 401.888 461.753C401.697 462.043 401.581 462.376 401.552 462.721ZM375.495 475.745C375.495 476.361 375.994 476.608 376.617 476.305L383.909 472.661C384.223 472.498 384.491 472.259 384.687 471.965C384.883 471.671 385.002 471.332 385.031 470.979C385.031 470.368 384.532 470.116 383.909 470.419L376.617 474.068C376.304 474.231 376.037 474.47 375.841 474.763C375.645 475.056 375.526 475.393 375.495 475.745ZM362.486 482.248C362.486 482.864 362.985 483.111 363.608 482.808L370.901 479.159C371.215 478.996 371.482 478.756 371.678 478.462C371.875 478.168 371.993 477.829 372.023 477.477C372.023 476.86 371.523 476.613 370.901 476.916L363.608 480.566C363.294 480.729 363.027 480.968 362.83 481.262C362.634 481.556 362.516 481.895 362.486 482.248Z" fill="#42EAFF"/>
<path d="M363.401 498.467L420.91 469.723C423.3 468.529 425.235 465.625 425.235 463.237C425.235 460.849 423.3 459.873 420.91 461.073L363.401 489.816C361.011 491.01 359.076 493.914 359.076 496.303C359.076 498.691 361.011 499.661 363.401 498.467Z" fill="#5B78E6"/>
<path d="M401.552 475.077C401.552 475.689 402.045 475.935 402.673 475.638L420.697 466.618C421.011 466.455 421.278 466.215 421.474 465.921C421.67 465.627 421.789 465.288 421.819 464.936C421.819 464.319 421.32 464.072 420.697 464.375L402.645 473.396C402.336 473.561 402.074 473.803 401.883 474.096C401.692 474.39 401.578 474.728 401.552 475.077ZM375.495 488.095C375.495 488.712 375.994 488.958 376.617 488.656L383.909 485.006C384.223 484.843 384.491 484.604 384.687 484.31C384.883 484.015 385.002 483.676 385.031 483.324C385.031 482.713 384.532 482.461 383.909 482.764L376.617 486.413C376.303 486.576 376.036 486.816 375.84 487.11C375.644 487.404 375.525 487.743 375.495 488.095ZM362.486 494.598C362.486 495.215 362.985 495.462 363.608 495.159L370.901 491.515C371.214 491.352 371.482 491.112 371.678 490.818C371.874 490.524 371.993 490.185 372.023 489.833C372.023 489.216 371.523 488.97 370.901 489.272L363.608 492.922C363.295 493.084 363.028 493.323 362.832 493.616C362.635 493.909 362.517 494.247 362.486 494.598Z" fill="white"/>
<g style="mix-blend-mode:multiply">
<path opacity="0.09" d="M302.929 260.253L391.208 304.374L302.929 348.495L214.651 304.374L302.929 260.253Z" fill="#A7B1F2"/>
<path opacity="0.18" d="M305.599 258.919L393.878 303.045L305.599 347.166L217.321 303.045L305.599 258.919Z" fill="#A7B1F2"/>
<path opacity="0.27" d="M308.264 257.59L396.542 301.711L308.264 345.832L219.986 301.711L308.264 257.59Z" fill="#A7B1F2"/>
<path opacity="0.36" d="M310.929 256.256L399.207 300.377L310.929 344.503L222.65 300.377L310.929 256.256Z" fill="#A7B1F2"/>
<path opacity="0.45" d="M313.593 254.922L401.872 299.048L313.593 343.169L225.315 299.048L313.593 254.922Z" fill="#A7B1F2"/>
<path opacity="0.55" d="M316.258 253.593L404.536 297.714L316.258 341.835L227.979 297.714L316.258 253.593Z" fill="#A7B1F2"/>
<path opacity="0.64" d="M318.922 252.259L407.201 296.385L318.922 340.506L230.644 296.385L318.922 252.259Z" fill="#A7B1F2"/>
<path opacity="0.73" d="M321.587 250.93L409.865 295.051L321.587 339.172L233.308 295.051L321.587 250.93Z" fill="#A7B1F2"/>
<path opacity="0.82" d="M324.257 249.596L412.535 293.717L324.257 337.837L235.973 293.717L324.257 249.596Z" fill="#A7B1F2"/>
<path opacity="0.91" d="M326.922 248.262L415.2 292.388L326.922 336.509L238.643 292.388L326.922 248.262Z" fill="#A7B1F2"/>
<path d="M329.586 246.933L417.865 291.054L329.586 335.175L241.308 291.054L329.586 246.933Z" fill="#A7B1F2"/>
</g>
<path d="M329.586 335.174L241.195 290.998V202.655L329.586 246.832V335.174Z" fill="url(#paint10_linear_11276_3859)"/>
<path d="M254.081 234.263V227.491L247.304 224.104V230.877L254.081 234.263Z" fill="#42C0FF"/>
<path d="M254.081 224.676V217.904L247.304 214.512V221.29L254.081 224.676Z" fill="#5B78E6"/>
<path d="M264.93 239.69V232.912L258.153 229.526V236.304L264.93 239.69Z" fill="#42C0FF"/>
<path d="M264.93 230.097V223.325L258.153 219.939V226.711L264.93 230.097Z" fill="white"/>
<path d="M275.784 245.111V238.339L269.002 234.947V241.725L275.784 245.111Z" fill="white"/>
<path d="M275.784 235.524V228.746L269.002 225.36V232.138L275.784 235.524Z" fill="#5B78E6"/>
<path d="M329.586 335.174L417.971 290.998V202.655L329.586 246.832V335.174Z" fill="url(#paint11_linear_11276_3859)"/>
<path d="M347.262 308.668L400.295 282.168V229.156L347.262 255.662V308.668Z" fill="url(#paint12_linear_11276_3859)"/>
<path d="M347.262 308.668L400.295 282.168L347.262 255.662V308.668Z" fill="url(#paint13_linear_11276_3859)"/>
<path d="M329.586 246.843L241.195 202.661L329.586 158.484L417.971 202.661L329.586 246.843Z" fill="url(#paint14_linear_11276_3859)"/>
<g style="mix-blend-mode:multiply">
<path opacity="0.09" d="M177.79 322.802L266.068 366.922L177.79 411.043L89.5115 366.922L177.79 322.802Z" fill="#A7B1F2"/>
<path opacity="0.18" d="M180.454 321.467L268.733 365.588L180.454 409.709L92.176 365.588L180.454 321.467Z" fill="#A7B1F2"/>
<path opacity="0.27" d="M183.119 320.133L271.397 364.259L183.119 408.38L94.8406 364.259L183.119 320.133Z" fill="#A7B1F2"/>
<path opacity="0.36" d="M185.784 318.804L274.062 362.925L185.784 407.046L97.5051 362.925L185.784 318.804Z" fill="#A7B1F2"/>
<path opacity="0.45" d="M188.454 317.47L276.732 361.591L188.454 405.717L100.17 361.591L188.454 317.47Z" fill="#A7B1F2"/>
<path opacity="0.55" d="M191.118 316.141L279.397 360.262L191.118 404.383L102.84 360.262L191.118 316.141Z" fill="#A7B1F2"/>
<path opacity="0.64" d="M193.783 314.807L282.061 358.928L193.783 403.049L105.505 358.928L193.783 314.807Z" fill="#A7B1F2"/>
<path opacity="0.73" d="M196.447 313.473L284.726 357.599L196.447 401.72L108.169 357.599L196.447 313.473Z" fill="#A7B1F2"/>
<path opacity="0.82" d="M199.112 312.144L287.39 356.265L199.112 400.386L110.834 356.265L199.112 312.144Z" fill="#A7B1F2"/>
<path opacity="0.91" d="M201.777 310.81L290.055 354.931L201.777 399.057L113.498 354.931L201.777 310.81Z" fill="#A7B1F2"/>
<path d="M204.441 309.481L292.719 353.602L204.441 397.723L116.163 353.602L204.441 309.481Z" fill="#A7B1F2"/>
</g>
<path d="M204.441 397.723L292.832 353.546V265.198L204.441 309.375V397.723Z" fill="url(#paint15_linear_11276_3859)"/>
<path d="M214.331 341.599L250.44 323.553C252.123 322.712 253.492 320.66 253.492 318.973V298.235C253.492 296.553 252.123 295.864 250.44 296.71L214.331 314.751C212.648 315.598 211.279 317.65 211.279 319.331V340.074C211.279 341.734 212.648 342.418 214.331 341.599Z" fill="#42DDFF"/>
<path d="M211.762 340.287L247.871 322.241C249.554 321.4 250.922 319.348 250.922 317.661V296.951C250.923 296.807 250.912 296.662 250.889 296.52C252.358 295.998 253.492 296.699 253.492 298.235V318.945C253.492 320.626 252.123 322.684 250.44 323.525L214.331 341.599C212.8 342.367 211.526 341.868 211.313 340.478C211.467 340.425 211.617 340.362 211.762 340.287Z" fill="url(#paint16_linear_11276_3859)"/>
<path d="M211.526 332.282L211.027 331.278L216.496 328.548C217.217 328.155 217.849 327.617 218.353 326.969C218.857 326.321 219.222 325.576 219.424 324.781L220.137 321.456C220.361 320.335 221.579 314.617 223.374 313.72C223.546 313.63 223.736 313.58 223.93 313.572C224.123 313.564 224.317 313.599 224.496 313.675C225.292 314 226.01 315.099 226.678 317.038C226.699 317.125 226.741 317.205 226.799 317.273C226.858 317.34 226.931 317.392 227.014 317.425C227.191 317.471 227.374 317.48 227.555 317.453C227.735 317.426 227.908 317.363 228.063 317.268C228.362 317.096 228.695 316.991 229.039 316.959C229.382 316.927 229.729 316.969 230.055 317.083C230.284 317.179 230.49 317.324 230.657 317.508C230.823 317.692 230.947 317.911 231.019 318.148C231.709 320.256 232.506 321.675 233.14 321.938C233.196 321.967 233.259 321.982 233.322 321.982C233.386 321.982 233.448 321.967 233.505 321.938C234.828 321.277 236.309 316.169 236.87 313.108C237.067 312.133 238.11 307.239 239.675 306.454C239.831 306.374 240.003 306.33 240.178 306.323C240.354 306.316 240.528 306.347 240.69 306.415C241.369 306.684 241.975 307.575 242.536 309.139C242.559 309.221 242.601 309.296 242.657 309.359C242.713 309.422 242.783 309.471 242.861 309.504C243.039 309.549 243.223 309.559 243.405 309.532C243.586 309.505 243.76 309.442 243.916 309.347L250.563 306.028L251.063 307.026L244.415 310.35C244.119 310.52 243.791 310.625 243.452 310.659C243.112 310.693 242.77 310.654 242.446 310.546C242.221 310.455 242.018 310.316 241.851 310.139C241.685 309.962 241.558 309.751 241.481 309.521C240.848 307.76 240.359 307.491 240.27 307.452C240.256 307.445 240.24 307.441 240.225 307.441C240.209 307.441 240.194 307.445 240.18 307.452C239.468 307.811 238.497 310.776 237.975 313.322C237.695 314.734 236.18 321.837 233.981 322.936C233.782 323.039 233.563 323.096 233.338 323.104C233.114 323.111 232.891 323.069 232.686 322.981C231.698 322.566 230.767 321.058 229.931 318.496C229.91 318.413 229.869 318.335 229.812 318.27C229.756 318.205 229.685 318.154 229.606 318.12C229.427 318.071 229.241 318.058 229.057 318.084C228.874 318.111 228.698 318.174 228.54 318.272C228.243 318.442 227.914 318.547 227.573 318.58C227.233 318.613 226.889 318.573 226.565 318.462C226.336 318.369 226.13 318.226 225.962 318.044C225.795 317.862 225.669 317.645 225.595 317.408C224.984 315.642 224.395 314.863 224.052 314.723C224.023 314.706 223.99 314.698 223.957 314.698C223.924 314.698 223.891 314.706 223.862 314.723C222.897 315.205 221.736 319.079 221.22 321.68L220.501 325.016C220.266 325.978 219.831 326.879 219.224 327.661C218.617 328.444 217.852 329.09 216.979 329.557L211.526 332.282Z" fill="white"/>
<path d="M266.326 294.238C266.326 296.082 264.829 298.319 262.989 299.244C261.149 300.169 259.651 299.418 259.651 297.563C259.651 295.707 261.143 293.481 262.989 292.562C264.834 291.642 266.326 292.399 266.326 294.238Z" fill="white"/>
<path d="M276.339 289.237C276.339 291.076 274.842 293.319 272.974 294.238C271.106 295.157 269.636 294.412 269.636 292.556C269.636 290.701 271.128 288.469 272.974 287.55C274.819 286.63 276.339 287.393 276.339 289.237Z" fill="#42C0FF"/>
<path d="M286.353 284.231C286.353 286.07 284.855 288.312 283.015 289.232C281.175 290.151 279.677 289.411 279.677 287.55C279.677 285.689 281.169 283.469 283.015 282.544C284.861 281.619 286.353 282.387 286.353 284.231Z" fill="#5B78E6"/>
<path d="M266.326 303.477C266.326 305.322 264.829 307.558 262.989 308.483C261.149 309.408 259.651 308.657 259.651 306.802C259.651 304.946 261.143 302.72 262.989 301.801C264.834 300.881 266.326 301.644 266.326 303.477Z" fill="#5B78E6"/>
<path d="M276.339 298.482C276.339 300.321 274.842 302.563 272.974 303.483C271.106 304.402 269.636 303.657 269.636 301.801C269.636 299.945 271.128 297.714 272.974 296.795C274.819 295.875 276.339 296.638 276.339 298.482Z" fill="#5B78E6"/>
<path d="M286.353 293.476C286.353 295.314 284.855 297.557 283.015 298.476C281.175 299.396 279.677 298.656 279.677 296.795C279.677 294.933 281.169 292.713 283.015 291.788C284.861 290.863 286.353 291.631 286.353 293.476Z" fill="#42C0FF"/>
<path d="M204.441 397.723L116.051 353.546V265.198L204.441 309.375V397.723Z" fill="url(#paint17_linear_11276_3859)"/>
<path d="M186.765 371.217L133.732 344.711V291.704L186.765 318.21V371.217Z" fill="url(#paint18_linear_11276_3859)"/>
<path d="M186.765 371.217L133.732 344.711L186.765 318.21V371.217Z" fill="url(#paint19_linear_11276_3859)"/>
<path d="M204.441 309.386L292.832 265.209L204.441 221.032L116.051 265.209L204.441 309.386Z" fill="url(#paint20_linear_11276_3859)"/>
<path d="M190.63 495.019V508.821L176.819 515.728V529.53L163.009 536.432V550.234L149.198 557.141V570.944L204.441 543.333V488.117L190.63 495.019Z" fill="url(#paint21_linear_11276_3859)"/>
<path d="M190.63 495.019L135.387 467.408L149.198 460.507L204.441 488.117L190.63 495.019Z" fill="url(#paint22_linear_11276_3859)"/>
<path d="M190.63 508.821L135.387 481.211V467.408L190.63 495.019V508.821Z" fill="url(#paint23_linear_11276_3859)"/>
<path d="M176.819 515.728L121.576 488.112L135.387 481.211L190.63 508.821L176.819 515.728Z" fill="url(#paint24_linear_11276_3859)"/>
<path d="M176.819 529.53L121.576 501.92V488.112L176.819 515.728V529.53Z" fill="url(#paint25_linear_11276_3859)"/>
<path d="M163.009 536.432L107.765 508.821L121.576 501.92L176.819 529.53L163.009 536.432Z" fill="url(#paint26_linear_11276_3859)"/>
<path d="M163.009 550.234L107.765 522.624V508.821L163.009 536.432V550.234Z" fill="url(#paint27_linear_11276_3859)"/>
<path d="M149.198 557.141L93.9543 529.53L107.765 522.624L163.009 550.234L149.198 557.141Z" fill="url(#paint28_linear_11276_3859)"/>
<path d="M149.198 570.944L93.9543 543.333V529.531L149.198 557.141V570.944Z" fill="url(#paint29_linear_11276_3859)"/>
<path style="mix-blend-mode:multiply" d="M116.051 587.51L60.8071 559.899L93.9543 543.333L149.198 570.944L116.051 587.51Z" fill="url(#paint30_linear_11276_3859)"/>
<g style="mix-blend-mode:multiply">
<path opacity="0.09" d="M302.929 385.344L391.208 429.471L302.929 473.592L214.651 429.471L302.929 385.344Z" fill="#A7B1F2"/>
<path opacity="0.18" d="M305.599 384.016L393.878 428.137L305.599 472.257L217.321 428.137L305.599 384.016Z" fill="#A7B1F2"/>
<path opacity="0.27" d="M308.264 382.682L396.542 426.802L308.264 470.923L219.986 426.802L308.264 382.682Z" fill="#A7B1F2"/>
<path opacity="0.36" d="M310.929 381.347L399.207 425.474L310.929 469.595L222.65 425.474L310.929 381.347Z" fill="#A7B1F2"/>
<path opacity="0.45" d="M313.593 380.019L401.872 424.139L313.593 468.26L225.315 424.139L313.593 380.019Z" fill="#A7B1F2"/>
<path opacity="0.55" d="M316.258 378.684L404.536 422.805L316.258 466.932L227.979 422.805L316.258 378.684Z" fill="#A7B1F2"/>
<path opacity="0.64" d="M318.922 377.356L407.201 421.477L318.922 465.597L230.644 421.477L318.922 377.356Z" fill="#A7B1F2"/>
<path opacity="0.73" d="M321.587 376.021L409.865 420.142L321.587 464.263L233.308 420.142L321.587 376.021Z" fill="#A7B1F2"/>
<path opacity="0.82" d="M324.257 374.687L412.535 418.814L324.257 462.934L235.973 418.814L324.257 374.687Z" fill="#A7B1F2"/>
<path opacity="0.91" d="M326.922 373.358L415.2 417.479L326.922 461.6L238.643 417.479L326.922 373.358Z" fill="#A7B1F2"/>
<path d="M329.586 372.024L417.865 416.145L329.586 460.271L241.308 416.145L329.586 372.024Z" fill="#A7B1F2"/>
</g>
<path d="M392.167 428.989L365.975 415.898V389.723L392.167 402.813V428.989Z" fill="url(#paint31_linear_11276_3859)"/>
<path d="M392.167 428.989L418.358 415.898V389.723L392.167 402.813V428.989Z" fill="url(#paint32_linear_11276_3859)"/>
<path d="M392.167 402.819L365.975 389.729L392.167 376.638L418.358 389.729L392.167 402.819Z" fill="url(#paint33_linear_11276_3859)"/>
<path d="M329.586 337.294L303.395 324.203V298.028L329.586 311.118V337.294Z" fill="url(#paint34_linear_11276_3859)"/>
<path d="M329.586 337.294L355.777 324.203V298.028L329.586 311.118V337.294Z" fill="#E3E5F9"/>
<path d="M329.586 311.118L303.395 298.028L329.586 284.937L355.777 298.028L329.586 311.118Z" fill="url(#paint35_linear_11276_3859)"/>
<path d="M360.876 352.397L334.685 339.306V313.131L360.876 326.221V352.397Z" fill="url(#paint36_linear_11276_3859)"/>
<path d="M360.876 352.397L387.067 339.306V313.131L360.876 326.221V352.397Z" fill="url(#paint37_linear_11276_3859)"/>
<path d="M360.876 326.227L334.685 313.137L360.876 300.046L387.068 313.137L360.876 326.227Z" fill="url(#paint38_linear_11276_3859)"/>
<path d="M392.167 398.25L365.975 385.16V358.984L392.167 372.075V398.25Z" fill="url(#paint39_linear_11276_3859)"/>
<path d="M392.167 398.25L418.358 385.16V358.984L392.167 372.075V398.25Z" fill="#E3E5F9"/>
<path d="M392.167 372.075L365.975 358.984L392.167 345.894L418.358 358.984L392.167 372.075Z" fill="url(#paint40_linear_11276_3859)"/>
<path d="M391.101 368.038L364.91 354.953V328.772L391.101 341.863V368.038Z" fill="url(#paint41_linear_11276_3859)"/>
<path d="M391.101 368.038L417.292 354.953V328.772L391.101 341.863V368.038Z" fill="#E3E5F9"/>
<path d="M391.101 341.868L364.91 328.778L391.101 315.687L417.292 328.778L391.101 341.868Z" fill="url(#paint42_linear_11276_3859)"/>
<path d="M298.823 352.666L272.637 339.575V313.4L298.823 326.491V352.666Z" fill="url(#paint43_linear_11276_3859)"/>
<path d="M298.823 352.666L325.014 339.575V313.4L298.823 326.491V352.666Z" fill="#E3E5F9"/>
<path d="M298.823 326.491L272.637 313.4L298.823 300.31L325.014 313.4L298.823 326.491Z" fill="url(#paint44_linear_11276_3859)"/>
<path d="M268.065 429.521L241.874 416.431V390.255L268.065 403.346V429.521Z" fill="url(#paint45_linear_11276_3859)"/>
<path d="M268.065 429.521L294.257 416.431V390.255L268.065 403.346V429.521Z" fill="#E3E5F9"/>
<path d="M268.065 403.346L241.874 390.256L268.065 377.165L294.257 390.256L268.065 403.346Z" fill="url(#paint46_linear_11276_3859)"/>
<path d="M298.823 444.894L272.637 431.803V405.628L298.823 418.718V444.894Z" fill="url(#paint47_linear_11276_3859)"/>
<path d="M298.823 444.894L325.014 431.803V405.628L298.823 418.718V444.894Z" fill="#E3E5F9"/>
<path d="M298.823 418.718L272.637 405.628L298.823 392.543L325.014 405.628L298.823 418.718Z" fill="url(#paint48_linear_11276_3859)"/>
<path d="M329.586 368.038L303.395 354.953V328.772L329.586 341.863V368.038Z" fill="url(#paint49_linear_11276_3859)"/>
<path d="M329.586 368.038L355.777 354.953V328.772L329.586 341.863V368.038Z" fill="url(#paint50_linear_11276_3859)"/>
<path d="M329.586 341.868L303.395 328.778L329.586 315.687L355.777 328.778L329.586 341.868Z" fill="url(#paint51_linear_11276_3859)"/>
<path style="mix-blend-mode:multiply" d="M360.876 444.63L334.685 431.54V405.364L360.876 418.455V444.63Z" fill="url(#paint52_linear_11276_3859)"/>
<path style="mix-blend-mode:multiply" d="M360.876 444.63L387.067 431.54V405.364L360.876 418.455V444.63Z" fill="url(#paint53_linear_11276_3859)"/>
<path style="mix-blend-mode:hard-light" d="M360.876 418.455L334.685 405.364L360.876 392.274L387.068 405.364L360.876 418.455Z" fill="url(#paint54_linear_11276_3859)"/>
<path d="M360.876 413.891L334.685 400.801V374.62L360.876 387.71V413.891Z" fill="url(#paint55_linear_11276_3859)"/>
<path d="M360.876 413.891L387.067 400.801V374.62L360.876 387.71V413.891Z" fill="#E3E5F9"/>
<path d="M360.876 387.716L334.685 374.625L360.876 361.535L387.068 374.625L360.876 387.716Z" fill="url(#paint56_linear_11276_3859)"/>
<path d="M268.065 398.783L241.874 385.692V359.511L268.065 372.602V398.783Z" fill="url(#paint57_linear_11276_3859)"/>
<path d="M268.065 398.783L294.257 385.692V359.511L268.065 372.602V398.783Z" fill="url(#paint58_linear_11276_3859)"/>
<path d="M268.065 372.607L241.874 359.517L268.065 346.426L294.257 359.517L268.065 372.607Z" fill="url(#paint59_linear_11276_3859)"/>
<path d="M298.823 414.155L272.637 401.064V374.889L298.823 387.979V414.155Z" fill="url(#paint60_linear_11276_3859)"/>
<path d="M298.823 414.155L325.014 401.064V374.889L298.823 387.979V414.155Z" fill="#E3E5F9"/>
<path d="M298.823 387.979L272.637 374.889L298.823 361.798L325.014 374.889L298.823 387.979Z" fill="url(#paint61_linear_11276_3859)"/>
<path d="M360.344 383.416L334.152 370.326V344.145L360.344 357.235V383.416Z" fill="url(#paint62_linear_11276_3859)"/>
<path d="M360.343 383.416L386.535 370.326V344.145L360.343 357.235V383.416Z" fill="url(#paint63_linear_11276_3859)"/>
<path d="M360.344 357.241L334.152 344.15L360.344 331.06L386.535 344.15L360.344 357.241Z" fill="url(#paint64_linear_11276_3859)"/>
<path d="M268.065 368.038L241.874 354.953V328.772L268.065 341.863V368.038Z" fill="url(#paint65_linear_11276_3859)"/>
<path d="M268.065 368.038L294.257 354.953V328.772L268.065 341.863V368.038Z" fill="url(#paint66_linear_11276_3859)"/>
<path d="M268.065 341.868L241.874 328.778L268.065 315.687L294.257 328.778L268.065 341.868Z" fill="url(#paint67_linear_11276_3859)"/>
<path d="M298.823 383.416L272.637 370.326V344.145L298.823 357.235V383.416Z" fill="url(#paint68_linear_11276_3859)"/>
<path d="M298.823 383.416L325.014 370.326V344.145L298.823 357.235V383.416Z" fill="url(#paint69_linear_11276_3859)"/>
<path d="M298.823 357.241L272.637 344.15L298.823 331.06L325.014 344.15L298.823 357.241Z" fill="url(#paint70_linear_11276_3859)"/>
<path d="M329.586 460.271L303.395 447.181V421L329.586 434.09V460.271Z" fill="url(#paint71_linear_11276_3859)"/>
<path d="M329.586 460.271L355.777 447.181V421L329.586 434.09V460.271Z" fill="url(#paint72_linear_11276_3859)"/>
<path d="M329.586 434.096L303.395 421.006L329.586 407.915L355.777 421.006L329.586 434.096Z" fill="url(#paint73_linear_11276_3859)"/>
<path d="M329.586 429.527L303.395 416.436V390.261L329.586 403.352V429.527Z" fill="url(#paint74_linear_11276_3859)"/>
<path d="M329.586 429.527L355.777 416.436V390.261L329.586 403.352V429.527Z" fill="url(#paint75_linear_11276_3859)"/>
<path d="M329.586 403.352L303.395 390.261L329.586 377.171L355.777 390.261L329.586 403.352Z" fill="url(#paint76_linear_11276_3859)"/>
<path d="M329.586 398.788L303.395 385.698V359.522L329.586 372.613V398.788Z" fill="url(#paint77_linear_11276_3859)"/>
<path d="M329.586 398.788L355.777 385.698V359.522L329.586 372.613V398.788Z" fill="url(#paint78_linear_11276_3859)"/>
<path d="M329.586 372.613L303.395 359.522L329.586 346.432L355.777 359.522L329.586 372.613Z" fill="url(#paint79_linear_11276_3859)"/>
<g style="mix-blend-mode:multiply">
<path opacity="0.05" d="M367.181 220.017L315.051 246.069C309.346 248.923 300.096 248.923 294.391 246.069L242.261 220.017C236.556 217.164 236.556 212.539 242.261 209.691L294.391 183.633C300.096 180.785 309.346 180.785 315.051 183.633L367.181 209.691C372.886 212.539 372.886 217.141 367.181 220.017Z" fill="#A7B1F2"/>
<path opacity="0.1" d="M368.371 219.418L316.241 245.475C310.536 248.323 301.286 248.323 295.581 245.475L243.434 219.418C237.729 216.57 237.729 211.945 243.434 209.091L295.603 183.039C301.308 180.185 310.558 180.185 316.263 183.039L368.393 209.091C374.076 211.945 374.076 216.581 368.371 219.418Z" fill="#A7B1F2"/>
<path opacity="0.14" d="M369.566 218.823L317.436 244.881C311.731 247.729 302.48 247.729 296.775 244.881L244.645 218.823C238.94 215.97 238.94 211.35 244.645 208.497L296.775 182.445C302.48 179.591 311.731 179.591 317.436 182.445L369.566 208.497C375.259 211.35 375.259 215.97 369.566 218.823Z" fill="#A7B1F2"/>
<path opacity="0.19" d="M370.772 218.229L318.647 244.281C312.937 247.135 303.686 247.135 297.981 244.281L245.857 218.229C240.146 215.376 240.146 210.75 245.857 207.902L297.965 181.822C303.67 178.974 312.92 178.974 318.63 181.822L370.772 207.902C376.46 210.75 376.46 215.376 370.772 218.229Z" fill="#A7B1F2"/>
<path opacity="0.24" d="M371.95 217.635L319.82 243.687C314.115 246.54 304.864 246.54 299.159 243.687L247.029 217.635C241.324 214.781 241.324 210.156 247.029 207.303L299.159 181.262C304.864 178.408 314.115 178.408 319.82 181.262L371.95 207.314C377.655 210.156 377.655 214.781 371.95 217.635Z" fill="#A7B1F2"/>
<path opacity="0.29" d="M373.139 217.035L321.014 243.093C315.309 245.941 306.059 245.941 300.349 243.093L248.224 217.035C242.519 214.187 242.519 209.562 248.224 206.708L300.349 180.656C306.059 177.803 315.309 177.803 321.014 180.656L373.139 206.708C378.849 209.562 378.849 214.187 373.139 217.035Z" fill="#A7B1F2"/>
<path opacity="0.33" d="M374.334 216.441L322.204 242.493C316.499 245.346 307.248 245.346 301.543 242.493L249.413 216.441C243.708 213.587 243.708 208.968 249.413 206.114L301.543 180.056C307.248 177.209 316.499 177.209 322.204 180.056L374.334 206.114C380.039 208.968 380.039 213.587 374.334 216.441Z" fill="#A7B1F2"/>
<path opacity="0.38" d="M375.529 215.846L323.399 241.898C317.694 244.752 308.443 244.752 302.738 241.898L250.608 215.846C244.903 212.993 244.903 208.368 250.608 205.52L302.738 179.462C308.443 176.609 317.694 176.609 323.399 179.462L375.529 205.52C381.234 208.368 381.234 212.993 375.529 215.846Z" fill="#A7B1F2"/>
<path opacity="0.43" d="M376.718 215.247L324.588 241.304C318.883 244.152 309.633 244.152 303.928 241.304L251.798 215.247C246.093 212.399 246.093 207.774 251.798 204.92L303.928 178.868C309.633 176.014 318.883 176.014 324.588 178.868L376.718 204.92C382.423 207.774 382.423 212.399 376.718 215.247Z" fill="#A7B1F2"/>
<path opacity="0.48" d="M377.913 214.652L325.783 240.688C320.078 243.541 310.827 243.541 305.122 240.688L252.97 214.652C247.265 211.799 247.265 207.179 252.97 204.326L305.139 178.274C310.844 175.42 320.094 175.42 325.799 178.274L377.93 204.326C383.618 207.179 383.618 211.799 377.913 214.652Z" fill="#A7B1F2"/>
<path opacity="0.52" d="M379.102 214.058L326.977 240.127C321.267 242.981 312.017 242.981 306.312 240.127L254.187 214.058C248.477 211.205 248.477 206.579 254.187 203.731L306.312 177.674C312.017 174.826 321.267 174.826 326.977 177.674L379.102 203.731C384.796 206.579 384.796 211.205 379.102 214.058Z" fill="#A7B1F2"/>
<path opacity="0.57" d="M380.308 213.458L328.178 239.516C322.473 242.364 313.223 242.364 307.518 239.516L255.388 213.458C249.683 210.61 249.683 205.985 255.388 203.132L307.518 177.079C313.223 174.226 322.473 174.226 328.178 177.079L380.308 203.126C386.002 205.985 386.002 210.61 380.308 213.458Z" fill="#A7B1F2"/>
<path opacity="0.62" d="M381.492 212.864L329.362 238.916C323.657 241.77 314.406 241.77 308.696 238.916L256.571 212.864C250.866 210.01 250.866 205.391 256.571 202.537L308.696 176.485C314.406 173.632 323.657 173.632 329.362 176.485L381.492 202.565C387.197 205.368 387.197 210.01 381.492 212.864Z" fill="#A7B1F2"/>
<path opacity="0.67" d="M382.681 212.27L330.551 238.322C324.846 241.175 315.596 241.175 309.891 238.322L257.761 212.27C252.056 209.416 252.056 204.791 257.761 201.943L309.891 175.885C315.596 173.038 324.846 173.038 330.551 175.885L382.681 201.943C388.386 204.808 388.386 209.416 382.681 212.27Z" fill="#A7B1F2"/>
<path opacity="0.71" d="M383.876 211.67L331.746 237.727C326.041 240.575 316.79 240.575 311.085 237.727L258.955 211.67C253.25 208.822 253.25 204.197 258.955 201.343L311.085 175.291C316.79 172.438 326.041 172.438 331.746 175.291L383.876 201.343C389.581 204.197 389.581 208.822 383.876 211.67Z" fill="#A7B1F2"/>
<path opacity="0.76" d="M385.065 211.076L332.935 237.128C327.23 239.981 317.98 239.981 312.275 237.128L260.145 211.076C254.44 208.222 254.44 203.603 260.145 200.749L312.275 174.697C317.98 171.843 327.23 171.843 332.935 174.697L385.065 200.749C390.77 203.603 390.77 208.222 385.065 211.076Z" fill="#A7B1F2"/>
<path opacity="0.81" d="M386.26 210.481L334.13 236.533C328.425 239.387 319.174 239.387 313.469 236.533L261.339 210.481C255.634 207.628 255.634 203.003 261.339 200.155L313.469 174.097C319.174 171.249 328.425 171.249 334.13 174.097L386.26 200.155C391.965 203.003 391.965 207.611 386.26 210.481Z" fill="#A7B1F2"/>
<path opacity="0.86" d="M387.449 209.881L335.325 235.939C329.62 238.793 320.364 238.793 314.659 235.939L262.534 209.881C256.824 207.034 256.824 202.408 262.534 199.555L314.676 173.503C320.381 170.649 329.636 170.649 335.341 173.503L387.466 199.555C393.16 202.408 393.16 207.05 387.449 209.881Z" fill="#A7B1F2"/>
<path opacity="0.9" d="M388.644 209.293L336.514 235.35C330.809 238.198 321.559 238.198 315.854 235.35L263.724 209.293C258.019 206.439 258.019 201.82 263.724 198.966L315.854 172.908C321.559 170.055 330.809 170.055 336.514 172.908L388.644 198.961C394.332 201.814 394.332 206.434 388.644 209.293Z" fill="#A7B1F2"/>
<path opacity="0.95" d="M389.844 208.693L337.709 234.745C332.004 237.599 322.753 237.599 317.043 234.745L264.918 208.693C259.213 205.839 259.213 201.214 264.918 198.366L317.043 172.292C322.753 169.444 332.004 169.444 337.709 172.292L389.844 198.366C395.544 201.214 395.544 205.839 389.844 208.693Z" fill="#A7B1F2"/>
<path d="M391.028 208.099L338.898 234.151C333.193 237.004 323.943 237.004 318.238 234.151L266.108 208.099C260.403 205.245 260.403 200.62 266.108 197.766L318.238 171.731C323.943 168.878 333.193 168.878 338.898 171.731L391.028 197.783C396.733 200.62 396.733 205.245 391.028 208.099Z" fill="#A7B1F2"/>
</g>
<path d="M384.392 44.4703L332.694 18.6313C328.823 16.6972 325.334 16.5458 322.826 17.852L285.242 36.6496C285.029 36.7449 284.821 36.8515 284.619 36.9636C282.286 38.3091 280.872 40.8879 280.872 44.5264V176.272C280.872 183.902 287.043 193.181 294.694 197.015L346.392 222.854C350.246 224.777 353.724 224.94 356.232 223.65L393.844 204.808C394.057 204.712 394.265 204.612 394.467 204.499C396.789 203.171 398.208 200.575 398.208 196.937V65.2133C398.208 57.5608 392.021 48.2825 384.392 44.4703Z" fill="url(#paint80_linear_11276_3859)"/>
<path d="M346.376 222.849L294.678 197.01C287.043 193.197 280.855 183.919 280.855 176.267V44.5264C280.855 36.8964 287.026 33.8074 294.678 37.6196L346.376 63.4586C354.005 67.2764 360.192 76.5491 360.192 84.2016V215.947C360.192 223.572 354.005 226.672 346.376 222.849Z" fill="url(#paint81_linear_11276_3859)"/>
<path style="mix-blend-mode:hard-light" d="M336.188 68.577L284.496 42.7324C280.625 40.7982 277.13 40.6469 274.623 41.9531L264.879 46.8193C267.33 45.8438 270.567 46.1185 274.124 47.8957L325.816 73.7347C333.451 77.5469 339.638 86.8252 339.638 94.4776V226.223C339.638 229.963 338.146 232.615 335.712 233.893L345.646 228.914C345.859 228.819 346.067 228.713 346.269 228.601C348.591 227.277 350.01 224.676 350.01 221.038V89.3199C350.016 81.6619 343.845 72.3836 336.188 68.577Z" fill="url(#paint82_linear_11276_3859)"/>
<path style="mix-blend-mode:multiply" d="M325.816 233.125L274.124 207.286C266.489 203.468 260.302 194.195 260.302 186.543V54.7969C260.302 47.1669 266.472 44.0779 274.124 47.8901L325.816 73.7291C333.451 77.5413 339.638 86.8196 339.638 94.4721V226.218C339.638 233.848 333.451 236.937 325.816 233.125Z" fill="url(#paint83_linear_11276_3859)"/>
<path d="M319.259 96.1988C319.259 98.3179 320.975 100.897 323.096 101.956C325.216 103.016 326.938 102.158 326.938 100.039C326.938 97.9199 325.222 95.3411 323.096 94.2815C320.97 93.2219 319.259 94.0797 319.259 96.1988Z" fill="#91A5F2"/>
<path d="M307.731 90.4413C307.731 92.566 309.453 95.1449 311.573 96.2044C313.694 97.264 315.416 96.4063 315.416 94.2815C315.416 92.1568 313.694 89.5835 311.573 88.5239C309.453 87.4644 307.731 88.3165 307.731 90.4413Z" fill="#42EAFF"/>
<path d="M296.209 84.6781C296.209 86.7972 297.926 89.3761 300.046 90.4356C302.166 91.4952 303.889 90.6374 303.889 88.5183C303.889 86.3992 302.172 83.8203 300.046 82.7607C297.92 81.7012 296.209 82.5589 296.209 84.6781Z" fill="#42EAFF"/>
<path d="M291.55 84.7122C292.857 83.6929 292.56 81.1314 290.888 78.9911C289.216 76.8507 286.802 75.942 285.495 76.9614C284.189 77.9808 284.485 80.5422 286.157 82.6826C287.829 84.8229 290.244 85.7316 291.55 84.7122Z" fill="#42EAFF"/>
<path d="M273.164 73.1573C273.164 75.2764 274.881 77.8553 277.007 78.9149C279.133 79.9744 280.844 79.1167 280.844 76.9975C280.844 74.8784 279.127 72.2996 277.007 71.24C274.887 70.1804 273.164 71.0382 273.164 73.1573Z" fill="white"/>
<path d="M319.259 106.839C319.259 108.959 320.975 111.537 323.096 112.597C325.216 113.657 326.938 112.799 326.938 110.68C326.938 108.561 325.222 105.982 323.096 104.922C320.97 103.863 319.259 104.72 319.259 106.839Z" fill="#42EAFF"/>
<path d="M307.731 101.093C307.731 103.218 309.453 105.797 311.573 106.856C313.694 107.916 315.416 107.058 315.416 104.933C315.416 102.809 313.694 100.235 311.573 99.1758C309.453 98.1162 307.731 98.9571 307.731 101.093Z" fill="white"/>
<path d="M296.209 95.3187C296.209 97.4378 297.926 100.017 300.046 101.076C302.166 102.136 303.889 101.278 303.889 99.1589C303.889 97.0398 302.172 94.4609 300.046 93.4014C297.92 92.3418 296.209 93.1995 296.209 95.3187Z" fill="white"/>
<path d="M284.681 89.5555C284.681 91.6802 286.403 94.2591 288.524 95.3187C290.644 96.3782 292.366 95.5205 292.366 93.3957C292.366 91.271 290.644 88.6977 288.524 87.6382C286.403 86.5786 284.681 87.4363 284.681 89.5555Z" fill="#91A5F2"/>
<path d="M273.164 83.7979C273.164 85.9171 274.881 88.4959 277.007 89.5555C279.133 90.6151 280.844 89.7573 280.844 87.6382C280.844 85.519 279.127 82.9402 277.007 81.8806C274.887 80.821 273.164 81.6788 273.164 83.7979Z" fill="#91A5F2"/>
<path d="M319.259 117.48C319.259 119.599 320.975 122.178 323.096 123.238C325.216 124.297 326.938 123.439 326.938 121.32C326.938 119.201 325.222 116.622 323.09 115.557C320.958 114.492 319.259 115.361 319.259 117.48Z" fill="#42EAFF"/>
<path d="M314.603 117.516C315.909 116.496 315.613 113.935 313.941 111.795C312.269 109.654 309.854 108.746 308.548 109.765C307.241 110.784 307.538 113.346 309.21 115.486C310.882 117.626 313.296 118.535 314.603 117.516Z" fill="#91A5F2"/>
<path d="M303.073 111.754C304.379 110.735 304.083 108.174 302.411 106.033C300.739 103.893 298.324 102.984 297.018 104.004C295.711 105.023 296.008 107.584 297.68 109.725C299.352 111.865 301.766 112.774 303.073 111.754Z" fill="#91A5F2"/>
<path d="M284.681 100.196C284.681 102.321 286.403 104.9 288.524 105.959C290.644 107.019 292.366 106.161 292.366 104.036C292.366 101.911 290.644 99.3382 288.524 98.2787C286.403 97.2191 284.681 98.0768 284.681 100.196Z" fill="#42EAFF"/>
<path d="M280.03 100.235C281.337 99.2154 281.04 96.654 279.368 94.5137C277.696 92.3733 275.282 91.4646 273.975 92.484C272.669 93.5033 272.965 96.0648 274.637 98.2051C276.309 100.345 278.724 101.254 280.03 100.235Z" fill="#42EAFF"/>
<path d="M319.259 128.121C319.259 130.24 320.975 132.819 323.096 133.878C325.216 134.938 326.938 134.08 326.938 131.961C326.938 129.842 325.222 127.257 323.096 126.198C320.97 125.138 319.259 125.996 319.259 128.121Z" fill="white"/>
<path d="M307.731 122.357C307.731 124.477 309.453 127.055 311.573 128.121C313.694 129.186 315.416 128.317 315.416 126.198C315.416 124.078 313.694 121.5 311.573 120.44C309.453 119.38 307.731 120.238 307.731 122.357Z" fill="#91A5F2"/>
<path d="M303.073 122.395C304.379 121.376 304.083 118.815 302.411 116.674C300.739 114.534 298.324 113.625 297.018 114.644C295.711 115.664 296.008 118.225 297.68 120.366C299.352 122.506 301.766 123.415 303.073 122.395Z" fill="#91A5F2"/>
<path d="M284.681 110.837C284.681 112.961 286.403 115.535 288.524 116.6C290.644 117.665 292.366 116.802 292.366 114.677C292.366 112.552 290.644 109.979 288.524 108.919C286.403 107.86 284.681 108.717 284.681 110.837Z" fill="#42EAFF"/>
<path d="M273.164 105.079C273.164 107.198 274.881 109.777 277.007 110.837C279.133 111.896 280.844 111.038 280.844 108.919C280.844 106.8 279.127 104.221 277.007 103.162C274.887 102.102 273.164 102.96 273.164 105.079Z" fill="#42EAFF"/>
<path d="M312.993 192.059V206.518C313.041 207.064 313.225 207.589 313.529 208.045C313.833 208.502 314.246 208.875 314.732 209.13C315.697 209.607 316.476 209.22 316.476 208.261V193.797C316.428 193.251 316.243 192.726 315.938 192.271C315.633 191.815 315.218 191.443 314.732 191.19C313.795 190.708 312.993 191.095 312.993 192.059ZM307.77 189.447V203.911C307.819 204.457 308.005 204.981 308.31 205.437C308.615 205.892 309.029 206.264 309.515 206.518C310.474 207 311.254 206.607 311.254 205.649V191.19C311.205 190.644 311.021 190.119 310.717 189.663C310.413 189.206 310 188.833 309.515 188.578C308.572 188.096 307.793 188.488 307.793 189.447H307.77ZM318.215 194.666V209.13C318.264 209.675 318.449 210.199 318.753 210.655C319.057 211.11 319.47 211.482 319.954 211.737C320.913 212.219 321.693 211.827 321.693 210.868V196.398C321.645 195.852 321.46 195.327 321.157 194.871C320.853 194.415 320.439 194.042 319.954 193.786C319.017 193.315 318.238 193.708 318.238 194.666H318.215ZM302.553 186.817V201.276C302.602 201.822 302.786 202.347 303.09 202.803C303.394 203.26 303.807 203.633 304.292 203.888C305.251 204.365 306.031 203.978 306.031 203.019V188.555C305.983 188.01 305.798 187.486 305.495 187.03C305.191 186.575 304.777 186.203 304.292 185.949C303.355 185.489 302.576 185.876 302.576 186.868L302.553 186.817ZM323.438 197.256V211.715C323.486 212.261 323.671 212.786 323.974 213.242C324.278 213.699 324.692 214.072 325.177 214.327C326.136 214.804 326.916 214.417 326.916 213.458V198.994C326.868 198.449 326.683 197.924 326.379 197.469C326.075 197.013 325.662 196.642 325.177 196.387C324.24 195.928 323.46 196.314 323.46 197.279L323.438 197.256ZM283.419 177.253V191.717C283.468 192.262 283.653 192.786 283.957 193.242C284.26 193.697 284.673 194.069 285.158 194.324C286.123 194.806 286.902 194.414 286.902 193.455V179.019C286.854 178.473 286.669 177.947 286.364 177.49C286.059 177.034 285.644 176.661 285.158 176.407C284.221 175.925 283.441 176.317 283.441 177.276L283.419 177.253ZM272.979 172.034V186.498C273.028 187.043 273.212 187.568 273.516 188.023C273.82 188.479 274.233 188.851 274.718 189.105C275.678 189.587 276.457 189.195 276.457 188.236V173.8C276.409 173.254 276.225 172.729 275.921 172.272C275.617 171.816 275.204 171.443 274.718 171.187C273.782 170.711 273.002 171.098 273.002 172.056L272.979 172.034ZM278.196 174.646V189.11C278.245 189.657 278.43 190.183 278.735 190.639C279.04 191.096 279.454 191.468 279.941 191.723C280.9 192.199 281.68 191.813 281.68 190.854V176.39C281.632 175.845 281.447 175.32 281.143 174.865C280.839 174.409 280.426 174.037 279.941 173.783C278.998 173.318 278.213 173.705 278.213 174.669L278.196 174.646ZM293.864 182.495V196.959C293.913 197.504 294.098 198.028 294.402 198.484C294.706 198.939 295.118 199.311 295.603 199.566C296.562 200.048 297.342 199.656 297.342 198.697V184.239C297.294 183.693 297.109 183.167 296.805 182.711C296.502 182.255 296.088 181.882 295.603 181.626C294.666 181.144 293.886 181.536 293.886 182.495H293.864ZM288.641 179.888V194.347C288.69 194.893 288.874 195.418 289.178 195.874C289.482 196.331 289.895 196.704 290.38 196.959C291.345 197.436 292.125 197.049 292.125 196.09V181.626C292.077 181.08 291.892 180.555 291.587 180.099C291.282 179.644 290.867 179.272 290.38 179.019C289.432 178.537 288.664 178.924 288.664 179.888H288.641Z" fill="#91A5F2"/>
<path d="M276.53 142.265L323.41 165.699C325.362 166.674 326.938 165.884 326.938 163.939C326.938 161.993 325.362 159.622 323.41 158.646L276.53 135.218C274.578 134.242 273.002 135.033 273.002 136.978C273.002 138.924 274.578 141.295 276.53 142.265Z" fill="#42EAFF"/>
<path d="M307.63 154.285C307.655 154.569 307.751 154.842 307.909 155.08C308.066 155.318 308.281 155.513 308.533 155.647L323.247 162.997C323.752 163.249 324.156 163.047 324.156 162.548C324.133 162.263 324.038 161.988 323.879 161.749C323.719 161.511 323.502 161.317 323.247 161.186L308.533 153.831C308.034 153.584 307.63 153.791 307.63 154.285ZM286.386 143.667C286.412 143.951 286.508 144.226 286.667 144.464C286.826 144.702 287.042 144.896 287.295 145.029L293.247 148C293.746 148.252 294.15 148.051 294.15 147.552C294.128 147.267 294.033 146.992 293.875 146.754C293.717 146.515 293.501 146.321 293.247 146.189L287.295 143.218C286.796 142.966 286.386 143.168 286.386 143.667ZM275.784 138.369C275.809 138.653 275.905 138.926 276.063 139.164C276.221 139.402 276.435 139.597 276.687 139.731L282.639 142.702C283.144 142.955 283.548 142.753 283.548 142.248C283.524 141.964 283.428 141.69 283.269 141.452C283.11 141.215 282.893 141.022 282.639 140.892L276.687 137.915C276.188 137.662 275.784 137.87 275.784 138.369Z" fill="white"/>
<path d="M276.53 152.334L323.41 175.768C325.362 176.743 326.938 175.953 326.938 174.007C326.938 172.062 325.362 169.69 323.41 168.715L276.53 145.287C274.578 144.311 273.002 145.102 273.002 147.047C273.002 148.992 274.578 151.364 276.53 152.334Z" fill="#42EAFF"/>
<path d="M307.63 164.353C307.655 164.638 307.751 164.911 307.909 165.149C308.066 165.387 308.281 165.582 308.533 165.716L323.247 173.066C323.752 173.318 324.156 173.116 324.156 172.617C324.133 172.331 324.038 172.056 323.879 171.818C323.719 171.579 323.502 171.386 323.247 171.255L308.533 163.883C308.034 163.653 307.63 163.883 307.63 164.353ZM286.386 153.735C286.412 154.02 286.508 154.294 286.667 154.532C286.826 154.77 287.042 154.965 287.295 155.098L293.247 158.069C293.746 158.321 294.15 158.119 294.15 157.62C294.128 157.335 294.033 157.061 293.875 156.822C293.717 156.584 293.501 156.39 293.247 156.258L287.295 153.287C286.796 153.035 286.386 153.231 286.386 153.735ZM275.784 148.437C275.809 148.722 275.905 148.995 276.063 149.233C276.221 149.471 276.435 149.666 276.687 149.8L282.639 152.771C283.144 153.023 283.548 152.816 283.548 152.317C283.524 152.032 283.428 151.758 283.269 151.521C283.11 151.284 282.893 151.091 282.639 150.96L276.687 147.983C276.188 147.731 275.784 147.938 275.784 148.437Z" fill="white"/>
<path d="M127.343 445.69V458.449C127.343 459.98 128.515 461.51 130.854 462.682C135.533 465.02 143.117 465.02 147.795 462.682C150.135 461.51 151.301 459.98 151.301 458.449V445.69L139.325 446.2L127.343 445.69Z" fill="url(#paint84_linear_11276_3859)"/>
<path d="M139.325 451.677C145.942 451.677 151.307 448.996 151.307 445.69C151.307 442.383 145.942 439.702 139.325 439.702C132.707 439.702 127.343 442.383 127.343 445.69C127.343 448.996 132.707 451.677 139.325 451.677Z" fill="url(#paint85_linear_11276_3859)"/>
<path d="M156.529 514.472L139.415 511.467V517.774C139.414 518.314 139.526 518.848 139.743 519.342C139.96 519.836 140.277 520.279 140.675 520.644C141.073 521.009 141.542 521.287 142.053 521.461C142.565 521.635 143.106 521.7 143.644 521.654C148.463 521.239 155.093 520.252 157.276 519.361C160.378 518.111 159.62 515.089 156.529 514.472Z" fill="#5B78E6"/>
<path d="M144.704 517.634C143.234 517.633 141.821 517.066 140.758 516.052C139.695 515.037 139.063 513.652 138.994 512.185L137.698 484.714L118.777 468.299C118.209 467.808 117.743 467.209 117.407 466.537C117.071 465.866 116.87 465.135 116.816 464.385C116.762 463.636 116.857 462.884 117.094 462.171C117.332 461.459 117.707 460.8 118.199 460.232C118.691 459.665 119.29 459.199 119.962 458.863C120.634 458.527 121.366 458.326 122.115 458.273C122.865 458.219 123.618 458.313 124.331 458.551C125.044 458.788 125.703 459.163 126.271 459.655L147.055 477.651C147.641 478.157 148.118 478.778 148.457 479.475C148.795 480.172 148.988 480.93 149.024 481.704L150.432 511.647C150.469 512.398 150.357 513.148 150.103 513.856C149.849 514.564 149.458 515.214 148.952 515.77C148.446 516.327 147.835 516.778 147.154 517.097C146.474 517.417 145.736 517.6 144.985 517.634H144.704Z" fill="#1E4ABF"/>
<path d="M106.772 541.433C110.138 540.311 115.613 536.886 117.907 534.806C120.297 532.636 118.603 530.153 115.602 530.624L102.582 532.25V538.534C102.573 539.038 102.689 539.536 102.919 539.984C103.149 540.432 103.487 540.817 103.901 541.104C104.316 541.39 104.795 541.57 105.295 541.628C105.796 541.685 106.304 541.618 106.772 541.433Z" fill="#5B78E6"/>
<path d="M107.558 536.533H107.373C106.621 536.509 105.882 536.337 105.196 536.027C104.511 535.718 103.894 535.276 103.38 534.728C102.866 534.179 102.465 533.535 102.2 532.832C101.935 532.129 101.811 531.38 101.836 530.629L104.08 461.964C104.173 460.479 104.841 459.089 105.943 458.087C107.044 457.086 108.493 456.553 109.981 456.601C111.469 456.65 112.88 457.275 113.915 458.345C114.95 459.415 115.526 460.846 115.523 462.334L113.279 530.999C113.231 532.484 112.607 533.891 111.54 534.924C110.472 535.956 109.044 536.533 107.558 536.533Z" fill="#1E4ABF"/>
<path d="M116.696 419.133L117.47 425.535L110.228 425.154V417.333L116.696 419.133Z" fill="#F3ABC7"/>
<path d="M119.293 417.67C119.293 418.668 117.907 420.187 116.017 419.453C115.383 419.206 111.271 417.333 111.271 417.333C111.271 417.333 111.383 410.471 112.191 409.86C113.313 409.014 116.118 408.829 117.24 409.67C118.9 410.892 119.265 415.433 119.293 417.67Z" fill="#F3ABC7"/>
<path d="M117.094 411.795C116.084 412.422 116.045 414.598 116.045 415.321C116.045 417.07 113.24 419.458 110.228 419.402C110.228 416.459 105.662 410.909 109.521 410.909C110.923 406.592 117.178 408.947 118.625 408.246C119.461 409.087 118.962 410.64 117.094 411.795Z" fill="#1E4ABF"/>
<path d="M103.754 452.423V464.936C103.754 469 131.516 476.535 132.812 472.443L132.077 461.864L103.754 452.423Z" fill="#1E4ABF"/>
<path d="M127.231 429.673C121.172 425.076 110.89 422.06 103.906 421.264C101.101 420.955 99.0535 422.217 98.1111 424.986C97.4892 426.88 97.5891 428.936 98.3915 430.76C102.537 440.381 102.526 449.822 102.526 458.231C103.648 462.452 131.135 469.331 132.453 464.913L130.445 435.01C130.117 432.878 128.963 430.96 127.231 429.673Z" fill="#42C8FF"/>
<path d="M151.649 459.329L150.314 459.105L149.461 458.365L150.55 457.967C150.675 457.923 150.779 457.831 150.838 457.712C150.898 457.593 150.909 457.455 150.869 457.328C150.833 457.212 150.757 457.112 150.654 457.046C150.552 456.979 150.43 456.95 150.309 456.964L147.689 457.407L146.494 458.612C146.296 458.751 146.132 458.932 146.013 459.142C145.895 459.353 145.825 459.587 145.81 459.828L145.759 460.198L145.585 461.572C145.542 461.912 145.636 462.256 145.847 462.527C146.057 462.798 146.367 462.975 146.707 463.018L149.097 463.321C149.565 463.36 150.033 463.25 150.435 463.009C150.838 462.768 151.154 462.406 151.341 461.976L151.526 461.538C151.608 461.353 151.634 461.148 151.599 460.948C151.564 460.748 151.47 460.563 151.329 460.417H151.571C151.719 460.433 151.868 460.389 151.985 460.295C152.101 460.2 152.175 460.064 152.191 459.915C152.206 459.767 152.162 459.618 152.068 459.502C151.974 459.385 151.837 459.311 151.688 459.296L151.649 459.329Z" fill="#F3ABC7"/>
<path d="M145.552 462.693C145.19 462.693 144.832 462.622 144.497 462.486C131.78 457.44 125.009 448.375 124.386 435.576C124.349 434.819 124.615 434.077 125.124 433.515C125.634 432.953 126.346 432.617 127.104 432.58C127.862 432.542 128.604 432.808 129.166 433.317C129.729 433.827 130.065 434.538 130.103 435.296C130.613 445.796 136.015 452.95 146.612 457.16C147.228 457.408 147.739 457.863 148.058 458.446C148.376 459.029 148.481 459.705 148.356 460.357C148.231 461.01 147.883 461.598 147.371 462.022C146.859 462.446 146.216 462.68 145.552 462.682V462.693Z" fill="#42C8FF"/>
<g style="mix-blend-mode:multiply">
<path opacity="0.05" d="M570.266 446.85L526.006 468.972C521.16 471.394 513.306 471.394 508.46 468.972L464.2 446.85C459.353 444.428 459.353 440.504 464.2 438.082L508.46 415.96C513.306 413.538 521.16 413.538 526.006 415.96L570.266 438.082C575.113 440.504 575.113 444.428 570.266 446.85Z" fill="#A7B1F2"/>
<path opacity="0.1" d="M571.472 446.245L527.207 468.372C522.366 470.794 514.512 470.794 509.666 468.372L465.4 446.245C460.559 443.828 460.559 439.898 465.4 437.477L509.666 415.354C514.512 412.933 522.366 412.933 527.207 415.354L571.472 437.465C576.319 439.898 576.319 443.828 571.472 446.245Z" fill="#A7B1F2"/>
<path opacity="0.14" d="M572.678 445.645L528.402 467.767C523.561 470.189 515.702 470.189 510.86 467.767L466.595 445.645C461.754 443.223 461.754 439.299 466.595 436.877L510.86 414.755C515.702 412.333 523.561 412.333 528.402 414.755L572.678 436.905C577.519 439.299 577.519 443.223 572.678 445.645Z" fill="#A7B1F2"/>
<path opacity="0.19" d="M573.884 445.045L529.619 467.178C524.772 469.6 516.919 469.6 512.078 467.178L467.818 445.045C462.971 442.623 462.971 438.693 467.818 436.277L512.083 414.149C516.924 411.727 524.778 411.727 529.625 414.149L573.89 436.277C578.725 438.693 578.725 442.623 573.884 445.045Z" fill="#A7B1F2"/>
<path opacity="0.24" d="M575.085 444.44L530.825 466.562C525.978 468.983 518.125 468.983 513.278 466.562L469.018 444.44C464.172 442.018 464.172 438.093 469.018 435.671L513.256 413.549C518.102 411.127 525.956 411.127 530.803 413.549L575.062 435.671C579.931 438.093 579.931 442.018 575.085 444.44Z" fill="#A7B1F2"/>
<path opacity="0.29" d="M576.291 443.84L532.031 465.962C527.184 468.384 519.331 468.384 514.484 465.962L470.224 443.84C465.378 441.418 465.378 437.493 470.224 435.072L514.484 412.949C519.331 410.528 527.184 410.528 532.031 412.949L576.291 435.072C581.132 437.493 581.132 441.418 576.291 443.84Z" fill="#A7B1F2"/>
<path opacity="0.33" d="M577.497 443.234L533.237 465.356C528.39 467.778 520.537 467.778 515.69 465.356L471.425 443.234C466.584 440.812 466.584 436.888 471.425 434.466L515.69 412.344C520.537 409.922 528.39 409.922 533.237 412.344L577.497 434.466C582.344 436.905 582.344 440.829 577.497 443.234Z" fill="#A7B1F2"/>
<path opacity="0.38" d="M578.703 442.634L534.438 464.756C529.596 467.178 521.737 467.178 516.896 464.756L472.631 442.634C467.79 440.212 467.79 436.288 472.631 433.866L516.896 411.744C521.737 409.322 529.596 409.322 534.438 411.744L578.703 433.866C583.55 436.288 583.55 440.212 578.703 442.634Z" fill="#A7B1F2"/>
<path opacity="0.43" d="M579.909 442.029L535.644 464.157C530.803 466.573 522.944 466.573 518.102 464.157L473.837 442.029C468.99 439.613 468.99 435.683 473.837 433.261L518.102 411.116C522.944 408.694 530.803 408.694 535.644 411.116L579.909 433.238C584.75 435.683 584.75 439.613 579.909 442.029Z" fill="#A7B1F2"/>
<path opacity="0.48" d="M581.132 441.429L536.867 463.551C532.02 465.973 524.166 465.973 519.32 463.551L475.06 441.429C470.213 439.007 470.213 435.083 475.06 432.661L519.303 410.556C524.15 408.134 532.003 408.134 536.85 410.556L581.132 432.661C585.956 435.083 585.956 439.007 581.132 441.429Z" fill="#A7B1F2"/>
<path opacity="0.52" d="M582.316 440.829L538.056 462.951C533.209 465.373 525.356 465.373 520.509 462.951L476.232 440.829C471.386 438.407 471.386 434.477 476.232 432.055L520.492 409.933C525.339 407.511 533.192 407.511 538.039 409.933L582.299 432.055C587.162 434.477 587.162 438.407 582.316 440.829Z" fill="#A7B1F2"/>
<path opacity="0.57" d="M583.522 440.224L539.262 462.346C534.415 464.768 526.562 464.768 521.715 462.346L477.455 440.224C472.609 437.802 472.609 433.877 477.455 431.455L521.715 409.333C526.562 406.911 534.415 406.911 539.262 409.333L583.522 431.455C588.368 433.877 588.368 437.802 583.522 440.224Z" fill="#A7B1F2"/>
<path opacity="0.62" d="M584.728 439.624L540.462 461.746C535.621 464.168 527.768 464.168 522.921 461.746L478.656 439.624C473.815 437.202 473.815 433.272 478.656 430.856L522.921 408.728C527.768 406.312 535.621 406.312 540.462 408.728L584.728 430.856C589.574 433.272 589.574 437.202 584.728 439.624Z" fill="#A7B1F2"/>
<path opacity="0.67" d="M585.934 439.018L541.668 461.14C536.827 463.562 528.968 463.562 524.127 461.14L479.862 439.018C475.021 436.596 475.021 432.672 479.862 430.25L524.127 408.128C528.968 405.706 536.827 405.706 541.668 408.128L585.934 430.25C590.775 432.672 590.775 436.596 585.934 439.018Z" fill="#A7B1F2"/>
<path opacity="0.71" d="M587.14 438.418L542.874 460.54C538.028 462.962 530.174 462.962 525.333 460.54L481.068 438.418C476.221 435.997 476.221 432.072 481.068 429.65L525.333 407.528C530.174 405.106 538.028 405.106 542.874 407.528L587.14 429.65C591.981 432.072 591.981 435.997 587.14 438.418Z" fill="#A7B1F2"/>
<path opacity="0.76" d="M588.34 437.813L544.109 459.941C539.262 462.357 531.408 462.357 526.562 459.941L482.302 437.813C477.455 435.391 477.455 431.467 482.302 429.045L526.562 406.923C531.408 404.501 539.262 404.501 544.109 406.923L588.34 429.056C593.187 431.467 593.187 435.391 588.34 437.813Z" fill="#A7B1F2"/>
<path opacity="0.81" d="M589.546 437.213L545.287 459.33C540.44 461.751 532.586 461.751 527.74 459.33L483.48 437.207C478.633 434.786 478.633 430.861 483.48 428.439L527.74 406.317C532.586 403.895 540.44 403.895 545.287 406.317L589.546 428.445C594.393 430.867 594.393 434.791 589.546 437.213Z" fill="#A7B1F2"/>
<path opacity="0.86" d="M590.753 436.613L546.493 458.735C541.646 461.157 533.793 461.157 528.946 458.735L484.686 436.613C479.839 434.191 479.839 430.261 484.686 427.84L528.963 405.717C533.809 403.296 541.663 403.296 546.51 405.717L590.769 427.84C595.599 430.261 595.599 434.191 590.753 436.613Z" fill="#A7B1F2"/>
<path opacity="0.9" d="M591.958 436.008L547.693 458.13C542.852 460.552 534.999 460.552 530.152 458.13L485.886 436.008C481.045 433.586 481.045 429.662 485.886 427.24L530.152 405.118C534.999 402.696 542.852 402.696 547.693 405.118L591.958 427.24C596.805 429.662 596.805 433.586 591.958 436.008Z" fill="#A7B1F2"/>
<path opacity="0.95" d="M593.165 435.408L548.899 457.53C544.058 459.952 536.199 459.952 531.358 457.53L487.092 435.408C482.251 432.986 482.251 429.056 487.092 426.64L531.358 404.512C536.199 402.09 544.058 402.09 548.899 404.512L593.165 426.64C598.006 429.056 598.006 432.98 593.165 435.408Z" fill="#A7B1F2"/>
<path d="M594.371 434.802L550.105 456.925C545.259 459.346 537.405 459.346 532.564 456.925L488.299 434.802C483.452 432.381 483.452 428.456 488.299 426.034L532.564 403.912C537.405 401.49 545.259 401.49 550.105 403.912L594.371 426.034C599.212 428.456 599.212 432.381 594.371 434.802Z" fill="#A7B1F2"/>
</g>
<path d="M594.382 407.898L550.279 385.843C545.449 383.427 537.613 383.427 532.783 385.843L488.652 407.898C486.24 409.104 485.034 410.701 485.034 412.271V430.295C485.034 431.876 486.24 433.457 488.652 434.668L532.783 456.723C537.613 459.133 545.449 459.133 550.279 456.723L594.382 434.662C596.794 433.451 598 431.859 598 430.289V412.271C598 410.69 596.794 409.104 594.382 407.898Z" fill="url(#paint86_linear_11276_3859)"/>
<path d="M594.382 416.644L550.279 438.699C545.449 441.115 537.612 441.115 532.782 438.699L488.652 416.644C483.822 414.228 483.822 410.315 488.652 407.898L532.782 385.843C537.612 383.427 545.449 383.427 550.279 385.843L594.41 407.898C599.211 410.315 599.211 414.228 594.382 416.644Z" fill="url(#paint87_linear_11276_3859)"/>
<path d="M594.382 379.721L550.279 357.672C545.449 355.256 537.612 355.256 532.783 357.672L488.624 379.721C486.212 380.932 485.006 382.525 485.006 384.094V402.146C485.006 403.727 486.212 405.308 488.624 406.519L532.755 428.574C537.584 430.99 545.421 430.99 550.251 428.574L594.382 406.519C596.794 405.308 598 403.716 598 402.146V384.1C598 382.525 596.794 380.938 594.382 379.721Z" fill="url(#paint88_linear_11276_3859)"/>
<path d="M594.382 388.473L550.279 410.556C545.449 412.972 537.612 412.972 532.782 410.556L488.652 388.501C483.822 386.084 483.822 382.171 488.652 379.755L532.782 357.7C537.612 355.284 545.449 355.284 550.279 357.7L594.382 379.721C599.211 382.143 599.211 386.056 594.382 388.473Z" fill="url(#paint89_linear_11276_3859)"/>
<path d="M594.382 351.556L550.279 329.501C545.449 327.085 537.613 327.085 532.783 329.501L488.652 351.556C486.24 352.767 485.034 354.359 485.034 355.929V373.953C485.034 375.534 486.24 377.115 488.652 378.326L532.783 400.38C537.613 402.797 545.449 402.797 550.279 400.38L594.41 378.326C596.822 377.115 598.028 375.522 598.028 373.953V355.929C598 354.348 596.794 352.767 594.382 351.556Z" fill="url(#paint90_linear_11276_3859)"/>
<path d="M594.382 360.302L550.279 382.356C545.449 384.773 537.612 384.773 532.782 382.356L488.652 360.302C483.822 357.885 483.822 353.972 488.652 351.556L532.782 329.501C537.612 327.085 545.449 327.085 550.279 329.501L594.41 351.556C599.211 353.972 599.211 357.885 594.382 360.302Z" fill="url(#paint91_linear_11276_3859)"/>
<path d="M509.89 380.456C509.947 381.1 510.165 381.719 510.524 382.256C510.883 382.794 511.371 383.233 511.943 383.534C513.065 384.094 513.996 383.64 513.996 382.508C513.939 381.864 513.721 381.245 513.362 380.707C513.004 380.17 512.516 379.73 511.943 379.43C510.787 378.864 509.89 379.323 509.89 380.456ZM503.018 377.019C503.075 377.663 503.293 378.282 503.652 378.82C504.011 379.357 504.499 379.797 505.071 380.097C506.193 380.658 507.124 380.204 507.124 379.071C507.067 378.428 506.849 377.81 506.49 377.273C506.132 376.736 505.644 376.298 505.071 375.999C503.916 375.427 502.996 375.887 502.996 377.019H503.018ZM496.146 373.588C496.204 374.232 496.422 374.851 496.78 375.389C497.139 375.926 497.627 376.366 498.199 376.666C499.321 377.227 500.253 376.773 500.253 375.64C500.195 374.996 499.977 374.377 499.619 373.84C499.26 373.302 498.772 372.863 498.199 372.562C497.044 371.996 496.124 372.433 496.124 373.588H496.146ZM489.275 370.152C489.332 370.795 489.55 371.414 489.909 371.952C490.267 372.49 490.755 372.929 491.328 373.229C492.45 373.79 493.381 373.336 493.381 372.204C493.324 371.56 493.106 370.941 492.747 370.403C492.388 369.865 491.9 369.426 491.328 369.126C490.172 368.559 489.252 369.019 489.252 370.152H489.275Z" fill="#32B4FF"/>
<path d="M509.89 408.504C509.947 409.147 510.165 409.766 510.524 410.304C510.883 410.842 511.371 411.281 511.943 411.582C513.065 412.142 513.996 411.688 513.996 410.556C513.939 409.913 513.721 409.294 513.362 408.757C513.003 408.221 512.515 407.783 511.943 407.483C510.787 406.912 509.89 407.371 509.89 408.504ZM503.018 405.073C503.075 405.716 503.293 406.335 503.652 406.873C504.011 407.411 504.499 407.85 505.071 408.151C506.193 408.711 507.124 408.257 507.124 407.125C507.067 406.481 506.849 405.862 506.49 405.324C506.132 404.786 505.644 404.347 505.071 404.047C503.916 403.481 502.996 403.94 502.996 405.073H503.018ZM496.146 401.636C496.204 402.28 496.422 402.899 496.78 403.437C497.139 403.974 497.627 404.414 498.199 404.714C499.321 405.275 500.253 404.82 500.253 403.688C500.195 403.044 499.977 402.425 499.619 401.887C499.26 401.35 498.772 400.911 498.199 400.61C497.044 400.044 496.124 400.504 496.124 401.636H496.146ZM489.252 398.222C489.309 398.865 489.527 399.483 489.886 400.02C490.245 400.557 490.733 400.995 491.305 401.294C492.427 401.855 493.358 401.406 493.358 400.268C493.301 399.625 493.083 399.007 492.725 398.47C492.366 397.933 491.878 397.495 491.305 397.196C490.172 396.613 489.252 397.101 489.252 398.222Z" fill="#32B4FF"/>
<path d="M509.89 436.557C509.947 437.201 510.165 437.82 510.524 438.358C510.883 438.895 511.371 439.335 511.943 439.635C513.065 440.196 513.996 439.742 513.996 438.609C513.939 437.965 513.721 437.346 513.362 436.809C513.004 436.271 512.516 435.832 511.943 435.531C510.787 434.965 509.89 435.425 509.89 436.557ZM503.018 433.121C503.075 433.764 503.293 434.383 503.652 434.921C504.011 435.459 504.499 435.898 505.071 436.198C506.193 436.759 507.124 436.305 507.124 435.172C507.067 434.529 506.849 433.91 506.49 433.372C506.132 432.834 505.644 432.395 505.071 432.095C503.916 431.528 502.996 431.988 502.996 433.121H503.018ZM496.146 429.69C496.204 430.333 496.422 430.951 496.78 431.488C497.139 432.025 497.627 432.463 498.199 432.762C499.321 433.322 500.253 432.868 500.253 431.736C500.195 431.093 499.977 430.475 499.619 429.938C499.26 429.401 498.772 428.963 498.199 428.664C497.044 428.097 496.124 428.557 496.124 429.69H496.146ZM489.252 426.253C489.309 426.897 489.527 427.516 489.886 428.054C490.245 428.591 490.733 429.03 491.305 429.331C492.427 429.891 493.358 429.437 493.358 428.305C493.301 427.661 493.083 427.042 492.724 426.504C492.366 425.967 491.878 425.527 491.305 425.227C490.172 424.661 489.252 425.132 489.252 426.253Z" fill="#32B4FF"/>
<path d="M526.163 343.914L529.324 345.739C539.087 341.499 551.585 342.467 559.124 346.82C567.302 351.541 567.941 359.145 560.672 364.26L558.542 363.03C564.633 358.606 563.996 352.07 557.013 348.038C550.694 344.39 540.363 343.336 531.455 346.969L534.033 348.457C540.247 346.19 548.583 346.626 554.02 349.765C560.32 353.402 560.342 359.286 554.068 362.908C553.733 363.102 553.384 363.283 553.028 363.455L560.701 367.885C573.374 361.468 572.749 351.076 562.249 345.014C552.997 339.672 537.844 338.633 526.163 343.914Z" fill="#B9DCFF"/>
<path d="M531.306 362.88C525.007 359.243 524.985 353.359 531.258 349.737C531.593 349.544 531.941 349.363 532.298 349.19L524.625 344.76C511.928 351.201 512.601 361.582 523.078 367.631C532.331 372.973 547.484 374.011 559.165 368.732L556.003 366.907C546.241 371.147 533.742 370.179 526.203 365.826C518.025 361.105 517.385 353.502 524.655 348.386L526.783 349.615C520.693 354.039 521.331 360.576 528.313 364.607C534.682 368.284 545.029 369.287 553.87 365.675L551.293 364.187C545.079 366.456 536.743 366.02 531.306 362.88Z" fill="#B9DCFF"/>
<path d="M550.739 362.403C545.018 364.936 536.954 364.371 532.384 361.117C528.508 358.357 528.404 354.468 532.133 351.661L532.329 351.513L535.336 353.248L535.202 353.36C533.082 355.142 533.103 357.493 535.226 359.268L547.766 352.028C544.772 350.836 540.779 350.795 537.725 351.941L537.533 352.012L534.517 350.271L534.78 350.159C539.992 347.937 547.4 348.267 552.007 350.927C556.615 353.588 557.189 357.864 553.338 360.874L553.144 361.025L550.128 359.284L550.253 359.174C552.049 357.578 552.169 355.506 550.591 353.837L538.357 360.9C541.33 361.839 544.996 361.74 547.792 360.63L547.986 360.553L550.992 362.289L550.739 362.403Z" fill="#B9DCFF"/>
<path d="M179.234 245.95L183.913 248.652C198.369 242.375 216.873 243.809 228.034 250.253C240.143 257.244 241.088 268.501 230.326 276.074L227.173 274.253C236.19 267.703 235.247 258.026 224.909 252.057C215.553 246.656 200.257 245.095 187.069 250.474L190.886 252.678C200.086 249.32 212.428 249.966 220.478 254.614C229.805 259.999 229.838 268.71 220.549 274.073C220.052 274.36 219.536 274.628 219.008 274.883L230.368 281.441C249.133 271.94 248.206 256.555 232.661 247.58C218.963 239.671 196.528 238.132 179.234 245.95Z" fill="white"/>
<path d="M186.848 274.032C177.521 268.647 177.489 259.935 186.777 254.573C187.273 254.287 187.789 254.019 188.316 253.762L176.956 247.204C158.157 256.739 159.154 272.109 174.666 281.065C188.366 288.975 210.801 290.512 228.095 282.695L223.414 279.993C208.96 286.27 190.454 284.838 179.293 278.394C167.185 271.403 166.237 260.147 177 252.572L180.152 254.392C171.134 260.942 172.079 270.62 182.417 276.588C191.846 282.032 207.165 283.517 220.255 278.169L216.44 275.966C207.24 279.326 194.898 278.68 186.848 274.032Z" fill="white"/>
<path d="M215.619 273.325C207.149 277.075 195.211 276.239 188.444 271.42C182.705 267.334 182.552 261.577 188.073 257.421L188.363 257.201L192.814 259.771L192.617 259.937C189.477 262.575 189.508 266.055 192.651 268.684L211.218 257.965C206.785 256.2 200.873 256.139 196.351 257.835L196.067 257.941L191.602 255.363L191.992 255.198C199.709 251.907 210.676 252.397 217.497 256.335C224.32 260.274 225.169 266.605 219.468 271.061L219.18 271.285L214.715 268.707L214.899 268.544C217.559 266.181 217.737 263.114 215.401 260.643L197.287 271.1C201.689 272.49 207.117 272.343 211.257 270.7L211.544 270.586L215.995 273.156L215.619 273.325Z" fill="white"/>
</g>
<rect y="271.398" width="636" height="336" fill="url(#paint92_linear_11276_3859)"/>
<defs>
<linearGradient id="paint0_linear_11276_3859" x1="175.714" y1="568.74" x2="192.236" y2="536.334" gradientUnits="userSpaceOnUse">
<stop stop-color="white"/>
<stop offset="1" stop-color="#A7B1F2"/>
</linearGradient>
<linearGradient id="paint1_linear_11276_3859" x1="204.441" y1="386.97" x2="329.586" y2="386.97" gradientUnits="userSpaceOnUse">
<stop stop-color="#D9DEFC"/>
<stop offset="1" stop-color="#CCD6FF"/>
</linearGradient>
<linearGradient id="paint2_linear_11276_3859" x1="204.441" y1="293.173" x2="454.725" y2="293.173" gradientUnits="userSpaceOnUse">
<stop stop-color="#E8EAFB"/>
<stop offset="1" stop-color="white"/>
</linearGradient>
<linearGradient id="paint3_linear_11276_3859" x1="79.302" y1="449.519" x2="204.441" y2="449.519" gradientUnits="userSpaceOnUse">
<stop stop-color="#D9DEFC"/>
<stop offset="1" stop-color="#CCD6FF"/>
</linearGradient>
<linearGradient id="paint4_linear_11276_3859" x1="79.302" y1="355.721" x2="329.586" y2="355.721" gradientUnits="userSpaceOnUse">
<stop stop-color="#E8EAFB"/>
<stop offset="1" stop-color="white"/>
</linearGradient>
<linearGradient id="paint5_linear_11276_3859" x1="220.087" y1="558.963" x2="313.884" y2="465.109" gradientUnits="userSpaceOnUse">
<stop stop-color="#92A6F3"/>
<stop offset="1" stop-color="#7F93E6"/>
</linearGradient>
<linearGradient id="paint6_linear_11276_3859" x1="255.074" y1="523.997" x2="278.939" y2="500.117" gradientUnits="userSpaceOnUse">
<stop stop-color="#92A6F3"/>
<stop offset="1" stop-color="#AAB9F3"/>
</linearGradient>
<linearGradient id="paint7_linear_11276_3859" x1="267.015" y1="519.664" x2="267.015" y2="504.813" gradientUnits="userSpaceOnUse">
<stop stop-color="#DBE2FB"/>
<stop offset="1" stop-color="white"/>
</linearGradient>
<linearGradient id="paint8_linear_11276_3859" x1="313.935" y1="590.24" x2="470.281" y2="433.799" gradientUnits="userSpaceOnUse">
<stop stop-color="#92A6F3"/>
<stop offset="1" stop-color="#AAB9F3"/>
</linearGradient>
<linearGradient id="paint9_linear_11276_3859" x1="204.441" y1="418.264" x2="454.725" y2="418.264" gradientUnits="userSpaceOnUse">
<stop stop-color="#AAB9F3"/>
<stop offset="1" stop-color="#CCD6FF"/>
</linearGradient>
<linearGradient id="paint10_linear_11276_3859" x1="252.246" y1="302.042" x2="318.495" y2="235.747" gradientUnits="userSpaceOnUse">
<stop stop-color="#92A6F3"/>
<stop offset="1" stop-color="#7F93E6"/>
</linearGradient>
<linearGradient id="paint11_linear_11276_3859" x1="318.529" y1="324.13" x2="428.96" y2="213.632" gradientUnits="userSpaceOnUse">
<stop stop-color="#92A6F3"/>
<stop offset="1" stop-color="#AAB9F3"/>
</linearGradient>
<linearGradient id="paint12_linear_11276_3859" x1="383.937" y1="290.538" x2="363.679" y2="247.361" gradientUnits="userSpaceOnUse">
<stop stop-color="#7F93E6"/>
<stop offset="1" stop-color="#5268CC"/>
</linearGradient>
<linearGradient id="paint13_linear_11276_3859" x1="373.745" y1="295.348" x2="354.086" y2="253.455" gradientUnits="userSpaceOnUse">
<stop stop-color="#B3C1FF"/>
<stop offset="0.31" stop-color="#92A6F3"/>
<stop offset="0.6" stop-color="#7F93E6"/>
<stop offset="1" stop-color="#5268CC"/>
</linearGradient>
<linearGradient id="paint14_linear_11276_3859" x1="241.195" y1="202.661" x2="417.976" y2="202.661" gradientUnits="userSpaceOnUse">
<stop stop-color="#AAB9F3"/>
<stop offset="1" stop-color="#CCD6FF"/>
</linearGradient>
<linearGradient id="paint15_linear_11276_3859" x1="183.058" y1="362.084" x2="306.308" y2="304.457" gradientUnits="userSpaceOnUse">
<stop stop-color="#7023FF"/>
<stop offset="1" stop-color="#3377FF"/>
</linearGradient>
<linearGradient id="paint16_linear_11276_3859" x1="249.924" y1="295.819" x2="223.719" y2="347.286" gradientUnits="userSpaceOnUse">
<stop stop-color="#5577DA"/>
<stop offset="0.3" stop-color="#879BEB"/>
<stop offset="1" stop-color="white"/>
</linearGradient>
<linearGradient id="paint17_linear_11276_3859" x1="102.986" y1="302.558" x2="219.042" y2="361.21" gradientUnits="userSpaceOnUse">
<stop stop-color="#7023FF"/>
<stop offset="1" stop-color="#174DBA"/>
</linearGradient>
<linearGradient id="paint18_linear_11276_3859" x1="131.713" y1="344.789" x2="185.34" y2="319.71" gradientUnits="userSpaceOnUse">
<stop stop-color="#3377FF"/>
<stop offset="1" stop-color="#7023FF"/>
</linearGradient>
<linearGradient id="paint19_linear_11276_3859" x1="186.434" y1="344.716" x2="133.137" y2="344.716" gradientUnits="userSpaceOnUse">
<stop stop-color="#646EFF"/>
<stop offset="1" stop-color="#42C0FF"/>
</linearGradient>
<linearGradient id="paint20_linear_11276_3859" x1="291.738" y1="265.209" x2="114.076" y2="265.209" gradientUnits="userSpaceOnUse">
<stop stop-color="#646EFF"/>
<stop offset="1" stop-color="#42C0FF"/>
</linearGradient>
<linearGradient id="paint21_linear_11276_3859" x1="147.47" y1="569.211" x2="216.488" y2="500.151" gradientUnits="userSpaceOnUse">
<stop stop-color="#92A6F3"/>
<stop offset="1" stop-color="#AAB9F3"/>
</linearGradient>
<linearGradient id="paint22_linear_11276_3859" x1="135.387" y1="477.763" x2="204.441" y2="477.763" gradientUnits="userSpaceOnUse">
<stop stop-color="#AAB9F3"/>
<stop offset="1" stop-color="#CCD6FF"/>
</linearGradient>
<linearGradient id="paint23_linear_11276_3859" x1="152.653" y1="498.466" x2="173.357" y2="477.75" gradientUnits="userSpaceOnUse">
<stop stop-color="#92A6F3"/>
<stop offset="1" stop-color="#7F93E6"/>
</linearGradient>
<linearGradient id="paint24_linear_11276_3859" x1="121.576" y1="498.466" x2="190.63" y2="498.466" gradientUnits="userSpaceOnUse">
<stop stop-color="#AAB9F3"/>
<stop offset="1" stop-color="#CCD6FF"/>
</linearGradient>
<linearGradient id="paint25_linear_11276_3859" x1="138.842" y1="519.17" x2="159.546" y2="498.46" gradientUnits="userSpaceOnUse">
<stop stop-color="#92A6F3"/>
<stop offset="1" stop-color="#7F93E6"/>
</linearGradient>
<linearGradient id="paint26_linear_11276_3859" x1="107.765" y1="519.176" x2="176.819" y2="519.176" gradientUnits="userSpaceOnUse">
<stop stop-color="#AAB9F3"/>
<stop offset="1" stop-color="#CCD6FF"/>
</linearGradient>
<linearGradient id="paint27_linear_11276_3859" x1="125.032" y1="539.88" x2="145.735" y2="519.163" gradientUnits="userSpaceOnUse">
<stop stop-color="#92A6F3"/>
<stop offset="1" stop-color="#7F93E6"/>
</linearGradient>
<linearGradient id="paint28_linear_11276_3859" x1="93.9543" y1="539.88" x2="163.009" y2="539.88" gradientUnits="userSpaceOnUse">
<stop stop-color="#AAB9F3"/>
<stop offset="1" stop-color="#CCD6FF"/>
</linearGradient>
<linearGradient id="paint29_linear_11276_3859" x1="111.221" y1="560.583" x2="131.924" y2="539.873" gradientUnits="userSpaceOnUse">
<stop stop-color="#92A6F3"/>
<stop offset="1" stop-color="#7F93E6"/>
</linearGradient>
<linearGradient id="paint30_linear_11276_3859" x1="98.8122" y1="578.579" x2="111.018" y2="552.617" gradientUnits="userSpaceOnUse">
<stop stop-color="white"/>
<stop offset="1" stop-color="#A7B1F2"/>
</linearGradient>
<linearGradient id="paint31_linear_11276_3859" x1="369.246" y1="419.172" x2="388.879" y2="399.527" gradientUnits="userSpaceOnUse">
<stop stop-color="#92A6F3"/>
<stop offset="1" stop-color="#7F93E6"/>
</linearGradient>
<linearGradient id="paint32_linear_11276_3859" x1="388.891" y1="425.72" x2="421.608" y2="392.977" gradientUnits="userSpaceOnUse">
<stop stop-color="#92A6F3"/>
<stop offset="1" stop-color="#AAB9F3"/>
</linearGradient>
<linearGradient id="paint33_linear_11276_3859" x1="365.975" y1="389.723" x2="418.358" y2="389.723" gradientUnits="userSpaceOnUse">
<stop stop-color="#AAB9F3"/>
<stop offset="1" stop-color="#CCD6FF"/>
</linearGradient>
<linearGradient id="paint34_linear_11276_3859" x1="303.395" y1="317.661" x2="329.586" y2="317.661" gradientUnits="userSpaceOnUse">
<stop stop-color="#D9DEFC"/>
<stop offset="1" stop-color="#CCD6FF"/>
</linearGradient>
<linearGradient id="paint35_linear_11276_3859" x1="303.395" y1="298.028" x2="355.777" y2="298.028" gradientUnits="userSpaceOnUse">
<stop stop-color="#E8EAFB"/>
<stop offset="1" stop-color="white"/>
</linearGradient>
<linearGradient id="paint36_linear_11276_3859" x1="337.955" y1="342.58" x2="357.588" y2="322.936" gradientUnits="userSpaceOnUse">
<stop stop-color="#92A6F3"/>
<stop offset="1" stop-color="#7F93E6"/>
</linearGradient>
<linearGradient id="paint37_linear_11276_3859" x1="357.6" y1="349.128" x2="390.324" y2="316.385" gradientUnits="userSpaceOnUse">
<stop stop-color="#92A6F3"/>
<stop offset="1" stop-color="#AAB9F3"/>
</linearGradient>
<linearGradient id="paint38_linear_11276_3859" x1="334.685" y1="313.137" x2="387.068" y2="313.137" gradientUnits="userSpaceOnUse">
<stop stop-color="#AAB9F3"/>
<stop offset="1" stop-color="#CCD6FF"/>
</linearGradient>
<linearGradient id="paint39_linear_11276_3859" x1="365.975" y1="378.617" x2="392.167" y2="378.617" gradientUnits="userSpaceOnUse">
<stop stop-color="#D9DEFC"/>
<stop offset="1" stop-color="#CCD6FF"/>
</linearGradient>
<linearGradient id="paint40_linear_11276_3859" x1="365.975" y1="358.984" x2="418.358" y2="358.984" gradientUnits="userSpaceOnUse">
<stop stop-color="#E8EAFB"/>
<stop offset="1" stop-color="white"/>
</linearGradient>
<linearGradient id="paint41_linear_11276_3859" x1="364.91" y1="348.405" x2="391.101" y2="348.405" gradientUnits="userSpaceOnUse">
<stop stop-color="#D9DEFC"/>
<stop offset="1" stop-color="#CCD6FF"/>
</linearGradient>
<linearGradient id="paint42_linear_11276_3859" x1="364.91" y1="328.778" x2="417.292" y2="328.778" gradientUnits="userSpaceOnUse">
<stop stop-color="#E8EAFB"/>
<stop offset="1" stop-color="white"/>
</linearGradient>
<linearGradient id="paint43_linear_11276_3859" x1="272.637" y1="333.033" x2="298.823" y2="333.033" gradientUnits="userSpaceOnUse">
<stop stop-color="#D9DEFC"/>
<stop offset="1" stop-color="#CCD6FF"/>
</linearGradient>
<linearGradient id="paint44_linear_11276_3859" x1="272.637" y1="313.4" x2="325.014" y2="313.4" gradientUnits="userSpaceOnUse">
<stop stop-color="#E8EAFB"/>
<stop offset="1" stop-color="white"/>
</linearGradient>
<linearGradient id="paint45_linear_11276_3859" x1="241.874" y1="409.888" x2="268.065" y2="409.888" gradientUnits="userSpaceOnUse">
<stop stop-color="#D9DEFC"/>
<stop offset="1" stop-color="#CCD6FF"/>
</linearGradient>
<linearGradient id="paint46_linear_11276_3859" x1="241.874" y1="390.256" x2="294.257" y2="390.256" gradientUnits="userSpaceOnUse">
<stop stop-color="#E8EAFB"/>
<stop offset="1" stop-color="white"/>
</linearGradient>
<linearGradient id="paint47_linear_11276_3859" x1="272.637" y1="425.261" x2="298.823" y2="425.261" gradientUnits="userSpaceOnUse">
<stop stop-color="#D9DEFC"/>
<stop offset="1" stop-color="#CCD6FF"/>
</linearGradient>
<linearGradient id="paint48_linear_11276_3859" x1="272.637" y1="405.628" x2="325.014" y2="405.628" gradientUnits="userSpaceOnUse">
<stop stop-color="#E8EAFB"/>
<stop offset="1" stop-color="white"/>
</linearGradient>
<linearGradient id="paint49_linear_11276_3859" x1="306.665" y1="358.222" x2="326.298" y2="338.577" gradientUnits="userSpaceOnUse">
<stop stop-color="#92A6F3"/>
<stop offset="1" stop-color="#7F93E6"/>
</linearGradient>
<linearGradient id="paint50_linear_11276_3859" x1="326.31" y1="364.77" x2="359.033" y2="332.026" gradientUnits="userSpaceOnUse">
<stop stop-color="#92A6F3"/>
<stop offset="1" stop-color="#AAB9F3"/>
</linearGradient>
<linearGradient id="paint51_linear_11276_3859" x1="303.395" y1="328.778" x2="355.777" y2="328.778" gradientUnits="userSpaceOnUse">
<stop stop-color="#AAB9F3"/>
<stop offset="1" stop-color="#CCD6FF"/>
</linearGradient>
<linearGradient id="paint52_linear_11276_3859" x1="334.685" y1="424.997" x2="360.596" y2="424.997" gradientUnits="userSpaceOnUse">
<stop stop-color="#1487FB"/>
<stop offset="1" stop-color="#22D2FD"/>
</linearGradient>
<linearGradient id="paint53_linear_11276_3859" x1="360.876" y1="424.997" x2="386.787" y2="424.997" gradientUnits="userSpaceOnUse">
<stop stop-color="#1487FB"/>
<stop offset="1" stop-color="#22D2FD"/>
</linearGradient>
<linearGradient id="paint54_linear_11276_3859" x1="334.685" y1="405.364" x2="386.512" y2="405.364" gradientUnits="userSpaceOnUse">
<stop stop-color="#1487FB"/>
<stop offset="1" stop-color="#22D2FD"/>
</linearGradient>
<linearGradient id="paint55_linear_11276_3859" x1="334.685" y1="394.253" x2="360.876" y2="394.253" gradientUnits="userSpaceOnUse">
<stop stop-color="#D9DEFC"/>
<stop offset="1" stop-color="#CCD6FF"/>
</linearGradient>
<linearGradient id="paint56_linear_11276_3859" x1="334.685" y1="374.625" x2="387.068" y2="374.625" gradientUnits="userSpaceOnUse">
<stop stop-color="#E8EAFB"/>
<stop offset="1" stop-color="white"/>
</linearGradient>
<linearGradient id="paint57_linear_11276_3859" x1="245.15" y1="388.961" x2="264.783" y2="369.321" gradientUnits="userSpaceOnUse">
<stop stop-color="#92A6F3"/>
<stop offset="1" stop-color="#7F93E6"/>
</linearGradient>
<linearGradient id="paint58_linear_11276_3859" x1="264.789" y1="395.509" x2="297.513" y2="362.765" gradientUnits="userSpaceOnUse">
<stop stop-color="#92A6F3"/>
<stop offset="1" stop-color="#AAB9F3"/>
</linearGradient>
<linearGradient id="paint59_linear_11276_3859" x1="241.874" y1="359.517" x2="294.257" y2="359.517" gradientUnits="userSpaceOnUse">
<stop stop-color="#AAB9F3"/>
<stop offset="1" stop-color="#CCD6FF"/>
</linearGradient>
<linearGradient id="paint60_linear_11276_3859" x1="272.637" y1="394.522" x2="298.823" y2="394.522" gradientUnits="userSpaceOnUse">
<stop stop-color="#D9DEFC"/>
<stop offset="1" stop-color="#CCD6FF"/>
</linearGradient>
<linearGradient id="paint61_linear_11276_3859" x1="272.637" y1="374.889" x2="325.014" y2="374.889" gradientUnits="userSpaceOnUse">
<stop stop-color="#E8EAFB"/>
<stop offset="1" stop-color="white"/>
</linearGradient>
<linearGradient id="paint62_linear_11276_3859" x1="337.428" y1="373.594" x2="357.056" y2="353.955" gradientUnits="userSpaceOnUse">
<stop stop-color="#92A6F3"/>
<stop offset="1" stop-color="#7F93E6"/>
</linearGradient>
<linearGradient id="paint63_linear_11276_3859" x1="357.067" y1="380.142" x2="389.791" y2="347.399" gradientUnits="userSpaceOnUse">
<stop stop-color="#92A6F3"/>
<stop offset="1" stop-color="#AAB9F3"/>
</linearGradient>
<linearGradient id="paint64_linear_11276_3859" x1="334.152" y1="344.15" x2="386.535" y2="344.15" gradientUnits="userSpaceOnUse">
<stop stop-color="#AAB9F3"/>
<stop offset="1" stop-color="#CCD6FF"/>
</linearGradient>
<linearGradient id="paint65_linear_11276_3859" x1="241.874" y1="348.405" x2="267.79" y2="348.405" gradientUnits="userSpaceOnUse">
<stop stop-color="#1487FB"/>
<stop offset="1" stop-color="#22D2FD"/>
</linearGradient>
<linearGradient id="paint66_linear_11276_3859" x1="268.065" y1="348.405" x2="293.982" y2="348.405" gradientUnits="userSpaceOnUse">
<stop stop-color="#1487FB"/>
<stop offset="1" stop-color="#22D2FD"/>
</linearGradient>
<linearGradient id="paint67_linear_11276_3859" x1="241.874" y1="328.778" x2="293.701" y2="328.778" gradientUnits="userSpaceOnUse">
<stop stop-color="#1487FB"/>
<stop offset="1" stop-color="#22D2FD"/>
</linearGradient>
<linearGradient id="paint68_linear_11276_3859" x1="297.819" y1="357.678" x2="273.316" y2="370.063" gradientUnits="userSpaceOnUse">
<stop stop-color="#174DBA"/>
<stop offset="1" stop-color="#7023FF"/>
</linearGradient>
<linearGradient id="paint69_linear_11276_3859" x1="326.013" y1="370.359" x2="299.53" y2="357.98" gradientUnits="userSpaceOnUse">
<stop stop-color="#7023FF"/>
<stop offset="1" stop-color="#3377FF"/>
</linearGradient>
<linearGradient id="paint70_linear_11276_3859" x1="272.957" y1="344.15" x2="325.603" y2="344.15" gradientUnits="userSpaceOnUse">
<stop stop-color="#646EFF"/>
<stop offset="1" stop-color="#42C0FF"/>
</linearGradient>
<linearGradient id="paint71_linear_11276_3859" x1="328.582" y1="434.533" x2="304.074" y2="446.918" gradientUnits="userSpaceOnUse">
<stop stop-color="#174DBA"/>
<stop offset="1" stop-color="#7023FF"/>
</linearGradient>
<linearGradient id="paint72_linear_11276_3859" x1="356.77" y1="447.215" x2="330.287" y2="434.835" gradientUnits="userSpaceOnUse">
<stop stop-color="#7023FF"/>
<stop offset="1" stop-color="#3377FF"/>
</linearGradient>
<linearGradient id="paint73_linear_11276_3859" x1="303.72" y1="421.006" x2="356.361" y2="421.006" gradientUnits="userSpaceOnUse">
<stop stop-color="#646EFF"/>
<stop offset="1" stop-color="#42C0FF"/>
</linearGradient>
<linearGradient id="paint74_linear_11276_3859" x1="306.665" y1="419.711" x2="326.298" y2="400.066" gradientUnits="userSpaceOnUse">
<stop stop-color="#92A6F3"/>
<stop offset="1" stop-color="#7F93E6"/>
</linearGradient>
<linearGradient id="paint75_linear_11276_3859" x1="326.31" y1="426.253" x2="359.033" y2="393.515" gradientUnits="userSpaceOnUse">
<stop stop-color="#92A6F3"/>
<stop offset="1" stop-color="#AAB9F3"/>
</linearGradient>
<linearGradient id="paint76_linear_11276_3859" x1="303.395" y1="390.261" x2="355.777" y2="390.261" gradientUnits="userSpaceOnUse">
<stop stop-color="#AAB9F3"/>
<stop offset="1" stop-color="#CCD6FF"/>
</linearGradient>
<linearGradient id="paint77_linear_11276_3859" x1="306.665" y1="388.972" x2="326.298" y2="369.327" gradientUnits="userSpaceOnUse">
<stop stop-color="#92A6F3"/>
<stop offset="1" stop-color="#7F93E6"/>
</linearGradient>
<linearGradient id="paint78_linear_11276_3859" x1="326.31" y1="395.514" x2="359.033" y2="362.771" gradientUnits="userSpaceOnUse">
<stop stop-color="#92A6F3"/>
<stop offset="1" stop-color="#AAB9F3"/>
</linearGradient>
<linearGradient id="paint79_linear_11276_3859" x1="303.395" y1="359.522" x2="355.777" y2="359.522" gradientUnits="userSpaceOnUse">
<stop stop-color="#AAB9F3"/>
<stop offset="1" stop-color="#CCD6FF"/>
</linearGradient>
<linearGradient id="paint80_linear_11276_3859" x1="295.199" y1="33.7849" x2="384.205" y2="208.568" gradientUnits="userSpaceOnUse">
<stop stop-color="#EDEEFB"/>
<stop offset="0.06" stop-color="#FCFCFE"/>
<stop offset="0.3" stop-color="#E1E3F8"/>
<stop offset="0.37" stop-color="#C5D0F9"/>
<stop offset="1" stop-color="#DDE2FB"/>
</linearGradient>
<linearGradient id="paint81_linear_11276_3859" x1="273.378" y1="177.354" x2="367.618" y2="83.0568" gradientUnits="userSpaceOnUse">
<stop stop-color="#92A6F3"/>
<stop offset="1" stop-color="#7F93E6"/>
</linearGradient>
<linearGradient id="paint82_linear_11276_3859" x1="307.445" y1="207.499" x2="307.445" y2="52.3694" gradientUnits="userSpaceOnUse">
<stop stop-color="#1487FB"/>
<stop offset="1" stop-color="#22D2FD"/>
</linearGradient>
<linearGradient id="paint83_linear_11276_3859" x1="260.302" y1="140.51" x2="338.797" y2="140.51" gradientUnits="userSpaceOnUse">
<stop stop-color="#1487FB"/>
<stop offset="1" stop-color="#22D2FD"/>
</linearGradient>
<linearGradient id="paint84_linear_11276_3859" x1="151.301" y1="455.063" x2="127.343" y2="455.063" gradientUnits="userSpaceOnUse">
<stop stop-color="#AAB9F3"/>
<stop offset="1" stop-color="#CCD6FF"/>
</linearGradient>
<linearGradient id="paint85_linear_11276_3859" x1="151.301" y1="445.69" x2="127.343" y2="445.69" gradientUnits="userSpaceOnUse">
<stop stop-color="#E8EAFB"/>
<stop offset="1" stop-color="white"/>
</linearGradient>
<linearGradient id="paint86_linear_11276_3859" x1="485.583" y1="421.28" x2="597.422" y2="421.28" gradientUnits="userSpaceOnUse">
<stop stop-color="#D3D7F2"/>
<stop offset="0.45" stop-color="#BBC9F8"/>
<stop offset="0.55" stop-color="#D3D7F2"/>
<stop offset="1" stop-color="#F2F3FF"/>
</linearGradient>
<linearGradient id="paint87_linear_11276_3859" x1="510.692" y1="427.739" x2="535.317" y2="378.459" gradientUnits="userSpaceOnUse">
<stop stop-color="#E8EAFB"/>
<stop offset="1" stop-color="white"/>
</linearGradient>
<linearGradient id="paint88_linear_11276_3859" x1="485.583" y1="393.109" x2="597.422" y2="393.109" gradientUnits="userSpaceOnUse">
<stop stop-color="#D3D7F2"/>
<stop offset="0.45" stop-color="#BBC9F8"/>
<stop offset="0.55" stop-color="#D3D7F2"/>
<stop offset="1" stop-color="#F2F3FF"/>
</linearGradient>
<linearGradient id="paint89_linear_11276_3859" x1="510.692" y1="399.573" x2="535.317" y2="350.294" gradientUnits="userSpaceOnUse">
<stop stop-color="#E8EAFB"/>
<stop offset="1" stop-color="white"/>
</linearGradient>
<linearGradient id="paint90_linear_11276_3859" x1="485.583" y1="364.943" x2="597.422" y2="364.943" gradientUnits="userSpaceOnUse">
<stop stop-color="#D3D7F2"/>
<stop offset="0.45" stop-color="#BBC9F8"/>
<stop offset="0.55" stop-color="#D3D7F2"/>
<stop offset="1" stop-color="#F2F3FF"/>
</linearGradient>
<linearGradient id="paint91_linear_11276_3859" x1="510.692" y1="371.407" x2="535.317" y2="322.128" gradientUnits="userSpaceOnUse">
<stop stop-color="#E8EAFB"/>
<stop offset="1" stop-color="white"/>
</linearGradient>
<linearGradient id="paint92_linear_11276_3859" x1="318" y1="271.398" x2="318" y2="607.398" gradientUnits="userSpaceOnUse">
<stop offset="0.21875" stop-color="white" stop-opacity="0"/>
<stop offset="0.870504" stop-color="white"/>
</linearGradient>
<clipPath id="clip0_11276_3859">
<rect width="561" height="559" fill="white" transform="translate(37 17)"/>
</clipPath>
</defs>
</svg>
