<svg xmlns="http://www.w3.org/2000/svg" width="32" height="32" viewBox="0 0 32 32" fill="none">
  <path d="M6.81475 6.30432C7.89619 4.73241 10.0572 5.18959 11.0606 6.81258L12.4783 9.10587C12.8986 9.78566 12.7966 10.6656 12.232 11.231L11.6748 11.7889C11.0029 12.4618 11.0029 13.5526 11.6748 14.2255L17.4539 20.0122C18.1258 20.685 19.2152 20.685 19.8872 20.0122L20.432 19.4666C21.0022 18.8956 21.892 18.7978 22.5724 19.2314L25.2199 20.9184C26.814 21.9342 27.2552 24.078 25.7041 25.1587C22.9595 27.071 17.9013 28.379 10.7623 21.2305C3.65399 14.1127 4.9185 9.06057 6.81475 6.30432Z" stroke="#99CAFF" stroke-width="1.33333" stroke-linecap="round" stroke-linejoin="round"/>
</svg>