<svg width="24" height="24" viewBox="0 0 24 24" fill="none" xmlns="http://www.w3.org/2000/svg">
<g clip-path="url(#clip0_10948_9237)">
<path d="M16.5 9.37509V14.6251L12 17.2501L7.5 14.6251V9.37509L12 6.75009L16.5 9.37509Z" fill="#4294FF"/>
<path d="M16.5 9.37509V14.6251L12 17.2501V12.0001L16.5 9.37509Z" fill="#2946ED"/>
<path d="M12 12.0001V17.2501L7.5 14.6251V9.37509L12 12.0001Z" fill="#376CFB"/>
<path d="M12 5.62509C11.9005 5.62509 11.8052 5.58558 11.7348 5.51526C11.6645 5.44493 11.625 5.34955 11.625 5.25009V3.37509C11.625 3.27564 11.6645 3.18025 11.7348 3.10993C11.8052 3.0396 11.9005 3.00009 12 3.00009C12.0995 3.00009 12.1948 3.0396 12.2652 3.10993C12.3355 3.18025 12.375 3.27564 12.375 3.37509V5.25009C12.375 5.34955 12.3355 5.44493 12.2652 5.51526C12.1948 5.58558 12.0995 5.62509 12 5.62509Z" fill="#376CFB"/>
<path d="M12 21.0001C11.9005 21.0001 11.8052 20.9606 11.7348 20.8903C11.6645 20.8199 11.625 20.7245 11.625 20.6251V18.7501C11.625 18.6506 11.6645 18.5553 11.7348 18.4849C11.8052 18.4146 11.9005 18.3751 12 18.3751C12.0995 18.3751 12.1948 18.4146 12.2652 18.4849C12.3355 18.5553 12.375 18.6506 12.375 18.7501V20.6251C12.375 20.7245 12.3355 20.8199 12.2652 20.8903C12.1948 20.9606 12.0995 21.0001 12 21.0001Z" fill="#376CFB"/>
<path d="M20.625 12.3751H18C17.9005 12.3751 17.8052 12.3356 17.7348 12.2653C17.6645 12.1949 17.625 12.0995 17.625 12.0001C17.625 11.9006 17.6645 11.8053 17.7348 11.7349C17.8052 11.6646 17.9005 11.6251 18 11.6251H20.625C20.7245 11.6251 20.8198 11.6646 20.8902 11.7349C20.9605 11.8053 21 11.9006 21 12.0001C21 12.0995 20.9605 12.1949 20.8902 12.2653C20.8198 12.3356 20.7245 12.3751 20.625 12.3751Z" fill="#376CFB"/>
<path d="M6 12.3751H3.375C3.27554 12.3751 3.18016 12.3356 3.10984 12.2653C3.03951 12.1949 3 12.0995 3 12.0001C3 11.9006 3.03951 11.8053 3.10984 11.7349C3.18016 11.6646 3.27554 11.6251 3.375 11.6251H6C6.09946 11.6251 6.19484 11.6646 6.26517 11.7349C6.33549 11.8053 6.375 11.9006 6.375 12.0001C6.375 12.0995 6.33549 12.1949 6.26517 12.2653C6.19484 12.3356 6.09946 12.3751 6 12.3751Z" fill="#376CFB"/>
<path d="M16.5 7.87509C16.4259 7.87508 16.3534 7.85308 16.2917 7.81187C16.2301 7.77066 16.182 7.7121 16.1536 7.64359C16.1253 7.57508 16.1178 7.49969 16.1323 7.42696C16.1468 7.35422 16.1825 7.28741 16.2349 7.23497L18.8599 4.60997C18.9306 4.54166 19.0253 4.50386 19.1237 4.50471C19.222 4.50557 19.316 4.54501 19.3856 4.61453C19.4551 4.68406 19.4945 4.77812 19.4954 4.87644C19.4962 4.97477 19.4584 5.06949 19.3901 5.14022L16.7651 7.76522C16.6948 7.83555 16.5995 7.87507 16.5 7.87509Z" fill="#376CFB"/>
<path d="M7.5 7.87509C7.40055 7.87507 7.30519 7.83555 7.23488 7.76522L4.60988 5.14022C4.54157 5.06949 4.50377 4.97477 4.50462 4.87644C4.50548 4.77812 4.54492 4.68406 4.61444 4.61453C4.68397 4.54501 4.77803 4.50557 4.87635 4.50471C4.97467 4.50386 5.0694 4.54166 5.14013 4.60997L7.76513 7.23497C7.81756 7.28741 7.85326 7.35422 7.86772 7.42696C7.88218 7.49969 7.87476 7.57508 7.84638 7.64359C7.81801 7.7121 7.76995 7.77066 7.7083 7.81187C7.64665 7.85308 7.57416 7.87508 7.5 7.87509Z" fill="#376CFB"/>
<path d="M19.125 19.5001C19.0256 19.5001 18.9302 19.4606 18.8599 19.3902L16.2349 16.7652C16.1666 16.6945 16.1288 16.5998 16.1296 16.5015C16.1305 16.4031 16.1699 16.3091 16.2394 16.2395C16.309 16.17 16.403 16.1306 16.5013 16.1297C16.5997 16.1289 16.6944 16.1667 16.7651 16.235L19.3901 18.86C19.4426 18.9124 19.4783 18.9792 19.4927 19.052C19.5072 19.1247 19.4998 19.2001 19.4714 19.2686C19.443 19.3371 19.395 19.3957 19.3333 19.4369C19.2716 19.4781 19.1992 19.5001 19.125 19.5001Z" fill="#376CFB"/>
<path d="M4.87501 19.5001C4.80086 19.5001 4.72837 19.4781 4.66671 19.4369C4.60506 19.3957 4.55701 19.3371 4.52863 19.2686C4.50026 19.2001 4.49283 19.1247 4.50729 19.052C4.52176 18.9792 4.55746 18.9124 4.60989 18.86L7.23489 16.235C7.30561 16.1667 7.40034 16.1289 7.49866 16.1297C7.59699 16.1306 7.69104 16.17 7.76057 16.2395C7.8301 16.3091 7.86954 16.4031 7.87039 16.5015C7.87125 16.5998 7.83345 16.6945 7.76514 16.7652L5.14014 19.3902C5.06983 19.4606 4.97446 19.5001 4.87501 19.5001Z" fill="#376CFB"/>
<path d="M13.5 9.15527e-05H10.5C10.2929 9.15527e-05 10.125 0.167985 10.125 0.375092V3.37509C10.125 3.5822 10.2929 3.75009 10.5 3.75009H13.5C13.7071 3.75009 13.875 3.5822 13.875 3.37509V0.375092C13.875 0.167985 13.7071 9.15527e-05 13.5 9.15527e-05Z" fill="#4294FF"/>
<path d="M13.5 20.2501H10.5C10.2929 20.2501 10.125 20.418 10.125 20.6251V23.6251C10.125 23.8322 10.2929 24.0001 10.5 24.0001H13.5C13.7071 24.0001 13.875 23.8322 13.875 23.6251V20.6251C13.875 20.418 13.7071 20.2501 13.5 20.2501Z" fill="#4294FF"/>
<path d="M23.625 9.15527e-05H19.125C18.9179 9.15527e-05 18.75 0.167985 18.75 0.375092V4.87509C18.75 5.0822 18.9179 5.25009 19.125 5.25009H23.625C23.8321 5.25009 24 5.0822 24 4.87509V0.375092C24 0.167985 23.8321 9.15527e-05 23.625 9.15527e-05Z" fill="#4294FF"/>
<path d="M23.625 10.1251H20.625C20.4179 10.1251 20.25 10.293 20.25 10.5001V13.5001C20.25 13.7072 20.4179 13.8751 20.625 13.8751H23.625C23.8321 13.8751 24 13.7072 24 13.5001V10.5001C24 10.293 23.8321 10.1251 23.625 10.1251Z" fill="#4294FF"/>
<path d="M3.375 10.1251H0.375C0.167893 10.1251 0 10.293 0 10.5001V13.5001C0 13.7072 0.167893 13.8751 0.375 13.8751H3.375C3.58211 13.8751 3.75 13.7072 3.75 13.5001V10.5001C3.75 10.293 3.58211 10.1251 3.375 10.1251Z" fill="#4294FF"/>
<path d="M4.875 9.15527e-05H0.375C0.167893 9.15527e-05 0 0.167985 0 0.375092V4.87509C0 5.0822 0.167893 5.25009 0.375 5.25009H4.875C5.08211 5.25009 5.25 5.0822 5.25 4.87509V0.375092C5.25 0.167985 5.08211 9.15527e-05 4.875 9.15527e-05Z" fill="#4294FF"/>
<path d="M23.625 18.7501H19.125C18.9179 18.7501 18.75 18.918 18.75 19.1251V23.6251C18.75 23.8322 18.9179 24.0001 19.125 24.0001H23.625C23.8321 24.0001 24 23.8322 24 23.6251V19.1251C24 18.918 23.8321 18.7501 23.625 18.7501Z" fill="#4294FF"/>
<path d="M4.875 18.7501H0.375C0.167893 18.7501 0 18.918 0 19.1251V23.6251C0 23.8322 0.167893 24.0001 0.375 24.0001H4.875C5.08211 24.0001 5.25 23.8322 5.25 23.6251V19.1251C5.25 18.918 5.08211 18.7501 4.875 18.7501Z" fill="#4294FF"/>
</g>
<defs>
<clipPath id="clip0_10948_9237">
<rect width="24" height="24" fill="white"/>
</clipPath>
</defs>
</svg>
