<svg width="108" height="108" viewBox="0 0 108 108" fill="none" xmlns="http://www.w3.org/2000/svg">
<g filter="url(#filter0_d_11219_2524)">
<rect x="4" y="3" width="100" height="100" rx="10" fill="white"/>
<g clip-path="url(#clip0_11219_2524)">
<path d="M47.4112 52.4973L45.7212 50.8099L49.8472 46.6926L53.9742 50.8099L52.2841 52.4973L51.0424 51.2582V58.3885H59.625V51.2554L58.3833 52.4945L56.6932 50.8072L60.8202 46.6898L64.9462 50.8072L63.258 52.4973L62.0172 51.2582V58.3885H66.8563C69.1164 58.3922 71.2928 57.5356 72.942 55.9935C74.5913 54.4513 75.589 52.3397 75.7321 50.0889C75.8752 47.8381 75.1528 45.6176 73.7121 43.8798C72.2714 42.1421 70.2209 41.018 67.9785 40.7366C67.7366 38.8589 66.8984 37.1077 65.5867 35.7399C64.2751 34.3721 62.5588 33.4595 60.6894 33.1358C58.8202 32.8122 56.8961 33.0945 55.1993 33.9414C53.5025 34.7883 52.1222 36.1553 51.2606 37.842C50.1981 37.6077 49.0984 37.5974 48.0316 37.8119C46.965 38.0265 45.955 38.461 45.0664 39.0877C44.1779 39.7144 43.4303 40.5194 42.8717 41.4512C42.3131 42.383 41.9557 43.421 41.8225 44.4986C39.977 44.5078 38.2108 45.2482 36.9124 46.5568C35.6139 47.8654 34.8897 49.6353 34.8989 51.4768C34.9081 53.3184 35.65 55.0808 36.9614 56.3765C38.2729 57.6722 40.0464 58.395 41.8919 58.3858H48.6484V51.2554L47.4112 52.4973Z" fill="#CBCBCB"/>
<path d="M59.6266 58.3867V61.787H51.044V58.3867H48.6518V61.787H40.4216V73.7153H70.248V61.787H62.0178V58.3867H59.6266ZM48.3048 68.9438H45.9063V66.5585H48.3021L48.3048 68.9438ZM64.7661 68.9438H55.3344V66.5585H64.7643L64.7661 68.9438Z" fill="#007BFF"/>
</g>
</g>
<defs>
<filter id="filter0_d_11219_2524" x="0" y="0" width="108" height="108" filterUnits="userSpaceOnUse" color-interpolation-filters="sRGB">
<feFlood flood-opacity="0" result="BackgroundImageFix"/>
<feColorMatrix in="SourceAlpha" type="matrix" values="0 0 0 0 0 0 0 0 0 0 0 0 0 0 0 0 0 0 127 0" result="hardAlpha"/>
<feOffset dy="1"/>
<feGaussianBlur stdDeviation="2"/>
<feColorMatrix type="matrix" values="0 0 0 0 0 0 0 0 0 0 0 0 0 0 0 0 0 0 0.04 0"/>
<feBlend mode="normal" in2="BackgroundImageFix" result="effect1_dropShadow_11219_2524"/>
<feBlend mode="normal" in="SourceGraphic" in2="effect1_dropShadow_11219_2524" result="shape"/>
</filter>
<clipPath id="clip0_11219_2524">
<rect width="42" height="41" fill="white" transform="translate(34 33)"/>
</clipPath>
</defs>
</svg>
