<svg width="24" height="24" viewBox="0 0 24 24" fill="none" xmlns="http://www.w3.org/2000/svg">
<path d="M6 21.2501C5.58579 21.2501 5.25 21.5859 5.25 22.0001C5.25 22.4143 5.58579 22.7501 6 22.7501V21.2501ZM18 22.7501C18.4142 22.7501 18.75 22.4143 18.75 22.0001C18.75 21.5859 18.4142 21.2501 18 21.2501V22.7501ZM18.75 9.50012C18.75 11.2066 17.6599 13.4137 16.1547 15.247C15.4148 16.1482 14.6072 16.918 13.8465 17.4555C13.0624 18.0096 12.4227 18.2501 12 18.2501V19.7501C12.8898 19.7501 13.8438 19.2941 14.7121 18.6805C15.6038 18.0505 16.5071 17.1816 17.314 16.1988C18.9026 14.2639 20.25 11.721 20.25 9.50012H18.75ZM12 18.2501C11.5925 18.2501 10.9595 17.9994 10.171 17.4075C9.409 16.8354 8.59932 16.018 7.85679 15.0669C6.34675 13.1328 5.25 10.8251 5.25 9.11123H3.75C3.75 11.3247 5.09075 13.9615 6.67446 15.99C7.4788 17.0202 8.38006 17.9386 9.27041 18.607C10.1343 19.2556 11.095 19.7501 12 19.7501V18.2501ZM5.25 9.11123C5.25 5.48071 8.47857 2.75012 12 2.75012V1.25012C7.78944 1.25012 3.75 4.51953 3.75 9.11123H5.25ZM12 2.75012C15.4938 2.75012 18.75 5.45516 18.75 9.50012H20.25C20.25 4.54509 16.2382 1.25012 12 1.25012V2.75012ZM14.25 9.00012C14.25 10.2428 13.2426 11.2501 12 11.2501V12.7501C14.0711 12.7501 15.75 11.0712 15.75 9.00012H14.25ZM12 11.2501C10.7574 11.2501 9.75 10.2428 9.75 9.00012H8.25C8.25 11.0712 9.92893 12.7501 12 12.7501V11.2501ZM9.75 9.00012C9.75 7.75748 10.7574 6.75012 12 6.75012V5.25012C9.92893 5.25012 8.25 6.92905 8.25 9.00012H9.75ZM12 6.75012C13.2426 6.75012 14.25 7.75748 14.25 9.00012H15.75C15.75 6.92905 14.0711 5.25012 12 5.25012V6.75012ZM6 22.7501H18V21.2501H6V22.7501Z" fill="#007BFF"/>
</svg>
