<svg width="24" height="24" viewBox="0 0 24 24" fill="none" xmlns="http://www.w3.org/2000/svg">
<path d="M21 19.0001V17.3542C21 16.5364 20.5021 15.801 19.7428 15.4972L17.7086 14.6836C16.7429 14.2973 15.6422 14.7157 15.177 15.6461L15 16.0001C15 16.0001 12.5 15.5001 10.5 13.5001C8.5 11.5001 8 9.00012 8 9.00012L8.35402 8.82311C9.28438 8.35793 9.70285 7.25726 9.31654 6.29148L8.50289 4.25734C8.19916 3.49802 7.46374 3.00012 6.64593 3.00012H5C3.89543 3.00012 3 3.89555 3 5.00012C3 13.8367 10.1634 21.0001 19 21.0001C20.1046 21.0001 21 20.1047 21 19.0001Z" stroke="#007BFF" stroke-width="1.5" stroke-linejoin="round"/>
</svg>
