<svg width="66" height="66" viewBox="0 0 66 66" fill="none" xmlns="http://www.w3.org/2000/svg">
<path d="M9.2428 19.8908V20.944L31.7396 33.9037L31.4924 34.0466L9.2428 46.9825V48.0197L32.6396 34.4271L32.722 34.4749L58.9348 49.6021V48.5702L33.5409 33.9044L58.9348 19.1627V18.0927L32.6396 33.3817L32.5572 33.334L9.2428 19.8908Z" fill="#9DA9C1"/>
<path d="M18.6599 24.4114L18.6545 25.7164C18.6545 25.8767 18.5528 26.0317 18.3442 26.1548L10.7984 30.5347C10.3812 30.7807 9.70744 30.7807 9.29027 30.5347L1.691 26.1496C1.48242 26.0265 1.37549 25.8714 1.37549 25.7108L1.38089 24.4008C1.38089 24.5611 1.48782 24.7214 1.69641 24.8447L9.2958 29.2298C9.71298 29.4705 10.3867 29.4705 10.8039 29.2298L18.3498 24.8447C18.5582 24.7213 18.6599 24.5665 18.6599 24.4114Z" fill="#B4BED7"/>
<path d="M18.3448 23.969C18.7647 24.2114 18.767 24.6019 18.3497 24.8443L10.8052 29.2287C10.3881 29.4712 9.71406 29.4712 9.29412 29.2287L1.69697 24.8425C1.28046 24.602 1.27479 24.2096 1.69209 23.9671L9.23651 19.5827C9.65368 19.3403 10.331 19.3422 10.7476 19.5827L18.3448 23.969Z" fill="#E3E7F0"/>
<path d="M17.7298 19.6828L17.725 23.9094C17.725 24.0525 17.6343 24.1909 17.4481 24.3008L10.7138 28.2096C10.3416 28.4291 9.74024 28.4291 9.36789 28.2096L2.58583 24.296C2.39966 24.1863 2.3042 24.0479 2.3042 23.9045L2.30895 19.6732C2.30895 19.8163 2.4044 19.9593 2.59058 20.0694L9.37264 23.983C9.74498 24.1979 10.3462 24.1979 10.7186 23.983L17.4529 20.0694C17.6392 19.9595 17.7298 19.8213 17.7298 19.6828Z" fill="#9DA9C1"/>
<path d="M18.6599 18.0201L18.6545 19.325C18.6545 19.4853 18.5528 19.6404 18.3442 19.7634L10.7984 24.1433C10.3812 24.3894 9.70744 24.3894 9.29027 24.1433L1.691 19.7583C1.48242 19.6352 1.37549 19.4801 1.37549 19.3195L1.38089 18.0094C1.38089 18.1697 1.48782 18.3301 1.69641 18.4533L9.2958 22.8384C9.71298 23.0792 10.3867 23.0792 10.8039 22.8384L18.3498 18.4533C18.5582 18.3301 18.6599 18.1753 18.6599 18.0201Z" fill="#B4BED7"/>
<path d="M18.3436 17.5776C18.7635 17.8201 18.7657 18.2105 18.3484 18.453L10.804 22.8374C10.3868 23.0798 9.71283 23.0798 9.29289 22.8374L1.69587 18.4511C1.27936 18.2106 1.27369 17.8182 1.69099 17.5758L9.23541 13.1914C9.65258 12.9489 10.3299 12.9509 10.7465 13.1914L18.3436 17.5776Z" fill="#E3E7F0"/>
<path d="M17.7298 13.2916L17.725 17.5182C17.725 17.6612 17.6343 17.7997 17.4481 17.9095L10.7138 21.8183C10.3416 22.0379 9.74024 22.0379 9.36789 21.8183L2.58583 17.9048C2.39966 17.7951 2.3042 17.6566 2.3042 17.5133L2.30895 13.282C2.30895 13.425 2.4044 13.5681 2.59058 13.6782L9.37264 17.5918C9.74498 17.8067 10.3462 17.8067 10.7186 17.5918L17.4529 13.6782C17.6392 13.5682 17.7298 13.43 17.7298 13.2916Z" fill="#9DA9C1"/>
<path d="M18.6599 10.4914L18.6545 12.9337C18.6545 13.094 18.5528 13.249 18.3442 13.3721L10.7984 17.752C10.3812 17.998 9.70744 17.998 9.29027 17.752L1.691 13.3669C1.48242 13.2438 1.37549 13.0887 1.37549 12.9281L1.38089 10.4806C1.38089 10.6409 1.48782 10.8012 1.69641 10.9245L9.2958 15.3096C9.71298 15.5503 10.3867 15.5503 10.8039 15.3096L18.3498 10.9245C18.5582 10.8012 18.6599 10.6465 18.6599 10.4914Z" fill="#0085FF"/>
<path d="M18.3435 10.0488C18.7634 10.2913 18.7657 10.6817 18.3484 10.9242L10.804 15.3086C10.3868 15.551 9.71278 15.551 9.29284 15.3086L1.69582 10.9223C1.27931 10.6818 1.27377 10.2894 1.69094 10.047L9.23535 5.66256C9.65253 5.42009 10.3298 5.42206 10.7465 5.66256L18.3435 10.0488Z" fill="#F8F8F8"/>
<path d="M12.9478 8.77969C11.3231 7.84171 8.68957 7.84409 7.07547 8.78207C5.46229 9.71952 5.47073 11.2425 7.09538 12.1805C8.72002 13.1185 11.3492 13.1185 12.9624 12.181C14.5765 11.243 14.5724 9.71767 12.9478 8.77969ZM13.1258 9.54943L11.0805 10.1633C11.0251 10.1 10.955 10.0416 10.8652 9.98994L12.4881 9.04682C12.7501 9.19792 12.9645 9.36735 13.1258 9.54943ZM10.9161 8.521C11.2588 8.5748 11.5901 8.65905 11.8986 8.77376L10.6627 9.89461C10.5575 9.85651 10.444 9.83185 10.3273 9.81379L10.9161 8.521ZM10.4664 10.7361C10.2226 10.8803 9.8236 10.8803 9.57981 10.7361C9.33049 10.5975 9.33049 10.3648 9.57428 10.2209C9.81807 10.0824 10.217 10.0824 10.4664 10.2209C10.7102 10.3648 10.7102 10.5975 10.4664 10.7361ZM10.1718 8.4556L10.0735 9.78861C9.94939 9.78426 9.82466 9.79296 9.70731 9.81155L9.10476 8.52298C9.45508 8.46932 9.81292 8.44638 10.1718 8.4556ZM8.40121 8.67909L9.46629 9.86574C9.36213 9.89949 9.25731 9.93733 9.16726 9.98981L7.53378 9.04669C7.79405 8.89546 8.09058 8.77376 8.40121 8.67909ZM7.06518 9.38765L9.00864 10.1049C8.93837 10.1677 8.89604 10.2333 8.86519 10.3007L6.63971 9.95553C6.72488 9.75723 6.86754 9.56565 7.06518 9.38765ZM6.52487 10.3889L8.82339 10.4473C8.8197 10.522 8.83658 10.5896 8.86809 10.6618L6.64247 11.0047C6.55097 10.804 6.51115 10.5962 6.52487 10.3889ZM6.91316 11.4133L8.95828 10.7994C9.01695 10.8608 9.0838 10.9211 9.17359 10.9727L7.55065 11.9159C7.2888 11.7646 7.07758 11.5934 6.91316 11.4133ZM9.12691 12.4392C8.78424 12.3853 8.44868 12.3036 8.14015 12.1889L9.38019 11.0656C9.48145 11.1062 9.59484 11.1308 9.71562 11.1513L9.12691 12.4392ZM9.8712 12.5048L9.96877 11.1711C10.0936 11.1759 10.2133 11.1692 10.3348 11.1492L10.9381 12.4372C10.587 12.4914 10.23 12.5138 9.8712 12.5048ZM11.6377 12.2836L10.5718 11.0975C10.6767 11.0632 10.7816 11.0252 10.8709 10.9733L12.5036 11.9159C12.2441 12.0668 11.9484 12.1889 11.6377 12.2836ZM12.9737 11.575L11.0336 10.8559C11.0998 10.7945 11.1462 10.7274 11.177 10.66L13.4033 11.0047C13.3141 11.2055 13.1714 11.397 12.9737 11.575ZM11.2196 10.5129C11.2217 10.4431 11.2066 10.3709 11.1749 10.3032L13.4005 9.95553C13.4911 10.1569 13.5276 10.3665 13.5133 10.5735L11.2196 10.5129Z" fill="#0085FF"/>
<path d="M47.3789 24.4117L47.3843 25.7166C47.3843 25.8769 47.486 26.032 47.6946 26.155L55.2404 30.5349C55.6576 30.781 56.3313 30.781 56.7485 30.5349L64.3478 26.1499C64.5564 26.0267 64.6633 25.8717 64.6633 25.7111L64.6579 24.401C64.6579 24.5613 64.551 24.7217 64.3424 24.8449L56.743 29.23C56.3258 29.4708 55.652 29.4708 55.2349 29.23L47.689 24.8449C47.4806 24.7215 47.3789 24.5667 47.3789 24.4117Z" fill="#B4BED7"/>
<path d="M47.6953 23.9692C47.2754 24.2117 47.2731 24.6021 47.6904 24.8446L55.2349 29.229C55.652 29.4714 56.326 29.4714 56.746 29.229L64.3431 24.8427C64.7596 24.6022 64.7653 24.2098 64.348 23.9674L56.8036 19.583C56.3864 19.3405 55.7091 19.3425 55.2925 19.583L47.6953 23.9692Z" fill="#E3E7F0"/>
<path d="M48.3081 19.683L48.3129 23.9095C48.3129 24.0526 48.4036 24.191 48.5897 24.3009L55.3241 28.2097C55.6963 28.4292 56.2976 28.4292 56.67 28.2097L63.4521 24.2961C63.6382 24.1864 63.7337 24.048 63.7337 23.9047L63.7289 19.6733C63.7289 19.8164 63.6335 19.9595 63.4473 20.0695L56.6652 23.9831C56.2929 24.198 55.6917 24.198 55.3193 23.9831L48.585 20.0695C48.3987 19.9596 48.3081 19.8214 48.3081 19.683Z" fill="#9DA9C1"/>
<path d="M47.3789 18.0203L47.3843 19.3252C47.3843 19.4856 47.486 19.6406 47.6946 19.7636L55.2404 24.1436C55.6576 24.3896 56.3313 24.3896 56.7485 24.1436L64.3478 19.7585C64.5564 19.6355 64.6633 19.4803 64.6633 19.3197L64.6579 18.0096C64.6579 18.17 64.551 18.3303 64.3424 18.4536L56.743 22.8386C56.3258 23.0794 55.652 23.0794 55.2349 22.8386L47.689 18.4536C47.4806 18.3303 47.3789 18.1755 47.3789 18.0203Z" fill="#B4BED7"/>
<path d="M47.6953 17.578C47.2754 17.8205 47.2731 18.2109 47.6904 18.4533L55.2349 22.8377C55.652 23.0802 56.326 23.0802 56.746 22.8377L64.3431 18.4515C64.7596 18.211 64.7653 17.8186 64.348 17.5761L56.8036 13.1917C56.3864 12.9493 55.7091 12.9512 55.2925 13.1917L47.6953 17.578Z" fill="#E3E7F0"/>
<path d="M48.3091 13.2914L48.3138 17.5179C48.3138 17.661 48.4045 17.7994 48.5907 17.9093L55.325 21.8181C55.6973 22.0376 56.2986 22.0376 56.671 21.8181L63.453 17.9045C63.6392 17.7948 63.7347 17.6564 63.7347 17.5131L63.7299 13.2817C63.7299 13.4248 63.6345 13.5679 63.4483 13.6779L56.6662 17.5915C56.2939 17.8064 55.6926 17.8064 55.3203 17.5915L48.586 13.6779C48.3997 13.568 48.3091 13.4298 48.3091 13.2914Z" fill="#9DA9C1"/>
<path d="M47.3789 10.4916L47.3843 12.9339C47.3843 13.0942 47.486 13.2493 47.6946 13.3723L55.2404 17.7522C55.6576 17.9983 56.3313 17.9983 56.7485 17.7522L64.3478 13.3672C64.5564 13.244 64.6633 13.089 64.6633 12.9284L64.6579 10.4808C64.6579 10.6412 64.551 10.8015 64.3424 10.9248L56.743 15.3098C56.3258 15.5506 55.652 15.5506 55.2349 15.3098L47.689 10.9248C47.4806 10.8015 47.3789 10.6467 47.3789 10.4916Z" fill="#0066FF"/>
<path d="M47.6953 10.0492C47.2754 10.2916 47.2731 10.6821 47.6904 10.9245L55.2349 15.3089C55.652 15.5514 56.326 15.5514 56.746 15.3089L64.3431 10.9227C64.7596 10.6822 64.7653 10.2898 64.348 10.0473L56.8036 5.66292C56.3864 5.42045 55.7091 5.42243 55.2925 5.66292L47.6953 10.0492Z" fill="#CEDFFF"/>
<path d="M53.0768 12.1812C54.69 13.1186 57.3192 13.1186 58.9439 12.1807C60.5685 11.2427 60.5771 9.71969 58.9639 8.78224C57.3498 7.84426 54.7162 7.84175 53.0916 8.77986C51.4668 9.71784 51.4627 11.2432 53.0768 12.1812ZM53.5511 9.04686L55.174 9.98998C55.0842 10.0417 55.0141 10.1001 54.9587 10.1634L52.9136 9.54947C53.0747 9.36752 53.2891 9.19809 53.5511 9.04686ZM55.712 9.81396C55.5953 9.83203 55.4819 9.85668 55.3765 9.89492L54.1406 8.77406C54.4491 8.65935 54.7805 8.57523 55.1231 8.52131L55.712 9.81396ZM55.5729 10.2211C55.8222 10.0825 56.2212 10.0825 56.465 10.2211C56.7088 10.3651 56.7088 10.5977 56.4594 10.7363C56.2156 10.8805 55.8167 10.8805 55.5729 10.7363C55.3291 10.5977 55.3291 10.365 55.5729 10.2211ZM56.9345 8.52315L56.3319 9.81172C56.2146 9.793 56.0899 9.78443 55.9658 9.78878L55.8674 8.45578C56.2263 8.44655 56.5842 8.46949 56.9345 8.52315ZM58.5055 9.04686L56.872 9.98998C56.7819 9.93751 56.6771 9.89966 56.5729 9.86578L57.638 8.67913C57.9487 8.77393 58.2452 8.89563 58.5055 9.04686ZM59.3995 9.9557L57.174 10.3009C57.1432 10.2335 57.1009 10.1677 57.0306 10.105L58.9741 9.38769C59.1717 9.56582 59.3144 9.7574 59.3995 9.9557ZM59.3969 11.0048L57.1713 10.662C57.2029 10.5898 57.2197 10.5221 57.216 10.4475L59.5145 10.3891C59.5281 10.5964 59.4883 10.8042 59.3969 11.0048ZM58.4886 11.916L56.8657 10.9729C56.9554 10.9212 57.0223 10.8609 57.081 10.7995L59.1261 11.4134C58.9617 11.5935 58.7504 11.7648 58.4886 11.916ZM56.3235 11.1514C56.4443 11.1309 56.5578 11.1062 56.6589 11.0657L57.899 12.1891C57.5904 12.3038 57.255 12.3856 56.9122 12.4394L56.3235 11.1514ZM55.1011 12.4374L55.7045 11.1493C55.8259 11.1694 55.9457 11.1761 56.0705 11.1712L56.168 12.505C55.8093 12.514 55.4522 12.4916 55.1011 12.4374ZM53.5358 11.916L55.1685 10.9735C55.2578 11.0254 55.3626 11.0632 55.4675 11.0977L54.4017 12.2838C54.0909 12.1891 53.7951 12.067 53.5358 11.916ZM52.6361 11.0048L54.8623 10.6602C54.8932 10.7275 54.9396 10.7947 55.0058 10.8561L53.0656 11.5752C52.8678 11.3972 52.7252 11.2056 52.6361 11.0048ZM52.526 10.5735C52.5115 10.3665 52.548 10.1569 52.6387 9.95557L54.8643 10.3033C54.8327 10.3709 54.8175 10.4432 54.8196 10.5129L52.526 10.5735Z" fill="#0066FF"/>
<path d="M64.6632 54.136L64.6578 55.441C64.6578 55.6013 64.5561 55.7563 64.3475 55.8794L56.8016 60.2593C56.3845 60.5053 55.7107 60.5053 55.2936 60.2593L47.6944 55.8741C47.4858 55.7511 47.3789 55.596 47.3789 55.4354L47.3843 54.1254C47.3843 54.2857 47.4912 54.446 47.6998 54.5693L55.2992 58.9544C55.7164 59.1951 56.3901 59.1951 56.8073 58.9544L64.3532 54.5693C64.5616 54.446 64.6632 54.2911 64.6632 54.136Z" fill="#B4BED7"/>
<path d="M64.3487 53.6938C64.7686 53.9362 64.7709 54.3267 64.3536 54.569L56.8092 58.9534C56.392 59.1959 55.718 59.1959 55.298 58.9534L47.7009 54.5672C47.2844 54.3267 47.2787 53.9343 47.696 53.6918L55.2404 49.3074C55.6576 49.0649 56.3349 49.0669 56.7515 49.3074L64.3487 53.6938Z" fill="#E3E7F0"/>
<path d="M63.7343 49.4071L63.7295 53.6337C63.7295 53.7767 63.6388 53.9152 63.4527 54.025L56.7183 57.9338C56.3461 58.1533 55.7448 58.1533 55.3724 57.9338L48.5903 54.0202C48.4042 53.9104 48.3087 53.7721 48.3087 53.6288L48.3135 49.3975C48.3135 49.5405 48.4089 49.6836 48.5951 49.7937L55.3772 53.7072C55.7495 53.9222 56.3507 53.9222 56.7231 53.7072L63.4574 49.7937C63.6436 49.6837 63.7343 49.5455 63.7343 49.4071Z" fill="#9DA9C1"/>
<path d="M64.6632 47.7447L64.6578 49.0496C64.6578 49.2099 64.5561 49.365 64.3475 49.488L56.8016 53.8679C56.3845 54.114 55.7107 54.114 55.2936 53.8679L47.6944 49.4827C47.4858 49.3597 47.3789 49.2047 47.3789 49.0441L47.3843 47.734C47.3843 47.8943 47.4912 48.0547 47.6998 48.1779L55.2992 52.563C55.7164 52.8038 56.3901 52.8038 56.8073 52.563L64.3532 48.1779C64.5616 48.0547 64.6632 47.8997 64.6632 47.7447Z" fill="#B4BED7"/>
<path d="M64.3487 47.3025C64.7686 47.545 64.7709 47.9354 64.3536 48.1778L56.8092 52.5622C56.392 52.8046 55.718 52.8046 55.298 52.5622L47.7009 48.1759C47.2844 47.9354 47.2787 47.543 47.696 47.3006L55.2404 42.9163C55.6576 42.6738 56.3349 42.6758 56.7515 42.9163L64.3487 47.3025Z" fill="#E3E7F0"/>
<path d="M63.7332 43.016L63.7284 47.2426C63.7284 47.3857 63.6377 47.5241 63.4516 47.6339L56.7172 51.5428C56.345 51.7623 55.7437 51.7623 55.3713 51.5428L48.5892 47.6292C48.4031 47.5195 48.3076 47.3811 48.3076 47.2377L48.3124 43.0064C48.3124 43.1495 48.4078 43.2925 48.594 43.4026L55.3761 47.3162C55.7484 47.5311 56.3496 47.5311 56.722 47.3162L63.4563 43.4026C63.6425 43.2927 63.7332 43.1543 63.7332 43.016Z" fill="#9DA9C1"/>
<path d="M64.663 40.216L64.6576 42.6583C64.6576 42.8186 64.556 42.9736 64.3474 43.0967L56.8015 47.4766C56.3844 47.7226 55.7106 47.7226 55.2934 47.4766L47.6943 43.0915C47.4857 42.9685 47.3788 42.8134 47.3788 42.6529L47.3842 40.2053C47.3842 40.3657 47.4911 40.526 47.6997 40.6493L55.2991 45.0343C55.7163 45.2751 56.39 45.2751 56.8072 45.0343L64.3531 40.6493C64.5615 40.526 64.663 40.3711 64.663 40.216Z" fill="#0066FF"/>
<path d="M64.3472 39.7735C64.7672 40.016 64.7694 40.4064 64.3521 40.6489L56.8077 45.0333C56.3905 45.2758 55.7165 45.2758 55.2966 45.0333L47.6994 40.647C47.2829 40.4066 47.2772 40.0142 47.6945 39.7717L55.2389 35.3873C55.6561 35.1448 56.3334 35.1468 56.7501 35.3873L64.3472 39.7735Z" fill="#A3E3FF"/>
<path d="M58.9519 38.5043C57.3272 37.5663 54.6937 37.5687 53.0796 38.5067C51.4664 39.4441 51.4749 40.9671 53.0996 41.9051C54.7242 42.8431 57.3533 42.8431 58.9666 41.9056C60.5806 40.9678 60.5765 39.4424 58.9519 38.5043ZM59.1297 39.274L57.0846 39.8879C57.0292 39.8246 56.9591 39.7662 56.8693 39.7146L58.4922 38.7714C58.7542 38.9227 58.9686 39.092 59.1297 39.274ZM56.9202 38.2457C57.2629 38.2995 57.5942 38.3837 57.9027 38.4985L56.6668 39.6194C56.5614 39.5813 56.448 39.5566 56.3314 39.5384L56.9202 38.2457ZM56.4705 40.4607C56.2267 40.6049 55.8277 40.6049 55.5839 40.4607C55.3346 40.3221 55.3346 40.0895 55.5784 39.9456C55.8222 39.807 56.2211 39.807 56.4705 39.9456C56.7142 40.0895 56.7142 40.3222 56.4705 40.4607ZM56.1759 38.1802L56.0775 39.5132C55.9535 39.5089 55.8287 39.5176 55.7114 39.5362L55.1088 38.2476C55.4592 38.1941 55.817 38.171 56.1759 38.1802ZM54.4053 38.4037L55.4704 39.5903C55.3663 39.6241 55.2614 39.6621 55.1713 39.7146L53.5379 38.7714C53.798 38.6202 54.0947 38.4984 54.4053 38.4037ZM53.0693 39.1123L55.0127 39.8295C54.9425 39.8923 54.9001 39.9581 54.8693 40.0255L52.6438 39.6803C52.729 39.4818 52.8715 39.2903 53.0693 39.1123ZM52.5288 40.1135L54.8273 40.1719C54.8237 40.2466 54.8404 40.3142 54.872 40.3865L52.6464 40.7293C52.5551 40.5286 52.5152 40.3208 52.5288 40.1135ZM52.9172 41.1379L54.9624 40.524C55.021 40.5854 55.0879 40.6457 55.1777 40.6974L53.5547 41.6405C53.2928 41.4894 53.0817 41.3181 52.9172 41.1379ZM55.1309 42.1638C54.7882 42.11 54.4528 42.0283 54.1442 41.9135L55.3843 40.7902C55.4855 40.8308 55.5989 40.8554 55.7197 40.8759L55.1309 42.1638ZM55.8752 42.2296L55.9727 40.8958C56.0976 40.9007 56.2174 40.8939 56.3387 40.8739L56.9421 42.1619C56.5911 42.216 56.234 42.2386 55.8752 42.2296ZM57.6418 42.0082L56.5759 40.8221C56.6809 40.7877 56.7857 40.7498 56.875 40.6979L58.5077 41.6405C58.2482 41.7916 57.9524 41.9135 57.6418 42.0082ZM58.9778 41.2997L57.0377 40.5805C57.1039 40.5191 57.1503 40.452 57.1811 40.3846L59.4074 40.7293C59.3181 40.9301 59.1755 41.1217 58.9778 41.2997ZM57.2237 40.2375C57.2258 40.1677 57.2107 40.0955 57.179 40.0278L59.4046 39.6801C59.4952 39.8815 59.5317 40.0911 59.5174 40.2981L57.2237 40.2375Z" fill="#0066FF"/>
<path d="M1.37549 54.1358L1.38089 55.4407C1.38089 55.601 1.48255 55.7561 1.69114 55.8791L9.237 60.259C9.65417 60.5051 10.3279 60.5051 10.7451 60.259L18.3444 55.874C18.5529 55.751 18.6599 55.5959 18.6599 55.4353L18.6545 54.1252C18.6545 54.2856 18.5475 54.4459 18.3389 54.5692L10.7396 58.9541C10.3224 59.1949 9.64863 59.1949 9.23146 58.9541L1.6856 54.5691C1.47701 54.4458 1.37549 54.2909 1.37549 54.1358Z" fill="#B4BED7"/>
<path d="M1.6919 53.6935C1.27196 53.9359 1.26972 54.3264 1.68702 54.5687L9.23144 58.9531C9.64861 59.1956 10.3226 59.1956 10.7426 58.9531L18.3397 54.5668C18.7562 54.3264 18.7619 53.934 18.3446 53.6915L10.8002 49.3071C10.383 49.0646 9.7057 49.0666 9.28905 49.3071L1.6919 53.6935Z" fill="#E3E7F0"/>
<path d="M2.30518 49.4074L2.30992 53.634C2.30992 53.777 2.40063 53.9155 2.58681 54.0253L9.32114 57.9341C9.69335 58.1537 10.2947 58.1537 10.6671 57.9341L17.4491 54.0206C17.6353 53.9107 17.7308 53.7724 17.7308 53.6291L17.726 49.3978C17.726 49.5408 17.6305 49.6839 17.4444 49.794L10.6623 53.7075C10.29 53.9225 9.68874 53.9225 9.31639 53.7075L2.58193 49.794C2.39589 49.684 2.30518 49.5458 2.30518 49.4074Z" fill="#9DA9C1"/>
<path d="M1.37549 47.7446L1.38089 49.0495C1.38089 49.2098 1.48255 49.3649 1.69114 49.4879L9.237 53.8678C9.65417 54.1138 10.3279 54.1138 10.7451 53.8678L18.3444 49.4827C18.5529 49.3597 18.6599 49.2047 18.6599 49.0441L18.6545 47.734C18.6545 47.8943 18.5475 48.0547 18.3389 48.1779L10.7396 52.563C10.3224 52.8038 9.64863 52.8038 9.23146 52.563L1.6856 48.1779C1.47701 48.0545 1.37549 47.8996 1.37549 47.7446Z" fill="#B4BED7"/>
<path d="M1.6919 47.3022C1.27196 47.5447 1.26972 47.9351 1.68702 48.1774L9.23144 52.5618C9.64861 52.8043 10.3226 52.8043 10.7426 52.5618L18.3397 48.1756C18.7562 47.9351 18.7619 47.5427 18.3446 47.3002L10.8 42.916C10.3829 42.6735 9.70557 42.6755 9.28892 42.916L1.6919 47.3022Z" fill="#E3E7F0"/>
<path d="M2.30518 43.016L2.30992 47.2426C2.30992 47.3857 2.40063 47.5241 2.58681 47.6339L9.32114 51.5428C9.69335 51.7623 10.2947 51.7623 10.6671 51.5428L17.4491 47.6292C17.6353 47.5195 17.7308 47.3811 17.7308 47.2377L17.726 43.0064C17.726 43.1495 17.6305 43.2925 17.4444 43.4026L10.6623 47.3162C10.29 47.5311 9.68874 47.5311 9.31639 47.3162L2.58193 43.4026C2.39589 43.2927 2.30518 43.1543 2.30518 43.016Z" fill="#9DA9C1"/>
<path d="M1.37549 40.2158L1.38089 42.658C1.38089 42.8183 1.48255 42.9734 1.69114 43.0964L9.237 47.4763C9.65417 47.7224 10.3279 47.7224 10.7451 47.4763L18.3442 43.0913C18.5528 42.9683 18.6597 42.8132 18.6597 42.6526L18.6543 40.2051C18.6543 40.3654 18.5474 40.5257 18.3388 40.649L10.7394 45.0341C10.3223 45.2748 9.6485 45.2748 9.23133 45.0341L1.68547 40.649C1.47701 40.5257 1.37549 40.3708 1.37549 40.2158Z" fill="#5793FB"/>
<path d="M1.6919 39.7734C1.27196 40.0159 1.26972 40.4063 1.68702 40.6488L9.23144 45.0332C9.64861 45.2756 10.3226 45.2756 10.7426 45.0332L18.3397 40.6469C18.7562 40.4064 18.7619 40.014 18.3446 39.7716L10.8002 35.3872C10.383 35.1447 9.7057 35.1467 9.28905 35.3872L1.6919 39.7734Z" fill="#7BB1FF"/>
<path d="M7.07325 41.9056C8.68642 42.843 11.3156 42.843 12.9403 41.905C14.5649 40.9671 14.5735 39.4441 12.9603 38.5066C11.3462 37.5686 8.71266 37.5661 7.08801 38.5042C5.46337 39.4423 5.45915 40.9676 7.07325 41.9056ZM7.54751 38.7712L9.17044 39.7143C9.08065 39.766 9.01051 39.8244 8.95513 39.8877L6.91002 39.2738C7.07114 39.0918 7.28552 38.9225 7.54751 38.7712ZM9.70839 39.5382C9.5917 39.5563 9.47831 39.5809 9.37296 39.6192L8.13687 38.4982C8.4454 38.3835 8.77674 38.2993 9.11941 38.2454L9.70839 39.5382ZM9.56928 39.9453C9.81861 39.8068 10.2176 39.8068 10.4614 39.9453C10.7052 40.0893 10.7052 40.3219 10.4558 40.4605C10.212 40.6047 9.81307 40.6047 9.56928 40.4605C9.32549 40.322 9.32549 40.0893 9.56928 39.9453ZM10.9309 38.2474L10.3283 39.536C10.211 39.5172 10.0863 39.5087 9.9622 39.513L9.86384 38.18C10.2227 38.1708 10.5806 38.1939 10.9309 38.2474ZM12.5019 38.7712L10.8684 39.7143C10.7783 39.6619 10.6735 39.624 10.5694 39.5901L11.6344 38.4035C11.9451 38.4982 12.2417 38.62 12.5019 38.7712ZM13.3959 39.6799L11.1705 40.0251C11.1396 39.9577 11.0973 39.8919 11.027 39.8292L12.9705 39.1119C13.1682 39.2901 13.3108 39.4816 13.3959 39.6799ZM13.3933 40.7292L11.1677 40.3864C11.1993 40.3141 11.2161 40.2465 11.2124 40.1719L13.5109 40.1135C13.5245 40.3206 13.4847 40.5284 13.3933 40.7292ZM12.485 41.6404L10.8621 40.6973C10.9519 40.6456 11.0187 40.5852 11.0774 40.5239L13.1225 41.1378C12.9581 41.3179 12.747 41.4892 12.485 41.6404ZM10.3199 40.8758C10.4407 40.8552 10.5542 40.8306 10.6553 40.7901L11.8954 41.9135C11.5868 42.0282 11.2514 42.1099 10.9086 42.1637L10.3199 40.8758ZM9.09753 42.1617L9.70087 40.8737C9.8223 40.8937 9.94215 40.9005 10.0669 40.8956L10.1645 42.2294C9.80569 42.2383 9.44864 42.2158 9.09753 42.1617ZM7.53221 41.6404L9.1649 40.6978C9.25416 40.7498 9.35898 40.7876 9.46394 40.822L8.39794 42.008C8.0873 41.9133 7.79156 41.7914 7.53221 41.6404ZM6.63247 40.7292L8.85875 40.3845C8.8896 40.4519 8.93601 40.519 9.0022 40.5805L7.06204 41.2996C6.86426 41.1214 6.7216 40.9299 6.63247 40.7292ZM6.52238 40.2979C6.50788 40.0909 6.5444 39.8813 6.63511 39.6799L8.86073 40.0276C8.82908 40.0953 8.81392 40.1675 8.81603 40.2373L6.52238 40.2979Z" fill="#3A53D0"/>
<path d="M48.3882 34.0323L34.2791 42.2347C33.6084 42.6218 32.5251 42.6218 31.8545 42.2347L17.6508 34.0323C16.9802 33.6456 16.9716 33.018 17.6422 32.631L31.7514 24.4286C32.422 24.0415 33.514 24.0415 34.1846 24.4286L48.3883 32.631C49.0587 33.018 49.0587 33.6457 48.3882 34.0323Z" fill="#E3E7F0"/>
<path d="M48.8944 33.3395L48.8872 34.0118C48.8872 34.2645 48.7212 34.5171 48.3893 34.7116L34.2828 42.9088C33.6116 43.2984 32.5222 43.2984 31.8438 42.9088L17.6506 34.7116C17.3043 34.5171 17.1455 34.2645 17.1455 34.0048V33.3323C17.1455 33.5849 17.3186 33.8445 17.6506 34.0324L31.8583 42.2365C32.5222 42.6261 33.6116 42.6261 34.2828 42.2365L48.3966 34.0393C48.7284 33.8444 48.8944 33.5918 48.8944 33.3395Z" fill="#9DA9C1"/>
<path d="M46.0367 32.4953L34.0871 39.4423C33.5191 39.7701 32.6015 39.7701 32.0335 39.4423L20.0039 32.4953C19.4359 32.1677 19.4286 31.6363 19.9966 31.3083L31.9462 24.3613C32.5143 24.0335 33.439 24.0335 34.0071 24.3613L46.0367 31.3083C46.6047 31.6363 46.6047 32.1677 46.0367 32.4953Z" fill="#D3DBEA"/>
<path d="M39.1687 31.921L33.063 35.4665L26.8677 31.8953L32.9735 28.3372L39.1687 31.921Z" fill="#4C5671"/>
<path d="M46.466 31.9089L46.4599 33.0275C46.4599 33.2415 46.3194 33.4554 46.0383 33.6202L34.0909 40.5627C33.5225 40.8928 32.5998 40.8928 32.0253 40.5627L20.0045 33.6202C19.7111 33.4555 19.5767 33.2415 19.5767 33.0216V31.9027C19.5767 32.1167 19.7233 32.3366 20.0045 32.4956L32.0375 39.4443C32.5997 39.7743 33.5225 39.7743 34.0909 39.4443L46.0445 32.5017C46.3254 32.3365 46.466 32.1226 46.466 31.9089Z" fill="#9DA9C1"/>
<path d="M33.2843 25.0737C33.4518 24.9766 33.4508 24.8214 33.2826 24.7235C33.1142 24.627 32.8457 24.627 32.6783 24.7242C32.5114 24.8207 32.5122 24.9766 32.6805 25.0737C32.8487 25.1709 33.1173 25.171 33.2843 25.0737Z" fill="#9DA9C1"/>
<path d="M31.7786 25.9485C31.946 25.8514 31.9451 25.6955 31.7769 25.599C31.6085 25.5012 31.3399 25.5012 31.1725 25.599C31.0055 25.6955 31.0063 25.8514 31.1747 25.9485C31.3431 26.0457 31.6117 26.0457 31.7786 25.9485Z" fill="#9DA9C1"/>
<path d="M30.2734 26.8236C30.4403 26.7264 30.4395 26.5712 30.2711 26.4734C30.1028 26.3769 29.8342 26.3769 29.6673 26.4734C29.4998 26.5706 29.5007 26.7264 29.669 26.8236C29.8372 26.9208 30.1059 26.9208 30.2734 26.8236Z" fill="#9DA9C1"/>
<path d="M28.76 27.7037C28.9274 27.6065 28.9348 27.4455 28.7664 27.349C28.598 27.2512 28.3213 27.2563 28.154 27.3535C27.9951 27.4455 27.9878 27.6058 28.1561 27.703C28.3243 27.8002 28.6012 27.7957 28.76 27.7037Z" fill="#9DA9C1"/>
<path d="M27.2536 28.5779C27.4205 28.4808 27.4197 28.3256 27.2514 28.2284C27.083 28.1312 26.8144 28.1312 26.6475 28.2284C26.48 28.3256 26.481 28.4808 26.6492 28.5779C26.8174 28.6751 27.0862 28.6751 27.2536 28.5779Z" fill="#9DA9C1"/>
<path d="M25.7488 29.4528C25.9163 29.3556 25.915 29.2004 25.7466 29.1033C25.5782 29.0061 25.3102 29.0061 25.1427 29.1033C24.9753 29.2004 24.9762 29.3556 25.1444 29.4528C25.3127 29.55 25.5814 29.5501 25.7488 29.4528Z" fill="#9DA9C1"/>
<path d="M24.2429 30.3277C24.4104 30.2305 24.4095 30.0747 24.2412 29.9782C24.0728 29.8803 23.8043 29.8803 23.6368 29.9782C23.4699 30.0747 23.4707 30.2305 23.6391 30.3277C23.8074 30.4249 24.076 30.4249 24.2429 30.3277Z" fill="#9DA9C1"/>
<path d="M22.7377 31.2028C22.9051 31.1056 22.9042 30.9498 22.736 30.8526C22.5676 30.7561 22.299 30.7561 22.1316 30.8532C21.9647 30.9497 21.9654 31.1056 22.1338 31.2028C22.3022 31.2999 22.5706 31.2999 22.7377 31.2028Z" fill="#9DA9C1"/>
<path d="M20.6267 31.7274C20.4592 31.8246 20.46 31.9804 20.6284 32.0776C20.7967 32.1748 21.0653 32.1748 21.2326 32.0776C21.3996 31.9804 21.3988 31.8246 21.2305 31.7274C21.0622 31.6302 20.7936 31.6302 20.6267 31.7274Z" fill="#9DA9C1"/>
<path d="M34.799 25.9486C34.9664 25.8515 34.9656 25.6956 34.7973 25.5984C34.6289 25.5013 34.3603 25.5013 34.193 25.5991C34.0261 25.6956 34.0269 25.8515 34.1951 25.9486C34.3635 26.0458 34.6319 26.0458 34.799 25.9486Z" fill="#9DA9C1"/>
<path d="M33.2936 26.8236C33.461 26.7265 33.4603 26.5706 33.2919 26.4734C33.1235 26.3763 32.8549 26.3763 32.6876 26.4741C32.5207 26.5706 32.5215 26.7265 32.6897 26.8236C32.858 26.9208 33.1267 26.9208 33.2936 26.8236Z" fill="#9DA9C1"/>
<path d="M31.7883 27.6986C31.9552 27.6014 31.9544 27.4456 31.786 27.3484C31.6177 27.2512 31.3491 27.2512 31.1822 27.3484C31.0147 27.4456 31.0156 27.6014 31.1839 27.6986C31.3521 27.7958 31.6208 27.7958 31.7883 27.6986Z" fill="#9DA9C1"/>
<path d="M30.2745 28.5784C30.4419 28.4806 30.4492 28.3202 30.2808 28.2231C30.1124 28.1259 29.8357 28.131 29.6684 28.2282C29.5095 28.3202 29.5022 28.4806 29.6705 28.5777C29.839 28.675 30.1156 28.6706 30.2745 28.5784Z" fill="#9DA9C1"/>
<path d="M28.7697 29.4528C28.9366 29.3556 28.9358 29.2004 28.7676 29.1032C28.5992 29.0061 28.3307 29.0061 28.1636 29.1026C27.9962 29.2004 27.9971 29.3556 28.1653 29.4528C28.3337 29.5501 28.6023 29.5501 28.7697 29.4528Z" fill="#9DA9C1"/>
<path d="M27.264 30.3278C27.4314 30.2306 27.4301 30.0755 27.2617 29.9783C27.0934 29.8811 26.8253 29.8804 26.6579 29.9783C26.4904 30.0755 26.4913 30.2306 26.6596 30.3278C26.8281 30.425 27.0965 30.425 27.264 30.3278Z" fill="#9DA9C1"/>
<path d="M25.7579 31.2026C25.9254 31.1054 25.9245 30.9496 25.7562 30.8524C25.588 30.7552 25.3193 30.7552 25.1518 30.8524C24.9849 30.9496 24.9857 31.1054 25.1541 31.2026C25.3225 31.2998 25.5909 31.2998 25.7579 31.2026Z" fill="#9DA9C1"/>
<path d="M24.2528 32.0775C24.4203 31.9804 24.4193 31.8245 24.2511 31.7273C24.0829 31.6302 23.8142 31.6302 23.6467 31.728C23.4798 31.8245 23.4806 31.9804 23.649 32.0775C23.8173 32.1747 24.0859 32.1747 24.2528 32.0775Z" fill="#9DA9C1"/>
<path d="M22.142 32.6022C21.9745 32.6994 21.9755 32.8552 22.1437 32.9524C22.3119 33.0495 22.5807 33.0495 22.748 32.9524C22.9149 32.8552 22.9141 32.6994 22.7459 32.6022C22.5776 32.505 22.309 32.505 22.142 32.6022Z" fill="#9DA9C1"/>
<path d="M36.3142 26.8237C36.4817 26.7265 36.4809 26.5707 36.3125 26.4735C36.1441 26.3763 35.8756 26.3763 35.7083 26.4735C35.5413 26.5707 35.5421 26.7265 35.7104 26.8237C35.8789 26.9209 36.1473 26.9209 36.3142 26.8237Z" fill="#9DA9C1"/>
<path d="M34.8089 27.6985C34.9763 27.6013 34.9755 27.4455 34.8071 27.3483C34.6388 27.2511 34.3702 27.2511 34.2029 27.349C34.036 27.4455 34.0368 27.6013 34.205 27.6985C34.3732 27.7957 34.6418 27.7957 34.8089 27.6985Z" fill="#9DA9C1"/>
<path d="M25.768 32.9524C25.9354 32.8552 25.9345 32.6994 25.7662 32.6022C25.598 32.505 25.3293 32.505 25.1618 32.6022C24.9949 32.6994 24.9957 32.8552 25.1641 32.9524C25.3325 33.0495 25.601 33.0497 25.768 32.9524Z" fill="#9DA9C1"/>
<path d="M23.6571 33.4773C23.4897 33.5745 23.4906 33.7304 23.6588 33.8275C23.8271 33.9247 24.0958 33.9247 24.2631 33.8269C24.43 33.7304 24.4292 33.5745 24.261 33.4773C24.0928 33.3802 23.8241 33.38 23.6571 33.4773Z" fill="#9DA9C1"/>
<path d="M37.8294 27.6986C37.9968 27.6014 37.9959 27.4456 37.8276 27.3484C37.6593 27.2512 37.3907 27.2512 37.2232 27.3484C37.0563 27.4456 37.0571 27.6014 37.2255 27.6986C37.3939 27.7958 37.6624 27.7958 37.8294 27.6986Z" fill="#9DA9C1"/>
<path d="M36.324 28.5733C36.4915 28.4762 36.4907 28.3203 36.3223 28.2231C36.1539 28.126 35.8853 28.126 35.7179 28.2231C35.551 28.3203 35.5518 28.4762 35.72 28.5733C35.8886 28.6706 36.1571 28.6706 36.324 28.5733Z" fill="#9DA9C1"/>
<path d="M27.2836 33.8274C27.451 33.7302 27.4501 33.5744 27.2819 33.4772C27.1136 33.38 26.8449 33.38 26.6775 33.4772C26.5106 33.5744 26.5113 33.7302 26.6797 33.8274C26.8481 33.9245 27.1165 33.9245 27.2836 33.8274Z" fill="#9DA9C1"/>
<path d="M25.1719 34.3522C25.0045 34.4494 25.0054 34.6052 25.1736 34.7024C25.342 34.7989 25.6106 34.7989 25.778 34.7018C25.9449 34.6052 25.9441 34.4494 25.7758 34.3522C25.6074 34.2551 25.3388 34.2549 25.1719 34.3522Z" fill="#9DA9C1"/>
<path d="M39.3451 28.5735C39.5126 28.4763 39.5116 28.3204 39.3434 28.2233C39.1752 28.1261 38.9064 28.1261 38.739 28.2233C38.5721 28.3204 38.5729 28.4756 38.7412 28.5735C38.9096 28.6701 39.1782 28.6701 39.3451 28.5735Z" fill="#9DA9C1"/>
<path d="M37.8396 29.4483C38.0071 29.3512 38.0061 29.1953 37.8379 29.0981C37.6697 29.001 37.401 29.001 37.2335 29.0981C37.0666 29.1953 37.0674 29.3512 37.2357 29.4477C37.4041 29.5455 37.6727 29.5455 37.8396 29.4483Z" fill="#9DA9C1"/>
<path d="M28.7981 34.7025C28.9656 34.6047 28.9646 34.4495 28.7964 34.3523C28.6282 34.2551 28.3594 34.2551 28.192 34.3523C28.0251 34.4495 28.0259 34.6047 28.1942 34.7025C28.3626 34.799 28.6312 34.799 28.7981 34.7025Z" fill="#9DA9C1"/>
<path d="M26.687 35.2271C26.5196 35.3242 26.5205 35.4801 26.6888 35.5766C26.8571 35.6744 27.1257 35.6738 27.2932 35.5766C27.4601 35.4801 27.4593 35.3242 27.2909 35.2271C27.1225 35.1299 26.8541 35.1299 26.687 35.2271Z" fill="#9DA9C1"/>
<path d="M40.8602 29.4481C41.0277 29.3509 41.0268 29.1951 40.8585 29.0979C40.6903 29.0007 40.4216 29.0007 40.2541 29.0979C40.0872 29.1951 40.088 29.3503 40.2564 29.4474C40.4247 29.5446 40.6932 29.5447 40.8602 29.4481Z" fill="#9DA9C1"/>
<path d="M39.3549 30.3233C39.5223 30.2255 39.5214 30.0703 39.3532 29.9731C39.1849 29.876 38.9162 29.876 38.7488 29.9731C38.5818 30.0703 38.5826 30.2255 38.751 30.3227C38.9194 30.4199 39.188 30.4199 39.3549 30.3233Z" fill="#9DA9C1"/>
<path d="M30.3145 35.5768C30.4819 35.4797 30.4811 35.3245 30.3128 35.2273C30.1444 35.1301 29.8758 35.1301 29.7085 35.2273C29.5416 35.3245 29.5424 35.4797 29.7106 35.5768C29.8788 35.674 30.1476 35.674 30.3145 35.5768Z" fill="#9DA9C1"/>
<path d="M28.2027 36.1019C28.0352 36.1991 28.0361 36.3543 28.2044 36.4515C28.3726 36.5486 28.6413 36.5486 28.8088 36.4515C28.9757 36.3543 28.9749 36.1991 28.8065 36.1019C28.6382 36.0048 28.3697 36.0048 28.2027 36.1019Z" fill="#9DA9C1"/>
<path d="M42.3751 30.3233C42.5426 30.2255 42.5417 30.0703 42.3734 29.9731C42.2052 29.876 41.9365 29.876 41.7692 29.9731C41.6022 30.0703 41.603 30.2255 41.7713 30.3227C41.9395 30.4199 42.2082 30.4199 42.3751 30.3233Z" fill="#9DA9C1"/>
<path d="M40.8703 31.1976C41.0377 31.1004 41.0368 30.9452 40.8685 30.848C40.7003 30.7509 40.4316 30.7509 40.2641 30.848C40.0972 30.9452 40.098 31.1004 40.2664 31.1976C40.4348 31.2947 40.7032 31.2947 40.8703 31.1976Z" fill="#9DA9C1"/>
<path d="M31.8294 36.4515C31.9968 36.3543 31.996 36.1991 31.8277 36.1019C31.6593 36.0048 31.3908 36.0048 31.2234 36.1019C31.0565 36.1991 31.0573 36.3543 31.2255 36.4515C31.3939 36.5488 31.6623 36.5488 31.8294 36.4515Z" fill="#9DA9C1"/>
<path d="M29.7184 36.9763C29.551 37.0742 29.5519 37.2294 29.7201 37.3265C29.8885 37.4237 30.1571 37.4237 30.3245 37.3265C30.4914 37.2294 30.4907 37.0742 30.3223 36.977C30.1539 36.8797 29.8853 36.8797 29.7184 36.9763Z" fill="#9DA9C1"/>
<path d="M43.8992 31.2026C44.0666 31.1054 44.0573 30.9451 43.8889 30.8479C43.729 30.7553 43.452 30.7508 43.2846 30.8479C43.1177 30.9451 43.1268 31.1054 43.2867 31.1975C43.4551 31.2947 43.7321 31.2998 43.8992 31.2026Z" fill="#9DA9C1"/>
<path d="M42.3938 32.0776C42.5612 31.9804 42.5518 31.8201 42.3835 31.7229C42.2235 31.6303 41.9465 31.6258 41.7791 31.7229C41.6122 31.8195 41.6214 31.9804 41.7813 32.0725C41.9498 32.1697 42.2268 32.1748 42.3938 32.0776Z" fill="#9DA9C1"/>
<path d="M40.8884 32.9525C41.0553 32.8553 41.046 32.695 40.8777 32.5978C40.7177 32.5051 40.4407 32.5006 40.2738 32.5971C40.1064 32.695 40.1156 32.8553 40.2755 32.9473C40.4439 33.0446 40.7209 33.0498 40.8884 32.9525Z" fill="#9DA9C1"/>
<path d="M39.3745 33.8319C39.5419 33.7348 39.5409 33.57 39.3725 33.4727C39.2126 33.38 38.9274 33.38 38.7601 33.4771C38.6012 33.5692 38.6024 33.7346 38.7622 33.8267C38.9305 33.9246 39.2156 33.9246 39.3745 33.8319Z" fill="#9DA9C1"/>
<path d="M37.8693 34.7069C38.0362 34.6097 38.027 34.4494 37.8586 34.3522C37.6986 34.2595 37.4216 34.255 37.2547 34.3522C37.0873 34.4494 37.0966 34.6097 37.2564 34.7024C37.4249 34.7989 37.7019 34.8041 37.8693 34.7069Z" fill="#9DA9C1"/>
<path d="M36.3634 35.5819C36.5309 35.4847 36.5211 35.3244 36.3528 35.2272C36.1928 35.1352 35.9163 35.13 35.7489 35.2272C35.5814 35.3244 35.5907 35.4847 35.7506 35.5767C35.9191 35.6746 36.196 35.6791 36.3634 35.5819Z" fill="#9DA9C1"/>
<path d="M34.8586 36.4568C35.0261 36.3596 35.0168 36.1986 34.8485 36.1021C34.6885 36.0094 34.4115 36.0049 34.2441 36.1021C34.0771 36.1986 34.0864 36.3596 34.2462 36.4516C34.4147 36.5489 34.6916 36.5541 34.8586 36.4568Z" fill="#9DA9C1"/>
<path d="M33.3532 37.3317C33.5207 37.2346 33.5115 37.0742 33.343 36.9764C33.183 36.8844 32.9061 36.8799 32.7387 36.9771C32.5718 37.0742 32.581 37.2346 32.7408 37.3266C32.9093 37.4238 33.1863 37.4289 33.3532 37.3317Z" fill="#9DA9C1"/>
<path d="M31.2338 37.8511C31.0663 37.9483 31.0755 38.1093 31.2355 38.2013C31.4038 38.2985 31.6809 38.3037 31.8483 38.2058C32.0152 38.1093 32.006 37.9483 31.8376 37.8517C31.6776 37.759 31.4007 37.7545 31.2338 37.8511Z" fill="#9DA9C1"/>
<path d="M45.4124 31.7274C45.244 31.6302 44.967 31.6257 44.7997 31.7229C44.6328 31.8194 44.642 31.9804 44.8104 32.0776C44.9703 32.1696 45.2473 32.1747 45.4143 32.0776C45.5816 31.9804 45.5723 31.8195 45.4124 31.7274Z" fill="#9DA9C1"/>
<path d="M43.2949 32.5979C43.1279 32.6944 43.137 32.8554 43.3056 32.9526C43.4655 33.0446 43.7425 33.0491 43.9094 32.9526C44.0769 32.8554 44.0675 32.6951 43.9077 32.6024C43.7392 32.5052 43.4622 32.5007 43.2949 32.5979Z" fill="#9DA9C1"/>
<path d="M41.7898 33.4722C41.6223 33.5694 41.6315 33.7304 41.8001 33.8275C41.96 33.9196 42.237 33.9247 42.4043 33.8269C42.5712 33.7304 42.562 33.5694 42.4022 33.4773C42.2337 33.38 41.9568 33.3749 41.7898 33.4722Z" fill="#9DA9C1"/>
<path d="M40.2757 34.3522C40.1169 34.4442 40.1181 34.6097 40.2864 34.7068C40.4464 34.7989 40.7314 34.7989 40.8903 34.7068C41.0577 34.6097 41.0567 34.4448 40.8968 34.3522C40.7283 34.2548 40.4431 34.2548 40.2757 34.3522Z" fill="#9DA9C1"/>
<path d="M38.7695 35.2269C38.602 35.3241 38.6114 35.4844 38.7797 35.5816C38.9397 35.6736 39.2167 35.6788 39.384 35.5816C39.5509 35.4844 39.5418 35.3241 39.3819 35.2314C39.2134 35.1342 38.9365 35.1298 38.7695 35.2269Z" fill="#9DA9C1"/>
<path d="M37.2643 36.1021C37.0969 36.1992 37.1062 36.3596 37.2746 36.4567C37.4345 36.5488 37.7116 36.5539 37.8789 36.4567C38.0463 36.3596 38.0366 36.1992 37.8768 36.1065C37.7083 36.0094 37.4318 36.0042 37.2643 36.1021Z" fill="#9DA9C1"/>
<path d="M35.7587 36.9771C35.5918 37.0736 35.601 37.2339 35.7694 37.3318C35.9293 37.4238 36.2063 37.4283 36.3732 37.3318C36.5407 37.2346 36.5315 37.0736 36.3715 36.9816C36.2032 36.8844 35.9261 36.8798 35.7587 36.9771Z" fill="#9DA9C1"/>
<path d="M34.2538 37.8518C34.0869 37.9483 34.0961 38.1093 34.2645 38.2059C34.4244 38.2986 34.7014 38.3038 34.8684 38.2066C35.0358 38.1094 35.0266 37.9484 34.8666 37.8564C34.6981 37.7591 34.4213 37.754 34.2538 37.8518Z" fill="#9DA9C1"/>
<path d="M32.7489 38.7261C32.5814 38.8233 32.5907 38.9836 32.759 39.0814C32.919 39.1735 33.196 39.178 33.3634 39.0808C33.5304 38.9843 33.5211 38.8233 33.3612 38.7313C33.1928 38.6341 32.9158 38.6296 32.7489 38.7261Z" fill="#9DA9C1"/>
</svg>
