<svg width="66" height="66" viewBox="0 0 66 66" fill="none" xmlns="http://www.w3.org/2000/svg">
<path d="M57.4552 45.7057L57.44 50.4722C57.44 50.9251 57.153 51.3633 56.5638 51.7108L35.2455 64.0847C34.067 64.7797 32.1634 64.7797 30.9848 64.0847L9.51521 51.6961C8.92598 51.3487 8.62378 50.9104 8.62378 50.4567L8.63894 45.6755C8.63894 46.1284 8.94114 46.5814 9.53024 46.9296L30.9998 59.3184C32.1783 59.9986 34.0819 59.9986 35.2605 59.3184L56.5788 46.9296C57.168 46.5813 57.4552 46.1438 57.4552 45.7057Z" fill="#3A53D0"/>
<path d="M56.5631 44.4561C57.7496 45.1412 57.7557 46.244 56.5769 46.9289L35.2627 59.3154C34.084 60.0004 32.1801 60.0005 30.9935 59.3154L9.53033 46.9237C8.35344 46.2442 8.33775 45.1358 9.51648 44.4508L30.8307 32.0643C32.0094 31.3793 33.923 31.3848 35.0999 32.0643L56.5631 44.4561Z" fill="#5793FB"/>
<path d="M56.6314 49.2948L35.1928 61.7384C34.0479 62.4135 32.1847 62.414 31.0379 61.7379L9.45038 49.281C8.9512 48.9859 8.67075 48.6163 8.63186 48.2324L8.63173 48.2579C8.62975 48.7605 8.88039 49.2397 9.31259 49.4961C9.31563 49.4978 9.31853 49.4997 9.32156 49.5014L30.9091 61.9583C31.5175 62.3175 32.3167 62.4968 33.1159 62.4968C33.9151 62.4968 34.7143 62.3175 35.3217 61.9588L56.7604 49.5158C56.7634 49.5141 56.7663 49.5124 56.7692 49.5105C57.1971 49.2563 57.4461 48.7828 57.448 48.2852L57.4485 48.1617C57.4476 48.5885 57.1652 48.9803 56.6314 49.2948Z" fill="#7BB1FF"/>
<path d="M55.7721 49.6248C55.6777 49.5712 55.5616 49.5801 55.4383 49.6501C55.2128 49.7808 55.0369 50.0852 55.0378 50.3435C55.0389 50.4832 55.0905 50.5889 55.1829 50.6426C55.2236 50.6654 55.2683 50.6769 55.316 50.6769C55.3796 50.6769 55.4482 50.6569 55.5167 50.6167C55.7422 50.4866 55.9181 50.182 55.9171 49.9237C55.9161 49.7842 55.8645 49.678 55.7721 49.6248Z" fill="#7BB1FF"/>
<path d="M53.844 50.571C53.6186 50.7007 53.4427 51.0058 53.4436 51.2641C53.4436 51.4032 53.4953 51.5094 53.5886 51.5631C53.6283 51.5864 53.673 51.5979 53.7218 51.5979C53.7844 51.5979 53.853 51.578 53.9216 51.5378C54.147 51.4086 54.3229 51.1041 54.3229 50.8448C54.3219 50.7051 54.2703 50.5989 54.1768 50.5452C54.0854 50.4915 53.9643 50.501 53.844 50.571Z" fill="#7BB1FF"/>
<path d="M52.2491 51.492C52.0236 51.6222 51.8477 51.9267 51.8486 52.1854C51.8497 52.3245 51.9012 52.4308 51.9937 52.4845C52.0344 52.5073 52.0791 52.5188 52.1268 52.5188C52.1904 52.5188 52.2589 52.4988 52.3275 52.4586C52.553 52.3285 52.7289 52.0239 52.7279 51.7656C52.7269 51.626 52.6753 51.5197 52.5829 51.4666C52.4885 51.4125 52.3713 51.4219 52.2491 51.492Z" fill="#7BB1FF"/>
<path d="M50.6542 52.413C50.4287 52.5427 50.2528 52.8467 50.2528 53.1064C50.2539 53.2455 50.3054 53.3518 50.3989 53.4055C50.4386 53.4283 50.4833 53.4398 50.531 53.4398C50.5946 53.4398 50.6631 53.4199 50.7317 53.3796C50.9552 53.251 51.1301 52.9474 51.1291 52.6882C51.128 52.5477 51.0765 52.4409 50.983 52.3872C50.8907 52.3341 50.7735 52.3434 50.6542 52.413Z" fill="#7BB1FF"/>
<path d="M49.0549 53.3358C48.8303 53.4645 48.6564 53.7685 48.6575 54.0268C48.6575 54.1674 48.7092 54.2742 48.8025 54.3278C48.8422 54.3506 48.8869 54.3626 48.9337 54.3621C48.9963 54.3621 49.0638 54.3422 49.1324 54.3025C49.3579 54.1729 49.5337 53.8683 49.5328 53.6095C49.5328 53.4704 49.4811 53.3641 49.3878 53.3105C49.2952 53.2563 49.175 53.2658 49.0549 53.3358Z" fill="#7BB1FF"/>
<path d="M47.4604 54.2569C47.2349 54.387 47.059 54.6916 47.0599 54.9503C47.061 55.0894 47.1125 55.1957 47.205 55.2488C47.2457 55.2721 47.2904 55.2836 47.3381 55.2836C47.4017 55.2836 47.4703 55.2637 47.5388 55.2235C47.7643 55.0928 47.9402 54.7888 47.9392 54.5301C47.9382 54.391 47.8866 54.2847 47.7942 54.231C47.6989 54.1774 47.5826 54.1867 47.4604 54.2569Z" fill="#7BB1FF"/>
<path d="M45.8662 55.1779C45.6407 55.3072 45.4648 55.6116 45.4648 55.8713C45.4659 56.0104 45.5174 56.1167 45.6099 56.1699C45.6506 56.1932 45.6953 56.2047 45.743 56.2047C45.8066 56.2047 45.8742 56.1848 45.9437 56.1445C46.1692 56.0149 46.3451 55.7104 46.3441 55.4515C46.3441 55.3124 46.2925 55.2062 46.1991 55.1525C46.1066 55.0984 45.9863 55.1078 45.8662 55.1779Z" fill="#7BB1FF"/>
<path d="M44.2692 56.0983C44.0437 56.229 43.8679 56.5334 43.8688 56.7917C43.8688 56.9308 43.9205 57.0371 44.0138 57.0907C44.0535 57.1141 44.0982 57.1256 44.1459 57.1256C44.2095 57.1256 44.278 57.1056 44.3466 57.0654C44.5721 56.9358 44.748 56.6318 44.748 56.372C44.7469 56.2324 44.6953 56.1267 44.6029 56.073C44.5086 56.0193 44.3925 56.0287 44.2692 56.0983Z" fill="#7BB1FF"/>
<path d="M42.6745 57.0192C42.449 57.1498 42.2731 57.4543 42.2741 57.7131C42.2751 57.8522 42.3267 57.9584 42.4191 58.0116C42.4598 58.0349 42.5045 58.0464 42.5523 58.0464C42.6158 58.0464 42.6844 58.0261 42.7529 57.9863C42.9784 57.8556 43.1543 57.5512 43.1534 57.2933C43.1534 57.1542 43.1017 57.0479 43.0092 56.9942C42.9159 56.9407 42.7967 56.9486 42.6745 57.0192Z" fill="#7BB1FF"/>
<path d="M41.0795 57.9404C40.854 58.0705 40.6782 58.3751 40.6791 58.6338C40.6791 58.7729 40.7308 58.8791 40.8241 58.9328C40.8638 58.9561 40.9085 58.9676 40.9562 58.9676C41.0198 58.9676 41.0883 58.9477 41.1569 58.9075C41.3824 58.7779 41.5583 58.4733 41.5583 58.2141C41.5572 58.0744 41.5056 57.9687 41.4122 57.915C41.32 57.8614 41.2008 57.8707 41.0795 57.9404Z" fill="#7BB1FF"/>
<path d="M39.4838 58.8612C39.2583 58.9919 39.0825 59.2963 39.0834 59.5546C39.0844 59.6943 39.136 59.8 39.2284 59.8537C39.2692 59.877 39.3139 59.8885 39.3616 59.8885C39.4251 59.8885 39.4937 59.8682 39.5623 59.8284C39.7848 59.6997 39.9596 59.3956 39.9596 59.1369C39.9586 58.9964 39.907 58.8896 39.8146 58.8359C39.7222 58.7832 39.605 58.7912 39.4838 58.8612Z" fill="#7BB1FF"/>
<path d="M37.8896 59.7823C37.6642 59.9119 37.4883 60.2165 37.4883 60.4757C37.4893 60.6153 37.5409 60.7211 37.6344 60.7747C37.6741 60.7981 37.7198 60.8096 37.7675 60.8096C37.8302 60.8096 37.8987 60.7896 37.9673 60.7494C38.1908 60.6207 38.3657 60.3167 38.3647 60.058C38.3636 59.9175 38.3121 59.8101 38.2186 59.757C38.1271 59.7039 38.0099 59.7132 37.8896 59.7823Z" fill="#7BB1FF"/>
<path d="M36.2909 60.7052C36.0654 60.8348 35.8895 61.1394 35.8895 61.3986C35.8906 61.5382 35.9421 61.644 36.0356 61.6976C36.0753 61.721 36.12 61.7324 36.1677 61.7324C36.2313 61.7324 36.2998 61.7121 36.3684 61.6718C36.5939 61.5426 36.7698 61.2381 36.7698 60.9788C36.7687 60.8392 36.7171 60.7329 36.6237 60.6798C36.5323 60.6268 36.4131 60.6341 36.2909 60.7052Z" fill="#7BB1FF"/>
<path d="M10.3812 49.6253C10.4756 49.5716 10.5918 49.5806 10.7151 49.6506C10.9405 49.7813 11.1164 50.0857 11.1155 50.344C11.1145 50.4837 11.0629 50.5894 10.9705 50.6431C10.9297 50.6659 10.885 50.6773 10.8373 50.6773C10.7738 50.6773 10.7052 50.6574 10.6366 50.6172C10.4112 50.4871 10.2353 50.1825 10.2362 49.9242C10.2373 49.7847 10.2889 49.6784 10.3812 49.6253Z" fill="#7BB1FF"/>
<path d="M12.3096 50.571C12.535 50.7007 12.7109 51.0058 12.71 51.2641C12.71 51.4032 12.6583 51.5094 12.565 51.5631C12.5253 51.5864 12.4806 51.5979 12.4318 51.5979C12.3692 51.5979 12.3006 51.578 12.232 51.5378C12.0066 51.4086 11.8307 51.1041 11.8307 50.8448C11.8317 50.7051 11.8833 50.5989 11.9768 50.5452C12.0681 50.4915 12.1893 50.501 12.3096 50.571Z" fill="#7BB1FF"/>
<path d="M13.9054 51.4919C14.1309 51.622 14.3067 51.9266 14.3058 52.1853C14.3048 52.3244 14.2532 52.4307 14.1608 52.4843C14.12 52.5072 14.0753 52.5186 14.0276 52.5186C13.9641 52.5186 13.8955 52.4987 13.8269 52.4585C13.6015 52.3284 13.4256 52.0238 13.4265 51.7655C13.4276 51.6259 13.4791 51.5196 13.5716 51.4665C13.666 51.4124 13.7832 51.4218 13.9054 51.4919Z" fill="#7BB1FF"/>
<path d="M15.4996 52.4129C15.725 52.5425 15.9009 52.8465 15.9009 53.1063C15.8999 53.2454 15.8483 53.3516 15.7548 53.4053C15.7152 53.4281 15.6705 53.4396 15.6227 53.4396C15.5592 53.4396 15.4906 53.4197 15.4221 53.3795C15.1986 53.2508 15.0236 52.9473 15.0247 52.688C15.0257 52.5475 15.0773 52.4407 15.1708 52.387C15.2632 52.3339 15.3804 52.3432 15.4996 52.4129Z" fill="#7BB1FF"/>
<path d="M17.098 53.3358C17.3225 53.4645 17.4964 53.7685 17.4953 54.0268C17.4953 54.1674 17.4437 54.2742 17.3503 54.3278C17.3106 54.3506 17.2659 54.3626 17.2191 54.3621C17.1565 54.3621 17.089 54.3422 17.0204 54.3025C16.795 54.1729 16.6191 53.8683 16.62 53.6095C16.62 53.4704 16.6717 53.3641 16.765 53.3105C16.8575 53.2563 16.9777 53.2658 17.098 53.3358Z" fill="#7BB1FF"/>
<path d="M18.6931 54.2565C18.9186 54.3867 19.0945 54.6912 19.0935 54.9499C19.0925 55.089 19.0409 55.1953 18.9485 55.2484C18.9078 55.2718 18.8631 55.2832 18.8153 55.2832C18.7518 55.2832 18.6832 55.2633 18.6147 55.2231C18.3892 55.0924 18.2133 54.7884 18.2142 54.5297C18.2153 54.3906 18.2668 54.2843 18.3593 54.2307C18.4547 54.177 18.5709 54.1864 18.6931 54.2565Z" fill="#7BB1FF"/>
<path d="M20.2879 55.1778C20.5134 55.307 20.6892 55.6115 20.6892 55.8712C20.6882 56.0103 20.6366 56.1166 20.5442 56.1697C20.5035 56.1931 20.4588 56.2045 20.411 56.2045C20.3475 56.2045 20.2799 56.1846 20.2104 56.1444C19.9849 56.0148 19.809 55.7102 19.8099 55.4514C19.8099 55.3123 19.8616 55.206 19.955 55.1524C20.0474 55.0983 20.1676 55.1077 20.2879 55.1778Z" fill="#7BB1FF"/>
<path d="M21.8833 56.0981C22.1087 56.2287 22.2846 56.5332 22.2837 56.7915C22.2837 56.9306 22.232 57.0368 22.1387 57.0905C22.099 57.1138 22.0543 57.1253 22.0066 57.1253C21.943 57.1253 21.8745 57.1054 21.8059 57.0652C21.5804 56.9356 21.4045 56.6315 21.4045 56.3718C21.4056 56.2322 21.4571 56.1264 21.5496 56.0728C21.6438 56.0191 21.7601 56.0285 21.8833 56.0981Z" fill="#7BB1FF"/>
<path d="M23.479 57.0188C23.7045 57.1494 23.8804 57.4539 23.8794 57.7127C23.8784 57.8518 23.8268 57.9581 23.7344 58.0112C23.6937 58.0346 23.649 58.046 23.6012 58.046C23.5377 58.046 23.4691 58.0257 23.4006 57.9859C23.1751 57.8552 22.9992 57.5508 23.0001 57.2929C23.0001 57.1538 23.0518 57.0475 23.1442 56.9939C23.2376 56.9403 23.3569 56.9482 23.479 57.0188Z" fill="#7BB1FF"/>
<path d="M25.0737 57.9404C25.2992 58.0706 25.4751 58.3751 25.4741 58.6338C25.4741 58.7729 25.4225 58.8792 25.3291 58.9329C25.2894 58.9562 25.2447 58.9677 25.197 58.9677C25.1334 58.9677 25.0649 58.9477 24.9963 58.9075C24.7709 58.7779 24.595 58.4734 24.595 58.2141C24.596 58.0745 24.6476 57.9688 24.7411 57.9151C24.8334 57.8614 24.9525 57.8708 25.0737 57.9404Z" fill="#7BB1FF"/>
<path d="M26.669 58.8612C26.8944 58.9918 27.0703 59.2963 27.0694 59.5546C27.0683 59.6942 27.0168 59.7999 26.9244 59.8536C26.8836 59.8769 26.8389 59.8884 26.7912 59.8884C26.7276 59.8884 26.6591 59.8681 26.5905 59.8283C26.3679 59.6996 26.1931 59.3956 26.1931 59.1369C26.1942 58.9963 26.2457 58.8895 26.3381 58.8359C26.4306 58.7831 26.5478 58.7912 26.669 58.8612Z" fill="#7BB1FF"/>
<path d="M28.264 59.7818C28.4895 59.9114 28.6653 60.2159 28.6653 60.4752C28.6643 60.6148 28.6127 60.7205 28.5193 60.7742C28.4796 60.7975 28.4338 60.809 28.3861 60.809C28.3235 60.809 28.2549 60.7891 28.1863 60.7489C27.9629 60.6202 27.7879 60.3161 27.7889 60.0575C27.79 59.9169 27.8416 59.8096 27.935 59.7564C28.0265 59.7033 28.1438 59.7127 28.264 59.7818Z" fill="#7BB1FF"/>
<path d="M29.8629 60.7053C30.0884 60.8349 30.2643 61.1394 30.2643 61.3987C30.2632 61.5383 30.2117 61.644 30.1182 61.6977C30.0785 61.721 30.0338 61.7325 29.9861 61.7325C29.9225 61.7325 29.8539 61.7122 29.7854 61.6719C29.5599 61.5426 29.384 61.2382 29.384 60.9789C29.3851 60.8392 29.4366 60.733 29.5301 60.6798C29.6215 60.6268 29.7407 60.6342 29.8629 60.7053Z" fill="#7BB1FF"/>
<path d="M53.0536 44.4593C54.0632 45.0422 54.0685 45.9806 53.0653 46.5635L34.9287 57.1035C33.9257 57.6864 32.3057 57.6864 31.296 57.1035L13.0327 46.559C12.0314 45.9809 12.0179 45.0377 13.0209 44.4548L31.1575 33.9149C32.1605 33.332 33.7889 33.3367 34.7902 33.9149L53.0536 44.4593Z" fill="white"/>
<path d="M50.568 39.4731C51.4523 39.9836 51.4568 40.8054 50.5783 41.3159L34.6938 50.5472C33.8152 51.0577 32.3964 51.0577 31.5121 50.5472L15.5164 41.312C14.6394 40.8056 14.6276 39.9795 15.5061 39.4691L31.3908 30.2379C32.2693 29.7274 33.6954 29.7315 34.5725 30.2379L50.568 39.4731Z" fill="#7BB1FF"/>
<path d="M51.2351 40.4044L51.2239 45.5053C51.2239 45.8428 51.0099 46.1694 50.5709 46.4283L34.6832 55.6502C33.8049 56.1681 32.3862 56.1681 31.5078 55.6502L15.5075 46.4174C15.0683 46.1584 14.8431 45.8318 14.8431 45.4938L14.8543 40.3818C14.8543 40.7194 15.0795 41.057 15.5186 41.3165L31.519 50.5493C32.3973 51.0563 33.816 51.0563 34.6944 50.5493L50.5821 41.3165C51.0211 41.057 51.2351 40.731 51.2351 40.4044Z" fill="#3A53D0"/>
<path d="M39.8007 36.0334C43.5551 38.201 43.5751 41.7167 39.8448 43.8845C36.1151 46.052 30.045 46.0522 26.2906 43.8845C22.5362 41.7169 22.5167 38.2008 26.2464 36.0334C29.9766 33.8656 36.0463 33.8657 39.8007 36.0334Z" fill="white"/>
<path d="M33.0355 28.3266C40.1418 28.3266 45.9027 22.5658 45.9027 15.4594C45.9027 8.35302 40.1418 2.59216 33.0355 2.59216C25.9292 2.59216 20.1683 8.35302 20.1683 15.4594C20.1683 22.5658 25.9292 28.3266 33.0355 28.3266Z" fill="#7BB1FF"/>
<path d="M41.2946 8.55587C41.2449 8.74455 41.2421 8.90725 41.2456 9.07022C41.2555 9.5429 40.7928 9.13681 40.4921 9.44125C40.0066 9.93357 39.8002 10.1175 39.5281 10.1469C39.3316 10.168 39.2245 10.288 39.3556 10.4068C39.494 10.5322 39.4973 10.6519 39.4903 10.8025C39.4766 11.0989 39.4768 11.3057 38.7286 11.2779C38.3308 11.2634 38.5797 11.2738 38.4193 12.209C38.5818 12.2798 38.7118 12.3367 38.8679 12.4047C39.0548 12.2994 39.264 12.3065 39.4466 12.4923C39.6311 12.2693 39.2699 12.3201 40.3502 11.2526C40.5175 11.0873 41.2499 11.2616 41.5385 11.3764C42.0984 11.5995 41.9773 11.5286 42.2393 12.1493C42.46 12.1324 42.599 11.6053 42.2682 11.4572C42.0328 11.3519 41.844 11.2076 41.8422 10.945C42.2664 11.0354 41.8779 11.364 42.561 11.3986C42.9239 11.417 42.8936 11.5599 43.217 12.3462C43.6704 12.1438 43.4543 12.0777 43.6467 11.6942C44.2415 11.9422 43.8303 12.4188 44.4172 12.4226C45.3276 12.4283 45.6173 12.1588 45.2306 13.1181C45.1603 13.293 45.0056 13.366 44.7869 13.3859C43.1815 13.5322 42.9451 12.7012 42.8086 13.4384C42.7513 13.7489 42.4587 13.4118 42.3269 13.3532C41.1001 12.8103 41.1874 13.1775 41.4924 12.3253C41.0172 12.3604 38.8888 12.4151 38.7659 13.0959C38.14 12.9933 38.3035 13.3651 38.1749 13.4971C38.0315 13.644 37.8381 13.7684 37.8862 13.9965C37.8919 14.0234 37.83 14.0829 37.7901 14.0897C37.5779 14.1269 37.5403 14.2764 37.4566 14.407C37.4188 14.4659 36.9656 14.8964 36.9917 14.9513C37.2706 15.5352 36.5421 16.1637 37.2691 16.7494C37.5276 16.9577 37.9056 18.1681 39.8808 17.6137C40.6579 17.3952 40.2037 17.7301 40.8429 17.7929C40.9306 17.8015 41.0768 17.863 41.0813 17.9089C41.0976 18.0746 41.1276 18.2737 41.0373 18.4048C40.7095 18.8796 41.5654 19.3263 41.5234 19.9288C41.3524 22.3749 42.1188 22.8761 42.4865 24.1872C44.4721 22.0383 45.7348 19.2121 45.8861 16.0931C45.489 15.5244 45.5207 15.3672 45.298 14.7949C44.9536 13.9091 45.0082 14.2014 45.0592 13.919C45.7673 14.0539 45.2601 14.3168 45.6923 14.8387C45.7561 14.9158 45.831 14.9874 45.8923 15.0649C45.8172 12.5736 45.0366 10.2602 43.7396 8.31934C43.6074 8.37484 42.5656 9.94241 41.2946 8.55587Z" fill="#5793FB"/>
<path d="M34.3604 20.0027C34.3215 20.0733 34.2828 20.1826 34.2121 20.2004C33.5571 20.3763 33.9686 21.2125 33.4352 21.5809C33.3822 21.6199 33.3258 21.6869 33.2692 21.6869C32.9231 21.6869 32.8173 21.9729 32.57 22.0895C32.3609 22.1868 32.747 22.7656 31.9663 23.1663C31.6571 23.3211 31.8401 23.8332 30.9777 23.5476C30.9495 23.5651 30.9177 23.5794 30.8895 23.5935C30.9671 23.7135 31.0237 23.8475 31.1296 23.9466C31.4166 24.1997 30.8795 24.5049 30.4693 24.4762C30.3485 24.6086 30.0901 24.7596 29.6713 25.7579C29.6396 25.832 29.7879 25.9593 29.862 26.0792C29.8479 26.2327 29.1877 26.0683 29.8302 27.5411C29.5897 27.5233 29.6319 27.6141 28.6649 27.0361C28.4488 26.9099 28.47 26.9206 28.559 24.0876C28.559 23.9418 28.7508 23.6354 28.7603 23.4768C28.9528 21.06 29.0878 20.7554 28.5237 20.5496C27.5338 20.1911 27.9557 19.4722 27.6551 19.1301C26.7004 18.0483 28.392 17.5913 27.927 16.8703C27.9164 16.8528 27.9164 16.8279 27.927 16.7996C27.7045 16.8103 27.5244 16.8209 27.4785 16.8421C27.0548 16.6727 26.6594 16.4819 26.4121 16.1288C26.2396 15.8843 26.114 16.0813 25.54 15.6098C25.4292 15.5148 23.7948 15.6552 23.4391 14.494C23.3366 14.1587 23.1425 13.8797 22.9024 13.6113C22.6468 13.3191 22.6874 13.0784 22.3057 13.0038C22.5352 13.417 22.7682 13.8301 22.9978 14.2469C22.9624 14.268 22.9271 14.2928 22.8919 14.3174C22.343 13.9512 22.1528 13.0167 21.6843 12.6507C21.2359 12.3083 20.9499 11.7999 20.8651 11.2808C21.7089 8.82326 23.2696 6.70127 25.3036 5.17234C25.3036 5.17576 25.3 5.17945 25.2964 5.18288C25.2258 5.26067 25.2188 5.38422 25.187 5.49009C25.5204 5.51119 25.7438 5.56788 25.7838 5.44764C25.9285 5.07701 26.3769 4.99922 26.6911 4.79089C27.0337 5.09112 27.0337 5.09112 26.963 5.39121C27.083 5.36642 27.1926 5.35218 27.2984 5.32396C27.8137 5.17932 27.7904 6.12337 26.6983 6.47514C25.7859 6.7751 25.8514 7.65111 25.9921 7.6792C26.2991 7.75422 25.9641 8.13144 26.5253 8.10982C27.075 8.08819 26.6764 8.37154 27.2386 8.40648C27.5493 8.41703 27.5811 8.43826 27.5599 8.70301C27.5387 8.97132 27.8105 9.02789 28.0683 9.16198C28.1428 8.58263 28.1424 8.39211 28.2872 8.24747C28.4178 8.11338 28.5096 7.98258 28.4391 7.80261C28.4002 7.70306 28.4604 7.21693 28.4285 7.06108C28.3967 6.91262 28.4567 6.86674 28.6051 6.85263C29.0988 6.79923 29.0246 6.88019 29.8939 7.35405C29.8762 7.50252 29.8586 7.66126 29.8373 7.8237C29.8868 7.84849 29.9362 7.87315 29.9821 7.8978C30.1056 7.73906 30.2258 7.58004 30.3493 7.41761C30.3846 7.42815 30.42 7.43541 30.4587 7.44226C30.6494 8.0638 31.059 8.53688 31.8111 8.92874C29.1652 9.98815 30.4604 10.467 29.8586 10.5142C29.5607 10.5402 29.1989 10.5185 29.2759 10.8814C29.3668 11.3246 28.5349 10.8714 28.4073 11.6371C28.3366 12.036 28.1108 12.3538 27.7258 12.6116C27.2552 12.9338 27.643 13.6769 27.528 13.9357C27.3268 13.7345 27.0089 13.6214 26.9842 13.3108C26.9755 13.1363 26.6329 13.0961 26.504 13.0496C26.3593 12.993 26.2534 12.9859 26.204 13.1449C26.151 13.3143 26.0345 13.2756 25.9039 13.2013C24.5601 12.4465 24.5747 15.6849 25.6673 14.988C25.8298 14.8786 25.9604 14.7409 26.1263 14.5997C26.7501 14.6595 26.2603 14.7507 26.3064 15.4434C26.3064 15.4859 26.4794 15.5671 26.5395 15.5493C26.8834 15.4442 26.9213 15.746 26.9703 16.1567C27.0092 16.5593 27.0056 16.5664 27.4752 16.6193C27.5282 16.6264 27.7471 16.6405 28.012 16.6546C28.0156 16.6511 28.0191 16.6475 28.0226 16.6439C28.4853 16.2447 28.8117 15.9728 29.2548 16.2237C29.7901 16.534 30.6325 16.1963 30.925 17.0536C30.9921 17.2442 31.091 17.3148 31.3275 17.2479C31.6559 17.1525 32.0796 17.3891 32.122 17.6786C32.2227 18.3772 32.8072 18.0737 33.1777 18.1835C33.6897 18.3423 34.0746 18.6566 34.47 18.9568C34.8152 19.2149 34.5705 19.627 34.3604 20.0027Z" fill="#5793FB"/>
<path d="M31.8079 2.9458C31.7562 3.06473 31.9924 3.34676 31.9916 3.36232C31.977 3.6632 32.2014 3.64632 32.4512 3.61916C32.8118 3.57974 32.7288 3.69827 32.8774 4.7416C32.9099 4.9697 33.1001 4.87042 33.0051 6.11231C32.9665 6.61624 33.0844 7.01482 33.5814 7.36726C33.6226 7.24767 33.6567 7.15748 33.6843 7.06611C33.8053 6.66436 33.9072 6.25365 34.2829 5.95027C34.5094 5.76713 34.552 5.39702 35.0133 5.44357C35.0584 5.44818 35.1138 5.38872 35.1628 5.35721C35.5393 5.1146 35.2884 4.63612 35.6892 3.9505C35.7562 3.83579 35.8395 3.75431 35.7994 3.61995C35.7275 3.37893 35.8635 3.12973 35.7766 2.88779C34.5782 2.62765 33.4367 2.55184 32.3189 2.61275C32.2802 2.65152 32.2386 2.68171 32.2171 2.67815C31.9389 2.63108 31.865 2.81461 31.8079 2.9458Z" fill="#5793FB"/>
<path d="M27.7066 4.06081C27.822 4.08217 27.9438 4.07979 28.0627 4.08784C28.0728 4.10669 28.0828 4.12528 28.0928 4.14401C27.9996 4.1982 27.9148 4.2752 27.8113 4.30196C27.613 4.35312 27.4255 4.45741 27.4574 4.61155C27.5108 4.86905 27.759 5.15556 28.249 5.1015C28.8653 5.03373 29.7085 5.40436 29.3766 5.98423C29.2441 6.21563 28.9711 6.12136 28.7621 6.21405C28.7279 6.49647 29.1318 6.39917 29.3695 6.50794C29.6969 6.65825 30.0173 6.81937 30.3317 6.97205C30.4917 6.41525 30.7848 6.95504 30.3199 6.0404C30.6801 6.08128 30.9135 6.18966 30.9256 5.91712C30.9299 5.8181 30.873 5.70458 30.8049 5.61848C30.689 5.47173 30.5496 5.33659 30.4082 5.2054C30.0481 4.87076 29.7557 4.44831 29.0809 4.52729C28.9721 4.54021 28.8325 4.45346 28.7345 4.38542C28.7104 4.36855 28.7973 4.24461 28.8269 4.168C28.843 4.1266 28.8367 4.07848 28.8561 4.03892C28.8996 3.94966 28.9307 3.84616 29.0061 3.77957C29.3978 3.43479 29.5259 3.44876 29.9168 2.97437C29.0846 3.18163 28.2844 3.46933 27.5251 3.82968C27.5244 3.83284 27.5265 3.83706 27.5252 3.8397C27.4376 4.01255 27.5778 4.03668 27.7066 4.06081Z" fill="#5793FB"/>
<path d="M20.4902 9.77369C20.6561 10.124 20.8423 10.4807 21.0341 10.8388C21.1236 10.609 21.2291 10.3874 21.3312 10.1642C21.2228 9.95221 21.1056 9.73795 21.0068 9.52924C19.5294 6.41033 19.3195 3.98271 20.4333 2.86963C21.5446 1.75603 23.974 1.96633 27.0918 3.44437C30.3457 4.98543 34.0091 7.70602 37.407 11.1044C40.8049 14.5023 43.5255 18.1653 45.0664 21.4192C46.5438 24.5381 46.7537 26.9652 45.6399 28.0788C45.1679 28.5508 44.4582 28.7851 43.5599 28.7851C42.3424 28.7851 40.7758 28.3544 38.9814 27.5041C38.7759 27.407 38.5645 27.2915 38.3559 27.1849C38.1282 27.2886 37.8945 27.3801 37.66 27.4706C38.0221 27.6648 38.3824 27.8528 38.7361 28.0206C42.1362 29.6309 44.7318 29.7955 46.0439 28.4827C47.3573 27.1693 47.1933 24.5737 45.5831 21.1746C44.0142 17.8632 41.2546 14.1433 37.811 10.7003C34.3685 7.2572 30.6482 4.49653 27.3373 2.92765C25.4548 2.03608 23.82 1.58752 22.5121 1.58752C21.4576 1.58752 20.6151 1.87984 20.0293 2.46578C18.7159 3.77913 18.88 6.3742 20.4902 9.77369Z" fill="#373F51"/>
<path d="M27.0918 27.5042C23.9739 28.9822 21.5458 29.192 20.4333 28.0789C19.3197 26.9658 19.5294 24.5382 21.0068 21.4193C22.5478 18.1659 25.2684 14.503 28.6662 11.1046C32.0641 7.70667 35.7275 4.98608 38.9814 3.44449C40.7757 2.59419 42.3413 2.16343 43.5599 2.16343C44.4582 2.16343 45.1679 2.39773 45.6399 2.86975C46.7535 3.98336 46.5438 6.41045 45.0664 9.52936C44.9699 9.73359 44.8552 9.94337 44.7496 10.1498C44.8546 10.3797 44.9388 10.6196 45.0305 10.8562C45.2258 10.4919 45.4146 10.1297 45.5831 9.77381C47.1934 6.37485 47.3574 3.77925 46.0439 2.4659C44.7316 1.1536 42.1383 1.31656 38.736 2.9279C35.4252 4.49744 31.7048 7.25758 28.2623 10.7006C24.8187 14.1437 22.0591 17.8635 20.4902 21.1749C18.8799 24.5745 18.7159 27.1694 20.0294 28.4828C20.6152 29.0686 21.4577 29.361 22.5122 29.361C23.8201 29.361 25.4549 28.9125 27.3374 28.0209C27.6905 27.8536 28.0503 27.6661 28.412 27.4719C28.1778 27.3814 27.9454 27.2884 27.7181 27.1846C27.5091 27.2916 27.2975 27.4071 27.0918 27.5042Z" fill="#373F51"/>
<path d="M45.9016 4.27983C46.7193 4.27983 47.3822 3.61691 47.3822 2.79916C47.3822 1.9814 46.7193 1.31848 45.9016 1.31848C45.0838 1.31848 44.4209 1.9814 44.4209 2.79916C44.4209 3.61691 45.0838 4.27983 45.9016 4.27983Z" fill="#00B3FF"/>
<path d="M19.7232 26.934C20.541 26.934 21.2039 26.2711 21.2039 25.4533C21.2039 24.6356 20.541 23.9727 19.7232 23.9727C18.9055 23.9727 18.2426 24.6356 18.2426 25.4533C18.2426 26.2711 18.9055 26.934 19.7232 26.934Z" fill="#00B3FF"/>
<path d="M27.7077 4.97978C28.5255 4.97978 29.1884 4.31686 29.1884 3.49911C29.1884 2.68135 28.5255 2.01843 27.7077 2.01843C26.89 2.01843 26.2271 2.68135 26.2271 3.49911C26.2271 4.31686 26.89 4.97978 27.7077 4.97978Z" fill="#00B3FF"/>
<g opacity="0.5">
<path d="M20.6268 19.4718L23.4608 40.0347C23.4949 41.4285 24.447 42.8229 26.2869 43.8853C30.0463 46.0568 36.1138 46.0568 39.8388 43.8853C41.6785 42.812 42.6041 41.4176 42.6269 40.0347L45.463 19.4718C37.1676 21.109 28.8889 21.109 20.6268 19.4718Z" fill="#0094FF"/>
</g>
<path d="M45.203 11.3169C45.2755 11.5289 45.3387 11.7449 45.4001 11.9619C48.8497 12.9143 50.8584 14.216 50.8584 15.4741C50.8584 17.8593 43.6956 20.4131 33.0332 20.4131C22.3708 20.4131 15.2091 17.8594 15.2091 15.4741C15.2091 14.216 17.2179 12.9143 20.6674 11.9619C20.729 11.7449 20.7922 11.5289 20.8645 11.3169C17.0338 12.3195 14.6377 13.7965 14.6377 15.4741C14.6377 18.564 22.7178 20.9844 33.033 20.9844C43.3483 20.9844 51.4296 18.564 51.4296 15.4741C51.4298 13.7965 49.0337 12.3195 45.203 11.3169Z" fill="#373F51"/>
<path d="M38.1121 21.8512C38.9299 21.8512 39.5928 21.1883 39.5928 20.3706C39.5928 19.5528 38.9299 18.8899 38.1121 18.8899C37.2944 18.8899 36.6315 19.5528 36.6315 20.3706C36.6315 21.1883 37.2944 21.8512 38.1121 21.8512Z" fill="#00B3FF"/>
</svg>
