<svg width="66" height="66" viewBox="0 0 66 66" fill="none" xmlns="http://www.w3.org/2000/svg">
<path d="M53.076 25.1142L53.0652 35.3956L41.4653 28.6982L41.4761 18.417L53.076 25.1142Z" fill="#B4BED7"/>
<path d="M64.6063 18.4135L64.5957 28.6948L53.0652 35.3956L53.076 25.1142L64.6063 18.4135Z" fill="#9DA9C1"/>
<path d="M53.0091 11.7195L41.4761 18.42L53.0741 25.1113L64.6069 18.4105L53.0091 11.7195Z" fill="#E3E7F0"/>
<path d="M53.0693 20.6717L53.0606 23.7508L43.6311 18.3068L43.6398 15.2277L53.0693 20.6717Z" fill="#4C5671"/>
<path d="M62.4418 15.2238L62.433 18.3028L53.0601 23.7498L53.0688 20.6707L62.4418 15.2238Z" fill="#373F51"/>
<path d="M53.0726 19.2995L53.0628 22.6238L42.5577 16.5586L42.5674 13.2344L53.0726 19.2995Z" fill="#B4BED7"/>
<path d="M43.6747 15.9156L43.676 15.1627L51.9548 19.9423L51.9534 20.6951L43.6747 15.9156Z" fill="#4C5671"/>
<path d="M63.5145 13.231L63.5047 16.5552L53.0624 22.6237L53.0721 19.2993L63.5145 13.231Z" fill="#9DA9C1"/>
<path d="M53.0107 7.1687L42.566 13.2368L53.0696 19.2968L63.5141 13.2283L53.0107 7.1687Z" fill="#E3E7F0"/>
<path d="M45.8737 13.2281L53.0191 9.07922L60.2066 13.2368L53.0696 17.3858L45.8737 13.2281Z" fill="#5793FB"/>
<path d="M55.0658 19.5225V20.302L61.4969 16.5913V15.8109L55.0658 19.5225Z" fill="#E3E7F0"/>
<path d="M33.7699 46.7689L39.7788 43.2769L39.7805 42.6506L33.7717 46.1425L33.7699 46.7689Z" fill="#373F51"/>
<path d="M30.8863 43.8487C30.8825 44.1948 31.1247 44.6177 31.4284 44.7907L33.7703 46.1443L39.7783 42.6501L37.4364 41.2967C37.1365 41.1236 36.8942 40.7005 36.8942 40.3582L36.9059 35.5898L30.8979 39.08L30.8863 43.8487Z" fill="#4C5671"/>
<path d="M30.351 38.7651L30.3374 43.533C30.3354 44.2242 30.8249 45.0691 31.4265 45.4164L33.7688 46.7688L33.7705 46.1425L31.4282 44.7902C31.1263 44.6158 30.8839 44.1934 30.885 43.8491L30.8986 39.0813L30.351 38.7651Z" fill="#272E3A"/>
<path d="M20.153 45.193L20.1585 47.1667C20.1596 47.55 20.2961 47.8209 20.5165 47.9492L19.3807 47.363C19.1604 47.2352 19.0238 46.9643 19.0227 46.5805L19.0172 44.6068L20.153 45.193Z" fill="#B4BED7"/>
<path d="M20.1528 45.1929L20.1584 47.1667C20.1606 47.9406 20.7148 48.2563 21.3951 47.8635L45.7196 33.8196C46.3999 33.4269 46.9505 32.4735 46.9483 31.6995L46.9428 29.7257L20.1528 45.1929Z" fill="#E3E7F0"/>
<path d="M18.9768 28.4831L19.019 44.6043L20.1552 45.191L20.113 29.0704C20.1024 28.2894 20.6616 27.3296 21.3368 26.9392L45.6666 12.8961C46.0042 12.6957 46.3101 12.6746 46.5423 12.8116L45.406 12.2248C45.174 12.0873 44.8679 12.1084 44.5304 12.3094L20.2008 26.3519C19.5255 26.7423 18.9663 27.7026 18.9768 28.4831Z" fill="#4C5671"/>
<path d="M21.3366 26.9383C20.6563 27.3311 20.1057 28.2847 20.1079 29.0665L20.1516 45.1928L46.9414 29.7257L46.8978 13.5994C46.8956 12.8174 46.3414 12.5018 45.6611 12.8946L21.3366 26.9383Z" fill="#272E3A"/>
<path d="M20.9365 28.1266L20.9865 43.7551L46.1096 29.2481L46.0679 13.6273L20.9365 28.1266Z" fill="#0075FF"/>
<path d="M33.551 38.1659C33.1363 38.4053 32.8011 38.9817 32.8024 39.4583C32.8037 39.9345 33.1412 40.1226 33.5559 39.8831C33.9706 39.6437 34.302 39.0696 34.3006 38.5932C34.2994 38.1167 33.9657 37.9265 33.551 38.1659Z" fill="#B4BED7"/>
<path d="M12.9286 48.4749L12.9178 58.7561L1.31799 52.059L1.32867 41.7777L12.9286 48.4749Z" fill="#B4BED7"/>
<path d="M24.4594 41.7742L24.4486 52.0554L12.9182 58.7562L12.929 48.4749L24.4594 41.7742Z" fill="#9DA9C1"/>
<path d="M12.8622 35.0802L1.32922 41.7807L12.9272 48.4721L24.4601 41.7712L12.8622 35.0802Z" fill="#E3E7F0"/>
<path d="M12.9217 44.0327L12.9129 47.1117L3.4834 41.6676L3.49223 38.5885L12.9217 44.0327Z" fill="#4C5671"/>
<path d="M22.2949 38.5848L22.2862 41.6638L12.9132 47.1108L12.922 44.0318L22.2949 38.5848Z" fill="#373F51"/>
<path d="M12.9246 42.6601L12.9149 45.9843L2.40967 39.919L2.41942 36.5948L12.9246 42.6601Z" fill="#B4BED7"/>
<path d="M3.52783 39.2762L3.52915 38.5233L11.8065 43.3029L11.8052 44.0557L3.52783 39.2762Z" fill="#4C5671"/>
<path d="M23.3669 36.5918L23.3572 39.916L12.9149 45.9844L12.9247 42.6602L23.3669 36.5918Z" fill="#9DA9C1"/>
<path d="M12.8625 30.5292L2.41797 36.5973L12.9215 42.6573L23.366 36.5887L12.8625 30.5292Z" fill="#E3E7F0"/>
<path d="M5.72705 36.5889L12.8725 32.4399L20.06 36.5976L12.923 40.7465L5.72705 36.5889Z" fill="#44A5FF"/>
<path d="M14.9185 42.8832V43.6626L21.3495 39.9519V39.1715L14.9185 42.8832Z" fill="#E3E7F0"/>
<path d="M32.7882 34.3833L34.7944 33.225L32.7806 32.0597L32.7882 34.3833Z" fill="#4C5671"/>
<path d="M34.7816 29.3777C35.5469 28.5072 36.074 27.3014 36.0711 26.2592C36.0669 24.7951 35.0323 24.2061 33.7643 24.938C32.4907 25.6732 31.4627 27.454 31.4669 28.9174C31.4698 29.9597 32.0078 30.5507 32.7754 30.5358L32.7803 32.0598L34.794 33.2251L34.7816 29.3777Z" fill="#272E3A"/>
<path d="M49.8364 39.3331L49.2911 39.6482C49.0913 39.7713 48.8608 39.7713 48.6381 39.6403C48.0005 39.2719 47.2938 37.7661 47.3016 36.2991C47.3016 35.3464 47.6011 34.7167 47.9852 34.4938L48.5305 34.1787C48.1388 34.4015 47.8469 35.0313 47.8393 35.984C47.8393 37.4514 48.5383 38.9569 49.1758 39.3256C49.3985 39.4561 49.6291 39.4561 49.8364 39.3331Z" fill="#0066FF"/>
<path d="M33.5057 26.9045L46.2649 34.271L45.7196 34.5861L32.968 27.2191L33.5057 26.9045Z" fill="#0066FF"/>
<path d="M38.8822 32.2431L39.4198 31.928L39.4122 34.1714L38.8745 34.4861L38.8822 32.2431Z" fill="#0066FF"/>
<path d="M52.1489 38.4805C52.1489 39.9092 51.6957 40.9155 50.989 41.3303L50.4437 41.6454C51.1504 41.2306 51.6036 40.2242 51.6112 38.7877C51.6189 36.3297 50.2899 33.5718 48.6538 32.627C47.9702 32.2275 47.3326 32.2122 46.8333 32.504L47.3709 32.1893C47.8779 31.8975 48.5077 31.9128 49.1992 32.3119C50.8353 33.2571 52.1565 36.0147 52.1489 38.4805Z" fill="#0066FF"/>
<path d="M35.7714 30.4455L36.3093 30.1304V32.3734L35.7638 32.6884L35.7714 30.4455Z" fill="#0066FF"/>
<path d="M48.6558 32.6258C50.2939 33.5716 51.6173 36.3285 51.6103 38.7913C51.6033 41.2428 50.2686 42.4702 48.6305 41.5244C47.169 40.6806 45.962 38.4035 45.7128 36.1878L38.8809 32.2433L38.8746 34.4864L37.477 33.6795L37.4833 31.4364L35.7717 30.4482L35.7653 32.6912L34.3676 31.8842L34.3739 29.6412L32.9614 28.8257L32.966 27.2196L45.7225 34.5846C45.9785 32.6493 47.1943 31.782 48.6558 32.6258ZM48.6359 39.6422C49.2685 40.0075 49.973 39.3135 49.9772 37.8484C49.9815 36.3775 49.2832 34.8678 48.6506 34.5026C48.0129 34.1345 47.3036 34.8314 47.2994 36.3023C47.2953 37.7675 47.9983 39.2741 48.6359 39.6422Z" fill="#0085FF"/>
</svg>
