<svg width="66" height="66" viewBox="0 0 66 66" fill="none" xmlns="http://www.w3.org/2000/svg">
<path d="M2.43906 27.8637L28.2566 42.8655C28.8498 43.2107 29.3326 44.058 29.3298 44.7489L29.3161 63.8319C29.3089 64.5253 28.8208 64.8035 28.2277 64.4582L2.40742 49.4517C1.80962 49.1092 1.3339 48.264 1.33681 47.573L1.35039 28.4901C1.35777 27.7965 1.84324 27.5139 2.43906 27.8637Z" fill="#4C5671"/>
<path d="M2.00596 36.3595C2.00688 36.1837 2.12884 36.1134 2.28007 36.2012C2.43131 36.2891 2.55485 36.502 2.55393 36.6779L2.53125 40.7335C2.53032 40.9092 2.40507 40.9816 2.25384 40.8937C2.10261 40.8058 1.98236 40.5908 1.98328 40.415L2.00596 36.3595Z" fill="#373F51"/>
<path d="M26.9164 52.813C26.9197 52.2347 27.329 52.0022 27.8266 52.2914C28.3242 52.5805 28.7283 53.2858 28.725 53.8639C28.7217 54.4461 28.3124 54.6786 27.8148 54.3894C27.3172 54.1003 26.9131 53.3952 26.9164 52.813Z" fill="#373F51"/>
<path d="M1.68005 27.7837L3.142 26.9542C3.33529 26.844 3.6069 26.8601 3.90105 27.034L29.7212 42.0405C30.3189 42.3832 30.8017 43.2304 30.7945 43.9238L30.7808 63.0069C30.776 63.3513 30.6541 63.5977 30.4559 63.7106L28.9868 64.5381C29.1894 64.4227 29.3138 64.181 29.3162 63.8319L29.3299 44.7488C29.3327 44.0581 28.8498 43.2107 28.2566 42.8655L2.43924 27.8636C2.14495 27.6897 1.87348 27.6736 1.68005 27.7837Z" fill="#373F51"/>
<path d="M8.0296 30.4336C8.19415 30.5299 8.46431 30.5296 8.62899 30.4352C8.79353 30.3408 8.7967 30.1843 8.63215 30.088L6.54458 28.867C6.38003 28.7707 6.10987 28.771 5.94519 28.8654C5.78065 28.9598 5.77748 29.1163 5.94203 29.2125L8.0296 30.4336Z" fill="#9DA9C1"/>
<path d="M5.81678 29.2775C5.81612 29.3403 5.8566 29.4032 5.93861 29.4512L8.02605 30.6722C8.19059 30.7684 8.46089 30.7682 8.6253 30.6739C8.70771 30.6265 8.74977 30.5635 8.75029 30.5005L8.7524 30.2617C8.75174 30.325 8.70995 30.3879 8.62728 30.4352C8.46273 30.5296 8.19257 30.5299 8.02802 30.4336L5.94059 29.2127C5.85858 29.1647 5.8181 29.1018 5.81876 29.0389L5.81678 29.2775Z" fill="#4C5671"/>
<path d="M9.64071 31.617L11.7252 32.836C11.8898 32.9323 12.1598 32.9322 12.3245 32.8376C12.4069 32.7903 12.449 32.7274 12.4495 32.6642L12.4515 32.4256C12.4509 32.4888 12.4091 32.5516 12.3265 32.599C12.1619 32.6934 11.8918 32.6937 11.7272 32.5973L9.64295 31.3781C9.55883 31.329 9.51782 31.2652 9.51822 31.2019L9.51624 31.4406C9.51571 31.504 9.55672 31.5678 9.64071 31.617Z" fill="#4C5671"/>
<path d="M11.7273 32.5976C11.8919 32.6938 12.162 32.6935 12.3267 32.5991C12.4912 32.5047 12.4944 32.3482 12.3299 32.252L10.2455 31.0328C10.0777 30.9347 9.80758 30.9349 9.64303 31.0293C9.47849 31.1237 9.47532 31.2803 9.64303 31.3783L11.7273 32.5976Z" fill="#9DA9C1"/>
<path d="M5.22336 30.5955L4.1919 31.1949L2.56079 30.2532L3.59225 29.6538L5.22336 30.5955Z" fill="white"/>
<path d="M4.19586 31.738L4.19665 51.1103L1.62519 49.6257L1.62427 30.2534L4.19586 31.738Z" fill="#0094FF"/>
<path d="M2.05292 37.3875L2.052 30.9952L3.76657 31.985L3.76749 38.3774L2.05292 37.3875Z" fill="white"/>
<path d="M5.69432 30.8671L4.19586 31.7379L1.62427 30.2533L3.12287 29.3824L3.59304 29.6539L2.56158 30.2533L4.19269 31.195L5.22415 30.5956L5.69432 30.8671Z" fill="#96D696"/>
<path d="M7.79513 32.0802L6.76368 32.6796L5.13257 31.7379L6.16403 31.1385L7.79513 32.0802Z" fill="white"/>
<path d="M6.76763 33.2225L6.76842 52.5949L4.19697 51.1102L4.19604 31.7379L6.76763 33.2225Z" fill="#0094FF"/>
<path d="M4.62595 38.8721L4.62463 32.4799L6.3396 33.4699L6.34052 39.862L4.62595 38.8721Z" fill="white"/>
<path d="M8.26659 32.3517L6.76812 33.2226L4.19653 31.7379L5.69513 30.8671L6.16531 31.1385L5.13385 31.7379L6.76496 32.6796L7.79641 32.0802L8.26659 32.3517Z" fill="#96D696"/>
<path d="M10.3713 33.5646L6.32471 35.9163L4.6936 34.9746L8.74019 32.6229L10.3713 33.5646Z" fill="white"/>
<path d="M6.32707 36.4595L6.328 55.8318L3.75654 54.3472L3.75562 34.9749L6.32707 36.4595Z" fill="#ED5D71"/>
<path d="M4.18512 42.109L4.18433 35.7168L5.89889 36.7066L5.89968 43.0989L4.18512 42.109Z" fill="white"/>
<path d="M10.84 33.8365L14.2366 51.2356L6.32722 55.832L6.32629 36.4597L10.84 33.8365Z" fill="#E34454"/>
<path d="M10.8408 33.8363L6.32707 36.4595L3.75562 34.9748L8.26934 32.3517L8.73952 32.6232L4.69293 34.9748L6.32404 35.9165L10.3706 33.5648L10.8408 33.8363Z" fill="#FE91AB"/>
<path d="M12.9421 35.0498L11.9106 35.6492L10.2795 34.7075L11.311 34.1082L12.9421 35.0498Z" fill="white"/>
<path d="M11.9136 36.1919L11.9144 55.5642L9.34296 54.0796L9.34204 34.7073L11.9136 36.1919Z" fill="#0094FF"/>
<path d="M9.77058 41.8414L9.76965 35.4492L11.4842 36.4391L11.4851 42.8314L9.77058 41.8414Z" fill="white"/>
<path d="M13.4121 35.3211L11.9136 36.1919L9.34204 34.7073L10.8406 33.8364L11.3108 34.1079L10.2794 34.7073L11.9105 35.649L12.9419 35.0496L13.4121 35.3211Z" fill="#96D696"/>
<path d="M15.5146 36.5345L14.4832 37.1338L12.8521 36.192L13.8835 35.5927L15.5146 36.5345Z" fill="white"/>
<path d="M14.4855 37.6768L14.4863 57.0492L11.9149 55.5644L11.9139 36.1921L14.4855 37.6768Z" fill="#0094FF"/>
<path d="M12.3445 43.328L12.3431 36.9357L14.0582 37.9259L14.059 44.3178L12.3445 43.328Z" fill="white"/>
<path d="M15.9855 36.8062L14.487 37.6769L11.9154 36.1923L13.414 35.3214L13.8842 35.5929L12.8527 36.1923L14.4838 37.1341L15.5153 36.5347L15.9855 36.8062Z" fill="#96D696"/>
<path d="M18.0868 38.0187L17.0553 38.6181L15.4242 37.6764L16.4557 37.077L18.0868 38.0187Z" fill="white"/>
<path d="M17.0587 39.1615L17.0594 58.5338L14.488 51.2239L14.4871 37.6768L17.0587 39.1615Z" fill="#0094FF"/>
<path d="M14.7706 38.1699L14.7629 44.9419H16.7732L16.773 39.3259" fill="#0094FF"/>
<path d="M14.9164 50.9766L14.9156 38.4187L16.6302 39.4086L16.631 51.9665L14.9164 50.9766Z" fill="white"/>
<path d="M18.5571 38.2907L17.0586 39.1615L14.4871 37.6768L15.9857 36.806L16.4558 37.0775L15.4244 37.6769L17.0555 38.6186L18.0869 38.0192L18.5571 38.2907Z" fill="#96D696"/>
<path d="M20.6584 39.5036L16.6118 41.8552L14.9807 40.9134L19.0273 38.5619L20.6584 39.5036Z" fill="white"/>
<path d="M16.6158 42.3977L16.6167 61.7701L14.0452 60.2854L14.0443 40.9131L16.6158 42.3977Z" fill="#ED5D71"/>
<path d="M14.4731 48.0472L14.4718 41.655L16.1868 42.6452L16.1877 49.0372L14.4731 48.0472Z" fill="white"/>
<path d="M21.1284 39.7751L24.5249 57.1742L16.6155 61.7706L16.6146 42.3982L21.1284 39.7751Z" fill="#E34454"/>
<path d="M21.1289 39.7749L16.6152 42.3979L14.0437 40.9133L18.5574 38.2903L19.0276 38.5618L14.981 40.9133L16.6121 41.8551L20.6587 39.5034L21.1289 39.7749Z" fill="#FE91AB"/>
<path d="M23.2318 40.9883L22.2003 41.5877L20.5692 40.646L21.6007 40.0466L23.2318 40.9883Z" fill="white"/>
<path d="M22.2033 42.1306L22.2041 61.5029L19.6326 60.0183L19.6317 40.646L22.2033 42.1306Z" fill="#0094FF"/>
<path d="M20.0611 47.7801L20.0603 41.3881L21.7749 42.378L21.7761 48.7702L20.0611 47.7801Z" fill="white"/>
<path d="M23.7032 41.2597L22.2048 42.1305L19.6332 40.6459L21.1318 39.775L21.602 40.0465L20.5705 40.6459L22.2016 41.5876L23.2331 40.9882L23.7032 41.2597Z" fill="#96D696"/>
<path d="M25.805 42.4729L24.7736 43.0723L23.1425 42.1306L24.1739 41.5312L25.805 42.4729Z" fill="white"/>
<path d="M24.777 43.6152L24.7778 62.9876L22.2064 61.5029L22.2054 42.1306L24.777 43.6152Z" fill="#0094FF"/>
<path d="M22.6345 49.2649L22.6337 42.8727L24.3482 43.8626L24.349 50.2548L22.6345 49.2649Z" fill="white"/>
<path d="M26.2754 42.7444L26.2764 62.1167L24.7778 62.9876L24.777 43.6153L26.2754 42.7444Z" fill="#5FAF5F"/>
<path d="M26.2748 42.7444L24.7763 43.6153L22.2047 42.1306L23.7033 41.2598L24.1735 41.5312L23.142 42.1306L24.7731 43.0723L25.8046 42.4729L26.2748 42.7444Z" fill="#96D696"/>
<path d="M23.3928 57.7459C23.2954 57.6894 23.2035 57.661 23.1265 57.661C23.0825 57.661 23.044 57.6697 23.011 57.6886C22.9207 57.7396 22.8687 57.8709 22.8679 58.0477C22.8656 58.502 23.1932 59.0787 23.5845 59.3051C23.7354 59.393 23.8745 59.4158 23.9649 59.3632C24.056 59.3114 24.1088 59.1793 24.1096 59.001C24.1119 58.5482 23.7842 57.9738 23.3928 57.7459Z" fill="#373F51"/>
<path d="M23.784 59.5621C23.6634 59.5621 23.533 59.5237 23.4008 59.4472C22.9783 59.2017 22.6489 58.6244 22.6522 58.1333C22.6536 57.865 22.7536 57.6601 22.9347 57.5564C23.1119 57.4547 23.3468 57.4714 23.5753 57.6046C23.9978 57.8507 24.3271 58.4267 24.3238 58.9158C24.3219 59.1858 24.2218 59.3918 24.0401 59.4956C23.9626 59.54 23.8758 59.5621 23.784 59.5621ZM23.1922 57.8191C23.1562 57.8191 23.1248 57.8265 23.0978 57.8419C23.0239 57.884 22.9816 57.9909 22.9809 58.135C22.979 58.5064 23.2468 58.9773 23.5665 59.1628C23.6898 59.2346 23.8034 59.253 23.8773 59.2102C23.9518 59.1679 23.9947 59.0597 23.9954 58.914C23.9974 58.5441 23.7296 58.0749 23.4099 57.889C23.3302 57.843 23.2551 57.8191 23.1922 57.8191Z" fill="white"/>
<path d="M20.9081 56.3028C20.8106 56.2462 20.7187 56.2178 20.6417 56.2178C20.5977 56.2178 20.5592 56.2265 20.5262 56.2454C20.4359 56.2964 20.384 56.4277 20.3832 56.6046C20.3808 57.0588 20.7085 57.6355 21.0998 57.8619C21.2506 57.9498 21.3897 57.9726 21.4802 57.92C21.5713 57.8682 21.624 57.7361 21.6248 57.5578C21.6272 57.1051 21.2994 56.5306 20.9081 56.3028Z" fill="#373F51"/>
<path d="M21.2991 58.119C21.1784 58.119 21.048 58.0805 20.9158 58.0041C20.4933 57.7586 20.164 57.1813 20.1673 56.6902C20.1686 56.4219 20.2687 56.217 20.4497 56.1133C20.6269 56.0115 20.8618 56.0283 21.0903 56.1615C21.5128 56.4076 21.8421 56.9835 21.8388 57.4727C21.8369 57.7426 21.7368 57.9487 21.5551 58.0524C21.4776 58.0969 21.391 58.119 21.2991 58.119ZM20.7072 56.376C20.6712 56.376 20.6398 56.3834 20.6128 56.3988C20.5389 56.4408 20.4966 56.5478 20.496 56.6919C20.494 57.0633 20.7618 57.5341 21.0815 57.7197C21.2048 57.7915 21.3184 57.8098 21.3923 57.7671C21.4668 57.7248 21.5097 57.6166 21.5104 57.4709C21.5124 57.101 21.2446 56.6318 20.9249 56.4459C20.8452 56.3998 20.7701 56.376 20.7072 56.376Z" fill="white"/>
<path d="M13.0173 51.7374C12.9199 51.6809 12.828 51.6525 12.751 51.6525C12.707 51.6525 12.6685 51.6612 12.6355 51.6801C12.5452 51.7311 12.4932 51.8624 12.4924 52.0392C12.4901 52.4935 12.8177 53.0702 13.209 53.2966C13.3599 53.3845 13.499 53.4073 13.5894 53.3547C13.6805 53.3029 13.7333 53.1708 13.7341 52.9925C13.7363 52.5397 13.4087 51.9653 13.0173 51.7374Z" fill="#373F51"/>
<path d="M13.409 53.5535C13.2884 53.5535 13.158 53.515 13.0258 53.4386C12.6033 53.1931 12.2739 52.6158 12.2772 52.1247C12.2786 51.8564 12.3786 51.6515 12.5597 51.5478C12.7369 51.4461 12.9718 51.4628 13.2003 51.596C13.6228 51.8421 13.9521 52.4181 13.9488 52.9072C13.9469 53.1771 13.8468 53.3832 13.6651 53.487C13.5874 53.5314 13.5008 53.5535 13.409 53.5535ZM12.817 51.8105C12.781 51.8105 12.7497 51.8179 12.7226 51.8333C12.6488 51.8754 12.6065 51.9823 12.6058 52.1264C12.6038 52.4978 12.8716 52.9687 13.1914 53.1542C13.3146 53.226 13.4283 53.2444 13.5021 53.2016C13.5766 53.1593 13.6196 53.0511 13.6203 52.9054C13.6222 52.5355 13.3545 52.0663 13.0347 51.8804C12.9551 51.8344 12.8801 51.8105 12.817 51.8105Z" fill="white"/>
<path d="M10.531 50.2941C10.4336 50.2375 10.3417 50.2092 10.2647 50.2092C10.2206 50.2092 10.1821 50.2179 10.1492 50.2367C10.0589 50.2878 10.0069 50.4191 10.0061 50.5959C10.0037 51.0501 10.3314 51.6268 10.7227 51.8532C10.8736 51.9411 11.0127 51.964 11.1031 51.9113C11.1942 51.8595 11.2469 51.7274 11.2477 51.549C11.2501 51.0964 10.9223 50.5219 10.531 50.2941Z" fill="#373F51"/>
<path d="M10.9222 52.1101C10.8016 52.1101 10.6712 52.0716 10.5389 51.9951C10.1165 51.7496 9.78713 51.1724 9.79043 50.6813C9.79175 50.413 9.89182 50.2081 10.0729 50.1044C10.2501 50.0026 10.485 50.0194 10.7135 50.1525C11.136 50.3987 11.4653 50.9746 11.462 51.4638C11.46 51.7338 11.36 51.9398 11.1783 52.0435C11.1007 52.088 11.014 52.1101 10.9222 52.1101ZM10.3304 50.3671C10.2944 50.3671 10.263 50.3744 10.2359 50.3899C10.1621 50.4319 10.1198 50.5389 10.1191 50.683C10.1172 51.0544 10.3849 51.5252 10.7047 51.7107C10.828 51.7826 10.9416 51.8009 11.0154 51.7582C11.0899 51.7159 11.1329 51.6076 11.1336 51.4619C11.1356 51.0921 10.8678 50.6229 10.548 50.4369C10.4684 50.3909 10.3932 50.3671 10.3304 50.3671Z" fill="white"/>
<path d="M4.9447 50.4435C4.84727 50.3869 4.75537 50.3586 4.67837 50.3586C4.63433 50.3586 4.59583 50.3673 4.56287 50.3861C4.47255 50.4372 4.4206 50.5685 4.41981 50.7453C4.41744 51.1995 4.74508 51.7762 5.13641 52.0026C5.28725 52.0906 5.42635 52.1134 5.5168 52.0608C5.60791 52.0089 5.66065 51.8768 5.66144 51.6984C5.66368 51.2458 5.33603 50.6713 4.9447 50.4435Z" fill="#373F51"/>
<path d="M5.33763 52.2597C5.21699 52.2597 5.08659 52.2212 4.95434 52.1447C4.5319 51.8992 4.20254 51.3219 4.20584 50.8308C4.20715 50.5625 4.30723 50.3576 4.48826 50.254C4.66546 50.1522 4.90042 50.1689 5.12891 50.3021C5.55136 50.5482 5.88072 51.1242 5.87742 51.6133C5.87544 51.8834 5.77537 52.0893 5.59368 52.1931C5.51602 52.2375 5.4294 52.2597 5.33763 52.2597ZM4.74563 50.5166C4.70963 50.5166 4.67825 50.524 4.65122 50.5394C4.57739 50.5815 4.53506 50.6884 4.5344 50.8325C4.53243 51.2039 4.80021 51.6748 5.11995 51.8603C5.24323 51.9321 5.35688 51.9505 5.43071 51.9078C5.50521 51.8654 5.54819 51.7572 5.54885 51.6115C5.55083 51.2416 5.28304 50.7724 4.96331 50.5865C4.88367 50.5405 4.80865 50.5166 4.74563 50.5166Z" fill="white"/>
<path d="M15.2385 56.6312C15.1411 56.5746 15.0492 56.5463 14.9722 56.5463C14.9282 56.5463 14.8897 56.555 14.8567 56.5738C14.7664 56.6248 14.7144 56.7562 14.7136 56.933C14.7113 57.3872 15.0389 57.9639 15.4302 58.1903C15.5811 58.2782 15.7202 58.3011 15.8106 58.2484C15.9017 58.1966 15.9545 58.0645 15.9553 57.8861C15.9575 57.4335 15.6299 56.859 15.2385 56.6312Z" fill="#373F51"/>
<path d="M15.6302 58.4471C15.5096 58.4471 15.3792 58.4086 15.2469 58.3321C14.8245 58.0866 14.4951 57.5094 14.4984 57.0182C14.4998 56.7499 14.5998 56.545 14.7809 56.4414C14.9581 56.3396 15.193 56.3564 15.4215 56.4895C15.844 56.7357 16.1733 57.3116 16.17 57.8008C16.168 58.0708 16.068 58.2767 15.8863 58.3805C15.8088 58.4249 15.722 58.4471 15.6302 58.4471ZM15.0384 56.704C15.0024 56.704 14.971 56.7114 14.944 56.7269C14.8701 56.7689 14.8278 56.8758 14.8271 57.02C14.8252 57.3914 15.0929 57.8622 15.4127 58.0477C15.536 58.1196 15.6496 58.1379 15.7234 58.0952C15.7979 58.0529 15.8409 57.9446 15.8416 57.7989C15.8436 57.4291 15.5758 56.9598 15.256 56.7739C15.1763 56.7278 15.1013 56.704 15.0384 56.704Z" fill="white"/>
<path d="M2.77808 45.8118C2.68064 45.7552 2.58874 45.7269 2.51174 45.7269C2.46771 45.7269 2.42921 45.7356 2.39624 45.7544C2.30593 45.8054 2.25398 45.9368 2.25319 46.1136C2.25081 46.5678 2.57846 47.1445 2.96979 47.3709C3.12062 47.459 3.25972 47.4817 3.35017 47.429C3.44128 47.3772 3.49402 47.2451 3.49481 47.0667C3.49705 46.6141 3.16941 46.0397 2.77808 45.8118Z" fill="#373F51"/>
<path d="M3.16881 47.6278C3.04816 47.6278 2.91776 47.5893 2.78552 47.5128C2.36307 47.2673 2.03372 46.69 2.03701 46.1989C2.03833 45.9306 2.1384 45.7257 2.31943 45.6221C2.49664 45.5203 2.73159 45.537 2.96009 45.6702C3.38253 45.9163 3.71189 46.4923 3.7086 46.9814C3.70662 47.2515 3.60655 47.4574 3.42486 47.5612C3.3472 47.6056 3.26057 47.6278 3.16881 47.6278ZM2.5768 45.8847C2.54081 45.8847 2.50943 45.8921 2.4824 45.9075C2.40856 45.9496 2.36624 46.0565 2.36558 46.2006C2.3636 46.572 2.63139 47.0429 2.95112 47.2284C3.0744 47.3002 3.18806 47.3186 3.26189 47.2759C3.33639 47.2335 3.37937 47.1253 3.38003 46.9796C3.38201 46.6097 3.11422 46.1405 2.79449 45.9546C2.71485 45.9084 2.63969 45.8847 2.5768 45.8847Z" fill="white"/>
<path d="M64.6252 33.7858C64.6252 35.5958 63.977 36.8803 62.9496 37.4793L57.7764 40.4878C58.8038 39.8888 59.452 38.6044 59.452 36.7825C59.4642 33.1135 56.8837 28.6617 53.7161 26.8271C53.3614 26.6312 53.019 26.4725 52.6766 26.3381C52.0895 22.816 49.6314 19.0127 46.6717 17.3001C45.6322 16.7011 44.6416 16.4318 43.7732 16.4688C42.8072 12.0904 39.7252 7.52867 36.093 5.42487C33.8549 4.12839 31.8248 4.01856 30.3572 4.8624L35.5304 1.86585C36.998 1.01014 39.0281 1.1325 41.2663 2.41646C44.8984 4.52025 47.9804 9.08199 48.9466 13.4603C49.8026 13.4233 50.8055 13.6927 51.845 14.2916C54.8047 16.0037 57.2629 19.8196 57.8499 23.3417C58.1923 23.464 58.5347 23.6229 58.8772 23.8307C62.0569 25.665 64.6375 30.1168 64.6252 33.7858Z" fill="#7BB1FF"/>
<path d="M32.4116 8.54317C32.7419 8.7271 33.072 8.94689 33.3778 9.20361L28.2046 12.2002C27.8988 11.9553 27.5686 11.7355 27.2384 11.5522C25.6361 10.6224 24.1809 10.5371 23.1292 11.136L28.3024 8.13997C29.3541 7.52859 30.8095 7.61402 32.4116 8.54317Z" fill="#7BB1FF"/>
<path d="M36.0954 5.42667C39.7263 7.52295 42.8028 12.0852 43.7758 16.4662C44.6362 16.433 45.6287 16.7002 46.6672 17.2999C49.6266 19.0085 52.0873 22.8198 52.6794 26.3432C53.0154 26.4743 53.3591 26.6279 53.7105 26.8307C56.8885 28.6655 59.4647 33.1183 59.4543 36.7882C59.4438 40.4489 56.8509 41.9177 53.6729 40.0829L27.2026 24.8002C24.009 22.9564 21.4407 18.5075 21.4511 14.8469C21.4615 11.177 24.0467 9.70414 27.2402 11.5479C27.5681 11.7373 27.896 11.9534 28.2081 12.2053C28.0773 11.4647 28.0089 10.7334 28.011 10.0247C28.0255 4.91048 31.6525 2.86153 36.0954 5.42667Z" fill="#5793FB"/>
<path d="M30.5294 52.308L31.6305 52.9417L30.7694 53.4339L29.6683 52.8L30.5294 52.308Z" fill="#272E3A"/>
<path d="M30.7682 53.4337L31.6293 52.9415L32.6519 54.1973L31.7908 54.6895L30.7682 53.4337Z" fill="#373F51"/>
<path d="M31.7918 54.6895L32.6529 54.1973L32.6509 55.4531L31.7898 55.9453L31.7918 54.6895Z" fill="#272E3A"/>
<path d="M29.6664 52.8001L30.7675 53.4339L31.7901 54.6897L31.7882 55.9454L30.7634 56.02L29.6624 55.3863L29.6664 52.8001Z" fill="#4C5671"/>
<path d="M42.1928 21.8958L42.1794 28.7491C42.1726 29.0516 42.0718 29.267 41.8969 29.3613L40.9487 29.9127C41.1235 29.8184 41.2245 29.6034 41.2312 29.3005L41.2447 22.4472C41.2514 21.8354 40.8276 21.0955 40.2964 20.7928L34.3309 17.3493C34.0618 17.1946 33.8264 17.1811 33.6516 17.2819L34.5999 16.7305C34.7747 16.6296 35.0102 16.6431 35.2792 16.7979L41.2447 20.2414C41.7758 20.5507 42.1995 21.2837 42.1928 21.8958Z" fill="white"/>
<path d="M40.2964 20.7935C40.8246 21.0985 41.2483 21.8372 41.2465 22.4441L41.2272 29.3026C41.2254 29.9097 40.7989 30.1526 40.2707 29.8476L34.302 26.4016C33.7738 26.0966 33.3501 25.3629 33.3519 24.7559L33.3713 17.8974C33.373 17.2905 33.7996 17.0426 34.3277 17.3476L40.2964 20.7935Z" fill="#B4BED7"/>
<path d="M39.5126 23.6191L39.5084 25.1089L37.8582 26.068L37.8624 24.5781L39.5126 23.6191Z" fill="#272E3A"/>
<path d="M37.8604 24.5781L37.8562 26.068L35.4548 26.4587L35.4591 24.9688L37.8604 24.5781Z" fill="#373F51"/>
<path d="M35.4605 24.9686L35.4563 26.4585L33.8225 25.5153L33.8267 24.0255L35.4605 24.9686Z" fill="#272E3A"/>
<path d="M39.5119 23.6191L37.8617 24.578L35.4603 24.9687L33.8265 24.0256L34.4971 22.6355L36.1473 21.6765L39.5119 23.6191Z" fill="#4C5671"/>
<path d="M40.2531 37.3553L29.0225 30.8704C28.7437 30.7098 28.5776 30.4221 28.5776 30.1003C28.5776 29.7792 28.7437 29.4907 29.0225 29.3302L35.1674 25.7819L34.6336 24.8575L28.4886 28.4058C27.8755 28.7588 27.51 29.3928 27.51 30.1003C27.51 30.8078 27.8756 31.4417 28.4886 31.7955L39.7192 38.2804C39.9946 38.4382 40.1648 38.7336 40.1641 39.0512L40.1377 57.228C40.1371 57.5499 39.971 57.8376 39.6922 57.9981C39.4142 58.1587 39.0812 58.1587 38.8033 57.9981L32.523 54.3609L32.1218 55.3722L38.2696 58.9226C38.5761 59.0991 38.9118 59.1881 39.2481 59.1881C39.5838 59.1881 39.9195 59.0991 40.2261 58.9226C40.8384 58.5695 41.2047 57.937 41.2055 57.2295L41.2318 39.0526C41.2324 38.3542 40.8578 37.7035 40.2531 37.3553Z" fill="#272E3A"/>
</svg>
