<svg width="66" height="66" viewBox="0 0 66 66" fill="none" xmlns="http://www.w3.org/2000/svg">
<path d="M15.535 29.2354L15.5454 44.1421L26.7872 37.6517L26.7768 22.745L15.535 29.2354Z" fill="#B4BED7"/>
<path d="M4.36096 22.7417L4.37138 37.6485L15.5457 44.1423L15.5353 29.2356L4.36096 22.7417Z" fill="#D3DBEA"/>
<path d="M4.36304 22.7385L15.5399 29.2325L26.7798 22.7478L15.6029 16.2542L4.36304 22.7385Z" fill="#E3E7F0"/>
<path d="M15.5392 24.7662L15.5485 28.0611L25.6391 22.2354L25.6297 18.9404L15.5392 24.7662Z" fill="#9DA9C1"/>
<path d="M5.5094 18.9375L5.51876 22.2324L15.5488 28.0612L15.5394 24.7663L5.5094 18.9375Z" fill="#B4BED7"/>
<path d="M15.5356 21.6002L15.5461 26.4155L26.7878 19.925L26.7774 15.1097L15.5356 21.6002Z" fill="#B4BED7"/>
<path d="M4.36096 15.1064L4.37138 19.9217L15.5457 26.4156L15.5353 21.6003L4.36096 15.1064Z" fill="#D3DBEA"/>
<path d="M4.36292 15.1033L15.5398 21.5973L26.7797 15.1125L15.6028 8.6189L4.36292 15.1033Z" fill="#E3E7F0"/>
<path d="M15.5374 19.5525L7.90002 15.1126L15.5915 10.6635L23.2379 15.1034L15.5374 19.5525Z" fill="#4C5671"/>
<path d="M7.25173 18.7769L7.24936 19.6255L6.51074 19.1991L6.51312 18.3503L7.25173 18.7769Z" fill="#0085FF"/>
<path d="M8.79397 19.6664L8.7916 20.5151L8.05298 20.0886L8.05535 19.24L8.79397 19.6664Z" fill="#0085FF"/>
<path d="M10.333 20.5561L10.3307 21.4046L9.59204 20.9782L9.59441 20.1295L10.333 20.5561Z" fill="#0085FF"/>
<path d="M11.8738 21.4454L11.8714 22.294L11.1116 21.8553L11.1141 21.0067L11.8738 21.4454Z" fill="#0085FF"/>
<path d="M13.3925 22.323L13.3901 23.1716L12.6515 22.7452L12.6539 21.8965L13.3925 22.323Z" fill="#0085FF"/>
<path d="M23.8624 18.7785L23.8648 19.627L24.6036 19.2006L24.601 18.3519L23.8624 18.7785Z" fill="white"/>
<path d="M22.3219 19.6679L22.3243 20.5166L23.0629 20.09L23.0605 19.2415L22.3219 19.6679Z" fill="white"/>
<path d="M20.7808 20.5575L20.7831 21.4061L21.5218 20.9797L21.5194 20.131L20.7808 20.5575Z" fill="white"/>
<path d="M19.2402 21.447L19.2426 22.2956L20.0025 21.8569L20.0001 21.0083L19.2402 21.447Z" fill="white"/>
<path d="M17.7208 22.3245L17.7232 23.1731L18.462 22.7467L18.4594 21.8979L17.7208 22.3245Z" fill="white"/>
<path d="M15.5406 17.4659L15.55 20.7609L25.6406 14.9351L25.6312 11.6401L15.5406 17.4659Z" fill="#9DA9C1"/>
<path d="M5.51099 11.6368L5.52035 14.9318L15.5504 20.7606L15.541 17.4657L5.51099 11.6368Z" fill="#B4BED7"/>
<path d="M15.5367 14.2995L15.5472 19.1148L26.7889 12.6244L26.7785 7.80908L15.5367 14.2995Z" fill="#B4BED7"/>
<path d="M4.36194 7.80566L4.37235 12.621L15.5467 19.1148L15.5363 14.2995L4.36194 7.80566Z" fill="#D3DBEA"/>
<path d="M4.36389 7.80261L15.5408 14.2966L26.7806 7.81184L15.6038 1.31824L4.36389 7.80261Z" fill="#E3E7F0"/>
<path d="M7.25393 11.4761L7.25156 12.3248L6.51294 11.8983L6.51531 11.0497L7.25393 11.4761Z" fill="#5793FB"/>
<path d="M8.79397 12.3656L8.7916 13.2142L8.05298 12.7877L8.05535 11.9391L8.79397 12.3656Z" fill="#5793FB"/>
<path d="M10.335 13.2551L10.3326 14.1037L9.59399 13.6773L9.59637 12.8287L10.335 13.2551Z" fill="#5793FB"/>
<path d="M11.8753 14.1447L11.8729 14.9934L11.113 14.5548L11.1155 13.7061L11.8753 14.1447Z" fill="#5793FB"/>
<path d="M13.3954 15.0219L13.393 15.8706L12.6544 15.444L12.6568 14.5955L13.3954 15.0219Z" fill="#5793FB"/>
<path d="M23.8606 11.4782L23.863 12.3269L24.6017 11.9003L24.5992 11.0518L23.8606 11.4782Z" fill="white"/>
<path d="M22.3215 12.3676L22.3239 13.2162L23.0625 12.7896L23.0602 11.941L22.3215 12.3676Z" fill="white"/>
<path d="M20.78 13.257L20.7824 14.1056L21.521 13.6792L21.5186 12.8306L20.78 13.257Z" fill="white"/>
<path d="M19.2419 14.1459L19.2443 14.9947L20.0042 14.556L20.0018 13.7073L19.2419 14.1459Z" fill="white"/>
<path d="M17.7208 15.0237L17.7232 15.8724L18.462 15.4459L18.4594 14.5973L17.7208 15.0237Z" fill="white"/>
<path d="M32.9628 39.3755L32.9732 54.2821L44.2149 47.7917L44.2045 32.885L32.9628 39.3755Z" fill="#B4BED7"/>
<path d="M21.7885 32.8816L21.7989 47.7883L32.9732 54.2821L32.9628 39.3755L21.7885 32.8816Z" fill="#D3DBEA"/>
<path d="M21.7894 32.8784L32.9663 39.3724L44.2062 32.8876L33.0293 26.394L21.7894 32.8784Z" fill="#E3E7F0"/>
<path d="M32.9659 34.9067L32.9753 38.2016L43.0659 32.3759L43.0565 29.0809L32.9659 34.9067Z" fill="#9DA9C1"/>
<path d="M22.9371 29.0779L22.9465 32.3728L32.9765 38.2016L32.9672 34.9067L22.9371 29.0779Z" fill="#B4BED7"/>
<path d="M32.9628 31.7401L32.9732 36.5555L44.2149 30.065L44.2045 25.2498L32.9628 31.7401Z" fill="#B4BED7"/>
<path d="M21.7885 25.2463L21.7989 30.0616L32.9732 36.5555L32.9628 31.7401L21.7885 25.2463Z" fill="#D3DBEA"/>
<path d="M21.7909 25.243L32.9678 31.737L44.2076 25.2523L33.0308 18.7587L21.7909 25.243Z" fill="#E3E7F0"/>
<path d="M32.9649 29.6924L25.3275 25.2525L33.0189 20.8033L40.6654 25.2433L32.9649 29.6924Z" fill="#4C5671"/>
<path d="M24.6807 28.9168L24.6783 29.7654L23.9397 29.339L23.9421 28.4902L24.6807 28.9168Z" fill="#0085FF"/>
<path d="M26.2222 29.8064L26.2197 30.6551L25.4811 30.2286L25.4835 29.38L26.2222 29.8064Z" fill="#0085FF"/>
<path d="M27.7616 30.6958L27.7592 31.5445L27.0206 31.1181L27.023 30.2694L27.7616 30.6958Z" fill="#0085FF"/>
<path d="M29.3024 31.5854L29.3 32.434L28.5403 31.9953L28.5427 31.1467L29.3024 31.5854Z" fill="#0085FF"/>
<path d="M30.8218 32.4627L30.8194 33.3113L30.0808 32.8848L30.0832 32.0361L30.8218 32.4627Z" fill="#0085FF"/>
<path d="M41.2865 28.9188L41.2889 29.7674L42.0276 29.341L42.0253 28.4923L41.2865 28.9188Z" fill="white"/>
<path d="M39.7474 29.8084L39.7498 30.6571L40.4886 30.2305L40.4861 29.382L39.7474 29.8084Z" fill="white"/>
<path d="M38.2064 30.6978L38.2089 31.5465L38.9474 31.1201L38.945 30.2714L38.2064 30.6978Z" fill="white"/>
<path d="M36.6664 31.5871L36.6688 32.4357L37.4286 31.997L37.4262 31.1484L36.6664 31.5871Z" fill="white"/>
<path d="M35.1462 32.4647L35.1486 33.3133L35.8874 32.8869L35.885 32.0382L35.1462 32.4647Z" fill="white"/>
<path d="M32.9659 27.6062L32.9753 30.9011L43.0659 25.0753L43.0565 21.7804L32.9659 27.6062Z" fill="#9DA9C1"/>
<path d="M22.9371 21.7775L22.9465 25.0724L32.9765 30.9012L32.9672 27.6063L22.9371 21.7775Z" fill="#B4BED7"/>
<path d="M32.9633 24.4398L32.9737 29.2551L44.2154 22.7646L44.205 17.9493L32.9633 24.4398Z" fill="#B4BED7"/>
<path d="M21.7885 17.9458L21.7989 22.7611L32.9732 29.255L32.9628 24.4397L21.7885 17.9458Z" fill="#D3DBEA"/>
<path d="M21.7909 17.9426L32.9678 24.4366L44.2076 17.9519L33.0308 11.4583L21.7909 17.9426Z" fill="#E3E7F0"/>
<path d="M24.6807 21.6162L24.6783 22.4648L23.9397 22.0384L23.9421 21.1898L24.6807 21.6162Z" fill="#5793FB"/>
<path d="M26.2222 22.5058L26.2197 23.3543L25.4811 22.9278L25.4835 22.0792L26.2222 22.5058Z" fill="#5793FB"/>
<path d="M27.7616 23.3955L27.7592 24.2441L27.0206 23.8177L27.023 22.969L27.7616 23.3955Z" fill="#5793FB"/>
<path d="M29.3024 24.2849L29.3 25.1334L28.5403 24.6948L28.5427 23.8462L29.3024 24.2849Z" fill="#5793FB"/>
<path d="M30.8218 25.1622L30.8194 26.0108L30.0808 25.5844L30.0832 24.7358L30.8218 25.1622Z" fill="#5793FB"/>
<path d="M41.288 21.6182L41.2903 22.4668L42.0291 22.0404L42.0267 21.1918L41.288 21.6182Z" fill="white"/>
<path d="M39.7478 22.508L39.7502 23.3565L40.4889 22.93L40.4864 22.0814L39.7478 22.508Z" fill="white"/>
<path d="M38.2078 23.3974L38.2103 24.2459L38.9488 23.8195L38.9464 22.9708L38.2078 23.3974Z" fill="white"/>
<path d="M36.6669 24.2866L36.6692 25.1351L37.4291 24.6965L37.4267 23.8479L36.6669 24.2866Z" fill="white"/>
<path d="M35.1467 25.1641L35.1491 26.0127L35.8879 25.5863L35.8855 24.7377L35.1467 25.1641Z" fill="white"/>
<path d="M50.3879 49.5154L50.3984 64.4221L61.6401 57.9316L61.6297 43.025L50.3879 49.5154Z" fill="#B4BED7"/>
<path d="M39.2156 43.0214L39.226 57.9281L50.4003 64.422L50.3899 49.5153L39.2156 43.0214Z" fill="#D3DBEA"/>
<path d="M39.217 43.0184L50.3939 49.5124L61.6338 43.0277L50.4569 36.5341L39.217 43.0184Z" fill="#E3E7F0"/>
<path d="M50.3927 45.0465L50.4021 48.3414L60.4926 42.5156L60.4833 39.2207L50.3927 45.0465Z" fill="#9DA9C1"/>
<path d="M40.3619 39.2177L40.3713 42.5126L50.4013 48.3414L50.392 45.0465L40.3619 39.2177Z" fill="#B4BED7"/>
<path d="M50.3899 41.88L50.4003 46.6954L61.642 40.2049L61.6316 35.3895L50.3899 41.88Z" fill="#B4BED7"/>
<path d="M39.2156 35.386L39.226 40.2014L50.4003 46.6953L50.3899 41.8799L39.2156 35.386Z" fill="#D3DBEA"/>
<path d="M39.2181 35.3829L50.395 41.8769L61.6349 35.3922L50.458 28.8986L39.2181 35.3829Z" fill="#E3E7F0"/>
<path d="M50.3924 39.8322L42.755 35.3923L50.4464 30.9431L58.0929 35.383L50.3924 39.8322Z" fill="#4C5671"/>
<path d="M42.1065 39.0568L42.104 39.9054L41.3654 39.479L41.3677 38.6302L42.1065 39.0568Z" fill="#0085FF"/>
<path d="M43.647 39.9464L43.6445 40.7951L42.9059 40.3686L42.9083 39.52L43.647 39.9464Z" fill="#0085FF"/>
<path d="M45.1874 40.8358L45.185 41.6845L44.4464 41.258L44.4489 40.4094L45.1874 40.8358Z" fill="#0085FF"/>
<path d="M46.7283 41.7253L46.7258 42.5739L45.9661 42.1352L45.9684 41.2866L46.7283 41.7253Z" fill="#0085FF"/>
<path d="M48.2481 42.6029L48.2456 43.4515L47.507 43.025L47.5093 42.1763L48.2481 42.6029Z" fill="#0085FF"/>
<path d="M58.7156 39.0586L58.7181 39.9072L59.4567 39.4808L59.4543 38.6321L58.7156 39.0586Z" fill="white"/>
<path d="M57.1754 39.9478L57.1778 40.7965L57.9165 40.3699L57.9142 39.5214L57.1754 39.9478Z" fill="white"/>
<path d="M55.6344 40.8377L55.6369 41.6864L56.3755 41.2598L56.373 40.4113L55.6344 40.8377Z" fill="white"/>
<path d="M54.0939 41.7271L54.0964 42.5757L54.8561 42.137L54.8537 41.2885L54.0939 41.7271Z" fill="white"/>
<path d="M52.5743 42.6043L52.5768 43.4529L53.3155 43.0265L53.3131 42.1778L52.5743 42.6043Z" fill="white"/>
<path d="M50.3927 37.7457L50.4021 41.0406L60.4926 35.2149L60.4833 31.9199L50.3927 37.7457Z" fill="#9DA9C1"/>
<path d="M40.3619 31.917L40.3713 35.2119L50.4013 41.0407L50.392 37.7458L40.3619 31.917Z" fill="#B4BED7"/>
<path d="M50.3899 34.5796L50.4003 39.3948L61.642 32.9044L61.6316 28.0891L50.3899 34.5796Z" fill="#B4BED7"/>
<path d="M39.2156 28.0856L39.226 32.9009L50.4003 39.3947L50.3899 34.5794L39.2156 28.0856Z" fill="#D3DBEA"/>
<path d="M39.2181 28.0824L50.395 34.5764L61.6349 28.0916L50.458 21.598L39.2181 28.0824Z" fill="#E3E7F0"/>
<path d="M42.1065 31.7562L42.104 32.6048L41.3654 32.1784L41.3677 31.3297L42.1065 31.7562Z" fill="#5793FB"/>
<path d="M43.6457 32.6459L43.6432 33.4946L42.9045 33.0681L42.9069 32.2195L43.6457 32.6459Z" fill="#5793FB"/>
<path d="M45.1879 33.5353L45.1855 34.3839L44.4469 33.9575L44.4494 33.1088L45.1879 33.5353Z" fill="#5793FB"/>
<path d="M46.7288 34.4246L46.7263 35.2732L45.9666 34.8345L45.9689 33.986L46.7288 34.4246Z" fill="#5793FB"/>
<path d="M48.2476 35.302L48.2451 36.1506L47.5065 35.7242L47.5088 34.8755L48.2476 35.302Z" fill="#5793FB"/>
<path d="M58.7164 31.7577L58.7189 32.6063L59.4576 32.1799L59.4552 31.3312L58.7164 31.7577Z" fill="white"/>
<path d="M57.1749 32.6474L57.1773 33.4961L57.9161 33.0695L57.9137 32.2209L57.1749 32.6474Z" fill="white"/>
<path d="M55.6335 33.537L55.636 34.3856L56.3747 33.9592L56.3722 33.1105L55.6335 33.537Z" fill="white"/>
<path d="M54.0948 34.4265L54.0974 35.275L54.8571 34.8364L54.8547 33.9878L54.0948 34.4265Z" fill="white"/>
<path d="M52.5743 35.3037L52.5768 36.1523L53.3155 35.7259L53.3131 34.8772L52.5743 35.3037Z" fill="white"/>
<g opacity="0.6">
<path d="M38.659 43.5391L13.4222 28.9876C13.2201 28.8704 13.038 28.8608 12.9037 28.933L11.7831 29.5561C11.9201 29.4794 12.1022 29.489 12.3043 29.6062L37.5386 44.1625C37.9426 44.3969 38.2676 44.9639 38.2604 45.4281L37.9805 64.0777C37.9765 64.3157 37.889 64.4812 37.752 64.5578L38.8699 63.939C39.0069 63.8623 39.0945 63.6969 39.0984 63.459L39.3783 44.8093C39.3836 44.338 39.0632 43.7736 38.659 43.5391Z" fill="#7BB1FF"/>
<path d="M11.5579 30.0278C11.5649 29.5602 11.9006 29.3739 12.3064 29.6078L37.54 44.1622C37.9458 44.3961 38.2669 44.9608 38.2597 45.4288L37.9809 64.0806C37.9739 64.5486 37.6415 64.7404 37.2358 64.5065L12.0022 49.952C11.5964 49.7181 11.2721 49.1475 11.279 48.68L11.5579 30.0278Z" fill="#3A53D0"/>
</g>
<path d="M17.9959 50.1337L17.9934 51.0083L13.2697 48.281L13.2722 47.4064L17.9959 50.1337Z" fill="white"/>
<path d="M15.5341 47.0409L15.5317 47.9095L13.2736 46.6058L13.2761 45.7372L15.5341 47.0409Z" fill="white"/>
<path d="M18.0076 45.8525L18.0053 46.7211L13.2814 43.9938L13.2839 43.1252L18.0076 45.8525Z" fill="white"/>
<path d="M15.5469 42.7542L15.5444 43.6285L13.2863 42.3247L13.2888 41.4504L15.5469 42.7542Z" fill="white"/>
<path d="M18.0206 41.5716L18.0182 42.4402L13.2943 39.7129L13.2968 38.8442L18.0206 41.5716Z" fill="white"/>
<path d="M15.5587 38.4728L15.5562 39.3416L13.298 38.0377L13.3005 37.1691L15.5587 38.4728Z" fill="white"/>
<path d="M18.0321 37.2847L18.0296 38.1592L13.3057 35.4319L13.3082 34.5574L18.0321 37.2847Z" fill="white"/>
<path d="M15.572 34.1915L15.5695 35.0602L13.3113 33.7564L13.3138 32.8878L15.572 34.1915Z" fill="white"/>
<path d="M36.3971 60.7578L21.445 52.1246L21.4425 52.9999L36.3971 61.6336V60.7578Z" fill="white"/>
<path d="M36.3979 59.0858L21.4505 50.4559L21.448 51.3244L36.3979 59.9556V59.0858Z" fill="white"/>
<path d="M36.3973 56.4694L21.4573 47.8435L21.4548 48.7128L36.3973 57.3392V56.4694Z" fill="white"/>
<path d="M36.3975 54.7918L21.4622 46.1686L21.4597 47.0431L36.3975 55.667V54.7918Z" fill="white"/>
<path d="M36.398 52.1818L21.4702 43.5626L21.4677 44.4318L36.398 53.0517V52.1818Z" fill="white"/>
<path d="M36.3965 50.5034L21.4735 41.8876L21.4709 42.7562L36.3965 51.3734V50.5034Z" fill="white"/>
<path d="M36.398 47.8875L21.4822 39.2756L21.4797 40.1509L36.398 48.7634V47.8875Z" fill="white"/>
<path d="M36.3965 46.2152L21.4855 37.6066L21.483 38.4752L36.3965 47.085V46.2152Z" fill="white"/>
<path d="M33.029 13.5035L40.6664 17.9432L32.975 22.3925L25.3285 17.9528L33.029 13.5035Z" fill="#0085FF"/>
<path d="M15.6018 3.36389L23.2391 7.80354L15.5477 12.2528L7.90137 7.81316L15.6018 3.36389Z" fill="#0085FF"/>
<path d="M50.3943 32.5315L42.757 28.0916L50.4484 23.6425L58.0949 28.0824L50.3943 32.5315Z" fill="#5793FB"/>
<path d="M35.2859 18.8507L35.6693 19.2294L35.114 19.5405L34.4737 19.3054C34.1748 19.413 33.8532 19.4848 33.5193 19.5205L33.3285 19.945L32.5533 19.9379L32.3851 19.509C32.0555 19.4646 31.7356 19.3857 31.4428 19.271L30.7904 19.4919L30.2538 19.1678L30.6577 18.7978C30.4712 18.6271 30.3463 18.4377 30.2808 18.2456L29.5497 18.1324L29.5621 17.6849L30.2995 17.5902C30.3727 17.3981 30.5102 17.2117 30.7048 17.0438L30.3214 16.6651L30.8793 16.3553L31.5194 16.5905C31.8159 16.4815 32.1424 16.4098 32.4738 16.3726L32.6671 15.9495L33.4396 15.958L33.6055 16.3854C33.935 16.4298 34.2574 16.5101 34.5477 16.6235L35.2001 16.4026L35.7393 16.7253L35.3354 17.0952C35.5221 17.2688 35.6493 17.4568 35.7123 17.6503L36.4458 17.7623L36.4334 18.2098L35.6936 18.3059C35.6208 18.4979 35.4832 18.6815 35.2859 18.8507ZM32.0683 18.4885C32.5743 18.7807 33.3952 18.787 33.9122 18.498C34.4355 18.2054 34.4501 17.7221 33.9433 17.418C33.9372 17.4143 33.9313 17.4108 33.9252 17.4072C33.417 17.1137 32.5983 17.1088 32.0813 17.3978C31.5555 17.689 31.541 18.1723 32.0502 18.4778C32.0561 18.4815 32.0622 18.4849 32.0683 18.4885Z" fill="white"/>
<path d="M17.8574 8.71094L18.2409 9.08961L17.6855 9.40078L17.0452 9.16569C16.7463 9.27328 16.4248 9.345 16.0908 9.38073L15.9 9.80529L15.1249 9.79817L14.9568 9.36913C14.6271 9.3247 14.3073 9.24585 14.0144 9.13114L13.362 9.35199L12.8254 9.0279L13.2294 8.65793C13.0428 8.48719 12.918 8.29785 12.8524 8.10561L12.1213 7.99235L12.1337 7.54486L12.8712 7.45019C12.9443 7.25808 13.0819 7.07165 13.2765 6.9038L12.8931 6.52513L13.4509 6.21528L14.091 6.4505C14.3876 6.34146 14.714 6.26974 15.0455 6.23255L15.2388 5.80945L16.0113 5.81802L16.1772 6.24534C16.5066 6.28978 16.829 6.37007 17.1193 6.48346L17.7717 6.26262L18.311 6.58525L17.907 6.95522C18.0937 7.12874 18.2209 7.31676 18.284 7.51031L19.0174 7.62212L19.0051 8.06962L18.2653 8.16574C18.1923 8.35797 18.0546 8.54164 17.8574 8.71094ZM14.6398 8.34861C15.1458 8.64079 15.9667 8.64712 16.4837 8.35811C17.007 8.06553 17.0216 7.58217 16.5148 7.27812C16.5088 7.27443 16.5028 7.27087 16.4968 7.26731C15.9885 6.97381 15.1698 6.96894 14.6528 7.25795C14.127 7.54908 14.1125 8.03244 14.6217 8.33793C14.6277 8.34163 14.6337 8.34518 14.6398 8.34861Z" fill="white"/>
<path d="M52.7119 28.9908L53.0954 29.3695L52.54 29.6807L51.8998 29.4455C51.6008 29.553 51.2793 29.6248 50.9453 29.6605L50.7545 30.0851L49.9794 30.0779L49.8111 29.649C49.4815 29.6046 49.1616 29.5257 48.8688 29.411L48.2164 29.6319L47.6798 29.3078L48.0838 28.9378C47.8972 28.7671 47.7723 28.5777 47.7068 28.3856L46.9757 28.2724L46.9881 27.8249L47.7255 27.7302C47.7987 27.5381 47.9362 27.3517 48.1308 27.1838L47.7476 26.8052L48.3054 26.4953L48.9455 26.7305C49.2421 26.6215 49.5685 26.5498 49.9 26.5126L50.0933 26.0895L50.8658 26.098L51.0317 26.5254C51.3611 26.5698 51.6835 26.6501 51.9739 26.7635L52.6262 26.5426L53.1655 26.8653L52.7615 27.2353C52.9482 27.4088 53.0755 27.5968 53.1385 27.7903L53.872 27.9023L53.8596 28.3498L53.1198 28.4459C53.0468 28.638 52.9092 28.8217 52.7119 28.9908ZM49.4943 28.6286C50.0003 28.9208 50.8212 28.9271 51.3382 28.6381C51.8615 28.3456 51.8762 27.8622 51.3693 27.5582C51.3633 27.5545 51.3573 27.5509 51.3513 27.5473C50.843 27.2538 50.0243 27.249 49.5073 27.538C48.9815 27.8291 48.967 28.3125 49.4762 28.618C49.4822 28.6217 49.4882 28.6251 49.4943 28.6286Z" fill="white"/>
</svg>
