<svg width="1440" height="421" viewBox="0 0 1440 421" fill="none" xmlns="http://www.w3.org/2000/svg">
<g filter="url(#filter0_d_12352_187109)">
<rect x="62" y="68" width="1317" height="233" rx="17" fill="white"/>
<path d="M108.935 96.5H109.016C109.432 96.6983 109.838 96.9186 110.231 97.16C114.755 99.7617 119.279 102.364 123.803 104.967C123.978 105.061 124.121 105.205 124.214 105.38C124.306 105.556 124.343 105.755 124.321 105.952C124.311 111.439 124.321 116.924 124.315 122.407C124.256 122.669 124.096 122.897 123.87 123.041C119.059 125.811 114.247 128.58 109.436 131.346C109.319 131.435 109.179 131.487 109.032 131.495C108.886 131.504 108.74 131.468 108.615 131.392C103.798 128.631 98.9858 125.864 94.1783 123.092C94.0221 123.019 93.8912 122.9 93.8022 122.752C93.7132 122.604 93.6701 122.433 93.6783 122.26C93.6783 116.775 93.6783 111.29 93.6783 105.806C93.6665 105.634 93.7062 105.463 93.7924 105.314C93.8786 105.165 94.0073 105.044 94.1621 104.969C98.6804 102.37 103.199 99.7704 107.717 97.1688C108.12 96.9388 108.515 96.695 108.935 96.5Z" fill="#019639"/>
<path d="M99.959 107.173C99.959 111.697 99.959 116.222 99.959 120.747C99.9532 120.997 99.9975 121.247 100.089 121.48C100.181 121.713 100.318 121.926 100.493 122.105C100.828 122.436 101.266 122.643 101.735 122.689C102.203 122.736 102.674 122.621 103.068 122.363C103.331 122.184 103.547 121.943 103.697 121.661C103.846 121.379 103.924 121.066 103.924 120.747C103.924 117.472 103.918 114.197 103.924 110.922C106.91 114.497 109.902 118.067 112.9 121.632C113.317 122.054 113.833 122.364 114.401 122.535C114.968 122.706 115.57 122.731 116.15 122.609C116.56 122.528 116.933 122.318 117.214 122.01C117.496 121.701 117.671 121.311 117.714 120.895C117.721 116.278 117.721 111.661 117.714 107.044C117.671 106.551 117.445 106.093 117.08 105.758C116.715 105.424 116.239 105.239 115.744 105.239C115.249 105.239 114.773 105.424 114.408 105.758C114.043 106.093 113.817 106.551 113.774 107.044C113.774 110.372 113.754 113.695 113.774 117.022C110.841 113.564 107.945 110.077 105.024 106.607C104.639 106.113 104.129 105.731 103.547 105.5C102.965 105.268 102.332 105.197 101.713 105.292C101.244 105.344 100.809 105.562 100.487 105.907C100.166 106.253 99.9782 106.702 99.959 107.173Z" fill="white"/>
<path d="M137.204 107.124H139.444L144.164 114.884V107.124H146.388V118.5H144.148L139.444 110.756V118.5H137.204V107.124ZM151.653 121.828C151.035 121.828 150.432 121.705 149.845 121.46C149.269 121.215 148.827 120.889 148.517 120.484L149.493 119.204C150.016 119.855 150.704 120.18 151.557 120.18C152.187 120.18 152.667 120.009 152.997 119.668C153.328 119.337 153.493 118.852 153.493 118.212V117.764C152.96 118.361 152.261 118.66 151.397 118.66C150.725 118.66 150.133 118.479 149.621 118.116C149.109 117.753 148.709 117.241 148.421 116.58C148.144 115.919 148.005 115.145 148.005 114.26V114.164C148.005 113.3 148.149 112.548 148.437 111.908C148.725 111.257 149.125 110.761 149.637 110.42C150.149 110.068 150.741 109.892 151.413 109.892C152.363 109.892 153.099 110.217 153.621 110.868L153.701 110.052H155.669V118.228C155.669 118.729 155.547 119.252 155.301 119.796C155.056 120.351 154.635 120.825 154.037 121.22C153.44 121.625 152.645 121.828 151.653 121.828ZM150.165 114.372C150.165 115.172 150.32 115.801 150.629 116.26C150.949 116.719 151.392 116.948 151.957 116.948C152.661 116.948 153.173 116.665 153.493 116.1V112.436C153.163 111.881 152.656 111.604 151.973 111.604C151.397 111.604 150.949 111.839 150.629 112.308C150.32 112.777 150.165 113.465 150.165 114.372ZM157.563 110.052H159.739V118.5H157.563V110.052ZM157.435 107.844C157.435 107.524 157.541 107.263 157.755 107.06C157.979 106.847 158.277 106.74 158.651 106.74C159.013 106.74 159.307 106.847 159.531 107.06C159.755 107.263 159.867 107.524 159.867 107.844C159.867 108.164 159.755 108.431 159.531 108.644C159.307 108.847 159.013 108.948 158.651 108.948C158.277 108.948 157.979 108.847 157.755 108.644C157.541 108.431 157.435 108.164 157.435 107.844ZM163.462 114.196L161.03 110.052H163.366L164.806 112.676L166.294 110.052H168.614L166.166 114.196L168.726 118.5H166.39L164.822 115.732L163.254 118.5H160.918L163.462 114.196Z" fill="black"/>
<rect x="254.5" y="84.5" width="962" height="59" rx="13.5" stroke="#ECECEC"/>
<rect x="260" y="90" width="230" height="48" rx="12" fill="#D6E5FF"/>
<path d="M1243.72 105.28C1244.56 107.973 1245.18 109.9 1245.58 111.06C1245.99 112.22 1246.38 113.147 1246.74 113.84C1247.1 114.533 1247.68 115.54 1248.48 116.86L1245.24 119.1C1244.63 118.1 1244.17 117.28 1243.86 116.64C1243.55 116 1243.29 115.293 1243.06 114.52C1242.83 113.733 1242.55 112.58 1242.22 111.06C1241.87 112.58 1241.58 113.74 1241.34 114.54C1241.1 115.327 1240.83 116.033 1240.54 116.66C1240.25 117.273 1239.8 118.08 1239.2 119.08L1235.94 116.88C1236.77 115.547 1237.36 114.527 1237.72 113.82C1238.08 113.113 1238.45 112.187 1238.84 111.04C1239.23 109.893 1239.82 107.973 1240.62 105.28H1243.72ZM1253.47 105.3C1253.88 106.5 1254.19 107.56 1254.39 108.48C1254.48 108.76 1254.62 108.953 1254.79 109.06C1254.98 109.167 1255.22 109.22 1255.53 109.22C1255.81 109.22 1256.02 109.147 1256.15 109C1256.3 108.853 1256.35 108.633 1256.31 108.34L1255.95 105.9L1259.63 105.3L1260.03 108.16C1260.07 108.44 1260.09 108.72 1260.09 109C1260.09 109.893 1259.88 110.687 1259.45 111.38C1259.04 112.06 1258.48 112.587 1257.79 112.96C1257.1 113.333 1256.36 113.52 1255.57 113.52C1255.33 113.52 1255.09 113.5 1254.85 113.46L1254.83 115.2L1254.79 119H1250.99L1251.03 115.2L1251.05 113.2C1251.05 112.053 1250.98 111.047 1250.83 110.18C1250.68 109.3 1250.36 108.133 1249.87 106.68L1253.47 105.3ZM1272.86 111.54C1271.97 112.207 1271.25 112.793 1270.7 113.3C1270.17 113.807 1269.72 114.293 1269.36 114.76C1269 115.213 1268.53 115.853 1267.94 116.68L1267.08 117.88L1265.7 119.8L1262.58 117.66L1263.96 115.74L1265.22 113.94C1264.28 113.673 1263.54 113.193 1263 112.5C1262.64 112.06 1262.37 111.573 1262.18 111.04C1262 110.507 1261.9 109.96 1261.9 109.4C1261.9 108.68 1262.06 107.993 1262.36 107.34C1262.67 106.687 1263.12 106.133 1263.7 105.68C1264.09 105.387 1264.46 105.167 1264.8 105.02C1265.16 104.873 1265.52 104.773 1265.86 104.72C1266.21 104.653 1266.72 104.58 1267.4 104.5C1267.5 104.5 1267.65 104.487 1267.86 104.46L1268.48 108C1267.71 108.093 1267.17 108.187 1266.86 108.28C1266.56 108.36 1266.27 108.52 1266 108.76C1265.86 108.88 1265.74 109.027 1265.66 109.2C1265.58 109.36 1265.54 109.527 1265.54 109.7C1265.54 109.953 1265.62 110.18 1265.78 110.38C1266 110.633 1266.28 110.76 1266.62 110.76C1267.25 110.76 1268.1 110.353 1269.18 109.54C1269.72 109.1 1270.22 108.707 1270.68 108.36L1272.86 111.54Z" fill="black"/>
<path d="M1281.74 109.942C1281.3 109.942 1280.92 109.847 1280.59 109.657C1280.27 109.459 1280.02 109.198 1279.84 108.873C1279.67 108.549 1279.59 108.196 1279.59 107.815C1279.59 107.646 1279.6 107.49 1279.63 107.349C1279.66 107.152 1279.71 106.915 1279.77 106.64C1279.82 106.365 1279.88 106.125 1279.93 105.92L1281.16 106.227L1281.09 106.566C1280.95 107.116 1280.88 107.497 1280.88 107.709C1280.88 107.928 1280.95 108.101 1281.1 108.228C1281.25 108.355 1281.46 108.418 1281.74 108.418H1286.34C1286.63 108.418 1286.83 108.379 1286.95 108.302C1287.07 108.217 1287.13 108.076 1287.13 107.878V106.397H1288.49V107.931C1288.49 108.115 1288.53 108.242 1288.63 108.312C1288.72 108.383 1288.88 108.418 1289.09 108.418H1289.41L1289.47 109.201L1289.41 109.942H1289.09C1288.87 109.942 1288.63 109.9 1288.39 109.815C1288.16 109.724 1287.95 109.586 1287.77 109.403C1287.61 109.586 1287.4 109.724 1287.15 109.815C1286.91 109.9 1286.64 109.942 1286.34 109.942H1281.74ZM1282.58 104.851H1283.84V106.121H1282.58V104.851ZM1284.57 104.851H1285.83V106.121H1284.57V104.851ZM1289.3 108.418H1290.07C1290.32 108.418 1290.5 108.369 1290.6 108.27C1290.71 108.164 1290.77 107.998 1290.77 107.773V106.397H1292.11V107.804C1292.11 108.016 1292.17 108.171 1292.28 108.27C1292.4 108.369 1292.57 108.418 1292.77 108.418C1293.23 108.418 1293.46 108.196 1293.46 107.751V106.397H1294.8L1294.79 107.804C1294.79 108.214 1295 108.418 1295.43 108.418C1295.65 108.418 1295.82 108.358 1295.95 108.238C1296.08 108.118 1296.13 107.96 1296.11 107.762C1296.01 107.12 1295.9 106.541 1295.8 106.026L1297.07 105.709C1297.31 106.746 1297.43 107.483 1297.43 107.921C1297.43 108.274 1297.36 108.605 1297.22 108.916C1297.08 109.219 1296.86 109.466 1296.56 109.657C1296.26 109.847 1295.89 109.942 1295.43 109.942C1295.16 109.942 1294.91 109.889 1294.69 109.784C1294.46 109.671 1294.27 109.523 1294.12 109.339C1293.95 109.523 1293.75 109.671 1293.51 109.784C1293.28 109.889 1293.02 109.942 1292.73 109.942C1292.49 109.942 1292.23 109.882 1291.97 109.762C1291.71 109.642 1291.51 109.501 1291.39 109.339C1291.27 109.515 1291.08 109.66 1290.83 109.773C1290.59 109.886 1290.32 109.942 1290.02 109.942H1289.3V108.418ZM1298.79 102.872H1300.13V109.942H1298.79V102.872ZM1302.81 111.16C1303.24 111.16 1303.57 111.121 1303.8 111.043C1304.03 110.973 1304.18 110.849 1304.27 110.673C1304.36 110.503 1304.41 110.26 1304.42 109.942H1303.51C1302.84 109.942 1302.31 109.748 1301.92 109.36C1301.53 108.965 1301.33 108.415 1301.33 107.709C1301.33 107.208 1301.43 106.763 1301.61 106.375C1301.8 105.987 1302.06 105.687 1302.38 105.476C1302.71 105.257 1303.09 105.148 1303.5 105.148C1303.96 105.148 1304.35 105.253 1304.69 105.465C1305.04 105.677 1305.3 105.977 1305.48 106.365C1305.67 106.753 1305.77 107.201 1305.77 107.709V108.418H1306.35L1306.44 109.191L1306.35 109.942H1305.77C1305.74 110.768 1305.49 111.431 1305.01 111.932C1304.53 112.433 1303.79 112.684 1302.81 112.684H1301.55V111.16H1302.81ZM1302.63 107.635C1302.63 107.924 1302.7 108.139 1302.84 108.281C1302.98 108.415 1303.2 108.482 1303.51 108.482H1304.42V107.677C1304.42 106.943 1304.12 106.576 1303.5 106.576C1303.21 106.576 1303 106.675 1302.85 106.873C1302.7 107.07 1302.63 107.324 1302.63 107.635ZM1306.2 108.418H1307.47C1308.13 108.418 1308.76 108.334 1309.34 108.164C1309.93 107.995 1310.53 107.744 1311.15 107.413C1309.66 106.898 1308.8 106.64 1308.55 106.64C1308.4 106.64 1308.28 106.686 1308.18 106.778C1308.08 106.862 1307.99 107.01 1307.91 107.222L1306.73 106.841C1306.89 106.291 1307.13 105.871 1307.45 105.582C1307.76 105.292 1308.13 105.148 1308.55 105.148C1308.84 105.148 1309.29 105.257 1309.91 105.476C1310.54 105.694 1311.37 106.015 1312.39 106.439L1312.59 108.101C1311.93 108.517 1311.35 108.849 1310.87 109.096C1310.38 109.343 1309.85 109.547 1309.29 109.71C1308.72 109.865 1308.12 109.942 1307.47 109.942H1306.2V108.418ZM1307.96 102.851H1309.36V104.227H1307.96V102.851ZM1315.79 106.397V109.381C1315.79 110.398 1315.52 111.188 1314.99 111.752C1314.46 112.324 1313.71 112.61 1312.73 112.61H1312.06V111.086H1312.73C1313.17 111.086 1313.52 111.033 1313.75 110.927C1314 110.828 1314.17 110.655 1314.27 110.408C1314.38 110.168 1314.43 109.826 1314.43 109.381V106.397H1315.79ZM1319.89 105.052C1320.68 106.28 1321.05 106.862 1321.01 106.799C1321.29 107.243 1321.42 107.684 1321.42 108.122C1321.42 108.503 1321.33 108.831 1321.13 109.106C1320.92 109.41 1320.66 109.625 1320.35 109.752C1320.04 109.879 1319.68 109.942 1319.25 109.942H1318.69C1318.25 109.942 1317.86 109.872 1317.52 109.731C1317.18 109.583 1316.92 109.424 1316.73 109.254L1317.36 108.037C1317.49 108.122 1317.67 108.207 1317.89 108.291C1318.12 108.376 1318.39 108.418 1318.7 108.418H1319.22C1319.46 108.418 1319.64 108.404 1319.76 108.376C1319.88 108.341 1319.97 108.281 1320.03 108.196C1320.06 108.139 1320.08 108.083 1320.08 108.027C1320.08 107.914 1320.02 107.758 1319.89 107.561C1319.45 106.883 1318.91 106.079 1318.27 105.148L1319.4 104.301L1319.89 105.052Z" fill="black"/>
<path d="M1284.28 118.905C1284.62 120.394 1284.91 121.579 1285.12 122.461C1285.24 122.962 1285.48 123.319 1285.82 123.53C1286.18 123.742 1286.56 123.848 1286.99 123.848H1287.2L1287.22 124.017L1287.2 124.166H1286.99C1286.51 124.166 1286.07 124.042 1285.64 123.795C1285.23 123.541 1284.95 123.125 1284.81 122.546L1284.77 122.398C1284.73 122.588 1284.67 122.758 1284.57 122.906C1284.43 123.174 1284.22 123.382 1283.97 123.53C1283.72 123.672 1283.44 123.742 1283.16 123.742C1282.85 123.742 1282.57 123.665 1282.31 123.509C1282.05 123.361 1281.85 123.16 1281.7 122.906C1281.56 122.652 1281.49 122.38 1281.49 122.091C1281.49 121.78 1281.57 121.502 1281.72 121.255C1281.81 121.092 1281.93 120.948 1282.08 120.821C1282.22 120.694 1282.45 120.549 1282.76 120.387C1283.08 120.225 1283.54 120.02 1284.15 119.773L1283.97 118.99L1284.28 118.905ZM1281.99 121.424C1281.86 121.636 1281.8 121.862 1281.8 122.102C1281.8 122.334 1281.86 122.553 1281.98 122.758C1282.1 122.955 1282.27 123.114 1282.48 123.234C1282.7 123.368 1282.93 123.435 1283.17 123.435C1283.4 123.435 1283.61 123.375 1283.81 123.255C1284.01 123.135 1284.17 122.969 1284.3 122.758C1284.4 122.567 1284.48 122.405 1284.52 122.271C1284.57 122.137 1284.59 121.982 1284.59 121.805C1284.59 121.713 1284.59 121.643 1284.58 121.593L1284.22 120.09C1283.65 120.323 1283.22 120.514 1282.93 120.662C1282.64 120.81 1282.44 120.937 1282.31 121.043C1282.18 121.149 1282.08 121.276 1281.99 121.424ZM1289.85 121.054V122.779C1289.85 123.174 1289.98 123.453 1290.23 123.615C1290.47 123.77 1290.73 123.848 1290.99 123.848H1291.52L1291.55 124.007L1291.52 124.166H1290.99C1290.78 124.166 1290.54 124.113 1290.28 124.007C1290.02 123.901 1289.83 123.721 1289.7 123.467C1289.56 123.7 1289.36 123.876 1289.09 123.996C1288.83 124.109 1288.52 124.166 1288.17 124.166H1287.09V123.848H1288.17C1289.08 123.848 1289.54 123.492 1289.54 122.779V121.054H1289.85ZM1286.81 125.499H1287.52V126.208H1286.81V125.499ZM1288.28 125.499H1288.99V126.208H1288.28V125.499ZM1291.41 123.848H1292.51C1292.97 123.848 1293.28 123.739 1293.46 123.52C1293.64 123.301 1293.73 123.033 1293.73 122.715C1293.73 122.391 1293.62 121.731 1293.39 120.736L1293.71 120.673C1293.94 121.668 1294.05 122.349 1294.05 122.715C1294.05 123.096 1293.93 123.435 1293.69 123.732C1293.46 124.021 1293.06 124.166 1292.51 124.166H1291.41V123.848ZM1292.79 118.587H1293.5V119.297H1292.79V118.587ZM1297.17 124.166C1296.63 124.166 1296.23 124.039 1295.96 123.784C1295.7 123.523 1295.57 123.114 1295.57 122.557V117.296H1295.89V122.557C1295.89 123.029 1295.99 123.365 1296.19 123.562C1296.38 123.753 1296.71 123.848 1297.17 123.848H1297.29L1297.32 124.007L1297.29 124.166H1297.17ZM1297.18 123.848H1299.38L1299.4 124.017L1299.38 124.166H1297.18V123.848ZM1299.28 123.848H1301.48L1301.5 124.017L1301.48 124.166H1299.28V123.848ZM1301.38 123.848H1303.58L1303.6 124.017L1303.58 124.166H1301.38V123.848ZM1303.48 123.848H1305.68L1305.7 124.017L1305.68 124.166H1303.48V123.848ZM1305.57 123.848H1307.78L1307.8 124.017L1307.78 124.166H1305.57V123.848ZM1307.67 123.848H1309.1C1309.55 123.848 1309.87 123.739 1310.04 123.52C1310.23 123.301 1310.32 123.033 1310.32 122.715C1310.32 122.391 1310.21 121.731 1309.98 120.736L1310.3 120.673C1310.52 121.668 1310.64 122.349 1310.64 122.715C1310.64 123.096 1310.52 123.435 1310.28 123.732C1310.04 124.021 1309.65 124.166 1309.1 124.166H1307.67V123.848ZM1308.35 118.587H1309.06V119.297H1308.35V118.587ZM1309.2 117.518H1309.91V118.228H1309.2V117.518ZM1310.03 118.587H1310.74V119.297H1310.03V118.587ZM1317.02 121.054V122.779C1317.02 123.174 1317.14 123.453 1317.39 123.615C1317.64 123.77 1317.89 123.848 1318.15 123.848H1318.26L1318.29 124.007L1318.26 124.166H1318.15C1317.96 124.166 1317.76 124.12 1317.54 124.028C1317.33 123.936 1317.15 123.781 1317.02 123.562V124.208C1317.02 125.076 1316.8 125.729 1316.36 126.166C1315.93 126.611 1315.31 126.833 1314.48 126.833H1313.81V126.515H1314.48C1315.23 126.515 1315.79 126.328 1316.15 125.954C1316.52 125.58 1316.7 124.998 1316.7 124.208V121.054H1317.02ZM1318.15 123.848H1319.25C1319.71 123.848 1320.02 123.739 1320.2 123.52C1320.38 123.301 1320.47 123.033 1320.47 122.715C1320.47 122.391 1320.36 121.731 1320.13 120.736L1320.45 120.673C1320.68 121.668 1320.79 122.349 1320.79 122.715C1320.79 123.096 1320.67 123.435 1320.43 123.732C1320.2 124.021 1319.8 124.166 1319.25 124.166H1318.15V123.848ZM1319.13 125.499H1319.84V126.208H1319.13V125.499Z" fill="black"/>
<path d="M115.283 162.171C114.683 162.523 113.684 163.519 112.494 164.964L113.585 167.014C114.353 165.925 115.132 164.942 115.909 164.111C115.971 164.045 116 164.014 116 164.014C115.971 164.045 115.938 164.08 115.909 164.111C115.654 164.388 114.882 165.285 113.718 167.058C114.84 167.003 116.551 166.774 117.968 166.537C118.388 164.205 117.558 163.15 117.558 163.15C117.558 163.15 116.504 161.456 115.278 162.18L115.283 162.171Z" fill="url(#paint0_linear_12352_187109)"/>
<path d="M111.608 179.389C111.468 179.413 111.327 179.44 111.178 179.464C111.178 179.464 111.176 179.464 111.176 179.466C111.252 179.455 111.325 179.444 111.398 179.433C111.466 179.418 111.537 179.405 111.608 179.389Z" fill="#BD202E"/>
<path d="M111.608 179.389C111.468 179.413 111.327 179.44 111.178 179.464C111.178 179.464 111.176 179.464 111.176 179.466C111.252 179.455 111.325 179.444 111.398 179.433C111.466 179.418 111.537 179.405 111.608 179.389Z" fill="black"/>
<path d="M111.984 177.608C111.982 177.608 111.982 177.608 111.982 177.61C112.004 177.608 112.028 177.603 112.051 177.599C112.144 177.586 112.234 177.57 112.323 177.548C112.212 177.568 112.101 177.588 111.984 177.608Z" fill="#BD202E"/>
<path d="M111.984 177.608C111.982 177.608 111.982 177.608 111.982 177.61C112.004 177.608 112.028 177.603 112.051 177.599C112.144 177.586 112.234 177.57 112.323 177.548C112.212 177.568 112.101 177.588 111.984 177.608Z" fill="black"/>
<path d="M110.368 172.307C110.7 171.689 111.037 171.087 111.376 170.502C111.728 169.89 112.086 169.301 112.447 168.729C112.467 168.696 112.491 168.661 112.511 168.628C112.867 168.067 113.228 167.526 113.589 167.012L112.498 164.962C112.416 165.061 112.334 165.162 112.25 165.268C111.933 165.659 111.608 166.077 111.272 166.523C110.893 167.025 110.506 167.561 110.109 168.124C109.746 168.643 109.375 169.187 109.003 169.752C108.686 170.231 108.372 170.724 108.058 171.23C108.047 171.247 108.035 171.267 108.024 171.287L109.448 174.08C109.749 173.475 110.059 172.884 110.368 172.307Z" fill="url(#paint1_linear_12352_187109)"/>
<path d="M103.883 188.032C103.695 188.545 103.505 189.07 103.317 189.605C103.314 189.611 103.312 189.62 103.308 189.627C103.281 189.701 103.252 189.778 103.228 189.853C103.1 190.214 102.989 190.539 102.734 191.276C103.153 191.465 103.489 191.967 103.808 192.534C103.775 191.947 103.531 191.395 103.064 190.968C105.129 191.06 106.916 190.541 107.823 189.042C107.905 188.907 107.98 188.769 108.049 188.617C107.631 189.145 107.11 189.367 106.134 189.314C107.573 188.674 108.292 188.061 108.923 187.049C109.074 186.807 109.222 186.545 109.373 186.253C108.115 187.535 106.672 187.9 105.123 187.623L103.972 187.748C103.934 187.845 103.901 187.94 103.863 188.037L103.883 188.032Z" fill="url(#paint2_linear_12352_187109)"/>
<path d="M104.436 185.481C104.684 184.843 104.941 184.196 105.202 183.545C105.455 182.921 105.711 182.292 105.977 181.663C106.243 181.034 106.513 180.398 106.787 179.765C107.066 179.121 107.354 178.478 107.648 177.838C107.938 177.205 108.23 176.576 108.529 175.956C108.635 175.732 108.746 175.507 108.854 175.285C109.043 174.9 109.233 174.518 109.426 174.139C109.437 174.119 109.445 174.098 109.457 174.078L108.033 171.285C108.011 171.322 107.987 171.362 107.962 171.397C107.63 171.936 107.301 172.485 106.977 173.046C106.65 173.614 106.329 174.192 106.015 174.779C105.751 175.274 105.492 175.771 105.238 176.277C105.187 176.378 105.138 176.481 105.087 176.583C104.777 177.218 104.498 177.827 104.244 178.419C103.956 179.085 103.704 179.723 103.485 180.328C103.339 180.726 103.208 181.109 103.086 181.478C102.987 181.793 102.894 182.109 102.801 182.424C102.588 183.163 102.404 183.902 102.254 184.645L103.684 187.46C103.872 186.959 104.067 186.448 104.266 185.934C104.326 185.786 104.379 185.641 104.436 185.501V185.481Z" fill="url(#paint3_linear_12352_187109)"/>
<path d="M102.223 184.733C102.044 185.63 101.915 186.523 101.851 187.416L101.844 187.508C101.397 186.798 100.204 186.105 100.206 186.112C101.063 187.343 101.711 188.575 101.807 189.763C101.348 189.855 100.722 189.721 99.9983 189.457C100.753 190.148 101.32 190.337 101.543 190.389C100.848 190.433 100.127 190.906 99.3984 191.452C100.463 191.021 101.324 190.849 101.944 190.988C100.966 193.737 99.9872 196.772 99 200.005C99.301 199.917 99.4803 199.714 99.5799 199.444C99.7548 198.861 100.912 195.023 102.723 190.009C102.776 189.866 102.827 189.721 102.88 189.578C102.893 189.536 102.909 189.497 102.924 189.459C103.115 188.931 103.316 188.393 103.52 187.843C103.566 187.717 103.613 187.592 103.662 187.467C103.662 187.464 103.664 187.462 103.664 187.46L102.232 184.645C102.227 184.674 102.221 184.707 102.214 184.74L102.223 184.733Z" fill="url(#paint4_linear_12352_187109)"/>
<path d="M109.66 174.309C109.618 174.392 109.578 174.476 109.536 174.559C109.412 174.812 109.288 175.07 109.16 175.333C109.023 175.619 108.885 175.91 108.746 176.209C108.675 176.358 108.604 176.51 108.534 176.664C108.321 177.124 108.106 177.599 107.887 178.089C107.619 178.69 107.343 179.316 107.066 179.967C106.803 180.587 106.53 181.227 106.26 181.892C106.001 182.521 105.74 183.172 105.474 183.84C105.238 184.436 104.999 185.052 104.76 185.683C104.748 185.712 104.737 185.745 104.726 185.773C104.487 186.4 104.246 187.044 104.005 187.704C104 187.72 103.994 187.733 103.989 187.75L105.14 187.625C105.118 187.621 105.094 187.618 105.072 187.614C106.446 187.445 108.281 186.422 109.454 185.151C109.999 184.57 110.492 183.884 110.948 183.081C111.287 182.485 111.608 181.821 111.913 181.089C112.179 180.449 112.434 179.754 112.679 179.004C112.363 179.169 112.002 179.292 111.604 179.376C111.533 179.391 111.462 179.404 111.389 179.417C111.316 179.431 111.243 179.442 111.168 179.45C111.168 179.45 111.17 179.45 111.17 179.448C112.454 178.958 113.261 178.012 113.848 176.853C113.512 177.082 112.963 177.381 112.305 177.524C112.217 177.544 112.126 177.559 112.033 177.574C112.011 177.577 111.987 177.581 111.964 177.585H111.969C112.416 177.401 112.79 177.192 113.115 176.948C113.186 176.895 113.255 176.842 113.317 176.785C113.416 176.699 113.509 176.609 113.602 176.517C113.66 176.455 113.715 176.393 113.771 176.33C113.899 176.178 114.018 176.015 114.129 175.839C114.162 175.784 114.198 175.732 114.229 175.674C114.273 175.593 114.313 175.512 114.353 175.435C114.532 175.078 114.676 174.757 114.789 174.478C114.846 174.337 114.895 174.21 114.939 174.086C114.957 174.038 114.972 173.992 114.988 173.946C115.034 173.812 115.07 173.693 115.099 173.587C115.143 173.429 115.169 173.304 115.183 173.213C115.138 173.246 115.09 173.282 115.032 173.315C114.645 173.545 113.981 173.752 113.445 173.851C113.439 173.853 113.43 173.853 113.421 173.856C113.366 173.864 113.315 173.873 113.259 173.88L113.286 173.867L109.678 174.26C109.678 174.269 109.671 174.284 109.665 174.298L109.66 174.309Z" fill="url(#paint5_linear_12352_187109)"/>
<path d="M113.733 167.051C113.412 167.542 113.063 168.098 112.682 168.729C112.662 168.76 112.64 168.797 112.622 168.828C112.297 169.374 111.951 169.972 111.584 170.629C111.27 171.197 110.942 171.804 110.601 172.457C110.305 173.027 109.999 173.631 109.683 174.271L113.291 173.878C114.344 173.396 114.813 172.963 115.269 172.332C115.389 172.158 115.513 171.978 115.632 171.788C116.004 171.212 116.367 170.579 116.693 169.948C117.007 169.338 117.284 168.736 117.496 168.19C117.631 167.845 117.74 167.524 117.815 167.24C117.881 166.992 117.932 166.754 117.972 166.528C116.571 166.768 114.851 166.996 113.722 167.051H113.733Z" fill="url(#paint6_linear_12352_187109)"/>
<path d="M111.387 179.433C111.314 179.446 111.241 179.457 111.166 179.466C111.241 179.459 111.316 179.446 111.387 179.433Z" fill="#BD202E"/>
<path opacity="0.35" d="M111.387 179.433C111.314 179.446 111.241 179.457 111.166 179.466C111.241 179.459 111.316 179.446 111.387 179.433Z" fill="#BD202E"/>
<path d="M111.387 179.433C111.314 179.446 111.241 179.457 111.166 179.466C111.241 179.459 111.316 179.446 111.387 179.433Z" fill="url(#paint7_linear_12352_187109)"/>
<path d="M111.984 177.608C112.007 177.605 112.031 177.601 112.053 177.597C112.031 177.599 112.009 177.605 111.984 177.608Z" fill="#BD202E"/>
<path opacity="0.35" d="M111.984 177.608C112.007 177.605 112.031 177.601 112.053 177.597C112.031 177.599 112.009 177.605 111.984 177.608Z" fill="#BD202E"/>
<path d="M111.984 177.608C112.007 177.605 112.031 177.601 112.053 177.597C112.031 177.599 112.009 177.605 111.984 177.608Z" fill="url(#paint8_linear_12352_187109)"/>
<path d="M111.984 177.608C111.988 177.604 111.988 177.608 111.984 177.608C111.988 177.604 111.988 177.608 111.984 177.608Z" fill="#BD202E"/>
<path opacity="0.35" d="M111.984 177.608C111.988 177.604 111.988 177.608 111.984 177.608C111.988 177.604 111.988 177.608 111.984 177.608Z" fill="#BD202E"/>
<path d="M140.367 174.124H142.447L146.703 185.5H144.335L143.503 183.036H139.343L138.511 185.5H136.143L140.367 174.124ZM142.927 181.276L141.407 176.78L139.919 181.276H142.927ZM147.364 177.052H149.38L149.46 177.9C149.994 177.228 150.719 176.892 151.636 176.892C152.66 176.892 153.466 177.276 154.052 178.044C154.639 178.801 154.932 179.857 154.932 181.212V181.356C154.932 182.22 154.799 182.977 154.532 183.628C154.266 184.268 153.882 184.769 153.38 185.132C152.89 185.484 152.314 185.66 151.652 185.66C150.778 185.66 150.074 185.361 149.54 184.764V188.748H147.364V177.052ZM149.54 183.084C149.839 183.671 150.356 183.964 151.092 183.964C151.615 183.964 152.02 183.745 152.308 183.308C152.607 182.871 152.762 182.236 152.772 181.404V181.18C152.772 180.348 152.623 179.713 152.324 179.276C152.036 178.828 151.62 178.604 151.076 178.604C150.34 178.604 149.828 178.892 149.54 179.468V183.084ZM158.877 185.66C158.343 185.66 157.858 185.553 157.421 185.34C156.983 185.116 156.637 184.812 156.381 184.428C156.135 184.033 156.013 183.601 156.013 183.132C156.013 182.236 156.349 181.548 157.021 181.068C157.703 180.588 158.674 180.348 159.933 180.348H160.989V179.82C160.989 179.383 160.877 179.047 160.653 178.812C160.429 178.577 160.098 178.46 159.661 178.46C159.266 178.46 158.951 178.561 158.717 178.764C158.482 178.956 158.365 179.217 158.365 179.548H156.221C156.221 179.057 156.37 178.609 156.669 178.204C156.978 177.799 157.399 177.479 157.933 177.244C158.477 177.009 159.09 176.892 159.773 176.892C160.807 176.892 161.623 177.148 162.221 177.66C162.818 178.161 163.127 178.86 163.149 179.756V183.548C163.149 184.316 163.255 184.924 163.469 185.372V185.5H161.293C161.207 185.308 161.133 185.036 161.069 184.684C160.514 185.335 159.783 185.66 158.877 185.66ZM158.189 182.972C158.189 183.292 158.295 183.548 158.509 183.74C158.722 183.932 159.005 184.028 159.357 184.028C159.709 184.028 160.034 183.943 160.333 183.772C160.631 183.591 160.85 183.372 160.989 183.116V181.612H160.077C158.818 181.612 158.189 182.065 158.189 182.972ZM168.463 185.66C167.258 185.66 166.308 185.276 165.615 184.508C164.922 183.729 164.575 182.668 164.575 181.324V181.148C164.575 180.327 164.724 179.596 165.023 178.956C165.322 178.316 165.759 177.815 166.335 177.452C166.922 177.079 167.626 176.892 168.447 176.892C169.492 176.892 170.33 177.191 170.959 177.788C171.599 178.375 171.93 179.164 171.951 180.156H169.919C169.908 179.676 169.764 179.297 169.487 179.02C169.21 178.732 168.852 178.588 168.415 178.588C167.306 178.588 166.746 179.441 166.735 181.148V181.404C166.724 182.279 166.858 182.924 167.135 183.34C167.423 183.756 167.855 183.964 168.431 183.964C168.858 183.964 169.21 183.841 169.487 183.596C169.764 183.34 169.908 183.015 169.919 182.62H171.951C171.94 183.175 171.786 183.687 171.487 184.156C171.188 184.615 170.772 184.983 170.239 185.26C169.716 185.527 169.124 185.66 168.463 185.66ZM173.223 173.5H175.399V177.996C175.996 177.26 176.759 176.892 177.687 176.892C178.604 176.892 179.292 177.159 179.751 177.692C180.22 178.225 180.46 179.02 180.471 180.076V185.5H178.311V180.092C178.3 179.58 178.183 179.207 177.959 178.972C177.745 178.727 177.399 178.604 176.919 178.604C176.577 178.604 176.273 178.679 176.007 178.828C175.751 178.977 175.548 179.185 175.399 179.452V185.5H173.223V173.5ZM186.064 185.66C185.243 185.66 184.517 185.489 183.888 185.148C183.259 184.796 182.768 184.305 182.416 183.676C182.075 183.047 181.904 182.316 181.904 181.484V181.26C181.904 180.428 182.059 179.681 182.368 179.02C182.688 178.359 183.141 177.841 183.728 177.468C184.325 177.084 185.024 176.892 185.824 176.892C186.976 176.892 187.877 177.26 188.528 177.996C189.189 178.732 189.52 179.761 189.52 181.084V181.948H184.096V181.98C184.16 182.577 184.379 183.057 184.752 183.42C185.136 183.783 185.621 183.964 186.208 183.964C187.072 183.964 187.76 183.639 188.272 182.988L189.344 184.108C189.003 184.599 188.544 184.983 187.968 185.26C187.403 185.527 186.768 185.66 186.064 185.66ZM187.392 180.476V180.316C187.371 179.761 187.221 179.335 186.944 179.036C186.677 178.737 186.299 178.588 185.808 178.588C185.349 178.588 184.971 178.753 184.672 179.084C184.373 179.404 184.187 179.868 184.112 180.476H187.392Z" fill="black"/>
<rect x="254.5" y="151.5" width="962" height="59" rx="13.5" stroke="#ECECEC"/>
<rect x="260" y="157" width="475" height="48" rx="12" fill="#5290FF"/>
<path d="M1247.07 178.54C1246.18 179.207 1245.46 179.793 1244.91 180.3C1244.38 180.807 1243.93 181.293 1243.57 181.76C1243.21 182.213 1242.74 182.853 1242.15 183.68L1241.29 184.88L1239.91 186.8L1236.79 184.66L1238.17 182.74L1239.43 180.94C1238.49 180.673 1237.75 180.193 1237.21 179.5C1236.85 179.06 1236.58 178.573 1236.39 178.04C1236.21 177.507 1236.11 176.96 1236.11 176.4C1236.11 175.68 1236.27 174.993 1236.57 174.34C1236.88 173.687 1237.33 173.133 1237.91 172.68C1238.3 172.387 1238.67 172.167 1239.01 172.02C1239.37 171.873 1239.73 171.773 1240.07 171.72C1240.42 171.653 1240.93 171.58 1241.61 171.5C1241.71 171.5 1241.86 171.487 1242.07 171.46L1242.69 175C1241.92 175.093 1241.38 175.187 1241.07 175.28C1240.77 175.36 1240.48 175.52 1240.21 175.76C1240.07 175.88 1239.95 176.027 1239.87 176.2C1239.79 176.36 1239.75 176.527 1239.75 176.7C1239.75 176.953 1239.83 177.18 1239.99 177.38C1240.21 177.633 1240.49 177.76 1240.83 177.76C1241.46 177.76 1242.31 177.353 1243.39 176.54C1243.93 176.1 1244.43 175.707 1244.89 175.36L1247.07 178.54ZM1253.45 185.58C1252.76 185.58 1252.1 185.4 1251.49 185.04C1250.88 184.667 1250.38 184.173 1250.01 183.56C1249.65 182.947 1249.47 182.287 1249.47 181.58C1249.47 180.86 1249.65 180.2 1250.01 179.6C1250.38 178.987 1250.88 178.5 1251.49 178.14C1252.1 177.78 1252.76 177.6 1253.45 177.6C1254.17 177.6 1254.84 177.78 1255.45 178.14C1256.08 178.487 1256.57 178.967 1256.93 179.58C1257.29 180.193 1257.47 180.86 1257.47 181.58C1257.47 182.287 1257.28 182.947 1256.91 183.56C1256.55 184.173 1256.06 184.667 1255.45 185.04C1254.84 185.4 1254.17 185.58 1253.45 185.58ZM1252.43 181.58C1252.43 181.86 1252.54 182.113 1252.75 182.34C1252.96 182.553 1253.2 182.66 1253.47 182.66C1253.75 182.66 1253.99 182.553 1254.19 182.34C1254.4 182.113 1254.51 181.86 1254.51 181.58C1254.51 181.287 1254.4 181.04 1254.19 180.84C1253.99 180.627 1253.75 180.52 1253.47 180.52C1253.2 180.52 1252.96 180.627 1252.75 180.84C1252.54 181.053 1252.43 181.3 1252.43 181.58ZM1263.46 172.3C1263.88 173.5 1264.18 174.56 1264.38 175.48C1264.48 175.76 1264.61 175.953 1264.78 176.06C1264.97 176.167 1265.22 176.22 1265.52 176.22C1265.8 176.22 1266.01 176.147 1266.14 176C1266.29 175.853 1266.34 175.633 1266.3 175.34L1265.94 172.9L1269.62 172.3L1270.02 175.16C1270.06 175.44 1270.08 175.72 1270.08 176C1270.08 176.893 1269.87 177.687 1269.44 178.38C1269.03 179.06 1268.48 179.587 1267.78 179.96C1267.09 180.333 1266.35 180.52 1265.56 180.52C1265.32 180.52 1265.08 180.5 1264.84 180.46L1264.82 182.2L1264.78 186H1260.98L1261.02 182.2L1261.04 180.2C1261.04 179.053 1260.97 178.047 1260.82 177.18C1260.68 176.3 1260.36 175.133 1259.86 173.68L1263.46 172.3ZM1279.53 180.74C1279.61 181.113 1279.65 181.473 1279.65 181.82C1279.65 181.967 1279.64 182.16 1279.61 182.4C1279.77 182.493 1279.94 182.54 1280.11 182.54C1280.33 182.54 1280.52 182.453 1280.69 182.28C1280.87 182.107 1280.95 181.86 1280.95 181.54C1280.95 180.86 1280.67 180.127 1280.11 179.34C1279.57 178.54 1278.75 177.673 1277.67 176.74C1276.74 177.553 1276.04 178.36 1275.57 179.16C1275.12 179.96 1274.89 180.707 1274.89 181.4C1274.89 181.773 1274.97 182.053 1275.13 182.24C1275.31 182.427 1275.51 182.52 1275.75 182.52C1276.01 182.52 1276.21 182.433 1276.37 182.26C1276.55 182.087 1276.63 181.84 1276.63 181.52C1276.63 181.44 1276.62 181.32 1276.59 181.16L1279.53 180.74ZM1271.57 181.64C1271.57 180.52 1271.88 179.353 1272.49 178.14C1273.12 176.927 1273.99 175.807 1275.11 174.78L1274.51 174.36L1276.73 171.44C1279.21 173.187 1281.08 174.967 1282.33 176.78C1283.59 178.593 1284.21 180.247 1284.21 181.74C1284.21 182.633 1284.03 183.42 1283.67 184.1C1283.33 184.767 1282.85 185.287 1282.23 185.66C1281.63 186.02 1280.97 186.2 1280.23 186.2C1279.38 186.2 1278.67 185.9 1278.09 185.3C1277.36 185.887 1276.49 186.18 1275.49 186.18C1274.8 186.18 1274.15 185.993 1273.55 185.62C1272.95 185.247 1272.47 184.72 1272.11 184.04C1271.75 183.347 1271.57 182.547 1271.57 181.64Z" fill="black"/>
<path d="M1292.74 176.942C1292.3 176.942 1291.92 176.847 1291.59 176.657C1291.27 176.459 1291.02 176.198 1290.84 175.873C1290.67 175.549 1290.59 175.196 1290.59 174.815C1290.59 174.646 1290.6 174.49 1290.63 174.349C1290.66 174.152 1290.71 173.915 1290.77 173.64C1290.82 173.365 1290.88 173.125 1290.93 172.92L1292.16 173.227L1292.09 173.566C1291.95 174.116 1291.88 174.497 1291.88 174.709C1291.88 174.928 1291.95 175.101 1292.1 175.228C1292.25 175.355 1292.46 175.418 1292.74 175.418H1297.34C1297.63 175.418 1297.83 175.379 1297.95 175.302C1298.07 175.217 1298.13 175.076 1298.13 174.878V173.397H1299.49V174.931C1299.49 175.115 1299.53 175.242 1299.63 175.312C1299.72 175.383 1299.88 175.418 1300.09 175.418H1300.41L1300.47 176.201L1300.41 176.942H1300.09C1299.87 176.942 1299.63 176.9 1299.39 176.815C1299.16 176.724 1298.95 176.586 1298.77 176.403C1298.61 176.586 1298.4 176.724 1298.15 176.815C1297.91 176.9 1297.64 176.942 1297.34 176.942H1292.74ZM1293.58 171.851H1294.84V173.121H1293.58V171.851ZM1295.57 171.851H1296.83V173.121H1295.57V171.851ZM1300.3 175.418H1301.07C1301.32 175.418 1301.5 175.369 1301.6 175.27C1301.71 175.164 1301.77 174.998 1301.77 174.773V173.397H1303.11V174.804C1303.11 175.016 1303.17 175.171 1303.28 175.27C1303.4 175.369 1303.57 175.418 1303.77 175.418C1304.23 175.418 1304.46 175.196 1304.46 174.751V173.397H1305.8L1305.79 174.804C1305.79 175.214 1306 175.418 1306.43 175.418C1306.65 175.418 1306.82 175.358 1306.95 175.238C1307.08 175.118 1307.13 174.96 1307.11 174.762C1307.01 174.12 1306.9 173.541 1306.8 173.026L1308.07 172.709C1308.31 173.746 1308.43 174.483 1308.43 174.921C1308.43 175.274 1308.36 175.605 1308.22 175.916C1308.08 176.219 1307.86 176.466 1307.56 176.657C1307.26 176.847 1306.89 176.942 1306.43 176.942C1306.16 176.942 1305.91 176.889 1305.69 176.784C1305.46 176.671 1305.27 176.523 1305.12 176.339C1304.95 176.523 1304.75 176.671 1304.51 176.784C1304.28 176.889 1304.02 176.942 1303.73 176.942C1303.49 176.942 1303.23 176.882 1302.97 176.762C1302.71 176.642 1302.51 176.501 1302.39 176.339C1302.27 176.515 1302.08 176.66 1301.83 176.773C1301.59 176.886 1301.32 176.942 1301.02 176.942H1300.3V175.418ZM1309.79 169.872H1311.13V176.942H1309.79V169.872ZM1313.81 178.16C1314.24 178.16 1314.57 178.121 1314.8 178.043C1315.03 177.973 1315.18 177.849 1315.27 177.673C1315.36 177.503 1315.41 177.26 1315.42 176.942H1314.51C1313.84 176.942 1313.31 176.748 1312.92 176.36C1312.53 175.965 1312.33 175.415 1312.33 174.709C1312.33 174.208 1312.43 173.763 1312.61 173.375C1312.8 172.987 1313.06 172.687 1313.38 172.476C1313.71 172.257 1314.09 172.148 1314.5 172.148C1314.96 172.148 1315.35 172.253 1315.69 172.465C1316.04 172.677 1316.3 172.977 1316.48 173.365C1316.67 173.753 1316.77 174.201 1316.77 174.709V175.418H1317.35L1317.44 176.191L1317.35 176.942H1316.77C1316.74 177.768 1316.49 178.431 1316.01 178.932C1315.53 179.433 1314.79 179.684 1313.81 179.684H1312.55V178.16H1313.81ZM1313.63 174.635C1313.63 174.924 1313.7 175.139 1313.84 175.281C1313.98 175.415 1314.2 175.482 1314.51 175.482H1315.42V174.677C1315.42 173.943 1315.12 173.576 1314.5 173.576C1314.21 173.576 1314 173.675 1313.85 173.873C1313.7 174.07 1313.63 174.324 1313.63 174.635ZM1317.2 175.418H1318.47C1319.13 175.418 1319.76 175.334 1320.34 175.164C1320.93 174.995 1321.53 174.744 1322.15 174.413C1320.66 173.898 1319.8 173.64 1319.55 173.64C1319.4 173.64 1319.28 173.686 1319.18 173.778C1319.08 173.862 1318.99 174.01 1318.91 174.222L1317.73 173.841C1317.89 173.291 1318.13 172.871 1318.45 172.582C1318.76 172.292 1319.13 172.148 1319.55 172.148C1319.84 172.148 1320.29 172.257 1320.91 172.476C1321.54 172.694 1322.37 173.015 1323.39 173.439L1323.59 175.101C1322.93 175.517 1322.35 175.849 1321.87 176.096C1321.38 176.343 1320.85 176.547 1320.29 176.71C1319.72 176.865 1319.12 176.942 1318.47 176.942H1317.2V175.418ZM1318.96 169.851H1320.36V171.227H1318.96V169.851ZM1326.79 173.397V176.381C1326.79 177.398 1326.52 178.188 1325.99 178.752C1325.46 179.324 1324.71 179.61 1323.73 179.61H1323.06V178.086H1323.73C1324.17 178.086 1324.52 178.033 1324.75 177.927C1325 177.828 1325.17 177.655 1325.27 177.408C1325.38 177.168 1325.43 176.826 1325.43 176.381V173.397H1326.79ZM1330.89 172.052C1331.68 173.28 1332.05 173.862 1332.01 173.799C1332.29 174.243 1332.42 174.684 1332.42 175.122C1332.42 175.503 1332.33 175.831 1332.13 176.106C1331.92 176.41 1331.66 176.625 1331.35 176.752C1331.04 176.879 1330.68 176.942 1330.25 176.942H1329.69C1329.25 176.942 1328.86 176.872 1328.52 176.731C1328.18 176.583 1327.92 176.424 1327.73 176.254L1328.36 175.037C1328.49 175.122 1328.67 175.207 1328.89 175.291C1329.12 175.376 1329.39 175.418 1329.7 175.418H1330.22C1330.46 175.418 1330.64 175.404 1330.76 175.376C1330.88 175.341 1330.97 175.281 1331.03 175.196C1331.06 175.139 1331.08 175.083 1331.08 175.027C1331.08 174.914 1331.02 174.758 1330.89 174.561C1330.45 173.883 1329.91 173.079 1329.27 172.148L1330.4 171.301L1330.89 172.052Z" fill="black"/>
<path d="M1295.28 185.905C1295.62 187.394 1295.91 188.579 1296.12 189.461C1296.24 189.962 1296.48 190.319 1296.82 190.53C1297.18 190.742 1297.56 190.848 1297.99 190.848H1298.2L1298.22 191.017L1298.2 191.166H1297.99C1297.51 191.166 1297.07 191.042 1296.64 190.795C1296.23 190.541 1295.95 190.125 1295.81 189.546L1295.77 189.398C1295.73 189.588 1295.67 189.758 1295.57 189.906C1295.43 190.174 1295.22 190.382 1294.97 190.53C1294.72 190.672 1294.44 190.742 1294.16 190.742C1293.85 190.742 1293.57 190.665 1293.31 190.509C1293.05 190.361 1292.85 190.16 1292.7 189.906C1292.56 189.652 1292.49 189.38 1292.49 189.091C1292.49 188.78 1292.57 188.502 1292.72 188.255C1292.81 188.092 1292.93 187.948 1293.08 187.821C1293.22 187.694 1293.45 187.549 1293.76 187.387C1294.08 187.225 1294.54 187.02 1295.15 186.773L1294.97 185.99L1295.28 185.905ZM1292.99 188.424C1292.86 188.636 1292.8 188.862 1292.8 189.102C1292.8 189.334 1292.86 189.553 1292.98 189.758C1293.1 189.955 1293.27 190.114 1293.48 190.234C1293.7 190.368 1293.93 190.435 1294.17 190.435C1294.4 190.435 1294.61 190.375 1294.81 190.255C1295.01 190.135 1295.17 189.969 1295.3 189.758C1295.4 189.567 1295.48 189.405 1295.52 189.271C1295.57 189.137 1295.59 188.982 1295.59 188.805C1295.59 188.713 1295.59 188.643 1295.58 188.593L1295.22 187.09C1294.65 187.323 1294.22 187.514 1293.93 187.662C1293.64 187.81 1293.44 187.937 1293.31 188.043C1293.18 188.149 1293.08 188.276 1292.99 188.424ZM1300.85 188.054V189.779C1300.85 190.174 1300.98 190.453 1301.23 190.615C1301.47 190.77 1301.73 190.848 1301.99 190.848H1302.52L1302.55 191.007L1302.52 191.166H1301.99C1301.78 191.166 1301.54 191.113 1301.28 191.007C1301.02 190.901 1300.83 190.721 1300.7 190.467C1300.56 190.7 1300.36 190.876 1300.09 190.996C1299.83 191.109 1299.52 191.166 1299.17 191.166H1298.09V190.848H1299.17C1300.08 190.848 1300.54 190.492 1300.54 189.779V188.054H1300.85ZM1297.81 192.499H1298.52V193.208H1297.81V192.499ZM1299.28 192.499H1299.99V193.208H1299.28V192.499ZM1302.41 190.848H1303.51C1303.97 190.848 1304.28 190.739 1304.46 190.52C1304.64 190.301 1304.73 190.033 1304.73 189.715C1304.73 189.391 1304.62 188.731 1304.39 187.736L1304.71 187.673C1304.94 188.668 1305.05 189.349 1305.05 189.715C1305.05 190.096 1304.93 190.435 1304.69 190.732C1304.46 191.021 1304.06 191.166 1303.51 191.166H1302.41V190.848ZM1303.79 185.587H1304.5V186.297H1303.79V185.587ZM1308.17 191.166C1307.63 191.166 1307.23 191.039 1306.96 190.784C1306.7 190.523 1306.57 190.114 1306.57 189.557V184.296H1306.89V189.557C1306.89 190.029 1306.99 190.365 1307.19 190.562C1307.38 190.753 1307.71 190.848 1308.17 190.848H1308.29L1308.32 191.007L1308.29 191.166H1308.17ZM1308.18 190.848H1310.38L1310.4 191.017L1310.38 191.166H1308.18V190.848ZM1310.28 190.848H1312.48L1312.5 191.017L1312.48 191.166H1310.28V190.848ZM1312.38 190.848H1314.58L1314.6 191.017L1314.58 191.166H1312.38V190.848ZM1314.48 190.848H1316.68L1316.7 191.017L1316.68 191.166H1314.48V190.848ZM1316.57 190.848H1318.78L1318.8 191.017L1318.78 191.166H1316.57V190.848ZM1318.67 190.848H1320.1C1320.55 190.848 1320.87 190.739 1321.04 190.52C1321.23 190.301 1321.32 190.033 1321.32 189.715C1321.32 189.391 1321.21 188.731 1320.98 187.736L1321.3 187.673C1321.52 188.668 1321.64 189.349 1321.64 189.715C1321.64 190.096 1321.52 190.435 1321.28 190.732C1321.04 191.021 1320.65 191.166 1320.1 191.166H1318.67V190.848ZM1319.35 185.587H1320.06V186.297H1319.35V185.587ZM1320.2 184.518H1320.91V185.228H1320.2V184.518ZM1321.03 185.587H1321.74V186.297H1321.03V185.587ZM1328.02 188.054V189.779C1328.02 190.174 1328.14 190.453 1328.39 190.615C1328.64 190.77 1328.89 190.848 1329.15 190.848H1329.26L1329.29 191.007L1329.26 191.166H1329.15C1328.96 191.166 1328.76 191.12 1328.54 191.028C1328.33 190.936 1328.15 190.781 1328.02 190.562V191.208C1328.02 192.076 1327.8 192.729 1327.36 193.166C1326.93 193.611 1326.31 193.833 1325.48 193.833H1324.81V193.515H1325.48C1326.23 193.515 1326.79 193.328 1327.15 192.954C1327.52 192.58 1327.7 191.998 1327.7 191.208V188.054H1328.02ZM1329.15 190.848H1330.25C1330.71 190.848 1331.02 190.739 1331.2 190.52C1331.38 190.301 1331.47 190.033 1331.47 189.715C1331.47 189.391 1331.36 188.731 1331.13 187.736L1331.45 187.673C1331.68 188.668 1331.79 189.349 1331.79 189.715C1331.79 190.096 1331.67 190.435 1331.43 190.732C1331.2 191.021 1330.8 191.166 1330.25 191.166H1329.15V190.848ZM1330.13 192.499H1330.84V193.208H1330.13V192.499Z" fill="black"/>
<path d="M123.368 247.921L115.252 239.804C115.218 239.77 115.172 239.751 115.125 239.751C115.121 239.751 115.118 239.751 115.114 239.751C115.063 239.754 115.016 239.779 114.984 239.819L111.524 244.209C111.468 244.281 111.474 244.383 111.539 244.447L115.265 248.174C115.399 248.308 115.473 248.486 115.472 248.677C115.472 248.865 115.399 249.041 115.266 249.172L114.189 250.249C114.128 250.309 114.119 250.404 114.167 250.475C114.435 250.877 114.875 251.539 114.916 251.612C115.051 251.882 115.096 252.571 114.698 252.874L106.219 259.386C106.174 259.42 106.148 259.473 106.148 259.529C106.148 260.251 106.148 261.227 106.148 262.21C106.148 263.201 106.147 264.2 106.147 264.95C106.147 265.325 106.148 265.639 106.148 265.858C106.148 265.968 106.148 266.054 106.148 266.113C106.148 266.238 106.148 266.314 106.248 266.364C106.273 266.376 106.3 266.383 106.328 266.383C106.402 266.383 106.432 266.353 106.504 266.282L106.645 266.14C106.769 266.017 106.951 265.835 107.183 265.604C107.645 265.142 108.306 264.481 109.099 263.689C110.685 262.104 112.799 259.991 114.913 257.878C119.14 253.652 123.367 249.426 123.367 249.426C123.778 249.01 123.778 248.335 123.368 247.921Z" fill="#5E8CDA"/>
<path d="M112.583 230.553L112.58 230.549C112.579 230.547 112.577 230.545 112.575 230.543L112.571 230.537C112.538 230.499 112.491 230.475 112.441 230.473C112.438 230.473 112.435 230.473 112.432 230.473C112.385 230.473 112.339 230.492 112.305 230.525L95.3967 247.436C95.1954 247.635 95.0843 247.903 95.0845 248.188C95.0847 248.474 95.1958 248.74 95.3975 248.939L103.511 257.054C103.545 257.088 103.591 257.106 103.638 257.106C103.642 257.106 103.645 257.106 103.649 257.106C103.7 257.103 103.747 257.078 103.779 257.038L107.241 252.648C107.297 252.577 107.291 252.475 107.227 252.41L103.496 248.683C103.364 248.552 103.291 248.377 103.291 248.188C103.291 247.999 103.364 247.822 103.496 247.69L104.575 246.609C104.637 246.547 104.645 246.451 104.596 246.379L103.859 245.32C103.561 244.899 103.654 244.3 104.064 243.985L112.546 237.477C112.59 237.443 112.617 237.39 112.617 237.334L112.619 230.662C112.619 230.622 112.607 230.584 112.583 230.553Z" fill="#093071"/>
<path d="M114.077 251.503L104.684 245.403L108.833 251.367C108.922 251.503 108.913 251.736 108.815 251.868L101.384 261.299C101.253 261.47 101.143 261.655 101.236 261.846C101.286 261.946 101.407 262.026 101.525 262.035C101.672 262.034 101.784 261.97 101.938 261.852L113.88 252.685C114.246 252.406 114.236 251.73 114.077 251.503Z" fill="#F2C913"/>
<path d="M117.525 235.012C117.469 234.898 117.344 234.82 117.214 234.82C117.099 234.82 116.989 234.87 116.822 234.997L104.875 244.172C104.497 244.461 104.411 245.013 104.684 245.402L114.077 251.502C113.941 251.303 109.967 245.543 109.927 245.485C109.837 245.358 109.845 245.11 109.943 244.985L117.374 235.551L117.379 235.545C117.499 235.39 117.62 235.209 117.525 235.012Z" fill="#F4D646"/>
<path d="M137.423 241.124H139.663V250.74H144.671V252.5H137.423V241.124ZM146.016 244.052H148.192V252.5H146.016V244.052ZM145.888 241.844C145.888 241.524 145.994 241.263 146.208 241.06C146.432 240.847 146.73 240.74 147.104 240.74C147.466 240.74 147.76 240.847 147.984 241.06C148.208 241.263 148.32 241.524 148.32 241.844C148.32 242.164 148.208 242.431 147.984 242.644C147.76 242.847 147.466 242.948 147.104 242.948C146.73 242.948 146.432 242.847 146.208 242.644C145.994 242.431 145.888 242.164 145.888 241.844ZM152.923 252.66C151.334 252.66 150.539 251.839 150.539 250.196V245.588H149.275V244.052H150.539V241.972H152.699V244.052H154.171V245.588H152.699V250.004C152.699 250.335 152.763 250.575 152.891 250.724C153.019 250.863 153.249 250.932 153.579 250.932C153.729 250.932 153.953 250.911 154.251 250.868V252.468C153.825 252.596 153.382 252.66 152.923 252.66ZM159.322 252.66C158.501 252.66 157.775 252.489 157.146 252.148C156.517 251.796 156.026 251.305 155.674 250.676C155.333 250.047 155.162 249.316 155.162 248.484V248.26C155.162 247.428 155.317 246.681 155.626 246.02C155.946 245.359 156.399 244.841 156.986 244.468C157.583 244.084 158.282 243.892 159.082 243.892C160.234 243.892 161.135 244.26 161.786 244.996C162.447 245.732 162.778 246.761 162.778 248.084V248.948H157.354V248.98C157.418 249.577 157.637 250.057 158.01 250.42C158.394 250.783 158.879 250.964 159.466 250.964C160.33 250.964 161.018 250.639 161.53 249.988L162.602 251.108C162.261 251.599 161.802 251.983 161.226 252.26C160.661 252.527 160.026 252.66 159.322 252.66ZM160.65 247.476V247.316C160.629 246.761 160.479 246.335 160.202 246.036C159.935 245.737 159.557 245.588 159.066 245.588C158.607 245.588 158.229 245.753 157.93 246.084C157.631 246.404 157.445 246.868 157.37 247.476H160.65ZM167.291 252.66C166.63 252.66 166.022 252.537 165.467 252.292C164.913 252.047 164.47 251.711 164.139 251.284C163.819 250.847 163.659 250.361 163.659 249.828H165.707C165.718 250.255 165.867 250.58 166.155 250.804C166.454 251.028 166.843 251.14 167.323 251.14C167.761 251.14 168.097 251.055 168.331 250.884C168.577 250.703 168.699 250.468 168.699 250.18C168.699 249.881 168.555 249.647 168.267 249.476C167.99 249.305 167.537 249.151 166.907 249.012C165.915 248.799 165.169 248.484 164.667 248.068C164.177 247.652 163.931 247.124 163.931 246.484C163.931 245.993 164.07 245.551 164.347 245.156C164.635 244.761 165.03 244.452 165.531 244.228C166.043 244.004 166.625 243.892 167.275 243.892C167.969 243.892 168.577 244.009 169.099 244.244C169.633 244.468 170.043 244.783 170.331 245.188C170.63 245.593 170.779 246.063 170.779 246.596H168.619C168.619 246.233 168.497 245.945 168.251 245.732C168.006 245.508 167.675 245.396 167.259 245.396C166.886 245.396 166.582 245.492 166.347 245.684C166.113 245.865 165.995 246.1 165.995 246.388C165.995 246.697 166.15 246.927 166.459 247.076C166.779 247.225 167.227 247.369 167.803 247.508C168.102 247.572 168.31 247.625 168.427 247.668C169.227 247.892 169.819 248.201 170.203 248.596C170.598 248.98 170.795 249.481 170.795 250.1C170.795 250.601 170.646 251.049 170.347 251.444C170.049 251.828 169.633 252.127 169.099 252.34C168.577 252.553 167.974 252.66 167.291 252.66ZM172.294 244.052H174.31L174.39 244.9C174.923 244.228 175.649 243.892 176.566 243.892C177.59 243.892 178.395 244.276 178.982 245.044C179.569 245.801 179.862 246.857 179.862 248.212V248.356C179.862 249.22 179.729 249.977 179.462 250.628C179.195 251.268 178.811 251.769 178.31 252.132C177.819 252.484 177.243 252.66 176.582 252.66C175.707 252.66 175.003 252.361 174.47 251.764V255.748H172.294V244.052ZM174.47 250.084C174.769 250.671 175.286 250.964 176.022 250.964C176.545 250.964 176.95 250.745 177.238 250.308C177.537 249.871 177.691 249.236 177.702 248.404V248.18C177.702 247.348 177.553 246.713 177.254 246.276C176.966 245.828 176.55 245.604 176.006 245.604C175.27 245.604 174.758 245.892 174.47 246.468V250.084ZM185.134 252.66C184.313 252.66 183.588 252.489 182.958 252.148C182.329 251.796 181.838 251.305 181.486 250.676C181.145 250.047 180.974 249.316 180.974 248.484V248.26C180.974 247.428 181.129 246.681 181.438 246.02C181.758 245.359 182.212 244.841 182.798 244.468C183.396 244.084 184.094 243.892 184.894 243.892C186.046 243.892 186.948 244.26 187.598 244.996C188.26 245.732 188.59 246.761 188.59 248.084V248.948H183.166V248.98C183.23 249.577 183.449 250.057 183.822 250.42C184.206 250.783 184.692 250.964 185.278 250.964C186.142 250.964 186.83 250.639 187.342 249.988L188.414 251.108C188.073 251.599 187.614 251.983 187.038 252.26C186.473 252.527 185.838 252.66 185.134 252.66ZM186.462 247.476V247.316C186.441 246.761 186.292 246.335 186.014 246.036C185.748 245.737 185.369 245.588 184.878 245.588C184.42 245.588 184.041 245.753 183.742 246.084C183.444 246.404 183.257 246.868 183.182 247.476H186.462ZM193.744 252.66C192.922 252.66 192.197 252.489 191.568 252.148C190.938 251.796 190.448 251.305 190.096 250.676C189.754 250.047 189.584 249.316 189.584 248.484V248.26C189.584 247.428 189.738 246.681 190.048 246.02C190.368 245.359 190.821 244.841 191.408 244.468C192.005 244.084 192.704 243.892 193.504 243.892C194.656 243.892 195.557 244.26 196.208 244.996C196.869 245.732 197.2 246.761 197.2 248.084V248.948H191.776V248.98C191.84 249.577 192.058 250.057 192.432 250.42C192.816 250.783 193.301 250.964 193.888 250.964C194.752 250.964 195.44 250.639 195.952 249.988L197.024 251.108C196.682 251.599 196.224 251.983 195.648 252.26C195.082 252.527 194.448 252.66 193.744 252.66ZM195.072 247.476V247.316C195.05 246.761 194.901 246.335 194.624 246.036C194.357 245.737 193.978 245.588 193.488 245.588C193.029 245.588 192.65 245.753 192.352 246.084C192.053 246.404 191.866 246.868 191.792 247.476H195.072ZM201.457 252.66C200.796 252.66 200.215 252.484 199.713 252.132C199.212 251.769 198.823 251.252 198.545 250.58C198.279 249.908 198.145 249.119 198.145 248.212C198.145 247.337 198.279 246.575 198.545 245.924C198.823 245.273 199.212 244.772 199.713 244.42C200.215 244.068 200.801 243.892 201.473 243.892C202.316 243.892 203.009 244.207 203.553 244.836V240.5H205.713V252.5H203.761L203.649 251.588C203.105 252.303 202.375 252.66 201.457 252.66ZM200.321 248.372C200.321 249.204 200.465 249.844 200.753 250.292C201.041 250.729 201.457 250.948 202.001 250.948C202.716 250.948 203.233 250.639 203.553 250.02V246.532C203.233 245.913 202.721 245.604 202.017 245.604C201.495 245.604 201.079 245.812 200.769 246.228C200.471 246.633 200.321 247.22 200.321 247.988V248.372Z" fill="black"/>
<rect x="254.5" y="218.5" width="962" height="59" rx="13.5" stroke="#ECECEC"/>
<rect x="260" y="224" width="883" height="48" rx="12" fill="#0041F2"/>
<path d="M1246.99 245.54C1246.1 246.207 1245.38 246.793 1244.83 247.3C1244.3 247.807 1243.85 248.293 1243.49 248.76C1243.13 249.213 1242.66 249.853 1242.07 250.68L1241.21 251.88L1239.83 253.8L1236.71 251.66L1238.09 249.74L1239.35 247.94C1238.4 247.673 1237.66 247.193 1237.13 246.5C1236.77 246.06 1236.5 245.573 1236.31 245.04C1236.12 244.507 1236.03 243.96 1236.03 243.4C1236.03 242.68 1236.18 241.993 1236.49 241.34C1236.8 240.687 1237.24 240.133 1237.83 239.68C1238.22 239.387 1238.58 239.167 1238.93 239.02C1239.29 238.873 1239.64 238.773 1239.99 238.72C1240.34 238.653 1240.85 238.58 1241.53 238.5C1241.62 238.5 1241.78 238.487 1241.99 238.46L1242.61 242C1241.84 242.093 1241.3 242.187 1240.99 242.28C1240.68 242.36 1240.4 242.52 1240.13 242.76C1239.98 242.88 1239.87 243.027 1239.79 243.2C1239.71 243.36 1239.67 243.527 1239.67 243.7C1239.67 243.953 1239.75 244.18 1239.91 244.38C1240.12 244.633 1240.4 244.76 1240.75 244.76C1241.38 244.76 1242.23 244.353 1243.31 243.54C1243.84 243.1 1244.34 242.707 1244.81 242.36L1246.99 245.54ZM1254.11 253.34C1253.96 252.567 1253.87 251.913 1253.83 251.38C1253.79 250.833 1253.76 249.913 1253.75 248.62H1252.83C1251.4 248.62 1250.3 248.213 1249.53 247.4C1248.77 246.573 1248.39 245.4 1248.39 243.88C1248.39 242.907 1248.57 242.04 1248.93 241.28C1249.29 240.52 1249.8 239.927 1250.47 239.5C1251.13 239.073 1251.91 238.86 1252.81 238.86C1254.21 238.86 1255.31 239.34 1256.13 240.3C1256.94 241.26 1257.35 242.66 1257.35 244.5C1257.35 246.567 1257.35 248.007 1257.37 248.82C1257.38 249.633 1257.41 250.28 1257.47 250.76C1257.53 251.227 1257.65 251.867 1257.81 252.68L1254.11 253.34ZM1251.79 243.74C1251.79 244.353 1252.13 244.66 1252.81 244.66H1253.73V243.96C1253.73 243.107 1253.42 242.68 1252.81 242.68C1252.5 242.68 1252.25 242.78 1252.07 242.98C1251.88 243.167 1251.79 243.42 1251.79 243.74ZM1270.39 245.54C1269.49 246.207 1268.77 246.793 1268.23 247.3C1267.69 247.807 1267.25 248.293 1266.89 248.76C1266.53 249.213 1266.05 249.853 1265.47 250.68L1264.61 251.88L1263.23 253.8L1260.11 251.66L1261.49 249.74L1262.75 247.94C1261.8 247.673 1261.06 247.193 1260.53 246.5C1260.17 246.06 1259.89 245.573 1259.71 245.04C1259.52 244.507 1259.43 243.96 1259.43 243.4C1259.43 242.68 1259.58 241.993 1259.89 241.34C1260.19 240.687 1260.64 240.133 1261.23 239.68C1261.61 239.387 1261.98 239.167 1262.33 239.02C1262.69 238.873 1263.04 238.773 1263.39 238.72C1263.73 238.653 1264.25 238.58 1264.93 238.5C1265.02 238.5 1265.17 238.487 1265.39 238.46L1266.01 242C1265.23 242.093 1264.69 242.187 1264.39 242.28C1264.08 242.36 1263.79 242.52 1263.53 242.76C1263.38 242.88 1263.27 243.027 1263.19 243.2C1263.11 243.36 1263.07 243.527 1263.07 243.7C1263.07 243.953 1263.15 244.18 1263.31 244.38C1263.52 244.633 1263.8 244.76 1264.15 244.76C1264.77 244.76 1265.63 244.353 1266.71 243.54C1267.24 243.1 1267.74 242.707 1268.21 242.36L1270.39 245.54ZM1275.65 239.3C1276.21 240.953 1276.57 242.353 1276.75 243.5C1276.93 244.633 1277.03 245.813 1277.03 247.04L1277.01 249.2L1276.97 253H1273.17L1273.21 249.2L1273.23 247.2C1273.23 246.053 1273.15 245.047 1273.01 244.18C1272.86 243.3 1272.54 242.133 1272.05 240.68L1275.65 239.3ZM1286.44 239.28C1287.28 241.973 1287.9 243.9 1288.3 245.06C1288.71 246.22 1289.1 247.147 1289.46 247.84C1289.82 248.533 1290.4 249.54 1291.2 250.86L1287.96 253.1C1287.35 252.1 1286.89 251.28 1286.58 250.64C1286.27 250 1286.01 249.293 1285.78 248.52C1285.55 247.733 1285.27 246.58 1284.94 245.06C1284.59 246.58 1284.3 247.74 1284.06 248.54C1283.82 249.327 1283.55 250.033 1283.26 250.66C1282.97 251.273 1282.52 252.08 1281.92 253.08L1278.66 250.88C1279.49 249.547 1280.08 248.527 1280.44 247.82C1280.8 247.113 1281.17 246.187 1281.56 245.04C1281.95 243.893 1282.54 241.973 1283.34 239.28H1286.44Z" fill="black"/>
<path d="M1299.74 243.942C1299.3 243.942 1298.92 243.847 1298.59 243.657C1298.27 243.459 1298.02 243.198 1297.84 242.873C1297.67 242.549 1297.59 242.196 1297.59 241.815C1297.59 241.646 1297.6 241.49 1297.63 241.349C1297.66 241.152 1297.71 240.915 1297.77 240.64C1297.82 240.365 1297.88 240.125 1297.93 239.92L1299.16 240.227L1299.09 240.566C1298.95 241.116 1298.88 241.497 1298.88 241.709C1298.88 241.928 1298.95 242.101 1299.1 242.228C1299.25 242.355 1299.46 242.418 1299.74 242.418H1304.34C1304.63 242.418 1304.83 242.379 1304.95 242.302C1305.07 242.217 1305.13 242.076 1305.13 241.878V240.397H1306.49V241.931C1306.49 242.115 1306.53 242.242 1306.63 242.312C1306.72 242.383 1306.88 242.418 1307.09 242.418H1307.41L1307.47 243.201L1307.41 243.942H1307.09C1306.87 243.942 1306.63 243.9 1306.39 243.815C1306.16 243.724 1305.95 243.586 1305.77 243.403C1305.61 243.586 1305.4 243.724 1305.15 243.815C1304.91 243.9 1304.64 243.942 1304.34 243.942H1299.74ZM1300.58 238.851H1301.84V240.121H1300.58V238.851ZM1302.57 238.851H1303.83V240.121H1302.57V238.851ZM1307.3 242.418H1308.07C1308.32 242.418 1308.5 242.369 1308.6 242.27C1308.71 242.164 1308.77 241.998 1308.77 241.773V240.397H1310.11V241.804C1310.11 242.016 1310.17 242.171 1310.28 242.27C1310.4 242.369 1310.57 242.418 1310.77 242.418C1311.23 242.418 1311.46 242.196 1311.46 241.751V240.397H1312.8L1312.79 241.804C1312.79 242.214 1313 242.418 1313.43 242.418C1313.65 242.418 1313.82 242.358 1313.95 242.238C1314.08 242.118 1314.13 241.96 1314.11 241.762C1314.01 241.12 1313.9 240.541 1313.8 240.026L1315.07 239.709C1315.31 240.746 1315.43 241.483 1315.43 241.921C1315.43 242.274 1315.36 242.605 1315.22 242.916C1315.08 243.219 1314.86 243.466 1314.56 243.657C1314.26 243.847 1313.89 243.942 1313.43 243.942C1313.16 243.942 1312.91 243.889 1312.69 243.784C1312.46 243.671 1312.27 243.523 1312.12 243.339C1311.95 243.523 1311.75 243.671 1311.51 243.784C1311.28 243.889 1311.02 243.942 1310.73 243.942C1310.49 243.942 1310.23 243.882 1309.97 243.762C1309.71 243.642 1309.51 243.501 1309.39 243.339C1309.27 243.515 1309.08 243.66 1308.83 243.773C1308.59 243.886 1308.32 243.942 1308.02 243.942H1307.3V242.418ZM1316.79 236.872H1318.13V243.942H1316.79V236.872ZM1320.81 245.16C1321.24 245.16 1321.57 245.121 1321.8 245.043C1322.03 244.973 1322.18 244.849 1322.27 244.673C1322.36 244.503 1322.41 244.26 1322.42 243.942H1321.51C1320.84 243.942 1320.31 243.748 1319.92 243.36C1319.53 242.965 1319.33 242.415 1319.33 241.709C1319.33 241.208 1319.43 240.763 1319.61 240.375C1319.8 239.987 1320.06 239.687 1320.38 239.476C1320.71 239.257 1321.09 239.148 1321.5 239.148C1321.96 239.148 1322.35 239.253 1322.69 239.465C1323.04 239.677 1323.3 239.977 1323.48 240.365C1323.67 240.753 1323.77 241.201 1323.77 241.709V242.418H1324.35L1324.44 243.191L1324.35 243.942H1323.77C1323.74 244.768 1323.49 245.431 1323.01 245.932C1322.53 246.433 1321.79 246.684 1320.81 246.684H1319.55V245.16H1320.81ZM1320.63 241.635C1320.63 241.924 1320.7 242.139 1320.84 242.281C1320.98 242.415 1321.2 242.482 1321.51 242.482H1322.42V241.677C1322.42 240.943 1322.12 240.576 1321.5 240.576C1321.21 240.576 1321 240.675 1320.85 240.873C1320.7 241.07 1320.63 241.324 1320.63 241.635ZM1324.2 242.418H1325.47C1326.13 242.418 1326.76 242.334 1327.34 242.164C1327.93 241.995 1328.53 241.744 1329.15 241.413C1327.66 240.898 1326.8 240.64 1326.55 240.64C1326.4 240.64 1326.28 240.686 1326.18 240.778C1326.08 240.862 1325.99 241.01 1325.91 241.222L1324.73 240.841C1324.89 240.291 1325.13 239.871 1325.45 239.582C1325.76 239.292 1326.13 239.148 1326.55 239.148C1326.84 239.148 1327.29 239.257 1327.91 239.476C1328.54 239.694 1329.37 240.015 1330.39 240.439L1330.59 242.101C1329.93 242.517 1329.35 242.849 1328.87 243.096C1328.38 243.343 1327.85 243.547 1327.29 243.71C1326.72 243.865 1326.12 243.942 1325.47 243.942H1324.2V242.418ZM1325.96 236.851H1327.36V238.227H1325.96V236.851ZM1333.79 240.397V243.381C1333.79 244.398 1333.52 245.188 1332.99 245.752C1332.46 246.324 1331.71 246.61 1330.73 246.61H1330.06V245.086H1330.73C1331.17 245.086 1331.52 245.033 1331.75 244.927C1332 244.828 1332.17 244.655 1332.27 244.408C1332.38 244.168 1332.43 243.826 1332.43 243.381V240.397H1333.79ZM1337.89 239.052C1338.68 240.28 1339.05 240.862 1339.01 240.799C1339.29 241.243 1339.42 241.684 1339.42 242.122C1339.42 242.503 1339.33 242.831 1339.13 243.106C1338.92 243.41 1338.66 243.625 1338.35 243.752C1338.04 243.879 1337.68 243.942 1337.25 243.942H1336.69C1336.25 243.942 1335.86 243.872 1335.52 243.731C1335.18 243.583 1334.92 243.424 1334.73 243.254L1335.36 242.037C1335.49 242.122 1335.67 242.207 1335.89 242.291C1336.12 242.376 1336.39 242.418 1336.7 242.418H1337.22C1337.46 242.418 1337.64 242.404 1337.76 242.376C1337.88 242.341 1337.97 242.281 1338.03 242.196C1338.06 242.139 1338.08 242.083 1338.08 242.027C1338.08 241.914 1338.02 241.758 1337.89 241.561C1337.45 240.883 1336.91 240.079 1336.27 239.148L1337.4 238.301L1337.89 239.052Z" fill="black"/>
<path d="M1302.28 252.905C1302.62 254.394 1302.91 255.579 1303.12 256.461C1303.24 256.962 1303.48 257.319 1303.82 257.53C1304.18 257.742 1304.56 257.848 1304.99 257.848H1305.2L1305.22 258.017L1305.2 258.166H1304.99C1304.51 258.166 1304.07 258.042 1303.64 257.795C1303.23 257.541 1302.95 257.125 1302.81 256.546L1302.77 256.398C1302.73 256.588 1302.67 256.758 1302.57 256.906C1302.43 257.174 1302.22 257.382 1301.97 257.53C1301.72 257.672 1301.44 257.742 1301.16 257.742C1300.85 257.742 1300.57 257.665 1300.31 257.509C1300.05 257.361 1299.85 257.16 1299.7 256.906C1299.56 256.652 1299.49 256.38 1299.49 256.091C1299.49 255.78 1299.57 255.502 1299.72 255.255C1299.81 255.092 1299.93 254.948 1300.08 254.821C1300.22 254.694 1300.45 254.549 1300.76 254.387C1301.08 254.225 1301.54 254.02 1302.15 253.773L1301.97 252.99L1302.28 252.905ZM1299.99 255.424C1299.86 255.636 1299.8 255.862 1299.8 256.102C1299.8 256.334 1299.86 256.553 1299.98 256.758C1300.1 256.955 1300.27 257.114 1300.48 257.234C1300.7 257.368 1300.93 257.435 1301.17 257.435C1301.4 257.435 1301.61 257.375 1301.81 257.255C1302.01 257.135 1302.17 256.969 1302.3 256.758C1302.4 256.567 1302.48 256.405 1302.52 256.271C1302.57 256.137 1302.59 255.982 1302.59 255.805C1302.59 255.713 1302.59 255.643 1302.58 255.593L1302.22 254.09C1301.65 254.323 1301.22 254.514 1300.93 254.662C1300.64 254.81 1300.44 254.937 1300.31 255.043C1300.18 255.149 1300.08 255.276 1299.99 255.424ZM1307.85 255.054V256.779C1307.85 257.174 1307.98 257.453 1308.23 257.615C1308.47 257.77 1308.73 257.848 1308.99 257.848H1309.52L1309.55 258.007L1309.52 258.166H1308.99C1308.78 258.166 1308.54 258.113 1308.28 258.007C1308.02 257.901 1307.83 257.721 1307.7 257.467C1307.56 257.7 1307.36 257.876 1307.09 257.996C1306.83 258.109 1306.52 258.166 1306.17 258.166H1305.09V257.848H1306.17C1307.08 257.848 1307.54 257.492 1307.54 256.779V255.054H1307.85ZM1304.81 259.499H1305.52V260.208H1304.81V259.499ZM1306.28 259.499H1306.99V260.208H1306.28V259.499ZM1309.41 257.848H1310.51C1310.97 257.848 1311.28 257.739 1311.46 257.52C1311.64 257.301 1311.73 257.033 1311.73 256.715C1311.73 256.391 1311.62 255.731 1311.39 254.736L1311.71 254.673C1311.94 255.668 1312.05 256.349 1312.05 256.715C1312.05 257.096 1311.93 257.435 1311.69 257.732C1311.46 258.021 1311.06 258.166 1310.51 258.166H1309.41V257.848ZM1310.79 252.587H1311.5V253.297H1310.79V252.587ZM1315.17 258.166C1314.63 258.166 1314.23 258.039 1313.96 257.784C1313.7 257.523 1313.57 257.114 1313.57 256.557V251.296H1313.89V256.557C1313.89 257.029 1313.99 257.365 1314.19 257.562C1314.38 257.753 1314.71 257.848 1315.17 257.848H1315.29L1315.32 258.007L1315.29 258.166H1315.17ZM1315.18 257.848H1317.38L1317.4 258.017L1317.38 258.166H1315.18V257.848ZM1317.28 257.848H1319.48L1319.5 258.017L1319.48 258.166H1317.28V257.848ZM1319.38 257.848H1321.58L1321.6 258.017L1321.58 258.166H1319.38V257.848ZM1321.48 257.848H1323.68L1323.7 258.017L1323.68 258.166H1321.48V257.848ZM1323.57 257.848H1325.78L1325.8 258.017L1325.78 258.166H1323.57V257.848ZM1325.67 257.848H1327.1C1327.55 257.848 1327.87 257.739 1328.04 257.52C1328.23 257.301 1328.32 257.033 1328.32 256.715C1328.32 256.391 1328.21 255.731 1327.98 254.736L1328.3 254.673C1328.52 255.668 1328.64 256.349 1328.64 256.715C1328.64 257.096 1328.52 257.435 1328.28 257.732C1328.04 258.021 1327.65 258.166 1327.1 258.166H1325.67V257.848ZM1326.35 252.587H1327.06V253.297H1326.35V252.587ZM1327.2 251.518H1327.91V252.228H1327.2V251.518ZM1328.03 252.587H1328.74V253.297H1328.03V252.587ZM1335.02 255.054V256.779C1335.02 257.174 1335.14 257.453 1335.39 257.615C1335.64 257.77 1335.89 257.848 1336.15 257.848H1336.26L1336.29 258.007L1336.26 258.166H1336.15C1335.96 258.166 1335.76 258.12 1335.54 258.028C1335.33 257.936 1335.15 257.781 1335.02 257.562V258.208C1335.02 259.076 1334.8 259.729 1334.36 260.166C1333.93 260.611 1333.31 260.833 1332.48 260.833H1331.81V260.515H1332.48C1333.23 260.515 1333.79 260.328 1334.15 259.954C1334.52 259.58 1334.7 258.998 1334.7 258.208V255.054H1335.02ZM1336.15 257.848H1337.25C1337.71 257.848 1338.02 257.739 1338.2 257.52C1338.38 257.301 1338.47 257.033 1338.47 256.715C1338.47 256.391 1338.36 255.731 1338.13 254.736L1338.45 254.673C1338.68 255.668 1338.79 256.349 1338.79 256.715C1338.79 257.096 1338.67 257.435 1338.43 257.732C1338.2 258.021 1337.8 258.166 1337.25 258.166H1336.15V257.848ZM1337.13 259.499H1337.84V260.208H1337.13V259.499Z" fill="black"/>
</g>
<defs>
<filter id="filter0_d_12352_187109" x="-31.3" y="0.699997" width="1503.6" height="419.6" filterUnits="userSpaceOnUse" color-interpolation-filters="sRGB">
<feFlood flood-opacity="0" result="BackgroundImageFix"/>
<feColorMatrix in="SourceAlpha" type="matrix" values="0 0 0 0 0 0 0 0 0 0 0 0 0 0 0 0 0 0 127 0" result="hardAlpha"/>
<feOffset dy="26"/>
<feGaussianBlur stdDeviation="46.65"/>
<feComposite in2="hardAlpha" operator="out"/>
<feColorMatrix type="matrix" values="0 0 0 0 0 0 0 0 0 0 0 0 0 0 0 0 0 0 0.09 0"/>
<feBlend mode="normal" in2="BackgroundImageFix" result="effect1_dropShadow_12352_187109"/>
<feBlend mode="normal" in="SourceGraphic" in2="effect1_dropShadow_12352_187109" result="shape"/>
</filter>
<linearGradient id="paint0_linear_12352_187109" x1="113.475" y1="165.284" x2="121.468" y2="163.023" gradientUnits="userSpaceOnUse">
<stop stop-color="#F59723"/>
<stop offset="0.312" stop-color="#F69822"/>
<stop offset="0.838" stop-color="#E87726"/>
</linearGradient>
<linearGradient id="paint1_linear_12352_187109" x1="95.9563" y1="201.001" x2="112.058" y2="166.2" gradientUnits="userSpaceOnUse">
<stop offset="0.323" stop-color="#9C2063"/>
<stop offset="0.63" stop-color="#C82037"/>
<stop offset="0.751" stop-color="#CC2135"/>
<stop offset="1" stop-color="#E87726"/>
</linearGradient>
<linearGradient id="paint2_linear_12352_187109" x1="101.433" y1="198.422" x2="111.023" y2="177.694" gradientUnits="userSpaceOnUse">
<stop stop-color="#282661"/>
<stop offset="0.0955" stop-color="#662E8C"/>
<stop offset="0.788" stop-color="#9E2064"/>
<stop offset="0.949" stop-color="#CC2032"/>
</linearGradient>
<linearGradient id="paint3_linear_12352_187109" x1="96.5388" y1="198.901" x2="112.64" y2="164.1" gradientUnits="userSpaceOnUse">
<stop offset="0.323" stop-color="#9C2063"/>
<stop offset="0.63" stop-color="#C82037"/>
<stop offset="0.751" stop-color="#CC2135"/>
<stop offset="1" stop-color="#E87726"/>
</linearGradient>
<linearGradient id="paint4_linear_12352_187109" x1="98.2044" y1="196.579" x2="106.664" y2="178.295" gradientUnits="userSpaceOnUse">
<stop stop-color="#282661"/>
<stop offset="0.0955" stop-color="#662E8C"/>
<stop offset="0.788" stop-color="#9E2064"/>
<stop offset="0.949" stop-color="#CC2032"/>
</linearGradient>
<linearGradient id="paint5_linear_12352_187109" x1="100.17" y1="200.581" x2="116.271" y2="165.78" gradientUnits="userSpaceOnUse">
<stop offset="0.323" stop-color="#9C2063"/>
<stop offset="0.63" stop-color="#C82037"/>
<stop offset="0.751" stop-color="#CC2135"/>
<stop offset="1" stop-color="#E87726"/>
</linearGradient>
<linearGradient id="paint6_linear_12352_187109" x1="98.9756" y1="202.648" x2="115.077" y2="167.846" gradientUnits="userSpaceOnUse">
<stop offset="0.323" stop-color="#9C2063"/>
<stop offset="0.63" stop-color="#C82037"/>
<stop offset="0.751" stop-color="#CC2135"/>
<stop offset="1" stop-color="#E87726"/>
</linearGradient>
<linearGradient id="paint7_linear_12352_187109" x1="101.243" y1="201.078" x2="117.344" y2="166.277" gradientUnits="userSpaceOnUse">
<stop offset="0.323" stop-color="#9C2063"/>
<stop offset="0.63" stop-color="#C82037"/>
<stop offset="0.751" stop-color="#CC2135"/>
<stop offset="1" stop-color="#E87726"/>
</linearGradient>
<linearGradient id="paint8_linear_12352_187109" x1="101.119" y1="201.021" x2="117.22" y2="166.219" gradientUnits="userSpaceOnUse">
<stop offset="0.323" stop-color="#9C2063"/>
<stop offset="0.63" stop-color="#C82037"/>
<stop offset="0.751" stop-color="#CC2135"/>
<stop offset="1" stop-color="#E87726"/>
</linearGradient>
</defs>
</svg>
