<svg width="368" height="506" viewBox="0 0 368 506" fill="none" xmlns="http://www.w3.org/2000/svg">
<path d="M302.216 258.698C302.063 260.531 301.883 262.336 301.66 264.141C300.466 274.154 298.216 283.805 295.023 292.998C294.231 295.317 293.384 297.609 292.453 299.858C291.454 302.33 290.384 304.76 289.232 307.149V307.163C288.968 307.718 288.704 308.288 288.426 308.829C263.93 358.669 210.757 391.039 152.044 386.262C117.577 383.443 87.0534 368.32 64.4595 345.546C36.7831 317.661 21.0354 278.292 24.4654 236.076C24.6043 234.382 24.7709 232.702 24.9931 231.021C30.3396 185.361 57.4328 147.159 94.9827 125.968C99.8015 123.246 104.787 120.816 109.911 118.691C112.633 117.538 115.382 116.497 118.188 115.539C135.06 109.748 153.307 107.123 172.166 108.331C172.999 108.387 173.832 108.442 174.665 108.498C189.635 109.706 203.855 113.261 217.006 118.746C231.032 124.579 243.85 132.647 255.042 142.437C262.375 148.839 268.985 156.005 274.831 163.767C285.399 177.849 293.342 193.957 297.994 211.33C298.175 212.01 298.355 212.691 298.522 213.371C302.146 227.814 303.507 243.061 302.216 258.698Z" fill="url(#paint0_linear_12093_6843)"/>
<path d="M92.4143 225.619L95.9832 224.439L88.165 221.439L85.0127 223.911L85.9014 227.522L89.8314 228.133L92.4143 225.619ZM147.503 281.153L126.645 272.362L111.703 257.989L92.6365 248.894L86.7068 252.837C83.1796 253.546 80.8466 256.906 81.416 260.461L81.7631 262.642L77.4582 275.598L83.5129 281.111L87.4706 290.596L94.2613 294.401L101.385 301.33L102.038 313.356L107.384 333.45C110.342 344.56 115.994 354.781 123.854 363.168C126.451 364.39 129.034 361.432 127.451 359.03L122.965 352.17L123.465 336.978C127.173 335.297 130.006 332.131 131.256 328.257L135.422 315.342L141.24 310.884C143.754 308.968 145.323 306.066 145.587 302.913L145.754 300.816L149.309 292.901C150.808 289.568 150.503 285.708 148.489 282.666L147.503 281.153ZM47.1155 245.005L48.6708 244.491L45.2686 243.186L43.9076 244.255L44.2965 245.825L46.0046 246.088L47.1155 245.005ZM49.6151 247.547C49.6151 247.547 47.1016 247.908 46.2545 248.13L45.0603 250.254L45.7268 251.74C45.7268 251.74 48.1292 251.976 49.3513 253.129C50.5733 254.282 51.7954 252.907 51.8926 252.782C51.9898 252.657 53.1285 247.102 53.1285 247.102L50.7261 245.464L49.6151 247.547ZM184.22 160.809L177.277 160.837L172.25 159.837C172.25 159.837 170.139 162.254 169.514 162.642L172.569 166.878L175.124 169.017L179.693 166.503L184.845 164.934L184.22 160.809ZM297.287 247.672L292.357 242.825L292.218 237.201L296.773 242.894L301.119 243.992L302.675 244.825C302.508 235.868 301.508 227.105 299.703 218.593C299.481 221.981 299.134 225.439 298.661 225.314C298.578 225.3 298.495 225.272 298.384 225.258C295.842 224.828 293.509 223.564 291.857 221.578L291.607 221.273L292.232 216.454L291.579 215.787C290.232 214.426 289.802 212.399 290.496 210.608C290.607 210.316 290.677 210.108 290.69 210.038C290.718 209.747 290.732 207.677 290.732 207.677L293.384 206.775L296.523 206.219C290.163 185.695 279.164 167.072 264.653 151.7L256.973 147.436L250.641 150.769L249.78 150.839C246.78 151.075 243.934 152.325 241.725 154.366L228.991 166.142L228.852 167.1C228.172 171.572 230.477 175.974 234.532 177.974C234.532 177.974 237.796 182.584 238.323 183.112C238.365 183.153 238.393 183.167 238.393 183.181C238.545 183.139 242.392 180.695 242.392 180.695L245.308 172.058L245.336 166.447C245.336 166.447 251.946 160.823 252.057 160.698C252.168 160.559 255.89 162.031 255.89 162.031L253.349 165.975L251.988 168.294C250.849 170.225 250.599 172.558 251.294 174.696L251.349 174.877L259.348 175.863L255.043 176.099L252.307 178.737L252.821 180.348C252.821 180.348 241.92 186.597 241.364 186.653C241.101 186.681 239.517 186.514 237.99 186.347C236.435 186.181 234.921 185.986 234.921 185.986L234.532 185.139C233.643 183.195 231.074 182.792 229.63 184.375L228.214 185.931L227.228 188.361L221.284 190.541L209.23 194.429L208.453 198.498C208.453 198.498 212.91 202.456 212.688 202.734C212.466 203.011 211.049 204.761 211.049 204.761L207.328 204.414L198.815 207.816C198.815 207.816 198.274 215.801 198.704 215.982C198.996 216.107 202.148 217.218 204.078 217.884C204.967 218.19 205.592 218.412 205.592 218.412C205.592 218.412 212.549 216.468 213.077 215.954C213.605 215.468 218.257 207.414 218.257 207.414L219.243 207.455C226.089 207.733 232.352 211.427 235.893 217.301C237.407 219.801 238.601 221.773 238.532 221.592C238.448 221.412 238.476 219.578 238.532 217.384C238.601 214.801 241.85 213.732 243.461 215.76C245.072 217.801 246.78 219.606 247.933 219.94C250.821 220.773 255.723 214.954 255.723 214.954L257.709 223.231C257.709 223.231 262.042 223.939 262.292 223.953C262.542 223.967 268.735 223.397 268.735 223.397C268.735 223.397 269.416 228.369 269.402 228.563C269.388 228.772 265.222 233.41 265.222 233.41C265.222 233.41 251.294 231.535 250.641 231.132C249.974 230.743 246.391 227.688 246.391 227.688L240.378 229.563C240.378 229.563 229.838 226.383 229.616 225.619C229.38 224.855 229.408 222.745 229.408 222.745L226.992 217.829L219.979 218.148C219.979 218.148 215.452 218.037 215.299 218.162C215.146 218.301 207.633 222.161 207.633 222.161L203.287 220.578L195.094 226.078L194.621 229.98L182.762 241.867C182.762 241.867 177.554 255.045 185.234 264.239C192.899 273.432 211.008 272.543 211.716 273.043C212.035 273.279 214.091 274.737 216.174 276.223C219.312 278.459 221.437 281.833 222.103 285.624L222.992 290.651L228.033 301.261C225.214 308.732 224.7 316.883 226.603 324.646L230.241 339.575C233.852 342.227 238.726 342.394 242.489 339.977C248.113 336.367 255.723 331.034 257.834 327.34C261.292 321.272 262.986 314.759 262.986 314.759C262.986 314.759 268.944 308.885 269.624 305.83C269.93 304.469 270.346 301.455 270.707 298.567C271.263 294.151 273.374 290.082 276.665 287.096C282.733 281.611 291.912 272.876 291.399 270.654C290.635 267.335 282.233 268.877 282.233 268.877C282.233 268.877 272.526 255.67 272.152 254.754C271.999 254.365 271.138 251.463 270.221 248.269C269.666 246.325 272.221 245.061 273.415 246.686C274.721 248.463 275.734 249.991 275.748 250.463C275.79 251.796 277.803 258.017 277.803 258.017L282.678 265.363L294.579 262.489L302.328 257.156C302.564 253.823 302.689 250.518 302.675 247.213L297.287 247.672ZM275.54 214.107H275.526C273.79 214.44 272.027 214.496 270.277 214.26C266.416 213.746 259.792 212.76 260.001 212.107C260.306 211.191 260.75 208.122 260.75 208.122L264.653 205.428L269.416 206.455L269.499 206.386C271.277 204.914 273.693 204.622 275.845 205.442C275.887 205.456 275.915 205.469 275.929 205.469H275.943C277.373 205.692 278.539 206.761 278.873 208.164L278.942 208.427L279.039 209.483C279.22 211.705 277.72 213.69 275.54 214.107ZM287.594 289.735C284.691 289.013 281.692 295.567 281.692 295.567C281.692 295.567 276.693 297.72 276.568 298.011C276.456 298.303 277.581 302.427 277.581 302.427L274.984 305.357L275.262 310.315L280.414 310.037L284.108 305.718L286.038 298.886L289.496 295.22C289.496 295.206 290.482 290.471 287.594 289.735ZM174.749 153.561L183.29 148.45L187.109 148.381L191.913 146.992C191.913 146.992 194.149 142.118 194.024 141.882C193.899 141.66 194.01 138.41 194.01 138.41L203.092 123.121L206.439 120.552L210.383 120.718L211.827 117.594L211.466 116.622C210.119 116.108 208.744 115.636 207.369 115.191C206.647 115.316 201.829 114.344 201.829 114.344L198.676 113.122L197.871 112.414C196.246 111.997 194.594 111.608 192.941 111.261L177.832 112.761C177.832 112.761 176.207 112.705 175.513 112.65C174.805 112.594 171.583 117.024 171.583 117.024C171.583 117.024 167.5 115.649 166.598 115.288C165.695 114.913 156.349 116.566 156.349 116.566L153.044 114.177L124.826 120.649L122.424 119.857L119.646 121.412C119.646 121.412 117.827 120.718 116.147 120.788C114.467 120.843 113.175 123.496 113.175 123.496C113.175 123.496 113.231 129.467 113.203 129.814C113.175 130.147 111.078 132.244 111.078 132.244L106.954 132.744C105.662 130.467 102.927 131.467 102.927 131.467L102.205 131.133C100.538 130.37 98.594 130.467 97.0109 131.383L92.8448 131.3L89.6231 132.216L85.7487 132.494L81.8048 134.48C52.573 155.616 31.6734 187.93 25.7576 225.758L30.2152 222.897L33.4231 226.369C33.4231 226.369 40.5331 238.228 40.6165 238.381C40.6998 238.534 45.8101 238.756 46.4351 239.006C47.0461 239.256 60.3358 247.38 60.3358 247.38L65.9599 246.755L69.5289 250.796C72.584 251.685 75.3058 248.644 74.0976 245.714L72.5284 241.881L67.6541 242.464L64.1269 240.27L67.5847 236.604C67.3208 234.729 65.3489 233.632 63.6131 234.368C61.0301 235.479 57.9056 236.868 57.5862 237.215C57.0446 237.812 52.1981 235.646 52.1981 235.646L51.8787 235.132C49.6429 231.563 50.004 226.938 52.7952 223.758L53.7534 222.661C53.7534 222.661 55.6143 219.759 55.7392 219.565C55.8503 219.384 59.9053 220.995 59.9053 220.995L67.7374 220.259C67.7374 220.259 72.9311 225.55 73.0978 225.869C73.2644 226.175 76.8194 221.189 76.8194 221.189L79.694 217.426L84.11 215.773C84.11 215.773 91.6089 206.636 92.6782 206.761C93.7475 206.9 109.301 197.373 109.301 197.373L113.606 197.832L115.73 194.707L113.161 189.277L118.758 186.528L123.785 190.624C126.854 189.986 128.923 187.111 128.548 184L128.409 182.889L122.993 170.572C122.993 170.572 121.591 166.67 121.466 166.364C121.341 166.059 116.161 166.781 116.161 166.781L112.259 168.086C112.55 165.462 110.537 163.142 107.898 163.073L105.523 163.004C105.523 163.004 102.274 164.17 102.26 164.364C102.246 164.559 94.1085 179.668 94.1085 179.668L90.7618 181.459L88.8315 176.724C88.8315 176.724 84.8877 175.474 83.9711 175.349C83.0546 175.21 79.8468 171.613 79.4996 171.586C79.1663 171.558 81.2354 168.378 81.2354 168.378C81.2354 168.378 91.8589 163.865 91.9977 163.837C92.1505 163.809 95.8999 163.115 95.8999 163.115L105.107 153.574L109.287 152.491L110.592 149.256L113.883 145.826L116.966 152.186L111.092 155.157L110.759 157.754C110.578 159.129 111.606 160.365 112.981 160.448L116.161 160.657L118.383 162.323L126.104 161.42L127.937 158.171L130.548 158.24C132.103 157.004 132.7 154.908 132.033 153.033C131.7 152.089 131.422 151.228 131.422 151.019C131.409 150.478 124.896 142.159 124.896 142.159L121.591 142.826L116.105 140.007L122.077 135.077L124.812 134.758L126.506 131.633L134.144 129.161L136.436 131.855L136.616 135.022L140.31 136.271L141.907 133.786L146.781 132.466L148.031 135.369L151.239 138.84L147.448 150.297L145.156 152.436L146.184 161.087C146.184 161.087 145.018 163.851 144.99 164.198C144.99 164.239 145.004 164.323 145.032 164.448C145.518 166.475 147.712 167.614 149.684 166.92C150.309 166.697 150.767 166.531 150.767 166.531L155.461 166.42L169.847 154.185L174.749 153.561ZM148.212 124.787C148.101 124.606 146.267 124.259 146.267 124.259L144.795 125.245L139.921 126.87C139.949 126.787 142.254 123.662 142.254 123.662L144.046 123.995L146.823 122.273C146.823 122.273 151.864 121.996 152.155 122.024C151.878 122.218 148.323 124.968 148.212 124.787ZM195.843 276.167L190.816 275.167C190.816 275.167 188.706 277.584 188.081 277.973L191.136 282.208L193.691 284.347L198.26 281.833L203.412 280.264L202.787 276.153L195.843 276.167Z" fill="#DAE4FE"/>
<path d="M166.348 224.467H109.093V494.08H166.348V224.467Z" fill="#DAE4FE"/>
<path d="M322.13 225.8H167.584V492.76H322.13V225.8Z" fill="white"/>
<path d="M320.797 227.119V491.427H168.903V227.119H320.797ZM323.45 224.467H166.251V494.08H323.45V224.467Z" fill="#DAE4FE"/>
<path d="M312.633 238.881H177.07V479.679H312.633V238.881Z" fill="#263156"/>
<path d="M194.408 468.835H296.045V252.756H194.408L194.408 468.835Z" fill="#263156"/>
<path d="M194.41 250.282H177.107V469.361H194.41V250.282Z" fill="#263156"/>
<path d="M189.555 252.101V272.765C189.555 273.876 190.458 274.778 191.569 274.778H298.886C299.108 274.778 299.317 274.75 299.497 274.681C300.316 274.431 300.9 273.653 300.9 272.765V252.101C300.9 250.99 299.997 250.087 298.886 250.087H191.583C190.694 250.087 189.93 250.671 189.666 251.49C189.597 251.684 189.555 251.879 189.555 252.101Z" fill="#4B64F0"/>
<path d="M300.802 273.376C300.608 273.445 300.399 273.473 300.191 273.473H192.874C191.763 273.473 190.86 272.57 190.86 271.459V250.796C190.86 250.573 190.888 250.379 190.957 250.185C190.138 250.435 189.555 251.212 189.555 252.101V272.765C189.555 273.875 190.457 274.778 191.568 274.778H298.886C299.788 274.778 300.552 274.195 300.802 273.376Z" fill="#263156"/>
<path d="M268.472 269.807H221.993C221.438 269.807 220.993 269.362 220.993 268.807V256.059C220.993 255.503 221.438 255.059 221.993 255.059H268.472C269.028 255.059 269.472 255.503 269.472 256.059V268.807C269.472 269.348 269.028 269.807 268.472 269.807Z" fill="#263156"/>
<path d="M276.124 258.142H291.705C292.553 258.142 293.247 257.447 293.247 256.6C293.247 255.753 292.553 255.059 291.705 255.059H276.124C275.277 255.059 274.583 255.753 274.583 256.6C274.583 257.447 275.263 258.142 276.124 258.142Z" fill="white"/>
<path d="M276.124 263.432H291.705C292.553 263.432 293.247 262.738 293.247 261.891C293.247 261.044 292.553 260.35 291.705 260.35H276.124C275.277 260.35 274.583 261.044 274.583 261.891C274.583 262.738 275.263 263.432 276.124 263.432Z" fill="white"/>
<path d="M203.288 258.114H215.856C216.703 258.114 217.384 257.433 217.384 256.586C217.384 255.739 216.703 255.059 215.856 255.059H203.288C202.441 255.059 201.761 255.739 201.761 256.586C201.747 257.433 202.441 258.114 203.288 258.114Z" fill="white"/>
<path d="M203.289 269.807H215.856C216.703 269.807 217.384 269.126 217.384 268.279C217.384 267.432 216.703 266.751 215.856 266.751H203.289C202.442 266.751 201.761 267.432 201.761 268.279C201.747 269.126 202.442 269.807 203.289 269.807Z" fill="white"/>
<path d="M196.733 257.447H196.969C197.441 257.447 197.83 257.058 197.83 256.586C197.83 256.114 197.441 255.725 196.969 255.725H196.733C196.26 255.725 195.872 256.114 195.872 256.586C195.872 257.058 196.26 257.447 196.733 257.447Z" fill="white"/>
<path d="M196.732 269.14H196.968C197.441 269.14 197.829 268.751 197.829 268.279C197.829 267.807 197.441 267.418 196.968 267.418H196.732C196.26 267.418 195.871 267.807 195.871 268.279C195.871 268.765 196.26 269.14 196.732 269.14Z" fill="white"/>
<path d="M196.732 263.293H196.968C197.441 263.293 197.829 262.904 197.829 262.432C197.829 261.96 197.441 261.571 196.968 261.571H196.732C196.26 261.571 195.871 261.96 195.871 262.432C195.871 262.904 196.26 263.293 196.732 263.293Z" fill="#E26D33"/>
<path d="M277.069 268.543C277.667 268.543 278.152 268.058 278.152 267.46C278.152 266.862 277.667 266.377 277.069 266.377C276.471 266.377 275.986 266.862 275.986 267.46C275.986 268.058 276.471 268.543 277.069 268.543Z" fill="white"/>
<path d="M285.054 267.46C285.054 268.057 284.568 268.543 283.97 268.543C283.373 268.543 282.887 268.057 282.887 267.46C282.887 266.863 283.373 266.377 283.97 266.377C284.568 266.377 285.054 266.863 285.054 267.46Z" fill="#E26D33"/>
<path d="M291.942 267.46C291.942 268.057 291.455 268.543 290.858 268.543C290.261 268.543 289.775 268.057 289.775 267.46C289.775 266.863 290.261 266.377 290.858 266.377C291.455 266.377 291.942 266.863 291.942 267.46Z" fill="white"/>
<path d="M189.555 284.527V305.191C189.555 306.302 190.458 307.204 191.569 307.204H298.886C299.108 307.204 299.317 307.176 299.497 307.107C300.316 306.857 300.9 306.079 300.9 305.191V284.527C300.9 283.416 299.997 282.513 298.886 282.513H191.583C190.694 282.513 189.93 283.097 189.666 283.916C189.597 284.11 189.555 284.305 189.555 284.527Z" fill="#4B64F0"/>
<path d="M300.802 305.801C300.608 305.871 300.399 305.899 300.191 305.899H192.874C191.763 305.899 190.86 304.996 190.86 303.885V283.221C190.86 282.999 190.888 282.805 190.957 282.61C190.138 282.86 189.555 283.638 189.555 284.527V305.19C189.555 306.301 190.457 307.204 191.568 307.204H298.886C299.788 307.204 300.552 306.621 300.802 305.801Z" fill="#263156"/>
<path d="M268.472 302.233H221.993C221.438 302.233 220.993 301.788 220.993 301.233V288.485C220.993 287.929 221.438 287.485 221.993 287.485H268.472C269.028 287.485 269.472 287.929 269.472 288.485V301.233C269.472 301.788 269.028 302.233 268.472 302.233Z" fill="#263156"/>
<path d="M276.124 290.567H291.705C292.553 290.567 293.247 289.873 293.247 289.026C293.247 288.179 292.553 287.485 291.705 287.485H276.124C275.277 287.485 274.583 288.179 274.583 289.026C274.583 289.873 275.263 290.567 276.124 290.567Z" fill="white"/>
<path d="M276.124 295.859H291.705C292.553 295.859 293.247 295.164 293.247 294.317C293.247 293.47 292.553 292.776 291.705 292.776H276.124C275.277 292.776 274.583 293.47 274.583 294.317C274.583 295.164 275.263 295.859 276.124 295.859Z" fill="white"/>
<path d="M203.288 290.54H215.856C216.703 290.54 217.384 289.859 217.384 289.012C217.384 288.165 216.703 287.485 215.856 287.485H203.288C202.441 287.485 201.761 288.165 201.761 289.012C201.747 289.859 202.441 290.54 203.288 290.54Z" fill="white"/>
<path d="M203.289 302.247H215.856C216.703 302.247 217.384 301.566 217.384 300.719C217.384 299.872 216.703 299.192 215.856 299.192H203.289C202.442 299.192 201.761 299.872 201.761 300.719C201.747 301.552 202.442 302.247 203.289 302.247Z" fill="white"/>
<path d="M196.733 289.873H196.969C197.441 289.873 197.83 289.484 197.83 289.012C197.83 288.54 197.441 288.151 196.969 288.151H196.733C196.26 288.151 195.872 288.54 195.872 289.012C195.872 289.484 196.26 289.873 196.733 289.873Z" fill="white"/>
<path d="M196.732 301.566H196.968C197.441 301.566 197.829 301.177 197.829 300.705C197.829 300.233 197.441 299.844 196.968 299.844H196.732C196.26 299.844 195.871 300.233 195.871 300.705C195.871 301.191 196.26 301.566 196.732 301.566Z" fill="white"/>
<path d="M196.732 295.72H196.968C197.441 295.72 197.829 295.331 197.829 294.859C197.829 294.387 197.441 293.998 196.968 293.998H196.732C196.26 293.998 195.871 294.387 195.871 294.859C195.871 295.331 196.26 295.72 196.732 295.72Z" fill="#E26D33"/>
<path d="M277.069 300.969C277.667 300.969 278.152 300.484 278.152 299.886C278.152 299.287 277.667 298.802 277.069 298.802C276.471 298.802 275.986 299.287 275.986 299.886C275.986 300.484 276.471 300.969 277.069 300.969Z" fill="white"/>
<path d="M285.054 299.886C285.054 300.483 284.568 300.969 283.97 300.969C283.373 300.969 282.887 300.483 282.887 299.886C282.887 299.289 283.373 298.802 283.97 298.802C284.568 298.802 285.054 299.289 285.054 299.886Z" fill="#E26D33"/>
<path d="M291.942 299.886C291.942 300.483 291.455 300.969 290.858 300.969C290.261 300.969 289.775 300.483 289.775 299.886C289.775 299.289 290.261 298.802 290.858 298.802C291.455 298.802 291.942 299.289 291.942 299.886Z" fill="white"/>
<path d="M189.555 316.953V337.617C189.555 338.728 190.458 339.63 191.569 339.63H298.886C299.108 339.63 299.317 339.602 299.497 339.533C300.316 339.283 300.9 338.505 300.9 337.617V316.953C300.9 315.842 299.997 314.939 298.886 314.939H191.583C190.694 314.939 189.93 315.523 189.666 316.342C189.597 316.536 189.555 316.731 189.555 316.953Z" fill="#4B64F0"/>
<path d="M300.802 338.228C300.608 338.297 300.399 338.325 300.191 338.325H192.874C191.763 338.325 190.86 337.422 190.86 336.311V315.648C190.86 315.425 190.888 315.231 190.957 315.037C190.138 315.287 189.555 316.064 189.555 316.953V337.617C189.555 338.728 190.457 339.63 191.568 339.63H298.886C299.788 339.63 300.552 339.047 300.802 338.228Z" fill="#263156"/>
<path d="M268.472 334.659H221.993C221.438 334.659 220.993 334.214 220.993 333.659V320.911C220.993 320.355 221.438 319.911 221.993 319.911H268.472C269.028 319.911 269.472 320.355 269.472 320.911V333.659C269.472 334.214 269.028 334.659 268.472 334.659Z" fill="#263156"/>
<path d="M276.124 322.994H291.705C292.553 322.994 293.247 322.3 293.247 321.453C293.247 320.605 292.553 319.911 291.705 319.911H276.124C275.277 319.911 274.583 320.605 274.583 321.453C274.583 322.3 275.263 322.994 276.124 322.994Z" fill="white"/>
<path d="M276.124 328.285H291.705C292.553 328.285 293.247 327.591 293.247 326.744C293.247 325.897 292.553 325.202 291.705 325.202H276.124C275.277 325.202 274.583 325.897 274.583 326.744C274.583 327.591 275.263 328.285 276.124 328.285Z" fill="white"/>
<path d="M203.288 322.966H215.856C216.703 322.966 217.384 322.286 217.384 321.439C217.384 320.592 216.703 319.911 215.856 319.911H203.288C202.441 319.911 201.761 320.592 201.761 321.439C201.747 322.286 202.441 322.966 203.288 322.966Z" fill="white"/>
<path d="M203.289 334.673H215.856C216.703 334.673 217.384 333.992 217.384 333.145C217.384 332.298 216.703 331.617 215.856 331.617H203.289C202.442 331.617 201.761 332.298 201.761 333.145C201.747 333.978 202.442 334.673 203.289 334.673Z" fill="white"/>
<path d="M196.733 322.3H196.969C197.441 322.3 197.83 321.911 197.83 321.439C197.83 320.966 197.441 320.578 196.969 320.578H196.733C196.26 320.578 195.872 320.966 195.872 321.439C195.872 321.911 196.26 322.3 196.733 322.3Z" fill="white"/>
<path d="M196.732 333.992H196.968C197.441 333.992 197.829 333.603 197.829 333.131C197.829 332.659 197.441 332.27 196.968 332.27H196.732C196.26 332.27 195.871 332.659 195.871 333.131C195.871 333.617 196.26 333.992 196.732 333.992Z" fill="white"/>
<path d="M196.732 328.146H196.968C197.441 328.146 197.829 327.757 197.829 327.285C197.829 326.813 197.441 326.424 196.968 326.424H196.732C196.26 326.424 195.871 326.813 195.871 327.285C195.871 327.757 196.26 328.146 196.732 328.146Z" fill="#E26D33"/>
<path d="M277.069 333.395C277.667 333.395 278.152 332.91 278.152 332.312C278.152 331.714 277.667 331.229 277.069 331.229C276.471 331.229 275.986 331.714 275.986 332.312C275.986 332.91 276.471 333.395 277.069 333.395Z" fill="white"/>
<path d="M285.054 332.312C285.054 332.909 284.568 333.395 283.97 333.395C283.373 333.395 282.887 332.909 282.887 332.312C282.887 331.715 283.373 331.229 283.97 331.229C284.568 331.243 285.054 331.715 285.054 332.312Z" fill="#E26D33"/>
<path d="M291.942 332.312C291.942 332.909 291.455 333.395 290.858 333.395C290.261 333.395 289.775 332.909 289.775 332.312C289.775 331.715 290.261 331.229 290.858 331.229C291.455 331.229 291.942 331.715 291.942 332.312Z" fill="white"/>
<path d="M189.555 349.378V370.041C189.555 371.152 190.458 372.055 191.569 372.055H298.886C299.108 372.055 299.317 372.027 299.497 371.958C300.316 371.708 300.9 370.93 300.9 370.041V349.378C300.9 348.267 299.997 347.364 298.886 347.364H191.583C190.694 347.364 189.93 347.948 189.666 348.767C189.597 348.961 189.555 349.156 189.555 349.378Z" fill="#4B64F0"/>
<path d="M300.802 370.653C300.608 370.722 300.399 370.75 300.191 370.75H192.874C191.763 370.75 190.86 369.847 190.86 368.736V348.073C190.86 347.851 190.888 347.656 190.957 347.462C190.138 347.712 189.555 348.489 189.555 349.378V370.042C189.555 371.153 190.457 372.055 191.568 372.055H298.886C299.788 372.055 300.552 371.472 300.802 370.653Z" fill="#263156"/>
<path d="M268.472 367.084H221.993C221.438 367.084 220.993 366.639 220.993 366.084V353.336C220.993 352.78 221.438 352.336 221.993 352.336H268.472C269.028 352.336 269.472 352.78 269.472 353.336V366.084C269.472 366.639 269.028 367.084 268.472 367.084Z" fill="#263156"/>
<path d="M276.124 355.419H291.705C292.553 355.419 293.247 354.724 293.247 353.877C293.247 353.03 292.553 352.336 291.705 352.336H276.124C275.277 352.336 274.583 353.03 274.583 353.877C274.583 354.724 275.263 355.419 276.124 355.419Z" fill="white"/>
<path d="M276.124 360.71H291.705C292.553 360.71 293.247 360.015 293.247 359.168C293.247 358.321 292.553 357.627 291.705 357.627H276.124C275.277 357.627 274.583 358.321 274.583 359.168C274.583 360.015 275.263 360.71 276.124 360.71Z" fill="white"/>
<path d="M203.288 355.391H215.856C216.703 355.391 217.384 354.711 217.384 353.864C217.384 353.017 216.703 352.336 215.856 352.336H203.288C202.441 352.336 201.761 353.017 201.761 353.864C201.747 354.711 202.441 355.391 203.288 355.391Z" fill="white"/>
<path d="M203.289 367.098H215.856C216.703 367.098 217.384 366.417 217.384 365.57C217.384 364.723 216.703 364.042 215.856 364.042H203.289C202.442 364.042 201.761 364.723 201.761 365.57C201.747 366.403 202.442 367.098 203.289 367.098Z" fill="white"/>
<path d="M196.733 354.725H196.969C197.441 354.725 197.83 354.336 197.83 353.864C197.83 353.392 197.441 353.003 196.969 353.003H196.733C196.26 353.003 195.872 353.392 195.872 353.864C195.872 354.336 196.26 354.725 196.733 354.725Z" fill="white"/>
<path d="M196.732 366.431H196.968C197.441 366.431 197.829 366.043 197.829 365.57C197.829 365.098 197.441 364.709 196.968 364.709H196.732C196.26 364.709 195.871 365.098 195.871 365.57C195.871 366.043 196.26 366.431 196.732 366.431Z" fill="white"/>
<path d="M196.732 360.571H196.968C197.441 360.571 197.829 360.182 197.829 359.71C197.829 359.238 197.441 358.849 196.968 358.849H196.732C196.26 358.849 195.871 359.238 195.871 359.71C195.871 360.196 196.26 360.571 196.732 360.571Z" fill="#E26D33"/>
<path d="M277.069 365.82C277.667 365.82 278.152 365.335 278.152 364.737C278.152 364.139 277.667 363.654 277.069 363.654C276.471 363.654 275.986 364.139 275.986 364.737C275.986 365.335 276.471 365.82 277.069 365.82Z" fill="white"/>
<path d="M285.054 364.737C285.054 365.334 284.568 365.82 283.97 365.82C283.373 365.82 282.887 365.334 282.887 364.737C282.887 364.14 283.373 363.654 283.97 363.654C284.568 363.668 285.054 364.14 285.054 364.737Z" fill="#E26D33"/>
<path d="M291.942 364.737C291.942 365.334 291.455 365.82 290.858 365.82C290.261 365.82 289.775 365.334 289.775 364.737C289.775 364.14 290.261 363.654 290.858 363.654C291.455 363.654 291.942 364.14 291.942 364.737Z" fill="white"/>
<path d="M189.555 381.804V402.468C189.555 403.579 190.458 404.482 191.569 404.482H298.886C299.108 404.482 299.317 404.454 299.497 404.384C300.316 404.134 300.9 403.357 300.9 402.468V381.804C300.9 380.693 299.997 379.791 298.886 379.791H191.583C190.694 379.791 189.93 380.374 189.666 381.193C189.597 381.388 189.555 381.582 189.555 381.804Z" fill="#4B64F0"/>
<path d="M300.802 403.093C300.608 403.162 300.399 403.19 300.191 403.19H192.874C191.763 403.19 190.86 402.287 190.86 401.176V380.513C190.86 380.291 190.888 380.096 190.957 379.902C190.138 380.152 189.555 380.929 189.555 381.818V402.482C189.555 403.593 190.457 404.495 191.568 404.495H298.886C299.788 404.495 300.552 403.898 300.802 403.093Z" fill="#263156"/>
<path d="M268.472 399.51H221.993C221.438 399.51 220.993 399.066 220.993 398.51V385.762C220.993 385.207 221.438 384.762 221.993 384.762H268.472C269.028 384.762 269.472 385.207 269.472 385.762V398.51C269.472 399.066 269.028 399.51 268.472 399.51Z" fill="#263156"/>
<path d="M276.124 387.845H291.705C292.553 387.845 293.247 387.151 293.247 386.304C293.247 385.457 292.553 384.762 291.705 384.762H276.124C275.277 384.762 274.583 385.457 274.583 386.304C274.583 387.165 275.263 387.845 276.124 387.845Z" fill="white"/>
<path d="M276.124 393.136H291.705C292.553 393.136 293.247 392.441 293.247 391.594C293.247 390.747 292.553 390.053 291.705 390.053H276.124C275.277 390.053 274.583 390.747 274.583 391.594C274.583 392.441 275.263 393.136 276.124 393.136Z" fill="white"/>
<path d="M203.288 387.818H215.856C216.703 387.818 217.384 387.137 217.384 386.29C217.384 385.443 216.703 384.762 215.856 384.762H203.288C202.441 384.762 201.761 385.443 201.761 386.29C201.747 387.137 202.441 387.818 203.288 387.818Z" fill="white"/>
<path d="M203.289 399.524H215.856C216.703 399.524 217.384 398.843 217.384 397.996C217.384 397.149 216.703 396.469 215.856 396.469H203.289C202.442 396.469 201.761 397.149 201.761 397.996C201.747 398.843 202.442 399.524 203.289 399.524Z" fill="white"/>
<path d="M196.733 387.151H196.969C197.441 387.151 197.83 386.762 197.83 386.29C197.83 385.818 197.441 385.429 196.969 385.429H196.733C196.26 385.429 195.872 385.818 195.872 386.29C195.872 386.762 196.26 387.151 196.733 387.151Z" fill="white"/>
<path d="M196.732 398.857H196.968C197.441 398.857 197.829 398.469 197.829 397.997C197.829 397.524 197.441 397.135 196.968 397.135H196.732C196.26 397.135 195.871 397.524 195.871 397.997C195.871 398.469 196.26 398.857 196.732 398.857Z" fill="white"/>
<path d="M196.732 392.997H196.968C197.441 392.997 197.829 392.608 197.829 392.136C197.829 391.664 197.441 391.275 196.968 391.275H196.732C196.26 391.275 195.871 391.664 195.871 392.136C195.871 392.622 196.26 392.997 196.732 392.997Z" fill="#E26D33"/>
<path d="M277.069 398.246C277.667 398.246 278.152 397.761 278.152 397.163C278.152 396.565 277.667 396.08 277.069 396.08C276.471 396.08 275.986 396.565 275.986 397.163C275.986 397.761 276.471 398.246 277.069 398.246Z" fill="white"/>
<path d="M285.054 397.163C285.054 397.76 284.568 398.246 283.97 398.246C283.373 398.246 282.887 397.76 282.887 397.163C282.887 396.566 283.373 396.08 283.97 396.08C284.568 396.094 285.054 396.566 285.054 397.163Z" fill="#E26D33"/>
<path d="M291.942 397.163C291.942 397.76 291.455 398.246 290.858 398.246C290.261 398.246 289.775 397.76 289.775 397.163C289.775 396.566 290.261 396.08 290.858 396.08C291.455 396.08 291.942 396.566 291.942 397.163Z" fill="white"/>
<path d="M189.555 414.23V434.893C189.555 436.004 190.458 436.907 191.569 436.907H298.886C299.108 436.907 299.317 436.879 299.497 436.81C300.316 436.56 300.9 435.782 300.9 434.893V414.23C300.9 413.119 299.997 412.216 298.886 412.216H191.583C190.694 412.216 189.93 412.8 189.666 413.619C189.597 413.813 189.555 414.022 189.555 414.23Z" fill="#4B64F0"/>
<path d="M300.802 435.518C300.608 435.588 300.399 435.616 300.191 435.616H192.874C191.763 435.616 190.86 434.713 190.86 433.602V412.938C190.86 412.716 190.888 412.522 190.957 412.327C190.138 412.577 189.555 413.355 189.555 414.244V434.907C189.555 436.018 190.457 436.921 191.568 436.921H298.886C299.788 436.921 300.552 436.324 300.802 435.518Z" fill="#263156"/>
<path d="M268.472 431.936H221.993C221.438 431.936 220.993 431.491 220.993 430.936V418.188C220.993 417.632 221.438 417.188 221.993 417.188H268.472C269.028 417.188 269.472 417.632 269.472 418.188V430.936C269.472 431.491 269.028 431.936 268.472 431.936Z" fill="#263156"/>
<path d="M276.124 420.271H291.705C292.553 420.271 293.247 419.577 293.247 418.729C293.247 417.882 292.553 417.188 291.705 417.188H276.124C275.277 417.188 274.583 417.882 274.583 418.729C274.583 419.59 275.263 420.271 276.124 420.271Z" fill="white"/>
<path d="M276.124 425.562H291.705C292.553 425.562 293.247 424.867 293.247 424.02C293.247 423.173 292.553 422.479 291.705 422.479H276.124C275.277 422.479 274.583 423.173 274.583 424.02C274.583 424.881 275.263 425.562 276.124 425.562Z" fill="white"/>
<path d="M203.288 420.257H215.856C216.703 420.257 217.384 419.577 217.384 418.729C217.384 417.882 216.703 417.202 215.856 417.202H203.288C202.441 417.202 201.761 417.882 201.761 418.729C201.747 419.563 202.441 420.257 203.288 420.257Z" fill="white"/>
<path d="M203.289 431.95H215.856C216.703 431.95 217.384 431.269 217.384 430.422C217.384 429.575 216.703 428.895 215.856 428.895H203.289C202.442 428.895 201.761 429.575 201.761 430.422C201.747 431.269 202.442 431.95 203.289 431.95Z" fill="white"/>
<path d="M196.733 419.576H196.969C197.441 419.576 197.83 419.188 197.83 418.715C197.83 418.243 197.441 417.854 196.969 417.854H196.733C196.26 417.854 195.872 418.243 195.872 418.715C195.872 419.202 196.26 419.576 196.733 419.576Z" fill="white"/>
<path d="M196.732 431.283H196.968C197.441 431.283 197.829 430.894 197.829 430.422C197.829 429.95 197.441 429.561 196.968 429.561H196.732C196.26 429.561 195.871 429.95 195.871 430.422C195.871 430.894 196.26 431.283 196.732 431.283Z" fill="white"/>
<path d="M196.732 425.437H196.968C197.441 425.437 197.829 425.048 197.829 424.576C197.829 424.103 197.441 423.715 196.968 423.715H196.732C196.26 423.715 195.871 424.103 195.871 424.576C195.871 425.048 196.26 425.437 196.732 425.437Z" fill="#E26D33"/>
<path d="M277.069 430.672C277.667 430.672 278.152 430.187 278.152 429.589C278.152 428.991 277.667 428.506 277.069 428.506C276.471 428.506 275.986 428.991 275.986 429.589C275.986 430.187 276.471 430.672 277.069 430.672Z" fill="white"/>
<path d="M285.054 429.589C285.054 430.186 284.568 430.672 283.97 430.672C283.373 430.672 282.887 430.186 282.887 429.589C282.887 428.992 283.373 428.506 283.97 428.506C284.568 428.52 285.054 429.006 285.054 429.589Z" fill="#E26D33"/>
<path d="M291.942 429.589C291.942 430.186 291.455 430.672 290.858 430.672C290.261 430.672 289.775 430.186 289.775 429.589C289.775 428.992 290.261 428.506 290.858 428.506C291.455 428.506 291.942 429.006 291.942 429.589Z" fill="white"/>
<path d="M189.555 446.656V467.319C189.555 468.43 190.458 469.333 191.569 469.333H298.886C299.108 469.333 299.317 469.305 299.497 469.236C300.316 468.986 300.9 468.208 300.9 467.319V446.656C300.9 445.545 299.997 444.642 298.886 444.642H191.583C190.694 444.642 189.93 445.225 189.666 446.045C189.597 446.239 189.555 446.447 189.555 446.656Z" fill="#4B64F0"/>
<path d="M300.802 467.944C300.608 468.014 300.399 468.041 300.191 468.041H192.874C191.763 468.041 190.86 467.139 190.86 466.028V445.364C190.86 445.142 190.888 444.948 190.957 444.753C190.138 445.003 189.555 445.781 189.555 446.67V467.333C189.555 468.444 190.457 469.347 191.568 469.347H298.886C299.788 469.347 300.552 468.75 300.802 467.944Z" fill="#263156"/>
<path d="M268.472 464.361H221.993C221.438 464.361 220.993 463.917 220.993 463.361V450.613C220.993 450.058 221.438 449.614 221.993 449.614H268.472C269.028 449.614 269.472 450.058 269.472 450.613V463.361C269.472 463.917 269.028 464.361 268.472 464.361Z" fill="#263156"/>
<path d="M276.124 452.71H291.705C292.553 452.71 293.247 452.016 293.247 451.169C293.247 450.322 292.553 449.627 291.705 449.627H276.124C275.277 449.627 274.583 450.322 274.583 451.169C274.583 452.016 275.263 452.71 276.124 452.71Z" fill="white"/>
<path d="M276.124 457.987H291.705C292.553 457.987 293.247 457.293 293.247 456.446C293.247 455.599 292.553 454.905 291.705 454.905H276.124C275.277 454.905 274.583 455.599 274.583 456.446C274.583 457.307 275.263 457.987 276.124 457.987Z" fill="white"/>
<path d="M203.288 452.682H215.856C216.703 452.682 217.384 452.002 217.384 451.155C217.384 450.308 216.703 449.627 215.856 449.627H203.288C202.441 449.627 201.761 450.308 201.761 451.155C201.747 451.988 202.441 452.682 203.288 452.682Z" fill="white"/>
<path d="M203.289 464.375H215.856C216.703 464.375 217.384 463.695 217.384 462.848C217.384 462.001 216.703 461.32 215.856 461.32H203.289C202.442 461.32 201.761 462.001 201.761 462.848C201.747 463.695 202.442 464.375 203.289 464.375Z" fill="white"/>
<path d="M196.733 452.002H196.969C197.441 452.002 197.83 451.613 197.83 451.141C197.83 450.669 197.441 450.28 196.969 450.28H196.733C196.26 450.28 195.872 450.669 195.872 451.141C195.872 451.627 196.26 452.002 196.733 452.002Z" fill="white"/>
<path d="M196.732 463.709H196.968C197.441 463.709 197.829 463.32 197.829 462.848C197.829 462.375 197.441 461.987 196.968 461.987H196.732C196.26 461.987 195.871 462.375 195.871 462.848C195.871 463.32 196.26 463.709 196.732 463.709Z" fill="white"/>
<path d="M196.732 457.862H196.968C197.441 457.862 197.829 457.473 197.829 457.001C197.829 456.529 197.441 456.14 196.968 456.14H196.732C196.26 456.14 195.871 456.529 195.871 457.001C195.871 457.473 196.26 457.862 196.732 457.862Z" fill="#E26D33"/>
<path d="M277.069 463.098C277.667 463.098 278.152 462.613 278.152 462.015C278.152 461.416 277.667 460.931 277.069 460.931C276.471 460.931 275.986 461.416 275.986 462.015C275.986 462.613 276.471 463.098 277.069 463.098Z" fill="white"/>
<path d="M285.054 462.014C285.054 462.611 284.568 463.097 283.97 463.097C283.373 463.097 282.887 462.611 282.887 462.014C282.887 461.417 283.373 460.931 283.97 460.931C284.568 460.945 285.054 461.431 285.054 462.014Z" fill="#E26D33"/>
<path d="M291.942 462.014C291.942 462.611 291.455 463.097 290.858 463.097C290.261 463.097 289.775 462.611 289.775 462.014C289.775 461.417 290.261 460.931 290.858 460.931C291.455 460.931 291.942 461.431 291.942 462.014Z" fill="white"/>
<g filter="url(#filter0_d_12093_6843)">
<path d="M215.063 202.303H102.288C97.8719 202.303 94.2891 198.721 94.2891 194.305V167.503C94.2891 163.087 97.8719 159.504 102.288 159.504H215.063C219.479 159.504 223.062 163.087 223.062 167.503V194.291C223.062 198.721 219.479 202.303 215.063 202.303Z" fill="white"/>
</g>
<path d="M134.035 194.087H128.514L128.549 190.012H134.035C135.405 190.012 136.56 189.704 137.501 189.089C138.441 188.462 139.149 187.551 139.625 186.355C140.113 185.159 140.357 183.713 140.357 182.018V180.781C140.357 179.481 140.217 178.337 139.939 177.35C139.672 176.364 139.271 175.533 138.737 174.86C138.203 174.187 137.547 173.681 136.769 173.345C135.991 172.996 135.097 172.822 134.087 172.822H128.409V168.729H134.087C135.782 168.729 137.332 169.02 138.737 169.6C140.154 170.169 141.379 170.988 142.412 172.056C143.445 173.124 144.241 174.401 144.798 175.888C145.367 177.362 145.651 179.005 145.651 180.816V182.018C145.651 183.818 145.367 185.461 144.798 186.947C144.241 188.433 143.445 189.71 142.412 190.778C141.39 191.835 140.165 192.653 138.737 193.234C137.321 193.803 135.753 194.087 134.035 194.087ZM131.475 168.729V194.087H126.25V168.729H131.475ZM170.086 168.729V194.087H164.861L154.673 177.089V194.087H149.448V168.729H154.673L164.879 185.745V168.729H170.086ZM187.833 187.452C187.833 186.999 187.764 186.593 187.624 186.233C187.497 185.861 187.253 185.524 186.893 185.223C186.533 184.909 186.028 184.601 185.378 184.3C184.727 183.998 183.886 183.684 182.852 183.359C181.703 182.987 180.611 182.57 179.578 182.105C178.556 181.641 177.651 181.101 176.861 180.485C176.083 179.858 175.468 179.133 175.015 178.308C174.574 177.484 174.353 176.526 174.353 175.435C174.353 174.378 174.585 173.42 175.05 172.561C175.514 171.69 176.164 170.947 177 170.332C177.836 169.705 178.823 169.223 179.961 168.886C181.111 168.549 182.37 168.381 183.74 168.381C185.61 168.381 187.241 168.718 188.634 169.391C190.028 170.065 191.108 170.988 191.874 172.16C192.652 173.333 193.041 174.674 193.041 176.184H187.851C187.851 175.44 187.694 174.79 187.38 174.233C187.079 173.664 186.614 173.217 185.987 172.892C185.372 172.567 184.594 172.404 183.653 172.404C182.748 172.404 181.993 172.544 181.389 172.822C180.786 173.089 180.333 173.455 180.031 173.919C179.729 174.372 179.578 174.883 179.578 175.452C179.578 175.882 179.683 176.271 179.891 176.619C180.112 176.967 180.437 177.292 180.867 177.594C181.296 177.896 181.825 178.181 182.452 178.448C183.079 178.715 183.804 178.976 184.629 179.231C186.01 179.649 187.224 180.12 188.269 180.642C189.325 181.165 190.208 181.751 190.916 182.401C191.624 183.051 192.158 183.789 192.518 184.613C192.878 185.437 193.058 186.372 193.058 187.417C193.058 188.52 192.843 189.507 192.414 190.378C191.984 191.249 191.363 191.986 190.55 192.59C189.737 193.193 188.768 193.652 187.642 193.965C186.515 194.279 185.256 194.436 183.862 194.436C182.608 194.436 181.372 194.273 180.153 193.948C178.934 193.611 177.825 193.106 176.826 192.433C175.839 191.759 175.05 190.9 174.458 189.855C173.866 188.81 173.569 187.574 173.569 186.146H178.812C178.812 186.935 178.934 187.603 179.177 188.148C179.421 188.694 179.764 189.135 180.205 189.472C180.658 189.809 181.192 190.053 181.807 190.204C182.434 190.355 183.119 190.43 183.862 190.43C184.768 190.43 185.511 190.302 186.092 190.047C186.684 189.791 187.119 189.437 187.398 188.984C187.688 188.532 187.833 188.021 187.833 187.452Z" fill="black"/>
<path d="M327.254 30.8149C326.615 30.8149 325.976 30.8426 325.351 30.8982C325.407 30.1761 325.435 29.454 325.435 28.7318C325.435 12.8592 312.576 0 296.703 0C285.621 0 276.012 6.27685 271.221 15.456C269.332 14.9006 267.318 14.5951 265.249 14.5951C253.626 14.5951 244.197 24.0242 244.197 35.6475C244.197 36.5918 244.266 37.5222 244.391 38.4249C244.238 38.411 244.086 38.411 243.933 38.411C234.462 38.411 226.783 46.0904 226.783 55.5612C226.783 61.0743 229.393 65.9902 233.435 69.1147H250.849H254.404H306.576H308.146H347.959C350.514 65.2264 352 60.5743 352 55.5612C351.986 41.8827 340.919 30.8149 327.254 30.8149Z" fill="#DAE4FE"/>
<path d="M294.564 77.5027V99.43C294.564 113.235 283.373 124.426 269.568 124.426H252.556" stroke="#263156" stroke-width="1.62337" stroke-miterlimit="10" stroke-dasharray="8.1 8.1"/>
<path d="M288.544 122.204C292.762 122.204 296.182 118.785 296.182 114.566C296.182 110.348 292.762 106.929 288.544 106.929C284.326 106.929 280.906 110.348 280.906 114.566C280.906 118.785 284.326 122.204 288.544 122.204Z" fill="#D6D6D6"/>
<path d="M257.43 52.076C256.264 62.5189 251.125 81.8355 229.837 93.9448C229.67 94.042 229.476 94.0837 229.295 94.0837C229.101 94.0837 228.92 94.042 228.74 93.9448C207.451 81.8355 202.313 62.5189 201.147 52.076C201.119 51.7705 201.202 51.4511 201.411 51.215C201.619 50.979 201.911 50.8401 202.216 50.8401C206.327 50.729 209.534 47.4378 209.534 43.3273C209.534 42.9385 209.507 42.5358 209.451 42.1608C209.368 41.5776 209.743 41.0221 210.312 40.8971C217.672 39.314 225.004 36.8283 227.754 35.8701C228.462 35.6201 228.879 35.4674 228.893 35.4674C229.018 35.4257 229.143 35.3979 229.281 35.3979C229.406 35.3979 229.545 35.4118 229.67 35.4674C229.754 35.4952 238.988 38.9252 248.251 40.911C248.82 41.036 249.209 41.5915 249.112 42.1747C249.056 42.5497 249.029 42.9385 249.029 43.3412C249.029 47.4517 252.236 50.7429 256.347 50.854C256.652 50.854 256.944 50.9928 257.152 51.2289C257.375 51.4511 257.472 51.7566 257.43 52.076Z" fill="#4B64F0"/>
<path opacity="0.4" d="M229.295 36.5087V94.0835C229.101 94.0835 228.92 94.0418 228.74 93.9446C207.451 81.8353 202.313 62.5187 201.147 52.0758C201.119 51.7703 201.202 51.4509 201.411 51.2148C201.619 50.9787 201.911 50.8399 202.216 50.8399C206.327 50.7288 209.534 47.4376 209.534 43.3271C209.534 42.9383 209.507 42.5355 209.451 42.1606C209.368 41.5774 209.743 41.0219 210.312 40.8969C217.672 39.3138 225.004 36.8281 227.754 35.8699L229.295 36.5087Z" fill="#263156"/>
<path d="M219.586 59.8525L224.349 70.8787L244.235 54.7422" stroke="white" stroke-width="4.02301" stroke-miterlimit="10" stroke-linecap="round" stroke-linejoin="round"/>
<rect y="199" width="368" height="307" fill="url(#paint1_linear_12093_6843)"/>
<defs>
<filter id="filter0_d_12093_6843" x="86.2891" y="152.504" width="144.772" height="58.7991" filterUnits="userSpaceOnUse" color-interpolation-filters="sRGB">
<feFlood flood-opacity="0" result="BackgroundImageFix"/>
<feColorMatrix in="SourceAlpha" type="matrix" values="0 0 0 0 0 0 0 0 0 0 0 0 0 0 0 0 0 0 127 0" result="hardAlpha"/>
<feOffset dy="1"/>
<feGaussianBlur stdDeviation="4"/>
<feComposite in2="hardAlpha" operator="out"/>
<feColorMatrix type="matrix" values="0 0 0 0 0 0 0 0 0 0 0 0 0 0 0 0 0 0 0.12 0"/>
<feBlend mode="normal" in2="BackgroundImageFix" result="effect1_dropShadow_12093_6843"/>
<feBlend mode="normal" in="SourceGraphic" in2="effect1_dropShadow_12093_6843" result="shape"/>
</filter>
<linearGradient id="paint0_linear_12093_6843" x1="163.347" y1="108.043" x2="163.347" y2="386.728" gradientUnits="userSpaceOnUse">
<stop stop-color="#4B64F0"/>
<stop offset="1" stop-color="#4B64F0" stop-opacity="0"/>
</linearGradient>
<linearGradient id="paint1_linear_12093_6843" x1="184" y1="377.074" x2="184" y2="463.974" gradientUnits="userSpaceOnUse">
<stop stop-color="white" stop-opacity="0"/>
<stop offset="1" stop-color="white"/>
</linearGradient>
</defs>
</svg>
