<svg width="28" height="28" viewBox="0 0 28 28" fill="none" xmlns="http://www.w3.org/2000/svg">
<g clip-path="url(#clip0_11737_23574)">
<path d="M27.5188 23.1711H0.48125C0.213281 23.1711 0 22.9524 0 22.6899V5.31017C0 5.0422 0.21875 4.82892 0.48125 4.82892H27.5133C27.7813 4.82892 27.9945 5.04767 27.9945 5.31017V22.6899C28 22.9578 27.7813 23.1711 27.5188 23.1711Z" fill="#F5F5F5"/>
<path d="M27.5207 23.1712H0.483203C0.215234 23.1712 0.00195312 22.9524 0.00195312 22.6899V20.2782H28.002V22.6899C28.002 22.9579 27.7832 23.1712 27.5207 23.1712Z" fill="#FF4B55"/>
<path d="M0.483203 4.82898H27.5152C27.7832 4.82898 27.9965 5.04773 27.9965 5.31023V7.72195H0.00195312V5.31023C0.00195312 5.04226 0.220703 4.82898 0.483203 4.82898Z" fill="#FF4B55"/>
<path d="M28 10.6204H0V17.3797H28V10.6204Z" fill="#41479B"/>
</g>
<defs>
<clipPath id="clip0_11737_23574">
<rect width="28" height="28" fill="white"/>
</clipPath>
</defs>
</svg>
