<svg width="28" height="28" viewBox="0 0 28 28" fill="none" xmlns="http://www.w3.org/2000/svg">
<path d="M27.5172 23.1724H0.48278C0.216179 23.1724 0 22.9562 0 22.6896V5.31036C0 5.04375 0.216179 4.82758 0.48278 4.82758H27.5172C27.7838 4.82758 28 5.04375 28 5.31036V22.6896C27.9999 22.9563 27.7838 23.1724 27.5172 23.1724Z" fill="#F5F5F5"/>
<path d="M27.9999 6.23878H0V5.31036C0 5.04375 0.216179 4.82758 0.48278 4.82758H27.5172C27.7838 4.82758 28 5.04375 28 5.31036L27.9999 6.23878Z" fill="#FF4B55"/>
<path d="M27.9999 10.4721H0V11.8833H27.9999V10.4721Z" fill="#FF4B55"/>
<path d="M27.9999 7.64966H0V9.06081H27.9999V7.64966Z" fill="#FF4B55"/>
<path d="M27.9999 14.7056H0.48278C0.216179 14.7056 0 14.4894 0 14.2228V13.2944H27.9999V14.7056Z" fill="#FF4B55"/>
<path d="M27.9999 18.9393H0V20.3505H27.9999V18.9393Z" fill="#FF4B55"/>
<path d="M27.5172 23.1724H0.48278C0.216179 23.1724 0 22.9562 0 22.6896V21.7612H27.9999V22.6897C27.9999 22.9563 27.7838 23.1724 27.5172 23.1724Z" fill="#FF4B55"/>
<path d="M27.9999 16.1169H0V17.5281H27.9999V16.1169Z" fill="#FF4B55"/>
<path d="M12.5517 4.82764H0.48278C0.216179 4.82764 0 5.04376 0 5.31036V14.2228C0 14.4894 0.216179 14.7055 0.48278 14.7055H12.5517C12.8183 14.7055 13.0345 14.4894 13.0345 14.2228V5.31036C13.0345 5.04376 12.8183 4.82764 12.5517 4.82764Z" fill="#41479B"/>
<path d="M1.3555 5.93573L1.46236 6.25619L1.80017 6.25876C1.84392 6.25915 1.86202 6.31493 1.82685 6.3409L1.55511 6.54161L1.65705 6.86366C1.67028 6.90533 1.62276 6.9399 1.58716 6.91441L1.31235 6.71803L1.03755 6.91447C1.00195 6.9399 0.954535 6.90539 0.96766 6.86372L1.0696 6.54166L0.797856 6.34096C0.762692 6.31493 0.780793 6.2592 0.824543 6.25882L1.16235 6.25625L1.26921 5.93578C1.28299 5.89422 1.34161 5.89422 1.3555 5.93573Z" fill="#F5F5F5"/>
<path d="M1.3555 7.61208L1.46236 7.93255L1.80017 7.93512C1.84392 7.9355 1.86202 7.99128 1.82685 8.01726L1.55511 8.21796L1.65705 8.54001C1.67028 8.58168 1.62276 8.61625 1.58716 8.59076L1.31235 8.39438L1.03755 8.59082C1.00195 8.61625 0.954535 8.58174 0.96766 8.54007L1.0696 8.21801L0.797856 8.01731C0.762692 7.99128 0.780793 7.93555 0.824543 7.93517L1.16235 7.9326L1.26921 7.61213C1.28299 7.57062 1.34161 7.57062 1.3555 7.61208Z" fill="#F5F5F5"/>
<path d="M1.3555 9.28847L1.46236 9.60894L1.80017 9.61151C1.84392 9.61189 1.86202 9.66767 1.82685 9.69365L1.55511 9.89435L1.65705 10.2164C1.67028 10.2581 1.62276 10.2926 1.58716 10.2672L1.31235 10.0708L1.03755 10.2672C1.00195 10.2926 0.954535 10.2581 0.96766 10.2165L1.0696 9.8944L0.797856 9.6937C0.762692 9.66767 0.780793 9.61194 0.824543 9.61156L1.16235 9.60899L1.26921 9.28852C1.28299 9.24702 1.34161 9.24701 1.3555 9.28847Z" fill="#F5F5F5"/>
<path d="M1.3555 10.9649L1.46236 11.2854L1.80017 11.2879C1.84392 11.2883 1.86202 11.3441 1.82685 11.3701L1.55511 11.5708L1.65705 11.8928C1.67028 11.9345 1.62276 11.9691 1.58716 11.9436L1.31235 11.7472L1.03755 11.9436C1.00195 11.9691 0.954535 11.9346 0.96766 11.8929L1.0696 11.5708L0.797856 11.3701C0.762692 11.3441 0.780793 11.2884 0.824543 11.288L1.16235 11.2854L1.26921 10.965C1.28299 10.9234 1.34161 10.9234 1.3555 10.9649Z" fill="#F5F5F5"/>
<path d="M1.3555 12.6413L1.46236 12.9617L1.80017 12.9643C1.84392 12.9647 1.86202 13.0205 1.82685 13.0465L1.55511 13.2472L1.65705 13.5692C1.67028 13.6109 1.62276 13.6454 1.58716 13.62L1.31235 13.4236L1.03755 13.62C1.00195 13.6454 0.954535 13.6109 0.96766 13.5693L1.0696 13.2472L0.797856 13.0465C0.762692 13.0205 0.780793 12.9647 0.824543 12.9644L1.16235 12.9618L1.26921 12.6413C1.28299 12.5997 1.34161 12.5997 1.3555 12.6413Z" fill="#F5F5F5"/>
<path d="M2.65628 6.75753L2.76314 7.078L3.10095 7.08057C3.1447 7.08095 3.1628 7.13673 3.12763 7.16271L2.85589 7.36341L2.95783 7.68547C2.97106 7.72714 2.92354 7.7617 2.88794 7.73622L2.61314 7.53978L2.33833 7.73622C2.30273 7.76165 2.25532 7.72714 2.26844 7.68547L2.37038 7.36341L2.09864 7.16271C2.06347 7.13668 2.08157 7.08095 2.12532 7.08057L2.46313 7.078L2.56999 6.75753C2.58371 6.71608 2.64245 6.71608 2.65628 6.75753Z" fill="#F5F5F5"/>
<path d="M2.65628 8.43396L2.76314 8.75443L3.10095 8.757C3.1447 8.75738 3.1628 8.81316 3.12763 8.83914L2.85589 9.03984L2.95783 9.3619C2.97106 9.40357 2.92354 9.43813 2.88794 9.41265L2.61314 9.21621L2.33833 9.41265C2.30273 9.43808 2.25532 9.40362 2.26844 9.3619L2.37038 9.03984L2.09864 8.83914C2.06347 8.81311 2.08157 8.75738 2.12532 8.757L2.46313 8.75443L2.56999 8.43396C2.58371 8.39246 2.64245 8.39246 2.65628 8.43396Z" fill="#F5F5F5"/>
<path d="M2.65628 10.1104L2.76314 10.4308L3.10095 10.4334C3.1447 10.4338 3.1628 10.4896 3.12763 10.5155L2.85589 10.7162L2.95783 11.0383C2.97106 11.08 2.92354 11.1145 2.88794 11.089L2.61314 10.8926L2.33833 11.089C2.30273 11.1145 2.25532 11.08 2.26844 11.0383L2.37038 10.7162L2.09864 10.5155C2.06347 10.4895 2.08157 10.4338 2.12532 10.4334L2.46313 10.4308L2.56999 10.1104C2.58371 10.0688 2.64245 10.0688 2.65628 10.1104Z" fill="#F5F5F5"/>
<path d="M2.65628 11.7868L2.76314 12.1072L3.10095 12.1098C3.1447 12.1102 3.1628 12.166 3.12763 12.1919L2.85589 12.3926L2.95783 12.7147C2.97106 12.7564 2.92354 12.7909 2.88794 12.7655L2.61314 12.569L2.33833 12.7655C2.30273 12.7909 2.25532 12.7564 2.26844 12.7147L2.37038 12.3926L2.09864 12.1919C2.06347 12.1659 2.08157 12.1102 2.12532 12.1098L2.46313 12.1072L2.56999 11.7868C2.58371 11.7453 2.64245 11.7453 2.65628 11.7868Z" fill="#F5F5F5"/>
<path d="M3.95902 5.93567L4.06588 6.25614L4.40368 6.25871C4.44743 6.25909 4.46553 6.31487 4.43037 6.34085L4.15863 6.54155L4.26056 6.86361C4.2738 6.90528 4.22628 6.93984 4.19067 6.91436L3.91587 6.71792L3.64107 6.91436C3.60546 6.93979 3.55805 6.90528 3.57118 6.86361L3.67311 6.54155L3.40137 6.34085C3.36621 6.31482 3.38431 6.25909 3.42806 6.25871L3.76586 6.25614L3.87272 5.93567C3.8865 5.89416 3.94518 5.89416 3.95902 5.93567Z" fill="#F5F5F5"/>
<path d="M3.95902 7.61208L4.06588 7.93255L4.40368 7.93512C4.44743 7.9355 4.46553 7.99129 4.43037 8.01726L4.15863 8.21796L4.26056 8.54002C4.2738 8.58169 4.22628 8.61625 4.19067 8.59077L3.91587 8.39433L3.64107 8.59077C3.60546 8.6162 3.55805 8.58169 3.57118 8.54002L3.67311 8.21796L3.40137 8.01726C3.36621 7.99123 3.38431 7.9355 3.42806 7.93512L3.76586 7.93255L3.87272 7.61208C3.8865 7.57063 3.94518 7.57063 3.95902 7.61208Z" fill="#F5F5F5"/>
<path d="M3.95902 9.28848L4.06588 9.60894L4.40368 9.61151C4.44743 9.6119 4.46553 9.66768 4.43037 9.69366L4.15863 9.89436L4.26056 10.2164C4.2738 10.2581 4.22628 10.2926 4.19067 10.2672L3.91587 10.0707L3.64107 10.2672C3.60546 10.2926 3.55805 10.2581 3.57118 10.2164L3.67311 9.89436L3.40137 9.69366C3.36621 9.66762 3.38431 9.6119 3.42806 9.61151L3.76586 9.60894L3.87272 9.28848C3.8865 9.24702 3.94518 9.24702 3.95902 9.28848Z" fill="#F5F5F5"/>
<path d="M3.95902 10.9648L4.06588 11.2853L4.40368 11.2879C4.44743 11.2883 4.46553 11.344 4.43037 11.37L4.15863 11.5707L4.26056 11.8928C4.2738 11.9345 4.22628 11.969 4.19067 11.9435L3.91587 11.7471L3.64107 11.9435C3.60546 11.969 3.55805 11.9345 3.57118 11.8928L3.67311 11.5707L3.40137 11.37C3.36621 11.344 3.38431 11.2883 3.42806 11.2879L3.76586 11.2853L3.87272 10.9648C3.8865 10.9233 3.94518 10.9233 3.95902 10.9648Z" fill="#F5F5F5"/>
<path d="M3.95902 12.6413L4.06588 12.9617L4.40368 12.9643C4.44743 12.9647 4.46553 13.0205 4.43037 13.0465L4.15863 13.2472L4.26056 13.5692C4.2738 13.6109 4.22628 13.6454 4.19067 13.62L3.91587 13.4235L3.64107 13.62C3.60546 13.6454 3.55805 13.6109 3.57118 13.5692L3.67311 13.2472L3.40137 13.0465C3.36621 13.0204 3.38431 12.9647 3.42806 12.9643L3.76586 12.9617L3.87272 12.6413C3.8865 12.5997 3.94518 12.5997 3.95902 12.6413Z" fill="#F5F5F5"/>
<path d="M5.2598 6.75753L5.36666 7.078L5.70446 7.08057C5.74821 7.08095 5.76631 7.13673 5.73115 7.16271L5.45941 7.36341L5.56135 7.68547C5.57458 7.72714 5.52706 7.7617 5.49146 7.73622L5.21665 7.53978L4.94185 7.73622C4.90625 7.76165 4.85883 7.72714 4.87196 7.68547L4.97389 7.36341L4.70215 7.16271C4.66699 7.13668 4.68509 7.08095 4.72884 7.08057L5.06664 7.078L5.1735 6.75753C5.18723 6.71608 5.24596 6.71608 5.2598 6.75753Z" fill="#F5F5F5"/>
<path d="M5.2598 8.43396L5.36666 8.75443L5.70446 8.757C5.74821 8.75738 5.76631 8.81316 5.73115 8.83914L5.45941 9.03984L5.56135 9.3619C5.57458 9.40357 5.52706 9.43813 5.49146 9.41265L5.21665 9.21621L4.94185 9.41265C4.90625 9.43808 4.85883 9.40362 4.87196 9.3619L4.97389 9.03984L4.70215 8.83914C4.66699 8.81311 4.68509 8.75738 4.72884 8.757L5.06664 8.75443L5.1735 8.43396C5.18723 8.39246 5.24596 8.39246 5.2598 8.43396Z" fill="#F5F5F5"/>
<path d="M5.2598 10.1104L5.36666 10.4308L5.70446 10.4334C5.74821 10.4338 5.76631 10.4896 5.73115 10.5155L5.45941 10.7162L5.56135 11.0383C5.57458 11.08 5.52706 11.1145 5.49146 11.089L5.21665 10.8926L4.94185 11.089C4.90625 11.1145 4.85883 11.08 4.87196 11.0383L4.97389 10.7162L4.70215 10.5155C4.66699 10.4895 4.68509 10.4338 4.72884 10.4334L5.06664 10.4308L5.1735 10.1104C5.18723 10.0688 5.24596 10.0688 5.2598 10.1104Z" fill="#F5F5F5"/>
<path d="M5.2598 11.7868L5.36666 12.1072L5.70446 12.1098C5.74821 12.1102 5.76631 12.166 5.73115 12.1919L5.45941 12.3926L5.56135 12.7147C5.57458 12.7564 5.52706 12.7909 5.49146 12.7655L5.21665 12.569L4.94185 12.7655C4.90625 12.7909 4.85883 12.7564 4.87196 12.7147L4.97389 12.3926L4.70215 12.1919C4.66699 12.1659 4.68509 12.1102 4.72884 12.1098L5.06664 12.1072L5.1735 11.7868C5.18723 11.7453 5.24596 11.7453 5.2598 11.7868Z" fill="#F5F5F5"/>
<path d="M6.56064 5.93567L6.66749 6.25614L7.0053 6.25871C7.04905 6.25909 7.06715 6.31487 7.03199 6.34085L6.76024 6.54155L6.86218 6.86361C6.87542 6.90528 6.82789 6.93984 6.79229 6.91436L6.51743 6.71792L6.24263 6.91436C6.20703 6.93979 6.15961 6.90528 6.17274 6.86361L6.27468 6.54155L6.00293 6.34085C5.96777 6.31482 5.98587 6.25909 6.02962 6.25871L6.36742 6.25614L6.47428 5.93567C6.48812 5.89416 6.5468 5.89416 6.56064 5.93567Z" fill="#F5F5F5"/>
<path d="M6.56064 7.61208L6.66749 7.93255L7.0053 7.93512C7.04905 7.9355 7.06715 7.99129 7.03199 8.01726L6.76024 8.21796L6.86218 8.54002C6.87542 8.58169 6.82789 8.61625 6.79229 8.59077L6.51743 8.39433L6.24263 8.59077C6.20703 8.6162 6.15961 8.58169 6.17274 8.54002L6.27468 8.21796L6.00293 8.01726C5.96777 7.99123 5.98587 7.9355 6.02962 7.93512L6.36742 7.93255L6.47428 7.61208C6.48812 7.57063 6.5468 7.57063 6.56064 7.61208Z" fill="#F5F5F5"/>
<path d="M6.56064 9.28848L6.66749 9.60894L7.0053 9.61151C7.04905 9.6119 7.06715 9.66768 7.03199 9.69366L6.76024 9.89436L6.86218 10.2164C6.87542 10.2581 6.82789 10.2926 6.79229 10.2672L6.51743 10.0707L6.24263 10.2672C6.20703 10.2926 6.15961 10.2581 6.17274 10.2164L6.27468 9.89436L6.00293 9.69366C5.96777 9.66762 5.98587 9.6119 6.02962 9.61151L6.36742 9.60894L6.47428 9.28848C6.48812 9.24702 6.5468 9.24702 6.56064 9.28848Z" fill="#F5F5F5"/>
<path d="M6.56064 10.9648L6.66749 11.2853L7.0053 11.2879C7.04905 11.2883 7.06715 11.344 7.03199 11.37L6.76024 11.5707L6.86218 11.8928C6.87542 11.9345 6.82789 11.969 6.79229 11.9435L6.51743 11.7471L6.24263 11.9435C6.20703 11.969 6.15961 11.9345 6.17274 11.8928L6.27468 11.5707L6.00293 11.37C5.96777 11.344 5.98587 11.2883 6.02962 11.2879L6.36742 11.2853L6.47428 10.9648C6.48812 10.9233 6.5468 10.9233 6.56064 10.9648Z" fill="#F5F5F5"/>
<path d="M6.56064 12.6413L6.66749 12.9617L7.0053 12.9643C7.04905 12.9647 7.06715 13.0205 7.03199 13.0465L6.76024 13.2472L6.86218 13.5692C6.87542 13.6109 6.82789 13.6454 6.79229 13.62L6.51743 13.4235L6.24263 13.62C6.20703 13.6454 6.15961 13.6109 6.17274 13.5692L6.27468 13.2472L6.00293 13.0465C5.96777 13.0204 5.98587 12.9647 6.02962 12.9643L6.36742 12.9617L6.47428 12.6413C6.48812 12.5997 6.5468 12.5997 6.56064 12.6413Z" fill="#F5F5F5"/>
<path d="M7.86136 6.75753L7.96822 7.078L8.30603 7.08057C8.34978 7.08095 8.36788 7.13673 8.33271 7.16271L8.06097 7.36341L8.16291 7.68547C8.17614 7.72714 8.12862 7.7617 8.09302 7.73622L7.81821 7.53978L7.54341 7.73622C7.50781 7.76165 7.46039 7.72714 7.47352 7.68547L7.57546 7.36341L7.30371 7.16271C7.26855 7.13668 7.28665 7.08095 7.3304 7.08057L7.66821 7.078L7.77507 6.75753C7.7889 6.71608 7.84753 6.71608 7.86136 6.75753Z" fill="#F5F5F5"/>
<path d="M7.86136 8.43396L7.96822 8.75443L8.30603 8.757C8.34978 8.75738 8.36788 8.81316 8.33271 8.83914L8.06097 9.03984L8.16291 9.3619C8.17614 9.40357 8.12862 9.43813 8.09302 9.41265L7.81821 9.21621L7.54341 9.41265C7.50781 9.43808 7.46039 9.40362 7.47352 9.3619L7.57546 9.03984L7.30371 8.83914C7.26855 8.81311 7.28665 8.75738 7.3304 8.757L7.66821 8.75443L7.77507 8.43396C7.7889 8.39246 7.84753 8.39246 7.86136 8.43396Z" fill="#F5F5F5"/>
<path d="M7.86136 10.1104L7.96822 10.4308L8.30603 10.4334C8.34978 10.4338 8.36788 10.4896 8.33271 10.5155L8.06097 10.7162L8.16291 11.0383C8.17614 11.08 8.12862 11.1145 8.09302 11.089L7.81821 10.8926L7.54341 11.089C7.50781 11.1145 7.46039 11.08 7.47352 11.0383L7.57546 10.7162L7.30371 10.5155C7.26855 10.4895 7.28665 10.4338 7.3304 10.4334L7.66821 10.4308L7.77507 10.1104C7.7889 10.0688 7.84753 10.0688 7.86136 10.1104Z" fill="#F5F5F5"/>
<path d="M7.86136 11.7868L7.96822 12.1072L8.30603 12.1098C8.34978 12.1102 8.36788 12.166 8.33271 12.1919L8.06097 12.3926L8.16291 12.7147C8.17614 12.7564 8.12862 12.7909 8.09302 12.7655L7.81821 12.569L7.54341 12.7655C7.50781 12.7909 7.46039 12.7564 7.47352 12.7147L7.57546 12.3926L7.30371 12.1919C7.26855 12.1659 7.28665 12.1102 7.3304 12.1098L7.66821 12.1072L7.77507 11.7868C7.7889 11.7453 7.84753 11.7453 7.86136 11.7868Z" fill="#F5F5F5"/>
<path d="M9.16214 5.93567L9.269 6.25614L9.60681 6.25871C9.65056 6.25909 9.66866 6.31487 9.6335 6.34085L9.36175 6.54155L9.46369 6.86361C9.47693 6.90528 9.4294 6.93984 9.3938 6.91436L9.119 6.71792L8.84419 6.91436C8.80859 6.93979 8.76118 6.90528 8.7743 6.86361L8.87624 6.54155L8.6045 6.34085C8.56933 6.31482 8.58743 6.25909 8.63118 6.25871L8.96899 6.25614L9.07585 5.93567C9.08957 5.89416 9.14831 5.89416 9.16214 5.93567Z" fill="#F5F5F5"/>
<path d="M9.16214 7.61208L9.269 7.93255L9.60681 7.93512C9.65056 7.9355 9.66866 7.99129 9.6335 8.01726L9.36175 8.21796L9.46369 8.54002C9.47693 8.58169 9.4294 8.61625 9.3938 8.59077L9.119 8.39433L8.84419 8.59077C8.80859 8.6162 8.76118 8.58169 8.7743 8.54002L8.87624 8.21796L8.6045 8.01726C8.56933 7.99123 8.58743 7.9355 8.63118 7.93512L8.96899 7.93255L9.07585 7.61208C9.08957 7.57063 9.14831 7.57063 9.16214 7.61208Z" fill="#F5F5F5"/>
<path d="M9.16214 9.28848L9.269 9.60894L9.60681 9.61151C9.65056 9.6119 9.66866 9.66768 9.6335 9.69366L9.36175 9.89436L9.46369 10.2164C9.47693 10.2581 9.4294 10.2926 9.3938 10.2672L9.119 10.0707L8.84419 10.2672C8.80859 10.2926 8.76118 10.2581 8.7743 10.2164L8.87624 9.89436L8.6045 9.69366C8.56933 9.66762 8.58743 9.6119 8.63118 9.61151L8.96899 9.60894L9.07585 9.28848C9.08957 9.24702 9.14831 9.24702 9.16214 9.28848Z" fill="#F5F5F5"/>
<path d="M9.16214 10.9648L9.269 11.2853L9.60681 11.2879C9.65056 11.2883 9.66866 11.344 9.6335 11.37L9.36175 11.5707L9.46369 11.8928C9.47693 11.9345 9.4294 11.969 9.3938 11.9435L9.119 11.7471L8.84419 11.9435C8.80859 11.969 8.76118 11.9345 8.7743 11.8928L8.87624 11.5707L8.6045 11.37C8.56933 11.344 8.58743 11.2883 8.63118 11.2879L8.96899 11.2853L9.07585 10.9648C9.08957 10.9233 9.14831 10.9233 9.16214 10.9648Z" fill="#F5F5F5"/>
<path d="M9.16214 12.6413L9.269 12.9617L9.60681 12.9643C9.65056 12.9647 9.66866 13.0205 9.6335 13.0465L9.36175 13.2472L9.46369 13.5692C9.47693 13.6109 9.4294 13.6454 9.3938 13.62L9.119 13.4235L8.84419 13.62C8.80859 13.6454 8.76118 13.6109 8.7743 13.5692L8.87624 13.2472L8.6045 13.0465C8.56933 13.0204 8.58743 12.9647 8.63118 12.9643L8.96899 12.9617L9.07585 12.6413C9.08957 12.5997 9.14831 12.5997 9.16214 12.6413Z" fill="#F5F5F5"/>
<path d="M10.4629 6.75753L10.5698 7.078L10.9076 7.08057C10.9513 7.08095 10.9694 7.13673 10.9343 7.16271L10.6625 7.36341L10.7645 7.68547C10.7777 7.72714 10.7302 7.7617 10.6946 7.73622L10.4198 7.53978L10.145 7.73622C10.1094 7.76165 10.062 7.72714 10.0751 7.68547L10.177 7.36341L9.90528 7.16271C9.87011 7.13668 9.88821 7.08095 9.93196 7.08057L10.2698 7.078L10.3766 6.75753C10.3904 6.71608 10.4491 6.71608 10.4629 6.75753Z" fill="#F5F5F5"/>
<path d="M10.4629 8.43396L10.5698 8.75443L10.9076 8.757C10.9513 8.75738 10.9694 8.81316 10.9343 8.83914L10.6625 9.03984L10.7645 9.3619C10.7777 9.40357 10.7302 9.43813 10.6946 9.41265L10.4198 9.21621L10.145 9.41265C10.1094 9.43808 10.062 9.40362 10.0751 9.3619L10.177 9.03984L9.90528 8.83914C9.87011 8.81311 9.88821 8.75738 9.93196 8.757L10.2698 8.75443L10.3766 8.43396C10.3904 8.39246 10.4491 8.39246 10.4629 8.43396Z" fill="#F5F5F5"/>
<path d="M10.4629 10.1104L10.5698 10.4308L10.9076 10.4334C10.9513 10.4338 10.9694 10.4896 10.9343 10.5155L10.6625 10.7162L10.7645 11.0383C10.7777 11.08 10.7302 11.1145 10.6946 11.089L10.4198 10.8926L10.145 11.089C10.1094 11.1145 10.062 11.08 10.0751 11.0383L10.177 10.7162L9.90528 10.5155C9.87011 10.4895 9.88821 10.4338 9.93196 10.4334L10.2698 10.4308L10.3766 10.1104C10.3904 10.0688 10.4491 10.0688 10.4629 10.1104Z" fill="#F5F5F5"/>
<path d="M10.4629 11.7868L10.5698 12.1072L10.9076 12.1098C10.9513 12.1102 10.9694 12.166 10.9343 12.1919L10.6625 12.3926L10.7645 12.7147C10.7777 12.7564 10.7302 12.7909 10.6946 12.7655L10.4198 12.569L10.145 12.7655C10.1094 12.7909 10.062 12.7564 10.0751 12.7147L10.177 12.3926L9.90528 12.1919C9.87011 12.1659 9.88821 12.1102 9.93196 12.1098L10.2698 12.1072L10.3766 11.7868C10.3904 11.7453 10.4491 11.7453 10.4629 11.7868Z" fill="#F5F5F5"/>
<path d="M11.7657 5.93567L11.8725 6.25614L12.2103 6.25871C12.2541 6.25909 12.2722 6.31487 12.237 6.34085L11.9653 6.54155L12.0672 6.86361C12.0804 6.90528 12.0329 6.93984 11.9973 6.91436L11.7225 6.71792L11.4477 6.91436C11.4121 6.93979 11.3647 6.90528 11.3778 6.86361L11.4798 6.54155L11.208 6.34085C11.1728 6.31482 11.1909 6.25909 11.2347 6.25871L11.5725 6.25614L11.6794 5.93567C11.6931 5.89416 11.7518 5.89416 11.7657 5.93567Z" fill="#F5F5F5"/>
<path d="M11.7657 7.61208L11.8725 7.93255L12.2103 7.93512C12.2541 7.9355 12.2722 7.99129 12.237 8.01726L11.9653 8.21796L12.0672 8.54002C12.0804 8.58169 12.0329 8.61625 11.9973 8.59077L11.7225 8.39433L11.4477 8.59077C11.4121 8.6162 11.3647 8.58169 11.3778 8.54002L11.4798 8.21796L11.208 8.01726C11.1728 7.99123 11.1909 7.9355 11.2347 7.93512L11.5725 7.93255L11.6794 7.61208C11.6931 7.57063 11.7518 7.57063 11.7657 7.61208Z" fill="#F5F5F5"/>
<path d="M11.7657 9.28848L11.8725 9.60894L12.2103 9.61151C12.2541 9.6119 12.2722 9.66768 12.237 9.69366L11.9653 9.89436L12.0672 10.2164C12.0804 10.2581 12.0329 10.2926 11.9973 10.2672L11.7225 10.0707L11.4477 10.2672C11.4121 10.2926 11.3647 10.2581 11.3778 10.2164L11.4798 9.89436L11.208 9.69366C11.1728 9.66762 11.1909 9.6119 11.2347 9.61151L11.5725 9.60894L11.6794 9.28848C11.6931 9.24702 11.7518 9.24702 11.7657 9.28848Z" fill="#F5F5F5"/>
<path d="M11.7657 10.9648L11.8725 11.2853L12.2103 11.2879C12.2541 11.2883 12.2722 11.344 12.237 11.37L11.9653 11.5707L12.0672 11.8928C12.0804 11.9345 12.0329 11.969 11.9973 11.9435L11.7225 11.7471L11.4477 11.9435C11.4121 11.969 11.3647 11.9345 11.3778 11.8928L11.4798 11.5707L11.208 11.37C11.1728 11.344 11.1909 11.2883 11.2347 11.2879L11.5725 11.2853L11.6794 10.9648C11.6931 10.9233 11.7518 10.9233 11.7657 10.9648Z" fill="#F5F5F5"/>
<path d="M11.7657 12.6413L11.8725 12.9617L12.2103 12.9643C12.2541 12.9647 12.2722 13.0205 12.237 13.0465L11.9653 13.2472L12.0672 13.5692C12.0804 13.6109 12.0329 13.6454 11.9973 13.62L11.7225 13.4235L11.4477 13.62C11.4121 13.6454 11.3647 13.6109 11.3778 13.5692L11.4798 13.2472L11.208 13.0465C11.1728 13.0204 11.1909 12.9647 11.2347 12.9643L11.5725 12.9617L11.6794 12.6413C11.6931 12.5997 11.7518 12.5997 11.7657 12.6413Z" fill="#F5F5F5"/>
</svg>
