<svg width="28" height="28" viewBox="0 0 28 28" fill="none" xmlns="http://www.w3.org/2000/svg">
<path d="M0.178062 23.0557L14 14L0.178062 4.94434C0.0716953 5.03287 0 5.16117 0 5.31036V22.6897C0 22.8389 0.0716953 22.9672 0.178062 23.0557Z" fill="#F5F5F5"/>
<path d="M0.177734 23.0558C0.261406 23.1254 0.365039 23.1725 0.482398 23.1725H27.5169C27.7835 23.1725 27.9997 22.9563 27.9997 22.6897V14.0001H13.9997L0.177734 23.0558Z" fill="#FF4B55"/>
<path d="M0.177734 4.94434C0.261406 4.87467 0.365039 4.82764 0.482398 4.82764H27.5169C27.7835 4.82764 27.9997 5.04382 27.9997 5.31042V14H13.9997L0.177734 4.94434Z" fill="#41479B"/>
<path d="M5.07094 15.569C5.93746 15.569 6.63992 14.8665 6.63992 14C6.63992 13.1335 5.93746 12.431 5.07094 12.431C4.20441 12.431 3.50195 13.1335 3.50195 14C3.50195 14.8665 4.20441 15.569 5.07094 15.569Z" fill="#FFE15A"/>
<path d="M5.0708 14L4.48242 11.6466L5.0708 10.8621L5.65913 11.6466L5.0708 14Z" fill="#FFE15A"/>
<path d="M5.0708 14L5.65913 16.3534L5.0708 17.1379L4.48242 16.3534L5.0708 14Z" fill="#FFE15A"/>
<path d="M5.06961 14L2.71613 14.5884L1.93164 14L2.71613 13.4116L5.06961 14Z" fill="#FFE15A"/>
<path d="M5.07031 14L7.42373 13.4116L8.20823 14L7.42373 14.5884L5.07031 14Z" fill="#FFE15A"/>
<path d="M5.07031 14L6.31839 11.9199L7.28915 11.7811L7.15046 12.7519L5.07031 14Z" fill="#FFE15A"/>
<path d="M5.07045 14L3.82232 16.0801L2.85156 16.2189L2.9903 15.2481L5.07045 14Z" fill="#FFE15A"/>
<path d="M5.07045 14L2.9903 12.7519L2.85156 11.7811L3.82232 11.9199L5.07045 14Z" fill="#FFE15A"/>
<path d="M5.07031 14L7.15046 15.2481L7.28915 16.2189L6.31839 16.0801L5.07031 14Z" fill="#FFE15A"/>
<path d="M1.29642 7.20202L1.37824 7.81233L0.827204 8.0873C0.755892 8.1229 0.770876 8.22883 0.849353 8.24316L1.45507 8.35395L1.54629 8.96295C1.5581 9.04181 1.66349 9.06024 1.70138 8.99003L1.99396 8.44818L2.60132 8.54957C2.67996 8.56275 2.73006 8.46814 2.67504 8.4105L2.25012 7.9648L2.53422 7.41847C2.57102 7.34776 2.49654 7.27087 2.42468 7.30538L1.86949 7.57181L1.43774 7.13273C1.38195 7.07596 1.28587 7.12305 1.29642 7.20202Z" fill="#FFE15A"/>
<path d="M1.53868 19.0808L1.43532 19.6879L0.82752 19.7866C0.748825 19.7994 0.731708 19.905 0.802309 19.942L1.34771 20.2279L1.25381 20.8364C1.24167 20.9152 1.33677 20.9641 1.39381 20.9084L1.83421 20.478L2.38404 20.7554C2.45524 20.7914 2.53115 20.7159 2.49582 20.6445L2.2226 20.0927L2.65627 19.6556C2.71238 19.599 2.66425 19.5035 2.58529 19.515L1.97596 19.6043L1.69421 19.0567C1.65773 18.9859 1.55197 19.0022 1.53868 19.0808Z" fill="#FFE15A"/>
<path d="M11.0893 13.1007L10.7348 13.6043L10.1437 13.432C10.0672 13.4097 10.0062 13.4977 10.054 13.5614L10.4234 14.0541L10.0769 14.5631C10.032 14.629 10.0969 14.7141 10.1723 14.6884L10.755 14.4893L11.132 14.9762C11.1809 15.0393 11.2818 15.0038 11.2806 14.9241L11.2713 14.3085L11.8509 14.1003C11.9259 14.0734 11.9235 13.9664 11.8473 13.9429L11.2588 13.7615L11.24 13.146C11.2377 13.0662 11.1351 13.0354 11.0893 13.1007Z" fill="#FFE15A"/>
</svg>
