<svg width="28" height="28" viewBox="0 0 28 28" fill="none" xmlns="http://www.w3.org/2000/svg">
<g clip-path="url(#clip0_11737_23181)">
<path d="M0 17.0575H27.9999V22.6896C27.9999 22.9562 27.7838 23.1724 27.5172 23.1724H0.48278C0.216179 23.1724 0 22.9562 0 22.6896V17.0575Z" fill="#FF4B55"/>
<path d="M0.48278 4.82764H27.5172C27.7838 4.82764 28 5.04382 28 5.31042V10.9426H0V5.31036C0 5.04376 0.216179 4.82764 0.48278 4.82764Z" fill="#FFE15A"/>
<path d="M27.9999 10.9424H0V17.057H27.9999V10.9424Z" fill="#73AF00"/>
<path d="M14.2755 7.92744L15.7212 12.2621L20.2904 12.2976C20.5692 12.2997 20.6847 12.6554 20.4606 12.821L16.7848 15.5354L18.1631 19.8919C18.2472 20.1577 17.9446 20.3775 17.7178 20.2155L14.0003 17.5584L10.2829 20.2155C10.0561 20.3776 9.7536 20.1577 9.83765 19.8919L11.2159 15.5354L7.54018 12.821C7.31596 12.6554 7.43152 12.2996 7.71031 12.2976L12.2796 12.2621L13.7252 7.92744C13.8133 7.66302 14.1874 7.66302 14.2755 7.92744Z" fill="#F5F5F5"/>
</g>
<defs>
<clipPath id="clip0_11737_23181">
<rect width="28" height="28" fill="white"/>
</clipPath>
</defs>
</svg>
