<svg width="28" height="28" viewBox="0 0 28 28" fill="none" xmlns="http://www.w3.org/2000/svg">
<g clip-path="url(#clip0_11737_23405)">
<path d="M27.5172 23.1724H0.48278C0.216179 23.1724 0 22.9562 0 22.6896V5.31029C0 5.04369 0.216179 4.82751 0.48278 4.82751H27.5172C27.7838 4.82751 28 5.04369 28 5.31029V22.6896C27.9999 22.9562 27.7838 23.1724 27.5172 23.1724Z" fill="#73AF00"/>
<path d="M28.0019 8.20703H0.00195312V10.138H28.0019V8.20703Z" fill="#F5F5F5"/>
<path d="M28.0019 17.8621H0.00195312V19.7931H28.0019V17.8621Z" fill="#F5F5F5"/>
<path d="M27.9999 10.1379H0V17.862H27.9999V10.1379Z" fill="#C8414B"/>
<path d="M13.8808 11.0258L13.1779 13.1335L10.9561 13.1506C10.8342 13.1516 10.7838 13.307 10.8818 13.3794L12.6691 14.6993L11.9989 16.8177C11.9622 16.9339 12.0944 17.0299 12.1936 16.9591L14.0011 15.6671L15.8087 16.9591C15.9078 17.0299 16.04 16.9339 16.0033 16.8177L15.3331 14.6993L17.1205 13.3794C17.2185 13.307 17.1679 13.1516 17.0461 13.1506L14.8243 13.1335L14.1214 11.0258C14.0828 10.9102 13.9194 10.9102 13.8808 11.0258Z" fill="#FFE15A"/>
</g>
<defs>
<clipPath id="clip0_11737_23405">
<rect width="28" height="28" fill="white"/>
</clipPath>
</defs>
</svg>
