<svg width="28" height="28" viewBox="0 0 28 28" fill="none" xmlns="http://www.w3.org/2000/svg">
<g clip-path="url(#clip0_11737_23293)">
<path d="M27.5172 23.1724H0.48278C0.216179 23.1724 0 22.9562 0 22.6896V5.31036C0 5.04375 0.216179 4.82758 0.48278 4.82758H27.5172C27.7838 4.82758 28 5.04375 28 5.31036V22.6896C27.9999 22.9563 27.7838 23.1724 27.5172 23.1724Z" fill="#FF4B55"/>
<path d="M14.2266 8.52959L15.5177 12.4009L19.5985 12.4325C19.8267 12.4343 19.9213 12.7255 19.7377 12.861L16.4549 15.2853L17.6859 19.1761C17.7547 19.3937 17.507 19.5737 17.3213 19.441L14.0013 17.0679L10.6812 19.441C10.4956 19.5737 10.2479 19.3937 10.3167 19.1761L11.5477 15.2853L8.26483 12.861C8.08124 12.7255 8.1759 12.4343 8.40406 12.4325L12.4849 12.4009L13.776 8.52959C13.8482 8.31314 14.1544 8.31314 14.2266 8.52959Z" fill="#FFE15A"/>
</g>
<defs>
<clipPath id="clip0_11737_23293">
<rect width="28" height="28" fill="white"/>
</clipPath>
</defs>
</svg>
