<svg width="28" height="28" viewBox="0 0 28 28" fill="none" xmlns="http://www.w3.org/2000/svg">
<path d="M27.5172 23.1724H0.48278C0.216179 23.1724 0 22.9562 0 22.6896V5.31036C0 5.04375 0.216179 4.82758 0.48278 4.82758H27.5172C27.7838 4.82758 28 5.04375 28 5.31036V22.6896C27.9999 22.9562 27.7838 23.1724 27.5172 23.1724Z" fill="#41479B"/>
<path d="M27.9999 9.17218H0V18.8272H27.9999V9.17218Z" fill="#FF4B55"/>
<path d="M20.3896 17.6604V16.9759H20.1615V16.5195H19.9333V16.0633H19.7051V15.607H19.0207V14.238H19.0206L19.2488 14.0099V13.3254H19.0207V12.8691H18.7925V12.1846H18.5644V11.7283H18.3362V11.272H18.1081V11.0439H17.6517V11.272H17.4236V11.7283H17.1954V12.1846H16.9673V12.8691H16.7392V13.3254H15.3702V12.6409H15.1421V11.9565H14.9139V11.272H14.6858V10.8157H14.4576V10.3594H14.2294V10.1312H14.1154V9.90308H13.8872V10.1312H13.7731V10.3594H13.545V10.8157H13.3168V11.272H13.0887V11.9565H12.8605V12.6409H12.6324V13.3254H11.2634V12.8691H11.0353V12.1846H10.8071V11.7283H10.5789V11.272H10.3508V11.0439H9.89448V11.272H9.66632V11.7283H9.43817V12.1846H9.21001V12.8691H8.98186V13.3254H8.7537V14.0099L8.98175 14.238H8.98186V15.607H8.29744V16.0633H8.06929V16.5195H7.84108V16.9759H7.61292V17.6604H7.38477V18.3448H20.6178V17.6604H20.3896Z" fill="#F5F5F5"/>
</svg>
