<svg width="24" height="24" viewBox="0 0 24 24" fill="none" xmlns="http://www.w3.org/2000/svg">
<path d="M12 23.0001C18.0751 23.0001 23 18.0752 23 12.0001C23 5.92496 18.0751 1.00009 12 1.00009C5.92487 1.00009 1 5.92496 1 12.0001C1 18.0752 5.92487 23.0001 12 23.0001Z" fill="#E6ECFF"/>
<path d="M13 11.0001H11C10.7348 11.0001 10.4804 10.8947 10.2929 10.7072C10.1054 10.5197 10 10.2653 10 10.0001C10 9.73488 10.1054 9.48053 10.2929 9.29299C10.4804 9.10545 10.7348 9.00009 11 9.00009H15C15.2652 9.00009 15.5196 8.89474 15.7071 8.7072C15.8946 8.51966 16 8.26531 16 8.00009C16 7.73488 15.8946 7.48052 15.7071 7.29299C15.5196 7.10545 15.2652 7.00009 15 7.00009H13V6.00009C13 5.73488 12.8946 5.48052 12.7071 5.29299C12.5196 5.10545 12.2652 5.00009 12 5.00009C11.7348 5.00009 11.4804 5.10545 11.2929 5.29299C11.1054 5.48052 11 5.73488 11 6.00009V7.00009C10.2044 7.00009 9.44129 7.31616 8.87868 7.87877C8.31607 8.44138 8 9.20445 8 10.0001C8 10.7957 8.31607 11.5588 8.87868 12.1214C9.44129 12.684 10.2044 13.0001 11 13.0001H13C13.2652 13.0001 13.5196 13.1055 13.7071 13.293C13.8946 13.4805 14 13.7349 14 14.0001C14 14.2653 13.8946 14.5197 13.7071 14.7072C13.5196 14.8947 13.2652 15.0001 13 15.0001H9C8.73478 15.0001 8.48043 15.1055 8.29289 15.293C8.10536 15.4805 8 15.7349 8 16.0001C8 16.2653 8.10536 16.5197 8.29289 16.7072C8.48043 16.8947 8.73478 17.0001 9 17.0001H11V18.0001C11 18.2653 11.1054 18.5197 11.2929 18.7072C11.4804 18.8947 11.7348 19.0001 12 19.0001C12.2652 19.0001 12.5196 18.8947 12.7071 18.7072C12.8946 18.5197 13 18.2653 13 18.0001V17.0001C13.7957 17.0001 14.5587 16.684 15.1213 16.1214C15.6839 15.5588 16 14.7957 16 14.0001C16 13.2044 15.6839 12.4414 15.1213 11.8788C14.5587 11.3162 13.7957 11.0001 13 11.0001Z" fill="#4294FF"/>
</svg>
