<svg width="108" height="108" viewBox="0 0 108 108" fill="none" xmlns="http://www.w3.org/2000/svg">
<g filter="url(#filter0_d_11219_2228)">
<rect x="4" y="3" width="100" height="100" rx="10" fill="white"/>
<g clip-path="url(#clip0_11219_2228)">
<path d="M69.0586 58.967C69.3517 58.9724 69.6429 58.919 69.9148 58.81C70.1867 58.7011 70.4337 58.5388 70.641 58.333C70.8483 58.127 71.0116 57.8818 71.1214 57.6117C71.231 57.3416 71.2848 57.0524 71.2793 56.7612V37.2065C71.2848 36.8748 71.2087 36.5467 71.0573 36.251L54.0343 53.159C53.9675 53.2286 53.8871 53.284 53.798 53.3219C53.709 53.3597 53.6132 53.3793 53.5163 53.3793C53.4194 53.3793 53.3236 53.3597 53.2346 53.3219C53.1456 53.284 53.0651 53.2286 52.9983 53.159L35.9745 36.251C35.8232 36.5467 35.747 36.8748 35.7525 37.2065V56.7612C35.7471 57.0524 35.8008 57.3416 35.9105 57.6117C36.0202 57.8818 36.1836 58.127 36.3909 58.333C36.5982 58.5388 36.8452 58.7011 37.117 58.81C37.3889 58.919 37.6802 58.9724 37.9733 58.967H52.6276V64.4068H50.7036C50.5857 64.4021 50.4681 64.4218 50.3582 64.4644C50.2484 64.5071 50.1486 64.5719 50.0653 64.6547C49.9818 64.7376 49.9166 64.8367 49.8736 64.9458C49.8307 65.0549 49.8109 65.1717 49.8156 65.2888V66.4648H36.6405C36.5239 66.4648 36.4084 66.4876 36.3007 66.5319C36.193 66.5762 36.0951 66.6412 36.0126 66.7231C35.9302 66.805 35.8647 66.9022 35.8201 67.0092C35.7755 67.1162 35.7525 67.2309 35.7525 67.3468C35.7525 67.4626 35.7755 67.5772 35.8201 67.6843C35.8647 67.7913 35.9302 67.8885 36.0126 67.9704C36.0951 68.0523 36.193 68.1172 36.3007 68.1616C36.4084 68.206 36.5239 68.2288 36.6405 68.2288H49.8156V69.4048C49.8106 69.5219 49.8303 69.6388 49.8732 69.7482C49.916 69.8575 49.9812 69.9567 50.0647 70.0397C50.1481 70.1227 50.2479 70.1877 50.3579 70.2304C50.4679 70.2732 50.5855 70.2929 50.7036 70.2882H56.3283C56.4462 70.2929 56.5637 70.2733 56.6736 70.2306C56.7834 70.1879 56.8832 70.1231 56.9666 70.0402C57.05 69.9574 57.1153 69.8583 57.1582 69.7492C57.2012 69.64 57.221 69.5233 57.2163 69.4063V68.2295H70.3913C70.6268 68.2295 70.8527 68.1366 71.0192 67.9711C71.1858 67.8058 71.2793 67.5814 71.2793 67.3475C71.2793 67.1136 71.1858 66.8893 71.0192 66.7238C70.8527 66.5584 70.6268 66.4655 70.3913 66.4655H57.2163V65.2888C57.221 65.1717 57.2012 65.0549 57.1582 64.9458C57.1153 64.8367 57.05 64.7376 56.9666 64.6547C56.8832 64.5719 56.7834 64.5071 56.6736 64.4644C56.5637 64.4218 56.4462 64.4021 56.3283 64.4068H54.4036V58.8935H69.0586V58.967Z" fill="#007BFF"/>
<path d="M70.0217 35.2208C69.7239 35.0705 69.3936 34.9948 69.0597 35.0003H37.9736C37.6397 34.9948 37.3094 35.0705 37.0116 35.2208L53.5167 51.6143L70.0217 35.2208Z" fill="#CBCBCB"/>
</g>
</g>
<defs>
<filter id="filter0_d_11219_2228" x="0" y="0" width="108" height="108" filterUnits="userSpaceOnUse" color-interpolation-filters="sRGB">
<feFlood flood-opacity="0" result="BackgroundImageFix"/>
<feColorMatrix in="SourceAlpha" type="matrix" values="0 0 0 0 0 0 0 0 0 0 0 0 0 0 0 0 0 0 127 0" result="hardAlpha"/>
<feOffset dy="1"/>
<feGaussianBlur stdDeviation="2"/>
<feColorMatrix type="matrix" values="0 0 0 0 0 0 0 0 0 0 0 0 0 0 0 0 0 0 0.04 0"/>
<feBlend mode="normal" in2="BackgroundImageFix" result="effect1_dropShadow_11219_2228"/>
<feBlend mode="normal" in="SourceGraphic" in2="effect1_dropShadow_11219_2228" result="shape"/>
</filter>
<clipPath id="clip0_11219_2228">
<rect width="37" height="36" fill="white" transform="translate(35 35)"/>
</clipPath>
</defs>
</svg>
