<svg width="80" height="81" viewBox="0 0 80 81" fill="none" xmlns="http://www.w3.org/2000/svg">
<g filter="url(#filter0_d_352_2715)">
<path d="M40 52.0342C48.2843 52.0342 55 45.3185 55 37.0342C55 28.7499 48.2843 22.0342 40 22.0342C31.7157 22.0342 25 28.7499 25 37.0342C25 45.3185 31.7157 52.0342 40 52.0342Z" fill="#0F295D"/>
</g>
<path d="M39.5781 28.8311C39.6979 29.3415 39.8073 29.8232 39.9062 30.2764C40.0052 30.7243 40.0938 31.1592 40.1719 31.5811C40.2552 32.0029 40.3281 32.4222 40.3906 32.8389C40.4531 33.2503 40.5026 33.6774 40.5391 34.1201C40.5807 34.5628 40.612 35.0264 40.6328 35.5107C40.6536 35.9899 40.6641 36.5107 40.6641 37.0732V40.0342H39.4453V37.1357C39.4453 36.3649 39.4219 35.6488 39.375 34.9873C39.3333 34.3206 39.2656 33.6644 39.1719 33.0186C39.0833 32.3727 38.9688 31.7139 38.8281 31.042C38.6875 30.3649 38.5208 29.6279 38.3281 28.8311H39.5781Z" fill="white"/>
<defs>
<filter id="filter0_d_352_2715" x="0" y="0.0341797" width="80" height="80" filterUnits="userSpaceOnUse" color-interpolation-filters="sRGB">
<feFlood flood-opacity="0" result="BackgroundImageFix"/>
<feColorMatrix in="SourceAlpha" type="matrix" values="0 0 0 0 0 0 0 0 0 0 0 0 0 0 0 0 0 0 127 0" result="hardAlpha"/>
<feOffset dy="3"/>
<feGaussianBlur stdDeviation="12.5"/>
<feColorMatrix type="matrix" values="0 0 0 0 0.0588235 0 0 0 0 0.160784 0 0 0 0 0.364706 0 0 0 0.251 0"/>
<feBlend mode="normal" in2="BackgroundImageFix" result="effect1_dropShadow_352_2715"/>
<feBlend mode="normal" in="SourceGraphic" in2="effect1_dropShadow_352_2715" result="shape"/>
</filter>
</defs>
</svg>
