<svg width="51" height="50" viewBox="0 0 51 50" fill="none" xmlns="http://www.w3.org/2000/svg">
<g clip-path="url(#clip0_11218_6458)">
<path d="M49.6378 41.3793H1.36211C0.886034 41.3793 0.5 40.9933 0.5 40.5172V9.48277C0.5 9.0067 0.886034 8.62067 1.36211 8.62067H49.6379C50.114 8.62067 50.5 9.0067 50.5 9.48277V40.5172C50.4999 40.9934 50.1139 41.3793 49.6378 41.3793Z" fill="#F5F5F5"/>
<path d="M50.4999 11.1407H0.5V9.48277C0.5 9.0067 0.886034 8.62067 1.36211 8.62067H49.6379C50.114 8.62067 50.5 9.0067 50.5 9.48277L50.4999 11.1407Z" fill="#FF4B55"/>
<path d="M50.4999 18.7002H0.5V21.2201H50.4999V18.7002Z" fill="#FF4B55"/>
<path d="M50.4999 13.6602H0.5V16.1801H50.4999V13.6602Z" fill="#FF4B55"/>
<path d="M50.4999 26.2599H1.36211C0.886034 26.2599 0.5 25.8739 0.5 25.3978V23.7399H50.4999V26.2599Z" fill="#FF4B55"/>
<path d="M50.4999 33.8203H0.5V36.3402H50.4999V33.8203Z" fill="#FF4B55"/>
<path d="M49.6378 41.3792H1.36211C0.886034 41.3792 0.5 40.9932 0.5 40.5171V38.8593H50.4999V40.5172C50.4999 40.9933 50.1139 41.3792 49.6378 41.3792Z" fill="#FF4B55"/>
<path d="M50.4999 28.7802H0.5V31.3001H50.4999V28.7802Z" fill="#FF4B55"/>
<path d="M22.9137 8.62079H1.36211C0.886034 8.62079 0.5 9.00672 0.5 9.4828V25.3978C0.5 25.8739 0.886034 26.2599 1.36211 26.2599H22.9138C23.3899 26.2599 23.7759 25.8739 23.7759 25.3978V9.4828C23.7758 9.00672 23.3898 8.62079 22.9137 8.62079Z" fill="#41479B"/>
<path d="M2.92152 10.5995L3.11234 11.1717L3.71556 11.1763C3.79368 11.177 3.82601 11.2766 3.76321 11.323L3.27796 11.6814L3.45999 12.2565C3.48363 12.3309 3.39876 12.3926 3.33519 12.3471L2.84447 11.9964L2.35375 12.3472C2.29017 12.3926 2.2055 12.331 2.22894 12.2566L2.41097 11.6815L1.92572 11.3231C1.86293 11.2766 1.89525 11.1771 1.97337 11.1764L2.5766 11.1718L2.76742 10.5996C2.79203 10.5253 2.89671 10.5253 2.92152 10.5995Z" fill="#F5F5F5"/>
<path d="M2.92115 13.5929L3.11197 14.1652L3.71519 14.1698C3.79332 14.1705 3.82564 14.2701 3.76285 14.3165L3.2776 14.6749L3.45963 15.2499C3.48326 15.3244 3.3984 15.3861 3.33482 15.3406L2.8441 14.9899L2.35338 15.3407C2.2898 15.3861 2.20514 15.3245 2.22857 15.25L2.41061 14.675L1.92535 14.3166C1.86256 14.2701 1.89488 14.1706 1.97301 14.1699L2.57623 14.1653L2.76705 13.593C2.79166 13.5189 2.89635 13.5189 2.92115 13.5929Z" fill="#F5F5F5"/>
<path d="M2.92115 16.5865L3.11197 17.1588L3.71519 17.1634C3.79332 17.164 3.82564 17.2637 3.76285 17.31L3.2776 17.6684L3.45963 18.2435C3.48326 18.318 3.3984 18.3797 3.33482 18.3342L2.8441 17.9835L2.35338 18.3343C2.2898 18.3797 2.20514 18.318 2.22857 18.2436L2.41061 17.6685L1.92535 17.3101C1.86256 17.2637 1.89488 17.1641 1.97301 17.1635L2.57623 17.1589L2.76705 16.5866C2.79166 16.5125 2.89635 16.5125 2.92115 16.5865Z" fill="#F5F5F5"/>
<path d="M2.92115 19.5802L3.11197 20.1524L3.71519 20.157C3.79332 20.1577 3.82564 20.2573 3.76285 20.3037L3.2776 20.6621L3.45963 21.2372C3.48326 21.3116 3.3984 21.3733 3.33482 21.3278L2.8441 20.9771L2.35338 21.3279C2.2898 21.3733 2.20514 21.3117 2.22857 21.2373L2.41061 20.6622L1.92535 20.3038C1.86256 20.2573 1.89488 20.1578 1.97301 20.1571L2.57623 20.1525L2.76705 19.5803C2.79166 19.5061 2.89635 19.5061 2.92115 19.5802Z" fill="#F5F5F5"/>
<path d="M2.92115 22.5737L3.11197 23.146L3.71519 23.1506C3.79332 23.1513 3.82564 23.2509 3.76285 23.2973L3.2776 23.6556L3.45963 24.2307C3.48326 24.3052 3.3984 24.3669 3.33482 24.3214L2.8441 23.9707L2.35338 24.3215C2.2898 24.3669 2.20514 24.3053 2.22857 24.2308L2.41061 23.6557L1.92535 23.2973C1.86256 23.2509 1.89488 23.1514 1.97301 23.1507L2.57623 23.1461L2.76705 22.5738C2.79166 22.4995 2.89635 22.4995 2.92115 22.5737Z" fill="#F5F5F5"/>
<path d="M5.24464 12.0671L5.43546 12.6393L6.03868 12.6439C6.1168 12.6446 6.14913 12.7442 6.08633 12.7906L5.60108 13.149L5.78311 13.7241C5.80675 13.7985 5.72188 13.8602 5.65831 13.8147L5.16759 13.4639L4.67687 13.8147C4.61329 13.8601 4.52862 13.7985 4.55206 13.7241L4.73409 13.149L4.24884 12.7906C4.18605 12.7441 4.21837 12.6446 4.29649 12.6439L4.89972 12.6393L5.09054 12.0671C5.11505 11.993 5.21993 11.993 5.24464 12.0671Z" fill="#F5F5F5"/>
<path d="M5.24464 15.0607L5.43546 15.633L6.03868 15.6376C6.1168 15.6383 6.14913 15.7379 6.08633 15.7842L5.60108 16.1426L5.78311 16.7177C5.80675 16.7922 5.72188 16.8539 5.65831 16.8084L5.16759 16.4576L4.67687 16.8084C4.61329 16.8538 4.52862 16.7923 4.55206 16.7177L4.73409 16.1426L4.24884 15.7842C4.18605 15.7378 4.21837 15.6383 4.29649 15.6376L4.89972 15.633L5.09054 15.0607C5.11505 14.9866 5.21993 14.9866 5.24464 15.0607Z" fill="#F5F5F5"/>
<path d="M5.24464 18.0542L5.43546 18.6265L6.03868 18.6311C6.1168 18.6318 6.14913 18.7314 6.08633 18.7778L5.60108 19.1362L5.78311 19.7113C5.80675 19.7857 5.72188 19.8474 5.65831 19.8019L5.16759 19.4511L4.67687 19.8019C4.61329 19.8473 4.52862 19.7857 4.55206 19.7113L4.73409 19.1362L4.24884 18.7778C4.18605 18.7313 4.21837 18.6318 4.29649 18.6311L4.89972 18.6265L5.09054 18.0542C5.11505 17.9801 5.21993 17.9801 5.24464 18.0542Z" fill="#F5F5F5"/>
<path d="M5.24464 21.0478L5.43546 21.6201L6.03868 21.6247C6.1168 21.6254 6.14913 21.725 6.08633 21.7714L5.60108 22.1298L5.78311 22.7049C5.80675 22.7793 5.72188 22.841 5.65831 22.7955L5.16759 22.4447L4.67687 22.7955C4.61329 22.8409 4.52862 22.7793 4.55206 22.7049L4.73409 22.1298L4.24884 21.7714C4.18605 21.7249 4.21837 21.6254 4.29649 21.6247L4.89972 21.6201L5.09054 21.0478C5.11505 20.9738 5.21993 20.9738 5.24464 21.0478Z" fill="#F5F5F5"/>
<path d="M7.56825 10.5994L7.75907 11.1717L8.36229 11.1763C8.44041 11.177 8.47274 11.2766 8.40994 11.3229L7.92469 11.6813L8.10672 12.2564C8.13035 12.3309 8.04549 12.3926 7.98192 12.3471L7.4912 11.9963L7.00047 12.3471C6.9369 12.3925 6.85223 12.3309 6.87567 12.2564L7.0577 11.6813L6.57245 11.3229C6.50965 11.2765 6.54198 11.177 6.6201 11.1763L7.22332 11.1717L7.41414 10.5994C7.43875 10.5253 7.54354 10.5253 7.56825 10.5994Z" fill="#F5F5F5"/>
<path d="M7.56825 13.5929L7.75907 14.1652L8.36229 14.1698C8.44041 14.1705 8.47274 14.2701 8.40994 14.3165L7.92469 14.6749L8.10672 15.25C8.13035 15.3244 8.04549 15.3861 7.98192 15.3406L7.4912 14.9898L7.00047 15.3406C6.9369 15.386 6.85223 15.3244 6.87567 15.25L7.0577 14.6749L6.57245 14.3165C6.50965 14.27 6.54198 14.1705 6.6201 14.1698L7.22332 14.1652L7.41414 13.5929C7.43875 13.5189 7.54354 13.5189 7.56825 13.5929Z" fill="#F5F5F5"/>
<path d="M7.56825 16.5865L7.75907 17.1588L8.36229 17.1634C8.44041 17.1641 8.47274 17.2637 8.40994 17.3101L7.92469 17.6685L8.10672 18.2436C8.13035 18.318 8.04549 18.3797 7.98192 18.3342L7.4912 17.9834L7.00047 18.3342C6.9369 18.3796 6.85223 18.318 6.87567 18.2436L7.0577 17.6685L6.57245 17.3101C6.50965 17.2636 6.54198 17.1641 6.6201 17.1634L7.22332 17.1588L7.41414 16.5865C7.43875 16.5125 7.54354 16.5125 7.56825 16.5865Z" fill="#F5F5F5"/>
<path d="M7.56825 19.5801L7.75907 20.1524L8.36229 20.157C8.44041 20.1577 8.47274 20.2573 8.40994 20.3037L7.92469 20.6621L8.10672 21.2372C8.13035 21.3116 8.04549 21.3733 7.98192 21.3278L7.4912 20.977L7.00047 21.3278C6.9369 21.3732 6.85223 21.3116 6.87567 21.2372L7.0577 20.6621L6.57245 20.3037C6.50965 20.2572 6.54198 20.1577 6.6201 20.157L7.22332 20.1524L7.41414 19.5801C7.43875 19.506 7.54354 19.506 7.56825 19.5801Z" fill="#F5F5F5"/>
<path d="M7.56825 22.5737L7.75907 23.146L8.36229 23.1506C8.44041 23.1513 8.47274 23.2509 8.40994 23.2973L7.92469 23.6557L8.10672 24.2308C8.13035 24.3052 8.04549 24.3669 7.98192 24.3214L7.4912 23.9706L7.00047 24.3214C6.9369 24.3668 6.85223 24.3052 6.87567 24.2308L7.0577 23.6557L6.57245 23.2973C6.50965 23.2508 6.54198 23.1513 6.6201 23.1506L7.22332 23.146L7.41414 22.5737C7.43875 22.4995 7.54354 22.4995 7.56825 22.5737Z" fill="#F5F5F5"/>
<path d="M9.89198 12.0671L10.0828 12.6393L10.686 12.6439C10.7641 12.6446 10.7965 12.7442 10.7337 12.7906L10.2484 13.149L10.4305 13.7241C10.4541 13.7985 10.3692 13.8602 10.3056 13.8147L9.81493 13.4639L9.3242 13.8147C9.26063 13.8601 9.17596 13.7985 9.1994 13.7241L9.38143 13.149L8.89618 12.7906C8.83338 12.7441 8.86571 12.6446 8.94383 12.6439L9.54706 12.6393L9.73788 12.0671C9.76239 11.993 9.86727 11.993 9.89198 12.0671Z" fill="#F5F5F5"/>
<path d="M9.89198 15.0607L10.0828 15.633L10.686 15.6376C10.7641 15.6383 10.7965 15.7379 10.7337 15.7842L10.2484 16.1426L10.4305 16.7177C10.4541 16.7922 10.3692 16.8539 10.3056 16.8084L9.81493 16.4576L9.3242 16.8084C9.26063 16.8538 9.17596 16.7923 9.1994 16.7177L9.38143 16.1426L8.89618 15.7842C8.83338 15.7378 8.86571 15.6383 8.94383 15.6376L9.54706 15.633L9.73788 15.0607C9.76239 14.9866 9.86727 14.9866 9.89198 15.0607Z" fill="#F5F5F5"/>
<path d="M9.89198 18.0542L10.0828 18.6265L10.686 18.6311C10.7641 18.6318 10.7965 18.7314 10.7337 18.7778L10.2484 19.1362L10.4305 19.7113C10.4541 19.7857 10.3692 19.8474 10.3056 19.8019L9.81493 19.4511L9.3242 19.8019C9.26063 19.8473 9.17596 19.7857 9.1994 19.7113L9.38143 19.1362L8.89618 18.7778C8.83338 18.7313 8.86571 18.6318 8.94383 18.6311L9.54706 18.6265L9.73788 18.0542C9.76239 17.9801 9.86727 17.9801 9.89198 18.0542Z" fill="#F5F5F5"/>
<path d="M9.89198 21.0478L10.0828 21.6201L10.686 21.6247C10.7641 21.6254 10.7965 21.725 10.7337 21.7714L10.2484 22.1298L10.4305 22.7049C10.4541 22.7793 10.3692 22.841 10.3056 22.7955L9.81493 22.4447L9.3242 22.7955C9.26063 22.8409 9.17596 22.7793 9.1994 22.7049L9.38143 22.1298L8.89618 21.7714C8.83338 21.7249 8.86571 21.6254 8.94383 21.6247L9.54706 21.6201L9.73788 21.0478C9.76239 20.9738 9.86727 20.9738 9.89198 21.0478Z" fill="#F5F5F5"/>
<path d="M12.2154 10.5994L12.4063 11.1717L13.0095 11.1763C13.0876 11.177 13.1199 11.2766 13.0571 11.3229L12.5719 11.6813L12.7539 12.2564C12.7775 12.3309 12.6927 12.3926 12.6291 12.3471L12.1383 11.9963L11.6476 12.3471C11.584 12.3925 11.4993 12.3309 11.5228 12.2564L11.7048 11.6813L11.2195 11.3229C11.1567 11.2765 11.1891 11.177 11.2672 11.1763L11.8704 11.1717L12.0612 10.5994C12.0859 10.5253 12.1907 10.5253 12.2154 10.5994Z" fill="#F5F5F5"/>
<path d="M12.2154 13.5929L12.4063 14.1652L13.0095 14.1698C13.0876 14.1705 13.1199 14.2701 13.0571 14.3165L12.5719 14.6749L12.7539 15.25C12.7775 15.3244 12.6927 15.3861 12.6291 15.3406L12.1383 14.9898L11.6476 15.3406C11.584 15.386 11.4993 15.3244 11.5228 15.25L11.7048 14.6749L11.2195 14.3165C11.1567 14.27 11.1891 14.1705 11.2672 14.1698L11.8704 14.1652L12.0612 13.5929C12.0859 13.5189 12.1907 13.5189 12.2154 13.5929Z" fill="#F5F5F5"/>
<path d="M12.2154 16.5865L12.4063 17.1588L13.0095 17.1634C13.0876 17.1641 13.1199 17.2637 13.0571 17.3101L12.5719 17.6685L12.7539 18.2436C12.7775 18.318 12.6927 18.3797 12.6291 18.3342L12.1383 17.9834L11.6476 18.3342C11.584 18.3796 11.4993 18.318 11.5228 18.2436L11.7048 17.6685L11.2195 17.3101C11.1567 17.2636 11.1891 17.1641 11.2672 17.1634L11.8704 17.1588L12.0612 16.5865C12.0859 16.5125 12.1907 16.5125 12.2154 16.5865Z" fill="#F5F5F5"/>
<path d="M12.2154 19.5801L12.4063 20.1524L13.0095 20.157C13.0876 20.1577 13.1199 20.2573 13.0571 20.3037L12.5719 20.6621L12.7539 21.2372C12.7775 21.3116 12.6927 21.3733 12.6291 21.3278L12.1383 20.977L11.6476 21.3278C11.584 21.3732 11.4993 21.3116 11.5228 21.2372L11.7048 20.6621L11.2195 20.3037C11.1567 20.2572 11.1891 20.1577 11.2672 20.157L11.8704 20.1524L12.0612 19.5801C12.0859 19.506 12.1907 19.506 12.2154 19.5801Z" fill="#F5F5F5"/>
<path d="M12.2154 22.5737L12.4063 23.146L13.0095 23.1506C13.0876 23.1513 13.1199 23.2509 13.0571 23.2973L12.5719 23.6557L12.7539 24.2308C12.7775 24.3052 12.6927 24.3669 12.6291 24.3214L12.1383 23.9706L11.6476 24.3214C11.584 24.3668 11.4993 24.3052 11.5228 24.2308L11.7048 23.6557L11.2195 23.2973C11.1567 23.2508 11.1891 23.1513 11.2672 23.1506L11.8704 23.146L12.0612 22.5737C12.0859 22.4995 12.1907 22.4995 12.2154 22.5737Z" fill="#F5F5F5"/>
<path d="M14.539 12.0671L14.7298 12.6393L15.333 12.6439C15.4111 12.6446 15.4434 12.7442 15.3806 12.7906L14.8954 13.149L15.0774 13.7241C15.1011 13.7985 15.0162 13.8602 14.9526 13.8147L14.4619 13.4639L13.9712 13.8147C13.9076 13.8601 13.8229 13.7985 13.8464 13.7241L14.0284 13.149L13.5432 12.7906C13.4804 12.7441 13.5127 12.6446 13.5908 12.6439L14.194 12.6393L14.3848 12.0671C14.4096 11.993 14.5142 11.993 14.539 12.0671Z" fill="#F5F5F5"/>
<path d="M14.539 15.0607L14.7298 15.633L15.333 15.6376C15.4111 15.6383 15.4434 15.7379 15.3806 15.7842L14.8954 16.1426L15.0774 16.7177C15.1011 16.7922 15.0162 16.8539 14.9526 16.8084L14.4619 16.4576L13.9712 16.8084C13.9076 16.8538 13.8229 16.7923 13.8464 16.7177L14.0284 16.1426L13.5432 15.7842C13.4804 15.7378 13.5127 15.6383 13.5908 15.6376L14.194 15.633L14.3848 15.0607C14.4096 14.9866 14.5142 14.9866 14.539 15.0607Z" fill="#F5F5F5"/>
<path d="M14.539 18.0542L14.7298 18.6265L15.333 18.6311C15.4111 18.6318 15.4434 18.7314 15.3806 18.7778L14.8954 19.1362L15.0774 19.7113C15.1011 19.7857 15.0162 19.8474 14.9526 19.8019L14.4619 19.4511L13.9712 19.8019C13.9076 19.8473 13.8229 19.7857 13.8464 19.7113L14.0284 19.1362L13.5432 18.7778C13.4804 18.7313 13.5127 18.6318 13.5908 18.6311L14.194 18.6265L14.3848 18.0542C14.4096 17.9801 14.5142 17.9801 14.539 18.0542Z" fill="#F5F5F5"/>
<path d="M14.539 21.0478L14.7298 21.6201L15.333 21.6247C15.4111 21.6254 15.4434 21.725 15.3806 21.7714L14.8954 22.1298L15.0774 22.7049C15.1011 22.7793 15.0162 22.841 14.9526 22.7955L14.4619 22.4447L13.9712 22.7955C13.9076 22.8409 13.8229 22.7793 13.8464 22.7049L14.0284 22.1298L13.5432 21.7714C13.4804 21.7249 13.5127 21.6254 13.5908 21.6247L14.194 21.6201L14.3848 21.0478C14.4096 20.9738 14.5142 20.9738 14.539 21.0478Z" fill="#F5F5F5"/>
<path d="M16.8627 10.5994L17.0535 11.1717L17.6567 11.1763C17.7348 11.177 17.7672 11.2766 17.7044 11.3229L17.2191 11.6813L17.4012 12.2564C17.4248 12.3309 17.3399 12.3926 17.2764 12.3471L16.7856 11.9963L16.2949 12.3471C16.2313 12.3925 16.1467 12.3309 16.1701 12.2564L16.3521 11.6813L15.8669 11.3229C15.8041 11.2765 15.8364 11.177 15.9145 11.1763L16.5178 11.1717L16.7086 10.5994C16.7331 10.5253 16.838 10.5253 16.8627 10.5994Z" fill="#F5F5F5"/>
<path d="M16.8627 13.5929L17.0535 14.1652L17.6567 14.1698C17.7348 14.1705 17.7672 14.2701 17.7044 14.3165L17.2191 14.6749L17.4012 15.25C17.4248 15.3244 17.3399 15.3861 17.2764 15.3406L16.7856 14.9898L16.2949 15.3406C16.2313 15.386 16.1467 15.3244 16.1701 15.25L16.3521 14.6749L15.8669 14.3165C15.8041 14.27 15.8364 14.1705 15.9145 14.1698L16.5178 14.1652L16.7086 13.5929C16.7331 13.5189 16.838 13.5189 16.8627 13.5929Z" fill="#F5F5F5"/>
<path d="M16.8627 16.5865L17.0535 17.1588L17.6567 17.1634C17.7348 17.1641 17.7672 17.2637 17.7044 17.3101L17.2191 17.6685L17.4012 18.2436C17.4248 18.318 17.3399 18.3797 17.2764 18.3342L16.7856 17.9834L16.2949 18.3342C16.2313 18.3796 16.1467 18.318 16.1701 18.2436L16.3521 17.6685L15.8669 17.3101C15.8041 17.2636 15.8364 17.1641 15.9145 17.1634L16.5178 17.1588L16.7086 16.5865C16.7331 16.5125 16.838 16.5125 16.8627 16.5865Z" fill="#F5F5F5"/>
<path d="M16.8627 19.5801L17.0535 20.1524L17.6567 20.157C17.7348 20.1577 17.7672 20.2573 17.7044 20.3037L17.2191 20.6621L17.4012 21.2372C17.4248 21.3116 17.3399 21.3733 17.2764 21.3278L16.7856 20.977L16.2949 21.3278C16.2313 21.3732 16.1467 21.3116 16.1701 21.2372L16.3521 20.6621L15.8669 20.3037C15.8041 20.2572 15.8364 20.1577 15.9145 20.157L16.5178 20.1524L16.7086 19.5801C16.7331 19.506 16.838 19.506 16.8627 19.5801Z" fill="#F5F5F5"/>
<path d="M16.8627 22.5737L17.0535 23.146L17.6567 23.1506C17.7348 23.1513 17.7672 23.2509 17.7044 23.2973L17.2191 23.6557L17.4012 24.2308C17.4248 24.3052 17.3399 24.3669 17.2764 24.3214L16.7856 23.9706L16.2949 24.3214C16.2313 24.3668 16.1467 24.3052 16.1701 24.2308L16.3521 23.6557L15.8669 23.2973C15.8041 23.2508 15.8364 23.1513 15.9145 23.1506L16.5178 23.146L16.7086 22.5737C16.7331 22.4995 16.838 22.4995 16.8627 22.5737Z" fill="#F5F5F5"/>
<path d="M19.186 12.0671L19.3769 12.6393L19.9801 12.6439C20.0582 12.6446 20.0905 12.7442 20.0277 12.7906L19.5425 13.149L19.7245 13.7241C19.7482 13.7985 19.6633 13.8602 19.5997 13.8147L19.109 13.4639L18.6183 13.8147C18.5547 13.8601 18.47 13.7985 18.4935 13.7241L18.6755 13.149L18.1902 12.7906C18.1275 12.7441 18.1598 12.6446 18.2379 12.6439L18.8411 12.6393L19.0319 12.0671C19.0566 11.993 19.1614 11.993 19.186 12.0671Z" fill="#F5F5F5"/>
<path d="M19.186 15.0607L19.3769 15.633L19.9801 15.6376C20.0582 15.6383 20.0905 15.7379 20.0277 15.7842L19.5425 16.1426L19.7245 16.7177C19.7482 16.7922 19.6633 16.8539 19.5997 16.8084L19.109 16.4576L18.6183 16.8084C18.5547 16.8538 18.47 16.7923 18.4935 16.7177L18.6755 16.1426L18.1902 15.7842C18.1275 15.7378 18.1598 15.6383 18.2379 15.6376L18.8411 15.633L19.0319 15.0607C19.0566 14.9866 19.1614 14.9866 19.186 15.0607Z" fill="#F5F5F5"/>
<path d="M19.186 18.0542L19.3769 18.6265L19.9801 18.6311C20.0582 18.6318 20.0905 18.7314 20.0277 18.7778L19.5425 19.1362L19.7245 19.7113C19.7482 19.7857 19.6633 19.8474 19.5997 19.8019L19.109 19.4511L18.6183 19.8019C18.5547 19.8473 18.47 19.7857 18.4935 19.7113L18.6755 19.1362L18.1902 18.7778C18.1275 18.7313 18.1598 18.6318 18.2379 18.6311L18.8411 18.6265L19.0319 18.0542C19.0566 17.9801 19.1614 17.9801 19.186 18.0542Z" fill="#F5F5F5"/>
<path d="M19.186 21.0478L19.3769 21.6201L19.9801 21.6247C20.0582 21.6254 20.0905 21.725 20.0277 21.7714L19.5425 22.1298L19.7245 22.7049C19.7482 22.7793 19.6633 22.841 19.5997 22.7955L19.109 22.4447L18.6183 22.7955C18.5547 22.8409 18.47 22.7793 18.4935 22.7049L18.6755 22.1298L18.1902 21.7714C18.1275 21.7249 18.1598 21.6254 18.2379 21.6247L18.8411 21.6201L19.0319 21.0478C19.0566 20.9738 19.1614 20.9738 19.186 21.0478Z" fill="#F5F5F5"/>
<path d="M21.5097 10.5994L21.7005 11.1717L22.3037 11.1763C22.3818 11.177 22.4141 11.2766 22.3514 11.3229L21.8661 11.6813L22.0481 12.2564C22.0718 12.3309 21.9869 12.3926 21.9233 12.3471L21.4326 11.9963L20.9419 12.3471C20.8783 12.3925 20.7936 12.3309 20.8171 12.2564L20.9991 11.6813L20.5139 11.3229C20.4511 11.2765 20.4834 11.177 20.5615 11.1763L21.1647 11.1717L21.3556 10.5994C21.3802 10.5253 21.4848 10.5253 21.5097 10.5994Z" fill="#F5F5F5"/>
<path d="M21.5097 13.5929L21.7005 14.1652L22.3037 14.1698C22.3818 14.1705 22.4141 14.2701 22.3514 14.3165L21.8661 14.6749L22.0481 15.25C22.0718 15.3244 21.9869 15.3861 21.9233 15.3406L21.4326 14.9898L20.9419 15.3406C20.8783 15.386 20.7936 15.3244 20.8171 15.25L20.9991 14.6749L20.5139 14.3165C20.4511 14.27 20.4834 14.1705 20.5615 14.1698L21.1647 14.1652L21.3556 13.5929C21.3802 13.5189 21.4848 13.5189 21.5097 13.5929Z" fill="#F5F5F5"/>
<path d="M21.5097 16.5865L21.7005 17.1588L22.3037 17.1634C22.3818 17.1641 22.4141 17.2637 22.3514 17.3101L21.8661 17.6685L22.0481 18.2436C22.0718 18.318 21.9869 18.3797 21.9233 18.3342L21.4326 17.9834L20.9419 18.3342C20.8783 18.3796 20.7936 18.318 20.8171 18.2436L20.9991 17.6685L20.5139 17.3101C20.4511 17.2636 20.4834 17.1641 20.5615 17.1634L21.1647 17.1588L21.3556 16.5865C21.3802 16.5125 21.4848 16.5125 21.5097 16.5865Z" fill="#F5F5F5"/>
<path d="M21.5097 19.5801L21.7005 20.1524L22.3037 20.157C22.3818 20.1577 22.4141 20.2573 22.3514 20.3037L21.8661 20.6621L22.0481 21.2372C22.0718 21.3116 21.9869 21.3733 21.9233 21.3278L21.4326 20.977L20.9419 21.3278C20.8783 21.3732 20.7936 21.3116 20.8171 21.2372L20.9991 20.6621L20.5139 20.3037C20.4511 20.2572 20.4834 20.1577 20.5615 20.157L21.1647 20.1524L21.3556 19.5801C21.3802 19.506 21.4848 19.506 21.5097 19.5801Z" fill="#F5F5F5"/>
<path d="M21.5097 22.5737L21.7005 23.146L22.3037 23.1506C22.3818 23.1513 22.4141 23.2509 22.3514 23.2973L21.8661 23.6557L22.0481 24.2308C22.0718 24.3052 21.9869 24.3669 21.9233 24.3214L21.4326 23.9706L20.9419 24.3214C20.8783 24.3668 20.7936 24.3052 20.8171 24.2308L20.9991 23.6557L20.5139 23.2973C20.4511 23.2508 20.4834 23.1513 20.5615 23.1506L21.1647 23.146L21.3556 22.5737C21.3802 22.4995 21.4848 22.4995 21.5097 22.5737Z" fill="#F5F5F5"/>
</g>
<defs>
<clipPath id="clip0_11218_6458">
<rect width="50" height="50" fill="white" transform="translate(0.5)"/>
</clipPath>
</defs>
</svg>
