<svg width="51" height="50" viewBox="0 0 51 50" fill="none" xmlns="http://www.w3.org/2000/svg">
<g clip-path="url(#clip0_11218_6461)">
<path d="M49.6384 41.3791H1.36272C0.886645 41.3791 0.50061 40.993 0.50061 40.5169V9.48253C0.50061 9.00646 0.886645 8.62042 1.36272 8.62042H49.6385C50.1146 8.62042 50.5006 9.00646 50.5006 9.48253V40.5169C50.5005 40.9931 50.1145 41.3791 49.6384 41.3791Z" fill="#F5F5F5"/>
<path d="M39.2941 8.62091H11.7083V41.3796H39.2941V8.62091Z" fill="#F5F5F5"/>
<path d="M1.36272 8.62061C0.886645 8.62061 0.50061 9.00654 0.50061 9.48262V40.517C0.50061 40.9931 0.886645 41.3791 1.36272 41.3791H11.7075V8.62061H1.36272Z" fill="#FF4B55"/>
<path d="M49.6391 8.62054H39.2943V41.3791H49.6391C50.1152 41.3791 50.5012 40.993 50.5012 40.517V9.48255C50.5012 9.00648 50.1152 8.62054 49.6391 8.62054Z" fill="#FF4B55"/>
<path d="M30.7326 28.785L35.8481 25.8619L34.6743 25.275C34.3451 25.1104 34.1566 24.7549 34.2053 24.39L34.5872 21.5265L32.4215 22.1566C31.9431 22.2958 31.4466 22.0015 31.339 21.5151L31.1316 20.5776L29.0981 22.9575C28.8162 23.2873 28.2792 23.0354 28.3527 22.6077L29.2211 17.5581L27.8916 17.9217C27.5032 18.028 27.093 17.8512 26.9037 17.4959L25.5036 14.8718V14.8679L25.5026 14.8699L25.5015 14.8679V14.8718L24.1014 17.4959C23.9119 17.8511 23.5017 18.0279 23.1133 17.9217L21.7837 17.5581L22.6521 22.6077C22.7256 23.0352 22.1885 23.2872 21.9066 22.9575L19.8731 20.5776L19.6657 21.5151C19.5581 22.0016 19.0616 22.2957 18.5832 22.1566L16.4175 21.5265L16.7994 24.39C16.8481 24.7548 16.6596 25.1104 16.3304 25.275L15.1566 25.8619L20.2721 28.7851C20.802 29.0879 21.0342 29.7301 20.8205 30.3017L20.3832 31.4713L24.7665 31.0971C25.009 31.0764 25.2155 31.2717 25.2084 31.515L25.0703 36.2067H25.9324L25.7942 31.5148C25.7871 31.2714 25.9935 31.0762 26.2361 31.0969L30.6214 31.4713L30.1841 30.3017C29.9706 29.73 30.2027 29.0877 30.7326 28.785Z" fill="#FF4B55"/>
</g>
<defs>
<clipPath id="clip0_11218_6461">
<rect width="50" height="50" fill="white" transform="translate(0.5)"/>
</clipPath>
</defs>
</svg>
