<svg width="51" height="50" viewBox="0 0 51 50" fill="none" xmlns="http://www.w3.org/2000/svg">
<g clip-path="url(#clip0_11218_6455)">
<path d="M50.5006 19.5403H0.500732V9.4829C0.500732 9.00682 0.886767 8.62079 1.36284 8.62079H49.6386C50.1147 8.62079 50.5007 9.00682 50.5007 9.4829L50.5006 19.5403Z" fill="#73AF00"/>
<path d="M49.6385 41.3794H1.36284C0.886767 41.3794 0.500732 40.9934 0.500732 40.5173V30.4599H50.5006V40.5173C50.5006 40.9934 50.1146 41.3794 49.6385 41.3794Z" fill="#FF4B55"/>
<path d="M50.5014 19.5398H0.501465V30.4587H50.5014V19.5398Z" fill="#F5F5F5"/>
<path d="M0.636377 18.9627H0.643896C0.718798 18.9627 0.779541 18.9021 0.779541 18.8271V18.5333C0.779541 18.4584 0.840185 18.3977 0.915185 18.3977H1.48423C1.55913 18.3977 1.61987 18.4583 1.61987 18.5333V18.8271C1.61987 18.902 1.68052 18.9627 1.75552 18.9627H2.87876C2.95366 18.9627 3.0144 18.9021 3.0144 18.8271V18.2472C3.0144 18.1723 2.95376 18.1115 2.87876 18.1115H2.31333C2.23842 18.1115 2.17768 18.1722 2.17768 18.2472V18.262C2.17768 18.3369 2.23833 18.3977 2.31333 18.3977H2.59995C2.67485 18.3977 2.73559 18.4583 2.73559 18.5333V18.5481C2.73559 18.623 2.67495 18.6837 2.59995 18.6837H2.03432C1.95942 18.6837 1.89868 18.6231 1.89868 18.5481V18.2472C1.89868 18.1723 1.83803 18.1115 1.76303 18.1115H0.636377C0.561475 18.1115 0.500732 18.1722 0.500732 18.2472V18.8271C0.500732 18.9019 0.561377 18.9627 0.636377 18.9627ZM1.1977 18.9627H1.20542C1.28032 18.9627 1.34106 18.9021 1.34106 18.8271V18.8193C1.34106 18.7444 1.28042 18.6837 1.20542 18.6837H1.1977C1.1228 18.6837 1.06206 18.7443 1.06206 18.8193V18.8271C1.06206 18.9019 1.1228 18.9627 1.1977 18.9627ZM0.636377 17.8255H3.99799C4.07289 17.8255 4.13364 17.7649 4.13364 17.6899V17.675C4.13364 17.6001 4.07299 17.5394 3.99799 17.5394H0.636377C0.561475 17.5394 0.500732 17.6 0.500732 17.675V17.6899C0.500732 17.7649 0.561377 17.8255 0.636377 17.8255ZM3.99789 18.9627H3.43247C3.35756 18.9627 3.29682 18.9021 3.29682 18.8271V18.2472C3.29682 18.1723 3.35747 18.1115 3.43247 18.1115H4.27699C4.3519 18.1115 4.41264 18.0509 4.41264 17.9759V17.675C4.41264 17.6001 4.47328 17.5394 4.54828 17.5394H4.5558C4.63071 17.5394 4.69145 17.6 4.69145 17.675V18.5481C4.69145 18.623 4.75209 18.6837 4.82709 18.6837H4.83481C4.90971 18.6837 4.97045 18.6231 4.97045 18.5481V17.675C4.97045 17.6001 5.0311 17.5394 5.1061 17.5394H5.11361C5.18852 17.5394 5.24926 17.6 5.24926 17.675V18.5481C5.24926 18.623 5.3099 18.6837 5.3849 18.6837H5.39613C5.47104 18.6837 5.53178 18.6231 5.53178 18.5481V17.675C5.53178 17.6001 5.59242 17.5394 5.66742 17.5394H5.67152C5.74643 17.5394 5.80717 17.6 5.80717 17.675V18.8271C5.80717 18.902 5.74652 18.9627 5.67152 18.9627H4.54828C4.47338 18.9627 4.41264 18.9021 4.41264 18.8271V18.5333C4.41264 18.4584 4.35199 18.3977 4.27699 18.3977H3.71157C3.63666 18.3977 3.57592 18.4583 3.57592 18.5333V18.5481C3.57592 18.623 3.63657 18.6837 3.71157 18.6837H3.99799C4.07289 18.6837 4.13364 18.7443 4.13364 18.8193V18.8271C4.13364 18.9019 4.0728 18.9627 3.99789 18.9627Z" fill="#F5F5F5"/>
<path d="M6.22585 18.9625H6.23708C6.31199 18.9625 6.37273 18.9018 6.37273 18.8268V18.5331C6.37273 18.4582 6.43337 18.3974 6.50837 18.3974H7.07029C7.14519 18.3974 7.20593 18.4581 7.20593 18.5331V18.8268C7.20593 18.9017 7.26657 18.9625 7.34157 18.9625H8.46481C8.53972 18.9625 8.60046 18.9018 8.60046 18.8268V18.2469C8.60046 18.172 8.53981 18.1113 8.46481 18.1113H7.89939C7.82448 18.1113 7.76374 18.1719 7.76374 18.2469V18.2618C7.76374 18.3367 7.82439 18.3974 7.89939 18.3974H8.18601C8.26091 18.3974 8.32165 18.4581 8.32165 18.5331V18.5478C8.32165 18.6227 8.26101 18.6835 8.18601 18.6835H7.62058C7.54568 18.6835 7.48493 18.6228 7.48493 18.5478V18.2469C7.48493 18.172 7.42429 18.1113 7.34929 18.1113H6.22585C6.15095 18.1113 6.09021 18.1719 6.09021 18.2469V18.8268C6.09031 18.9016 6.15105 18.9625 6.22585 18.9625ZM6.78376 18.9625H6.79128C6.86618 18.9625 6.92693 18.9018 6.92693 18.8268V18.8191C6.92693 18.7442 6.86628 18.6835 6.79128 18.6835H6.78376C6.70886 18.6835 6.64812 18.7441 6.64812 18.8191V18.8268C6.64822 18.9016 6.70886 18.9625 6.78376 18.9625ZM6.22585 17.8253H9.58405C9.65895 17.8253 9.71969 17.7646 9.71969 17.6896V17.6748C9.71969 17.5999 9.65905 17.5391 9.58405 17.5391H6.22585C6.15095 17.5391 6.09021 17.5998 6.09021 17.6748V17.6896C6.09031 17.7646 6.15105 17.8253 6.22585 17.8253ZM9.58405 18.9625H9.01501C8.94011 18.9625 8.87936 18.9018 8.87936 18.8268V18.2469C8.87936 18.172 8.94001 18.1113 9.01501 18.1113H9.85954C9.93444 18.1113 9.99518 18.0506 9.99518 17.9756V17.6748C9.99518 17.5999 10.0558 17.5391 10.1308 17.5391H10.1421C10.217 17.5391 10.2777 17.5998 10.2777 17.6748V18.5478C10.2777 18.6227 10.3383 18.6835 10.4133 18.6835H10.4246C10.4995 18.6835 10.5602 18.6228 10.5602 18.5478V17.6748C10.5602 17.5999 10.6209 17.5391 10.6959 17.5391H10.7C10.7749 17.5391 10.8356 17.5998 10.8356 17.6748V18.5478C10.8356 18.6227 10.8963 18.6835 10.9713 18.6835H10.9825C11.0574 18.6835 11.1181 18.6228 11.1181 18.5478V17.6748C11.1181 17.5999 11.1788 17.5391 11.2538 17.5391H11.2613C11.3362 17.5391 11.3969 17.5998 11.3969 17.6748V18.8268C11.3969 18.9017 11.3363 18.9625 11.2613 18.9625H10.131C10.0561 18.9625 9.99538 18.9018 9.99538 18.8268V18.5331C9.99538 18.4582 9.93473 18.3974 9.85973 18.3974H9.29782C9.22292 18.3974 9.16218 18.4581 9.16218 18.5331V18.5478C9.16218 18.6227 9.22282 18.6835 9.29782 18.6835H9.58444C9.65934 18.6835 9.72009 18.7441 9.72009 18.8191V18.8268C9.7196 18.9016 9.65895 18.9625 9.58405 18.9625Z" fill="#F5F5F5"/>
<path d="M11.8115 18.9625H11.8191C11.894 18.9625 11.9547 18.9018 11.9547 18.8268V18.5331C11.9547 18.4582 12.0154 18.3974 12.0904 18.3974H12.656C12.7309 18.3974 12.7916 18.4581 12.7916 18.5331V18.8268C12.7916 18.9017 12.8523 18.9625 12.9273 18.9625H14.054C14.1289 18.9625 14.1897 18.9018 14.1897 18.8268V18.2469C14.1897 18.172 14.129 18.1113 14.054 18.1113H13.4886C13.4137 18.1113 13.353 18.1719 13.353 18.2469V18.2618C13.353 18.3367 13.4136 18.3974 13.4886 18.3974H13.7752C13.8501 18.3974 13.9109 18.4581 13.9109 18.5331V18.5478C13.9109 18.6227 13.8502 18.6835 13.7752 18.6835H13.2062C13.1313 18.6835 13.0705 18.6228 13.0705 18.5478V18.2469C13.0705 18.172 13.0099 18.1113 12.9349 18.1113H11.8116C11.7367 18.1113 11.676 18.1719 11.676 18.2469V18.8268C11.6758 18.9016 11.7366 18.9625 11.8115 18.9625ZM12.3694 18.9625H12.3769C12.4518 18.9625 12.5125 18.9018 12.5125 18.8268V18.8191C12.5125 18.7442 12.4519 18.6835 12.3769 18.6835H12.3694C12.2945 18.6835 12.2337 18.7441 12.2337 18.8191V18.8268C12.2337 18.9016 12.2945 18.9625 12.3694 18.9625ZM11.8115 17.8253H15.1733C15.2482 17.8253 15.3089 17.7646 15.3089 17.6896V17.6748C15.3089 17.5999 15.2483 17.5391 15.1733 17.5391H11.8115C11.7366 17.5391 11.6759 17.5998 11.6759 17.6748V17.6896C11.6758 17.7646 11.7366 17.8253 11.8115 17.8253ZM15.1733 18.9625H14.6042C14.5293 18.9625 14.4686 18.9018 14.4686 18.8268V18.2469C14.4686 18.172 14.5292 18.1113 14.6042 18.1113H15.4486C15.5235 18.1113 15.5842 18.0506 15.5842 17.9756V17.6748C15.5842 17.5999 15.6448 17.5391 15.7198 17.5391H15.7276C15.8025 17.5391 15.8632 17.5998 15.8632 17.6748V18.5478C15.8632 18.6227 15.9238 18.6835 15.9988 18.6835H16.0101C16.085 18.6835 16.1457 18.6228 16.1457 18.5478V17.6748C16.1457 17.5999 16.2064 17.5391 16.2814 17.5391H16.2926C16.3675 17.5391 16.4282 17.5998 16.4282 17.6748V18.5478C16.4282 18.6227 16.4889 18.6835 16.5639 18.6835H16.568C16.6429 18.6835 16.7036 18.6228 16.7036 18.5478V17.6748C16.7036 17.5999 16.7643 17.5391 16.8393 17.5391H16.8468C16.9217 17.5391 16.9824 17.5998 16.9824 17.6748V18.8268C16.9824 18.9017 16.9218 18.9625 16.8468 18.9625H15.7198C15.6449 18.9625 15.5842 18.9018 15.5842 18.8268V18.5331C15.5842 18.4582 15.5236 18.3974 15.4486 18.3974H14.8831C14.8082 18.3974 14.7475 18.4581 14.7475 18.5331V18.5478C14.7475 18.6227 14.8081 18.6835 14.8831 18.6835H15.1735C15.2484 18.6835 15.3091 18.7441 15.3091 18.8191V18.8268C15.3089 18.9016 15.2482 18.9625 15.1733 18.9625Z" fill="#F5F5F5"/>
<path d="M17.3969 18.9625H17.4044C17.4793 18.9625 17.54 18.9018 17.54 18.8268V18.5331C17.54 18.4582 17.6007 18.3974 17.6757 18.3974H18.2411C18.316 18.3974 18.3768 18.4581 18.3768 18.5331V18.8268C18.3768 18.9017 18.4374 18.9625 18.5124 18.9625H19.6394C19.7143 18.9625 19.775 18.9018 19.775 18.8268V18.2469C19.775 18.172 19.7144 18.1113 19.6394 18.1113H19.0703C18.9954 18.1113 18.9347 18.1719 18.9347 18.2469V18.2618C18.9347 18.3367 18.9953 18.3974 19.0703 18.3974H19.3569C19.4318 18.3974 19.4926 18.4581 19.4926 18.5331V18.5478C19.4926 18.6227 19.4319 18.6835 19.3569 18.6835H18.7915C18.7166 18.6835 18.6559 18.6228 18.6559 18.5478V18.2469C18.6559 18.172 18.5952 18.1113 18.5202 18.1113H17.397C17.3221 18.1113 17.2613 18.1719 17.2613 18.2469V18.8268C17.2613 18.9016 17.3221 18.9625 17.3969 18.9625ZM17.9548 18.9625H17.9623C18.0372 18.9625 18.0979 18.9018 18.0979 18.8268V18.8191C18.0979 18.7442 18.0373 18.6835 17.9623 18.6835H17.9548C17.8799 18.6835 17.8191 18.7441 17.8191 18.8191V18.8268C17.8192 18.9016 17.8799 18.9625 17.9548 18.9625ZM17.3969 17.8253H20.7551C20.83 17.8253 20.8907 17.7646 20.8907 17.6896V17.6748C20.8907 17.5999 20.8301 17.5391 20.7551 17.5391H17.3969C17.322 17.5391 17.2612 17.5998 17.2612 17.6748V17.6896C17.2613 17.7646 17.3221 17.8253 17.3969 17.8253ZM20.7551 18.9625H20.186C20.1111 18.9625 20.0504 18.9018 20.0504 18.8268V18.2469C20.0504 18.172 20.111 18.1113 20.186 18.1113H21.0377C21.1126 18.1113 21.1733 18.0506 21.1733 17.9756V17.6748C21.1733 17.5999 21.234 17.5391 21.309 17.5391H21.3165C21.3914 17.5391 21.4521 17.5998 21.4521 17.6748V18.5478C21.4521 18.6227 21.5128 18.6835 21.5878 18.6835H21.5919C21.6668 18.6835 21.7275 18.6228 21.7275 18.5478V17.6748C21.7275 17.5999 21.7882 17.5391 21.8632 17.5391H21.8744C21.9493 17.5391 22.0101 17.5998 22.0101 17.6748V18.5478C22.0101 18.6227 22.0707 18.6835 22.1457 18.6835H22.1534C22.2283 18.6835 22.2891 18.6228 22.2891 18.5478V17.6748C22.2891 17.5999 22.3497 17.5391 22.4247 17.5391H22.4322C22.5071 17.5391 22.5679 17.5998 22.5679 17.6748V18.8268C22.5679 18.9017 22.5072 18.9625 22.4322 18.9625H21.3085C21.2336 18.9625 21.1728 18.9018 21.1728 18.8268V18.5331C21.1728 18.4582 21.1122 18.3974 21.0372 18.3974H20.4682C20.3933 18.3974 20.3325 18.4581 20.3325 18.5331V18.5478C20.3325 18.6227 20.3932 18.6835 20.4682 18.6835H20.7548C20.8297 18.6835 20.8904 18.7441 20.8904 18.8191V18.8268C20.8906 18.9016 20.83 18.9625 20.7551 18.9625Z" fill="#F5F5F5"/>
<path d="M22.9821 18.9625H22.9898C23.0647 18.9625 23.1254 18.9018 23.1254 18.8268V18.5331C23.1254 18.4582 23.1861 18.3974 23.2611 18.3974H23.8265C23.9014 18.3974 23.9622 18.4581 23.9622 18.5331V18.8268C23.9622 18.9017 24.0228 18.9625 24.0978 18.9625H25.2248C25.2997 18.9625 25.3604 18.9018 25.3604 18.8268V18.2469C25.3604 18.172 25.2998 18.1113 25.2248 18.1113H24.6557C24.5808 18.1113 24.5201 18.1719 24.5201 18.2469V18.2618C24.5201 18.3367 24.5807 18.3974 24.6557 18.3974H24.9457C25.0206 18.3974 25.0814 18.4581 25.0814 18.5331V18.5478C25.0814 18.6227 25.0207 18.6835 24.9457 18.6835H24.3803C24.3054 18.6835 24.2447 18.6228 24.2447 18.5478V18.2469C24.2447 18.172 24.184 18.1113 24.109 18.1113H22.9821C22.9072 18.1113 22.8464 18.1719 22.8464 18.2469V18.8268C22.8465 18.9016 22.9072 18.9625 22.9821 18.9625ZM23.5436 18.9625H23.5477C23.6226 18.9625 23.6833 18.9018 23.6833 18.8268V18.8191C23.6833 18.7442 23.6227 18.6835 23.5477 18.6835H23.5436C23.4687 18.6835 23.408 18.7441 23.408 18.8191V18.8268C23.408 18.9016 23.4687 18.9625 23.5436 18.9625ZM22.9821 17.8253H26.3439C26.4188 17.8253 26.4795 17.7646 26.4795 17.6896V17.6748C26.4795 17.5999 26.4189 17.5391 26.3439 17.5391H22.9821C22.9072 17.5391 22.8464 17.5998 22.8464 17.6748V17.6896C22.8465 17.7646 22.9072 17.8253 22.9821 17.8253ZM26.344 18.9625H25.7749C25.7 18.9625 25.6393 18.9018 25.6393 18.8268V18.2469C25.6393 18.172 25.6999 18.1113 25.7749 18.1113H26.623C26.6979 18.1113 26.7586 18.0506 26.7586 17.9756V17.6748C26.7586 17.5999 26.8193 17.5391 26.8943 17.5391H26.9018C26.9767 17.5391 27.0374 17.5998 27.0374 17.6748V18.5478C27.0374 18.6227 27.0981 18.6835 27.1731 18.6835H27.1808C27.2557 18.6835 27.3164 18.6228 27.3164 18.5478V17.6748C27.3164 17.5999 27.3771 17.5391 27.4521 17.5391H27.4596C27.5345 17.5391 27.5953 17.5998 27.5953 17.6748V18.5478C27.5953 18.6227 27.6559 18.6835 27.7309 18.6835H27.7384C27.8133 18.6835 27.8741 18.6228 27.8741 18.5478V17.6748C27.8741 17.5999 27.9347 17.5391 28.0097 17.5391H28.0174C28.0923 17.5391 28.1531 17.5998 28.1531 17.6748V18.8268C28.1531 18.9017 28.0924 18.9625 28.0174 18.9625H26.8942C26.8193 18.9625 26.7585 18.9018 26.7585 18.8268V18.5331C26.7585 18.4582 26.6979 18.3974 26.6229 18.3974H26.0539C25.9789 18.3974 25.9182 18.4581 25.9182 18.5331V18.5478C25.9182 18.6227 25.9789 18.6835 26.0539 18.6835H26.3439C26.4188 18.6835 26.4795 18.7441 26.4795 18.8191V18.8268C26.4795 18.9016 26.4189 18.9625 26.344 18.9625Z" fill="#F5F5F5"/>
<path d="M28.5672 18.9625H28.5749C28.6498 18.9625 28.7105 18.9018 28.7105 18.8268V18.5331C28.7105 18.4582 28.7712 18.3974 28.8462 18.3974H29.4116C29.4865 18.3974 29.5472 18.4581 29.5472 18.5331V18.8268C29.5472 18.9017 29.6079 18.9625 29.6829 18.9625H30.8098C30.8847 18.9625 30.9455 18.9018 30.9455 18.8268V18.2469C30.9455 18.172 30.8848 18.1113 30.8098 18.1113H30.2442C30.1693 18.1113 30.1086 18.1719 30.1086 18.2469V18.2618C30.1086 18.3367 30.1692 18.3974 30.2442 18.3974H30.5273C30.6022 18.3974 30.663 18.4581 30.663 18.5331V18.5478C30.663 18.6227 30.6023 18.6835 30.5273 18.6835H29.9654C29.8905 18.6835 29.8298 18.6228 29.8298 18.5478V18.2469C29.8298 18.172 29.7691 18.1113 29.6941 18.1113H28.5672C28.4923 18.1113 28.4315 18.1719 28.4315 18.2469V18.8268C28.4315 18.9016 28.4923 18.9625 28.5672 18.9625ZM29.1286 18.9625H29.1327C29.2076 18.9625 29.2683 18.9018 29.2683 18.8268V18.8191C29.2683 18.7442 29.2077 18.6835 29.1327 18.6835H29.1286C29.0537 18.6835 28.9929 18.7441 28.9929 18.8191V18.8268C28.993 18.9016 29.0537 18.9625 29.1286 18.9625ZM28.5672 17.8253H31.9289C32.0038 17.8253 32.0645 17.7646 32.0645 17.6896V17.6748C32.0645 17.5999 32.0039 17.5391 31.9289 17.5391H28.5672C28.4923 17.5391 28.4315 17.5998 28.4315 17.6748V17.6896C28.4315 17.7646 28.4923 17.8253 28.5672 17.8253ZM31.929 18.9625H31.3635C31.2886 18.9625 31.2279 18.9018 31.2279 18.8268V18.2469C31.2279 18.172 31.2885 18.1113 31.3635 18.1113H32.2079C32.2828 18.1113 32.3435 18.0506 32.3435 17.9756V17.6748C32.3435 17.5999 32.4042 17.5391 32.4792 17.5391H32.4869C32.5618 17.5391 32.6225 17.5998 32.6225 17.6748V18.5478C32.6225 18.6227 32.6832 18.6835 32.7582 18.6835H32.7657C32.8406 18.6835 32.9013 18.6228 32.9013 18.5478V17.6748C32.9013 17.5999 32.962 17.5391 33.037 17.5391H33.0447C33.1196 17.5391 33.1803 17.5998 33.1803 17.6748V18.5478C33.1803 18.6227 33.241 18.6835 33.316 18.6835H33.3235C33.3984 18.6835 33.4591 18.6228 33.4591 18.5478V17.6748C33.4591 17.5999 33.5198 17.5391 33.5948 17.5391H33.6025C33.6774 17.5391 33.7381 17.5998 33.7381 17.6748V18.8268C33.7381 18.9017 33.6775 18.9625 33.6025 18.9625H32.479C32.4041 18.9625 32.3433 18.9018 32.3433 18.8268V18.5331C32.3433 18.4582 32.2827 18.3974 32.2077 18.3974H31.6387C31.5638 18.3974 31.5031 18.4581 31.5031 18.5331V18.5478C31.5031 18.6227 31.5637 18.6835 31.6387 18.6835H31.9288C32.0037 18.6835 32.0644 18.7441 32.0644 18.8191V18.8268C32.0646 18.9016 32.0038 18.9625 31.929 18.9625Z" fill="#F5F5F5"/>
<path d="M34.1525 18.9625H34.1602C34.2351 18.9625 34.2958 18.9018 34.2958 18.8268V18.5331C34.2958 18.4582 34.3565 18.3974 34.4315 18.3974H35.0004C35.0753 18.3974 35.1361 18.4581 35.1361 18.5331V18.8268C35.1361 18.9017 35.1967 18.9625 35.2717 18.9625H36.3953C36.4702 18.9625 36.5309 18.9018 36.5309 18.8268V18.2469C36.5309 18.172 36.4703 18.1113 36.3953 18.1113H35.8296C35.7547 18.1113 35.694 18.1719 35.694 18.2469V18.2618C35.694 18.3367 35.7546 18.3974 35.8296 18.3974H36.12C36.1949 18.3974 36.2556 18.4581 36.2556 18.5331V18.5478C36.2556 18.6227 36.195 18.6835 36.12 18.6835H35.5472C35.4723 18.6835 35.4116 18.6228 35.4116 18.5478V18.2469C35.4116 18.172 35.3509 18.1113 35.2759 18.1113H34.1527C34.0778 18.1113 34.017 18.1719 34.017 18.2469V18.8268C34.0169 18.9016 34.0776 18.9625 34.1525 18.9625ZM34.7104 18.9625H34.7216C34.7965 18.9625 34.8573 18.9018 34.8573 18.8268V18.8191C34.8573 18.7442 34.7966 18.6835 34.7216 18.6835H34.7104C34.6355 18.6835 34.5748 18.7441 34.5748 18.8191V18.8268C34.5748 18.9016 34.6355 18.9625 34.7104 18.9625ZM34.1525 17.8253H37.5142C37.5891 17.8253 37.6498 17.7646 37.6498 17.6896V17.6748C37.6498 17.5999 37.5892 17.5391 37.5142 17.5391H34.1525C34.0776 17.5391 34.0168 17.5998 34.0168 17.6748V17.6896C34.0169 17.7646 34.0776 17.8253 34.1525 17.8253ZM37.5144 18.9625H36.949C36.8741 18.9625 36.8133 18.9018 36.8133 18.8268V18.2469C36.8133 18.172 36.874 18.1113 36.949 18.1113H37.7933C37.8682 18.1113 37.9289 18.0506 37.9289 17.9756V17.6748C37.9289 17.5999 37.9896 17.5391 38.0646 17.5391H38.0723C38.1472 17.5391 38.2079 17.5998 38.2079 17.6748V18.5478C38.2079 18.6227 38.2686 18.6835 38.3436 18.6835H38.3511C38.426 18.6835 38.4867 18.6228 38.4867 18.5478V17.6748C38.4867 17.5999 38.5474 17.5391 38.6224 17.5391H38.6301C38.705 17.5391 38.7658 17.5998 38.7658 17.6748V18.5478C38.7658 18.6227 38.8264 18.6835 38.9014 18.6835H38.9126C38.9875 18.6835 39.0483 18.6228 39.0483 18.5478V17.6748C39.0483 17.5999 39.1089 17.5391 39.1839 17.5391H39.1878C39.2627 17.5391 39.3235 17.5998 39.3235 17.6748V18.8268C39.3235 18.9017 39.2628 18.9625 39.1878 18.9625H38.0646C37.9897 18.9625 37.9289 18.9018 37.9289 18.8268V18.5331C37.9289 18.4582 37.8683 18.3974 37.7933 18.3974H37.2314C37.1565 18.3974 37.0957 18.4581 37.0957 18.5331V18.5478C37.0957 18.6227 37.1564 18.6835 37.2314 18.6835H37.5145C37.5894 18.6835 37.6501 18.7441 37.6501 18.8191V18.8268C37.6499 18.9016 37.5893 18.9625 37.5144 18.9625Z" fill="#F5F5F5"/>
<path d="M39.7418 18.9625H39.7459C39.8208 18.9625 39.8816 18.9018 39.8816 18.8268V18.5331C39.8816 18.4582 39.9422 18.3974 40.0172 18.3974H40.5829C40.6578 18.3974 40.7185 18.4581 40.7185 18.5331V18.8268C40.7185 18.9017 40.7791 18.9625 40.8541 18.9625H41.9809C42.0558 18.9625 42.1165 18.9018 42.1165 18.8268V18.2469C42.1165 18.172 42.0559 18.1113 41.9809 18.1113H41.4192C41.3443 18.1113 41.2835 18.1719 41.2835 18.2469V18.2618C41.2835 18.3367 41.3442 18.3974 41.4192 18.3974H41.7056C41.7805 18.3974 41.8413 18.4581 41.8413 18.5331V18.5478C41.8413 18.6227 41.7806 18.6835 41.7056 18.6835H41.1367C41.0618 18.6835 41.001 18.6228 41.001 18.5478V18.2469C41.001 18.172 40.9404 18.1113 40.8654 18.1113H39.7418C39.6669 18.1113 39.6062 18.1719 39.6062 18.2469V18.8268C39.6061 18.9016 39.6669 18.9625 39.7418 18.9625ZM40.2997 18.9625H40.3074C40.3823 18.9625 40.443 18.9018 40.443 18.8268V18.8191C40.443 18.7442 40.3824 18.6835 40.3074 18.6835H40.2997C40.2248 18.6835 40.164 18.7441 40.164 18.8191V18.8268C40.164 18.9016 40.2248 18.9625 40.2997 18.9625ZM39.7418 17.8253H43.1073C43.1822 17.8253 43.2429 17.7646 43.2429 17.6896V17.6748C43.2429 17.5999 43.1823 17.5391 43.1073 17.5391H39.7418C39.6669 17.5391 39.6062 17.5998 39.6062 17.6748V17.6896C39.6061 17.7646 39.6669 17.8253 39.7418 17.8253ZM43.1072 18.9625H42.5344C42.4595 18.9625 42.3988 18.9018 42.3988 18.8268V18.2469C42.3988 18.172 42.4594 18.1113 42.5344 18.1113H43.3789C43.4538 18.1113 43.5146 18.0506 43.5146 17.9756V17.6748C43.5146 17.5999 43.5752 17.5391 43.6502 17.5391H43.6615C43.7364 17.5391 43.7971 17.5998 43.7971 17.6748V18.5478C43.7971 18.6227 43.8578 18.6835 43.9328 18.6835H43.9403C44.0152 18.6835 44.0759 18.6228 44.0759 18.5478V17.6748C44.0759 17.5999 44.1366 17.5391 44.2116 17.5391H44.2157C44.2906 17.5391 44.3513 17.5998 44.3513 17.6748V18.5478C44.3513 18.6227 44.412 18.6835 44.487 18.6835H44.4982C44.5731 18.6835 44.6338 18.6228 44.6338 18.5478V17.6748C44.6338 17.5999 44.6945 17.5391 44.7695 17.5391H44.7772C44.8521 17.5391 44.9128 17.5998 44.9128 17.6748V18.8268C44.9128 18.9017 44.8522 18.9625 44.7772 18.9625H43.6502C43.5753 18.9625 43.5146 18.9018 43.5146 18.8268V18.5331C43.5146 18.4582 43.4539 18.3974 43.3789 18.3974H42.8135C42.7386 18.3974 42.6779 18.4581 42.6779 18.5331V18.5478C42.6779 18.6227 42.7385 18.6835 42.8135 18.6835H43.1073C43.1822 18.6835 43.2429 18.7441 43.2429 18.8191V18.8268C43.2429 18.9016 43.1821 18.9625 43.1072 18.9625Z" fill="#F5F5F5"/>
<path d="M45.3271 18.9625H45.3348C45.4097 18.9625 45.4704 18.9018 45.4704 18.8268V18.5331C45.4704 18.4582 45.5311 18.3974 45.6061 18.3974H46.1715C46.2464 18.3974 46.3071 18.4581 46.3071 18.5331V18.8268C46.3071 18.9017 46.3678 18.9625 46.4428 18.9625H47.5697C47.6446 18.9625 47.7054 18.9018 47.7054 18.8268V18.2469C47.7054 18.172 47.6447 18.1113 47.5697 18.1113H47.0078C46.9329 18.1113 46.8722 18.1719 46.8722 18.2469V18.2618C46.8722 18.3367 46.9328 18.3974 47.0078 18.3974H47.2944C47.3693 18.3974 47.4301 18.4581 47.4301 18.5331V18.5478C47.4301 18.6227 47.3694 18.6835 47.2944 18.6835H46.7217C46.6468 18.6835 46.586 18.6228 46.586 18.5478V18.2469C46.586 18.172 46.5254 18.1113 46.4504 18.1113H45.3271C45.2522 18.1113 45.1915 18.1719 45.1915 18.2469V18.8268C45.1915 18.9016 45.2522 18.9625 45.3271 18.9625ZM45.885 18.9625H45.8927C45.9676 18.9625 46.0283 18.9018 46.0283 18.8268V18.8191C46.0283 18.7442 45.9677 18.6835 45.8927 18.6835H45.885C45.8101 18.6835 45.7493 18.7441 45.7493 18.8191V18.8268C45.7494 18.9016 45.8101 18.9625 45.885 18.9625ZM45.3271 17.8253H48.6852C48.7601 17.8253 48.8209 17.7646 48.8209 17.6896V17.6748C48.8209 17.5999 48.7602 17.5391 48.6852 17.5391H45.3271C45.2521 17.5391 45.1914 17.5998 45.1914 17.6748V17.6896C45.1915 17.7646 45.2522 17.8253 45.3271 17.8253ZM48.6852 18.9625H48.1198C48.0449 18.9625 47.9842 18.9018 47.9842 18.8268V18.2469C47.9842 18.172 48.0448 18.1113 48.1198 18.1113H48.9715C49.0464 18.1113 49.1071 18.0506 49.1071 17.9756V17.6748C49.1071 17.5999 49.1678 17.5391 49.2428 17.5391H49.2432C49.3181 17.5391 49.3788 17.5998 49.3788 17.6748V18.5478C49.3788 18.6227 49.4394 18.6835 49.5144 18.6835H49.5293C49.6042 18.6835 49.6649 18.6228 49.6649 18.5478V17.6748C49.6649 17.5999 49.7256 17.5391 49.8006 17.5391H49.801C49.8759 17.5391 49.9366 17.5998 49.9366 17.6748V18.5478C49.9366 18.6227 49.9973 18.6835 50.0723 18.6835H50.08C50.1549 18.6835 50.2156 18.6228 50.2156 18.5478V17.6748C50.2156 17.5999 50.2763 17.5391 50.3513 17.5391H50.366C50.4409 17.5391 50.5016 17.5998 50.5016 17.6748V18.8268C50.5016 18.9017 50.441 18.9625 50.366 18.9625H49.2428C49.1679 18.9625 49.1071 18.9018 49.1071 18.8268V18.5331C49.1071 18.4582 49.0465 18.3974 48.9715 18.3974H48.3988C48.3239 18.3974 48.2632 18.4581 48.2632 18.5331V18.5478C48.2632 18.6227 48.3238 18.6835 48.3988 18.6835H48.6852C48.7601 18.6835 48.8209 18.7441 48.8209 18.8191V18.8268C48.8209 18.9016 48.7601 18.9625 48.6852 18.9625Z" fill="#F5F5F5"/>
<path d="M0.637109 19.8276H2.87959C2.95449 19.8276 3.01523 19.767 3.01523 19.692V19.3911C3.01523 19.3162 2.95459 19.2554 2.87959 19.2554H0.637109C0.562207 19.2554 0.501465 19.3161 0.501465 19.3911V19.692C0.501465 19.767 0.562109 19.8276 0.637109 19.8276ZM3.4333 19.8276H5.67226C5.74716 19.8276 5.8079 19.767 5.8079 19.692V19.3911C5.8079 19.3162 5.74726 19.2554 5.67226 19.2554H3.4333C3.35839 19.2554 3.29765 19.3161 3.29765 19.3911V19.692C3.29765 19.767 3.35839 19.8276 3.4333 19.8276Z" fill="#F5F5F5"/>
<path d="M6.22585 19.8276H8.46481C8.53972 19.8276 8.60046 19.767 8.60046 19.692V19.3911C8.60046 19.3162 8.53981 19.2554 8.46481 19.2554H6.22585C6.15095 19.2554 6.09021 19.3161 6.09021 19.3911V19.692C6.09031 19.767 6.15105 19.8276 6.22585 19.8276ZM9.01501 19.8276H11.2611C11.336 19.8276 11.3967 19.767 11.3967 19.692V19.3911C11.3967 19.3162 11.3361 19.2554 11.2611 19.2554H9.01501C8.94011 19.2554 8.87936 19.3161 8.87936 19.3911V19.692C8.87936 19.767 8.94011 19.8276 9.01501 19.8276Z" fill="#F5F5F5"/>
<path d="M11.8115 19.8276H14.054C14.1289 19.8276 14.1897 19.767 14.1897 19.692V19.3911C14.1897 19.3162 14.129 19.2554 14.054 19.2554H11.8115C11.7366 19.2554 11.6759 19.3161 11.6759 19.3911V19.692C11.6758 19.767 11.7366 19.8276 11.8115 19.8276ZM14.6041 19.8276H16.8466C16.9215 19.8276 16.9822 19.767 16.9822 19.692V19.3911C16.9822 19.3162 16.9216 19.2554 16.8466 19.2554H14.6041C14.5292 19.2554 14.4685 19.3161 14.4685 19.3911V19.692C14.4686 19.767 14.5293 19.8276 14.6041 19.8276Z" fill="#F5F5F5"/>
<path d="M17.3969 19.8276H19.6394C19.7143 19.8276 19.775 19.767 19.775 19.692V19.3911C19.775 19.3162 19.7144 19.2554 19.6394 19.2554H17.3969C17.322 19.2554 17.2612 19.3161 17.2612 19.3911V19.692C17.2613 19.767 17.3221 19.8276 17.3969 19.8276ZM20.186 19.8276H22.4321C22.507 19.8276 22.5678 19.767 22.5678 19.692V19.3911C22.5678 19.3162 22.5071 19.2554 22.4321 19.2554H20.186C20.1111 19.2554 20.0504 19.3161 20.0504 19.3911V19.692C20.0504 19.767 20.111 19.8276 20.186 19.8276Z" fill="#F5F5F5"/>
<path d="M22.9821 19.8276H25.2248C25.2997 19.8276 25.3604 19.767 25.3604 19.692V19.3911C25.3604 19.3162 25.2998 19.2554 25.2248 19.2554H22.9821C22.9072 19.2554 22.8464 19.3161 22.8464 19.3911V19.692C22.8465 19.767 22.9072 19.8276 22.9821 19.8276ZM25.7747 19.8276H28.0174C28.0923 19.8276 28.1531 19.767 28.1531 19.692V19.3911C28.1531 19.3162 28.0924 19.2554 28.0174 19.2554H25.7747C25.6998 19.2554 25.6391 19.3161 25.6391 19.3911V19.692C25.6392 19.767 25.6998 19.8276 25.7747 19.8276Z" fill="#F5F5F5"/>
<path d="M28.5672 19.8276H30.8098C30.8847 19.8276 30.9455 19.767 30.9455 19.692V19.3911C30.9455 19.3162 30.8848 19.2554 30.8098 19.2554H28.5672C28.4923 19.2554 28.4315 19.3161 28.4315 19.3911V19.692C28.4315 19.767 28.4923 19.8276 28.5672 19.8276ZM31.3635 19.8276H33.6025C33.6774 19.8276 33.7381 19.767 33.7381 19.692V19.3911C33.7381 19.3162 33.6775 19.2554 33.6025 19.2554H31.3635C31.2886 19.2554 31.2279 19.3161 31.2279 19.3911V19.692C31.2279 19.767 31.2886 19.8276 31.3635 19.8276Z" fill="#F5F5F5"/>
<path d="M34.1525 19.8276H36.3952C36.4701 19.8276 36.5308 19.767 36.5308 19.692V19.3911C36.5308 19.3162 36.4702 19.2554 36.3952 19.2554H34.1525C34.0776 19.2554 34.0168 19.3161 34.0168 19.3911V19.692C34.0169 19.767 34.0776 19.8276 34.1525 19.8276ZM36.9489 19.8276H39.1876C39.2625 19.8276 39.3233 19.767 39.3233 19.692V19.3911C39.3233 19.3162 39.2626 19.2554 39.1876 19.2554H36.9489C36.874 19.2554 36.8132 19.3161 36.8132 19.3911V19.692C36.8133 19.767 36.874 19.8276 36.9489 19.8276Z" fill="#F5F5F5"/>
<path d="M39.7418 19.8276H41.9808C42.0557 19.8276 42.1164 19.767 42.1164 19.692V19.3911C42.1164 19.3162 42.0558 19.2554 41.9808 19.2554H39.7418C39.6669 19.2554 39.6062 19.3161 39.6062 19.3911V19.692C39.6061 19.767 39.6669 19.8276 39.7418 19.8276ZM42.5345 19.8276H44.7772C44.8521 19.8276 44.9128 19.767 44.9128 19.692V19.3911C44.9128 19.3162 44.8522 19.2554 44.7772 19.2554H42.5345C42.4596 19.2554 42.3989 19.3161 42.3989 19.3911V19.692C42.3989 19.767 42.4596 19.8276 42.5345 19.8276Z" fill="#F5F5F5"/>
<path d="M45.3271 19.8276H47.5697C47.6446 19.8276 47.7054 19.767 47.7054 19.692V19.3911C47.7054 19.3162 47.6447 19.2554 47.5697 19.2554H45.3271C45.2521 19.2554 45.1914 19.3161 45.1914 19.3911V19.692C45.1915 19.767 45.2522 19.8276 45.3271 19.8276ZM48.1199 19.8276H50.366C50.4409 19.8276 50.5016 19.767 50.5016 19.692V19.3911C50.5016 19.3162 50.441 19.2554 50.366 19.2554H48.1199C48.045 19.2554 47.9843 19.3161 47.9843 19.3911V19.692C47.9842 19.767 48.0449 19.8276 48.1199 19.8276Z" fill="#F5F5F5"/>
<path d="M50.3657 31.0376H50.3582C50.2833 31.0376 50.2226 31.0982 50.2226 31.1732V31.467C50.2226 31.5419 50.1619 31.6026 50.0869 31.6026H49.5179C49.443 31.6026 49.3822 31.542 49.3822 31.467V31.1732C49.3822 31.0983 49.3216 31.0376 49.2466 31.0376H48.1234C48.0485 31.0376 47.9877 31.0982 47.9877 31.1732V31.7532C47.9877 31.8281 48.0484 31.8889 48.1234 31.8889H48.6888C48.7637 31.8889 48.8244 31.8282 48.8244 31.7532V31.7384C48.8244 31.6635 48.7638 31.6027 48.6888 31.6027H48.4022C48.3273 31.6027 48.2665 31.5421 48.2665 31.4671V31.4523C48.2665 31.3774 48.3272 31.3167 48.4022 31.3167H48.9678C49.0427 31.3167 49.1034 31.3773 49.1034 31.4523V31.7532C49.1034 31.8281 49.1641 31.8889 49.2391 31.8889H50.3658C50.4407 31.8889 50.5015 31.8282 50.5015 31.7532V31.1732C50.5014 31.0983 50.4407 31.0376 50.3657 31.0376ZM49.8044 31.0376H49.7967C49.7218 31.0376 49.661 31.0982 49.661 31.1732V31.181C49.661 31.2559 49.7217 31.3166 49.7967 31.3166H49.8044C49.8793 31.3166 49.9401 31.256 49.9401 31.181V31.1732C49.9401 31.0983 49.8793 31.0376 49.8044 31.0376ZM50.3657 32.1748H47.0041C46.9292 32.1748 46.8685 32.2354 46.8685 32.3104V32.3253C46.8685 32.4002 46.9291 32.4609 47.0041 32.4609H50.3657C50.4406 32.4609 50.5014 32.4003 50.5014 32.3253V32.3104C50.5014 32.2354 50.4407 32.1748 50.3657 32.1748ZM47.0042 31.0376H47.5696C47.6446 31.0376 47.7053 31.0982 47.7053 31.1732V31.7532C47.7053 31.8281 47.6446 31.8889 47.5696 31.8889H46.7251C46.6502 31.8889 46.5895 31.9495 46.5895 32.0245V32.3254C46.5895 32.4003 46.5288 32.461 46.4538 32.461H46.4463C46.3714 32.461 46.3107 32.4004 46.3107 32.3254V31.4523C46.3107 31.3774 46.25 31.3167 46.175 31.3167H46.1673C46.0924 31.3167 46.0317 31.3773 46.0317 31.4523V32.3254C46.0317 32.4003 45.971 32.461 45.896 32.461H45.8885C45.8136 32.461 45.7529 32.4004 45.7529 32.3254V31.4523C45.7529 31.3774 45.6922 31.3167 45.6172 31.3167H45.606C45.5311 31.3167 45.4703 31.3773 45.4703 31.4523V32.3254C45.4703 32.4003 45.4097 32.461 45.3347 32.461H45.3306C45.2557 32.461 45.1949 32.4004 45.1949 32.3254V31.1733C45.1949 31.0984 45.2556 31.0377 45.3306 31.0377H46.4538C46.5287 31.0377 46.5895 31.0983 46.5895 31.1733V31.4671C46.5895 31.542 46.6501 31.6027 46.7251 31.6027H47.2905C47.3655 31.6027 47.4262 31.5421 47.4262 31.4671V31.4523C47.4262 31.3774 47.3655 31.3167 47.2905 31.3167H47.0041C46.9292 31.3167 46.8685 31.2561 46.8685 31.1811V31.1733C46.8685 31.0983 46.9293 31.0376 47.0042 31.0376Z" fill="#F5F5F5"/>
<path d="M44.7773 31.0376H44.7661C44.6912 31.0376 44.6304 31.0982 44.6304 31.1732V31.467C44.6304 31.5419 44.5698 31.6026 44.4948 31.6026H43.9329C43.858 31.6026 43.7972 31.542 43.7972 31.467V31.1732C43.7972 31.0983 43.7366 31.0376 43.6616 31.0376H42.5383C42.4634 31.0376 42.4027 31.0982 42.4027 31.1732V31.7532C42.4027 31.8281 42.4633 31.8889 42.5383 31.8889H43.1038C43.1787 31.8889 43.2394 31.8282 43.2394 31.7532V31.7384C43.2394 31.6635 43.1788 31.6027 43.1038 31.6027H42.8171C42.7422 31.6027 42.6815 31.5421 42.6815 31.4671V31.4523C42.6815 31.3774 42.7421 31.3167 42.8171 31.3167H43.3828C43.4577 31.3167 43.5184 31.3773 43.5184 31.4523V31.7532C43.5184 31.8281 43.579 31.8889 43.654 31.8889H44.7773C44.8522 31.8889 44.9129 31.8282 44.9129 31.7532V31.1732C44.9128 31.0983 44.8521 31.0376 44.7773 31.0376ZM44.2194 31.0376H44.2119C44.137 31.0376 44.0762 31.0982 44.0762 31.1732V31.181C44.0762 31.2559 44.1369 31.3166 44.2119 31.3166H44.2194C44.2943 31.3166 44.355 31.256 44.355 31.181V31.1732C44.3549 31.0983 44.2943 31.0376 44.2194 31.0376ZM44.7773 32.1748H41.4191C41.3442 32.1748 41.2834 32.2354 41.2834 32.3104V32.3253C41.2834 32.4002 41.3441 32.4609 41.4191 32.4609H44.7773C44.8522 32.4609 44.9129 32.4003 44.9129 32.3253V32.3104C44.9128 32.2354 44.8521 32.1748 44.7773 32.1748ZM41.4191 31.0376H41.9881C42.063 31.0376 42.1238 31.0982 42.1238 31.1732V31.7532C42.1238 31.8281 42.0631 31.8889 41.9881 31.8889H41.1436C41.0687 31.8889 41.008 31.9495 41.008 32.0245V32.3254C41.008 32.4003 40.9473 32.461 40.8723 32.461H40.8611C40.7862 32.461 40.7254 32.4004 40.7254 32.3254V31.4523C40.7254 31.3774 40.6648 31.3167 40.5898 31.3167H40.5786C40.5037 31.3167 40.4429 31.3773 40.4429 31.4523V32.3254C40.4429 32.4003 40.3823 32.461 40.3073 32.461H40.3032C40.2283 32.461 40.1675 32.4004 40.1675 32.3254V31.4523C40.1675 31.3774 40.1069 31.3167 40.0319 31.3167H40.0207C39.9458 31.3167 39.885 31.3773 39.885 31.4523V32.3254C39.885 32.4003 39.8244 32.461 39.7494 32.461H39.7418C39.6669 32.461 39.6062 32.4004 39.6062 32.3254V31.1733C39.6062 31.0984 39.6668 31.0377 39.7418 31.0377H40.8722C40.9471 31.0377 41.0079 31.0983 41.0079 31.1733V31.4671C41.0079 31.542 41.0685 31.6027 41.1435 31.6027H41.7054C41.7803 31.6027 41.8411 31.5421 41.8411 31.4671V31.4523C41.8411 31.3774 41.7804 31.3167 41.7054 31.3167H41.4188C41.3439 31.3167 41.2832 31.2561 41.2832 31.1811V31.1733C41.2834 31.0983 41.3442 31.0376 41.4191 31.0376Z" fill="#F5F5F5"/>
<path d="M39.1913 31.0376H39.1838C39.1089 31.0376 39.0481 31.0982 39.0481 31.1732V31.467C39.0481 31.5419 38.9875 31.6026 38.9125 31.6026H38.3468C38.2719 31.6026 38.2112 31.542 38.2112 31.467V31.1732C38.2112 31.0983 38.1506 31.0376 38.0756 31.0376H36.9488C36.8739 31.0376 36.8132 31.0982 36.8132 31.1732V31.7532C36.8132 31.8281 36.8738 31.8889 36.9488 31.8889H37.5142C37.5891 31.8889 37.6499 31.8282 37.6499 31.7532V31.7384C37.6499 31.6635 37.5892 31.6027 37.5142 31.6027H37.2276C37.1527 31.6027 37.092 31.5421 37.092 31.4671V31.4523C37.092 31.3774 37.1526 31.3167 37.2276 31.3167H37.7967C37.8716 31.3167 37.9323 31.3773 37.9323 31.4523V31.7532C37.9323 31.8281 37.9929 31.8889 38.0679 31.8889H39.1912C39.2661 31.8889 39.3268 31.8282 39.3268 31.7532V31.1732C39.327 31.0983 39.2662 31.0376 39.1913 31.0376ZM38.6335 31.0376H38.6259C38.551 31.0376 38.4903 31.0982 38.4903 31.1732V31.181C38.4903 31.2559 38.5509 31.3166 38.6259 31.3166H38.6335C38.7084 31.3166 38.7691 31.256 38.7691 31.181V31.1732C38.7691 31.0983 38.7084 31.0376 38.6335 31.0376ZM39.1913 32.1748H35.8295C35.7546 32.1748 35.6938 32.2354 35.6938 32.3104V32.3253C35.6938 32.4002 35.7545 32.4609 35.8295 32.4609H39.1913C39.2662 32.4609 39.3269 32.4003 39.3269 32.3253V32.3104C39.327 32.2354 39.2662 32.1748 39.1913 32.1748ZM35.8296 31.0376H36.3986C36.4735 31.0376 36.5343 31.0982 36.5343 31.1732V31.7532C36.5343 31.8281 36.4736 31.8889 36.3986 31.8889H35.5543C35.4794 31.8889 35.4186 31.9495 35.4186 32.0245V32.3254C35.4186 32.4003 35.358 32.461 35.283 32.461H35.2753C35.2004 32.461 35.1396 32.4004 35.1396 32.3254V31.4523C35.1396 31.3774 35.079 31.3167 35.004 31.3167H34.9927C34.9178 31.3167 34.8571 31.3773 34.8571 31.4523V32.3254C34.8571 32.4003 34.7965 32.461 34.7215 32.461H34.7102C34.6353 32.461 34.5746 32.4004 34.5746 32.3254V31.4523C34.5746 31.3774 34.5139 31.3167 34.4389 31.3167H34.4348C34.3599 31.3167 34.2992 31.3773 34.2992 31.4523V32.3254C34.2992 32.4003 34.2385 32.461 34.1635 32.461H34.156C34.0811 32.461 34.0204 32.4004 34.0204 32.3254V31.1733C34.0204 31.0984 34.081 31.0377 34.156 31.0377H35.283C35.3579 31.0377 35.4186 31.0983 35.4186 31.1733V31.4671C35.4186 31.542 35.4793 31.6027 35.5543 31.6027H36.1197C36.1946 31.6027 36.2553 31.5421 36.2553 31.4671V31.4523C36.2553 31.3774 36.1947 31.3167 36.1197 31.3167H35.8294C35.7545 31.3167 35.6937 31.2561 35.6937 31.1811V31.1733C35.6939 31.0983 35.7547 31.0376 35.8296 31.0376Z" fill="#F5F5F5"/>
<path d="M33.6062 31.0376H33.5986C33.5237 31.0376 33.463 31.0982 33.463 31.1732V31.467C33.463 31.5419 33.4024 31.6026 33.3274 31.6026H32.7619C32.687 31.6026 32.6263 31.542 32.6263 31.467V31.1732C32.6263 31.0983 32.5656 31.0376 32.4906 31.0376H31.3637C31.2888 31.0376 31.228 31.0982 31.228 31.1732V31.7532C31.228 31.8281 31.2887 31.8889 31.3637 31.8889H31.9327C32.0076 31.8889 32.0684 31.8282 32.0684 31.7532V31.7384C32.0684 31.6635 32.0077 31.6027 31.9327 31.6027H31.6461C31.5712 31.6027 31.5105 31.5421 31.5105 31.4671V31.4523C31.5105 31.3774 31.5711 31.3167 31.6461 31.3167H32.2115C32.2864 31.3167 32.3472 31.3773 32.3472 31.4523V31.7532C32.3472 31.8281 32.4078 31.8889 32.4828 31.8889H33.6061C33.681 31.8889 33.7417 31.8282 33.7417 31.7532V31.1732C33.7417 31.0983 33.681 31.0376 33.6062 31.0376ZM33.0483 31.0376H33.0407C32.9658 31.0376 32.9051 31.0982 32.9051 31.1732V31.181C32.9051 31.2559 32.9657 31.3166 33.0407 31.3166H33.0483C33.1232 31.3166 33.1839 31.256 33.1839 31.181V31.1732C33.1838 31.0983 33.1232 31.0376 33.0483 31.0376ZM33.6062 32.1748H30.248C30.1731 32.1748 30.1123 32.2354 30.1123 32.3104V32.3253C30.1123 32.4002 30.173 32.4609 30.248 32.4609H33.6062C33.6811 32.4609 33.7418 32.4003 33.7418 32.3253V32.3104C33.7417 32.2354 33.681 32.1748 33.6062 32.1748ZM30.248 31.0376H30.817C30.8919 31.0376 30.9527 31.0982 30.9527 31.1732V31.7532C30.9527 31.8281 30.892 31.8889 30.817 31.8889H29.9654C29.8905 31.8889 29.8297 31.9495 29.8297 32.0245V32.3254C29.8297 32.4003 29.7691 32.461 29.6941 32.461H29.6865C29.6116 32.461 29.5509 32.4004 29.5509 32.3254V31.4523C29.5509 31.3774 29.4903 31.3167 29.4153 31.3167H29.4112C29.3363 31.3167 29.2755 31.3773 29.2755 31.4523V32.3254C29.2755 32.4003 29.2149 32.461 29.1399 32.461H29.1286C29.0537 32.461 28.993 32.4004 28.993 32.3254V31.4523C28.993 31.3774 28.9323 31.3167 28.8573 31.3167H28.8496C28.7747 31.3167 28.714 31.3773 28.714 31.4523V32.3254C28.714 32.4003 28.6533 32.461 28.5783 32.461H28.5708C28.4959 32.461 28.4352 32.4004 28.4352 32.3254V31.1733C28.4352 31.0984 28.4958 31.0377 28.5708 31.0377H29.6941C29.769 31.0377 29.8297 31.0983 29.8297 31.1733V31.4671C29.8297 31.542 29.8904 31.6027 29.9654 31.6027H30.5344C30.6093 31.6027 30.67 31.5421 30.67 31.4671V31.4523C30.67 31.3774 30.6094 31.3167 30.5344 31.3167H30.2478C30.1729 31.3167 30.1121 31.2561 30.1121 31.1811V31.1733C30.1124 31.0983 30.1731 31.0376 30.248 31.0376Z" fill="#F5F5F5"/>
<path d="M28.021 31.0376H28.0132C27.9383 31.0376 27.8776 31.0982 27.8776 31.1732V31.467C27.8776 31.5419 27.817 31.6026 27.742 31.6026H27.1765C27.1016 31.6026 27.0409 31.542 27.0409 31.467V31.1732C27.0409 31.0983 26.9802 31.0376 26.9052 31.0376H25.7783C25.7034 31.0376 25.6426 31.0982 25.6426 31.1732V31.7532C25.6426 31.8281 25.7033 31.8889 25.7783 31.8889H26.3473C26.4222 31.8889 26.483 31.8282 26.483 31.7532V31.7384C26.483 31.6635 26.4223 31.6027 26.3473 31.6027H26.0573C25.9824 31.6027 25.9216 31.5421 25.9216 31.4671V31.4523C25.9216 31.3774 25.9823 31.3167 26.0573 31.3167H26.6227C26.6976 31.3167 26.7584 31.3773 26.7584 31.4523V31.7532C26.7584 31.8281 26.819 31.8889 26.894 31.8889H28.021C28.0959 31.8889 28.1566 31.8282 28.1566 31.7532V31.1732C28.1565 31.0983 28.0959 31.0376 28.021 31.0376ZM27.4594 31.0376H27.4553C27.3804 31.0376 27.3197 31.0982 27.3197 31.1732V31.181C27.3197 31.2559 27.3803 31.3166 27.4553 31.3166H27.4594C27.5343 31.3166 27.5951 31.256 27.5951 31.181V31.1732C27.5951 31.0983 27.5343 31.0376 27.4594 31.0376ZM28.021 32.1748H24.6592C24.5842 32.1748 24.5235 32.2354 24.5235 32.3104V32.3253C24.5235 32.4002 24.5842 32.4609 24.6592 32.4609H28.021C28.0959 32.4609 28.1566 32.4003 28.1566 32.3253V32.3104C28.1565 32.2354 28.0959 32.1748 28.021 32.1748ZM24.6591 31.0376H25.2281C25.303 31.0376 25.3637 31.0982 25.3637 31.1732V31.7532C25.3637 31.8281 25.3031 31.8889 25.2281 31.8889H24.3801C24.3051 31.8889 24.2444 31.9495 24.2444 32.0245V32.3254C24.2444 32.4003 24.1838 32.461 24.1088 32.461H24.1012C24.0263 32.461 23.9656 32.4004 23.9656 32.3254V31.4523C23.9656 31.3774 23.905 31.3167 23.83 31.3167H23.8222C23.7473 31.3167 23.6866 31.3773 23.6866 31.4523V32.3254C23.6866 32.4003 23.6259 32.461 23.551 32.461H23.5434C23.4685 32.461 23.4078 32.4004 23.4078 32.3254V31.4523C23.4078 31.3774 23.3471 31.3167 23.2721 31.3167H23.2646C23.1897 31.3167 23.129 31.3773 23.129 31.4523V32.3254C23.129 32.4003 23.0683 32.461 22.9933 32.461H22.9856C22.9107 32.461 22.85 32.4004 22.85 32.3254V31.1733C22.85 31.0984 22.9106 31.0377 22.9856 31.0377H24.1089C24.1838 31.0377 24.2445 31.0983 24.2445 31.1733V31.4671C24.2445 31.542 24.3051 31.6027 24.3801 31.6027H24.9492C25.0241 31.6027 25.0848 31.5421 25.0848 31.4671V31.4523C25.0848 31.3774 25.0242 31.3167 24.9492 31.3167H24.6592C24.5842 31.3167 24.5235 31.2561 24.5235 31.1811V31.1733C24.5235 31.0983 24.5842 31.0376 24.6591 31.0376Z" fill="#F5F5F5"/>
<path d="M22.4356 31.0376H22.4279C22.353 31.0376 22.2923 31.0982 22.2923 31.1732V31.467C22.2923 31.5419 22.2316 31.6026 22.1566 31.6026H21.5912C21.5163 31.6026 21.4556 31.542 21.4556 31.467V31.1732C21.4556 31.0983 21.3949 31.0376 21.3199 31.0376H20.193C20.1181 31.0376 20.0573 31.0982 20.0573 31.1732V31.7532C20.0573 31.8281 20.118 31.8889 20.193 31.8889H20.7586C20.8335 31.8889 20.8942 31.8282 20.8942 31.7532V31.7384C20.8942 31.6635 20.8336 31.6027 20.7586 31.6027H20.4755C20.4006 31.6027 20.3398 31.5421 20.3398 31.4671V31.4523C20.3398 31.3774 20.4005 31.3167 20.4755 31.3167H21.0374C21.1123 31.3167 21.173 31.3773 21.173 31.4523V31.7532C21.173 31.8281 21.2337 31.8889 21.3087 31.8889H22.4356C22.5105 31.8889 22.5713 31.8282 22.5713 31.7532V31.1732C22.5713 31.0983 22.5105 31.0376 22.4356 31.0376ZM21.8742 31.0376H21.8701C21.7952 31.0376 21.7345 31.0982 21.7345 31.1732V31.181C21.7345 31.2559 21.7951 31.3166 21.8701 31.3166H21.8742C21.9491 31.3166 22.0099 31.256 22.0099 31.181V31.1732C22.0098 31.0983 21.9491 31.0376 21.8742 31.0376ZM22.4356 32.1748H19.0738C18.9989 32.1748 18.9382 32.2354 18.9382 32.3104V32.3253C18.9382 32.4002 18.9988 32.4609 19.0738 32.4609H22.4355C22.5104 32.4609 22.5712 32.4003 22.5712 32.3253V32.3104C22.5713 32.2354 22.5105 32.1748 22.4356 32.1748ZM19.0738 31.0376H19.6393C19.7142 31.0376 19.7749 31.0982 19.7749 31.1732V31.7532C19.7749 31.8281 19.7143 31.8889 19.6393 31.8889H18.7949C18.72 31.8889 18.6593 31.9495 18.6593 32.0245V32.3254C18.6593 32.4003 18.5986 32.461 18.5236 32.461H18.5159C18.441 32.461 18.3803 32.4004 18.3803 32.3254V31.4523C18.3803 31.3774 18.3196 31.3167 18.2446 31.3167H18.2371C18.1622 31.3167 18.1015 31.3773 18.1015 31.4523V32.3254C18.1015 32.4003 18.0408 32.461 17.9658 32.461H17.9581C17.8832 32.461 17.8225 32.4004 17.8225 32.3254V31.4523C17.8225 31.3774 17.7618 31.3167 17.6868 31.3167H17.6793C17.6044 31.3167 17.5437 31.3773 17.5437 31.4523V32.3254C17.5437 32.4003 17.483 32.461 17.408 32.461H17.4003C17.3254 32.461 17.2646 32.4004 17.2646 32.3254V31.1733C17.2646 31.0984 17.3253 31.0377 17.4003 31.0377H18.5238C18.5987 31.0377 18.6595 31.0983 18.6595 31.1733V31.4671C18.6595 31.542 18.7201 31.6027 18.7951 31.6027H19.3641C19.439 31.6027 19.4997 31.5421 19.4997 31.4671V31.4523C19.4997 31.3774 19.4391 31.3167 19.3641 31.3167H19.074C18.9991 31.3167 18.9384 31.2561 18.9384 31.1811V31.1733C18.9382 31.0983 18.999 31.0376 19.0738 31.0376Z" fill="#F5F5F5"/>
<path d="M16.8499 31.0376H16.8422C16.7673 31.0376 16.7066 31.0982 16.7066 31.1732V31.467C16.7066 31.5419 16.6459 31.6026 16.5709 31.6026H16.002C15.9271 31.6026 15.8663 31.542 15.8663 31.467V31.1732C15.8663 31.0983 15.8057 31.0376 15.7307 31.0376H14.6071C14.5322 31.0376 14.4715 31.0982 14.4715 31.1732V31.7532C14.4715 31.8281 14.5321 31.8889 14.6071 31.8889H15.1728C15.2477 31.8889 15.3084 31.8282 15.3084 31.7532V31.7384C15.3084 31.6635 15.2478 31.6027 15.1728 31.6027H14.8824C14.8075 31.6027 14.7468 31.5421 14.7468 31.4671V31.4523C14.7468 31.3774 14.8074 31.3167 14.8824 31.3167H15.4552C15.5301 31.3167 15.5908 31.3773 15.5908 31.4523V31.7532C15.5908 31.8281 15.6515 31.8889 15.7265 31.8889H16.8497C16.9246 31.8889 16.9854 31.8282 16.9854 31.7532V31.1732C16.9855 31.0983 16.9248 31.0376 16.8499 31.0376ZM16.292 31.0376H16.2808C16.2059 31.0376 16.1451 31.0982 16.1451 31.1732V31.181C16.1451 31.2559 16.2058 31.3166 16.2808 31.3166H16.292C16.3669 31.3166 16.4277 31.256 16.4277 31.181V31.1732C16.4277 31.0983 16.3669 31.0376 16.292 31.0376ZM16.8499 32.1748H13.4882C13.4133 32.1748 13.3526 32.2354 13.3526 32.3104V32.3253C13.3526 32.4002 13.4132 32.4609 13.4882 32.4609H16.8499C16.9248 32.4609 16.9856 32.4003 16.9856 32.3253V32.3104C16.9855 32.2354 16.9248 32.1748 16.8499 32.1748ZM13.488 31.0376H14.0534C14.1283 31.0376 14.1891 31.0982 14.1891 31.1732V31.7532C14.1891 31.8281 14.1284 31.8889 14.0534 31.8889H13.2091C13.1342 31.8889 13.0735 31.9495 13.0735 32.0245V32.3254C13.0735 32.4003 13.0128 32.461 12.9378 32.461H12.9301C12.8552 32.461 12.7945 32.4004 12.7945 32.3254V31.4523C12.7945 31.3774 12.7338 31.3167 12.6588 31.3167H12.6513C12.5764 31.3167 12.5156 31.3773 12.5156 31.4523V32.3254C12.5156 32.4003 12.455 32.461 12.38 32.461H12.3723C12.2974 32.461 12.2366 32.4004 12.2366 32.3254V31.4523C12.2366 31.3774 12.176 31.3167 12.101 31.3167H12.0898C12.0149 31.3167 11.9541 31.3773 11.9541 31.4523V32.3254C11.9541 32.4003 11.8935 32.461 11.8185 32.461H11.8145C11.7396 32.461 11.6788 32.4004 11.6788 32.3254V31.1733C11.6788 31.0984 11.7395 31.0377 11.8145 31.0377H12.9377C13.0126 31.0377 13.0734 31.0983 13.0734 31.1733V31.4671C13.0734 31.542 13.134 31.6027 13.209 31.6027H13.7709C13.8458 31.6027 13.9066 31.5421 13.9066 31.4671V31.4523C13.9066 31.3774 13.8459 31.3167 13.7709 31.3167H13.4878C13.4129 31.3167 13.3522 31.2561 13.3522 31.1811V31.1733C13.3525 31.0983 13.4131 31.0376 13.488 31.0376Z" fill="#F5F5F5"/>
<path d="M11.2612 31.0376H11.2571C11.1822 31.0376 11.1214 31.0982 11.1214 31.1732V31.467C11.1214 31.5419 11.0608 31.6026 10.9858 31.6026H10.4202C10.3453 31.6026 10.2845 31.542 10.2845 31.467V31.1732C10.2845 31.0983 10.2239 31.0376 10.1489 31.0376H9.02233C8.94743 31.0376 8.88669 31.0982 8.88669 31.1732V31.7532C8.88669 31.8281 8.94733 31.8889 9.02233 31.8889H9.58405C9.65895 31.8889 9.71969 31.8282 9.71969 31.7532V31.7384C9.71969 31.6635 9.65905 31.6027 9.58405 31.6027H9.29763C9.22272 31.6027 9.16198 31.5421 9.16198 31.4671V31.4523C9.16198 31.3774 9.22263 31.3167 9.29763 31.3167H9.86667C9.94157 31.3167 10.0023 31.3773 10.0023 31.4523V31.7532C10.0023 31.8281 10.063 31.8889 10.138 31.8889H11.2615C11.3364 31.8889 11.3971 31.8282 11.3971 31.7532V31.1732C11.3969 31.0983 11.3361 31.0376 11.2612 31.0376ZM10.7034 31.0376H10.6957C10.6208 31.0376 10.56 31.0982 10.56 31.1732V31.181C10.56 31.2559 10.6207 31.3166 10.6957 31.3166H10.7034C10.7783 31.3166 10.839 31.256 10.839 31.181V31.1732C10.839 31.0983 10.7783 31.0376 10.7034 31.0376ZM11.2612 32.1748H7.89587C7.82097 32.1748 7.76023 32.2354 7.76023 32.3104V32.3253C7.76023 32.4002 7.82087 32.4609 7.89587 32.4609H11.2613C11.3362 32.4609 11.3969 32.4003 11.3969 32.3253V32.3104C11.3969 32.2354 11.3361 32.1748 11.2612 32.1748ZM7.89587 31.0376H8.46862C8.54353 31.0376 8.60427 31.0982 8.60427 31.1732V31.7532C8.60427 31.8281 8.54362 31.8889 8.46862 31.8889H7.62409C7.54919 31.8889 7.48845 31.9495 7.48845 32.0245V32.3254C7.48845 32.4003 7.4278 32.461 7.3528 32.461H7.34157C7.26667 32.461 7.20593 32.4004 7.20593 32.3254V31.4523C7.20593 31.3774 7.14529 31.3167 7.07029 31.3167H7.06277C6.98786 31.3167 6.92712 31.3773 6.92712 31.4523V32.3254C6.92712 32.4003 6.86648 32.461 6.79148 32.461H6.78738C6.71247 32.461 6.65173 32.4004 6.65173 32.3254V31.4523C6.65173 31.3774 6.59109 31.3167 6.51609 31.3167H6.50486C6.42996 31.3167 6.36921 31.3773 6.36921 31.4523V32.3254C6.36921 32.4003 6.30857 32.461 6.23357 32.461H6.22585C6.15095 32.461 6.09021 32.4004 6.09021 32.3254V31.1733C6.09021 31.0984 6.15085 31.0377 6.22585 31.0377H7.3528C7.42771 31.0377 7.48845 31.0983 7.48845 31.1733V31.4671C7.48845 31.542 7.54909 31.6027 7.62409 31.6027H8.18952C8.26442 31.6027 8.32517 31.5421 8.32517 31.4671V31.4523C8.32517 31.3774 8.26452 31.3167 8.18952 31.3167H7.89607C7.82116 31.3167 7.76042 31.2561 7.76042 31.1811V31.1733C7.76013 31.0983 7.82097 31.0376 7.89587 31.0376Z" fill="#F5F5F5"/>
<path d="M5.67587 31.0376H5.66815C5.59325 31.0376 5.53251 31.0982 5.53251 31.1732V31.467C5.53251 31.5419 5.47187 31.6026 5.39687 31.6026H4.83144C4.75654 31.6026 4.69579 31.542 4.69579 31.467V31.1732C4.69579 31.0983 4.63515 31.0376 4.56015 31.0376H3.4333C3.35839 31.0376 3.29765 31.0982 3.29765 31.1732V31.7532C3.29765 31.8281 3.3583 31.8889 3.4333 31.8889H3.99521C4.07011 31.8889 4.13085 31.8282 4.13085 31.7532V31.7384C4.13085 31.6635 4.07021 31.6027 3.99521 31.6027H3.70859C3.63369 31.6027 3.57294 31.5421 3.57294 31.4671V31.4523C3.57294 31.3774 3.63359 31.3167 3.70859 31.3167H4.28134C4.35624 31.3167 4.41699 31.3773 4.41699 31.4523V31.7532C4.41699 31.8281 4.47763 31.8889 4.55263 31.8889H5.67587C5.75077 31.8889 5.81151 31.8282 5.81151 31.7532V31.1732C5.81151 31.0983 5.75077 31.0376 5.67587 31.0376ZM5.11806 31.0376H5.11034C5.03544 31.0376 4.9747 31.0982 4.9747 31.1732V31.181C4.9747 31.2559 5.03534 31.3166 5.11034 31.3166H5.11806C5.19296 31.3166 5.2537 31.256 5.2537 31.181V31.1732C5.2536 31.0983 5.19296 31.0376 5.11806 31.0376ZM5.67587 32.1748H2.31777C2.24287 32.1748 2.18213 32.2354 2.18213 32.3104V32.3253C2.18213 32.4002 2.24277 32.4609 2.31777 32.4609H5.67597C5.75087 32.4609 5.81161 32.4003 5.81161 32.3253V32.3104C5.81151 32.2354 5.75077 32.1748 5.67587 32.1748ZM2.31777 31.0376H2.8832C2.9581 31.0376 3.01884 31.0982 3.01884 31.1732V31.7532C3.01884 31.8281 2.9582 31.8889 2.8832 31.8889H2.03174C1.95683 31.8889 1.89609 31.9495 1.89609 32.0245V32.3254C1.89609 32.4003 1.83545 32.461 1.76045 32.461H1.76006C1.68515 32.461 1.62441 32.4004 1.62441 32.3254V31.4523C1.62441 31.3774 1.56377 31.3167 1.48877 31.3167H1.47373C1.39883 31.3167 1.33808 31.3773 1.33808 31.4523V32.3254C1.33808 32.4003 1.27744 32.461 1.20244 32.461H1.20215C1.12724 32.461 1.0665 32.4004 1.0665 32.3254V31.4523C1.0665 31.3774 1.00586 31.3167 0.930859 31.3167H0.923046C0.848144 31.3167 0.787402 31.3773 0.787402 31.4523V32.3254C0.787402 32.4003 0.726757 32.461 0.651758 32.461H0.637109C0.562207 32.461 0.501465 32.4004 0.501465 32.3254V31.1733C0.501465 31.0984 0.562109 31.0377 0.637109 31.0377H1.76035C1.83525 31.0377 1.89599 31.0983 1.89599 31.1733V31.4671C1.89599 31.542 1.95664 31.6027 2.03164 31.6027H2.60429C2.6792 31.6027 2.73994 31.5421 2.73994 31.4671V31.4523C2.73994 31.3774 2.67929 31.3167 2.60429 31.3167H2.31787C2.24297 31.3167 2.18222 31.2561 2.18222 31.1811V31.1733C2.18213 31.0983 2.24287 31.0376 2.31777 31.0376Z" fill="#F5F5F5"/>
<path d="M50.3657 30.1724H48.1233C48.0484 30.1724 47.9876 30.2331 47.9876 30.3081V30.6089C47.9876 30.6838 48.0483 30.7446 48.1233 30.7446H50.3657C50.4406 30.7446 50.5014 30.6839 50.5014 30.6089V30.3081C50.5014 30.2331 50.4407 30.1724 50.3657 30.1724ZM47.5696 30.1724H45.3306C45.2557 30.1724 45.1949 30.2331 45.1949 30.3081V30.6089C45.1949 30.6838 45.2556 30.7446 45.3306 30.7446H47.5696C47.6445 30.7446 47.7052 30.6839 47.7052 30.6089V30.3081C47.7052 30.2331 47.6445 30.1724 47.5696 30.1724Z" fill="#F5F5F5"/>
<path d="M44.7771 30.1724H42.5381C42.4632 30.1724 42.4025 30.2331 42.4025 30.3081V30.6089C42.4025 30.6838 42.4631 30.7446 42.5381 30.7446H44.7771C44.852 30.7446 44.9127 30.6839 44.9127 30.6089V30.3081C44.9126 30.2331 44.8519 30.1724 44.7771 30.1724ZM41.9879 30.1724H39.7418C39.6669 30.1724 39.6062 30.2331 39.6062 30.3081V30.6089C39.6062 30.6838 39.6668 30.7446 39.7418 30.7446H41.9879C42.0628 30.7446 42.1236 30.6839 42.1236 30.6089V30.3081C42.1236 30.2331 42.0629 30.1724 41.9879 30.1724Z" fill="#F5F5F5"/>
<path d="M39.1916 30.1724H36.9491C36.8742 30.1724 36.8134 30.2331 36.8134 30.3081V30.6089C36.8134 30.6838 36.8741 30.7446 36.9491 30.7446H39.1916C39.2665 30.7446 39.3272 30.6839 39.3272 30.6089V30.3081C39.3273 30.2331 39.2665 30.1724 39.1916 30.1724ZM36.399 30.1724H34.1565C34.0816 30.1724 34.0209 30.2331 34.0209 30.3081V30.6089C34.0209 30.6838 34.0815 30.7446 34.1565 30.7446H36.399C36.4739 30.7446 36.5346 30.6839 36.5346 30.6089V30.3081C36.5346 30.2331 36.4738 30.1724 36.399 30.1724Z" fill="#F5F5F5"/>
<path d="M33.6061 30.1724H31.3636C31.2887 30.1724 31.2279 30.2331 31.2279 30.3081V30.6089C31.2279 30.6838 31.2886 30.7446 31.3636 30.7446H33.6061C33.681 30.7446 33.7417 30.6839 33.7417 30.6089V30.3081C33.7416 30.2331 33.6809 30.1724 33.6061 30.1724ZM30.8169 30.1724H28.5708C28.4959 30.1724 28.4352 30.2331 28.4352 30.3081V30.6089C28.4352 30.6838 28.4958 30.7446 28.5708 30.7446H30.8169C30.8918 30.7446 30.9526 30.6839 30.9526 30.6089V30.3081C30.9526 30.2331 30.8919 30.1724 30.8169 30.1724Z" fill="#F5F5F5"/>
<path d="M28.021 30.1724H25.7783C25.7034 30.1724 25.6426 30.2331 25.6426 30.3081V30.6089C25.6426 30.6838 25.7033 30.7446 25.7783 30.7446H28.021C28.0959 30.7446 28.1566 30.6839 28.1566 30.6089V30.3081C28.1565 30.2331 28.0959 30.1724 28.021 30.1724ZM25.2283 30.1724H22.9856C22.9107 30.1724 22.85 30.2331 22.85 30.3081V30.6089C22.85 30.6838 22.9106 30.7446 22.9856 30.7446H25.2283C25.3032 30.7446 25.3639 30.6839 25.3639 30.6089V30.3081C25.3638 30.2331 25.3032 30.1724 25.2283 30.1724Z" fill="#F5F5F5"/>
<path d="M22.4356 30.1724H20.193C20.1181 30.1724 20.0573 30.2331 20.0573 30.3081V30.6089C20.0573 30.6838 20.118 30.7446 20.193 30.7446H22.4356C22.5105 30.7446 22.5713 30.6839 22.5713 30.6089V30.3081C22.5713 30.2331 22.5105 30.1724 22.4356 30.1724ZM19.6393 30.1724H17.4003C17.3254 30.1724 17.2646 30.2331 17.2646 30.3081V30.6089C17.2646 30.6838 17.3253 30.7446 17.4003 30.7446H19.6393C19.7142 30.7446 19.7749 30.6839 19.7749 30.6089V30.3081C19.7749 30.2331 19.7142 30.1724 19.6393 30.1724Z" fill="#F5F5F5"/>
<path d="M16.8502 30.1724H14.6076C14.5327 30.1724 14.4719 30.2331 14.4719 30.3081V30.6089C14.4719 30.6838 14.5326 30.7446 14.6076 30.7446H16.8502C16.9251 30.7446 16.9859 30.6839 16.9859 30.6089V30.3081C16.9858 30.2331 16.9251 30.1724 16.8502 30.1724ZM14.0539 30.1724H11.8151C11.7402 30.1724 11.6794 30.2331 11.6794 30.3081V30.6089C11.6794 30.6838 11.7401 30.7446 11.8151 30.7446H14.0539C14.1288 30.7446 14.1895 30.6839 14.1895 30.6089V30.3081C14.1894 30.2331 14.1288 30.1724 14.0539 30.1724Z" fill="#F5F5F5"/>
<path d="M11.2612 30.1724H9.02233C8.94743 30.1724 8.88669 30.2331 8.88669 30.3081V30.6089C8.88669 30.6838 8.94733 30.7446 9.02233 30.7446H11.2613C11.3362 30.7446 11.3969 30.6839 11.3969 30.6089V30.3081C11.3969 30.2331 11.3361 30.1724 11.2612 30.1724ZM8.46853 30.1724H6.22585C6.15095 30.1724 6.09021 30.2331 6.09021 30.3081V30.6089C6.09021 30.6838 6.15085 30.7446 6.22585 30.7446H8.46853C8.54343 30.7446 8.60417 30.6839 8.60417 30.6089V30.3081C8.60417 30.2331 8.54343 30.1724 8.46853 30.1724Z" fill="#F5F5F5"/>
<path d="M5.67587 30.1724H3.4333C3.35839 30.1724 3.29765 30.2331 3.29765 30.3081V30.6089C3.29765 30.6838 3.3583 30.7446 3.4333 30.7446H5.67597C5.75087 30.7446 5.81161 30.6839 5.81161 30.6089V30.3081C5.81151 30.2331 5.75077 30.1724 5.67587 30.1724ZM2.8831 30.1724H0.637109C0.562109 30.1724 0.501465 30.2331 0.501465 30.3081V30.6089C0.501465 30.6838 0.562109 30.7446 0.637109 30.7446H2.8832C2.9581 30.7446 3.01884 30.6839 3.01884 30.6089V30.3081C3.01884 30.2331 2.9581 30.1724 2.8831 30.1724Z" fill="#F5F5F5"/>
<path d="M24.7864 20.9253C25.0421 20.9934 25.3152 20.9183 25.5027 20.7274C25.7857 21.0139 26.2494 21.0208 26.5428 20.7412C26.7338 20.557 26.8122 20.2773 26.744 20.025C26.4951 20.4274 25.97 20.557 25.5676 20.3046C25.5471 20.2908 25.5198 20.2772 25.5029 20.2635C25.1244 20.5431 24.5891 20.4681 24.3026 20.0931C24.2922 20.0725 24.2719 20.0453 24.2581 20.025C24.1557 20.4208 24.3944 20.8298 24.7864 20.9253Z" fill="#FF4B55"/>
<path d="M26.3751 28.8922C27.2917 28.3889 28.0566 27.5961 28.4761 26.5517C29.1903 24.7617 28.7405 22.7412 27.3742 21.4307C27.3272 21.3856 27.2558 21.4459 27.2899 21.5014C28.6375 23.6989 28.1066 26.5867 26.0214 28.1691L26.1211 21.7856C26.1224 21.699 26.0838 21.6165 26.0165 21.5619L25.6773 21.2878C25.5734 21.2038 25.425 21.2043 25.3217 21.2888L24.9875 21.5619C24.9208 21.6164 24.8827 21.6984 24.8841 21.7846L24.9809 28.1725C22.8954 26.5909 22.3634 23.7005 23.7089 21.5015C23.7429 21.446 23.6715 21.3857 23.6246 21.4308C22.2609 22.7414 21.8083 24.7618 22.5225 26.5517C22.9419 27.5959 23.7067 28.3888 24.6236 28.8921C24.0401 29.0921 23.4268 29.1981 22.8067 29.1803C22.7412 29.1785 22.728 29.2707 22.7908 29.2896C23.5787 29.5288 24.389 29.5452 25.151 29.3744L25.4501 29.9548C25.4708 29.9948 25.5281 29.995 25.5489 29.9549L25.8501 29.3747C26.612 29.5452 27.4226 29.5285 28.2111 29.2893C28.2738 29.2704 28.2607 29.1782 28.1952 29.1801C27.5743 29.1981 26.9596 29.0921 26.3751 28.8922Z" fill="#FF4B55"/>
<path d="M30.1061 22.9576C29.6369 22.0812 28.8578 21.4168 27.9304 21.0913C27.8723 21.0709 27.827 21.1477 27.8745 21.1869C29.9219 22.8735 30.3324 25.8775 28.7491 28.0523C28.6671 28.1614 28.5785 28.2774 28.4932 28.3727C30.437 27.3292 31.1565 24.9014 30.1061 22.9576Z" fill="#FF4B55"/>
<path d="M22.2529 28.0523C20.6695 25.8775 21.0768 22.8736 23.1238 21.1869C23.1714 21.1477 23.126 21.0711 23.0679 21.0914C22.1416 21.417 21.3679 22.0812 20.8957 22.9576C19.8387 24.9014 20.565 27.3292 22.5121 28.3726C22.4201 28.2773 22.3314 28.1614 22.2529 28.0523Z" fill="#FF4B55"/>
</g>
<defs>
<clipPath id="clip0_11218_6455">
<rect width="50" height="50" fill="white" transform="translate(0.5)"/>
</clipPath>
</defs>
</svg>
