<svg width="45" height="46" viewBox="0 0 45 46" fill="none" xmlns="http://www.w3.org/2000/svg">
<rect x="0.5" y="1" width="44" height="44" rx="22" stroke="#E0E9FF"/>
<rect x="7" y="7.5" width="31" height="31" rx="15.5" fill="#E0E9FF"/>
<path d="M20.756 21.5226L21.8287 20.5387C22.4296 19.9875 22.6357 19.1267 22.3497 18.3631L21.8913 17.1396C21.5362 16.1917 20.5049 15.6836 19.537 15.9797C17.8208 16.5045 16.5018 18.0993 16.9078 19.9939C17.1749 21.2399 17.6855 22.8038 18.6539 24.4685C19.6239 26.1361 20.7318 27.3689 21.6815 28.2335C23.1159 29.5394 25.1661 29.2128 26.4851 27.983C27.2189 27.2989 27.2938 26.1619 26.6562 25.3874L25.8156 24.3663C25.2974 23.7368 24.4489 23.4849 23.6711 23.7297L22.2826 24.1667C22.2292 24.1118 22.1674 24.0462 22.0999 23.971C21.8718 23.7166 21.5864 23.3602 21.3464 22.9445C21.1064 22.5288 20.9404 22.1034 20.8342 21.7787C20.8028 21.6827 20.7769 21.5963 20.756 21.5226Z" fill="#0047FF"/>
</svg>
