<svg width="446" height="453" viewBox="0 0 446 453" fill="none" xmlns="http://www.w3.org/2000/svg">
<g clip-path="url(#clip0_11806_24198)">
<rect width="446" height="453" fill="#F8F8F8"/>
<path d="M639 275.714L629.974 280.907L595.07 260.789L609.129 252.687L607.108 251.479L593.05 259.582L558.146 239.476L572.204 231.47L570.184 230.263L556.125 238.365L521.221 218.187L535.328 210.121L533.308 208.914L519.237 217.016L484.333 196.899L498.404 188.796L496.371 187.588L482.313 195.691L447.36 175.67L461.419 167.567L459.398 166.36L445.34 174.462L410.436 154.393L424.494 146.291L422.474 145.083L408.415 153.222L373.511 133.104L387.57 125.002L385.549 123.794L371.479 131.897L336.574 111.828L350.633 103.725L348.612 102.517L334.554 110.717L299.65 90.5507L313.708 82.4481L311.688 81.2406L297.629 89.3432L262.725 69.2739L276.784 61.2075L274.763 60L260.693 68.1026L246.634 60L244.614 61.2075L258.672 69.3101L223.768 89.3794L209.71 81.2768L207.689 82.4843L221.748 90.5869L186.892 110.717L172.834 102.614L170.801 103.822L184.872 111.924L149.919 131.945L135.849 123.843L133.828 125.05L147.887 133.153L112.983 153.222L98.9241 145.119L96.9036 146.327L110.962 154.429L76.058 174.499L61.9996 166.396L59.9791 167.604L74.0375 175.706L39.1334 195.824L25.0629 187.721L23.0425 188.929L37.1009 197.031L2.19678 217.149L-11.8616 209.046L-13.8821 210.254L0.176346 218.344L-34.7278 238.462L-48.7862 230.263L-50.8066 231.47L-36.7482 239.573L-71.6523 259.618L-85.7107 251.515L-87.7433 252.723L-73.6848 260.826L-108.589 280.907L-122.647 272.804L-124.668 274.012L-110.609 282.066L-145.513 302.184L-159.572 294.081L-161.592 295.289L-147.534 303.379L-182.438 323.461L-193 317.423V319.765L-184.458 324.68L-193 329.547V331.877L-182.438 325.839L-147.534 345.957L-182.438 366.026L-193 359.989V362.319L-184.458 367.234L-193 372.1V374.443L-182.438 368.405L-147.534 388.45L-161.544 396.565L-159.524 397.772L-145.513 389.658L-110.609 409.751L-124.668 417.854L-122.647 419.061L-108.589 410.959L-73.6848 431.076L-87.7433 439.167L-85.7228 440.374L-71.6523 432.284L-36.7482 452.389L-50.8066 460.492L-48.7862 461.699L-34.7278 453.597L0.176346 473.702L-13.8821 481.805L-11.8616 483.012L2.19678 474.91L37.1009 495.027L23.0425 503.13L25.0629 504.338L39.1334 496.235L74.0375 516.353L59.967 524.455L61.9996 525.663L76.058 517.56L110.962 537.678L96.9036 545.78L98.9241 546.988L112.983 538.885L147.887 558.713L133.828 566.816L135.849 568.023L149.907 559.921L184.811 580.038L170.753 588.141L172.773 589.348L186.892 581.149L221.796 601.267L207.689 609.43L209.71 610.637L223.768 602.534L257.535 622H263.85L297.629 602.534L311.688 610.637L313.708 609.43L299.65 601.327L334.554 581.209L348.612 589.312L350.633 588.104L336.574 580.002L371.479 559.921L385.537 568.023L387.57 566.816L373.499 558.713L408.403 538.607L422.474 546.71L424.494 545.503L410.436 537.4L445.34 517.282L459.398 525.385L461.419 524.177L447.36 516.075L482.264 495.957L496.323 504.06L498.343 502.852L484.285 494.75L519.189 474.632L533.259 482.735L535.28 481.527L521.221 473.425L556.125 453.319L570.184 461.422L572.204 460.214L558.146 452.112L593.05 431.994L607.108 440.097L609.129 438.889L595.07 430.786L629.974 410.669L639 415.873V413.808L632.007 409.775L639 405.742V403.4L629.974 408.604L595.07 388.45L629.974 368.345L639 373.549V371.207L632.007 367.173L639 363.14V360.81L629.974 366.014L595.07 345.897L629.974 325.779L639 330.983V328.653L632.007 324.62L639 320.587V318.244L629.974 323.448L595.07 303.331L629.974 283.225L639 288.43V286.087L632.007 282.054L639 278.021V275.714ZM590.981 260.789L556.077 280.907L521.173 260.789L556.077 240.672L590.981 260.789ZM262.725 324.632L297.629 304.514L332.534 324.632L297.629 344.737L262.725 324.632ZM295.597 345.909L260.693 366.026L225.789 345.909L260.693 325.791L295.597 345.909ZM260.693 323.461L225.789 303.343L260.693 283.237L295.597 303.343L260.693 323.461ZM258.672 324.668L223.768 344.737L188.864 324.632L223.768 304.514L258.672 324.668ZM221.748 345.945L186.892 366.026L151.988 345.909L186.892 325.791L221.748 345.945ZM223.768 347.152L258.672 367.27L223.768 387.388L188.864 367.27L223.768 347.152ZM260.693 368.357L295.597 388.45L260.693 408.58L225.789 388.45L260.693 368.357ZM262.725 367.149L297.629 347.032L332.534 367.149L297.629 387.267L262.725 367.149ZM299.65 345.872L334.554 325.755L369.458 345.872L334.554 365.99L299.65 345.872ZM336.574 324.596L371.479 304.478L406.383 324.596L371.479 344.737L336.574 324.596ZM334.554 323.388L299.65 303.343L334.554 283.237L369.458 303.343L334.554 323.388ZM297.629 302.111L262.725 282.066L297.629 261.961L332.534 282.066L297.629 302.111ZM260.693 280.907L225.789 260.789L260.693 240.672L295.597 260.789L260.693 280.907ZM258.672 282.114L223.768 302.232L188.864 282.066L223.768 261.961L258.672 282.114ZM221.748 303.391L186.892 323.461L151.988 303.343L186.892 283.237L221.748 303.391ZM184.823 324.68L149.907 344.737L115.003 324.632L149.907 304.514L184.823 324.68ZM147.887 345.957L112.983 366.075L78.0784 345.957L112.983 325.839L147.887 345.957ZM149.907 347.164L184.823 367.27L149.907 387.388L115.003 367.27L149.907 347.164ZM186.892 368.357L221.748 388.45L186.892 408.58L151.94 388.45L186.892 368.357ZM223.768 389.658L258.672 409.775L223.768 429.881L188.864 409.775L223.768 389.658ZM260.693 410.91L295.597 431.028L260.693 451.146L225.789 431.028L260.693 410.91ZM262.725 409.703L297.629 389.658L332.534 409.775L297.629 429.881L262.725 409.703ZM299.65 388.45L334.554 368.345L369.458 388.45L334.554 408.568L299.65 388.45ZM336.574 367.173L371.479 347.056L406.383 367.173L371.479 387.291L336.574 367.173ZM373.499 345.897L408.415 325.779L443.38 345.909L408.415 366.026L373.499 345.897ZM410.436 324.62L445.34 304.502L480.244 324.62L445.34 344.737L410.436 324.62ZM408.415 323.412L373.511 303.295L408.415 283.189L443.38 303.343L408.415 323.412ZM371.479 302.135L336.574 282.066L371.479 261.949L406.383 282.066L371.479 302.135ZM334.554 280.859L299.65 260.789L334.554 240.672L369.458 260.789L334.554 280.859ZM297.629 259.57L262.725 239.464L297.629 219.395L332.534 239.513L297.629 259.57ZM260.693 238.341L225.789 218.187L260.693 198.118L295.597 218.187L260.693 238.341ZM258.672 239.549L223.768 259.654L188.864 239.549L223.768 219.395L258.672 239.549ZM221.748 260.826L186.892 280.907L151.988 260.789L186.892 240.672L221.748 260.826ZM184.823 282.066L149.907 302.184L115.003 282.066L149.919 261.961L184.823 282.066ZM147.887 303.343L112.983 323.461L78.0784 303.343L112.983 283.237L147.887 303.343ZM110.962 324.632L76.058 344.737L41.1539 324.632L76.058 304.514L110.962 324.632ZM74.0375 345.909L39.1334 366.026L4.20514 345.909L39.1092 325.791L74.0375 345.909ZM76.058 347.116L110.962 367.222L76.058 387.339L41.1539 367.222L76.058 347.116ZM112.983 368.393L147.887 388.45L112.983 408.568L78.0784 388.45L112.983 368.393ZM149.907 389.658L184.811 409.775L149.907 429.881L115.003 409.775L149.907 389.658ZM186.892 410.91L221.796 431.028L186.892 451.146L151.988 431.028L186.892 410.91ZM223.817 432.187L258.721 452.305L223.817 472.422L188.913 452.305L223.817 432.187ZM260.693 453.476L295.597 473.582L260.693 493.699L225.789 473.582L260.693 453.476ZM262.725 452.269L297.629 432.151L332.534 452.269L297.629 472.386L262.725 452.269ZM299.65 430.992L334.554 410.874L369.458 430.992L334.554 451.109L299.65 430.992ZM336.574 409.715L371.479 389.658L406.383 409.775L371.479 429.881L336.574 409.715ZM373.499 388.45L408.415 368.345L443.38 388.45L408.415 408.58L373.499 388.45ZM410.436 367.173L445.34 347.056L480.244 367.173L445.34 387.291L410.436 367.173ZM447.36 345.897L482.264 325.779L517.18 345.909L482.276 366.026L447.36 345.897ZM447.36 303.331L482.264 283.225L517.18 303.343L482.276 323.461L447.36 303.331ZM445.34 302.123L410.436 282.066L445.34 261.949L480.244 282.066L445.34 302.123ZM408.415 280.907L373.511 260.789L408.415 240.672L443.38 260.789L408.415 280.907ZM371.479 259.618L336.574 239.513L371.479 219.395L406.383 239.513L371.479 259.618ZM334.554 238.341L299.65 218.187L334.554 198.082L369.458 218.187L334.554 238.341ZM297.629 217.064L262.725 196.947L297.629 176.841L332.534 196.947L297.629 217.064ZM260.693 195.788L225.789 175.67L260.693 155.552L295.597 175.67L260.693 195.788ZM258.672 196.995L223.768 217.113L188.864 196.995L223.768 176.89L258.672 196.995ZM221.748 218.187L186.892 238.341L151.94 218.187L186.892 198.118L221.748 218.187ZM184.823 239.476L149.919 259.582L115.003 239.476L149.919 219.395L184.823 239.476ZM147.887 260.753L112.983 280.871L78.0784 260.753L112.983 240.636L147.887 260.753ZM110.962 282.066L76.058 302.184L41.1539 282.066L76.058 261.961L110.962 282.066ZM74.0375 303.343L39.1334 323.461L4.20514 303.343L39.1092 283.237L74.0375 303.343ZM37.1009 324.632L2.19678 344.737L-32.7073 324.632L2.19678 304.514L37.1009 324.632ZM0.176346 345.909L-34.7278 366.026L-69.5956 345.909L-34.6915 325.791L0.176346 345.909ZM2.19678 347.116L37.1009 367.222L2.19678 387.339L-32.7073 367.222L2.19678 347.116ZM39.1334 368.393L74.0375 388.45L39.1334 408.568L4.20514 388.45L39.1334 368.393ZM76.058 389.658L110.962 409.775L76.058 429.881L41.1539 409.775L76.058 389.658ZM112.983 410.935L147.887 431.052L112.983 451.17L78.0784 431.052L112.983 410.935ZM149.907 432.211L184.811 452.329L149.907 472.446L115.003 452.329L149.907 432.211ZM186.892 453.476L221.796 473.582L186.892 493.699L151.94 473.582L186.892 453.476ZM223.817 474.753L258.721 494.87L223.817 514.976L188.913 494.87L223.817 474.753ZM260.693 496.03L295.597 516.147L260.693 536.265L225.789 516.147L260.693 496.03ZM262.725 494.822L297.629 474.705L332.534 494.822L297.629 514.928L262.725 494.822ZM299.65 473.582L334.554 453.476L369.458 473.582L334.554 493.699L299.65 473.582ZM336.574 452.305L371.479 432.187L406.383 452.305L371.479 472.422L336.574 452.305ZM373.499 431.028L408.415 410.91L443.38 431.028L408.464 451.146L373.499 431.028ZM410.436 409.751L445.34 389.658L480.244 409.775L445.34 429.881L410.436 409.751ZM447.36 388.45L482.264 368.345L517.18 388.45L482.276 408.568L447.36 388.45ZM484.285 367.173L519.189 347.056L554.093 367.173L519.189 387.291L484.285 367.173ZM484.285 324.62L519.189 304.502L554.093 324.62L519.189 344.737L484.285 324.62ZM484.285 282.054L519.189 261.936L554.105 282.054L519.189 302.172L484.285 282.054ZM482.264 280.847L447.36 260.729L482.264 240.611L517.18 260.789L482.264 280.847ZM445.34 259.558L410.436 239.452L445.34 219.395L480.244 239.513L445.34 259.558ZM408.415 238.341L373.511 218.187L408.415 198.082L443.38 218.187L408.415 238.341ZM371.479 217.064L336.574 196.947L371.479 176.841L406.383 196.947L371.479 217.064ZM334.554 195.788L299.65 175.67L334.554 155.552L369.458 175.67L334.554 195.788ZM297.629 174.499L262.725 154.393L297.629 134.276L332.534 154.393L297.629 174.499ZM260.693 153.222L225.789 133.104L260.693 112.999L295.597 133.104L260.693 153.222ZM258.672 154.429L223.768 174.499L188.864 154.393L223.768 134.276L258.672 154.429ZM221.748 175.67L186.892 195.788L151.94 175.67L186.892 155.552L221.748 175.67ZM184.823 196.947L149.919 217.064L115.003 196.947L149.919 176.841L184.823 196.947ZM147.887 218.187L112.983 238.305L78.0784 218.187L112.983 198.082L147.887 218.187ZM110.962 239.476L76.058 259.582L41.1539 239.476L76.058 219.395L110.962 239.476ZM74.0375 260.753L39.1334 280.871L4.20514 260.789L39.1092 240.672L74.0375 260.753ZM37.1009 282.066L2.19678 302.184L-32.7073 282.066L2.19678 261.961L37.1009 282.066ZM0.176346 303.343L-34.7278 323.461L-69.5956 303.343L-34.6915 283.237L0.176346 303.343ZM-36.7482 324.632L-71.6523 344.737L-106.556 324.632L-71.6523 304.514L-36.7482 324.632ZM-73.6848 345.909L-108.589 366.026L-143.493 345.909L-108.589 325.791L-73.6848 345.909ZM-71.6523 347.116L-36.7482 367.222L-71.6523 387.303L-106.556 367.185L-71.6523 347.116ZM-34.7278 368.393L0.176346 388.45L-34.7278 408.568L-69.5956 388.45L-34.7278 368.393ZM2.19678 389.658L37.1009 409.775L2.19678 429.881L-32.7073 409.775L2.19678 389.658ZM39.1334 410.935L74.0375 431.052L39.1334 451.17L4.20514 431.028L39.1334 410.935ZM76.058 432.211L110.962 452.329L76.058 472.446L41.1539 452.329L76.058 432.211ZM112.983 453.5L147.887 473.606L112.983 493.723L78.0784 473.582L112.983 453.5ZM149.907 474.777L184.811 494.895L149.907 515L115.003 494.895L149.907 474.777ZM186.892 496.03L221.796 516.147L186.892 536.265L151.988 516.147L186.892 496.03ZM223.817 517.306L258.721 537.424L223.768 557.505L188.864 537.388L223.817 517.306ZM260.693 538.595L295.597 558.713L260.693 578.818L225.789 558.713L260.693 538.595ZM262.725 537.388L297.629 517.27L332.534 537.388L297.629 557.505L262.725 537.388ZM299.65 516.111L334.554 495.993L369.458 516.111L334.554 536.229L299.65 516.111ZM336.574 494.834L371.479 474.717L406.383 494.834L371.479 514.94L336.574 494.834ZM373.499 473.545L408.403 453.44L443.38 473.582L408.464 493.699L373.499 473.545ZM410.436 452.269L445.34 432.151L480.244 452.269L445.34 472.386L410.436 452.269ZM447.36 430.992L482.264 410.874L517.18 431.028L482.276 451.146L447.36 430.992ZM484.285 409.715L519.189 389.658L554.093 409.775L519.189 429.881L484.285 409.715ZM521.221 388.45L556.125 368.345L590.981 388.45L556.077 408.568L521.221 388.45ZM521.221 345.897L556.125 325.779L590.981 345.909L556.077 366.026L521.221 345.897ZM521.221 303.331L556.125 283.225L590.981 303.343L556.077 323.461L521.221 303.331ZM554.105 239.5L519.189 259.606L484.285 239.5L519.189 219.395L554.105 239.5ZM517.18 218.187L482.276 238.305L447.36 218.187L482.264 198.082L517.18 218.187ZM480.256 196.911L445.352 217.028L410.448 196.911L445.352 176.805L480.256 196.911ZM443.38 175.67L408.415 195.788L373.511 175.67L408.415 155.552L443.38 175.67ZM406.383 154.393L371.479 174.499L336.574 154.393L371.479 134.276L406.383 154.393ZM369.458 133.104L334.554 153.222L299.65 133.104L334.554 112.999L369.458 133.104ZM332.534 111.828L297.629 131.945L262.725 111.828L297.629 91.722L332.534 111.828ZM260.693 70.4331L295.609 90.5507L260.693 110.717L225.789 90.5507L260.693 70.4331ZM223.768 91.722L258.672 111.828L223.768 131.945L188.864 111.828L223.768 91.722ZM186.892 112.999L221.796 133.104L186.892 153.222L151.94 133.116L186.892 112.999ZM149.919 134.276L184.823 154.393L149.919 174.499L115.015 154.393L149.919 134.276ZM112.983 155.552L147.887 175.67L112.983 195.788L78.0784 175.67L112.983 155.552ZM76.058 176.841L110.962 196.947L76.058 217.064L41.1539 196.947L76.058 176.841ZM39.1334 198.118L74.0375 218.187L39.1334 238.305L4.20514 218.187L39.1334 198.118ZM2.19678 219.395L37.1009 239.513L2.19678 259.618L-32.7073 239.513L2.19678 219.395ZM-34.7278 240.672L0.176346 260.789L-34.7278 280.907L-69.5956 260.789L-34.7278 240.672ZM-71.6523 261.961L-36.7482 282.066L-71.6523 302.184L-106.556 282.066L-71.6523 261.961ZM-108.589 283.237L-73.6848 303.343L-108.589 323.461L-143.493 303.343L-108.589 283.237ZM-180.418 324.632L-145.513 304.514L-110.609 324.632L-145.513 344.737L-180.418 324.632ZM-180.418 367.185L-145.513 347.08L-110.609 367.185L-145.513 387.303L-180.418 367.185ZM-143.493 388.45L-108.589 368.345L-73.6848 388.45L-108.589 408.58L-143.493 388.45ZM-106.556 409.739L-71.6523 389.658L-36.7482 409.775L-71.6523 429.857L-106.556 409.739ZM-69.5956 431.028L-34.6915 410.91L0.212631 431.028L-34.6915 451.146L-69.5956 431.028ZM-32.671 452.305L2.23308 432.199L37.1372 452.305L2.23308 472.422L-32.671 452.305ZM4.20514 473.582L39.1213 453.476L74.0255 473.582L39.1213 493.699L4.20514 473.582ZM41.1418 494.87L76.0459 474.753L110.95 494.87L76.0459 514.976L41.1418 494.87ZM78.0663 516.147L112.97 496.03L147.875 516.147L112.97 536.265L78.0663 516.147ZM114.991 537.424L149.895 517.306L184.799 537.424L149.907 557.505L114.991 537.424ZM151.94 558.713L186.892 538.595L221.748 558.713L186.892 578.818L151.94 558.713ZM188.864 580.002L223.768 559.921L258.672 580.038L223.768 600.144L188.864 580.002ZM260.693 621.384L225.789 601.267L260.693 581.149L295.597 601.267L260.693 621.384ZM297.629 600.095L262.713 579.99L297.629 559.921L332.534 580.038L297.629 600.095ZM334.554 578.818L299.65 558.713L334.554 538.607L369.458 558.713L334.554 578.818ZM371.479 557.505L336.574 537.388L371.479 517.27L406.383 537.388L371.479 557.505ZM408.403 536.229L373.499 516.111L408.403 495.993L443.38 516.147L408.403 536.229ZM445.34 514.94L410.436 494.834L445.34 474.717L480.244 494.834L445.34 514.94ZM482.264 493.663L447.36 473.582L482.264 453.476L517.18 473.582L482.264 493.663ZM519.189 472.386L484.285 452.269L519.189 432.151L554.093 452.269L519.189 472.386ZM556.125 451.109L521.221 430.992L556.125 410.874L590.981 431.028L556.125 451.109ZM627.954 409.715L593.05 429.82L558.146 409.715L593.05 389.658L627.954 409.715ZM627.954 367.149L593.05 387.267L558.146 367.149L593.05 347.032L627.954 367.149ZM627.954 324.596L593.05 344.737L558.146 324.632L593.05 304.514L627.954 324.596ZM593.05 302.147L558.146 282.066L593.05 261.949L627.954 282.066L593.05 302.147Z" fill="url(#paint0_radial_11806_24198)"/>
</g>
<defs>
<radialGradient id="paint0_radial_11806_24198" cx="0" cy="0" r="1" gradientUnits="userSpaceOnUse" gradientTransform="translate(222.994 340.405) rotate(0.103653) scale(328.937 219.967)">
<stop stop-color="#57A8FF" stop-opacity="0.24"/>
<stop offset="1" stop-color="#99CAFF" stop-opacity="0"/>
</radialGradient>
<clipPath id="clip0_11806_24198">
<rect width="446" height="453" fill="white"/>
</clipPath>
</defs>
</svg>
