<svg width="60" height="60" viewBox="0 0 60 60" fill="none" xmlns="http://www.w3.org/2000/svg">
<path d="M48.7681 36.2249C50.3522 33.2505 51.25 29.8551 51.25 26.25C51.25 14.514 41.736 5 29.9999 5C18.2639 5 8.74989 14.514 8.74989 26.25C8.74989 30.1206 9.78471 33.7495 11.5928 36.8751C11.6219 36.9253 11.6511 36.9755 11.6806 37.0255C12.2889 38.0574 12.9818 39.0333 13.7499 39.9439C13.7498 39.9438 13.75 39.9439 13.7499 39.9439C13.7585 39.9541 13.7674 39.9646 13.7761 39.9748C13.783 39.983 13.7905 39.9919 13.7975 40.0001H13.7499L26.3604 53.3867C28.3343 55.482 31.6654 55.482 33.6393 53.3867L46.25 40.0001H46.2024C46.2091 39.9922 46.2157 39.9843 46.2224 39.9765L46.2235 39.9751L46.2244 39.9741C46.3153 39.8668 46.4051 39.7586 46.4938 39.6494C47.2018 38.7791 47.8422 37.8516 48.4071 36.8751C48.5311 36.6607 48.6515 36.4439 48.7681 36.2249ZM30.006 34.375C25.8639 34.375 22.506 31.0172 22.506 26.875C22.506 22.7329 25.8639 19.375 30.006 19.375C34.1482 19.375 37.506 22.7329 37.506 26.875C37.506 31.0172 34.1482 34.375 30.006 34.375Z" fill="#D7D7D7"/>
</svg>
