<svg width="20" height="21" viewBox="0 0 20 21" fill="none" xmlns="http://www.w3.org/2000/svg">
<path d="M6.48438 13.2687H2.96875C2.64488 13.2687 2.38281 13.5307 2.38281 13.8546V16.1984C2.38281 16.5222 2.64488 16.7843 2.96875 16.7843H6.48438C6.80824 16.7843 7.07031 16.5222 7.07031 16.1984V13.8546C7.07031 13.5307 6.80824 13.2687 6.48438 13.2687ZM17.0312 13.2687H8.82812C8.50426 13.2687 8.24219 13.5307 8.24219 13.8546V16.1984C8.24219 16.5222 8.50426 16.7843 8.82812 16.7843H17.0312C17.3551 16.7843 17.6172 16.5222 17.6172 16.1984V13.8546C17.6172 13.5307 17.3551 13.2687 17.0312 13.2687ZM11.1719 12.6827C11.8185 12.6827 12.3438 12.1569 12.3438 11.5109C12.3438 12.1569 12.869 12.6827 13.5156 12.6827H15.8594C16.506 12.6827 17.0312 12.1569 17.0312 11.5109V7.99524C17.0312 7.34922 16.506 6.82336 15.8594 6.82336H13.5156C12.869 6.82336 12.3438 7.34922 12.3438 7.99524C12.3438 7.34922 11.8185 6.82336 11.1719 6.82336H8.82812C8.18152 6.82336 7.65625 7.34922 7.65625 7.99524C7.65625 7.34922 7.13098 6.82336 6.48438 6.82336H4.14062C3.49402 6.82336 2.96875 7.34922 2.96875 7.99524V11.5109C2.96875 12.1569 3.49402 12.6827 4.14062 12.6827H6.48438C7.13098 12.6827 7.65625 12.1569 7.65625 11.5109C7.65625 12.1569 8.18152 12.6827 8.82812 12.6827H11.1719Z" fill="url(#paint0_linear_12170_13661)"/>
<path d="M19.4141 9.16711C19.7379 9.16711 20 8.90504 20 8.58118V6.82336C20 5.85407 19.2115 5.06555 18.2422 5.06555H1.75781C0.788516 5.06555 0 5.85407 0 6.82336V8.58118C0 8.90504 0.26207 9.16711 0.585938 9.16711C0.909219 9.16711 1.17188 9.42977 1.17188 9.75305C1.17188 10.0763 0.909219 10.339 0.585938 10.339C0.26207 10.339 0 10.6011 0 10.9249V13.8546C0 14.1785 0.26207 14.4406 0.585938 14.4406H19.4141C19.7379 14.4406 20 14.1785 20 13.8546V10.9249C20 10.6011 19.7379 10.339 19.4141 10.339C19.0908 10.339 18.8281 10.0763 18.8281 9.75305C18.8281 9.42977 19.0908 9.16711 19.4141 9.16711ZM7.07031 11.5109C7.07031 11.8347 6.80824 12.0968 6.48438 12.0968H4.14062C3.81676 12.0968 3.55469 11.8347 3.55469 11.5109V7.99524C3.55469 7.67137 3.81676 7.4093 4.14062 7.4093H6.48438C6.80824 7.4093 7.07031 7.67137 7.07031 7.99524V11.5109ZM11.7578 11.5109C11.7578 11.8347 11.4957 12.0968 11.1719 12.0968H8.82812C8.50426 12.0968 8.24219 11.8347 8.24219 11.5109V7.99524C8.24219 7.67137 8.50426 7.4093 8.82812 7.4093H11.1719C11.4957 7.4093 11.7578 7.67137 11.7578 7.99524V11.5109ZM16.4453 11.5109C16.4453 11.8347 16.1832 12.0968 15.8594 12.0968H13.5156C13.1918 12.0968 12.9297 11.8347 12.9297 11.5109V7.99524C12.9297 7.67137 13.1918 7.4093 13.5156 7.4093H15.8594C16.1832 7.4093 16.4453 7.67137 16.4453 7.99524V11.5109Z" fill="url(#paint1_linear_12170_13661)"/>
<defs>
<linearGradient id="paint0_linear_12170_13661" x1="10" y1="16.7843" x2="10" y2="6.82336" gradientUnits="userSpaceOnUse">
<stop stop-color="#BED8FF"/>
<stop offset="1" stop-color="#F1F5FF"/>
</linearGradient>
<linearGradient id="paint1_linear_12170_13661" x1="10" y1="14.4406" x2="10" y2="5.06555" gradientUnits="userSpaceOnUse">
<stop stop-color="#3A89FF"/>
<stop offset="1" stop-color="#81C3FF"/>
</linearGradient>
</defs>
</svg>
