<svg width="20" height="21" viewBox="0 0 20 21" fill="none" xmlns="http://www.w3.org/2000/svg">
<g clip-path="url(#clip0_12170_13651)">
<path d="M15.8594 7.95618C16.1832 7.95618 16.4453 7.69411 16.4453 7.37024V1.51086C16.4453 1.187 16.1832 0.924927 15.8594 0.924927H7.65625C7.50062 0.924927 7.35184 0.986724 7.24199 1.09661L3.72637 4.61223C3.61648 4.72207 3.55469 4.87086 3.55469 5.02649V20.339C3.55469 20.6629 3.81676 20.9249 4.14062 20.9249H15.8594C16.1832 20.9249 16.4453 20.6629 16.4453 20.339V10.964C16.4453 10.6401 16.1832 10.3781 15.8594 10.3781H15.2734V7.95618H15.8594Z" fill="url(#paint0_linear_12170_13651)"/>
<path d="M8.82812 5.61243C9.15199 5.61243 9.41406 5.35036 9.41406 5.02649V3.85461C9.41406 3.53075 9.15199 3.26868 8.82812 3.26868C8.50426 3.26868 8.24219 3.53075 8.24219 3.85461V5.02649C8.24219 5.35036 8.50426 5.61243 8.82812 5.61243ZM11.1719 5.61243C11.4957 5.61243 11.7578 5.35036 11.7578 5.02649V3.85461C11.7578 3.53075 11.4957 3.26868 11.1719 3.26868C10.848 3.26868 10.5859 3.53075 10.5859 3.85461V5.02649C10.5859 5.35036 10.848 5.61243 11.1719 5.61243ZM13.5156 3.26868C13.1918 3.26868 12.9297 3.53075 12.9297 3.85461V5.02649C12.9297 5.35036 13.1918 5.61243 13.5156 5.61243C13.8395 5.61243 14.1016 5.35036 14.1016 5.02649V3.85461C14.1016 3.53075 13.8395 3.26868 13.5156 3.26868ZM13.5156 13.8937H6.48438C6.16051 13.8937 5.89844 14.1557 5.89844 14.4796V17.9952C5.89844 18.3191 6.16051 18.5812 6.48438 18.5812H13.5156C13.8395 18.5812 14.1016 18.3191 14.1016 17.9952V14.4796C14.1016 14.1557 13.8395 13.8937 13.5156 13.8937Z" fill="url(#paint1_linear_12170_13651)"/>
</g>
<defs>
<linearGradient id="paint0_linear_12170_13651" x1="10" y1="20.9249" x2="10" y2="0.924927" gradientUnits="userSpaceOnUse">
<stop stop-color="#3A71FF"/>
<stop offset="1" stop-color="#81BBFF"/>
</linearGradient>
<linearGradient id="paint1_linear_12170_13651" x1="10" y1="18.5812" x2="10" y2="3.26868" gradientUnits="userSpaceOnUse">
<stop stop-color="#BEC8FF"/>
<stop offset="1" stop-color="#F1F7FF"/>
</linearGradient>
<clipPath id="clip0_12170_13651">
<rect width="20" height="20" fill="white" transform="translate(0 0.924927)"/>
</clipPath>
</defs>
</svg>
