<svg width="20" height="21" viewBox="0 0 20 21" fill="none" xmlns="http://www.w3.org/2000/svg">
<g clip-path="url(#clip0_12170_13641)">
<path d="M11.7578 7.99518H8.24219C7.58531 7.99518 7.07031 8.51018 7.07031 9.16705V12.6827C7.07031 13.3396 7.58531 13.8546 8.24219 13.8546H11.7578C12.4147 13.8546 12.9297 13.3396 12.9297 12.6827V9.16705C12.9297 8.51018 12.4147 7.99518 11.7578 7.99518ZM17.0703 10.3389H14.6875C14.3636 10.3389 14.1016 10.601 14.1016 10.9249C14.1016 11.2487 14.3636 11.5108 14.6875 11.5108H17.0703C17.3942 11.5108 17.6562 11.2487 17.6562 10.9249C17.6562 10.601 17.3942 10.3389 17.0703 10.3389ZM10 7.40924C10.3239 7.40924 10.5859 7.14717 10.5859 6.8233V3.85455C10.5859 3.53069 10.3239 3.26862 10 3.26862C9.67613 3.26862 9.41406 3.53069 9.41406 3.85455V6.8233C9.41406 7.14717 9.67613 7.40924 10 7.40924ZM10 14.4405C9.67613 14.4405 9.41406 14.7026 9.41406 15.0264V17.9952C9.41406 18.319 9.67613 18.5811 10 18.5811C10.3239 18.5811 10.5859 18.319 10.5859 17.9952V15.0264C10.5859 14.7026 10.3239 14.4405 10 14.4405ZM2.92969 11.5108H5.3125C5.63637 11.5108 5.89844 11.2487 5.89844 10.9249C5.89844 10.601 5.63637 10.3389 5.3125 10.3389H2.92969C2.60582 10.3389 2.34375 10.601 2.34375 10.9249C2.34375 11.2487 2.60582 11.5108 2.92969 11.5108ZM5.89844 4.47955H2.92969C2.60582 4.47955 2.34375 4.74162 2.34375 5.06549C2.34375 5.38936 2.60582 5.65143 2.92969 5.65143H5.3125V7.99518C5.3125 8.31905 5.57457 8.58112 5.89844 8.58112C6.2223 8.58112 6.48438 8.31905 6.48438 7.99518V5.06549C6.48438 4.74162 6.2223 4.47955 5.89844 4.47955ZM14.1016 8.58112C14.4254 8.58112 14.6875 8.31905 14.6875 7.99518V5.65143H17.0703C17.3942 5.65143 17.6562 5.38936 17.6562 5.06549C17.6562 4.74162 17.3942 4.47955 17.0703 4.47955H14.1016C13.7777 4.47955 13.5156 4.74162 13.5156 5.06549V7.99518C13.5156 8.31905 13.7777 8.58112 14.1016 8.58112ZM5.89844 13.2686C5.57457 13.2686 5.3125 13.5307 5.3125 13.8546V16.2121H2.92969C2.60582 16.2121 2.34375 16.4741 2.34375 16.798C2.34375 17.1219 2.60582 17.3839 2.92969 17.3839H5.89844C6.2223 17.3839 6.48438 17.1219 6.48438 16.798V13.8546C6.48438 13.5307 6.2223 13.2686 5.89844 13.2686ZM17.0703 16.2121H14.6875V13.8546C14.6875 13.5307 14.4254 13.2686 14.1016 13.2686C13.7777 13.2686 13.5156 13.5307 13.5156 13.8546V16.798C13.5156 17.1219 13.7777 17.3839 14.1016 17.3839H17.0703C17.3942 17.3839 17.6562 17.1219 17.6562 16.798C17.6562 16.4741 17.3942 16.2121 17.0703 16.2121Z" fill="url(#paint0_linear_12170_13641)"/>
<path d="M1.75781 9.16711C0.788516 9.16711 0 9.95563 0 10.9249C0 11.8942 0.788516 12.6827 1.75781 12.6827C2.72711 12.6827 3.51562 11.8942 3.51562 10.9249C3.51562 9.95563 2.72711 9.16711 1.75781 9.16711ZM18.2422 9.16711C17.2729 9.16711 16.4844 9.95563 16.4844 10.9249C16.4844 11.8942 17.2729 12.6827 18.2422 12.6827C19.2115 12.6827 20 11.8942 20 10.9249C20 9.95563 19.2115 9.16711 18.2422 9.16711ZM10 17.4093C9.0307 17.4093 8.24219 18.1978 8.24219 19.1671C8.24219 20.1364 9.0307 20.9249 10 20.9249C10.9693 20.9249 11.7578 20.1364 11.7578 19.1671C11.7578 18.1978 10.9693 17.4093 10 17.4093ZM10 4.44055C10.9693 4.44055 11.7578 3.65204 11.7578 2.68274C11.7578 1.71344 10.9693 0.924927 10 0.924927C9.0307 0.924927 8.24219 1.71344 8.24219 2.68274C8.24219 3.65204 9.0307 4.44055 10 4.44055ZM1.75781 3.30774C0.788516 3.30774 0 4.09625 0 5.06555C0 6.03485 0.788516 6.82336 1.75781 6.82336C2.72711 6.82336 3.51562 6.03485 3.51562 5.06555C3.51562 4.09625 2.72711 3.30774 1.75781 3.30774ZM18.2422 6.82336C19.2115 6.82336 20 6.03485 20 5.06555C20 4.09625 19.2115 3.30774 18.2422 3.30774C17.2729 3.30774 16.4844 4.09625 16.4844 5.06555C16.4844 6.03485 17.2729 6.82336 18.2422 6.82336ZM1.75781 15.0402C0.788516 15.0402 0 15.8288 0 16.7981C0 17.7673 0.788516 18.5559 1.75781 18.5559C2.72711 18.5559 3.51562 17.7673 3.51562 16.7981C3.51562 15.8288 2.72711 15.0402 1.75781 15.0402ZM18.2422 15.0402C17.2729 15.0402 16.4844 15.8288 16.4844 16.7981C16.4844 17.7673 17.2729 18.5559 18.2422 18.5559C19.2115 18.5559 20 17.7673 20 16.7981C20 15.8288 19.2115 15.0402 18.2422 15.0402ZM12.9297 6.23743H7.07031C6.09762 6.23743 5.3125 7.02254 5.3125 7.99524V13.8546C5.3125 14.8272 6.09762 15.6124 7.07031 15.6124H12.9297C13.9024 15.6124 14.6875 14.8272 14.6875 13.8546V7.99524C14.6875 7.02254 13.9024 6.23743 12.9297 6.23743ZM12.3438 12.6827C12.3438 13.0108 12.086 13.2687 11.7578 13.2687H8.24219C7.91402 13.2687 7.65625 13.0108 7.65625 12.6827V9.16711C7.65625 8.83895 7.91402 8.58118 8.24219 8.58118H11.7578C12.086 8.58118 12.3438 8.83895 12.3438 9.16711V12.6827Z" fill="url(#paint1_linear_12170_13641)"/>
</g>
<defs>
<linearGradient id="paint0_linear_12170_13641" x1="10" y1="18.5811" x2="10" y2="3.26862" gradientUnits="userSpaceOnUse">
<stop stop-color="#ADDCFF"/>
<stop offset="0.5028" stop-color="#EAF6FF"/>
<stop offset="1" stop-color="#EAF6FF"/>
</linearGradient>
<linearGradient id="paint1_linear_12170_13641" x1="10" y1="20.9249" x2="10" y2="0.924927" gradientUnits="userSpaceOnUse">
<stop stop-color="#5558FF"/>
<stop offset="1" stop-color="#00C0FF"/>
</linearGradient>
<clipPath id="clip0_12170_13641">
<rect width="20" height="20" fill="white" transform="translate(0 0.924927)"/>
</clipPath>
</defs>
</svg>
