<svg width="24" height="24" viewBox="0 0 24 24" fill="none" xmlns="http://www.w3.org/2000/svg">
<g clip-path="url(#clip0_10948_9261)">
<path d="M23.25 4.8751C23.3495 4.8751 23.4448 4.83559 23.5152 4.76526C23.5855 4.69494 23.625 4.59955 23.625 4.5001V0.375092C23.625 0.275636 23.5855 0.180253 23.5152 0.109927C23.4448 0.0396004 23.3495 9.15569e-05 23.25 9.15569e-05H17.25C17.1883 8.23205e-05 17.1275 0.0153083 17.0731 0.0444185C17.0187 0.0735288 16.9723 0.115623 16.938 0.166967L16.2994 1.12509H7.70062L7.062 0.166967C7.02774 0.115623 6.98134 0.0735288 6.92692 0.0444185C6.87249 0.0153083 6.81172 8.23205e-05 6.75 9.15569e-05H0.75C0.650544 9.15569e-05 0.555161 0.0396004 0.484835 0.109927C0.414509 0.180253 0.375 0.275636 0.375 0.375092V4.5001C0.375 4.59955 0.414509 4.69494 0.484835 4.76526C0.555161 4.83559 0.650544 4.8751 0.75 4.8751C1.14782 4.8751 1.52936 5.03313 1.81066 5.31444C2.09196 5.59574 2.25 5.97727 2.25 6.3751C2.25 6.77292 2.09196 7.15446 1.81066 7.43576C1.52936 7.71707 1.14782 7.8751 0.75 7.8751C0.650544 7.8751 0.555161 7.91461 0.484835 7.98494C0.414509 8.05526 0.375 8.15065 0.375 8.2501V15.7501C0.375 15.8496 0.414509 15.945 0.484835 16.0153C0.555161 16.0856 0.650544 16.1251 0.75 16.1251C1.14782 16.1251 1.52936 16.2831 1.81066 16.5645C2.09196 16.8458 2.25 17.2273 2.25 17.6251C2.25 18.0229 2.09196 18.4045 1.81066 18.6858C1.52936 18.9671 1.14782 19.1251 0.75 19.1251C0.650544 19.1251 0.555161 19.1646 0.484835 19.2349C0.414509 19.3053 0.375 19.4007 0.375 19.5001V23.6251C0.375 23.7246 0.414509 23.82 0.484835 23.8903C0.555161 23.9606 0.650544 24.0001 0.75 24.0001H6.75C6.81172 24.0001 6.87249 23.9849 6.92692 23.9558C6.98134 23.9267 7.02774 23.8846 7.062 23.8332L7.70062 22.8751H16.2994L16.9369 23.8332C16.9712 23.8847 17.0178 23.9269 17.0725 23.9561C17.1271 23.9852 17.1881 24.0003 17.25 24.0001H23.25C23.3495 24.0001 23.4448 23.9606 23.5152 23.8903C23.5855 23.82 23.625 23.7246 23.625 23.6251V19.5001C23.625 19.4007 23.5855 19.3053 23.5152 19.2349C23.4448 19.1646 23.3495 19.1251 23.25 19.1251C22.8522 19.1251 22.4706 18.9671 22.1893 18.6858C21.908 18.4045 21.75 18.0229 21.75 17.6251C21.75 17.2273 21.908 16.8458 22.1893 16.5645C22.4706 16.2831 22.8522 16.1251 23.25 16.1251C23.3495 16.1251 23.4448 16.0856 23.5152 16.0153C23.5855 15.945 23.625 15.8496 23.625 15.7501V8.2501C23.625 8.15065 23.5855 8.05526 23.5152 7.98494C23.4448 7.91461 23.3495 7.8751 23.25 7.8751C22.8522 7.8751 22.4706 7.71707 22.1893 7.43576C21.908 7.15446 21.75 6.77292 21.75 6.3751C21.75 5.97727 21.908 5.59574 22.1893 5.31444C22.4706 5.03313 22.8522 4.8751 23.25 4.8751Z" fill="#E6ECFF"/>
<path d="M12 6.75009C11.9005 6.75009 11.8052 6.71058 11.7348 6.64026C11.6645 6.56993 11.625 6.47455 11.625 6.37509V5.25009C11.625 5.15064 11.6645 5.05525 11.7348 4.98493C11.8052 4.9146 11.9005 4.87509 12 4.87509C12.0995 4.87509 12.1948 4.9146 12.2652 4.98493C12.3355 5.05525 12.375 5.15064 12.375 5.25009V6.37509C12.375 6.47455 12.3355 6.56993 12.2652 6.64026C12.1948 6.71058 12.0995 6.75009 12 6.75009Z" fill="#376CFB"/>
<path d="M13.5 6.75009C13.4005 6.75009 13.3052 6.71058 13.2348 6.64026C13.1645 6.56993 13.125 6.47455 13.125 6.37509V5.25009C13.125 5.15064 13.1645 5.05525 13.2348 4.98493C13.3052 4.9146 13.4005 4.87509 13.5 4.87509C13.5995 4.87509 13.6948 4.9146 13.7652 4.98493C13.8355 5.05525 13.875 5.15064 13.875 5.25009V6.37509C13.875 6.47455 13.8355 6.56993 13.7652 6.64026C13.6948 6.71058 13.5995 6.75009 13.5 6.75009Z" fill="#376CFB"/>
<path d="M15 6.75009C14.9005 6.75009 14.8052 6.71058 14.7348 6.64026C14.6645 6.56993 14.625 6.47455 14.625 6.37509V5.25009C14.625 5.15064 14.6645 5.05525 14.7348 4.98493C14.8052 4.9146 14.9005 4.87509 15 4.87509C15.0995 4.87509 15.1948 4.9146 15.2652 4.98493C15.3355 5.05525 15.375 5.15064 15.375 5.25009V6.37509C15.375 6.47455 15.3355 6.56993 15.2652 6.64026C15.1948 6.71058 15.0995 6.75009 15 6.75009Z" fill="#376CFB"/>
<path d="M16.5 6.75009C16.4005 6.75009 16.3052 6.71058 16.2348 6.64026C16.1645 6.56993 16.125 6.47455 16.125 6.37509V5.25009C16.125 5.15064 16.1645 5.05525 16.2348 4.98493C16.3052 4.9146 16.4005 4.87509 16.5 4.87509C16.5995 4.87509 16.6948 4.9146 16.7652 4.98493C16.8355 5.05525 16.875 5.15064 16.875 5.25009V6.37509C16.875 6.47455 16.8355 6.56993 16.7652 6.64026C16.6948 6.71058 16.5995 6.75009 16.5 6.75009Z" fill="#376CFB"/>
<path d="M7.5 6.75009C7.40054 6.75009 7.30516 6.71058 7.23483 6.64026C7.16451 6.56993 7.125 6.47455 7.125 6.37509V5.25009C7.125 5.15064 7.16451 5.05525 7.23483 4.98493C7.30516 4.9146 7.40054 4.87509 7.5 4.87509C7.59946 4.87509 7.69484 4.9146 7.76517 4.98493C7.83549 5.05525 7.875 5.15064 7.875 5.25009V6.37509C7.875 6.47455 7.83549 6.56993 7.76517 6.64026C7.69484 6.71058 7.59946 6.75009 7.5 6.75009Z" fill="#376CFB"/>
<path d="M9 6.75009C8.90054 6.75009 8.80516 6.71058 8.73483 6.64026C8.66451 6.56993 8.625 6.47455 8.625 6.37509V5.25009C8.625 5.15064 8.66451 5.05525 8.73483 4.98493C8.80516 4.9146 8.90054 4.87509 9 4.87509C9.09946 4.87509 9.19484 4.9146 9.26517 4.98493C9.33549 5.05525 9.375 5.15064 9.375 5.25009V6.37509C9.375 6.47455 9.33549 6.56993 9.26517 6.64026C9.19484 6.71058 9.09946 6.75009 9 6.75009Z" fill="#376CFB"/>
<path d="M10.5 6.75009C10.4005 6.75009 10.3052 6.71058 10.2348 6.64026C10.1645 6.56993 10.125 6.47455 10.125 6.37509V5.25009C10.125 5.15064 10.1645 5.05525 10.2348 4.98493C10.3052 4.9146 10.4005 4.87509 10.5 4.87509C10.5995 4.87509 10.6948 4.9146 10.7652 4.98493C10.8355 5.05525 10.875 5.15064 10.875 5.25009V6.37509C10.875 6.47455 10.8355 6.56993 10.7652 6.64026C10.6948 6.71058 10.5995 6.75009 10.5 6.75009Z" fill="#376CFB"/>
<path d="M12 19.1251C11.9005 19.1251 11.8052 19.0856 11.7348 19.0153C11.6645 18.9449 11.625 18.8495 11.625 18.7501V17.6251C11.625 17.5256 11.6645 17.4303 11.7348 17.3599C11.8052 17.2896 11.9005 17.2501 12 17.2501C12.0995 17.2501 12.1948 17.2896 12.2652 17.3599C12.3355 17.4303 12.375 17.5256 12.375 17.6251V18.7501C12.375 18.8495 12.3355 18.9449 12.2652 19.0153C12.1948 19.0856 12.0995 19.1251 12 19.1251Z" fill="#376CFB"/>
<path d="M13.5 19.1251C13.4005 19.1251 13.3052 19.0856 13.2348 19.0153C13.1645 18.9449 13.125 18.8495 13.125 18.7501V17.6251C13.125 17.5256 13.1645 17.4303 13.2348 17.3599C13.3052 17.2896 13.4005 17.2501 13.5 17.2501C13.5995 17.2501 13.6948 17.2896 13.7652 17.3599C13.8355 17.4303 13.875 17.5256 13.875 17.6251V18.7501C13.875 18.8495 13.8355 18.9449 13.7652 19.0153C13.6948 19.0856 13.5995 19.1251 13.5 19.1251Z" fill="#376CFB"/>
<path d="M15 19.1251C14.9005 19.1251 14.8052 19.0856 14.7348 19.0153C14.6645 18.9449 14.625 18.8495 14.625 18.7501V17.6251C14.625 17.5256 14.6645 17.4303 14.7348 17.3599C14.8052 17.2896 14.9005 17.2501 15 17.2501C15.0995 17.2501 15.1948 17.2896 15.2652 17.3599C15.3355 17.4303 15.375 17.5256 15.375 17.6251V18.7501C15.375 18.8495 15.3355 18.9449 15.2652 19.0153C15.1948 19.0856 15.0995 19.1251 15 19.1251Z" fill="#376CFB"/>
<path d="M16.5 19.1251C16.4005 19.1251 16.3052 19.0856 16.2348 19.0153C16.1645 18.9449 16.125 18.8495 16.125 18.7501V17.6251C16.125 17.5256 16.1645 17.4303 16.2348 17.3599C16.3052 17.2896 16.4005 17.2501 16.5 17.2501C16.5995 17.2501 16.6948 17.2896 16.7652 17.3599C16.8355 17.4303 16.875 17.5256 16.875 17.6251V18.7501C16.875 18.8495 16.8355 18.9449 16.7652 19.0153C16.6948 19.0856 16.5995 19.1251 16.5 19.1251Z" fill="#376CFB"/>
<path d="M7.5 19.1251C7.40054 19.1251 7.30516 19.0856 7.23483 19.0153C7.16451 18.9449 7.125 18.8495 7.125 18.7501V17.6251C7.125 17.5256 7.16451 17.4303 7.23483 17.3599C7.30516 17.2896 7.40054 17.2501 7.5 17.2501C7.59946 17.2501 7.69484 17.2896 7.76517 17.3599C7.83549 17.4303 7.875 17.5256 7.875 17.6251V18.7501C7.875 18.8495 7.83549 18.9449 7.76517 19.0153C7.69484 19.0856 7.59946 19.1251 7.5 19.1251Z" fill="#376CFB"/>
<path d="M9 19.1251C8.90054 19.1251 8.80516 19.0856 8.73483 19.0153C8.66451 18.9449 8.625 18.8495 8.625 18.7501V17.6251C8.625 17.5256 8.66451 17.4303 8.73483 17.3599C8.80516 17.2896 8.90054 17.2501 9 17.2501C9.09946 17.2501 9.19484 17.2896 9.26517 17.3599C9.33549 17.4303 9.375 17.5256 9.375 17.6251V18.7501C9.375 18.8495 9.33549 18.9449 9.26517 19.0153C9.19484 19.0856 9.09946 19.1251 9 19.1251Z" fill="#376CFB"/>
<path d="M10.5 19.1251C10.4005 19.1251 10.3052 19.0856 10.2348 19.0153C10.1645 18.9449 10.125 18.8495 10.125 18.7501V17.6251C10.125 17.5256 10.1645 17.4303 10.2348 17.3599C10.3052 17.2896 10.4005 17.2501 10.5 17.2501C10.5995 17.2501 10.6948 17.2896 10.7652 17.3599C10.8355 17.4303 10.875 17.5256 10.875 17.6251V18.7501C10.875 18.8495 10.8355 18.9449 10.7652 19.0153C10.6948 19.0856 10.5995 19.1251 10.5 19.1251Z" fill="#376CFB"/>
<path d="M18.75 12.3751H17.625C17.5255 12.3751 17.4302 12.3356 17.3598 12.2653C17.2895 12.1949 17.25 12.0995 17.25 12.0001C17.25 11.9006 17.2895 11.8053 17.3598 11.7349C17.4302 11.6646 17.5255 11.6251 17.625 11.6251H18.75C18.8495 11.6251 18.9448 11.6646 19.0152 11.7349C19.0855 11.8053 19.125 11.9006 19.125 12.0001C19.125 12.0995 19.0855 12.1949 19.0152 12.2653C18.9448 12.3356 18.8495 12.3751 18.75 12.3751Z" fill="#376CFB"/>
<path d="M18.75 13.8751H17.625C17.5255 13.8751 17.4302 13.8356 17.3598 13.7653C17.2895 13.6949 17.25 13.5995 17.25 13.5001C17.25 13.4006 17.2895 13.3053 17.3598 13.2349C17.4302 13.1646 17.5255 13.1251 17.625 13.1251H18.75C18.8495 13.1251 18.9448 13.1646 19.0152 13.2349C19.0855 13.3053 19.125 13.4006 19.125 13.5001C19.125 13.5995 19.0855 13.6949 19.0152 13.7653C18.9448 13.8356 18.8495 13.8751 18.75 13.8751Z" fill="#376CFB"/>
<path d="M18.75 15.3751H17.625C17.5255 15.3751 17.4302 15.3356 17.3598 15.2653C17.2895 15.1949 17.25 15.0995 17.25 15.0001C17.25 14.9006 17.2895 14.8053 17.3598 14.7349C17.4302 14.6646 17.5255 14.6251 17.625 14.6251H18.75C18.8495 14.6251 18.9448 14.6646 19.0152 14.7349C19.0855 14.8053 19.125 14.9006 19.125 15.0001C19.125 15.0995 19.0855 15.1949 19.0152 15.2653C18.9448 15.3356 18.8495 15.3751 18.75 15.3751Z" fill="#376CFB"/>
<path d="M18.75 16.8751H17.625C17.5255 16.8751 17.4302 16.8356 17.3598 16.7653C17.2895 16.6949 17.25 16.5995 17.25 16.5001C17.25 16.4006 17.2895 16.3053 17.3598 16.2349C17.4302 16.1646 17.5255 16.1251 17.625 16.1251H18.75C18.8495 16.1251 18.9448 16.1646 19.0152 16.2349C19.0855 16.3053 19.125 16.4006 19.125 16.5001C19.125 16.5995 19.0855 16.6949 19.0152 16.7653C18.9448 16.8356 18.8495 16.8751 18.75 16.8751Z" fill="#376CFB"/>
<path d="M18.75 7.87509H17.625C17.5255 7.87509 17.4302 7.83558 17.3598 7.76526C17.2895 7.69493 17.25 7.59955 17.25 7.50009C17.25 7.40064 17.2895 7.30525 17.3598 7.23493C17.4302 7.1646 17.5255 7.12509 17.625 7.12509H18.75C18.8495 7.12509 18.9448 7.1646 19.0152 7.23493C19.0855 7.30525 19.125 7.40064 19.125 7.50009C19.125 7.59955 19.0855 7.69493 19.0152 7.76526C18.9448 7.83558 18.8495 7.87509 18.75 7.87509Z" fill="#376CFB"/>
<path d="M18.75 9.37509H17.625C17.5255 9.37509 17.4302 9.33558 17.3598 9.26526C17.2895 9.19493 17.25 9.09955 17.25 9.00009C17.25 8.90064 17.2895 8.80525 17.3598 8.73493C17.4302 8.6646 17.5255 8.62509 17.625 8.62509H18.75C18.8495 8.62509 18.9448 8.6646 19.0152 8.73493C19.0855 8.80525 19.125 8.90064 19.125 9.00009C19.125 9.09955 19.0855 9.19493 19.0152 9.26526C18.9448 9.33558 18.8495 9.37509 18.75 9.37509Z" fill="#376CFB"/>
<path d="M18.75 10.8751H17.625C17.5255 10.8751 17.4302 10.8356 17.3598 10.7653C17.2895 10.6949 17.25 10.5995 17.25 10.5001C17.25 10.4006 17.2895 10.3053 17.3598 10.2349C17.4302 10.1646 17.5255 10.1251 17.625 10.1251H18.75C18.8495 10.1251 18.9448 10.1646 19.0152 10.2349C19.0855 10.3053 19.125 10.4006 19.125 10.5001C19.125 10.5995 19.0855 10.6949 19.0152 10.7653C18.9448 10.8356 18.8495 10.8751 18.75 10.8751Z" fill="#376CFB"/>
<path d="M6.375 12.3751H5.25C5.15054 12.3751 5.05516 12.3356 4.98484 12.2653C4.91451 12.1949 4.875 12.0995 4.875 12.0001C4.875 11.9006 4.91451 11.8053 4.98484 11.7349C5.05516 11.6646 5.15054 11.6251 5.25 11.6251H6.375C6.47446 11.6251 6.56984 11.6646 6.64017 11.7349C6.71049 11.8053 6.75 11.9006 6.75 12.0001C6.75 12.0995 6.71049 12.1949 6.64017 12.2653C6.56984 12.3356 6.47446 12.3751 6.375 12.3751Z" fill="#376CFB"/>
<path d="M6.375 13.8751H5.25C5.15054 13.8751 5.05516 13.8356 4.98484 13.7653C4.91451 13.6949 4.875 13.5995 4.875 13.5001C4.875 13.4006 4.91451 13.3053 4.98484 13.2349C5.05516 13.1646 5.15054 13.1251 5.25 13.1251H6.375C6.47446 13.1251 6.56984 13.1646 6.64017 13.2349C6.71049 13.3053 6.75 13.4006 6.75 13.5001C6.75 13.5995 6.71049 13.6949 6.64017 13.7653C6.56984 13.8356 6.47446 13.8751 6.375 13.8751Z" fill="#376CFB"/>
<path d="M6.375 15.3751H5.25C5.15054 15.3751 5.05516 15.3356 4.98484 15.2653C4.91451 15.1949 4.875 15.0995 4.875 15.0001C4.875 14.9006 4.91451 14.8053 4.98484 14.7349C5.05516 14.6646 5.15054 14.6251 5.25 14.6251H6.375C6.47446 14.6251 6.56984 14.6646 6.64017 14.7349C6.71049 14.8053 6.75 14.9006 6.75 15.0001C6.75 15.0995 6.71049 15.1949 6.64017 15.2653C6.56984 15.3356 6.47446 15.3751 6.375 15.3751Z" fill="#376CFB"/>
<path d="M6.375 16.8751H5.25C5.15054 16.8751 5.05516 16.8356 4.98484 16.7653C4.91451 16.6949 4.875 16.5995 4.875 16.5001C4.875 16.4006 4.91451 16.3053 4.98484 16.2349C5.05516 16.1646 5.15054 16.1251 5.25 16.1251H6.375C6.47446 16.1251 6.56984 16.1646 6.64017 16.2349C6.71049 16.3053 6.75 16.4006 6.75 16.5001C6.75 16.5995 6.71049 16.6949 6.64017 16.7653C6.56984 16.8356 6.47446 16.8751 6.375 16.8751Z" fill="#376CFB"/>
<path d="M6.375 7.87509H5.25C5.15054 7.87509 5.05516 7.83558 4.98484 7.76526C4.91451 7.69493 4.875 7.59955 4.875 7.50009C4.875 7.40064 4.91451 7.30525 4.98484 7.23493C5.05516 7.1646 5.15054 7.12509 5.25 7.12509H6.375C6.47446 7.12509 6.56984 7.1646 6.64017 7.23493C6.71049 7.30525 6.75 7.40064 6.75 7.50009C6.75 7.59955 6.71049 7.69493 6.64017 7.76526C6.56984 7.83558 6.47446 7.87509 6.375 7.87509Z" fill="#376CFB"/>
<path d="M6.375 9.37509H5.25C5.15054 9.37509 5.05516 9.33558 4.98484 9.26526C4.91451 9.19493 4.875 9.09955 4.875 9.00009C4.875 8.90064 4.91451 8.80525 4.98484 8.73493C5.05516 8.6646 5.15054 8.62509 5.25 8.62509H6.375C6.47446 8.62509 6.56984 8.6646 6.64017 8.73493C6.71049 8.80525 6.75 8.90064 6.75 9.00009C6.75 9.09955 6.71049 9.19493 6.64017 9.26526C6.56984 9.33558 6.47446 9.37509 6.375 9.37509Z" fill="#376CFB"/>
<path d="M6.375 10.8751H5.25C5.15054 10.8751 5.05516 10.8356 4.98484 10.7653C4.91451 10.6949 4.875 10.5995 4.875 10.5001C4.875 10.4006 4.91451 10.3053 4.98484 10.2349C5.05516 10.1646 5.15054 10.1251 5.25 10.1251H6.375C6.47446 10.1251 6.56984 10.1646 6.64017 10.2349C6.71049 10.3053 6.75 10.4006 6.75 10.5001C6.75 10.5995 6.71049 10.6949 6.64017 10.7653C6.56984 10.8356 6.47446 10.8751 6.375 10.8751Z" fill="#376CFB"/>
<path d="M21.75 1.50009H19.5C19.2929 1.50009 19.125 1.66798 19.125 1.87509V3.37509C19.125 3.5822 19.2929 3.75009 19.5 3.75009H21.75C21.9571 3.75009 22.125 3.5822 22.125 3.37509V1.87509C22.125 1.66798 21.9571 1.50009 21.75 1.50009Z" fill="#4294FF"/>
<path d="M4.5 20.2501H2.25C2.04289 20.2501 1.875 20.418 1.875 20.6251V22.1251C1.875 22.3322 2.04289 22.5001 2.25 22.5001H4.5C4.70711 22.5001 4.875 22.3322 4.875 22.1251V20.6251C4.875 20.418 4.70711 20.2501 4.5 20.2501Z" fill="#4294FF"/>
<path d="M17.625 6.00009H6.375C6.16789 6.00009 6 6.16798 6 6.37509V17.6251C6 17.8322 6.16789 18.0001 6.375 18.0001H17.625C17.8321 18.0001 18 17.8322 18 17.6251V6.37509C18 6.16798 17.8321 6.00009 17.625 6.00009Z" fill="#4294FF"/>
<path d="M16.5 7.12509H13.5C13.2929 7.12509 13.125 7.29298 13.125 7.50009V9.00009C13.125 9.2072 13.2929 9.37509 13.5 9.37509H16.5C16.7071 9.37509 16.875 9.2072 16.875 9.00009V7.50009C16.875 7.29298 16.7071 7.12509 16.5 7.12509Z" fill="#376CFB"/>
<path d="M10.5 15.3751H7.5C7.40054 15.3751 7.30516 15.3356 7.23483 15.2653C7.16451 15.1949 7.125 15.0995 7.125 15.0001C7.125 14.9006 7.16451 14.8053 7.23483 14.7349C7.30516 14.6646 7.40054 14.6251 7.5 14.6251H10.5C10.5995 14.6251 10.6948 14.6646 10.7652 14.7349C10.8355 14.8053 10.875 14.9006 10.875 15.0001C10.875 15.0995 10.8355 15.1949 10.7652 15.2653C10.6948 15.3356 10.5995 15.3751 10.5 15.3751Z" fill="#376CFB"/>
<path d="M9.375 16.8751H7.5C7.40054 16.8751 7.30516 16.8356 7.23483 16.7653C7.16451 16.6949 7.125 16.5995 7.125 16.5001C7.125 16.4006 7.16451 16.3053 7.23483 16.2349C7.30516 16.1646 7.40054 16.1251 7.5 16.1251H9.375C9.47446 16.1251 9.56984 16.1646 9.64017 16.2349C9.71049 16.3053 9.75 16.4006 9.75 16.5001C9.75 16.5995 9.71049 16.6949 9.64017 16.7653C9.56984 16.8356 9.47446 16.8751 9.375 16.8751Z" fill="#376CFB"/>
</g>
<defs>
<clipPath id="clip0_10948_9261">
<rect width="24" height="24" fill="white"/>
</clipPath>
</defs>
</svg>
