<?xml version="1.0" encoding="utf-8"?>
<!-- Generator: Adobe Illustrator 26.0.3, SVG Export Plug-In . SVG Version: 6.00 Build 0)  -->
<svg version="1.1" id="Warstwa_2" xmlns="http://www.w3.org/2000/svg" xmlns:xlink="http://www.w3.org/1999/xlink" x="0px" y="0px"
	 viewBox="0 0 200 172" style="enable-background:new 0 0 200 172;" xml:space="preserve">
<style type="text/css">
	.st0{fill:url(#SVGID_1_);}
	.st1{opacity:0.2;}
	.st2{fill:none;stroke:#000000;stroke-miterlimit:10;}
	.st3{opacity:0.6;}
	.st4{fill:url(#SVGID_00000090992643407932510140000001616260195683945656_);}
	.st5{fill:url(#SVGID_00000147186104743429070510000016502210735432692665_);}
	.st6{fill:url(#SVGID_00000005258457773413110050000000744806940622541973_);}
	.st7{fill:url(#SVGID_00000101102851412013346080000003247420823732762266_);}
	.st8{fill:url(#SVGID_00000147926970372880206870000015718133054031618956_);}
	.st9{fill:url(#SVGID_00000070102713065082852690000007007306677760686738_);}
	.st10{fill:url(#SVGID_00000182521803069365347670000011577022866231003300_);}
	.st11{fill:url(#SVGID_00000046304822264168663220000013408107478069041792_);}
	.st12{fill:url(#SVGID_00000077292134983883177490000003282920167735075770_);}
	.st13{fill:url(#SVGID_00000131351626079720769750000010746455278407464892_);}
	.st14{fill:url(#SVGID_00000171681539114820246060000004265080461311964603_);}
	.st15{fill:url(#SVGID_00000051385889054140450060000005471913191429528720_);}
	.st16{fill:url(#SVGID_00000047760829594722266320000005718240626895599801_);}
	.st17{fill:url(#SVGID_00000108297402372941730920000009967300228460332952_);}
	.st18{fill:url(#SVGID_00000037656338002656950040000015358945239494789300_);}
	.st19{fill:url(#SVGID_00000034085530081947584990000003582425056029240767_);}
	.st20{fill:url(#SVGID_00000173125281938334182680000006269371575526055846_);}
	.st21{fill:url(#SVGID_00000129903188432877039980000008639011708522750649_);}
	.st22{fill:url(#SVGID_00000166663706094730960330000004204461518560183734_);}
	.st23{fill:url(#SVGID_00000027575067888075055200000018312806587431705241_);}
	.st24{fill:url(#SVGID_00000101808214596461350210000003379699851832829601_);}
	.st25{fill:url(#SVGID_00000065767953365324849280000018156577658642516918_);}
	.st26{fill:#373E9B;}
	.st27{fill:url(#SVGID_00000052817748135288046120000002659143860265776002_);}
	.st28{opacity:0.1;}
	.st29{fill:none;stroke:#FFFFFF;stroke-linecap:round;stroke-miterlimit:10;}
	.st30{opacity:0.5;fill:url(#SVGID_00000078747722008061345650000014223700166465929122_);}
	.st31{fill:url(#SVGID_00000045585138298523474230000002444050787563032720_);}
	.st32{opacity:0.3;fill:url(#SVGID_00000148661963062935753390000002903623285920619915_);}
	.st33{opacity:0.2;fill:url(#SVGID_00000105416204814126862630000010204194610717267623_);enable-background:new    ;}
	.st34{opacity:0.2;fill:url(#SVGID_00000107571065564919447040000002364731337213125770_);enable-background:new    ;}
	.st35{opacity:0.2;fill:url(#SVGID_00000132794589800612373440000013652698841594330251_);enable-background:new    ;}
	.st36{opacity:0.2;fill:url(#SVGID_00000000203889748306441670000006528682825919814020_);enable-background:new    ;}
	.st37{opacity:0.2;fill:url(#SVGID_00000133517681308476268900000012019734487838185655_);enable-background:new    ;}
	.st38{opacity:0.2;fill:url(#SVGID_00000067231163344335580840000016783227651498267271_);enable-background:new    ;}
	.st39{opacity:0.2;fill:url(#SVGID_00000163061169293595689490000010061281119212340873_);enable-background:new    ;}
	.st40{opacity:0.2;fill:url(#SVGID_00000042726394254716632540000012464982604881356697_);enable-background:new    ;}
	.st41{opacity:0.2;fill:url(#SVGID_00000021805447959139317470000013746520876845158295_);enable-background:new    ;}
	.st42{opacity:0.2;fill:url(#SVGID_00000047018775789069181290000000335792431064240262_);enable-background:new    ;}
	.st43{opacity:0.2;fill:url(#SVGID_00000028324303955459023330000012599040526600025485_);enable-background:new    ;}
	.st44{opacity:0.2;fill:url(#SVGID_00000017508024043536168880000015610284764752339609_);enable-background:new    ;}
	.st45{opacity:0.2;fill:url(#SVGID_00000104692483087002476750000007393545676997712029_);enable-background:new    ;}
	.st46{opacity:0.3;}
	.st47{opacity:0.2;fill:#FFFFFF;enable-background:new    ;}
	.st48{fill:url(#SVGID_00000011737992460944243420000016480613603115789711_);}
	.st49{opacity:0.1;fill:#FFFFFF;}
	.st50{fill:url(#SVGID_00000105391375971350613980000010785284818419221653_);}
	.st51{fill:url(#SVGID_00000065781339418765130650000010408012343692351395_);}
	.st52{fill:url(#SVGID_00000126307700675786551350000014514699319056259746_);}
	.st53{opacity:0.15;}
	.st54{fill:url(#SVGID_00000066516410240974950360000011187259534452786599_);}
</style>
<g>
	
		<linearGradient id="SVGID_1_" gradientUnits="userSpaceOnUse" x1="93.2565" y1="161.1807" x2="93.2565" y2="13.3588" gradientTransform="matrix(1 3.228630e-03 -3.228630e-03 1 -2.6845 10.809)">
		<stop  offset="0" style="stop-color:#1D7EE8"/>
		<stop  offset="1" style="stop-color:#2EA7DB"/>
	</linearGradient>
	<path class="st0" d="M9.9,110l-9.8,44.8L0,172h180l0.3-62.2c0.2-49-41.2-88.4-91-85.1C44.6,27.6,10,65.2,9.9,110z"/>
	<polygon class="st1" points="177,121 159,121 159,89 136,89 136,107 130,107 130,75 111,75 111,108 101,108 101,83 84,83 84,96 
		75,96 75,56 60,56 60,96 54,96 54,75 42,75 42,106 25,106 25,96 13,96 0.1,149.7 0.1,172 177,172 	"/>
	<rect x="0" y="155" class="st1" width="200" height="17"/>
	<path class="st2" d="M36.2,110.6"/>
	<g>
		<g>
			<g class="st3">
				<g>
					
						<linearGradient id="SVGID_00000179610196348801304380000002094716062417421472_" gradientUnits="userSpaceOnUse" x1="-1869.0852" y1="114.0747" x2="-1816.7794" y2="114.0747" gradientTransform="matrix(-1 0 0 1 -1743.1227 0)">
						<stop  offset="0" style="stop-color:#4C3EA1"/>
						<stop  offset="1" style="stop-color:#2E3192"/>
					</linearGradient>
					<path style="fill:url(#SVGID_00000179610196348801304380000002094716062417421472_);" d="M125.5,140.7c-0.1,0-0.3,0-0.4-0.1
						L73.8,88.3c-0.2-0.2-0.2-0.5,0-0.7c0.2-0.2,0.5-0.2,0.7,0l51.3,52.3c0.2,0.2,0.2,0.5,0,0.7
						C125.7,140.7,125.6,140.7,125.5,140.7z"/>
					
						<linearGradient id="SVGID_00000014634496531332758270000008394247570455711901_" gradientUnits="userSpaceOnUse" x1="-1861.2406" y1="114.7111" x2="-1816.1682" y2="114.7111" gradientTransform="matrix(-1 0 0 1 -1743.1227 0)">
						<stop  offset="0" style="stop-color:#4C3EA1"/>
						<stop  offset="1" style="stop-color:#2E3192"/>
					</linearGradient>
					<path style="fill:url(#SVGID_00000014634496531332758270000008394247570455711901_);" d="M117.6,140.3c-0.1,0-0.3-0.1-0.4-0.2
						L73.2,90c-0.2-0.2-0.2-0.5,0-0.7c0.2-0.2,0.5-0.2,0.7,0l44.1,50.1c0.2,0.2,0.2,0.5,0,0.7C117.9,140.2,117.7,140.3,117.6,140.3z
						"/>
					
						<linearGradient id="SVGID_00000047758192144647341360000010857812469063220867_" gradientUnits="userSpaceOnUse" x1="-1852.8728" y1="115.4474" x2="-1815.8165" y2="115.4474" gradientTransform="matrix(-1 0 0 1 -1743.1227 0)">
						<stop  offset="0" style="stop-color:#4C3EA1"/>
						<stop  offset="1" style="stop-color:#2E3192"/>
					</linearGradient>
					<path style="fill:url(#SVGID_00000047758192144647341360000010857812469063220867_);" d="M109.2,139.6c-0.2,0-0.3-0.1-0.4-0.2
						L72.8,92.1c-0.2-0.2-0.1-0.5,0.1-0.7c0.2-0.2,0.5-0.1,0.7,0.1l36.1,47.3c0.2,0.2,0.1,0.5-0.1,0.7
						C109.5,139.6,109.4,139.6,109.2,139.6z"/>
					
						<linearGradient id="SVGID_00000114067051080372110870000005380976458909381804_" gradientUnits="userSpaceOnUse" x1="-1846.057" y1="116.4292" x2="-1815.5093" y2="116.4292" gradientTransform="matrix(-1 0 0 1 -1743.1227 0)">
						<stop  offset="0" style="stop-color:#4C3EA1"/>
						<stop  offset="1" style="stop-color:#2E3192"/>
					</linearGradient>
					<path style="fill:url(#SVGID_00000114067051080372110870000005380976458909381804_);" d="M102.4,139.6c-0.2,0-0.3-0.1-0.4-0.2
						L72.5,94c-0.2-0.2-0.1-0.5,0.1-0.7c0.2-0.1,0.5-0.1,0.7,0.1l29.5,45.4c0.2,0.2,0.1,0.5-0.1,0.7
						C102.6,139.6,102.5,139.6,102.4,139.6z"/>
					
						<linearGradient id="SVGID_00000036247828172487397980000007544901433881313451_" gradientUnits="userSpaceOnUse" x1="-1838.7273" y1="117.2868" x2="-1815.048" y2="117.2868" gradientTransform="matrix(-1 0 0 1 -1743.1227 0)">
						<stop  offset="0" style="stop-color:#4C3EA1"/>
						<stop  offset="1" style="stop-color:#2E3192"/>
					</linearGradient>
					<path style="fill:url(#SVGID_00000036247828172487397980000007544901433881313451_);" d="M95.1,138.9c-0.2,0-0.4-0.1-0.4-0.3
						L72,96.4c-0.1-0.2,0-0.5,0.2-0.7c0.2-0.1,0.5,0,0.7,0.2l22.7,42.3c0.1,0.2,0,0.5-0.2,0.7C95.3,138.9,95.2,138.9,95.1,138.9z"/>
					
						<linearGradient id="SVGID_00000119800912398283423050000006582987895097789604_" gradientUnits="userSpaceOnUse" x1="-1831.7561" y1="118.3284" x2="-1814.1406" y2="118.3284" gradientTransform="matrix(-1 0 0 1 -1743.1227 0)">
						<stop  offset="0" style="stop-color:#4C3EA1"/>
						<stop  offset="1" style="stop-color:#2E3192"/>
					</linearGradient>
					<path style="fill:url(#SVGID_00000119800912398283423050000006582987895097789604_);" d="M88.1,138.6c-0.2,0-0.4-0.1-0.5-0.3
						L71.1,98.8c-0.1-0.3,0-0.5,0.3-0.7c0.3-0.1,0.5,0,0.7,0.3l16.6,39.5c0.1,0.3,0,0.5-0.3,0.7C88.3,138.6,88.2,138.6,88.1,138.6z"
						/>
					
						<linearGradient id="SVGID_00000111911800552264891550000012314924546634571437_" gradientUnits="userSpaceOnUse" x1="-1824.6312" y1="119.6353" x2="-1813.4121" y2="119.6353" gradientTransform="matrix(-1 0 0 1 -1743.1227 0)">
						<stop  offset="0" style="stop-color:#4C3EA1"/>
						<stop  offset="1" style="stop-color:#2E3192"/>
					</linearGradient>
					<path style="fill:url(#SVGID_00000111911800552264891550000012314924546634571437_);" d="M81,138.6c-0.2,0-0.4-0.1-0.5-0.4
						l-10.2-36.9c-0.1-0.3,0.1-0.5,0.3-0.6c0.3-0.1,0.5,0.1,0.6,0.3l10.2,36.9c0.1,0.3-0.1,0.5-0.3,0.6
						C81.1,138.6,81.1,138.6,81,138.6z"/>
				</g>
				<g>
					
						<linearGradient id="SVGID_00000033368977091400494820000008522473805503141507_" gradientUnits="userSpaceOnUse" x1="14.2832" y1="114.0747" x2="66.5889" y2="114.0747">
						<stop  offset="0" style="stop-color:#4C3EA1"/>
						<stop  offset="1" style="stop-color:#2E3192"/>
					</linearGradient>
					<path style="fill:url(#SVGID_00000033368977091400494820000008522473805503141507_);" d="M14.8,140.7c-0.1,0-0.3,0-0.4-0.1
						c-0.2-0.2-0.2-0.5,0-0.7l51.3-52.3c0.2-0.2,0.5-0.2,0.7,0c0.2,0.2,0.2,0.5,0,0.7l-51.3,52.3C15,140.7,14.9,140.7,14.8,140.7z"
						/>
					
						<linearGradient id="SVGID_00000078022355444810837430000004029772174887096713_" gradientUnits="userSpaceOnUse" x1="22.128" y1="114.7111" x2="67.2001" y2="114.7111">
						<stop  offset="0" style="stop-color:#4C3EA1"/>
						<stop  offset="1" style="stop-color:#2E3192"/>
					</linearGradient>
					<path style="fill:url(#SVGID_00000078022355444810837430000004029772174887096713_);" d="M22.6,140.3c-0.1,0-0.2,0-0.3-0.1
						c-0.2-0.2-0.2-0.5,0-0.7l44.1-50.1c0.2-0.2,0.5-0.2,0.7,0c0.2,0.2,0.2,0.5,0,0.7L23,140.1C22.9,140.2,22.8,140.3,22.6,140.3z"
						/>
					
						<linearGradient id="SVGID_00000163031766315821648690000016108024211171445423_" gradientUnits="userSpaceOnUse" x1="30.4956" y1="115.4474" x2="67.5517" y2="115.4474">
						<stop  offset="0" style="stop-color:#4C3EA1"/>
						<stop  offset="1" style="stop-color:#2E3192"/>
					</linearGradient>
					<path style="fill:url(#SVGID_00000163031766315821648690000016108024211171445423_);" d="M31,139.6c-0.1,0-0.2,0-0.3-0.1
						c-0.2-0.2-0.3-0.5-0.1-0.7l36.1-47.3c0.2-0.2,0.5-0.3,0.7-0.1c0.2,0.2,0.3,0.5,0.1,0.7l-36.1,47.3
						C31.3,139.5,31.1,139.6,31,139.6z"/>
					
						<linearGradient id="SVGID_00000120548420522644414390000008968686636807664038_" gradientUnits="userSpaceOnUse" x1="37.3114" y1="116.4289" x2="67.8595" y2="116.4289">
						<stop  offset="0" style="stop-color:#4C3EA1"/>
						<stop  offset="1" style="stop-color:#2E3192"/>
					</linearGradient>
					<path style="fill:url(#SVGID_00000120548420522644414390000008968686636807664038_);" d="M37.8,139.6c-0.1,0-0.2,0-0.3-0.1
						c-0.2-0.2-0.3-0.5-0.1-0.7l29.5-45.4c0.1-0.2,0.5-0.3,0.7-0.1c0.2,0.2,0.3,0.5,0.1,0.7l-29.5,45.4
						C38.1,139.5,38,139.6,37.8,139.6z"/>
					
						<linearGradient id="SVGID_00000018215148815174748940000007973196587122935943_" gradientUnits="userSpaceOnUse" x1="44.4774" y1="117.3959" x2="68.3205" y2="117.3959">
						<stop  offset="0" style="stop-color:#4C3EA1"/>
						<stop  offset="1" style="stop-color:#2E3192"/>
					</linearGradient>
					<path style="fill:url(#SVGID_00000018215148815174748940000007973196587122935943_);" d="M45,139.2c-0.1,0-0.2,0-0.2-0.1
						c-0.2-0.1-0.3-0.4-0.2-0.7l22.8-42.5c0.1-0.2,0.4-0.3,0.7-0.2c0.2,0.1,0.3,0.4,0.2,0.7l-22.8,42.5
						C45.3,139.1,45.2,139.2,45,139.2z"/>
					
						<linearGradient id="SVGID_00000150811380803964839080000015976394001688005820_" gradientUnits="userSpaceOnUse" x1="51.6122" y1="118.3284" x2="69.2276" y2="118.3284">
						<stop  offset="0" style="stop-color:#4C3EA1"/>
						<stop  offset="1" style="stop-color:#2E3192"/>
					</linearGradient>
					<path style="fill:url(#SVGID_00000150811380803964839080000015976394001688005820_);" d="M52.1,138.6c-0.1,0-0.1,0-0.2,0
						c-0.3-0.1-0.4-0.4-0.3-0.7l16.6-39.5c0.1-0.3,0.4-0.4,0.7-0.3c0.3,0.1,0.4,0.4,0.3,0.7l-16.6,39.5
						C52.5,138.5,52.3,138.6,52.1,138.6z"/>
					
						<linearGradient id="SVGID_00000028311636165091800250000017187605143366582955_" gradientUnits="userSpaceOnUse" x1="58.7376" y1="119.6353" x2="69.9567" y2="119.6353">
						<stop  offset="0" style="stop-color:#4C3EA1"/>
						<stop  offset="1" style="stop-color:#2E3192"/>
					</linearGradient>
					<path style="fill:url(#SVGID_00000028311636165091800250000017187605143366582955_);" d="M59.2,138.6c0,0-0.1,0-0.1,0
						c-0.3-0.1-0.4-0.3-0.3-0.6L69,101.1c0.1-0.3,0.4-0.4,0.6-0.3c0.3,0.1,0.4,0.3,0.3,0.6l-10.2,36.9
						C59.7,138.4,59.5,138.6,59.2,138.6z"/>
				</g>
			</g>
		</g>
		
			<linearGradient id="SVGID_00000083809952016892662140000006120654268813675650_" gradientUnits="userSpaceOnUse" x1="70.2611" y1="146" x2="70.2611" y2="138">
			<stop  offset="0" style="stop-color:#2E3192"/>
			<stop  offset="1" style="stop-color:#2F0B81"/>
		</linearGradient>
		<path style="fill:url(#SVGID_00000083809952016892662140000006120654268813675650_);" d="M129.3,143.7c-6.6-0.5-14.1-1-22.4-1.3
			V140c8.2,0.3,15.8,0.8,22.4,1.3v-1.1c-15.5-1.3-36.2-2.2-58.8-2.2c-23,0-43.8,1-59.3,2.3v1.1c7.2-0.6,15.6-1.1,24.7-1.4v2.4
			c-9.2,0.4-17.5,0.8-24.7,1.4v2.2c15.6-1.3,36.5-2.1,59.4-2.1c22.6,0,43.2,0.8,58.7,2V143.7z M44.2,142.1c-2.5,0.1-5,0.2-7.5,0.2
			v-2.4c2.4-0.1,4.9-0.2,7.5-0.2V142.1z M52,141.9c-2.5,0.1-5,0.1-7.5,0.2v-2.4c2.4-0.1,4.9-0.1,7.5-0.2V141.9z M59.5,142h-7.2v-2.4
			h7.2V142z M67.5,142h-7.2v-2.4h7.2V142z M75.5,142h-7.2v-2.4c1,0,7.2,0,7.2,0V142z M83.5,142h-7.2v-2.4h7.2L83.5,142z M91.1,142
			h-7.2l0-2.4h7.2V142z M99.1,142.1c-2.4-0.1-4.9-0.1-7.5-0.2v-2.4c2.5,0.1,5,0.1,7.5,0.2V142.1z M107,142.4
			c-2.4-0.1-4.9-0.2-7.5-0.3v-2.4c2.5,0.1,5,0.2,7.5,0.3V142.4z"/>
		<g>
			<g>
				
					<linearGradient id="SVGID_00000145039042281376071370000002781109343878398132_" gradientUnits="userSpaceOnUse" x1="70" y1="152" x2="70" y2="79">
					<stop  offset="0" style="stop-color:#2E3192"/>
					<stop  offset="1" style="stop-color:#2F0B81"/>
				</linearGradient>
				<rect x="69" y="79" style="fill:url(#SVGID_00000145039042281376071370000002781109343878398132_);" width="2" height="73"/>
			</g>
			
				<linearGradient id="SVGID_00000083054563798847645590000017141367141248715690_" gradientUnits="userSpaceOnUse" x1="5395.5854" y1="-4789.2212" x2="5395.5854" y2="-4797.2212" gradientTransform="matrix(4.489700e-11 -1 1 4.489700e-11 4863.2212 5489.5854)">
				<stop  offset="0" style="stop-color:#2E3192"/>
				<stop  offset="1" style="stop-color:#2F0B81"/>
			</linearGradient>
			<polygon style="fill:url(#SVGID_00000083054563798847645590000017141367141248715690_);" points="74,87 72.8,101 67.2,101 66,87 
							"/>
			
				<linearGradient id="SVGID_00000068677453505753356810000004322777023932798906_" gradientUnits="userSpaceOnUse" x1="4787.0063" y1="-4789.2212" x2="4787.0063" y2="-4797.2212" gradientTransform="matrix(4.489700e-11 1 1 -4.489700e-11 4863.2212 -4636.5063)">
				<stop  offset="0" style="stop-color:#2E3192"/>
				<stop  offset="1" style="stop-color:#2F0B81"/>
			</linearGradient>
			<polygon style="fill:url(#SVGID_00000068677453505753356810000004322777023932798906_);" points="74,155 72.8,146 67.2,146 
				66,155 			"/>
		</g>
	</g>
	<g>
		
			<linearGradient id="SVGID_00000165946600367908833380000013025843326332283572_" gradientUnits="userSpaceOnUse" x1="133.5" y1="46.1824" x2="133.5" y2="41.2783">
			<stop  offset="0" style="stop-color:#4C3EA1"/>
			<stop  offset="1" style="stop-color:#2E3192"/>
		</linearGradient>
		<path style="fill:url(#SVGID_00000165946600367908833380000013025843326332283572_);" d="M138,45.3h-9v-2.6c0,0,1.6-0.5,4.6-0.4
			c3,0,4.4,0.4,4.4,0.4V45.3z"/>
		
			<linearGradient id="SVGID_00000131336534180144057670000008418650301230264244_" gradientUnits="userSpaceOnUse" x1="133.5108" y1="45.5708" x2="133.4894" y2="55.4923">
			<stop  offset="0" style="stop-color:#2E59BF"/>
			<stop  offset="1" style="stop-color:#593192"/>
		</linearGradient>
		<path style="fill:url(#SVGID_00000131336534180144057670000008418650301230264244_);" d="M142,46.1C142,46.1,142,46.1,142,46.1
			c0-0.6-3.8-1-8.5-1c-4.7,0-8.5,0.5-8.5,1c0,0,0,0,0,0h0V55h17L142,46.1L142,46.1z"/>
		
			<linearGradient id="SVGID_00000008841995293850535820000018392190504075586432_" gradientUnits="userSpaceOnUse" x1="133.5573" y1="53.8574" x2="133.5472" y2="58.4954">
			<stop  offset="0" style="stop-color:#593192"/>
			<stop  offset="1" style="stop-color:#2E59BF"/>
		</linearGradient>
		<path style="fill:url(#SVGID_00000008841995293850535820000018392190504075586432_);" d="M142.1,54.7c0-0.6-3.8-1-8.5-1
			c-4.7,0-8.5,0.5-8.5,1c0,0.4,2.1,0.6,4.9,0.8v2.8h7v-2.8C139.9,55.3,142.1,55.1,142.1,54.7z"/>
		
			<linearGradient id="SVGID_00000036950960858601729940000016734341774244202385_" gradientUnits="userSpaceOnUse" x1="133.5115" y1="57.8776" x2="133.4885" y2="68.5228">
			<stop  offset="0" style="stop-color:#2E59BF"/>
			<stop  offset="1" style="stop-color:#593192"/>
		</linearGradient>
		<path style="fill:url(#SVGID_00000036950960858601729940000016734341774244202385_);" d="M140,58.4C140,58.4,140,58.4,140,58.4
			c0-0.6-2.9-1-6.5-1c-3.6,0-6.5,0.5-6.5,1c0,0,0,0,0,0h0V68h13L140,58.4L140,58.4z"/>
		<path class="st26" d="M140,68.1c0-0.6-3-1.1-6.4-1.1c-3.4,0-6.6,0.5-6.6,1.1c0,0.3,1.3,0.6,2.9,0.8L128,155h11l-1.8-86
			C138.5,68.8,140,68.4,140,68.1z"/>
		
			<linearGradient id="SVGID_00000168795921518125773450000016547993040891694250_" gradientUnits="userSpaceOnUse" x1="133.564" y1="43.0491" x2="133.564" y2="40.7181">
			<stop  offset="0" style="stop-color:#4C3EA1"/>
			<stop  offset="1" style="stop-color:#2E3192"/>
		</linearGradient>
		<path style="fill:url(#SVGID_00000168795921518125773450000016547993040891694250_);" d="M137.9,41.1c-0.1,0-0.2,0.1-0.2,0.2v0.6
			c-0.2,0-0.4-0.1-0.8-0.2v-0.5c0-0.1-0.1-0.2-0.2-0.2c-0.1,0-0.2,0.1-0.2,0.2v0.5c-0.2,0-0.4-0.1-0.6-0.1v-0.5
			c0-0.1-0.1-0.2-0.2-0.2c-0.1,0-0.2,0.1-0.2,0.2v0.5c-0.2,0-0.4,0-0.6,0V41c0-0.1-0.1-0.2-0.2-0.2c-0.1,0-0.2,0.1-0.2,0.2v0.5
			c-0.2,0-0.4,0-0.6,0c0,0,0,0,0,0v-0.6c0-0.1-0.1-0.2-0.2-0.2s-0.2,0.1-0.2,0.2v0.6c-0.2,0-0.4,0-0.6,0V41c0-0.1-0.1-0.2-0.2-0.2
			c-0.1,0-0.2,0.1-0.2,0.2v0.5c-0.2,0-0.4,0-0.6,0v-0.5c0-0.1-0.1-0.2-0.2-0.2c-0.1,0-0.2,0.1-0.2,0.2v0.5c-0.2,0-0.5,0.1-0.6,0.1
			v-0.5c0-0.1-0.1-0.2-0.2-0.2c-0.1,0-0.2,0.1-0.2,0.2v0.5c-0.4,0.1-0.7,0.1-0.9,0.2v-0.6c0-0.1-0.1-0.2-0.2-0.2s-0.2,0.1-0.2,0.2
			v1.5c0,0.1,0,0.1,0.1,0.2c0,0,0.1,0,0.1,0c0,0,0,0,0.1,0c0,0,1.6-0.5,4.5-0.5c0,0,0.1,0,0.1,0c2.8,0,4.1,0.5,4.1,0.5
			c0.1,0,0.1,0,0.2,0c0.1,0,0.1-0.1,0.1-0.2v-1.5C138.1,41.2,138.1,41.1,137.9,41.1z M136.5,41.9v0.4c-0.2,0-0.4-0.1-0.6-0.1v-0.4
			C136.1,41.8,136.3,41.9,136.5,41.9z M135.5,41.8v0.4c-0.2,0-0.4,0-0.6,0v-0.4C135.1,41.7,135.3,41.8,135.5,41.8z M133.4,41.7v0.4
			c-0.2,0-0.4,0-0.6,0v-0.4C132.9,41.7,133.2,41.7,133.4,41.7z M132.3,41.8v0.4c-0.2,0-0.4,0-0.6,0v-0.4
			C131.9,41.8,132.1,41.8,132.3,41.8z M131.3,41.8v0.4c-0.2,0-0.4,0.1-0.6,0.1v-0.4C130.8,41.9,131.1,41.9,131.3,41.8z M129.4,42.2
			c0.2,0,0.5-0.1,0.9-0.2v0.4c-0.4,0.1-0.7,0.1-0.9,0.2V42.2z M133.8,42.1v-0.4c0.2,0,0.4,0,0.6,0v0.4
			C134.2,42.1,134,42.1,133.8,42.1z M136.9,42.4V42c0.4,0.1,0.7,0.1,0.8,0.2v0.4C137.6,42.5,137.3,42.5,136.9,42.4z"/>
		<g class="st28">
			<path class="st29" d="M142.1,48.7c0-0.6-3.8-1-8.6-1c-4.7,0-8.6,0.5-8.6,1"/>
			<path class="st29" d="M142.1,51.4c0-0.6-3.8-1-8.6-1c-4.7,0-8.6,0.5-8.6,1"/>
			<path class="st29" d="M139.7,60.5c0-0.6-2.8-1-6.2-1c-3.4,0-6.2,0.5-6.2,1"/>
			<path class="st29" d="M139.7,63c0-0.6-2.8-1-6.2-1c-3.4,0-6.2,0.5-6.2,1"/>
			<path class="st29" d="M139.7,65.5c0-0.6-2.8-1-6.2-1c-3.4,0-6.2,0.5-6.2,1"/>
			<path class="st29" d="M139.7,68.1c0-0.6-2.8-1-6.2-1c-3.4,0-6.2,0.5-6.2,1"/>
		</g>
		
			<linearGradient id="SVGID_00000082333250408906620330000016228739686811594423_" gradientUnits="userSpaceOnUse" x1="132.093" y1="33.5511" x2="135.0541" y2="33.5511">
			<stop  offset="0" style="stop-color:#4C3EA1"/>
			<stop  offset="1" style="stop-color:#2E3192"/>
		</linearGradient>
		<path style="opacity:0.5;fill:url(#SVGID_00000082333250408906620330000016228739686811594423_);" d="M135.1,33.4
			C135.1,33.4,135,33.4,135.1,33.4l-1.2-0.9l1.2-0.8c0,0,0-0.1,0-0.1c0,0,0-0.1,0-0.1l-1.2-1l1.2-1c0,0,0-0.1,0-0.1c0,0,0-0.1,0-0.1
			l-1.2-0.9l1.2-0.9c0,0,0-0.1,0-0.1c0,0,0-0.1-0.1-0.1l-1.2-0.7l1.2-0.7c0,0,0,0,0.1-0.1c0,0,0,0,0,0c0,0,0,0,0,0
			c0-0.1-0.1-0.2-0.2-0.2h-1.1v-0.8c0-0.1-0.1-0.1-0.1-0.1h-0.1c-0.1,0-0.1,0.1-0.1,0.1v0.8h-1.1c-0.1,0-0.2,0.1-0.2,0.2
			c0,0,0,0,0,0c0,0,0,0,0,0c0,0,0,0.1,0.1,0.1l0,0c0,0,0,0,0,0l1.1,0.7l-1.2,0.7c0,0-0.1,0.1-0.1,0.1c0,0,0,0.1,0,0.1l1.2,0.9
			l-1.2,0.9c0,0,0,0.1,0,0.1s0,0.1,0,0.1l1.2,1l-1.2,1c0,0,0,0.1,0,0.1c0,0,0,0.1,0,0.1l1.2,0.8l-1.2,0.9c0,0,0,0.1,0,0.1
			c0,0,0,0.1,0,0.1l1.2,1l-1.2,1c0,0,0,0.1,0,0.1c0,0,0,0.1,0,0.1l1.2,1.1l-1.2,1.1c0,0,0,0.1,0,0.1c0,0,0,0.1,0,0.1l1.2,1l-1.2,1
			c0,0,0,0.1,0,0.1c0,0,0,0.1,0,0.1l1.2,0.9l-1.2,0.9c0,0,0,0,0,0.1c0,0,0,0.1,0,0.1l0,0c0,0,0.1,0,0.1,0c0,0,0,0,0.1,0l1-0.8v0.9
			c0,0.1,0.1,0.1,0.1,0.1h0.1c0.1,0,0.1-0.1,0.1-0.1v-1l1.1,0.9c0,0,0,0,0.1,0c0,0,0.1,0,0.1,0l0,0c0,0,0-0.1,0-0.1c0,0,0-0.1,0-0.1
			l-1.2-0.9l1.2-0.9c0,0,0-0.1,0-0.1c0,0,0-0.1,0-0.1l-1.2-1l1.2-1c0,0,0-0.1,0-0.1c0,0,0-0.1,0-0.1l-1.2-1.1l1.2-1.1
			c0,0,0-0.1,0-0.1c0,0,0-0.1,0-0.1l-1.2-1L135.1,33.4C135,33.5,135.1,33.5,135.1,33.4z M133.7,32.2v-1.4l0.9,0.8L133.7,32.2z
			 M133.7,30.2v-1.5l0.9,0.7L133.7,30.2z M133.7,28.1v-1.3l0.9,0.6L133.7,28.1z M134.4,25.9l-0.6,0.4v-0.4H134.4z M133.4,26.3
			l-0.6-0.4h0.6V26.3z M133.4,26.9v1.2l-0.9-0.7L133.4,26.9z M133.4,28.7v1.4l-0.9-0.7L133.4,28.7z M133.4,30.8v1.4l-0.9-0.6
			L133.4,30.8z M133.4,32.8v1.4l-0.9-0.7L133.4,32.8z M133.4,34.8v1.5l-0.9-0.8L133.4,34.8z M133.4,37.1v1.6l-0.9-0.8L133.4,37.1z
			 M133.4,39.3v1.5l-0.9-0.7L133.4,39.3z M133.7,40.8v-1.5l0.9,0.8L133.7,40.8z M133.7,38.7v-1.6l0.9,0.8L133.7,38.7z M133.7,36.4
			v-1.6l0.9,0.8L133.7,36.4z M133.7,34.2v-1.4l0.9,0.7L133.7,34.2z"/>
	</g>
	<g>
		
			<linearGradient id="SVGID_00000034779393826882449830000001671503891164168125_" gradientUnits="userSpaceOnUse" x1="6.794056e-02" y1="111.5138" x2="32" y2="111.5138">
			<stop  offset="0" style="stop-color:#2E59BF"/>
			<stop  offset="1" style="stop-color:#593192"/>
		</linearGradient>
		<path style="fill:url(#SVGID_00000034779393826882449830000001671503891164168125_);" d="M0.1,165H32V63.9c0,0-2.3-6.1-16-5.9
			s-16,5.9-16,5.9V165z"/>
		<g>
			<g>
				
					<linearGradient id="SVGID_00000066516625234487967840000008686511123417524112_" gradientUnits="userSpaceOnUse" x1="3514.2517" y1="62.6568" x2="3546.2205" y2="62.6568" gradientTransform="matrix(-1 0 0 1 3546.2205 0)">
					<stop  offset="0" style="stop-color:#2E60E8"/>
					<stop  offset="1" style="stop-color:#2E74DB"/>
				</linearGradient>
				<path style="opacity:0.3;fill:url(#SVGID_00000066516625234487967840000008686511123417524112_);" d="M0,67.3
					c0,0,3.9-4.7,16-4.8c11.5-0.1,16,4.8,16,4.8v-3.4c0,0-2.3-6.1-16-5.9S0,63.9,0,63.9L0,67.3z"/>
				
					<linearGradient id="SVGID_00000160164560793013211020000010410054722203063730_" gradientUnits="userSpaceOnUse" x1="3514.2517" y1="69.9584" x2="3546.2205" y2="69.9584" gradientTransform="matrix(-1 0 0 1 3546.2205 0)">
					<stop  offset="0" style="stop-color:#2E60E8"/>
					<stop  offset="1" style="stop-color:#2E74DB"/>
				</linearGradient>
				
					<path style="opacity:0.2;fill:url(#SVGID_00000160164560793013211020000010410054722203063730_);enable-background:new    ;" d="
					M0,74.4c0,0,3.9-4.7,16-4.8c11.5-0.1,16,4.8,16,4.8V71c0,0-2.3-5.7-16-5.4C2.3,65.8,0,71,0,71L0,74.4z"/>
				
					<linearGradient id="SVGID_00000083793406328523594990000008267478225571693974_" gradientUnits="userSpaceOnUse" x1="3514.2517" y1="77.0635" x2="3546.2205" y2="77.0635" gradientTransform="matrix(-1 0 0 1 3546.2205 0)">
					<stop  offset="0" style="stop-color:#2E60E8"/>
					<stop  offset="1" style="stop-color:#2E74DB"/>
				</linearGradient>
				
					<path style="opacity:0.2;fill:url(#SVGID_00000083793406328523594990000008267478225571693974_);enable-background:new    ;" d="
					M0,81.2c0,0,3.9-4,16-4.2c11.5-0.1,16,4.2,16,4.2v-3.4c0,0-2.3-5-16-4.8C2.3,73.2,0,77.8,0,77.8L0,81.2z"/>
				
					<linearGradient id="SVGID_00000051350560356890064390000007616212456410380217_" gradientUnits="userSpaceOnUse" x1="3514.2517" y1="84.1688" x2="3546.2205" y2="84.1688" gradientTransform="matrix(-1 0 0 1 3546.2205 0)">
					<stop  offset="0" style="stop-color:#2E60E8"/>
					<stop  offset="1" style="stop-color:#2E74DB"/>
				</linearGradient>
				
					<path style="opacity:0.2;fill:url(#SVGID_00000051350560356890064390000007616212456410380217_);enable-background:new    ;" d="
					M0,88.1c0,0,3.9-3.6,16-3.7c11.5-0.1,16,3.7,16,3.7v-3.4c0,0-2.3-4.7-16-4.5C2.3,80.5,0,84.7,0,84.7L0,88.1z"/>
				
					<linearGradient id="SVGID_00000053532605136415760370000005541194478400014513_" gradientUnits="userSpaceOnUse" x1="3514.2517" y1="91.3562" x2="3546.2205" y2="91.3562" gradientTransform="matrix(-1 0 0 1 3546.2205 0)">
					<stop  offset="0" style="stop-color:#2E60E8"/>
					<stop  offset="1" style="stop-color:#2E74DB"/>
				</linearGradient>
				
					<path style="opacity:0.2;fill:url(#SVGID_00000053532605136415760370000005541194478400014513_);enable-background:new    ;" d="
					M0,95.2c0,0,3.9-3.9,16-4c11.5-0.1,16,4,16,4v-3.4c0,0-2.1-4.3-16-4.3c-13.7,0-16,4.3-16,4.3L0,95.2z"/>
				
					<linearGradient id="SVGID_00000095311862331888638320000009256421723595377048_" gradientUnits="userSpaceOnUse" x1="3514.2517" y1="98.2835" x2="3546.2205" y2="98.2835" gradientTransform="matrix(-1 0 0 1 3546.2205 0)">
					<stop  offset="0" style="stop-color:#2E60E8"/>
					<stop  offset="1" style="stop-color:#2E74DB"/>
				</linearGradient>
				
					<path style="opacity:0.2;fill:url(#SVGID_00000095311862331888638320000009256421723595377048_);enable-background:new    ;" d="
					M0,102.2c0,0,3.9-3.6,16-3.7c11.5-0.1,16,3.7,16,3.7v-3.4c0,0-2.8-4.3-16-4.3c-13.7,0-16,4.3-16,4.3L0,102.2z"/>
				
					<linearGradient id="SVGID_00000037655785087007451370000007263049759445100434_" gradientUnits="userSpaceOnUse" x1="3514.2517" y1="105.5672" x2="3546.2205" y2="105.5672" gradientTransform="matrix(-1 0 0 1 3546.2205 0)">
					<stop  offset="0" style="stop-color:#2E60E8"/>
					<stop  offset="1" style="stop-color:#2E74DB"/>
				</linearGradient>
				
					<path style="opacity:0.2;fill:url(#SVGID_00000037655785087007451370000007263049759445100434_);enable-background:new    ;" d="
					M0,109.3c0,0,3.9-3.6,16-3.7c11.5-0.1,16,3.7,16,3.7v-3.4c0,0-2.8-4-16-4c-13.7,0-16,4-16,4L0,109.3z"/>
				
					<linearGradient id="SVGID_00000096770676855062704760000016999443529224258957_" gradientUnits="userSpaceOnUse" x1="3514.2517" y1="112.6365" x2="3546.2205" y2="112.6365" gradientTransform="matrix(-1 0 0 1 3546.2205 0)">
					<stop  offset="0" style="stop-color:#2E60E8"/>
					<stop  offset="1" style="stop-color:#2E74DB"/>
				</linearGradient>
				
					<path style="opacity:0.2;fill:url(#SVGID_00000096770676855062704760000016999443529224258957_);enable-background:new    ;" d="
					M0,116c0,0,3.9-2.5,16-2.6c11.5-0.1,16,2.6,16,2.6v-3.4c0,0-2.8-3.4-16-3.4c-13.7,0-16,3.4-16,3.4L0,116z"/>
				
					<linearGradient id="SVGID_00000011712646044077184600000014270568506013662622_" gradientUnits="userSpaceOnUse" x1="3514.2517" y1="119.8608" x2="3546.2205" y2="119.8608" gradientTransform="matrix(-1 0 0 1 3546.2205 0)">
					<stop  offset="0" style="stop-color:#2E60E8"/>
					<stop  offset="1" style="stop-color:#2E74DB"/>
				</linearGradient>
				
					<path style="opacity:0.2;fill:url(#SVGID_00000011712646044077184600000014270568506013662622_);enable-background:new    ;" d="
					M0,123.1c0,0,3.9-2.3,16-2.5c11.5-0.1,16,2.5,16,2.5v-3.4c0,0-2.8-3.1-16-3.1c-13.7,0-16,3.1-16,3.1L0,123.1z"/>
				
					<linearGradient id="SVGID_00000034061682233518694470000000832603204430059444_" gradientUnits="userSpaceOnUse" x1="3514.2517" y1="126.9185" x2="3546.2205" y2="126.9185" gradientTransform="matrix(-1 0 0 1 3546.2205 0)">
					<stop  offset="0" style="stop-color:#2E60E8"/>
					<stop  offset="1" style="stop-color:#2E74DB"/>
				</linearGradient>
				
					<path style="opacity:0.2;fill:url(#SVGID_00000034061682233518694470000000832603204430059444_);enable-background:new    ;" d="
					M0,130.1c0,0,3.9-1.9,16-2c11.5-0.1,16,2,16,2v-3.4c0,0-2.8-2.9-16-2.9c-13.7,0-16,2.9-16,2.9L0,130.1z"/>
				
					<linearGradient id="SVGID_00000066476497641925651970000007195026938781259196_" gradientUnits="userSpaceOnUse" x1="3514.2517" y1="134.4448" x2="3546.2205" y2="134.4448" gradientTransform="matrix(-1 0 0 1 3546.2205 0)">
					<stop  offset="0" style="stop-color:#2E60E8"/>
					<stop  offset="1" style="stop-color:#2E74DB"/>
				</linearGradient>
				
					<path style="opacity:0.2;fill:url(#SVGID_00000066476497641925651970000007195026938781259196_);enable-background:new    ;" d="
					M0,137.5c0,0,3.9-1.9,16-2c11.5-0.1,16,2,16,2v-3.4c0,0-2.8-2.8-16-2.8c-13.7,0-16,2.8-16,2.8L0,137.5z"/>
				
					<linearGradient id="SVGID_00000103964487546577844950000006397644468040550026_" gradientUnits="userSpaceOnUse" x1="3514.2517" y1="142.1807" x2="3546.2205" y2="142.1807" gradientTransform="matrix(-1 0 0 1 3546.2205 0)">
					<stop  offset="0" style="stop-color:#2E60E8"/>
					<stop  offset="1" style="stop-color:#2E74DB"/>
				</linearGradient>
				
					<path style="opacity:0.2;fill:url(#SVGID_00000103964487546577844950000006397644468040550026_);enable-background:new    ;" d="
					M0,145.1c0,0,3.9-1.6,16-1.7c11.5-0.1,16,1.7,16,1.7v-3.4c0,0-2.8-2.5-16-2.5c-13.7,0-16,2.5-16,2.5L0,145.1z"/>
				
					<linearGradient id="SVGID_00000128447705191688170640000006667215730839827643_" gradientUnits="userSpaceOnUse" x1="3514.2517" y1="149.4545" x2="3546.2205" y2="149.4545" gradientTransform="matrix(-1 0 0 1 3546.2205 0)">
					<stop  offset="0" style="stop-color:#2E60E8"/>
					<stop  offset="1" style="stop-color:#2E74DB"/>
				</linearGradient>
				
					<path style="opacity:0.2;fill:url(#SVGID_00000128447705191688170640000006667215730839827643_);enable-background:new    ;" d="
					M0,152.2c0,0,3.9-1.2,16-1.4c11.5-0.1,16,1.4,16,1.4v-3.4c0,0-2.8-2.2-16-2.2c-13.7,0-16,2.2-16,2.2L0,152.2z"/>
				
					<linearGradient id="SVGID_00000050649814832209884720000007861156355947921564_" gradientUnits="userSpaceOnUse" x1="3514.2517" y1="156.5419" x2="3546.2205" y2="156.5419" gradientTransform="matrix(-1 0 0 1 3546.2205 0)">
					<stop  offset="0" style="stop-color:#2E60E8"/>
					<stop  offset="1" style="stop-color:#2E74DB"/>
				</linearGradient>
				
					<path style="opacity:0.2;fill:url(#SVGID_00000050649814832209884720000007861156355947921564_);enable-background:new    ;" d="
					M0,159.1c0,0,3.9-1.1,16-1.2c11.5-0.1,16,1.2,16,1.2v-3.6c0,0-2.8-1.5-16-1.5c-13.7,0-16,1.5-16,1.5L0,159.1z"/>
			</g>
		</g>
		<g class="st3">
			<path class="st46" d="M0.1,67.3c0,0,3.9-4.7,16-4.8c11.5-0.1,16,4.8,16,4.8v-3.4c0,0-2.3-6.1-16-5.9s-16,5.9-16,5.9V67.3z"/>
			<path class="st47" d="M0.1,74.4c0,0,3.9-4.7,16-4.8c11.5-0.1,16,4.8,16,4.8V71c0,0-2.3-5.7-16-5.4C2.4,65.8,0.1,71,0.1,71V74.4z"
				/>
			<path class="st47" d="M0.1,81.2c0,0,3.9-4,16-4.2c11.5-0.1,16,4.2,16,4.2v-3.4c0,0-2.3-5-16-4.8c-13.7,0.2-16,4.8-16,4.8V81.2z"
				/>
			<path class="st47" d="M0.1,88.1c0,0,3.9-3.6,16-3.7c11.5-0.1,16,3.7,16,3.7v-3.4c0,0-2.3-4.7-16-4.5c-13.7,0.2-16,4.5-16,4.5
				V88.1z"/>
			<path class="st47" d="M0.1,95.2c0,0,3.9-3.9,16-4c11.5-0.1,16,4,16,4v-3.4c0,0-2.1-4.3-16-4.3c-13.7,0-16,4.3-16,4.3V95.2z"/>
			<path class="st47" d="M0.1,102.2c0,0,3.9-3.6,16-3.7c11.5-0.1,16,3.7,16,3.7v-3.4c0,0-2.8-4.3-16-4.3c-13.7,0-16,4.3-16,4.3
				V102.2z"/>
			<path class="st47" d="M0.1,109.3c0,0,3.9-3.6,16-3.7c11.5-0.1,16,3.7,16,3.7v-3.4c0,0-2.8-4-16-4c-13.7,0-16,4-16,4V109.3z"/>
			<path class="st47" d="M0.1,116c0,0,3.9-2.5,16-2.6c11.5-0.1,16,2.6,16,2.6v-3.4c0,0-2.8-3.4-16-3.4c-13.7,0-16,3.4-16,3.4V116z"
				/>
			<path class="st47" d="M0.1,123.1c0,0,3.9-2.3,16-2.5c11.5-0.1,16,2.5,16,2.5v-3.4c0,0-2.8-3.1-16-3.1c-13.7,0-16,3.1-16,3.1
				V123.1z"/>
			<path class="st47" d="M0.1,130.1c0,0,3.9-1.9,16-2c11.5-0.1,16,2,16,2v-3.4c0,0-2.8-2.9-16-2.9c-13.7,0-16,2.9-16,2.9V130.1z"/>
			<path class="st47" d="M0.1,137.5c0,0,3.9-1.9,16-2c11.5-0.1,16,2,16,2v-3.4c0,0-2.8-2.8-16-2.8c-13.7,0-16,2.8-16,2.8V137.5z"/>
			<path class="st47" d="M0.1,145.1c0,0,3.9-1.6,16-1.7c11.5-0.1,16,1.7,16,1.7v-3.4c0,0-2.8-2.5-16-2.5c-13.7,0-16,2.5-16,2.5
				V145.1z"/>
			<path class="st47" d="M0.1,152.2c0,0,3.9-1.2,16-1.4c11.5-0.1,16,1.4,16,1.4v-3.4c0,0-2.8-2.2-16-2.2c-13.7,0-16,2.2-16,2.2
				V152.2z"/>
			<path class="st47" d="M0.1,159.1c0,0,3.9-1.1,16-1.2c11.5-0.1,16,1.2,16,1.2v-3.6c0,0-2.8-1.5-16-1.5c-13.7,0-16,1.5-16,1.5
				V159.1z"/>
		</g>
	</g>
	<g>
		<g>
			<polygon class="st26" points="57,115 57,172 60,172 60,117.7 			"/>
			
				<linearGradient id="SVGID_00000118369136467210206230000016145167418531056792_" gradientUnits="userSpaceOnUse" x1="21" y1="143.5" x2="57" y2="143.5">
				<stop  offset="0" style="stop-color:#2E60E8"/>
				<stop  offset="1" style="stop-color:#2E74DB"/>
			</linearGradient>
			<rect x="21" y="115" style="fill:url(#SVGID_00000118369136467210206230000016145167418531056792_);" width="36" height="57"/>
			<rect x="21" y="115" class="st1" width="36" height="3"/>
		</g>
		<rect x="26" y="122" class="st49" width="7" height="3"/>
		<rect x="36" y="122" class="st49" width="7" height="3"/>
		<rect x="46" y="122" class="st49" width="7" height="3"/>
		<rect x="26" y="127" class="st49" width="7" height="3"/>
		<rect x="36" y="127" class="st49" width="7" height="3"/>
		<rect x="46" y="127" class="st49" width="7" height="3"/>
		<rect x="26" y="132" class="st49" width="7" height="3"/>
		<rect x="36" y="132" class="st49" width="7" height="3"/>
		<rect x="46" y="132" class="st49" width="7" height="3"/>
		<rect x="26" y="137" class="st49" width="7" height="3"/>
		<rect x="36" y="137" class="st49" width="7" height="3"/>
		<rect x="46" y="137" class="st49" width="7" height="3"/>
		<rect x="26" y="142" class="st49" width="7" height="3"/>
		<rect x="36" y="142" class="st49" width="7" height="3"/>
		<rect x="46" y="142" class="st49" width="7" height="3"/>
		<rect x="26" y="147" class="st49" width="7" height="3"/>
		<rect x="36" y="147" class="st49" width="7" height="3"/>
		<rect x="46" y="147" class="st49" width="7" height="3"/>
		<rect x="26" y="152" class="st49" width="7" height="3"/>
		<rect x="36" y="152" class="st49" width="7" height="3"/>
		<rect x="46" y="152" class="st49" width="7" height="3"/>
		<rect x="26" y="157" class="st49" width="7" height="3"/>
		<rect x="36" y="157" class="st49" width="7" height="3"/>
		<rect x="46" y="157" class="st49" width="7" height="3"/>
		<rect x="26" y="162" class="st49" width="7" height="3"/>
		<rect x="36" y="162" class="st49" width="7" height="3"/>
		<rect x="46" y="162" class="st49" width="7" height="3"/>
	</g>
	<g>
		
			<linearGradient id="SVGID_00000060021432203548091690000005632970839447466909_" gradientUnits="userSpaceOnUse" x1="4610.502" y1="144.5" x2="4550.8862" y2="144.5" gradientTransform="matrix(1 0 0 1 -4430.7715 0)">
			<stop  offset="0" style="stop-color:#2E59BF"/>
			<stop  offset="1" style="stop-color:#593192"/>
		</linearGradient>
		<rect x="134" y="124" style="fill:url(#SVGID_00000060021432203548091690000005632970839447466909_);" width="42" height="41"/>
		<rect x="134" y="124" class="st46" width="42" height="4"/>
		<g>
			<rect x="138" y="132" transform="matrix(-1 -3.880508e-11 3.880508e-11 -1 291 267)" class="st49" width="15" height="3"/>
			<rect x="138" y="138" transform="matrix(-1 -3.880508e-11 3.880508e-11 -1 291 279)" class="st49" width="15" height="3"/>
			<rect x="138" y="144" transform="matrix(-1 -3.880508e-11 3.880508e-11 -1 291 291)" class="st49" width="15" height="3"/>
			<rect x="138" y="150" transform="matrix(-1 -3.880508e-11 3.880508e-11 -1 291 303)" class="st49" width="15" height="3"/>
			<rect x="138" y="156" transform="matrix(-1 -3.868384e-11 3.868384e-11 -1 291 315)" class="st49" width="15" height="3"/>
		</g>
		<g>
			<rect x="157" y="132" transform="matrix(-1 -3.880508e-11 3.880508e-11 -1 329 267)" class="st49" width="15" height="3"/>
			<rect x="157" y="138" transform="matrix(-1 -3.880508e-11 3.880508e-11 -1 329 279)" class="st49" width="15" height="3"/>
			<rect x="157" y="144" transform="matrix(-1 -3.880508e-11 3.880508e-11 -1 329 291)" class="st49" width="15" height="3"/>
			<rect x="157" y="150" transform="matrix(-1 -3.880508e-11 3.880508e-11 -1 329 303)" class="st49" width="15" height="3"/>
			<rect x="157" y="156" transform="matrix(-1 -3.868384e-11 3.868384e-11 -1 329 315)" class="st49" width="15" height="3"/>
		</g>
	</g>
	<g>
		<rect x="187" y="67" transform="matrix(-1 -8.276414e-11 8.276414e-11 -1 375 139)" class="st46" width="1" height="5"/>
		<polygon class="st46" points="175,52 175,67 174,67 174,72 176,72 176,67 176,52 		"/>
		<g>
			<g>
				
					<linearGradient id="SVGID_00000083052439685135882190000000629852944081379772_" gradientUnits="userSpaceOnUse" x1="8887.085" y1="121.5" x2="8917.085" y2="121.5" gradientTransform="matrix(-1 0 0 1 9083.085 0)">
					<stop  offset="0.4442" style="stop-color:#2E60E8"/>
					<stop  offset="0.7549" style="stop-color:#2E62E7"/>
					<stop  offset="0.9039" style="stop-color:#2E6AE2"/>
					<stop  offset="1" style="stop-color:#2E74DB"/>
				</linearGradient>
				<polygon style="fill:url(#SVGID_00000083052439685135882190000000629852944081379772_);" points="166,71 196,71 196,172 
					166,172 				"/>
				<rect x="166" y="71" transform="matrix(-1 -4.656643e-11 4.656643e-11 -1 362 146)" class="st46" width="30" height="4"/>
			</g>
			
				<linearGradient id="SVGID_00000086668737145908949290000015859532200378760599_" gradientUnits="userSpaceOnUse" x1="8883.085" y1="121.5" x2="8887.085" y2="121.5" gradientTransform="matrix(-1 0 0 1 9083.085 0)">
				<stop  offset="0" style="stop-color:#2E59BF"/>
				<stop  offset="1" style="stop-color:#593192"/>
			</linearGradient>
			<polygon style="fill:url(#SVGID_00000086668737145908949290000015859532200378760599_);" points="200,75.4 200,172 196,172 
				196,71 			"/>
			<polygon class="st53" points="200,75.4 200,172 196,172 196,71 			"/>
		</g>
		<g>
			<rect x="170" y="90" class="st49" width="22" height="3"/>
			<rect x="170" y="96" class="st49" width="22" height="3"/>
			<rect x="170" y="102" class="st49" width="22" height="3"/>
			<rect x="170" y="78" class="st49" width="22" height="3"/>
			<rect x="170" y="84" class="st49" width="22" height="3"/>
			<rect x="170" y="120" class="st49" width="22" height="3"/>
			<rect x="170" y="126" class="st49" width="22" height="3"/>
			<rect x="170" y="132" class="st49" width="22" height="3"/>
			<rect x="170" y="108" class="st49" width="22" height="3"/>
			<rect x="170" y="114" class="st49" width="22" height="3"/>
			<rect x="170" y="150" class="st49" width="22" height="3"/>
			<rect x="170" y="156" class="st49" width="22" height="3"/>
			<rect x="170" y="162" class="st49" width="22" height="3"/>
			<rect x="170" y="138" class="st49" width="22" height="3"/>
			<rect x="170" y="144" class="st49" width="22" height="3"/>
		</g>
	</g>
	<polygon class="st46" points="96.5,69.4 96.5,55.5 97.5,55.5 97.5,69.4 98,69.4 98,73.8 96,73.8 96,69.4 	"/>
	<polygon class="st46" points="106.5,69.4 106.5,59.5 107.5,59.5 107.5,69.4 108,69.4 108,73.8 106,73.8 106,69.4 	"/>
	
		<linearGradient id="SVGID_00000162324830717099577930000007209175405242239380_" gradientUnits="userSpaceOnUse" x1="83" y1="123" x2="120" y2="123">
		<stop  offset="0" style="stop-color:#451088"/>
		<stop  offset="1" style="stop-color:#593179"/>
	</linearGradient>
	<polygon style="fill:url(#SVGID_00000162324830717099577930000007209175405242239380_);" points="88,83 83.1,83 83,172 120,172 
		120,83 115,83 115,74 88,74 	"/>
	<rect x="88" y="74" class="st46" width="27" height="9"/>
	<g>
		<polygon class="st49" points="86,172 86,83 83,83 83,172 		"/>
		<rect x="45" y="126" transform="matrix(-6.407503e-12 1 -1 -6.407503e-12 217 38)" class="st49" width="89" height="3"/>
		<rect x="50" y="126" transform="matrix(-6.387075e-12 1 -1 -6.387075e-12 222 33)" class="st49" width="89" height="3"/>
		<rect x="55" y="126" transform="matrix(-6.407503e-12 1 -1 -6.407503e-12 227 28)" class="st49" width="89" height="3"/>
		<rect x="60" y="126" transform="matrix(-6.418161e-12 1 -1 -6.418161e-12 232 23)" class="st49" width="89" height="3"/>
		<rect x="65" y="126" transform="matrix(-6.418161e-12 1 -1 -6.418161e-12 237 18)" class="st49" width="89" height="3"/>
		<rect x="70" y="126" transform="matrix(-6.418161e-12 1 -1 -6.418161e-12 242 13)" class="st49" width="89" height="3"/>
		<rect x="74.5" y="126.5" transform="matrix(-4.271434e-12 1 -1 -4.271434e-12 246.5 8.5)" class="st49" width="89" height="2"/>
	</g>
</g>
</svg>
