<svg width="108" height="108" viewBox="0 0 108 108" fill="none" xmlns="http://www.w3.org/2000/svg">
<g filter="url(#filter0_d_11219_2189)">
<rect x="4" y="3" width="100" height="100" rx="10" fill="white"/>
<path d="M72.1424 66.5865C70.8424 66.0518 70.2825 65.3427 70.3363 64.2856C70.3518 63.3571 70.0012 62.4598 69.3604 61.7886C69.8741 59.9138 69.8741 57.935 69.3604 56.0603C68.5154 53.591 65.9345 49.819 63.2712 46.1121C62.1809 44.5898 62.1298 42.9346 62.07 41.0183C62.119 38.8942 61.7311 36.7827 60.9303 34.8152C60.4327 33.6172 59.5839 32.5986 58.4962 31.8937C57.4084 31.1888 56.1328 30.8308 54.8377 30.867C53.1878 30.8683 51.5753 31.3598 50.2045 32.2791C47.5438 34.1182 47.8948 38.1281 48.1245 40.7848C48.1565 41.1485 48.186 41.4913 48.2042 41.7846C48.3593 44.3832 48.2181 45.7528 48.0309 46.1694C47.6283 46.819 47.1848 47.4423 46.7031 48.0354C46.0601 48.8834 45.3321 49.8442 44.7341 50.7399C43.9614 52.106 43.3429 53.5539 42.8898 55.0569C42.5759 56.0598 42.1863 57.0373 41.7241 57.981C41.2089 58.8887 41.0704 59.9628 41.3385 60.9719C40.9084 61.2936 40.5701 61.7228 40.3574 62.2165C39.9613 63.0627 39.1579 63.5183 37.4879 63.8386C37.1723 63.8769 36.8687 63.9828 36.5977 64.1492C36.3267 64.3156 36.0947 64.5385 35.9175 64.8029C35.7722 65.1466 35.699 65.5166 35.7024 65.8899C35.7058 66.2631 35.7858 66.6317 35.9374 66.9727C36.1735 67.7899 36.0937 68.6662 35.7138 69.4272C35.6367 69.6615 35.5491 69.9262 35.4607 70.2179C35.389 70.4232 35.3651 70.6423 35.391 70.8583C35.4168 71.0743 35.4917 71.2816 35.6098 71.4642C36.2407 72.4302 38.0815 72.7704 39.9761 72.9943C41.1993 73.2035 42.3956 73.5476 43.5433 74.0202C44.6657 74.4831 45.8351 74.8225 47.0307 75.0322C47.1946 75.0532 47.3595 75.0639 47.5247 75.0643C48.0692 75.0796 48.6071 74.9412 49.0767 74.6649C49.5465 74.3887 49.9292 73.9857 50.1811 73.5021C51.7588 73.183 53.36 72.9938 54.9685 72.9362C56.5684 72.9155 58.1652 73.0797 59.7274 73.4257C60.0476 74.0716 60.5433 74.614 61.1574 74.9906C61.6581 75.2398 62.2113 75.3646 62.7703 75.3542C63.2974 75.3613 63.8207 75.2611 64.308 75.0596C64.7953 74.858 65.2366 74.5593 65.6051 74.1817C66.5715 73.1566 68.9851 71.8478 70.7471 70.8922C71.1405 70.6787 71.508 70.4791 71.8313 70.2994C72.2577 70.1193 72.6238 69.8207 72.8864 69.4391C73.149 69.0574 73.2971 68.6085 73.3133 68.1453C73.2856 67.801 73.1609 67.4717 72.9536 67.1957C72.7463 66.9198 72.465 66.7085 72.1424 66.5865ZM50.227 66.3894C50.1039 65.5215 48.9868 64.6579 47.6937 63.6598C46.6364 62.8431 45.4404 61.9179 45.1076 61.135C44.4255 59.5189 44.9629 56.6765 45.9006 55.2132C46.4046 54.2854 46.8095 53.307 47.1087 52.2943C47.3816 51.2743 47.8067 50.3014 48.3697 49.4085C49.2001 48.346 49.7229 47.0753 49.8812 45.7354C50.5854 46.5231 51.5397 47.0428 52.5826 47.2066C52.7291 47.2069 52.8749 47.187 53.0159 47.1476C53.9195 46.8006 54.7864 46.3644 55.6038 45.8457C56.2933 45.396 57.0308 45.0248 57.8025 44.7391C58.4508 45.6721 62.2225 54.0259 62.6047 56.706C62.8212 58.2255 62.7604 59.7718 62.4253 61.2696C62.2766 61.2487 62.1266 61.238 61.9764 61.2374C60.9269 61.2374 60.6487 61.8111 60.5767 62.154C60.4214 63.6072 60.3519 65.0685 60.3687 66.53C59.1096 68.1498 57.3189 69.2714 55.3135 69.6962C54.2821 69.8526 53.2409 69.935 52.1978 69.9427C51.6839 69.9488 51.1704 69.9171 50.6612 69.8481L49.2745 68.2616C49.6214 68.1036 49.9045 67.8323 50.0774 67.4922C50.2503 67.1521 50.3036 66.7633 50.227 66.3894ZM51.9846 40.2241C51.9413 40.2426 51.8988 40.2626 51.8572 40.284C51.8529 40.1886 51.8434 40.0936 51.8286 39.9993C51.8068 39.6291 51.6587 39.2775 51.4089 39.0036C51.1591 38.7298 50.8229 38.5503 50.4567 38.4952C50.4071 38.4951 50.3575 38.4989 50.3085 38.5065C50.1134 38.5485 49.9326 38.6407 49.7839 38.774C49.6353 38.9073 49.5239 39.0772 49.4609 39.2668C49.6056 38.3702 50.1126 37.7045 50.7141 37.7045C51.4204 37.7045 52.0141 38.6592 52.0141 39.7876C52.0143 39.9336 52.0042 40.0794 51.9837 40.2241H51.9846ZM57.4732 40.8959C57.5397 40.6818 57.5734 40.4587 57.5729 40.2345C57.6183 39.7973 57.4886 39.3598 57.2124 39.0181C56.9363 38.6765 56.5361 38.4585 56.0995 38.4119C55.6662 38.4644 55.2704 38.6843 54.9965 39.0248C54.7226 39.3652 54.5922 39.7993 54.6331 40.2345C54.6331 40.3028 54.6363 40.3713 54.6427 40.4402L54.517 40.3925C54.4236 40.1094 54.3762 39.8132 54.3766 39.515C54.3221 38.9912 54.4732 38.4668 54.798 38.0528C55.1229 37.6387 55.5958 37.3675 56.1169 37.2966C56.6375 37.3679 57.1101 37.6393 57.4346 38.0533C57.7591 38.4673 57.91 38.9915 57.8554 39.515C57.8588 40.002 57.7269 40.4803 57.4732 40.8959ZM56.7651 43.2783C56.7513 43.34 56.7218 43.3651 56.3968 43.5387C56.2321 43.6255 56.0276 43.7305 55.7719 43.8859L55.5986 43.9892C54.7372 44.561 53.822 45.0471 52.866 45.4403C52.5696 45.4803 52.3859 45.3648 51.9733 45.0845C51.8806 45.0211 51.7809 44.9534 51.6752 44.8857C51.1504 44.59 50.7108 44.1637 50.3986 43.6481C50.6413 43.4606 51.2419 42.9902 51.5495 42.7125C51.9692 42.2471 52.5113 41.9099 53.1139 41.7395C53.1295 41.738 53.1451 41.738 53.1607 41.7395C53.8185 41.9273 54.4633 42.1585 55.0907 42.4313C55.3949 42.5528 55.6584 42.6578 55.843 42.7246C56.1994 42.8109 56.5212 43.0041 56.7651 43.2783ZM62.0007 70.4626C62.3873 68.9256 62.6039 67.3507 62.6463 65.7663C62.6325 65.4955 62.6082 65.2012 62.5848 64.9166C62.5188 64.3985 62.5049 63.8751 62.5432 63.3543C62.5575 63.3479 62.5723 63.3426 62.5874 63.3387C62.5874 64.0191 62.7382 65.3774 63.8224 65.8513C64.1698 65.9972 64.5437 66.0697 64.9205 66.064C65.9387 66.0479 66.9211 65.6852 67.7059 65.0355C67.9763 64.7538 68.2134 64.4419 68.4123 64.1059C68.4572 64.2473 68.4737 64.3963 68.4608 64.5442C68.4188 65.0927 68.5214 65.6426 68.7583 66.1389C68.9953 66.6352 69.3583 67.0603 69.8111 67.3719L69.9463 67.4431C70.2765 67.6167 71.1544 68.0784 71.1683 68.2971C71.1553 68.3249 71.1361 68.3493 71.1119 68.3683C70.5582 68.74 69.976 69.0673 69.3708 69.3473C68.1097 69.9047 66.9301 70.6312 65.8643 71.5067C65.1869 72.3521 64.2435 72.9428 63.188 73.1827C63.1158 73.1836 63.0439 73.1733 62.9748 73.1523C62.2693 72.9336 61.6887 71.9146 62.0007 70.4609V70.4626ZM37.9524 66.6724C37.8668 66.3939 37.8438 66.0998 37.8848 65.8114C37.929 65.6205 38.8711 65.4156 39.2715 65.328C39.8036 65.2444 40.3204 65.0817 40.8046 64.8454C41.2778 64.4869 41.6387 64.0001 41.8446 63.4428C41.9645 63.1072 42.1648 62.8062 42.4279 62.5662C42.4485 62.5547 42.4719 62.5492 42.4955 62.5506C42.9071 62.5506 43.7712 63.4185 44.2687 64.1936C44.3952 64.3889 44.6292 64.7812 44.8996 65.2351C45.6427 66.5697 46.4767 67.8515 47.3956 69.0713C47.9156 69.6311 48.7615 70.7074 48.5535 71.63C48.3401 72.2216 47.934 72.7242 47.4008 73.0568C47.3152 73.0742 47.2281 73.0821 47.1408 73.0803C46.0332 73.0803 43.8405 72.1577 42.6619 71.6612L42.4885 71.5874C41.5871 71.2888 40.658 71.0814 39.7152 70.9686C38.9829 70.8954 38.2623 70.7331 37.5693 70.4852C37.4177 70.3116 37.5936 69.7587 37.7496 69.2701C37.8728 68.9118 37.9702 68.5452 38.0408 68.173C38.1065 67.6717 38.0765 67.1624 37.9524 66.6724Z" fill="#007BFF"/>
<g clip-path="url(#clip0_11219_2189)">
<path d="M72.1424 66.5865C70.8424 66.0518 70.2825 65.3427 70.3363 64.2856C70.3518 63.3571 70.0012 62.4598 69.3604 61.7886C69.8741 59.9138 69.8741 57.935 69.3604 56.0603C68.5154 53.591 65.9345 49.819 63.2712 46.1121C62.1809 44.5898 62.1298 42.9346 62.07 41.0183C62.119 38.8942 61.7311 36.7827 60.9303 34.8152C60.4327 33.6172 59.5839 32.5986 58.4962 31.8937C57.4084 31.1888 56.1328 30.8308 54.8377 30.867C53.1878 30.8683 51.5753 31.3598 50.2045 32.2791C47.5438 34.1182 47.8948 38.1281 48.1245 40.7848C48.1565 41.1485 48.186 41.4913 48.2042 41.7846C48.3593 44.3832 48.2181 45.7528 48.0309 46.1694C47.6283 46.819 47.1848 47.4423 46.7031 48.0354C46.0601 48.8834 45.3321 49.8442 44.7341 50.7399C43.9614 52.106 43.3429 53.5539 42.8898 55.0569C42.5759 56.0598 42.1863 57.0373 41.7241 57.981C41.2089 58.8887 41.0704 59.9628 41.3385 60.9719C40.9084 61.2936 40.5701 61.7228 40.3574 62.2165C39.9613 63.0627 39.1579 63.5183 37.4879 63.8386C37.1723 63.8769 36.8687 63.9828 36.5977 64.1492C36.3267 64.3156 36.0947 64.5385 35.9175 64.8029C35.7722 65.1466 35.699 65.5166 35.7024 65.8899C35.7058 66.2631 35.7858 66.6317 35.9374 66.9727C36.1735 67.7899 36.0937 68.6662 35.7138 69.4272C35.6367 69.6615 35.5491 69.9262 35.4607 70.2179C35.389 70.4232 35.3651 70.6423 35.391 70.8583C35.4168 71.0743 35.4917 71.2816 35.6098 71.4642C36.2407 72.4302 38.0815 72.7704 39.9761 72.9943C41.1993 73.2035 42.3956 73.5476 43.5433 74.0202C44.6657 74.4831 45.8351 74.8225 47.0307 75.0322C47.1946 75.0532 47.3595 75.0639 47.5247 75.0643C48.0692 75.0796 48.6071 74.9412 49.0767 74.6649C49.5465 74.3887 49.9292 73.9857 50.1811 73.5021C51.7588 73.183 53.36 72.9938 54.9685 72.9362C56.5684 72.9155 58.1652 73.0797 59.7274 73.4257C60.0476 74.0716 60.5433 74.614 61.1574 74.9906C61.6581 75.2398 62.2113 75.3646 62.7703 75.3542C63.2974 75.3613 63.8207 75.2611 64.308 75.0596C64.7953 74.858 65.2366 74.5593 65.6051 74.1817C66.5715 73.1566 68.9851 71.8478 70.7471 70.8922C71.1405 70.6787 71.508 70.4791 71.8313 70.2994C72.2577 70.1193 72.6238 69.8207 72.8864 69.4391C73.149 69.0574 73.2971 68.6085 73.3133 68.1453C73.2856 67.801 73.1609 67.4717 72.9536 67.1957C72.7463 66.9198 72.465 66.7085 72.1424 66.5865ZM50.227 66.3894C50.1039 65.5215 48.9868 64.6579 47.6937 63.6598C46.6364 62.8431 45.4404 61.9179 45.1076 61.135C44.4255 59.5189 44.9629 56.6765 45.9006 55.2132C46.4046 54.2854 46.8095 53.307 47.1087 52.2943C47.3816 51.2743 47.8067 50.3014 48.3697 49.4085C49.2001 48.346 49.7229 47.0753 49.8812 45.7354C50.5854 46.5231 51.5397 47.0428 52.5826 47.2066C52.7291 47.2069 52.8749 47.187 53.0159 47.1476C53.9195 46.8006 54.7864 46.3644 55.6038 45.8457C56.2933 45.396 57.0308 45.0248 57.8025 44.7391C58.4508 45.6721 62.2225 54.0259 62.6047 56.706C62.8212 58.2255 62.7604 59.7718 62.4253 61.2696C62.2766 61.2487 62.1266 61.238 61.9764 61.2374C60.9269 61.2374 60.6487 61.8111 60.5767 62.154C60.4214 63.6072 60.3519 65.0685 60.3687 66.53C59.1096 68.1498 57.3189 69.2714 55.3135 69.6962C54.2821 69.8526 53.2409 69.935 52.1978 69.9427C51.6839 69.9488 51.1704 69.9171 50.6612 69.8481L49.2745 68.2616C49.6214 68.1036 49.9045 67.8323 50.0774 67.4922C50.2503 67.1521 50.3036 66.7633 50.227 66.3894ZM51.9846 40.2241C51.9413 40.2426 51.8988 40.2626 51.8572 40.284C51.8529 40.1886 51.8434 40.0936 51.8286 39.9993C51.8068 39.6291 51.6587 39.2775 51.4089 39.0036C51.1591 38.7298 50.8229 38.5503 50.4567 38.4952C50.4071 38.4951 50.3575 38.4989 50.3085 38.5065C50.1134 38.5485 49.9326 38.6407 49.7839 38.774C49.6353 38.9073 49.5239 39.0772 49.4609 39.2668C49.6056 38.3702 50.1126 37.7045 50.7141 37.7045C51.4204 37.7045 52.0141 38.6592 52.0141 39.7876C52.0143 39.9336 52.0042 40.0794 51.9837 40.2241H51.9846ZM57.4732 40.8959C57.5397 40.6818 57.5734 40.4587 57.5729 40.2345C57.6183 39.7973 57.4886 39.3598 57.2124 39.0181C56.9363 38.6765 56.5361 38.4585 56.0995 38.4119C55.6662 38.4644 55.2704 38.6843 54.9965 39.0248C54.7226 39.3652 54.5922 39.7993 54.6331 40.2345C54.6331 40.3028 54.6363 40.3713 54.6427 40.4402L54.517 40.3925C54.4236 40.1094 54.3762 39.8132 54.3766 39.515C54.3221 38.9912 54.4732 38.4668 54.798 38.0528C55.1229 37.6387 55.5958 37.3675 56.1169 37.2966C56.6375 37.3679 57.1101 37.6393 57.4346 38.0533C57.7591 38.4673 57.91 38.9915 57.8554 39.515C57.8588 40.002 57.7269 40.4803 57.4732 40.8959ZM56.7651 43.2783C56.7513 43.34 56.7218 43.3651 56.3968 43.5387C56.2321 43.6255 56.0276 43.7305 55.7719 43.8859L55.5986 43.9892C54.7372 44.561 53.822 45.0471 52.866 45.4403C52.5696 45.4803 52.3859 45.3648 51.9733 45.0845C51.8806 45.0211 51.7809 44.9534 51.6752 44.8857C51.1504 44.59 50.7108 44.1637 50.3986 43.6481C50.6413 43.4606 51.2419 42.9902 51.5495 42.7125C51.9692 42.2471 52.5113 41.9099 53.1139 41.7395C53.1295 41.738 53.1451 41.738 53.1607 41.7395C53.8185 41.9273 54.4633 42.1585 55.0907 42.4313C55.3949 42.5528 55.6584 42.6578 55.843 42.7246C56.1994 42.8109 56.5212 43.0041 56.7651 43.2783ZM62.0007 70.4626C62.3873 68.9256 62.6039 67.3507 62.6463 65.7663C62.6325 65.4955 62.6082 65.2012 62.5848 64.9166C62.5188 64.3985 62.5049 63.8751 62.5432 63.3543C62.5575 63.3479 62.5723 63.3426 62.5874 63.3387C62.5874 64.0191 62.7382 65.3774 63.8224 65.8513C64.1698 65.9972 64.5437 66.0697 64.9205 66.064C65.9387 66.0479 66.9211 65.6852 67.7059 65.0355C67.9763 64.7538 68.2134 64.4419 68.4123 64.1059C68.4572 64.2473 68.4737 64.3963 68.4608 64.5442C68.4188 65.0927 68.5214 65.6426 68.7583 66.1389C68.9953 66.6352 69.3583 67.0603 69.8111 67.3719L69.9463 67.4431C70.2765 67.6167 71.1544 68.0784 71.1683 68.2971C71.1553 68.3249 71.1361 68.3493 71.1119 68.3683C70.5582 68.74 69.976 69.0673 69.3708 69.3473C68.1097 69.9047 66.9301 70.6312 65.8643 71.5067C65.1869 72.3521 64.2435 72.9428 63.188 73.1827C63.1158 73.1836 63.0439 73.1733 62.9748 73.1523C62.2693 72.9336 61.6887 71.9146 62.0007 70.4609V70.4626ZM37.9524 66.6724C37.8668 66.3939 37.8438 66.0998 37.8848 65.8114C37.929 65.6205 38.8711 65.4156 39.2715 65.328C39.8036 65.2444 40.3204 65.0817 40.8046 64.8454C41.2778 64.4869 41.6387 64.0001 41.8446 63.4428C41.9645 63.1072 42.1648 62.8062 42.4279 62.5662C42.4485 62.5547 42.4719 62.5492 42.4955 62.5506C42.9071 62.5506 43.7712 63.4185 44.2687 64.1936C44.3952 64.3889 44.6292 64.7812 44.8996 65.2351C45.6427 66.5697 46.4767 67.8515 47.3956 69.0713C47.9156 69.6311 48.7615 70.7074 48.5535 71.63C48.3401 72.2216 47.934 72.7242 47.4008 73.0568C47.3152 73.0742 47.2281 73.0821 47.1408 73.0803C46.0332 73.0803 43.8405 72.1577 42.6619 71.6612L42.4885 71.5874C41.5871 71.2888 40.658 71.0814 39.7152 70.9686C38.9829 70.8954 38.2623 70.7331 37.5693 70.4852C37.4177 70.3116 37.5936 69.7587 37.7496 69.2701C37.8728 68.9118 37.9702 68.5452 38.0408 68.173C38.1065 67.6717 38.0765 67.1624 37.9524 66.6724Z" fill="#CBCBCB"/>
</g>
</g>
<defs>
<filter id="filter0_d_11219_2189" x="0" y="0" width="108" height="108" filterUnits="userSpaceOnUse" color-interpolation-filters="sRGB">
<feFlood flood-opacity="0" result="BackgroundImageFix"/>
<feColorMatrix in="SourceAlpha" type="matrix" values="0 0 0 0 0 0 0 0 0 0 0 0 0 0 0 0 0 0 127 0" result="hardAlpha"/>
<feOffset dy="1"/>
<feGaussianBlur stdDeviation="2"/>
<feColorMatrix type="matrix" values="0 0 0 0 0 0 0 0 0 0 0 0 0 0 0 0 0 0 0.04 0"/>
<feBlend mode="normal" in2="BackgroundImageFix" result="effect1_dropShadow_11219_2189"/>
<feBlend mode="normal" in="SourceGraphic" in2="effect1_dropShadow_11219_2189" result="shape"/>
</filter>
<clipPath id="clip0_11219_2189">
<rect width="38" height="24" fill="white" transform="translate(35 31)"/>
</clipPath>
</defs>
</svg>
