<svg width="526" height="462" viewBox="0 0 526 462" fill="none" xmlns="http://www.w3.org/2000/svg">
<path d="M467.222 315.004C463.436 315.004 459.65 314.163 456.743 312.481L300.243 222.115C297.391 220.471 295.817 218.262 295.817 215.898C295.817 213.534 297.391 211.326 300.243 209.677L344.138 184.336C349.914 181.001 359.315 181.001 365.091 184.336L521.575 274.71C524.427 276.359 526 278.567 526 280.927C526 283.287 524.427 285.5 521.575 287.149L477.679 312.493C474.806 314.172 471.012 315.004 467.222 315.004ZM457.042 311.988C462.654 315.227 471.786 315.227 477.398 311.988L521.293 286.644C523.956 285.108 525.419 283.081 525.419 280.94C525.419 278.799 523.956 276.775 521.293 275.24L364.809 184.866C359.198 181.623 350.086 181.623 344.454 184.866L300.558 210.211C297.895 211.75 296.432 213.774 296.432 215.915C296.432 218.056 297.895 220.079 300.558 221.619L457.042 311.988Z" fill="#4CD3DC"/>
<g style="mix-blend-mode:multiply" opacity="0.3">
<path d="M468.724 304.034L508.955 280.805L468.724 257.576L428.496 280.805L468.724 304.034Z" fill="#DFE2F5"/>
</g>
<path d="M508.135 293.904L495.835 301.005C494.821 301.589 493.046 301.518 491.872 300.841C491.224 300.466 490.896 299.999 490.905 299.532V302.637C490.905 303.087 491.233 303.558 491.872 303.928C493.046 304.606 494.817 304.677 495.835 304.092L508.135 296.992C508.338 296.9 508.51 296.752 508.631 296.564C508.752 296.377 508.816 296.159 508.816 295.936V292.991C508.788 293.188 508.71 293.375 508.591 293.534C508.472 293.693 508.315 293.821 508.135 293.904Z" fill="url(#paint0_linear_10948_11660)"/>
<path d="M495.835 301.005L508.135 293.904C509.148 293.315 509.022 292.293 507.849 291.616C506.679 290.939 504.904 290.867 503.89 291.452L491.59 298.552C490.572 299.141 490.703 300.164 491.872 300.841C493.046 301.518 494.821 301.59 495.835 301.005Z" fill="white"/>
<path d="M492.966 300.21C492.411 299.886 492.28 299.419 492.684 299.184L504.984 292.083C505.274 291.976 505.583 291.936 505.89 291.964C506.197 291.992 506.494 292.089 506.759 292.247C507.315 292.571 507.445 293.038 507.041 293.273L494.741 300.357C494.453 300.468 494.144 300.512 493.837 300.486C493.529 300.461 493.232 300.366 492.966 300.21Z" fill="url(#paint1_linear_10948_11660)"/>
<path d="M51.3283 308.552C40.9129 308.552 30.2451 306.158 22.0381 301.4L12.443 295.86C4.5389 291.296 0.00420655 285.071 0 278.786C0 272.985 3.74803 267.622 10.5626 263.676L149.211 182.948C163.934 174.459 188.668 174.956 204.392 184.012L213.987 189.552C221.891 194.117 226.426 200.342 226.43 206.627C226.43 212.428 222.682 217.791 215.868 221.737L77.2197 302.465C70.2032 306.545 60.8772 308.552 51.3283 308.552ZM175.102 177.488C165.675 177.488 156.458 179.474 149.513 183.482L10.8739 264.21C4.25281 268.047 0.605774 273.229 0.609981 278.803C0.609981 284.873 5.03948 290.909 12.7543 295.364L22.3494 300.904C37.9137 309.885 62.3916 310.365 76.9336 301.968L215.582 221.24C222.203 217.408 225.85 212.226 225.846 206.648C225.846 200.582 221.416 194.546 213.701 190.091L204.106 184.551C195.983 179.861 185.421 177.488 175.115 177.488H175.102Z" fill="#4CD3DC"/>
<g style="mix-blend-mode:multiply" opacity="0.3">
<path d="M62.5094 293.816L201.128 213.104C207.724 209.298 206.895 202.643 199.281 198.247L189.682 192.707C182.068 188.307 170.542 187.832 163.946 191.638L25.3277 272.35C18.7318 276.156 19.5605 282.811 27.1786 287.207L36.7737 292.747C44.3918 297.147 55.9135 297.623 62.5094 293.816Z" fill="#DFE2F5"/>
</g>
<path d="M30.111 268.303C30.111 288.107 43.9926 296.134 61.1637 286.231L148.079 236.043L185.177 214.623C202.315 204.389 216.116 180.277 216.116 160.409C216.116 142.944 205.457 134.514 191.239 139.217C186.611 114.007 165.368 105.173 139.851 119.896C127.547 127.001 116.232 138.434 107.297 151.803C102.179 159.451 97.9036 167.631 94.5469 176.201L93.9664 176.524C80.9639 184.033 69.4927 198.213 62.6654 213.673C62.1648 213.929 61.6643 214.207 61.1637 214.514C44.0136 224.42 30.111 248.503 30.111 268.303Z" fill="url(#paint2_linear_10948_11660)"/>
<path d="M139.856 124.523C162.992 111.163 182.96 118.655 187.318 142.338L187.823 145.059L190.418 144.218C196.472 142.216 201.978 142.927 205.924 146.216C209.87 149.506 212.128 155.408 212.128 162.714C212.128 171.094 209.323 180.617 204.237 189.527C199.151 198.436 192.366 205.705 185.127 210.03L184.756 210.253L61.1637 281.604C46.2515 290.215 34.1198 283.207 34.1198 265.989C34.1198 248.772 46.2515 227.756 61.1637 219.145C61.5844 218.901 62.005 218.662 62.4719 218.426L64.7056 217.261L65.9676 214.4C72.3027 200.06 82.7685 187.638 93.9622 181.169C94.08 181.097 94.2019 181.034 94.3197 180.967L94.4838 180.874L96.8311 179.562L98.0089 176.537C102.267 165.666 108.118 155.488 115.369 146.338C122.756 137.05 131.224 129.512 139.851 124.527L139.856 124.523ZM139.856 119.896C120.506 131.068 103.604 152.951 94.5469 176.209L93.9664 176.537C80.9639 184.042 69.4927 198.222 62.6654 213.681C62.1648 213.942 61.6685 214.215 61.1637 214.522C44.0136 224.424 30.111 248.503 30.111 268.307C30.111 288.112 43.9926 296.138 61.1637 286.236L185.194 214.623C202.331 204.393 216.133 180.277 216.133 160.409C216.133 142.948 205.474 134.518 191.256 139.217C186.611 114.007 165.368 105.173 139.856 119.896Z" fill="#DEE6FF"/>
<path opacity="0.5" d="M145.135 168.743L160.4 159.909C162.133 158.908 163.538 156.224 163.538 153.91V137.429C163.538 135.115 162.133 134.064 160.4 135.056L145.135 143.873C143.402 144.875 141.997 147.558 141.997 149.868V166.374C141.992 168.692 143.397 169.744 145.135 168.743Z" fill="white"/>
<path opacity="0.3" d="M165.528 171.704L173.205 167.27C174.076 166.766 174.782 165.415 174.782 164.25V155.951C174.782 154.785 174.076 154.268 173.205 154.756L165.528 159.19C164.653 159.69 163.946 161.045 163.946 162.206V170.509C163.946 171.67 164.653 172.205 165.528 171.704Z" fill="white"/>
<path opacity="0.3" d="M133.646 191.828L146.06 184.677C147.469 183.861 148.613 181.678 148.613 179.797V166.378C148.613 164.498 147.469 163.636 146.06 164.447L133.646 171.599C132.237 172.41 131.093 174.594 131.093 176.474V189.897C131.093 191.765 132.237 192.631 133.646 191.828Z" fill="white"/>
<path opacity="0.4" d="M100.238 242.874L112.652 235.723C114.061 234.907 115.201 232.724 115.201 230.848V217.412C115.201 215.532 114.061 214.67 112.652 215.481L100.238 222.633C98.8289 223.444 97.6847 225.628 97.6847 227.508V240.931C97.6847 242.828 98.8289 243.691 100.238 242.874Z" fill="white"/>
<path opacity="0.4" d="M85.3553 220.227L91.1267 216.891C91.4881 216.632 91.7837 216.292 91.9898 215.898C92.1958 215.504 92.3065 215.068 92.313 214.623V208.381C92.313 207.506 91.7829 207.119 91.1267 207.485L85.3553 210.816C84.9942 211.075 84.6988 211.415 84.4928 211.809C84.2868 212.203 84.1759 212.639 84.1691 213.084V219.326C84.1691 220.201 84.6991 220.605 85.3553 220.227Z" fill="white"/>
<path opacity="0.4" d="M156.37 198.184L165.082 193.136C166.071 192.568 166.874 191.033 166.874 189.716V180.314C166.874 178.994 166.071 178.388 165.082 178.96L156.37 184.008C155.382 184.576 154.578 186.111 154.578 187.428V196.846C154.578 198.138 155.382 198.756 156.37 198.184Z" fill="white"/>
<path opacity="0.3" d="M149.762 224.265L160.543 218.043C161.767 217.337 162.756 215.439 162.756 213.807V202.155C162.756 200.523 161.767 199.774 160.543 200.472L149.762 206.702C148.542 207.409 147.549 209.306 147.549 210.934V222.59C147.553 224.218 148.546 224.971 149.762 224.265Z" fill="white"/>
<path opacity="0.3" d="M91.5558 212.108L102.333 205.882C103.557 205.175 104.55 203.282 104.55 201.65V189.998C104.55 188.366 103.557 187.617 102.333 188.315L91.5558 194.541C90.3317 195.248 89.3389 197.141 89.3389 198.773V210.425C89.3389 212.061 90.3317 212.814 91.5558 212.108Z" fill="white"/>
<path opacity="0.4" d="M69.2232 264.206L80.0004 257.985C81.2245 257.278 82.2173 255.381 82.2173 253.753V242.097C82.2173 240.465 81.2245 239.716 80.0004 240.414L69.2232 246.636C67.9991 247.342 67.0063 249.239 67.0063 250.872V262.524C67.0063 264.181 67.9991 264.913 69.2232 264.206Z" fill="white"/>
<path opacity="0.2" d="M94.1006 238.1L98.854 235.357C99.1524 235.145 99.3967 234.865 99.567 234.54C99.7373 234.216 99.8288 233.856 99.8341 233.49V228.328C99.8341 227.609 99.4134 227.276 98.854 227.588L94.1006 230.335C93.8034 230.548 93.5603 230.828 93.3908 231.153C93.2213 231.477 93.1302 231.836 93.1246 232.202V237.339C93.1246 238.062 93.5621 238.39 94.1006 238.1Z" fill="white"/>
<path opacity="0.3" d="M179.157 185.274L187.869 180.226C188.858 179.658 189.657 178.123 189.657 176.806V167.405C189.657 166.084 188.858 165.478 187.869 166.05L179.157 171.077C178.164 171.649 177.365 173.18 177.365 174.501V183.92C177.365 185.241 178.164 185.846 179.157 185.274Z" fill="white"/>
<path opacity="0.3" d="M170.69 202.109L174.475 199.913C174.713 199.741 174.907 199.516 175.043 199.256C175.179 198.996 175.252 198.708 175.258 198.415V194.305C175.258 193.729 174.904 193.464 174.475 193.712L170.69 195.908C170.452 196.079 170.258 196.303 170.122 196.563C169.987 196.822 169.913 197.109 169.907 197.401V201.503C169.907 202.092 170.26 202.344 170.69 202.109Z" fill="white"/>
<path opacity="0.3" d="M139.048 204.41L142.834 202.214C143.072 202.043 143.266 201.819 143.402 201.56C143.538 201.301 143.611 201.013 143.616 200.721V196.607C143.616 196.03 143.263 195.765 142.834 196.018L139.048 198.214C138.81 198.384 138.616 198.608 138.481 198.868C138.346 199.127 138.274 199.414 138.27 199.707V203.821C138.27 204.397 138.619 204.662 139.048 204.41Z" fill="white"/>
<path opacity="0.2" d="M156.602 180.891L160.388 178.695C160.626 178.525 160.821 178.302 160.957 178.042C161.093 177.783 161.166 177.495 161.17 177.202V173.088C161.17 172.512 160.821 172.247 160.388 172.495L156.602 174.695C156.363 174.865 156.168 175.088 156.032 175.348C155.896 175.607 155.823 175.895 155.819 176.188V180.302C155.819 180.891 156.168 181.148 156.602 180.891Z" fill="white"/>
<path opacity="0.2" d="M70.3505 237.191L76.6604 233.561C77.0539 233.278 77.3758 232.907 77.6001 232.478C77.8243 232.048 77.9448 231.572 77.9518 231.087V224.281C77.9518 223.331 77.3755 222.893 76.6604 223.305L70.3505 226.94C69.9565 227.221 69.634 227.591 69.409 228.02C69.184 228.449 69.0627 228.925 69.0549 229.409V236.215C69.0549 237.166 69.6354 237.608 70.3505 237.191Z" fill="white"/>
<path opacity="0.2" d="M55.9558 253.319L63.9229 248.721C64.8273 248.2 65.5593 246.799 65.5593 245.592V236.977C65.5593 235.774 64.8273 235.218 63.9229 235.74L55.9558 240.342C55.0513 240.864 54.3194 242.264 54.3194 243.467V252.082C54.3194 253.29 55.0513 253.841 55.9558 253.319Z" fill="white"/>
<path opacity="0.2" d="M130.471 228.131L137.504 224.067C138.303 223.609 138.951 222.384 138.951 221.303V213.702C138.951 212.638 138.303 212.146 137.504 212.608L130.471 216.672C129.671 217.13 129.023 218.355 129.023 219.436V227.037C129.023 228.101 129.671 228.593 130.471 228.131Z" fill="white"/>
<path opacity="0.2" d="M79.1551 263.537L86.1926 259.478C86.633 259.162 86.9933 258.748 87.2446 258.268C87.4959 257.788 87.6312 257.256 87.6397 256.714V249.104C87.6397 248.04 86.9919 247.548 86.1926 248.011L79.1551 252.074C78.3558 252.533 77.708 253.757 77.708 254.838V262.448C77.708 263.512 78.3558 264 79.1551 263.537Z" fill="white"/>
<path opacity="0.2" d="M111.554 224.193L123.261 217.429C124.59 216.659 125.667 214.598 125.667 212.827V200.157C125.667 198.386 124.59 197.57 123.261 198.335L111.541 205.1C110.212 205.869 109.135 207.931 109.135 209.727V222.393C109.148 224.147 110.22 224.963 111.554 224.193Z" fill="white"/>
<path opacity="0.2" d="M126.681 184.256L134.484 179.751C135.367 179.238 136.086 177.867 136.086 176.685V168.271C136.086 167.089 135.367 166.547 134.484 167.06L126.681 171.565C125.793 172.078 125.074 173.45 125.074 174.632V183.07C125.074 184.256 125.785 184.786 126.681 184.256Z" fill="white"/>
<path opacity="0.2" d="M110.418 185.127L116.799 181.442C117.201 181.154 117.529 180.775 117.757 180.337C117.985 179.898 118.107 179.412 118.112 178.918V172.057C118.112 171.094 117.523 170.648 116.799 171.068L110.418 174.749C110.017 175.038 109.689 175.416 109.461 175.855C109.233 176.293 109.111 176.779 109.105 177.273V184.172C109.105 185.097 109.694 185.543 110.418 185.127Z" fill="white"/>
<path opacity="0.2" d="M124.943 162.668L128.729 160.473C128.968 160.303 129.163 160.079 129.299 159.819C129.435 159.56 129.508 159.272 129.511 158.979V154.865C129.511 154.289 129.162 154.024 128.729 154.276L124.943 156.472C124.705 156.642 124.509 156.866 124.373 157.125C124.237 157.385 124.165 157.672 124.161 157.965V162.079C124.152 162.656 124.522 162.921 124.943 162.668Z" fill="white"/>
<path opacity="0.4" d="M51.4464 246.379L55.2322 244.183C55.4697 244.011 55.664 243.786 55.7998 243.526C55.9356 243.266 56.0091 242.978 56.0147 242.685V238.575C56.0147 237.999 55.6613 237.734 55.2322 237.982L51.4464 240.178C51.209 240.349 51.015 240.573 50.8798 240.832C50.7447 241.092 50.6722 241.379 50.6682 241.671V245.785C50.6682 246.362 51.0173 246.627 51.4464 246.379Z" fill="white"/>
<path opacity="0.3" d="M170.69 140.954L174.475 138.758C174.713 138.586 174.907 138.361 175.043 138.102C175.179 137.842 175.252 137.554 175.258 137.261V133.151C175.258 132.575 174.904 132.31 174.475 132.558L170.69 134.754C170.452 134.924 170.257 135.148 170.121 135.407C169.985 135.667 169.912 135.954 169.907 136.247V140.361C169.907 140.929 170.26 141.202 170.69 140.954Z" fill="white"/>
<path opacity="0.3" d="M53.0826 269.956L56.8685 267.76C57.1071 267.59 57.3023 267.367 57.4383 267.107C57.5742 266.848 57.6471 266.56 57.651 266.267V262.153C57.651 261.577 57.3018 261.312 56.8685 261.56L53.0826 263.756C52.8444 263.927 52.6496 264.152 52.5137 264.412C52.3779 264.672 52.3048 264.96 52.3002 265.253V269.363C52.3002 269.939 52.6494 270.204 53.0826 269.956Z" fill="white"/>
<path opacity="0.4" d="M185.581 195.929L195.643 190.12C196.783 189.46 197.708 187.689 197.708 186.166V175.288C197.708 173.765 196.783 173.067 195.643 173.723L185.581 179.532C184.436 180.193 183.511 181.964 183.511 183.486V194.352C183.511 195.887 184.436 196.59 185.581 195.929Z" fill="white"/>
<path opacity="0.4" d="M193.535 163.144L196.972 161.158C197.188 161.004 197.364 160.802 197.487 160.567C197.61 160.333 197.675 160.073 197.679 159.808V156.072C197.679 155.551 197.363 155.315 196.972 155.538L193.535 157.524C193.319 157.677 193.143 157.879 193.02 158.114C192.897 158.349 192.832 158.609 192.828 158.874V162.592C192.828 163.131 193.144 163.371 193.535 163.144Z" fill="white"/>
<path d="M206.866 140.016C202.659 137.584 197.254 137.206 191.213 139.204C190.634 135.959 189.686 132.79 188.386 129.76L206.971 139.898L206.866 140.016Z" fill="white"/>
<path d="M152.059 102.556C142.619 97.3445 129.705 98.2237 115.462 106.452C96.1114 117.624 79.2137 139.507 70.1528 162.765C69.9593 162.874 69.7658 162.979 69.5723 163.093C56.574 170.597 45.1028 184.778 38.2713 200.237C37.7749 200.498 37.2744 200.771 36.7696 201.078C26.2785 207.136 16.9988 218.506 11.3873 230.945C7.82012 238.84 5.7168 247.169 5.7168 254.855C5.7168 264.53 9.04418 271.399 14.4454 274.735L14.4917 274.76C14.8745 274.996 15.2699 275.21 15.6737 275.412L38.3891 287.935C33.2235 284.515 30.0601 277.751 30.0601 268.307C30.0601 260.769 32.0793 252.608 35.5286 244.847C41.1276 232.228 50.4998 220.655 61.1213 214.522C61.6219 214.232 62.1225 213.959 62.6188 213.681C69.4503 198.222 80.9216 184.042 93.924 176.537L94.5003 176.209C103.561 152.951 120.459 131.068 139.809 119.896C153.535 111.971 166.024 110.864 175.359 115.454L152.059 102.556Z" fill="url(#paint3_linear_10948_11660)"/>
<path style="mix-blend-mode:soft-light" d="M107.297 151.819C111.474 181.623 122.529 213.656 148.1 236.043L185.198 214.623C202.335 204.389 216.137 180.277 216.137 160.409C216.137 142.944 205.478 134.514 191.259 139.217C186.611 114.007 165.368 105.173 139.851 119.896C127.547 127.018 116.231 138.451 107.297 151.819Z" fill="url(#paint4_linear_10948_11660)"/>
<g style="mix-blend-mode:multiply" opacity="0.3">
<path d="M357.162 239.766L397.393 216.537L357.162 193.309L316.935 216.537L357.162 239.766Z" fill="#DFE2F5"/>
</g>
<path d="M357.145 220.294V152.846C357.145 146.385 353.216 138.88 348.37 136.083L325.688 122.984C323.917 121.961 321.061 122.277 319.694 122.681L360.136 99.3218C361.68 98.4089 363.699 98.4804 365.916 99.7424L388.597 112.837C393.443 115.635 397.372 123.139 397.372 129.601V208.764L357.145 231.992V220.294Z" fill="url(#paint5_linear_10948_11660)"/>
<path d="M325.705 122.983L348.387 136.083C353.233 138.88 357.145 146.397 357.145 152.846V231.992L348.37 226.944L325.688 213.845L316.918 208.797V129.617C316.934 123.156 320.859 120.186 325.705 122.983Z" fill="url(#paint6_linear_10948_11660)"/>
<g opacity="0.85">
<g opacity="0.3">
<path d="M320.62 136.419L352.653 154.911V151.231L320.62 132.734V136.419Z" fill="white"/>
</g>
<g opacity="0.3">
<path d="M320.62 142.965L352.653 161.461V157.776L320.62 139.284V142.965Z" fill="white"/>
</g>
<g opacity="0.3">
<path d="M320.62 149.515L352.653 168.011V164.326L320.62 145.83V149.515Z" fill="#71FFFF"/>
</g>
<g opacity="0.3">
<path d="M320.62 160.763L352.653 179.259V175.574L320.62 157.078V160.763Z" fill="white"/>
</g>
<g opacity="0.3">
<path d="M320.62 167.312L352.653 185.804V182.123L320.62 163.627V167.312Z" fill="#71FFFF"/>
</g>
<g opacity="0.3">
<path d="M320.62 173.857L352.653 192.354V188.669L320.62 170.177V173.857Z" fill="white"/>
</g>
<g opacity="0.3">
<path d="M320.62 185.106L352.653 203.602V199.917L320.62 181.425V185.106Z" fill="#71FFFF"/>
</g>
<g opacity="0.3">
<path d="M320.62 191.656L352.653 210.152V206.467L320.62 187.971V191.656Z" fill="white"/>
</g>
<g opacity="0.3">
<path d="M320.62 198.205L352.653 216.697V213.016L320.62 194.52V198.205Z" fill="white"/>
</g>
<g opacity="0.8">
<path d="M346.006 149.796L350.394 152.32C350.663 152.472 350.877 152.349 350.877 152.038C350.869 151.87 350.82 151.706 350.736 151.56C350.652 151.414 350.535 151.289 350.394 151.197L346.006 148.673C345.741 148.522 345.523 148.644 345.523 148.955C345.532 149.123 345.581 149.287 345.665 149.433C345.749 149.579 345.866 149.703 346.006 149.796Z" fill="white"/>
<path d="M339.095 145.804L343.482 148.328C343.747 148.484 343.966 148.358 343.966 148.047C343.957 147.878 343.908 147.714 343.824 147.568C343.74 147.422 343.623 147.298 343.482 147.205L339.095 144.681C338.826 144.526 338.611 144.652 338.611 144.959C338.619 145.128 338.667 145.293 338.751 145.44C338.835 145.587 338.953 145.712 339.095 145.804Z" fill="white"/>
<path d="M322.967 136.491L333.484 142.565C333.753 142.716 333.967 142.594 333.967 142.283C333.958 142.115 333.91 141.951 333.826 141.805C333.742 141.659 333.625 141.534 333.484 141.442L322.967 135.372C322.698 135.216 322.483 135.342 322.483 135.654C322.492 135.822 322.54 135.985 322.624 136.131C322.708 136.276 322.826 136.4 322.967 136.491Z" fill="white"/>
</g>
<g opacity="0.8">
<path d="M346.006 156.341L350.394 158.865C350.663 159.021 350.877 158.894 350.877 158.587C350.869 158.419 350.821 158.255 350.737 158.109C350.653 157.962 350.535 157.838 350.394 157.746L346.006 155.222C345.741 155.067 345.523 155.193 345.523 155.504C345.532 155.672 345.581 155.835 345.665 155.98C345.749 156.126 345.866 156.249 346.006 156.341Z" fill="white"/>
<path d="M339.095 152.353L343.482 154.877C343.747 155.029 343.966 154.907 343.966 154.596C343.956 154.427 343.908 154.264 343.824 154.118C343.74 153.972 343.623 153.847 343.482 153.754L339.095 151.23C338.826 151.079 338.611 151.201 338.611 151.512C338.62 151.681 338.668 151.845 338.752 151.991C338.836 152.137 338.954 152.261 339.095 152.353Z" fill="white"/>
<path d="M322.967 143.032L333.484 149.102C333.753 149.258 333.967 149.132 333.967 148.825C333.959 148.656 333.911 148.492 333.826 148.346C333.742 148.2 333.625 148.075 333.484 147.983L322.967 141.913C322.698 141.758 322.483 141.884 322.483 142.191C322.492 142.359 322.54 142.523 322.624 142.67C322.708 142.816 322.826 142.94 322.967 143.032Z" fill="white"/>
</g>
<g opacity="0.8">
<path d="M346.006 162.891L350.394 165.415C350.663 165.57 350.877 165.444 350.877 165.137C350.869 164.969 350.821 164.805 350.737 164.658C350.653 164.512 350.535 164.388 350.394 164.296L346.006 161.772C345.741 161.616 345.523 161.742 345.523 162.049C345.532 162.218 345.581 162.381 345.665 162.527C345.749 162.674 345.866 162.798 346.006 162.891Z" fill="#66FFFF"/>
<path d="M339.095 158.899L343.482 161.423C343.747 161.579 343.966 161.453 343.966 161.146C343.957 160.977 343.908 160.814 343.824 160.668C343.74 160.521 343.623 160.397 343.482 160.304L339.095 157.78C338.826 157.625 338.611 157.751 338.611 158.062C338.62 158.23 338.668 158.393 338.752 158.539C338.836 158.685 338.954 158.808 339.095 158.899Z" fill="#66FFFF"/>
<path d="M322.967 149.59L333.484 155.66C333.753 155.816 333.967 155.689 333.967 155.382C333.959 155.214 333.911 155.05 333.826 154.904C333.742 154.757 333.625 154.633 333.484 154.541L322.967 148.471C322.698 148.315 322.483 148.442 322.483 148.749C322.492 148.917 322.54 149.081 322.624 149.227C322.708 149.374 322.826 149.498 322.967 149.59Z" fill="#66FFFF"/>
</g>
<g opacity="0.8">
<path d="M346.006 174.16L350.394 176.684C350.663 176.84 350.877 176.714 350.877 176.402C350.869 176.234 350.821 176.07 350.737 175.923C350.653 175.777 350.535 175.653 350.394 175.561L346.006 173.037C345.741 172.881 345.523 173.008 345.523 173.315C345.531 173.484 345.58 173.648 345.664 173.795C345.748 173.942 345.865 174.067 346.006 174.16Z" fill="white"/>
<path d="M339.095 170.147L343.482 172.671C343.747 172.827 343.966 172.7 343.966 172.393C343.957 172.225 343.908 172.061 343.824 171.915C343.74 171.769 343.623 171.645 343.482 171.552L339.095 169.028C338.826 168.872 338.611 168.999 338.611 169.31C338.62 169.478 338.668 169.641 338.752 169.787C338.836 169.932 338.954 170.056 339.095 170.147Z" fill="white"/>
<path d="M322.967 160.838L333.484 166.908C333.753 167.064 333.967 166.938 333.967 166.627C333.959 166.458 333.911 166.294 333.826 166.148C333.742 166.002 333.625 165.877 333.484 165.785L322.967 159.715C322.698 159.56 322.483 159.686 322.483 159.993C322.491 160.162 322.539 160.327 322.623 160.474C322.707 160.621 322.825 160.746 322.967 160.838Z" fill="white"/>
</g>
<g opacity="0.8">
<path d="M346.006 180.689L350.394 183.213C350.663 183.364 350.877 183.242 350.877 182.931C350.869 182.763 350.82 182.599 350.736 182.453C350.652 182.306 350.535 182.182 350.394 182.09L346.006 179.566C345.741 179.414 345.523 179.541 345.523 179.848C345.532 180.016 345.581 180.18 345.665 180.326C345.749 180.472 345.866 180.596 346.006 180.689Z" fill="#66FFFF"/>
<path d="M339.095 176.684L343.482 179.208C343.747 179.364 343.966 179.238 343.966 178.931C343.957 178.763 343.908 178.599 343.824 178.453C343.74 178.307 343.623 178.182 343.482 178.089L339.095 175.566C338.826 175.41 338.611 175.536 338.611 175.843C338.62 176.012 338.668 176.176 338.752 176.322C338.836 176.468 338.954 176.592 339.095 176.684Z" fill="#66FFFF"/>
<path d="M322.967 167.388L333.484 173.458C333.753 173.613 333.967 173.487 333.967 173.176C333.959 173.007 333.911 172.843 333.827 172.697C333.743 172.55 333.625 172.426 333.484 172.335L322.967 166.26C322.698 166.109 322.483 166.231 322.483 166.542C322.492 166.711 322.54 166.876 322.624 167.023C322.708 167.17 322.826 167.295 322.967 167.388Z" fill="#66FFFF"/>
</g>
<g opacity="0.8">
<path d="M346.006 187.234L350.394 189.758C350.663 189.914 350.877 189.788 350.877 189.481C350.869 189.312 350.821 189.148 350.737 189.002C350.653 188.856 350.535 188.732 350.394 188.639L346.006 186.115C345.741 185.96 345.523 186.086 345.523 186.397C345.532 186.565 345.581 186.728 345.665 186.873C345.749 187.019 345.866 187.143 346.006 187.234Z" fill="white"/>
<path d="M339.095 183.246L343.482 185.77C343.747 185.926 343.966 185.8 343.966 185.488C343.957 185.32 343.909 185.156 343.825 185.01C343.741 184.864 343.624 184.739 343.482 184.647L339.095 182.123C338.826 181.968 338.611 182.094 338.611 182.401C338.619 182.57 338.667 182.735 338.751 182.882C338.835 183.029 338.953 183.154 339.095 183.246Z" fill="white"/>
<path d="M322.967 173.933L333.484 180.003C333.753 180.159 333.967 180.033 333.967 179.726C333.959 179.557 333.911 179.393 333.826 179.247C333.742 179.101 333.625 178.976 333.484 178.884L322.967 172.814C322.698 172.659 322.483 172.785 322.483 173.096C322.493 173.264 322.541 173.427 322.625 173.572C322.709 173.718 322.826 173.841 322.967 173.933Z" fill="white"/>
</g>
<g opacity="0.8">
<path d="M346.006 198.487L350.394 201.011C350.663 201.167 350.877 201.04 350.877 200.733C350.869 200.565 350.821 200.401 350.737 200.255C350.653 200.108 350.535 199.984 350.394 199.892L346.006 197.368C345.741 197.212 345.523 197.339 345.523 197.646C345.532 197.814 345.581 197.978 345.665 198.124C345.749 198.27 345.866 198.394 346.006 198.487Z" fill="#66FFFF"/>
<path d="M339.095 194.495L343.482 197.019C343.747 197.17 343.966 197.044 343.966 196.737C343.957 196.569 343.908 196.405 343.824 196.259C343.74 196.113 343.623 195.988 343.482 195.896L339.095 193.372C338.826 193.22 338.611 193.342 338.611 193.654C338.619 193.822 338.667 193.986 338.751 194.133C338.835 194.279 338.953 194.403 339.095 194.495Z" fill="#66FFFF"/>
<path d="M322.967 185.186L333.484 191.256C333.753 191.411 333.967 191.285 333.967 190.978C333.959 190.81 333.911 190.646 333.826 190.499C333.742 190.353 333.625 190.229 333.484 190.137L322.967 184.067C322.698 183.911 322.483 184.037 322.483 184.344C322.492 184.513 322.54 184.677 322.624 184.823C322.708 184.969 322.826 185.094 322.967 185.186Z" fill="#66FFFF"/>
</g>
<g opacity="0.8">
<path d="M346.006 205.032L350.394 207.556C350.663 207.712 350.877 207.586 350.877 207.279C350.869 207.11 350.821 206.946 350.737 206.8C350.653 206.654 350.535 206.529 350.394 206.437L346.006 203.913C345.741 203.758 345.523 203.884 345.523 204.191C345.532 204.359 345.581 204.523 345.665 204.669C345.749 204.815 345.866 204.94 346.006 205.032Z" fill="white"/>
<path d="M339.095 201.04L343.482 203.564C343.747 203.72 343.966 203.593 343.966 203.286C343.957 203.118 343.908 202.954 343.824 202.808C343.74 202.662 343.623 202.538 343.482 202.445L339.095 199.921C338.826 199.766 338.611 199.892 338.611 200.203C338.62 200.371 338.668 200.534 338.752 200.68C338.836 200.825 338.954 200.949 339.095 201.04Z" fill="white"/>
<path d="M322.967 191.731L333.484 197.801C333.753 197.957 333.967 197.83 333.967 197.523C333.959 197.355 333.911 197.191 333.826 197.045C333.742 196.898 333.625 196.774 333.484 196.682L322.967 190.612C322.698 190.456 322.483 190.582 322.483 190.89C322.492 191.058 322.54 191.222 322.624 191.368C322.708 191.515 322.826 191.639 322.967 191.731Z" fill="white"/>
</g>
<g opacity="0.8">
<path d="M346.006 211.599L350.394 214.123C350.663 214.278 350.877 214.152 350.877 213.841C350.87 213.672 350.822 213.508 350.738 213.361C350.653 213.215 350.535 213.091 350.394 212.999L346.006 210.475C345.741 210.32 345.523 210.446 345.523 210.753C345.531 210.922 345.58 211.087 345.664 211.233C345.748 211.38 345.865 211.505 346.006 211.599Z" fill="white"/>
<path d="M339.095 207.586L343.482 210.109C343.747 210.265 343.966 210.139 343.966 209.832C343.957 209.664 343.908 209.5 343.824 209.354C343.74 209.208 343.623 209.083 343.482 208.99L339.095 206.467C338.826 206.311 338.611 206.437 338.611 206.748C338.62 206.916 338.668 207.08 338.752 207.225C338.836 207.371 338.954 207.494 339.095 207.586Z" fill="white"/>
<path d="M322.967 198.276L333.484 204.346C333.753 204.502 333.967 204.376 333.967 204.065C333.959 203.896 333.911 203.732 333.826 203.586C333.742 203.44 333.625 203.315 333.484 203.223L322.967 197.153C322.698 196.998 322.483 197.124 322.483 197.431C322.491 197.6 322.539 197.765 322.623 197.912C322.707 198.059 322.825 198.184 322.967 198.276Z" fill="white"/>
</g>
</g>
<g style="mix-blend-mode:multiply">
<path d="M397.393 208.764L357.162 231.988L316.935 208.537V206.736L357.162 229.834L397.393 206.736V208.764Z" fill="#E8EDFA"/>
</g>
<g style="mix-blend-mode:multiply" opacity="0.3">
<path d="M412.945 271.9L453.176 248.671L412.945 225.443L372.713 248.671L412.945 271.9Z" fill="#DFE2F5"/>
</g>
<path d="M412.945 252.427V184.979C412.945 178.518 409.016 171.014 404.17 168.216L381.488 155.117C379.717 154.095 376.861 154.41 375.49 154.814L415.931 131.455C417.475 130.542 419.499 130.614 421.715 131.876L444.397 144.971C449.243 147.768 453.172 155.273 453.172 161.734V240.897L412.941 264.126L412.945 252.427Z" fill="url(#paint7_linear_10948_11660)"/>
<path d="M381.488 155.117L404.17 168.216C409.016 171.014 412.945 178.518 412.945 184.979V264.126L404.17 259.078L381.488 245.979L372.713 240.931V161.751C372.709 155.29 376.642 152.32 381.488 155.117Z" fill="url(#paint8_linear_10948_11660)"/>
<g opacity="0.85">
<g opacity="0.3">
<path d="M376.398 168.553L408.435 187.045V183.364L376.398 164.868V168.553Z" fill="white"/>
</g>
<g opacity="0.3">
<path d="M376.398 175.099L408.435 193.595V189.91L376.398 171.418V175.099Z" fill="white"/>
</g>
<g opacity="0.3">
<path d="M376.398 181.648L408.435 200.145V196.46L376.398 177.963V181.648Z" fill="#71FFFF"/>
</g>
<g opacity="0.3">
<path d="M376.398 192.896L408.435 211.393V207.708L376.398 189.211V192.896Z" fill="white"/>
</g>
<g opacity="0.3">
<path d="M376.398 199.446L408.435 217.938V214.257L376.398 195.761V199.446Z" fill="#71FFFF"/>
</g>
<g opacity="0.3">
<path d="M376.398 205.992L408.435 224.488V220.803L376.398 202.311V205.992Z" fill="white"/>
</g>
<g opacity="0.3">
<path d="M376.398 217.24L408.435 235.736V232.051L376.398 213.559V217.24Z" fill="#71FFFF"/>
</g>
<g opacity="0.3">
<path d="M376.398 223.789L408.435 242.286V238.601L376.398 220.104V223.789Z" fill="white"/>
</g>
<g opacity="0.3">
<path d="M376.398 230.339L408.435 248.831V245.15L376.398 226.654V230.339Z" fill="white"/>
</g>
<g opacity="0.8">
<path d="M401.788 181.93L406.172 184.454C406.441 184.605 406.66 184.483 406.66 184.172C406.65 184.003 406.601 183.839 406.516 183.693C406.431 183.547 406.313 183.423 406.172 183.331L401.788 180.807C401.519 180.655 401.3 180.777 401.3 181.089C401.31 181.257 401.359 181.422 401.444 181.568C401.528 181.714 401.646 181.838 401.788 181.93Z" fill="white"/>
<path d="M394.873 177.946L399.26 180.47C399.529 180.626 399.744 180.5 399.744 180.188C399.735 180.02 399.687 179.856 399.603 179.71C399.519 179.563 399.402 179.439 399.26 179.347L394.873 176.823C394.608 176.667 394.389 176.794 394.389 177.101C394.398 177.27 394.446 177.434 394.53 177.581C394.614 177.728 394.732 177.853 394.873 177.946Z" fill="white"/>
<path d="M378.749 168.625L389.266 174.699C389.535 174.85 389.754 174.728 389.754 174.417C389.744 174.248 389.695 174.084 389.61 173.938C389.525 173.792 389.407 173.668 389.266 173.576L378.749 167.506C378.48 167.35 378.261 167.476 378.261 167.787C378.271 167.956 378.32 168.119 378.405 168.265C378.489 168.41 378.608 168.534 378.749 168.625Z" fill="white"/>
</g>
<g opacity="0.8">
<path d="M401.788 188.463L406.172 190.987C406.441 191.142 406.66 191.016 406.66 190.709C406.65 190.54 406.601 190.376 406.516 190.23C406.432 190.084 406.313 189.96 406.172 189.868L401.788 187.344C401.519 187.188 401.3 187.314 401.3 187.626C401.31 187.794 401.359 187.957 401.444 188.103C401.528 188.248 401.647 188.372 401.788 188.463Z" fill="white"/>
<path d="M394.873 184.488L399.26 187.012C399.529 187.167 399.744 187.041 399.744 186.73C399.736 186.561 399.688 186.397 399.604 186.251C399.52 186.104 399.402 185.98 399.26 185.889L394.873 183.365C394.608 183.213 394.389 183.339 394.389 183.646C394.399 183.815 394.447 183.978 394.531 184.124C394.615 184.27 394.732 184.395 394.873 184.488Z" fill="white"/>
<path d="M378.749 175.174L389.266 181.244C389.535 181.4 389.754 181.274 389.754 180.967C389.744 180.798 389.695 180.634 389.611 180.487C389.526 180.341 389.408 180.217 389.266 180.125L378.749 174.055C378.48 173.9 378.261 174.026 378.261 174.337C378.271 174.505 378.321 174.668 378.405 174.814C378.49 174.959 378.608 175.083 378.749 175.174Z" fill="white"/>
</g>
<g opacity="0.8">
<path d="M401.788 195.025L406.172 197.549C406.441 197.705 406.66 197.578 406.66 197.271C406.65 197.103 406.601 196.938 406.516 196.792C406.432 196.646 406.313 196.522 406.172 196.43L401.788 193.906C401.519 193.75 401.3 193.877 401.3 194.184C401.31 194.353 401.359 194.517 401.444 194.663C401.528 194.809 401.646 194.933 401.788 195.025Z" fill="#66FFFF"/>
<path d="M394.873 191.033L399.26 193.557C399.529 193.713 399.744 193.586 399.744 193.279C399.735 193.111 399.687 192.947 399.603 192.801C399.519 192.654 399.402 192.53 399.26 192.438L394.873 189.914C394.608 189.758 394.389 189.885 394.389 190.196C394.399 190.364 394.447 190.527 394.531 190.672C394.615 190.817 394.732 190.941 394.873 191.033Z" fill="#66FFFF"/>
<path d="M378.749 181.732L389.266 187.802C389.535 187.958 389.754 187.832 389.754 187.525C389.744 187.356 389.695 187.192 389.611 187.046C389.526 186.899 389.408 186.775 389.266 186.683L378.749 180.613C378.48 180.458 378.261 180.584 378.261 180.891C378.271 181.06 378.32 181.224 378.405 181.37C378.489 181.516 378.608 181.64 378.749 181.732Z" fill="#66FFFF"/>
</g>
<g opacity="0.8">
<path d="M401.788 206.273L406.172 208.797C406.441 208.953 406.66 208.827 406.66 208.515C406.65 208.346 406.601 208.182 406.516 208.036C406.432 207.89 406.313 207.766 406.172 207.674L401.788 205.15C401.519 204.994 401.3 205.121 401.3 205.428C401.309 205.597 401.358 205.762 401.443 205.909C401.527 206.056 401.646 206.181 401.788 206.273Z" fill="white"/>
<path d="M394.873 202.281L399.26 204.805C399.529 204.961 399.744 204.834 399.744 204.527C399.735 204.359 399.687 204.195 399.603 204.049C399.519 203.902 399.402 203.778 399.26 203.686L394.873 201.162C394.608 201.006 394.389 201.133 394.389 201.444C394.399 201.612 394.447 201.775 394.531 201.92C394.615 202.065 394.732 202.189 394.873 202.281Z" fill="white"/>
<path d="M378.749 192.972L389.266 199.042C389.535 199.198 389.754 199.072 389.754 198.765C389.744 198.596 389.695 198.432 389.611 198.285C389.526 198.139 389.408 198.015 389.266 197.923L378.749 191.853C378.48 191.698 378.261 191.824 378.261 192.131C378.271 192.3 378.32 192.464 378.405 192.61C378.489 192.756 378.608 192.88 378.749 192.972Z" fill="white"/>
</g>
<g opacity="0.8">
<path d="M401.788 212.823L406.172 215.347C406.441 215.502 406.66 215.376 406.66 215.065C406.651 214.896 406.602 214.731 406.517 214.585C406.432 214.439 406.314 214.315 406.172 214.224L401.788 211.7C401.519 211.544 401.3 211.67 401.3 211.977C401.309 212.147 401.358 212.312 401.443 212.459C401.527 212.606 401.646 212.73 401.788 212.823Z" fill="#66FFFF"/>
<path d="M394.873 208.831L399.26 211.355C399.529 211.51 399.744 211.384 399.744 211.077C399.735 210.909 399.687 210.744 399.603 210.598C399.519 210.452 399.402 210.328 399.26 210.236L394.873 207.712C394.608 207.556 394.389 207.682 394.389 207.989C394.399 208.158 394.447 208.321 394.531 208.467C394.615 208.613 394.732 208.738 394.873 208.831Z" fill="#66FFFF"/>
<path d="M378.749 199.522L389.266 205.592C389.535 205.747 389.754 205.621 389.754 205.31C389.745 205.141 389.696 204.976 389.611 204.83C389.527 204.684 389.408 204.56 389.266 204.468L378.749 198.394C378.48 198.243 378.261 198.365 378.261 198.676C378.27 198.845 378.319 199.01 378.404 199.157C378.489 199.304 378.607 199.429 378.749 199.522Z" fill="#66FFFF"/>
</g>
<g opacity="0.8">
<path d="M401.788 219.368L406.172 221.892C406.441 222.048 406.66 221.922 406.66 221.615C406.65 221.446 406.601 221.282 406.516 221.135C406.432 220.989 406.313 220.865 406.172 220.773L401.788 218.249C401.519 218.094 401.3 218.22 401.3 218.531C401.31 218.699 401.359 218.863 401.444 219.008C401.528 219.154 401.647 219.277 401.788 219.368Z" fill="white"/>
<path d="M394.873 215.384L399.26 217.908C399.529 218.064 399.744 217.938 399.744 217.627C399.736 217.458 399.688 217.294 399.604 217.147C399.52 217.001 399.402 216.877 399.26 216.785L394.873 214.261C394.608 214.106 394.389 214.232 394.389 214.539C394.398 214.708 394.446 214.872 394.53 215.019C394.614 215.166 394.732 215.291 394.873 215.384Z" fill="white"/>
<path d="M378.749 206.067L389.266 212.141C389.535 212.293 389.754 212.167 389.754 211.86C389.744 211.691 389.695 211.527 389.611 211.38C389.526 211.234 389.408 211.11 389.266 211.018L378.749 204.948C378.48 204.793 378.261 204.919 378.261 205.23C378.271 205.398 378.32 205.562 378.405 205.707C378.489 205.853 378.608 205.976 378.749 206.067Z" fill="white"/>
</g>
<g opacity="0.8">
<path d="M401.788 230.621L406.172 233.145C406.441 233.3 406.66 233.174 406.66 232.867C406.65 232.698 406.601 232.534 406.516 232.388C406.432 232.242 406.313 232.118 406.172 232.026L401.788 229.502C401.519 229.346 401.3 229.473 401.3 229.784C401.31 229.952 401.36 230.115 401.444 230.261C401.529 230.406 401.647 230.529 401.788 230.621Z" fill="#66FFFF"/>
<path d="M394.873 226.633L399.26 229.157C399.529 229.309 399.744 229.187 399.744 228.875C399.735 228.707 399.687 228.543 399.603 228.397C399.519 228.251 399.401 228.126 399.26 228.034L394.873 225.51C394.608 225.359 394.389 225.481 394.389 225.792C394.399 225.96 394.448 226.124 394.532 226.27C394.616 226.416 394.732 226.54 394.873 226.633Z" fill="#66FFFF"/>
<path d="M378.749 217.32L389.266 223.39C389.535 223.545 389.754 223.419 389.754 223.112C389.744 222.943 389.695 222.779 389.611 222.633C389.526 222.487 389.408 222.363 389.266 222.271L378.749 216.201C378.48 216.045 378.261 216.171 378.261 216.478C378.271 216.647 378.32 216.811 378.405 216.958C378.489 217.104 378.608 217.228 378.749 217.32Z" fill="#66FFFF"/>
</g>
<g opacity="0.8">
<path d="M401.788 237.166L406.172 239.69C406.441 239.846 406.66 239.72 406.66 239.413C406.65 239.244 406.601 239.08 406.516 238.934C406.432 238.787 406.313 238.663 406.172 238.571L401.788 236.047C401.519 235.892 401.3 236.018 401.3 236.325C401.31 236.494 401.359 236.658 401.444 236.804C401.528 236.95 401.646 237.075 401.788 237.166Z" fill="white"/>
<path d="M394.873 233.174L399.26 235.698C399.529 235.854 399.744 235.728 399.744 235.42C399.735 235.252 399.687 235.088 399.603 234.942C399.519 234.795 399.402 234.671 399.26 234.579L394.873 232.055C394.608 231.9 394.389 232.026 394.389 232.337C394.399 232.505 394.447 232.668 394.531 232.813C394.615 232.959 394.732 233.082 394.873 233.174Z" fill="white"/>
<path d="M378.749 223.865L389.266 229.935C389.535 230.091 389.754 229.964 389.754 229.657C389.744 229.489 389.695 229.324 389.611 229.178C389.526 229.032 389.408 228.908 389.266 228.816L378.749 222.746C378.48 222.59 378.261 222.717 378.261 223.024C378.271 223.192 378.32 223.357 378.405 223.503C378.489 223.649 378.608 223.773 378.749 223.865Z" fill="white"/>
</g>
<g opacity="0.8">
<path d="M401.788 243.711L406.172 246.235C406.441 246.391 406.66 246.265 406.66 245.953C406.65 245.785 406.601 245.621 406.516 245.474C406.432 245.328 406.313 245.204 406.172 245.112L401.788 242.588C401.519 242.433 401.3 242.559 401.3 242.866C401.309 243.035 401.358 243.2 401.443 243.347C401.527 243.494 401.646 243.619 401.788 243.711Z" fill="white"/>
<path d="M394.873 239.72L399.26 242.243C399.529 242.399 399.744 242.273 399.744 241.966C399.735 241.797 399.687 241.633 399.603 241.487C399.519 241.341 399.402 241.217 399.26 241.125L394.873 238.601C394.608 238.445 394.389 238.571 394.389 238.882C394.399 239.05 394.447 239.213 394.531 239.359C394.615 239.504 394.732 239.628 394.873 239.72Z" fill="white"/>
<path d="M378.749 230.41L389.266 236.48C389.535 236.636 389.754 236.51 389.754 236.199C389.744 236.03 389.695 235.866 389.611 235.719C389.526 235.573 389.408 235.449 389.266 235.357L378.749 229.287C378.48 229.132 378.261 229.258 378.261 229.565C378.27 229.734 378.319 229.899 378.404 230.046C378.488 230.193 378.607 230.318 378.749 230.41Z" fill="white"/>
</g>
</g>
<g style="mix-blend-mode:multiply">
<path d="M453.176 240.897L412.945 264.126L372.713 240.67V238.87L412.945 261.968L453.176 238.87V240.897Z" fill="#E8EDFA"/>
</g>
<path d="M468.723 284.561V217.113C468.723 210.652 464.795 203.148 459.949 200.35L437.267 187.251C435.496 186.229 432.64 186.544 431.273 186.948L471.714 163.589C473.258 162.677 475.282 162.748 477.498 164.01L500.167 177.105C505.013 179.902 508.942 187.407 508.942 193.868V273.014L468.711 296.243L468.723 284.561Z" fill="url(#paint9_linear_10948_11660)"/>
<path d="M437.267 187.251L459.949 200.35C464.794 203.148 468.723 210.652 468.723 217.113V296.26L459.949 291.212L437.267 278.113L428.492 273.065V193.885C428.492 187.424 432.442 184.454 437.267 187.251Z" fill="url(#paint10_linear_10948_11660)"/>
<g opacity="0.85">
<g opacity="0.3">
<path d="M432.181 200.687L464.214 219.179V215.498L432.181 197.002V200.687Z" fill="white"/>
</g>
<g opacity="0.3">
<path d="M432.181 207.233L464.214 225.729V222.044L432.181 203.552V207.233Z" fill="white"/>
</g>
<g opacity="0.3">
<path d="M432.181 213.782L464.214 232.278V228.593L432.181 210.101V213.782Z" fill="#71FFFF"/>
</g>
<g opacity="0.3">
<path d="M432.181 225.03L464.214 243.527V239.842L432.181 221.345V225.03Z" fill="white"/>
</g>
<g opacity="0.3">
<path d="M432.181 231.58L464.214 250.072V246.391L432.181 227.895V231.58Z" fill="#71FFFF"/>
</g>
<g opacity="0.3">
<path d="M432.181 238.13L464.214 256.622V252.937L432.181 234.445V238.13Z" fill="white"/>
</g>
<g opacity="0.3">
<path d="M432.181 249.373L464.214 267.87V264.185L432.181 245.693V249.373Z" fill="#71FFFF"/>
</g>
<g opacity="0.3">
<path d="M432.181 255.923L464.214 274.419V270.734L432.181 252.238V255.923Z" fill="white"/>
</g>
<g opacity="0.3">
<path d="M432.181 262.473L464.214 280.969V277.284L432.181 258.788V262.473Z" fill="white"/>
</g>
<g opacity="0.8">
<path d="M457.568 214.064L461.955 216.588C462.22 216.739 462.439 216.617 462.439 216.306C462.429 216.138 462.38 215.974 462.296 215.828C462.212 215.682 462.096 215.558 461.955 215.464L457.568 212.941C457.299 212.789 457.084 212.915 457.084 213.222C457.093 213.391 457.141 213.555 457.225 213.701C457.309 213.847 457.427 213.972 457.568 214.064Z" fill="white"/>
<path d="M450.657 210.072L455.044 212.596C455.309 212.752 455.528 212.625 455.528 212.318C455.518 212.15 455.47 211.986 455.386 211.84C455.302 211.694 455.185 211.57 455.044 211.477L450.657 208.953C450.387 208.797 450.173 208.924 450.173 209.231C450.181 209.399 450.23 209.563 450.314 209.709C450.398 209.856 450.515 209.98 450.657 210.072Z" fill="white"/>
<path d="M434.545 200.763L445.062 206.833C445.327 206.988 445.546 206.862 445.546 206.551C445.537 206.383 445.488 206.219 445.404 206.072C445.32 205.926 445.203 205.802 445.062 205.71L434.545 199.635C434.276 199.484 434.062 199.606 434.062 199.917C434.07 200.086 434.118 200.251 434.202 200.398C434.286 200.545 434.404 200.67 434.545 200.763Z" fill="white"/>
</g>
<g opacity="0.8">
<path d="M457.568 220.609L461.955 223.133C462.22 223.289 462.439 223.163 462.439 222.855C462.43 222.687 462.381 222.524 462.297 222.378C462.213 222.231 462.096 222.107 461.955 222.014L457.568 219.49C457.299 219.335 457.084 219.461 457.084 219.772C457.093 219.94 457.141 220.103 457.225 220.249C457.309 220.395 457.427 220.518 457.568 220.609Z" fill="white"/>
<path d="M450.657 216.622L455.044 219.145C455.309 219.301 455.528 219.175 455.528 218.864C455.519 218.695 455.471 218.531 455.387 218.385C455.302 218.239 455.185 218.115 455.044 218.022L450.657 215.498C450.387 215.343 450.173 215.469 450.173 215.776C450.181 215.945 450.229 216.11 450.313 216.257C450.397 216.404 450.515 216.529 450.657 216.622Z" fill="white"/>
<path d="M434.545 207.308L445.062 213.378C445.327 213.534 445.546 213.408 445.546 213.101C445.536 212.932 445.487 212.769 445.403 212.623C445.319 212.477 445.202 212.352 445.062 212.259L434.545 206.189C434.276 206.034 434.062 206.16 434.062 206.471C434.071 206.639 434.119 206.802 434.203 206.947C434.287 207.093 434.405 207.216 434.545 207.308Z" fill="white"/>
</g>
<g opacity="0.8">
<path d="M457.568 227.163L461.955 229.687C462.22 229.843 462.439 229.716 462.439 229.409C462.43 229.241 462.381 229.077 462.297 228.931C462.213 228.785 462.096 228.661 461.955 228.568L457.568 226.044C457.299 225.888 457.084 226.015 457.084 226.322C457.093 226.49 457.141 226.654 457.225 226.8C457.309 226.947 457.427 227.071 457.568 227.163Z" fill="#66FFFF"/>
<path d="M450.657 223.167L455.044 225.691C455.309 225.842 455.528 225.716 455.528 225.409C455.518 225.24 455.47 225.077 455.386 224.931C455.302 224.785 455.185 224.66 455.044 224.567L450.657 222.043C450.387 221.888 450.173 222.014 450.173 222.325C450.181 222.494 450.229 222.658 450.313 222.805C450.397 222.951 450.515 223.075 450.657 223.167Z" fill="#66FFFF"/>
<path d="M434.545 213.858L445.062 219.928C445.327 220.084 445.546 219.958 445.546 219.65C445.536 219.482 445.487 219.319 445.403 219.173C445.319 219.026 445.202 218.902 445.062 218.809L434.545 212.739C434.276 212.583 434.062 212.71 434.062 213.017C434.07 213.185 434.118 213.349 434.203 213.496C434.287 213.642 434.404 213.766 434.545 213.858Z" fill="#66FFFF"/>
</g>
<g opacity="0.8">
<path d="M457.568 238.407L461.955 240.931C462.22 241.087 462.439 240.961 462.439 240.653C462.43 240.485 462.381 240.322 462.297 240.175C462.213 240.029 462.096 239.905 461.955 239.812L457.568 237.288C457.299 237.133 457.084 237.259 457.084 237.566C457.093 237.734 457.141 237.898 457.225 238.045C457.309 238.191 457.427 238.315 457.568 238.407Z" fill="white"/>
<path d="M450.657 234.415L455.044 236.939C455.309 237.095 455.528 236.968 455.528 236.661C455.518 236.493 455.47 236.329 455.386 236.183C455.302 236.037 455.185 235.913 455.044 235.82L450.657 233.296C450.387 233.141 450.173 233.267 450.173 233.578C450.181 233.746 450.23 233.909 450.314 234.055C450.398 234.2 450.515 234.324 450.657 234.415Z" fill="white"/>
<path d="M434.545 225.106L445.062 231.176C445.327 231.332 445.546 231.205 445.546 230.898C445.536 230.73 445.487 230.566 445.403 230.42C445.319 230.274 445.202 230.15 445.062 230.057L434.545 223.987C434.276 223.831 434.062 223.957 434.062 224.265C434.07 224.433 434.118 224.597 434.203 224.743C434.287 224.89 434.404 225.014 434.545 225.106Z" fill="white"/>
</g>
<g opacity="0.8">
<path d="M457.568 244.957L461.955 247.48C462.22 247.636 462.439 247.51 462.439 247.199C462.43 247.03 462.382 246.866 462.298 246.72C462.214 246.574 462.096 246.45 461.955 246.357L457.568 243.833C457.299 243.678 457.084 243.804 457.084 244.111C457.092 244.28 457.14 244.445 457.224 244.592C457.308 244.739 457.426 244.864 457.568 244.957Z" fill="#66FFFF"/>
<path d="M450.657 240.965L455.044 243.489C455.309 243.644 455.528 243.518 455.528 243.211C455.518 243.043 455.47 242.879 455.386 242.733C455.302 242.587 455.185 242.463 455.044 242.37L450.657 239.846C450.387 239.69 450.173 239.816 450.173 240.123C450.181 240.292 450.23 240.456 450.314 240.602C450.398 240.748 450.515 240.873 450.657 240.965Z" fill="#66FFFF"/>
<path d="M434.545 231.656L445.062 237.726C445.327 237.881 445.546 237.755 445.546 237.444C445.537 237.275 445.488 237.111 445.404 236.965C445.32 236.819 445.203 236.695 445.062 236.602L434.545 230.528C434.276 230.377 434.062 230.499 434.062 230.81C434.07 230.979 434.118 231.144 434.202 231.291C434.286 231.438 434.404 231.563 434.545 231.656Z" fill="#66FFFF"/>
</g>
<g opacity="0.8">
<path d="M457.568 251.502L461.955 254.026C462.22 254.177 462.439 254.051 462.439 253.744C462.43 253.576 462.381 253.412 462.297 253.266C462.213 253.12 462.096 252.996 461.955 252.903L457.568 250.379C457.299 250.227 457.084 250.349 457.084 250.661C457.092 250.829 457.14 250.994 457.224 251.14C457.308 251.286 457.426 251.41 457.568 251.502Z" fill="white"/>
<path d="M450.657 247.514L455.044 250.038C455.309 250.194 455.528 250.068 455.528 249.756C455.519 249.588 455.471 249.424 455.387 249.278C455.302 249.132 455.185 249.008 455.044 248.915L450.657 246.391C450.387 246.236 450.173 246.362 450.173 246.669C450.181 246.838 450.229 247.003 450.313 247.15C450.397 247.297 450.515 247.422 450.657 247.514Z" fill="white"/>
<path d="M434.545 238.201L445.062 244.275C445.327 244.427 445.546 244.305 445.546 243.993C445.536 243.825 445.487 243.661 445.403 243.515C445.319 243.369 445.202 243.245 445.062 243.152L434.545 237.082C434.276 236.926 434.062 237.053 434.062 237.364C434.07 237.532 434.118 237.695 434.203 237.841C434.287 237.986 434.404 238.11 434.545 238.201Z" fill="white"/>
</g>
<g opacity="0.8">
<path d="M457.568 262.755L461.955 265.279C462.22 265.434 462.439 265.308 462.439 265.001C462.43 264.833 462.381 264.669 462.297 264.523C462.213 264.377 462.096 264.253 461.955 264.16L457.568 261.636C457.299 261.48 457.084 261.606 457.084 261.918C457.093 262.085 457.142 262.249 457.226 262.394C457.31 262.539 457.427 262.663 457.568 262.755Z" fill="#66FFFF"/>
<path d="M450.657 258.767L455.044 261.291C455.309 261.442 455.528 261.32 455.528 261.009C455.518 260.841 455.469 260.677 455.385 260.531C455.301 260.385 455.184 260.26 455.044 260.167L450.657 257.643C450.387 257.492 450.173 257.614 450.173 257.925C450.182 258.094 450.23 258.258 450.314 258.404C450.398 258.55 450.516 258.674 450.657 258.767Z" fill="#66FFFF"/>
<path d="M434.545 249.458L445.062 255.528C445.327 255.683 445.546 255.557 445.546 255.25C445.536 255.082 445.487 254.918 445.403 254.772C445.319 254.626 445.202 254.502 445.062 254.409L434.545 248.339C434.276 248.183 434.062 248.309 434.062 248.616C434.07 248.785 434.118 248.949 434.203 249.095C434.287 249.241 434.404 249.366 434.545 249.458Z" fill="#66FFFF"/>
</g>
<g opacity="0.8">
<path d="M457.568 269.3L461.955 271.824C462.22 271.98 462.439 271.853 462.439 271.546C462.43 271.378 462.381 271.214 462.297 271.068C462.213 270.922 462.096 270.798 461.955 270.705L457.568 268.181C457.299 268.025 457.084 268.152 457.084 268.459C457.093 268.627 457.141 268.791 457.225 268.937C457.309 269.084 457.427 269.208 457.568 269.3Z" fill="white"/>
<path d="M450.657 265.308L455.044 267.832C455.309 267.987 455.528 267.861 455.528 267.554C455.518 267.386 455.47 267.222 455.386 267.076C455.302 266.93 455.185 266.806 455.044 266.713L450.657 264.189C450.387 264.033 450.173 264.16 450.173 264.471C450.181 264.639 450.23 264.802 450.314 264.948C450.398 265.093 450.515 265.217 450.657 265.308Z" fill="white"/>
<path d="M434.545 255.999L445.062 262.077C445.327 262.233 445.546 262.107 445.546 261.8C445.536 261.631 445.487 261.468 445.403 261.322C445.319 261.176 445.202 261.051 445.062 260.958L434.545 254.888C434.276 254.733 434.062 254.859 434.062 255.166C434.072 255.333 434.12 255.495 434.204 255.64C434.288 255.785 434.405 255.908 434.545 255.999Z" fill="white"/>
</g>
<g opacity="0.8">
<path d="M457.568 275.845L461.955 278.369C462.22 278.525 462.439 278.399 462.439 278.087C462.43 277.919 462.381 277.755 462.297 277.609C462.213 277.463 462.096 277.339 461.955 277.246L457.568 274.722C457.299 274.566 457.084 274.693 457.084 275C457.092 275.169 457.14 275.334 457.224 275.481C457.308 275.628 457.426 275.753 457.568 275.845Z" fill="white"/>
<path d="M450.657 271.853L455.044 274.377C455.309 274.533 455.528 274.407 455.528 274.1C455.518 273.931 455.47 273.768 455.386 273.622C455.302 273.476 455.185 273.351 455.044 273.258L450.657 270.734C450.387 270.579 450.173 270.705 450.173 271.016C450.181 271.184 450.23 271.348 450.314 271.493C450.398 271.639 450.515 271.762 450.657 271.853Z" fill="white"/>
<path d="M434.545 262.544L445.062 268.614C445.327 268.77 445.546 268.644 445.546 268.337C445.536 268.168 445.487 268.005 445.403 267.859C445.319 267.712 445.202 267.588 445.062 267.495L434.545 261.425C434.276 261.27 434.062 261.396 434.062 261.703C434.07 261.871 434.118 262.035 434.203 262.182C434.287 262.328 434.404 262.452 434.545 262.544Z" fill="white"/>
</g>
</g>
<g style="mix-blend-mode:multiply">
<path d="M508.955 273.031L468.723 296.26L428.492 272.804V271.003L468.723 294.102L508.955 271.003V273.031Z" fill="#E8EDFA"/>
</g>
<path d="M467.47 175.166L485.865 185.791C486.286 186.044 486.248 186.481 485.743 186.772C485.488 186.914 485.203 186.994 484.911 187.007C484.618 187.019 484.327 186.963 484.061 186.843L465.674 176.213C465.253 175.965 465.291 175.523 465.796 175.233C466.051 175.093 466.335 175.014 466.625 175.002C466.916 174.99 467.205 175.046 467.47 175.166Z" fill="#DEE6FF"/>
<path d="M463.991 177.164L482.399 187.794C482.82 188.046 482.782 188.484 482.277 188.774C482.021 188.916 481.736 188.997 481.444 189.009C481.152 189.022 480.861 188.966 480.594 188.846L462.182 178.216C461.762 177.963 461.804 177.526 462.304 177.235C462.561 177.094 462.847 177.015 463.139 177.002C463.432 176.99 463.723 177.045 463.991 177.164Z" fill="#DEE6FF"/>
<path d="M460.533 179.166L478.945 189.796C479.366 190.049 479.324 190.486 478.823 190.776C478.567 190.917 478.282 190.996 477.99 191.009C477.699 191.021 477.408 190.966 477.141 190.848L458.733 180.218C458.312 179.966 458.354 179.528 458.855 179.238C459.11 179.097 459.395 179.018 459.686 179.006C459.977 178.993 460.267 179.048 460.533 179.166Z" fill="#DEE6FF"/>
<path d="M457.067 181.168L475.479 191.798C475.9 192.051 475.858 192.488 475.357 192.779C475.101 192.919 474.816 192.998 474.524 193.011C474.233 193.023 473.942 192.968 473.675 192.85L455.267 182.22C454.846 181.968 454.884 181.53 455.389 181.24C455.644 181.1 455.929 181.02 456.22 181.008C456.511 180.995 456.801 181.05 457.067 181.168Z" fill="#DEE6FF"/>
<path d="M411.641 142.931L430.053 153.548C430.473 153.8 430.431 154.238 429.931 154.528C429.675 154.67 429.39 154.749 429.098 154.762C428.806 154.774 428.515 154.719 428.248 154.6L409.84 143.97C409.42 143.722 409.458 143.28 409.962 142.99C410.218 142.85 410.503 142.772 410.795 142.762C411.086 142.752 411.376 142.809 411.641 142.931Z" fill="#DEE6FF"/>
<path d="M408.174 144.933L426.582 155.559C427.003 155.812 426.965 156.249 426.46 156.539C426.205 156.682 425.919 156.762 425.627 156.774C425.335 156.787 425.044 156.731 424.778 156.611L406.361 145.977C405.941 145.724 405.979 145.287 406.483 144.997C406.741 144.854 407.028 144.774 407.321 144.764C407.615 144.753 407.907 144.811 408.174 144.933Z" fill="#DEE6FF"/>
<path d="M404.708 146.932L423.116 157.562C423.537 157.814 423.495 158.252 422.994 158.542C422.738 158.683 422.453 158.763 422.161 158.775C421.869 158.787 421.578 158.732 421.311 158.613L402.899 147.983C402.479 147.731 402.521 147.294 403.021 147.003C403.278 146.862 403.564 146.782 403.856 146.77C404.149 146.758 404.44 146.813 404.708 146.932Z" fill="#DEE6FF"/>
<path d="M401.238 148.921L419.65 159.551C420.071 159.803 420.028 160.241 419.528 160.531C419.272 160.672 418.987 160.751 418.695 160.763C418.403 160.776 418.112 160.721 417.845 160.603L399.437 149.973C399.017 149.72 399.059 149.283 399.559 148.993C399.815 148.852 400.099 148.773 400.39 148.761C400.681 148.748 400.971 148.803 401.238 148.921Z" fill="#DEE6FF"/>
<path d="M355.853 110.708L374.261 121.338C374.682 121.587 374.644 122.028 374.143 122.319C373.887 122.458 373.602 122.537 373.31 122.549C373.018 122.56 372.727 122.505 372.461 122.386L354.053 111.76C353.632 111.508 353.67 111.07 354.175 110.78C354.43 110.638 354.714 110.558 355.005 110.546C355.297 110.533 355.587 110.589 355.853 110.708Z" fill="#DEE6FF"/>
<path d="M352.387 112.711L370.795 123.341C371.216 123.589 371.178 124.027 370.673 124.317C370.417 124.459 370.132 124.54 369.84 124.552C369.548 124.565 369.257 124.508 368.99 124.388L350.578 113.758C350.158 113.51 350.2 113.069 350.7 112.783C350.957 112.641 351.242 112.56 351.535 112.548C351.828 112.535 352.12 112.591 352.387 112.711Z" fill="#DEE6FF"/>
<path d="M348.921 114.713L367.329 125.339C367.749 125.592 367.707 126.029 367.207 126.319C366.951 126.462 366.666 126.542 366.374 126.554C366.082 126.567 365.791 126.511 365.524 126.391L347.112 115.761C346.691 115.513 346.734 115.071 347.234 114.781C347.491 114.64 347.777 114.561 348.07 114.549C348.362 114.537 348.654 114.594 348.921 114.713Z" fill="#DEE6FF"/>
<path d="M345.45 116.716L363.875 127.342C364.296 127.594 364.253 128.031 363.753 128.322C363.497 128.463 363.212 128.543 362.92 128.555C362.628 128.568 362.337 128.512 362.07 128.393L343.662 117.763C343.242 117.515 343.28 117.073 343.784 116.783C344.038 116.644 344.32 116.566 344.609 116.554C344.898 116.543 345.186 116.598 345.45 116.716Z" fill="#DEE6FF"/>
<path d="M496.133 220.883L483.833 228.004C482.819 228.593 481.995 227.971 481.995 226.616C481.995 225.262 482.836 223.672 483.833 223.104L496.133 216.003C497.151 215.414 497.972 216.037 497.972 217.391C497.972 218.725 497.151 220.298 496.133 220.883Z" fill="url(#paint11_linear_10948_11660)"/>
<path d="M495.986 298.636C495.913 298.636 495.841 298.622 495.774 298.594C495.706 298.566 495.645 298.525 495.594 298.474C495.542 298.422 495.501 298.361 495.473 298.294C495.445 298.226 495.431 298.154 495.431 298.081V239.135C495.431 234.428 492.116 228.681 488.04 226.33L485.895 225.093C485.767 225.02 485.674 224.898 485.635 224.756C485.597 224.613 485.617 224.462 485.691 224.334C485.764 224.206 485.886 224.113 486.028 224.075C486.171 224.036 486.322 224.056 486.45 224.13L488.591 225.367C492.974 227.891 496.542 234.074 496.542 239.135V298.081C496.542 298.228 496.483 298.37 496.379 298.474C496.275 298.578 496.134 298.636 495.986 298.636Z" fill="#A3B5E8"/>
<path d="M498.636 297.097C498.49 297.097 498.349 297.039 498.245 296.936C498.141 296.833 498.082 296.693 498.081 296.546V237.595C498.081 232.888 494.766 227.142 490.69 224.791L488.545 223.554C488.482 223.517 488.426 223.469 488.382 223.411C488.337 223.353 488.304 223.287 488.285 223.217C488.267 223.146 488.262 223.072 488.271 223C488.281 222.928 488.304 222.858 488.341 222.795C488.377 222.731 488.426 222.676 488.484 222.631C488.541 222.587 488.608 222.554 488.678 222.535C488.749 222.516 488.822 222.512 488.895 222.521C488.967 222.531 489.037 222.554 489.1 222.591L491.245 223.827C495.624 226.351 499.191 232.535 499.191 237.595V296.546C499.19 296.693 499.131 296.833 499.027 296.936C498.923 297.039 498.783 297.097 498.636 297.097Z" fill="#A3B5E8"/>
<path d="M501.286 295.561C501.213 295.561 501.141 295.547 501.074 295.519C501.007 295.491 500.945 295.45 500.894 295.399C500.842 295.347 500.801 295.286 500.773 295.219C500.746 295.151 500.731 295.079 500.731 295.006V236.056C500.731 231.348 497.416 225.606 493.34 223.251L491.199 222.014C491.072 221.941 490.979 221.82 490.941 221.679C490.902 221.537 490.922 221.386 490.995 221.259C491.068 221.132 491.189 221.039 491.33 221.001C491.472 220.962 491.623 220.982 491.75 221.055L493.896 222.292C498.275 224.816 501.842 230.995 501.842 236.056V295.006C501.842 295.153 501.783 295.295 501.679 295.399C501.575 295.503 501.434 295.561 501.286 295.561Z" fill="#A3B5E8"/>
<path d="M503.953 294.022C503.806 294.022 503.665 293.964 503.561 293.86C503.457 293.755 503.398 293.614 503.398 293.467V234.516C503.398 229.809 500.083 224.067 496.007 221.712L493.858 220.475C493.79 220.441 493.729 220.394 493.68 220.336C493.631 220.278 493.595 220.21 493.573 220.138C493.551 220.065 493.544 219.989 493.553 219.913C493.562 219.838 493.586 219.765 493.624 219.699C493.662 219.633 493.713 219.576 493.774 219.531C493.835 219.486 493.905 219.454 493.979 219.437C494.053 219.419 494.129 219.418 494.204 219.431C494.279 219.445 494.35 219.474 494.413 219.516L496.554 220.752C500.937 223.276 504.5 229.456 504.5 234.516V293.467C504.5 293.613 504.443 293.753 504.341 293.857C504.238 293.96 504.099 294.02 503.953 294.022Z" fill="#A3B5E8"/>
<path d="M243.48 317.864C243.427 317.864 243.376 317.85 243.331 317.823C243.286 317.796 243.249 317.758 243.223 317.713C243.201 317.679 243.186 317.64 243.179 317.6C243.173 317.559 243.175 317.518 243.185 317.479C243.195 317.439 243.214 317.402 243.239 317.37C243.265 317.338 243.296 317.311 243.332 317.292L354.575 253.062C354.643 253.023 354.725 253.012 354.801 253.033C354.878 253.053 354.943 253.103 354.983 253.172C355.022 253.24 355.033 253.322 355.013 253.399C354.992 253.475 354.942 253.54 354.873 253.58L243.627 317.822C243.583 317.85 243.532 317.865 243.48 317.864Z" fill="#4CD3DC"/>
<path d="M266.725 331.313C266.672 331.313 266.621 331.3 266.575 331.274C266.529 331.248 266.491 331.211 266.464 331.166C266.442 331.131 266.428 331.093 266.422 331.053C266.416 331.012 266.418 330.971 266.428 330.932C266.438 330.893 266.456 330.856 266.481 330.824C266.507 330.791 266.538 330.765 266.573 330.745L377.82 266.515C377.889 266.476 377.97 266.465 378.047 266.486C378.123 266.506 378.188 266.556 378.228 266.625C378.268 266.693 378.278 266.775 378.258 266.851C378.237 266.928 378.187 266.993 378.119 267.033L266.872 331.271C266.828 331.299 266.777 331.314 266.725 331.313Z" fill="#4CD3DC"/>
<path d="M289.966 344.761C289.914 344.762 289.863 344.748 289.818 344.722C289.773 344.696 289.736 344.659 289.71 344.614C289.688 344.58 289.674 344.541 289.667 344.501C289.661 344.461 289.663 344.42 289.673 344.38C289.684 344.341 289.702 344.304 289.727 344.272C289.752 344.24 289.783 344.213 289.819 344.193L401.065 279.964C401.133 279.932 401.211 279.927 401.282 279.95C401.354 279.973 401.414 280.022 401.451 280.087C401.488 280.152 401.499 280.229 401.482 280.302C401.466 280.375 401.422 280.439 401.36 280.481L290.118 344.711C290.072 344.74 290.02 344.757 289.966 344.761Z" fill="#4CD3DC"/>
<path d="M289.966 344.761C289.915 344.761 289.864 344.748 289.819 344.724L146.624 261.909C146.555 261.87 146.505 261.804 146.484 261.728C146.464 261.651 146.475 261.57 146.514 261.501C146.554 261.433 146.619 261.383 146.696 261.362C146.772 261.341 146.854 261.352 146.922 261.392L290.117 344.206C290.153 344.226 290.184 344.253 290.208 344.285C290.233 344.318 290.251 344.355 290.261 344.394C290.27 344.433 290.272 344.474 290.266 344.514C290.259 344.554 290.244 344.593 290.223 344.627C290.195 344.669 290.157 344.704 290.112 344.728C290.067 344.751 290.017 344.763 289.966 344.761Z" fill="#4CD3DC"/>
<path d="M265.538 406.783C253.074 406.783 241.271 404.044 232.727 399.11L172.961 364.616C163.546 359.181 158.721 351.458 159.718 343.424C160.648 335.949 166.411 328.802 175.939 323.295L229.745 292.234C239.235 286.766 251.526 283.447 264.361 282.912C278.112 282.34 291.362 285.112 300.714 290.514L360.48 325.007C369.895 330.442 374.719 338.166 373.722 346.2C372.793 353.675 367.03 360.822 357.502 366.324L303.696 397.39C294.21 402.858 281.915 406.177 269.085 406.707C267.896 406.758 266.713 406.783 265.538 406.783ZM267.898 283.421C266.734 283.421 265.561 283.447 264.377 283.497C251.644 284.023 239.445 287.283 230.039 292.752L176.233 323.813C166.87 329.222 161.212 336.21 160.307 343.499C159.34 351.282 164.06 358.79 173.255 364.112L233.022 398.605C242.276 403.952 255.417 406.694 269.055 406.127C281.793 405.597 293.987 402.315 303.393 396.872L357.199 365.811C366.563 360.401 372.221 353.41 373.125 346.124C374.093 338.342 369.377 330.833 360.182 325.512L300.411 291.018C291.943 286.118 280.261 283.405 267.898 283.405V283.421Z" fill="#4CD3DC"/>
<g style="mix-blend-mode:multiply" opacity="0.3">
<path d="M247.446 390.423L187.675 355.93C177.033 349.784 178.366 339.049 190.658 331.952L244.46 300.887C256.751 293.791 275.344 293.021 285.991 299.167L345.758 333.66C356.4 339.806 355.067 350.541 342.775 357.638L288.973 388.695C276.682 395.795 258.089 396.569 247.446 390.423Z" fill="#DFE2F5"/>
</g>
<path d="M352.938 330.943C352.963 330.522 352.963 330.101 352.938 329.681V270.667H180.512V331.018H180.545C180.242 335.179 182.581 339.192 187.696 342.145L247.463 376.638C258.11 382.784 276.703 382.014 288.994 374.918L342.796 343.853C349.182 340.168 352.602 335.503 352.93 331.006L352.938 330.943Z" fill="#DEE6FF"/>
<g style="mix-blend-mode:multiply">
<path d="M352.938 328.074C352.61 332.571 349.19 337.236 342.805 340.921L289.003 371.986C276.711 379.082 258.118 379.852 247.472 373.706L187.705 339.213C182.59 336.268 180.251 332.247 180.554 328.086H180.52V331.031H180.554C180.251 335.191 182.59 339.204 187.705 342.157L247.472 376.651C258.118 382.797 276.711 382.027 289.003 374.931L342.805 343.865C349.19 340.18 352.61 335.515 352.938 331.018V330.943C352.963 330.522 352.963 330.101 352.938 329.681V328.074Z" fill="#E8EDFA"/>
</g>
<path d="M247.442 315.5L187.675 281.007C177.033 274.861 178.366 264.126 190.658 257.029L244.464 225.964C256.751 218.867 275.344 218.098 285.991 224.243L345.758 258.737C356.4 264.883 355.067 275.618 342.775 282.714L288.973 313.78C276.682 320.889 258.089 321.659 247.442 315.5Z" fill="white"/>
<path d="M194.961 276.8C188.353 272.985 189.69 266.002 197.944 261.236L251.75 230.171C260.003 225.409 272.092 224.635 278.705 228.45L338.472 262.944C345.08 266.764 343.743 273.742 335.489 278.508L281.688 309.574C273.434 314.34 261.341 315.11 254.732 311.294L194.961 276.8Z" fill="url(#paint12_linear_10948_11660)"/>
<g opacity="0.8">
<path d="M265.867 240.994L259.262 237.183L265.867 233.372L272.471 237.183L265.867 240.994Z" fill="white"/>
<path d="M275.815 246.74L269.211 242.925L275.815 239.114L282.42 242.925L275.815 246.74Z" fill="white"/>
<path d="M285.764 252.482L279.159 248.671L285.764 244.86L292.368 248.671L285.764 252.482Z" fill="white"/>
<path d="M295.712 258.229L289.108 254.417L295.712 250.602L302.317 254.417L295.712 258.229Z" fill="white"/>
<path d="M305.661 263.97L299.057 260.159L305.661 256.348L312.265 260.159L305.661 263.97Z" fill="white"/>
<path d="M315.609 269.717L309.005 265.901L315.609 262.09L322.214 265.901L315.609 269.717Z" fill="white"/>
<path d="M325.558 275.459L318.954 271.648L325.558 267.836L332.162 271.648L325.558 275.459Z" fill="white"/>
<path d="M255.111 247.207L248.506 243.392L255.111 239.581L261.715 243.392L255.111 247.207Z" fill="white"/>
<path d="M265.059 252.949L258.455 249.138L265.059 245.323L271.664 249.138L265.059 252.949Z" fill="white"/>
<path d="M275.008 258.696L268.403 254.88L275.008 251.069L281.612 254.88L275.008 258.696Z" fill="white"/>
<path d="M284.956 264.437L278.352 260.626L284.956 256.811L291.56 260.626L284.956 264.437Z" fill="white"/>
<path d="M294.905 270.183L288.3 266.368L294.905 262.557L301.509 266.368L294.905 270.183Z" fill="white"/>
<path d="M304.853 275.925L298.249 272.114L304.853 268.298L311.458 272.114L304.853 275.925Z" fill="white"/>
<path d="M314.802 281.671L308.198 277.856L314.802 274.045L321.406 277.856L314.802 281.671Z" fill="white"/>
<path d="M244.354 253.416L237.75 249.601L244.354 245.79L250.959 249.601L244.354 253.416Z" fill="white"/>
<path d="M254.303 259.158L247.699 255.347L254.303 251.535L260.907 255.347L254.303 259.158Z" fill="white"/>
<path d="M264.251 264.904L257.647 261.093L264.251 257.278L270.856 261.093L264.251 264.904Z" fill="white"/>
<path d="M274.2 270.646L267.596 266.835L274.2 263.024L280.804 266.835L274.2 270.646Z" fill="white"/>
<path d="M284.148 276.392L277.544 272.581L284.148 268.766L290.753 272.581L284.148 276.392Z" fill="white"/>
<path d="M294.097 282.135L287.493 278.323L294.097 274.512L300.701 278.323L294.097 282.135Z" fill="white"/>
<path d="M304.05 287.88L297.446 284.065L304.05 280.254L310.65 284.065L304.05 287.88Z" fill="white"/>
<path d="M233.599 259.625L226.994 255.814L233.599 251.998L240.203 255.814L233.599 259.625Z" fill="white"/>
<path d="M243.547 265.371L236.943 261.556L243.547 257.745L250.151 261.556L243.547 265.371Z" fill="white"/>
<path d="M253.495 271.113L246.891 267.302L253.495 263.487L260.1 267.302L253.495 271.113Z" fill="white"/>
<path d="M263.444 276.859L256.839 273.044L263.444 269.233L270.048 273.044L263.444 276.859Z" fill="white"/>
<path d="M273.393 282.601L266.788 278.79L273.393 274.975L279.997 278.79L273.393 282.601Z" fill="white"/>
<path d="M283.345 288.347L276.741 284.532L283.345 280.721L289.945 284.532L283.345 288.347Z" fill="white"/>
<path d="M293.294 294.089L286.689 290.278L293.294 286.463L299.894 290.278L293.294 294.089Z" fill="white"/>
<path d="M222.842 265.834L216.238 262.023L222.842 258.211L229.447 262.023L222.842 265.834Z" fill="white"/>
<path d="M232.791 271.58L226.187 267.765L232.791 263.954L239.395 267.765L232.791 271.58Z" fill="white"/>
<path d="M242.74 277.322L236.135 273.511L242.74 269.7L249.344 273.511L242.74 277.322Z" fill="white"/>
<path d="M252.688 283.068L246.084 279.257L252.688 275.442L259.292 279.257L252.688 283.068Z" fill="white"/>
<path d="M262.641 288.81L256.036 284.999L262.641 281.188L269.241 284.999L262.641 288.81Z" fill="white"/>
<path d="M272.589 294.556L265.985 290.741L272.589 286.929L279.189 290.741L272.589 294.556Z" fill="white"/>
<path d="M282.538 300.298L275.933 296.487L282.538 292.672L289.142 296.487L282.538 300.298Z" fill="white"/>
<path d="M212.086 272.047L205.482 268.232L212.086 264.42L218.69 268.232L212.086 272.047Z" fill="white"/>
<path d="M222.034 277.789L215.43 273.977L222.034 270.162L228.639 273.977L222.034 277.789Z" fill="white"/>
<path d="M231.983 283.535L225.383 279.72L231.983 275.908L238.587 279.72L231.983 283.535Z" fill="white"/>
<path d="M241.936 289.277L235.327 285.466L241.931 281.65L248.536 285.466L241.936 289.277Z" fill="white"/>
<path d="M251.884 295.023L245.28 291.208L251.884 287.396L258.484 291.208L251.884 295.023Z" fill="white"/>
<path d="M261.833 300.765L255.228 296.954L261.833 293.138L268.437 296.954L261.833 300.765Z" fill="white"/>
<path d="M271.781 306.511L265.177 302.696L271.781 298.885L278.386 302.696L271.781 306.511Z" fill="white"/>
</g>
<g style="mix-blend-mode:multiply">
<path d="M352.938 299.276C352.61 303.773 349.19 308.438 342.805 312.127L289.003 343.188C276.711 350.285 258.118 351.054 247.472 344.909L187.705 310.415C182.59 307.47 180.251 303.449 180.554 299.289H180.52V302.422H180.554C180.251 306.583 182.59 310.596 187.705 313.553L247.472 348.047C258.118 354.192 276.711 353.418 289.003 346.326L342.805 315.261C349.19 311.576 352.61 306.907 352.938 302.41V302.334C352.963 301.914 352.963 301.492 352.938 301.072V299.276Z" fill="#E8EDFA"/>
</g>
<path d="M341.265 298.872C341.206 299.962 340.891 301.023 340.345 301.968C339.799 302.913 339.037 303.716 338.123 304.311C336.389 305.312 334.984 304.501 334.984 302.498C335.043 301.409 335.358 300.349 335.903 299.404C336.448 298.459 337.209 297.655 338.123 297.059C339.86 296.058 341.265 296.87 341.265 298.872Z" fill="white"/>
<path d="M331.866 304.223C333.092 302.088 333.087 299.783 331.854 299.075C330.621 298.366 328.627 299.522 327.401 301.657C326.174 303.791 326.179 306.096 327.412 306.804C328.645 307.513 330.639 306.357 331.866 304.223Z" fill="white"/>
<path d="M321.086 310.524C321.027 311.614 320.711 312.675 320.165 313.62C319.619 314.565 318.858 315.368 317.944 315.963C316.211 316.965 314.802 316.153 314.802 314.15C314.861 313.061 315.177 312 315.723 311.055C316.269 310.11 317.03 309.307 317.944 308.711C319.677 307.706 321.086 308.518 321.086 310.524Z" fill="white"/>
<path d="M342.05 328.874C343.276 326.74 343.271 324.435 342.038 323.726C340.805 323.018 338.811 324.174 337.585 326.308C336.358 328.442 336.363 330.747 337.596 331.456C338.829 332.164 340.823 331.008 342.05 328.874Z" fill="white"/>
<path d="M331.174 335.213C331.115 336.302 330.8 337.362 330.255 338.307C329.71 339.252 328.949 340.056 328.035 340.652C326.298 341.653 324.893 340.841 324.893 338.839C324.952 337.749 325.267 336.688 325.813 335.743C326.359 334.798 327.121 333.995 328.035 333.4C329.769 332.394 331.174 333.206 331.174 335.213Z" fill="white"/>
<path d="M321.086 341.034C321.027 342.125 320.712 343.186 320.166 344.131C319.62 345.077 318.859 345.881 317.944 346.477C316.211 347.479 314.802 346.667 314.802 344.664C314.861 343.574 315.176 342.513 315.722 341.567C316.268 340.622 317.029 339.818 317.944 339.221C319.677 338.216 321.086 339.032 321.086 341.034Z" fill="white"/>
<path d="M339.751 299.856C339.72 300.421 339.557 300.971 339.274 301.46C338.991 301.95 338.597 302.366 338.123 302.675C337.227 303.192 336.499 302.772 336.499 301.737C336.529 301.172 336.692 300.623 336.974 300.134C337.256 299.644 337.65 299.228 338.123 298.918C339.023 298.401 339.751 298.822 339.751 299.856Z" fill="#4CD3DC"/>
<path d="M329.659 336.087C329.628 336.651 329.465 337.199 329.183 337.688C328.901 338.177 328.508 338.593 328.036 338.902C327.135 339.419 326.408 338.998 326.408 337.963C326.438 337.399 326.602 336.849 326.885 336.36C327.167 335.87 327.562 335.454 328.036 335.145C328.932 334.628 329.659 335.048 329.659 336.087Z" fill="#4CD3DC"/>
<g style="mix-blend-mode:multiply">
<path d="M233.447 332.356L231.525 331.249V312.4L233.447 313.506V332.356Z" fill="#E8EDFA"/>
</g>
<g style="mix-blend-mode:multiply">
<path d="M228.622 329.538L226.704 328.432V309.582L228.622 310.693V329.538Z" fill="#E8EDFA"/>
</g>
<g style="mix-blend-mode:multiply">
<path d="M223.805 326.724L221.883 325.613V306.764L223.805 307.874V326.724Z" fill="#E8EDFA"/>
</g>
<g style="mix-blend-mode:multiply">
<path d="M218.981 323.905L217.062 322.794V303.945L218.981 305.055V323.905Z" fill="#E8EDFA"/>
</g>
<g style="mix-blend-mode:multiply">
<path d="M214.16 321.087L212.242 319.977V301.127L214.16 302.237V321.087Z" fill="#E8EDFA"/>
</g>
<g style="mix-blend-mode:multiply">
<path d="M233.447 362.429L231.525 361.318V342.469L233.447 343.579V362.429Z" fill="#E8EDFA"/>
</g>
<g style="mix-blend-mode:multiply">
<path d="M228.622 359.61L226.704 358.5V339.65L228.622 340.761V359.61Z" fill="#E8EDFA"/>
</g>
<g style="mix-blend-mode:multiply">
<path d="M223.805 356.792L221.883 355.682V336.832L223.805 337.943V356.792Z" fill="#E8EDFA"/>
</g>
<g style="mix-blend-mode:multiply">
<path d="M218.981 353.974L217.062 352.863V334.013L218.981 335.124V353.974Z" fill="#E8EDFA"/>
</g>
<g style="mix-blend-mode:multiply">
<path d="M214.16 351.155L212.242 350.045V331.199L214.16 332.306V351.155Z" fill="#E8EDFA"/>
</g>
<path d="M281.25 74.4275L264.251 61.6017L247.253 74.4275V67.4867L264.251 54.6609L281.25 67.4867V74.4275Z" fill="white"/>
<path d="M281.25 88.7759L264.251 75.9501L247.253 88.7759V81.8351L264.251 69.0093L281.25 81.8351V88.7759Z" fill="white"/>
<path d="M281.25 103.12L264.251 90.2946L247.253 103.12V96.1795L264.251 83.3538L281.25 96.1795V103.12Z" fill="white"/>
<path d="M281.25 117.469L264.251 104.643L247.253 117.469V110.528L264.251 97.7021L281.25 110.528V117.469Z" fill="white"/>
<path d="M281.25 131.817L264.251 118.987L247.253 131.817V124.872L264.251 112.047L281.25 124.872V131.817Z" fill="white"/>
<path d="M281.25 146.162L264.251 133.336L247.253 146.162V139.221L264.251 126.395L281.25 139.221V146.162Z" fill="white"/>
<path d="M281.25 160.51L264.251 147.68L247.253 160.51V153.565L264.251 140.739L281.25 153.565V160.51Z" fill="white"/>
<path d="M281.25 174.854L264.251 162.029L247.253 174.854V167.914L264.251 155.088L281.25 167.914V174.854Z" fill="white"/>
<path d="M281.25 189.203L264.251 176.377L247.253 189.203V182.258L264.251 169.432L281.25 182.258V189.203Z" fill="white"/>
<path d="M319.046 14.8709L306.258 5.22106L293.47 14.8709V9.64635L306.258 0.000732422L319.046 9.64635V14.8709Z" fill="white"/>
<path d="M319.046 25.6607L306.258 16.0151L293.47 25.6607V20.4404L306.258 10.7905L319.046 20.4404V25.6607Z" fill="white"/>
<path d="M319.046 36.4549L306.258 26.805L293.47 36.4549V31.2303L306.258 21.5847L319.046 31.2303V36.4549Z" fill="white"/>
<path d="M319.046 47.2447L306.258 37.599L293.47 47.2447V42.0243L306.258 32.3745L319.046 42.0243V47.2447Z" fill="white"/>
<path d="M319.046 58.0386L306.258 48.3888L293.47 58.0386V52.8141L306.258 43.1685L319.046 52.8141V58.0386Z" fill="white"/>
<path d="M319.046 68.8284L306.258 59.1828L293.47 68.8284V63.6081L306.258 53.9583L319.046 63.6081V68.8284Z" fill="white"/>
<path d="M319.046 79.6221L306.258 69.9723L293.47 79.6221V74.3976L306.258 64.752L319.046 74.3976V79.6221Z" fill="white"/>
<path d="M319.046 90.4124L306.258 80.7668L293.47 90.4124V85.1921L306.258 75.5422L319.046 85.1921V90.4124Z" fill="white"/>
<path d="M319.046 101.206L306.258 91.5563L293.47 101.206V95.9816L306.258 86.3359L319.046 95.9816V101.206Z" fill="white"/>
<path d="M234.381 46.0164L222.649 37.1658L210.921 46.0164V41.2251L222.649 32.3745L234.381 41.2251V46.0164Z" fill="white"/>
<path d="M234.381 55.9143L222.649 47.0637L210.921 55.9143V51.123L222.649 42.2725L234.381 51.123V55.9143Z" fill="white"/>
<path d="M234.381 65.8124L222.649 56.9619L210.921 65.8124V61.0212L222.649 52.1748L234.381 61.0212V65.8124Z" fill="white"/>
<path d="M234.381 75.7106L222.649 66.8601L210.921 75.7106V70.9236L222.649 62.073L234.381 70.9236V75.7106Z" fill="white"/>
<path d="M234.381 85.6083L222.649 76.762L210.921 85.6083V80.8213L222.649 71.9707L234.381 80.8213V85.6083Z" fill="white"/>
<path d="M234.381 95.5105L222.649 86.6599L210.921 95.5105V90.7192L222.649 81.8687L234.381 90.7192V95.5105Z" fill="white"/>
<path d="M234.381 105.409L222.649 96.5581L210.921 105.409V100.617L222.649 91.7668L234.381 100.617V105.409Z" fill="white"/>
<path d="M234.381 115.307L222.649 106.456L210.921 115.307V110.515L222.649 101.665L234.381 110.515V115.307Z" fill="white"/>
<path d="M234.381 125.205L222.649 116.354L210.921 125.205V120.414L222.649 111.567L234.381 120.414V125.205Z" fill="white"/>
<g style="mix-blend-mode:multiply" opacity="0.3">
<path d="M105.942 404.301C112.889 404.301 118.52 401.05 118.52 397.041C118.52 393.031 112.889 389.78 105.942 389.78C98.9958 389.78 93.3646 393.031 93.3646 397.041C93.3646 401.05 98.9958 404.301 105.942 404.301Z" fill="#DFE2F5"/>
</g>
<g style="mix-blend-mode:multiply" opacity="0.3">
<path d="M80.3075 392.859C87.2539 392.859 92.8851 389.609 92.8851 385.599C92.8851 381.589 87.2539 378.338 80.3075 378.338C73.361 378.338 67.7299 381.589 67.7299 385.599C67.7299 389.609 73.361 392.859 80.3075 392.859Z" fill="#DFE2F5"/>
</g>
<g opacity="0.9">
<path d="M89.8902 346.537C89.6144 346.423 89.3215 346.356 89.0236 346.339C88.8185 346.314 88.6159 346.272 88.4179 346.213C87.871 346.091 87.1854 346.309 86.6553 346.431L85.7762 346.633C84.8129 346.856 83.8496 347.083 82.8905 347.323C82.9283 346.722 82.9704 346.12 83.0419 345.523C83.2098 344.565 83.2859 343.593 83.2691 342.62C83.2341 341.934 83.038 341.265 82.6969 340.668C82.8429 340.194 82.8704 339.692 82.7769 339.204C82.6381 338.552 82.2384 337.972 82.1207 337.316C81.8851 336.003 82.8232 334.682 82.5666 333.374C82.4293 332.751 82.063 332.201 81.5401 331.835C81.0197 331.472 80.4106 331.256 79.7776 331.212C78.8872 331.153 77.9994 331.361 77.2286 331.811C76.4579 332.261 75.8395 332.931 75.4533 333.736C74.8728 334.998 74.9317 336.453 75.0579 337.837C75.1984 338.888 75.2365 339.951 75.1715 341.009C73.5907 342.598 72.0967 344.27 70.6957 346.019C70.3297 346.44 69.9385 346.966 69.9848 347.538C70.031 348.11 70.4812 348.539 70.906 348.913L73.7454 351.437C74.2678 351.937 74.8416 352.38 75.4575 352.758C75.6754 352.878 75.9035 352.98 76.1389 353.061C76.0649 353.617 75.9439 354.166 75.7772 354.701C75.6973 354.958 75.672 355.24 75.5711 355.484C75.4407 355.808 75.2766 356.115 75.1504 356.43C74.6071 357.707 74.1763 359.029 73.8632 360.38C73.6223 361.436 73.4523 362.507 73.3542 363.586C73.2953 364.276 73.2659 364.965 73.2659 365.659C73.2659 366.501 73.3374 367.439 73.88 368.104C74.1034 368.362 74.3805 368.569 74.6919 368.709C74.5098 369.886 74.4703 371.081 74.5741 372.268C74.6414 373.172 74.7634 374.068 74.919 374.96C75.4322 377.985 76.2062 381.043 75.7603 384.08C75.6228 384.653 75.6041 385.249 75.7057 385.83C75.9017 386.434 76.3238 386.939 76.8835 387.239C77.4372 387.535 78.0268 387.759 78.6377 387.904C78.8343 387.984 79.0519 387.995 79.256 387.937C79.601 387.79 79.6472 387.306 79.5168 386.953C79.2182 386.112 78.3516 385.649 77.8805 384.909C77.2705 383.945 77.4051 382.709 77.5481 381.577C78.0535 377.538 78.3344 373.474 78.3894 369.403C78.9068 369.437 79.4243 369.454 79.9417 369.45C79.9417 369.584 79.9164 369.719 79.908 369.87C79.8097 372.331 79.9096 374.796 80.2067 377.24C80.3581 378.624 80.539 380.004 80.7241 381.384C80.7655 381.971 80.9258 382.543 81.1952 383.066C81.5745 383.629 82.1409 384.039 82.7937 384.223C83.4424 384.404 84.1104 384.505 84.7834 384.526C84.8796 384.549 84.98 384.547 85.0756 384.522C85.1711 384.496 85.2586 384.447 85.3303 384.379C85.4649 384.185 85.3303 383.958 85.2293 383.777C85.1238 383.574 84.9999 383.381 84.8591 383.201C84.5631 382.847 84.2456 382.511 83.9084 382.195C83.3483 381.718 82.9148 381.11 82.6465 380.424C82.5176 379.928 82.489 379.41 82.5624 378.902C82.6423 378.14 82.7348 377.383 82.8316 376.622C83.1786 373.887 83.3682 371.134 83.3995 368.377C83.568 368.053 83.7088 367.715 83.8201 367.367C84.0084 366.836 84.1575 366.292 84.266 365.739C84.4711 364.639 84.553 363.518 84.51 362.399C84.4445 361.015 84.2857 359.636 84.0347 358.273L83.8454 357.217C83.7991 356.956 83.8159 356.704 83.7696 356.447C83.6476 355.778 83.471 355.122 83.349 354.457C83.0275 352.723 82.867 350.963 82.8694 349.199C83.7528 348.976 84.6362 348.745 85.5069 348.48C85.9963 348.304 86.5101 348.206 87.0297 348.19C87.4932 348.232 87.9505 348.326 88.3926 348.472C88.8364 348.617 89.31 348.646 89.7682 348.556C89.996 348.506 90.2032 348.388 90.3619 348.218C90.5206 348.047 90.6232 347.832 90.6558 347.601C90.6474 347.368 90.5703 347.142 90.434 346.953C90.2978 346.763 90.1086 346.619 89.8902 346.537ZM73.1734 348.135C72.9849 347.912 72.8794 347.632 72.8747 347.34C72.9338 347.074 73.0822 346.837 73.2953 346.667C73.7469 346.219 74.2245 345.797 74.7256 345.405C74.8716 345.704 75.0679 345.976 75.3061 346.208C75.3466 346.247 75.3902 346.282 75.4365 346.314C75.5164 346.915 75.6216 347.512 75.7351 348.106C75.9633 349.151 76.1235 350.211 76.2147 351.277C75.06 350.376 74.0364 349.318 73.1734 348.135Z" fill="url(#paint13_linear_10948_11660)"/>
<path d="M114.608 363.531C114.54 363.224 114.465 362.921 114.389 362.614C114.233 362.004 114.057 361.394 113.855 360.793C113.953 360.541 114.029 360.28 114.082 360.014C114.292 358.744 114.104 357.439 113.543 356.279C112.647 354.315 110.948 352.741 110.342 350.668C110.096 349.594 109.955 348.5 109.922 347.399C109.89 346.294 109.559 345.218 108.963 344.286C108.569 343.732 107.997 343.328 107.343 343.142C106.789 343.027 106.213 343.079 105.689 343.292C105.165 343.505 104.716 343.868 104.398 344.337C104.133 344.744 103.953 345.201 103.871 345.68C103.79 346.159 103.807 346.649 103.923 347.121C103.957 347.286 103.99 347.445 104.02 347.605C104.072 347.894 104.156 348.177 104.272 348.446C104.48 348.901 104.764 349.317 105.114 349.675C105.564 350.125 106.11 350.474 106.531 350.937C106.649 351.069 106.757 351.21 106.855 351.357C106.756 351.366 106.657 351.383 106.561 351.408C106.019 351.585 105.537 351.912 105.172 352.35C105.02 352.521 104.879 352.702 104.752 352.893C104.752 352.893 104.71 352.893 104.693 352.893C104.421 352.977 104.177 353.133 103.986 353.343C103.619 353.761 103.378 354.274 103.288 354.824C103.205 355.371 103.173 355.924 103.191 356.477V359.076C103.191 360.759 101.601 362.084 100.629 363.443C100.244 364.021 99.7814 364.543 99.2538 364.995C98.9047 365.273 98.5135 365.496 98.1517 365.761C97.777 366.01 97.4693 366.348 97.2557 366.745C97.1535 366.946 97.1036 367.169 97.111 367.394C97.1184 367.619 97.1826 367.839 97.2978 368.032C97.4947 368.26 97.7526 368.426 98.041 368.512C98.3295 368.598 98.6365 368.599 98.9257 368.516C99.6652 368.364 100.32 367.939 100.76 367.325C101.2 366.711 101.392 365.955 101.298 365.205C102.14 364.364 102.846 363.439 103.582 362.517C102.884 367.893 100.915 373.303 101.517 378.65C101.527 379.357 101.766 380.042 102.198 380.601C102.382 380.779 102.595 380.921 102.829 381.022C102.972 383.647 103.132 386.269 103.309 388.888C103.382 389.94 103.456 390.989 103.532 392.035C103.561 392.455 103.507 392.821 103.532 393.221C103.607 393.708 103.571 394.205 103.427 394.676C103.196 395.235 102.83 395.728 102.362 396.111C101.896 396.493 101.464 396.916 101.071 397.373C100.973 397.483 100.901 397.614 100.861 397.756C100.837 397.828 100.834 397.905 100.851 397.979C100.868 398.053 100.905 398.122 100.957 398.176C101.088 398.279 101.254 398.328 101.42 398.311C101.73 398.333 102.042 398.322 102.35 398.277C102.666 398.203 102.974 398.094 103.267 397.953C103.809 397.718 104.344 397.47 104.891 397.247C105.191 397.2 105.469 397.057 105.684 396.841C105.898 396.624 106.037 396.345 106.081 396.044C107.039 395.978 107.979 395.75 108.862 395.371C109.239 395.269 109.576 395.055 109.829 394.756C109.509 392.077 110.313 389.41 110.738 386.764C111.107 384.437 111.189 382.073 110.982 379.726C111.003 379.647 111.024 379.562 111.041 379.478C111.911 375.575 113.043 371.065 111.461 367.452C112.265 366.821 113.076 366.19 113.876 365.563C114.208 365.298 114.717 364.898 114.742 364.431C114.737 364.127 114.692 363.824 114.608 363.531ZM108.214 392.405C108.062 393.024 107.705 393.572 107.2 393.961C106.838 394.218 106.447 394.416 106.068 394.639C106.031 394.411 105.988 394.184 105.955 393.957C105.648 391.854 106.19 389.725 106.342 387.601C106.446 385.607 106.325 383.607 105.98 381.64C106.666 381.699 107.356 381.733 108.041 381.733H108.138C108.298 384.623 108.428 387.513 108.411 390.411C108.432 391.081 108.366 391.752 108.214 392.405ZM112.378 364.221C112.187 364.602 111.896 364.925 111.537 365.155C111.268 365.369 111.007 365.576 110.755 365.828C110.481 365.08 110.299 364.302 110.212 363.51C110.824 363.524 111.43 363.379 111.97 363.09C112.067 363.035 112.155 362.976 112.248 362.913C112.453 363.314 112.499 363.778 112.378 364.213V364.221Z" fill="url(#paint14_linear_10948_11660)"/>
</g>
<g style="mix-blend-mode:multiply" opacity="0.3">
<path d="M479.787 411.893C487.2 411.893 493.21 408.424 493.21 404.145C493.21 399.866 487.2 396.396 479.787 396.396C472.373 396.396 466.364 399.866 466.364 404.145C466.364 408.424 472.373 411.893 479.787 411.893Z" fill="#DFE2F5"/>
</g>
<path opacity="0.9" d="M489.832 375.915C489.609 375.326 489.201 374.842 489.058 374.232C488.893 373.534 488.724 372.833 488.553 372.129C488.2 370.737 487.83 369.353 487.43 367.973C487.295 367.498 487.152 367.027 487.009 366.556C487.436 365.481 487.58 364.315 487.43 363.169C487.197 361.511 486.335 360.005 485.024 358.963C484.397 358.483 483.661 358.121 483.257 357.41C482.799 356.632 482.866 355.64 483.017 354.735C483.169 353.831 483.392 352.91 483.198 352.018C483.029 351.313 482.613 350.693 482.026 350.268C481.439 349.844 480.719 349.644 479.997 349.704C478.592 349.856 477.385 351.042 476.964 352.472C476.544 353.902 476.792 355.791 477.856 356.83C477.976 356.972 478.086 357.122 478.184 357.28C477.994 357.431 477.817 357.597 477.654 357.776C477.452 357.866 477.261 357.976 477.082 358.105C476.752 358.325 476.453 358.59 476.194 358.891C475.893 359.236 475.631 359.614 475.416 360.019C474.897 361.081 474.475 362.187 474.154 363.325C473.539 365.201 472.755 367.017 471.811 368.751C471.016 370.207 470.078 371.645 468.711 372.579C468.331 372.804 467.973 373.065 467.642 373.358C467.478 373.504 467.351 373.688 467.273 373.894C467.195 374.099 467.167 374.321 467.192 374.54C467.211 374.647 467.251 374.749 467.312 374.84C467.372 374.93 467.451 375.007 467.543 375.066C467.635 375.124 467.738 375.162 467.846 375.178C467.953 375.194 468.063 375.187 468.168 375.158C468.665 374.956 468.723 374.207 469.199 373.955C469.506 373.791 469.901 373.892 470.221 373.74C470.642 373.538 470.743 373.013 470.877 372.571C471.416 370.783 473.048 369.597 474.386 368.297C474.9 367.793 475.382 367.256 475.828 366.69C475.879 367.578 475.925 368.465 475.896 369.357C475.803 372.016 475.054 374.603 474.537 377.207C474.02 379.81 473.666 382.545 474.356 385.111C474.531 385.977 474.972 386.766 475.618 387.37C476.007 387.672 476.458 387.885 476.939 387.992C477.259 388.455 477.604 388.892 477.961 389.326C478.045 389.906 478.125 390.487 478.205 391.063C478.344 392.068 478.487 393.069 478.626 394.075C478.938 395.864 479.061 397.682 478.992 399.497C478.932 400.313 478.778 401.119 478.533 401.899C478.288 402.678 477.92 403.414 477.444 404.078C477.305 404.282 477.146 404.47 476.968 404.642C476.759 404.834 476.573 405.05 476.413 405.285C476.326 405.396 476.267 405.526 476.241 405.664C476.229 405.733 476.237 405.805 476.264 405.87C476.292 405.935 476.338 405.99 476.396 406.03C476.481 406.067 476.574 406.082 476.665 406.072C477.115 406.051 477.556 405.938 477.96 405.739C478.364 405.54 478.722 405.259 479.013 404.915C479.167 404.746 479.363 404.62 479.581 404.549C479.624 404.517 479.675 404.498 479.728 404.493C479.781 404.489 479.835 404.499 479.883 404.523C479.931 404.547 479.971 404.584 479.999 404.629C480.028 404.675 480.043 404.727 480.043 404.78C480.062 404.881 480.11 404.973 480.182 405.045C480.22 405.065 480.262 405.077 480.304 405.079C480.304 405.079 480.355 405.079 480.376 405.079H480.397C480.439 405.095 480.485 405.095 480.527 405.079C480.561 405.083 480.595 405.083 480.628 405.079C480.728 405.023 480.803 404.931 480.838 404.823C480.912 404.474 480.929 404.116 480.889 403.762C481.078 402.374 481.267 400.982 481.461 399.594C481.777 397.647 481.927 395.677 481.907 393.705C482.819 394.565 483.617 395.537 484.284 396.599C484.982 397.814 485.318 399.32 484.83 400.637C484.795 400.727 484.787 400.825 484.807 400.919C484.827 401.014 484.875 401.1 484.944 401.167C485.096 401.314 485.3 401.394 485.512 401.39C485.773 401.381 486.028 401.304 486.25 401.165C486.471 401.026 486.652 400.831 486.774 400.599C487.007 400.136 487.116 399.62 487.089 399.102C487.089 398.584 487.018 398.071 487.026 397.554C487.026 397.503 487.026 397.444 487.077 397.419C487.1 397.407 487.127 397.403 487.152 397.408C487.178 397.413 487.202 397.425 487.22 397.444C487.258 397.478 487.287 397.524 487.325 397.554C487.376 397.59 487.437 397.61 487.499 397.61C487.562 397.61 487.623 397.59 487.674 397.554C487.769 397.47 487.846 397.369 487.901 397.255C487.953 397.141 488.029 397.041 488.124 396.961C488.006 396.519 487.565 396.254 487.182 396.006C486.32 395.441 485.564 394.729 484.948 393.902C483.922 392.535 483.266 390.853 481.94 389.784C481.772 389.654 481.583 389.554 481.381 389.485C481.297 389.017 481.217 388.55 481.141 388.085C481.369 388.01 481.586 387.903 481.785 387.769C482.492 387.281 482.87 386.448 483.165 385.641C484.467 382.086 484.845 378.259 484.262 374.519C484.019 372.95 483.606 371.389 483.232 369.824C483.643 369.809 484.047 369.715 484.422 369.546C484.896 369.326 485.323 369.019 485.684 368.642C486.177 369.942 486.639 371.254 487.051 372.584C487.446 373.653 487.646 374.784 487.645 375.924C487.573 376.445 487.549 376.971 487.573 377.497C487.589 377.76 487.679 378.014 487.833 378.229C487.987 378.443 488.199 378.609 488.444 378.708C488.746 378.76 489.057 378.705 489.322 378.551C489.587 378.397 489.79 378.155 489.895 377.867C490.123 377.232 490.101 376.534 489.832 375.915Z" fill="url(#paint15_linear_10948_11660)"/>
<g opacity="0.7">
<g style="mix-blend-mode:multiply" opacity="0.3">
<path d="M156.257 459.726L136.423 448.276C132.175 445.824 132.705 441.546 137.614 438.706L155.067 428.611C159.971 425.775 167.392 425.468 171.64 427.921L191.474 439.375C195.723 441.828 195.189 446.106 190.284 448.941L172.831 459.037C167.926 461.889 160.506 462.179 156.257 459.726Z" fill="#DFE2F5"/>
</g>
<path d="M194.351 422.288H182.64L171.636 415.941C167.387 413.488 159.967 413.795 155.062 416.626L145.257 422.288H133.563V431.602H133.588C133.357 433.343 134.282 435.038 136.419 436.275L156.253 447.725C160.501 450.178 167.922 449.871 172.827 447.04L190.28 436.944C192.938 435.408 194.301 433.448 194.326 431.585L194.351 422.288Z" fill="#E2E4F6"/>
<g style="mix-blend-mode:multiply">
<path d="M133.592 429.763H133.567V430.276C133.563 430.105 133.571 429.933 133.592 429.763Z" fill="#E8EDFA"/>
<path d="M190.284 435.122L172.831 445.218C167.926 448.049 160.505 448.356 156.257 445.903L136.423 434.453C134.576 433.385 133.638 431.971 133.567 430.482V431.618H133.592C133.361 433.36 134.286 435.055 136.423 436.292L156.257 447.742C160.505 450.194 167.926 449.887 172.831 447.056L190.284 436.96C192.942 435.425 194.305 433.465 194.33 431.601V429.763C194.305 431.626 192.942 433.587 190.284 435.122Z" fill="#E8EDFA"/>
</g>
<path d="M156.257 438.18L136.423 426.73C132.174 424.278 132.704 420 137.613 417.16L155.066 407.065C159.971 404.229 167.391 403.922 171.64 406.375L191.474 417.829C195.723 420.282 195.188 424.56 190.284 427.395L172.831 437.491C167.926 440.326 160.505 440.633 156.257 438.18Z" fill="white"/>
<path d="M177.921 425.005L171.893 428.488L168.662 430.356C166.062 431.858 162.121 432.039 159.87 430.722L156.009 428.497L149.341 424.644C147.095 423.344 147.373 421.072 149.972 419.566L159.227 414.216C161.826 412.718 165.764 412.533 168.018 413.858L178.535 419.932C180.81 421.232 180.524 423.508 177.921 425.005Z" fill="url(#paint16_linear_10948_11660)"/>
<g style="mix-blend-mode:multiply">
<path d="M171.892 422.254V428.488L168.662 430.356C166.062 431.858 162.121 432.039 159.87 430.722L156.009 428.497V422.288L171.892 422.254Z" fill="#E2E4F6"/>
</g>
<path d="M161.961 426.44L156.774 423.445C155.664 422.806 155.807 421.687 157.086 420.946L161.65 418.313C162.912 417.573 164.872 417.472 165.978 418.132L171.165 421.127C172.276 421.766 172.137 422.885 170.854 423.626L166.29 426.259C164.99 426.999 163.051 427.079 161.961 426.44Z" fill="white"/>
</g>
<g style="mix-blend-mode:multiply" opacity="0.3">
<path d="M454.484 404.65L437.464 389.006L410.374 379.183C407.228 378.043 403.135 378.308 400.51 379.823L370.736 397.015C355.113 406.034 362.167 426.738 367.139 429.611C372.112 432.484 407.977 436.556 423.6 427.533L453.374 410.345C455.999 408.827 456.461 406.467 454.484 404.65ZM413.437 421.669C405.865 426.048 385.581 424.967 377.748 423.487C375.186 418.965 373.306 407.258 380.895 402.875L407.055 387.769L427.045 395.021L439.601 406.559L413.437 421.669Z" fill="#DFE2F5"/>
</g>
<path d="M454.484 385.902L437.465 370.262L410.374 360.435C407.228 359.295 403.135 359.56 400.51 361.079L370.736 378.267C355.113 387.286 362.167 407.994 367.139 410.863C372.112 413.732 407.977 417.808 423.6 408.789L453.374 391.597C455.999 390.083 456.461 387.719 454.484 385.902ZM413.437 402.921C405.865 407.3 385.581 406.219 377.748 404.739C375.187 400.217 373.306 388.514 380.895 384.126L407.055 369.025L427.045 376.273L439.601 387.811L413.437 402.921Z" fill="white"/>
<path d="M427.045 376.277L407.055 369.029L380.895 384.131C375.376 387.319 374.867 394.378 375.986 399.733C376.676 396.948 378.173 394.437 380.895 392.868L407.055 377.762L427.045 385.01L433.775 391.189L439.614 387.824L427.045 376.277Z" fill="#E2E4F6"/>
<g style="mix-blend-mode:multiply">
<path d="M427.045 384.067L407.055 376.819L380.895 391.925C378.493 393.309 376.688 396.169 375.801 398.735C375.855 399.076 375.914 399.409 375.986 399.737C376.676 396.952 378.173 394.441 380.895 392.872L407.055 377.766L427.045 385.014L433.775 391.193L434.411 390.827L427.045 384.067Z" fill="#E8EDFA"/>
</g>
<path d="M453.374 391.597L423.608 408.789C419.822 410.981 414.808 412.399 409.348 413.248C400.157 415.705 384.432 414.733 377.757 413.476L377.643 413.265C372.444 412.584 368.557 411.675 367.148 410.863C364.573 409.374 361.448 403.102 361.195 396.14H361.17V403.851C361.17 404.078 361.17 404.301 361.17 404.528V404.671C361.36 411.721 364.535 418.132 367.131 419.617C372.103 422.49 407.968 426.562 423.591 417.543L453.365 400.355C454.955 399.434 455.746 398.206 455.687 396.99V388.522C455.637 389.629 454.846 390.748 453.374 391.597Z" fill="#E2E4F6"/>
<g style="mix-blend-mode:multiply">
<path d="M453.374 399.362L423.608 416.55C407.985 425.569 372.12 421.497 367.148 418.624C364.544 417.123 361.376 410.724 361.187 403.678V403.535C361.187 403.308 361.187 403.085 361.187 402.858V396.128V403.838C361.187 404.065 361.187 404.288 361.187 404.515V404.658C361.376 411.709 364.552 418.119 367.148 419.604C372.12 422.477 407.985 426.549 423.608 417.531L453.382 400.343C454.972 399.421 455.763 398.193 455.704 396.977V396.006C455.755 397.213 454.964 398.441 453.374 399.362Z" fill="#E8EDFA"/>
</g>
<defs>
<linearGradient id="paint0_linear_10948_11660" x1="490.905" y1="298.729" x2="508.816" y2="298.729" gradientUnits="userSpaceOnUse">
<stop stop-color="white"/>
<stop offset="0.06" stop-color="white"/>
<stop offset="0.28" stop-color="#DEE6FF"/>
<stop offset="1" stop-color="#DEE6FF"/>
</linearGradient>
<linearGradient id="paint1_linear_10948_11660" x1="504.783" y1="292.479" x2="505.821" y2="294.268" gradientUnits="userSpaceOnUse">
<stop stop-color="#427CE8"/>
<stop offset="0.52" stop-color="#2B64C7"/>
<stop offset="1" stop-color="#1951AD"/>
</linearGradient>
<linearGradient id="paint2_linear_10948_11660" x1="43.2186" y1="286.076" x2="229.19" y2="99.4479" gradientUnits="userSpaceOnUse">
<stop stop-color="#427CE8"/>
<stop offset="0.52" stop-color="#2B64C7"/>
<stop offset="1" stop-color="#1951AD"/>
</linearGradient>
<linearGradient id="paint3_linear_10948_11660" x1="31.9531" y1="284.397" x2="135.232" y2="97.0122" gradientUnits="userSpaceOnUse">
<stop stop-color="#DEE6FF"/>
<stop offset="0.35" stop-color="white"/>
<stop offset="0.36" stop-color="#EBF0FF"/>
<stop offset="0.57" stop-color="white"/>
<stop offset="0.6" stop-color="#EBF0FF"/>
<stop offset="0.8" stop-color="white"/>
<stop offset="1" stop-color="white"/>
</linearGradient>
<linearGradient id="paint4_linear_10948_11660" x1="209.402" y1="139.419" x2="112.004" y2="197.271" gradientUnits="userSpaceOnUse">
<stop stop-color="white"/>
<stop offset="1" stop-color="#8F8F8F"/>
</linearGradient>
<linearGradient id="paint5_linear_10948_11660" x1="396.22" y1="209.992" x2="339.532" y2="114.419" gradientUnits="userSpaceOnUse">
<stop stop-color="#DEE6FF"/>
<stop offset="0.6" stop-color="#DEE6FF"/>
<stop offset="0.8" stop-color="white"/>
<stop offset="1" stop-color="white"/>
</linearGradient>
<linearGradient id="paint6_linear_10948_11660" x1="374.74" y1="149.721" x2="320.174" y2="197.629" gradientUnits="userSpaceOnUse">
<stop stop-color="#427CE8"/>
<stop offset="0.52" stop-color="#2B64C7"/>
<stop offset="1" stop-color="#1951AD"/>
</linearGradient>
<linearGradient id="paint7_linear_10948_11660" x1="451.998" y1="242.125" x2="395.311" y2="146.557" gradientUnits="userSpaceOnUse">
<stop stop-color="#DEE6FF"/>
<stop offset="0.6" stop-color="#DEE6FF"/>
<stop offset="0.8" stop-color="white"/>
<stop offset="1" stop-color="white"/>
</linearGradient>
<linearGradient id="paint8_linear_10948_11660" x1="430.781" y1="181.856" x2="376.213" y2="229.763" gradientUnits="userSpaceOnUse">
<stop stop-color="#427CE8"/>
<stop offset="0.52" stop-color="#2B64C7"/>
<stop offset="1" stop-color="#1951AD"/>
</linearGradient>
<linearGradient id="paint9_linear_10948_11660" x1="507.781" y1="274.259" x2="451.094" y2="178.691" gradientUnits="userSpaceOnUse">
<stop stop-color="#DEE6FF"/>
<stop offset="0.6" stop-color="#DEE6FF"/>
<stop offset="0.8" stop-color="white"/>
<stop offset="1" stop-color="white"/>
</linearGradient>
<linearGradient id="paint10_linear_10948_11660" x1="486.818" y1="213.989" x2="432.248" y2="261.899" gradientUnits="userSpaceOnUse">
<stop stop-color="#427CE8"/>
<stop offset="0.52" stop-color="#2B64C7"/>
<stop offset="1" stop-color="#1951AD"/>
</linearGradient>
<linearGradient id="paint11_linear_10948_11660" x1="494.053" y1="221.68" x2="505.927" y2="225.803" gradientUnits="userSpaceOnUse">
<stop stop-color="#427CE8"/>
<stop offset="0.52" stop-color="#2B64C7"/>
<stop offset="1" stop-color="#1951AD"/>
</linearGradient>
<linearGradient id="paint12_linear_10948_11660" x1="229.711" y1="242.512" x2="271.874" y2="315.207" gradientUnits="userSpaceOnUse">
<stop stop-color="#427CE8"/>
<stop offset="0.52" stop-color="#2B64C7"/>
<stop offset="1" stop-color="#1951AD"/>
</linearGradient>
<linearGradient id="paint13_linear_10948_11660" x1="80.3076" y1="331.199" x2="80.3076" y2="387.988" gradientUnits="userSpaceOnUse">
<stop stop-color="#427CE8"/>
<stop offset="0.52" stop-color="#2B64C7"/>
<stop offset="1" stop-color="#1951AD"/>
</linearGradient>
<linearGradient id="paint14_linear_10948_11660" x1="105.942" y1="343.066" x2="105.942" y2="398.328" gradientUnits="userSpaceOnUse">
<stop stop-color="#427CE8"/>
<stop offset="0.52" stop-color="#2B64C7"/>
<stop offset="1" stop-color="#1951AD"/>
</linearGradient>
<linearGradient id="paint15_linear_10948_11660" x1="478.622" y1="349.464" x2="478.622" y2="405.681" gradientUnits="userSpaceOnUse">
<stop stop-color="#427CE8"/>
<stop offset="0.52" stop-color="#2B64C7"/>
<stop offset="1" stop-color="#1951AD"/>
</linearGradient>
<linearGradient id="paint16_linear_10948_11660" x1="147.823" y1="422.288" x2="180.074" y2="422.288" gradientUnits="userSpaceOnUse">
<stop stop-color="#70EFE5"/>
<stop offset="0.56" stop-color="#49D1DB"/>
<stop offset="1" stop-color="#2FBCD4"/>
</linearGradient>
</defs>
</svg>
