<svg width="32" height="32" viewBox="0 0 32 32" fill="none" xmlns="http://www.w3.org/2000/svg">
<path d="M31.4482 26.4827H0.551749C0.247062 26.4827 0 26.2357 0 25.931V6.06896C0 5.76427 0.247062 5.51721 0.551749 5.51721H31.4483C31.7529 5.51721 32 5.76427 32 6.06896V25.931C31.9999 26.2357 31.7529 26.4827 31.4482 26.4827Z" fill="#F5F5F5"/>
<path d="M31.9999 7.13002H0V6.06896C0 5.76427 0.247062 5.51721 0.551749 5.51721H31.4483C31.7529 5.51721 32 5.76427 32 6.06896L31.9999 7.13002Z" fill="#FF4B55"/>
<path d="M31.9999 11.9681H0V13.5809H31.9999V11.9681Z" fill="#FF4B55"/>
<path d="M31.9999 8.74255H0V10.3553H31.9999V8.74255Z" fill="#FF4B55"/>
<path d="M31.9999 16.8064H0.551749C0.247062 16.8064 0 16.5594 0 16.2547V15.1936H31.9999V16.8064Z" fill="#FF4B55"/>
<path d="M31.9999 21.645H0V23.2578H31.9999V21.645Z" fill="#FF4B55"/>
<path d="M31.4482 26.4827H0.551749C0.247062 26.4827 0 26.2357 0 25.931V24.87H31.9999V25.9311C31.9999 26.2357 31.7529 26.4827 31.4482 26.4827Z" fill="#FF4B55"/>
<path d="M31.9999 18.4194H0V20.0322H31.9999V18.4194Z" fill="#FF4B55"/>
<path d="M14.3448 5.51733H0.551749C0.247062 5.51733 0 5.76433 0 6.06902V16.2546C0 16.5593 0.247062 16.8064 0.551749 16.8064H14.3448C14.6495 16.8064 14.8966 16.5593 14.8966 16.2546V6.06902C14.8965 5.76433 14.6495 5.51733 14.3448 5.51733Z" fill="#41479B"/>
<path d="M1.5511 6.78362L1.67322 7.14987L2.05929 7.1528C2.10929 7.15324 2.12997 7.21699 2.08979 7.24668L1.77922 7.47605L1.89572 7.84411C1.91085 7.89174 1.85654 7.93124 1.81585 7.90211L1.50179 7.67768L1.18772 7.90218C1.14704 7.93124 1.09285 7.8918 1.10785 7.84418L1.22435 7.47612L0.913788 7.24674C0.873601 7.21699 0.894288 7.1533 0.944288 7.15287L1.33035 7.14993L1.45247 6.78368C1.46822 6.73618 1.53522 6.73618 1.5511 6.78362Z" fill="#F5F5F5"/>
<path d="M1.5511 8.69946L1.67322 9.06571L2.05929 9.06865C2.10929 9.06909 2.12997 9.13284 2.08979 9.16253L1.77922 9.3919L1.89572 9.75996C1.91085 9.80759 1.85654 9.84709 1.81585 9.81796L1.50179 9.59352L1.18772 9.81802C1.14704 9.84709 1.09285 9.80765 1.10785 9.76002L1.22435 9.39196L0.913788 9.16259C0.873601 9.13284 0.894288 9.06915 0.944288 9.06871L1.33035 9.06578L1.45247 8.69953C1.46822 8.65209 1.53522 8.65209 1.5511 8.69946Z" fill="#F5F5F5"/>
<path d="M1.5511 10.6154L1.67322 10.9816L2.05929 10.9845C2.10929 10.985 2.12997 11.0487 2.08979 11.0784L1.77922 11.3078L1.89572 11.6759C1.91085 11.7235 1.85654 11.763 1.81585 11.7339L1.50179 11.5094L1.18772 11.7339C1.14704 11.763 1.09285 11.7235 1.10785 11.6759L1.22435 11.3079L0.913788 11.0785C0.873601 11.0487 0.894288 10.985 0.944288 10.9846L1.33035 10.9817L1.45247 10.6154C1.46822 10.568 1.53522 10.568 1.5511 10.6154Z" fill="#F5F5F5"/>
<path d="M1.5511 12.5313L1.67322 12.8975L2.05929 12.9005C2.10929 12.9009 2.12997 12.9647 2.08979 12.9944L1.77922 13.2237L1.89572 13.5918C1.91085 13.6394 1.85654 13.6789 1.81585 13.6498L1.50179 13.4254L1.18772 13.6499C1.14704 13.6789 1.09285 13.6395 1.10785 13.5919L1.22435 13.2238L0.913788 12.9944C0.873601 12.9647 0.894288 12.901 0.944288 12.9005L1.33035 12.8976L1.45247 12.5314C1.46822 12.4839 1.53522 12.4839 1.5511 12.5313Z" fill="#F5F5F5"/>
<path d="M1.5511 14.4472L1.67322 14.8135L2.05929 14.8164C2.10929 14.8169 2.12997 14.8806 2.08979 14.9103L1.77922 15.1397L1.89572 15.5077C1.91085 15.5554 1.85654 15.5949 1.81585 15.5657L1.50179 15.3413L1.18772 15.5658C1.14704 15.5949 1.09285 15.5554 1.10785 15.5078L1.22435 15.1397L0.913788 14.9104C0.873601 14.8806 0.894288 14.8169 0.944288 14.8165L1.33035 14.8136L1.45247 14.4473C1.46822 14.3997 1.53522 14.3997 1.5511 14.4472Z" fill="#F5F5F5"/>
<path d="M3.03938 7.72291L3.16151 8.08916L3.54757 8.0921C3.59757 8.09253 3.61825 8.15628 3.57807 8.18597L3.2675 8.41535L3.384 8.78341C3.39913 8.83103 3.34482 8.87053 3.30413 8.84141L2.99007 8.61691L2.67601 8.84141C2.63532 8.87047 2.58113 8.83103 2.59613 8.78341L2.71263 8.41535L2.40207 8.18597C2.36188 8.15622 2.38257 8.09253 2.43257 8.0921L2.81863 8.08916L2.94076 7.72291C2.95644 7.67553 3.02357 7.67553 3.03938 7.72291Z" fill="#F5F5F5"/>
<path d="M3.03938 9.63885L3.16151 10.0051L3.54757 10.008C3.59757 10.0085 3.61825 10.0722 3.57807 10.1019L3.2675 10.3313L3.384 10.6993C3.39913 10.747 3.34482 10.7865 3.30413 10.7573L2.99007 10.5328L2.67601 10.7573C2.63532 10.7864 2.58113 10.747 2.59613 10.6993L2.71263 10.3313L2.40207 10.1019C2.36188 10.0722 2.38257 10.0085 2.43257 10.008L2.81863 10.0051L2.94076 9.63885C2.95644 9.59141 3.02357 9.59141 3.03938 9.63885Z" fill="#F5F5F5"/>
<path d="M3.03938 11.5547L3.16151 11.921L3.54757 11.9239C3.59757 11.9244 3.61825 11.9881 3.57807 12.0178L3.2675 12.2472L3.384 12.6152C3.39913 12.6629 3.34482 12.7024 3.30413 12.6732L2.99007 12.4487L2.67601 12.6732C2.63532 12.7023 2.58113 12.6629 2.59613 12.6152L2.71263 12.2472L2.40207 12.0178C2.36188 11.9881 2.38257 11.9244 2.43257 11.9239L2.81863 11.921L2.94076 11.5547C2.95644 11.5073 3.02357 11.5073 3.03938 11.5547Z" fill="#F5F5F5"/>
<path d="M3.03938 13.4706L3.16151 13.8368L3.54757 13.8398C3.59757 13.8402 3.61825 13.904 3.57807 13.9337L3.2675 14.163L3.384 14.5311C3.39913 14.5787 3.34482 14.6182 3.30413 14.5891L2.99007 14.3646L2.67601 14.5891C2.63532 14.6181 2.58113 14.5787 2.59613 14.5311L2.71263 14.163L2.40207 13.9337C2.36188 13.9039 2.38257 13.8402 2.43257 13.8398L2.81863 13.8368L2.94076 13.4706C2.95644 13.4232 3.02357 13.4232 3.03938 13.4706Z" fill="#F5F5F5"/>
<path d="M4.52571 6.78362L4.64783 7.14987L5.0339 7.15281C5.08389 7.15325 5.10458 7.217 5.0644 7.24669L4.75383 7.47606L4.87033 7.84412C4.88546 7.89175 4.83115 7.93125 4.79046 7.90212L4.4764 7.67762L4.16233 7.90212C4.12165 7.93118 4.06746 7.89175 4.08246 7.84412L4.19896 7.47606L3.8884 7.24669C3.84821 7.21694 3.8689 7.15325 3.9189 7.15281L4.30496 7.14987L4.42708 6.78362C4.44283 6.73619 4.5099 6.73619 4.52571 6.78362Z" fill="#F5F5F5"/>
<path d="M4.52571 8.69947L4.64783 9.06572L5.0339 9.06866C5.08389 9.0691 5.10458 9.13285 5.0644 9.16253L4.75383 9.39191L4.87033 9.75997C4.88546 9.80759 4.83115 9.84709 4.79046 9.81797L4.4764 9.59347L4.16233 9.81797C4.12165 9.84703 4.06746 9.80759 4.08246 9.75997L4.19896 9.39191L3.8884 9.16253C3.84821 9.13278 3.8689 9.0691 3.9189 9.06866L4.30496 9.06572L4.42708 8.69947C4.44283 8.6521 4.5099 8.6521 4.52571 8.69947Z" fill="#F5F5F5"/>
<path d="M4.52571 10.6154L4.64783 10.9816L5.0339 10.9846C5.08389 10.985 5.10458 11.0487 5.0644 11.0784L4.75383 11.3078L4.87033 11.6759C4.88546 11.7235 4.83115 11.763 4.79046 11.7339L4.4764 11.5094L4.16233 11.7339C4.12165 11.7629 4.06746 11.7235 4.08246 11.6759L4.19896 11.3078L3.8884 11.0784C3.84821 11.0487 3.8689 10.985 3.9189 10.9846L4.30496 10.9816L4.42708 10.6154C4.44283 10.568 4.5099 10.568 4.52571 10.6154Z" fill="#F5F5F5"/>
<path d="M4.52571 12.5313L4.64783 12.8976L5.0339 12.9005C5.08389 12.9009 5.10458 12.9647 5.0644 12.9944L4.75383 13.2237L4.87033 13.5918C4.88546 13.6394 4.83115 13.6789 4.79046 13.6498L4.4764 13.4253L4.16233 13.6498C4.12165 13.6789 4.06746 13.6394 4.08246 13.5918L4.19896 13.2237L3.8884 12.9944C3.84821 12.9646 3.8689 12.9009 3.9189 12.9005L4.30496 12.8976L4.42708 12.5313C4.44283 12.4839 4.5099 12.4839 4.52571 12.5313Z" fill="#F5F5F5"/>
<path d="M4.52571 14.4472L4.64783 14.8135L5.0339 14.8164C5.08389 14.8169 5.10458 14.8806 5.0644 14.9103L4.75383 15.1397L4.87033 15.5077C4.88546 15.5554 4.83115 15.5949 4.79046 15.5657L4.4764 15.3412L4.16233 15.5657C4.12165 15.5948 4.06746 15.5554 4.08246 15.5077L4.19896 15.1397L3.8884 14.9103C3.84821 14.8806 3.8689 14.8169 3.9189 14.8164L4.30496 14.8135L4.42708 14.4472C4.44283 14.3997 4.5099 14.3997 4.52571 14.4472Z" fill="#F5F5F5"/>
<path d="M6.01204 7.72291L6.13416 8.08916L6.52022 8.0921C6.57022 8.09253 6.59091 8.15628 6.55072 8.18597L6.24016 8.41535L6.35666 8.78341C6.37179 8.83103 6.31747 8.87053 6.27679 8.84141L5.96272 8.61691L5.64866 8.84141C5.60798 8.87047 5.55379 8.83103 5.56879 8.78341L5.68529 8.41535L5.37473 8.18597C5.33454 8.15622 5.35523 8.09253 5.40523 8.0921L5.79129 8.08916L5.91341 7.72291C5.9291 7.67553 5.99622 7.67553 6.01204 7.72291Z" fill="#F5F5F5"/>
<path d="M6.01204 9.63885L6.13416 10.0051L6.52022 10.008C6.57022 10.0085 6.59091 10.0722 6.55072 10.1019L6.24016 10.3313L6.35666 10.6993C6.37179 10.747 6.31747 10.7865 6.27679 10.7573L5.96272 10.5328L5.64866 10.7573C5.60798 10.7864 5.55379 10.747 5.56879 10.6993L5.68529 10.3313L5.37473 10.1019C5.33454 10.0722 5.35523 10.0085 5.40523 10.008L5.79129 10.0051L5.91341 9.63885C5.9291 9.59141 5.99622 9.59141 6.01204 9.63885Z" fill="#F5F5F5"/>
<path d="M6.01204 11.5547L6.13416 11.921L6.52022 11.9239C6.57022 11.9244 6.59091 11.9881 6.55072 12.0178L6.24016 12.2472L6.35666 12.6152C6.37179 12.6629 6.31747 12.7024 6.27679 12.6732L5.96272 12.4487L5.64866 12.6732C5.60798 12.7023 5.55379 12.6629 5.56879 12.6152L5.68529 12.2472L5.37473 12.0178C5.33454 11.9881 5.35523 11.9244 5.40523 11.9239L5.79129 11.921L5.91341 11.5547C5.9291 11.5073 5.99622 11.5073 6.01204 11.5547Z" fill="#F5F5F5"/>
<path d="M6.01204 13.4706L6.13416 13.8368L6.52022 13.8398C6.57022 13.8402 6.59091 13.904 6.55072 13.9337L6.24016 14.163L6.35666 14.5311C6.37179 14.5787 6.31747 14.6182 6.27679 14.5891L5.96272 14.3646L5.64866 14.5891C5.60798 14.6181 5.55379 14.5787 5.56879 14.5311L5.68529 14.163L5.37473 13.9337C5.33454 13.9039 5.35523 13.8402 5.40523 13.8398L5.79129 13.8368L5.91341 13.4706C5.9291 13.4232 5.99622 13.4232 6.01204 13.4706Z" fill="#F5F5F5"/>
<path d="M7.50038 6.78362L7.6225 7.14987L8.00857 7.15281C8.05857 7.15325 8.07925 7.217 8.03907 7.24669L7.7285 7.47606L7.845 7.84412C7.86013 7.89175 7.80582 7.93125 7.76513 7.90212L7.45101 7.67762L7.13694 7.90212C7.09626 7.93118 7.04207 7.89175 7.05707 7.84412L7.17357 7.47606L6.86301 7.24669C6.82282 7.21694 6.84351 7.15325 6.89351 7.15281L7.27957 7.14987L7.40169 6.78362C7.41751 6.73619 7.48457 6.73619 7.50038 6.78362Z" fill="#F5F5F5"/>
<path d="M7.50038 8.69947L7.6225 9.06572L8.00857 9.06866C8.05857 9.0691 8.07925 9.13285 8.03907 9.16253L7.7285 9.39191L7.845 9.75997C7.86013 9.80759 7.80582 9.84709 7.76513 9.81797L7.45101 9.59347L7.13694 9.81797C7.09626 9.84703 7.04207 9.80759 7.05707 9.75997L7.17357 9.39191L6.86301 9.16253C6.82282 9.13278 6.84351 9.0691 6.89351 9.06866L7.27957 9.06572L7.40169 8.69947C7.41751 8.6521 7.48457 8.6521 7.50038 8.69947Z" fill="#F5F5F5"/>
<path d="M7.50038 10.6154L7.6225 10.9816L8.00857 10.9846C8.05857 10.985 8.07925 11.0487 8.03907 11.0784L7.7285 11.3078L7.845 11.6759C7.86013 11.7235 7.80582 11.763 7.76513 11.7339L7.45101 11.5094L7.13694 11.7339C7.09626 11.7629 7.04207 11.7235 7.05707 11.6759L7.17357 11.3078L6.86301 11.0784C6.82282 11.0487 6.84351 10.985 6.89351 10.9846L7.27957 10.9816L7.40169 10.6154C7.41751 10.568 7.48457 10.568 7.50038 10.6154Z" fill="#F5F5F5"/>
<path d="M7.50038 12.5313L7.6225 12.8976L8.00857 12.9005C8.05857 12.9009 8.07925 12.9647 8.03907 12.9944L7.7285 13.2237L7.845 13.5918C7.86013 13.6394 7.80582 13.6789 7.76513 13.6498L7.45101 13.4253L7.13694 13.6498C7.09626 13.6789 7.04207 13.6394 7.05707 13.5918L7.17357 13.2237L6.86301 12.9944C6.82282 12.9646 6.84351 12.9009 6.89351 12.9005L7.27957 12.8976L7.40169 12.5313C7.41751 12.4839 7.48457 12.4839 7.50038 12.5313Z" fill="#F5F5F5"/>
<path d="M7.50038 14.4472L7.6225 14.8135L8.00857 14.8164C8.05857 14.8169 8.07925 14.8806 8.03907 14.9103L7.7285 15.1397L7.845 15.5077C7.86013 15.5554 7.80582 15.5949 7.76513 15.5657L7.45101 15.3412L7.13694 15.5657C7.09626 15.5948 7.04207 15.5554 7.05707 15.5077L7.17357 15.1397L6.86301 14.9103C6.82282 14.8806 6.84351 14.8169 6.89351 14.8164L7.27957 14.8135L7.40169 14.4472C7.41751 14.3997 7.48457 14.3997 7.50038 14.4472Z" fill="#F5F5F5"/>
<path d="M8.98665 7.72291L9.10877 8.08916L9.49483 8.0921C9.54483 8.09253 9.56552 8.15628 9.52533 8.18597L9.21477 8.41535L9.33127 8.78341C9.3464 8.83103 9.29208 8.87053 9.2514 8.84141L8.93733 8.61691L8.62327 8.84141C8.58258 8.87047 8.5284 8.83103 8.5434 8.78341L8.6599 8.41535L8.34933 8.18597C8.30915 8.15622 8.32984 8.09253 8.37984 8.0921L8.7659 8.08916L8.88802 7.72291C8.90383 7.67553 8.97083 7.67553 8.98665 7.72291Z" fill="#F5F5F5"/>
<path d="M8.98665 9.63885L9.10877 10.0051L9.49483 10.008C9.54483 10.0085 9.56552 10.0722 9.52533 10.1019L9.21477 10.3313L9.33127 10.6993C9.3464 10.747 9.29208 10.7865 9.2514 10.7573L8.93733 10.5328L8.62327 10.7573C8.58258 10.7864 8.5284 10.747 8.5434 10.6993L8.6599 10.3313L8.34933 10.1019C8.30915 10.0722 8.32984 10.0085 8.37984 10.008L8.7659 10.0051L8.88802 9.63885C8.90383 9.59141 8.97083 9.59141 8.98665 9.63885Z" fill="#F5F5F5"/>
<path d="M8.98665 11.5547L9.10877 11.921L9.49483 11.9239C9.54483 11.9244 9.56552 11.9881 9.52533 12.0178L9.21477 12.2472L9.33127 12.6152C9.3464 12.6629 9.29208 12.7024 9.2514 12.6732L8.93733 12.4487L8.62327 12.6732C8.58258 12.7023 8.5284 12.6629 8.5434 12.6152L8.6599 12.2472L8.34933 12.0178C8.30915 11.9881 8.32984 11.9244 8.37984 11.9239L8.7659 11.921L8.88802 11.5547C8.90383 11.5073 8.97083 11.5073 8.98665 11.5547Z" fill="#F5F5F5"/>
<path d="M8.98665 13.4706L9.10877 13.8368L9.49483 13.8398C9.54483 13.8402 9.56552 13.904 9.52533 13.9337L9.21477 14.163L9.33127 14.5311C9.3464 14.5787 9.29208 14.6182 9.2514 14.5891L8.93733 14.3646L8.62327 14.5891C8.58258 14.6181 8.5284 14.5787 8.5434 14.5311L8.6599 14.163L8.34933 13.9337C8.30915 13.9039 8.32984 13.8402 8.37984 13.8398L8.7659 13.8368L8.88802 13.4706C8.90383 13.4232 8.97083 13.4232 8.98665 13.4706Z" fill="#F5F5F5"/>
<path d="M10.473 6.78362L10.5951 7.14987L10.9812 7.15281C11.0312 7.15325 11.0518 7.217 11.0117 7.24669L10.7011 7.47606L10.8176 7.84412C10.8327 7.89175 10.7784 7.93125 10.7377 7.90212L10.4237 7.67762L10.1096 7.90212C10.0689 7.93118 10.0147 7.89175 10.0297 7.84412L10.1462 7.47606L9.83566 7.24669C9.79548 7.21694 9.81616 7.15325 9.86616 7.15281L10.2522 7.14987L10.3743 6.78362C10.39 6.73619 10.4572 6.73619 10.473 6.78362Z" fill="#F5F5F5"/>
<path d="M10.473 8.69947L10.5951 9.06572L10.9812 9.06866C11.0312 9.0691 11.0518 9.13285 11.0117 9.16253L10.7011 9.39191L10.8176 9.75997C10.8327 9.80759 10.7784 9.84709 10.7377 9.81797L10.4237 9.59347L10.1096 9.81797C10.0689 9.84703 10.0147 9.80759 10.0297 9.75997L10.1462 9.39191L9.83566 9.16253C9.79548 9.13278 9.81616 9.0691 9.86616 9.06866L10.2522 9.06572L10.3743 8.69947C10.39 8.6521 10.4572 8.6521 10.473 8.69947Z" fill="#F5F5F5"/>
<path d="M10.473 10.6154L10.5951 10.9816L10.9812 10.9846C11.0312 10.985 11.0518 11.0487 11.0117 11.0784L10.7011 11.3078L10.8176 11.6759C10.8327 11.7235 10.7784 11.763 10.7377 11.7339L10.4237 11.5094L10.1096 11.7339C10.0689 11.7629 10.0147 11.7235 10.0297 11.6759L10.1462 11.3078L9.83566 11.0784C9.79548 11.0487 9.81616 10.985 9.86616 10.9846L10.2522 10.9816L10.3743 10.6154C10.39 10.568 10.4572 10.568 10.473 10.6154Z" fill="#F5F5F5"/>
<path d="M10.473 12.5313L10.5951 12.8976L10.9812 12.9005C11.0312 12.9009 11.0518 12.9647 11.0117 12.9944L10.7011 13.2237L10.8176 13.5918C10.8327 13.6394 10.7784 13.6789 10.7377 13.6498L10.4237 13.4253L10.1096 13.6498C10.0689 13.6789 10.0147 13.6394 10.0297 13.5918L10.1462 13.2237L9.83566 12.9944C9.79548 12.9646 9.81616 12.9009 9.86616 12.9005L10.2522 12.8976L10.3743 12.5313C10.39 12.4839 10.4572 12.4839 10.473 12.5313Z" fill="#F5F5F5"/>
<path d="M10.473 14.4472L10.5951 14.8135L10.9812 14.8164C11.0312 14.8169 11.0518 14.8806 11.0117 14.9103L10.7011 15.1397L10.8176 15.5077C10.8327 15.5554 10.7784 15.5949 10.7377 15.5657L10.4237 15.3412L10.1096 15.5657C10.0689 15.5948 10.0147 15.5554 10.0297 15.5077L10.1462 15.1397L9.83566 14.9103C9.79548 14.8806 9.81616 14.8169 9.86616 14.8164L10.2522 14.8135L10.3743 14.4472C10.39 14.3997 10.4572 14.3997 10.473 14.4472Z" fill="#F5F5F5"/>
<path d="M11.9613 7.72291L12.0834 8.08916L12.4694 8.0921C12.5194 8.09253 12.5401 8.15628 12.4999 8.18597L12.1894 8.41535L12.3059 8.78341C12.321 8.83103 12.2667 8.87053 12.226 8.84141L11.9119 8.61691L11.5979 8.84141C11.5572 8.87047 11.503 8.83103 11.518 8.78341L11.6345 8.41535L11.3239 8.18597C11.2838 8.15622 11.3044 8.09253 11.3544 8.0921L11.7405 8.08916L11.8626 7.72291C11.8784 7.67553 11.9455 7.67553 11.9613 7.72291Z" fill="#F5F5F5"/>
<path d="M11.9613 9.63885L12.0834 10.0051L12.4694 10.008C12.5194 10.0085 12.5401 10.0722 12.4999 10.1019L12.1894 10.3313L12.3059 10.6993C12.321 10.747 12.2667 10.7865 12.226 10.7573L11.9119 10.5328L11.5979 10.7573C11.5572 10.7864 11.503 10.747 11.518 10.6993L11.6345 10.3313L11.3239 10.1019C11.2838 10.0722 11.3044 10.0085 11.3544 10.008L11.7405 10.0051L11.8626 9.63885C11.8784 9.59141 11.9455 9.59141 11.9613 9.63885Z" fill="#F5F5F5"/>
<path d="M11.9613 11.5547L12.0834 11.921L12.4694 11.9239C12.5194 11.9244 12.5401 11.9881 12.4999 12.0178L12.1894 12.2472L12.3059 12.6152C12.321 12.6629 12.2667 12.7024 12.226 12.6732L11.9119 12.4487L11.5979 12.6732C11.5572 12.7023 11.503 12.6629 11.518 12.6152L11.6345 12.2472L11.3239 12.0178C11.2838 11.9881 11.3044 11.9244 11.3544 11.9239L11.7405 11.921L11.8626 11.5547C11.8784 11.5073 11.9455 11.5073 11.9613 11.5547Z" fill="#F5F5F5"/>
<path d="M11.9613 13.4706L12.0834 13.8368L12.4694 13.8398C12.5194 13.8402 12.5401 13.904 12.4999 13.9337L12.1894 14.163L12.3059 14.5311C12.321 14.5787 12.2667 14.6182 12.226 14.5891L11.9119 14.3646L11.5979 14.5891C11.5572 14.6181 11.503 14.5787 11.518 14.5311L11.6345 14.163L11.3239 13.9337C11.2838 13.9039 11.3044 13.8402 11.3544 13.8398L11.7405 13.8368L11.8626 13.4706C11.8784 13.4232 11.9455 13.4232 11.9613 13.4706Z" fill="#F5F5F5"/>
<path d="M13.4476 6.78362L13.5697 7.14987L13.9558 7.15281C14.0058 7.15325 14.0265 7.217 13.9863 7.24669L13.6757 7.47606L13.7922 7.84412C13.8073 7.89175 13.753 7.93125 13.7123 7.90212L13.3983 7.67762L13.0842 7.90212C13.0435 7.93118 12.9893 7.89175 13.0043 7.84412L13.1208 7.47606L12.8103 7.24669C12.7701 7.21694 12.7908 7.15325 12.8408 7.15281L13.2268 7.14987L13.349 6.78362C13.3647 6.73619 13.4317 6.73619 13.4476 6.78362Z" fill="#F5F5F5"/>
<path d="M13.4476 8.69947L13.5697 9.06572L13.9558 9.06866C14.0058 9.0691 14.0265 9.13285 13.9863 9.16253L13.6757 9.39191L13.7922 9.75997C13.8073 9.80759 13.753 9.84709 13.7123 9.81797L13.3983 9.59347L13.0842 9.81797C13.0435 9.84703 12.9893 9.80759 13.0043 9.75997L13.1208 9.39191L12.8103 9.16253C12.7701 9.13278 12.7908 9.0691 12.8408 9.06866L13.2268 9.06572L13.349 8.69947C13.3647 8.6521 13.4317 8.6521 13.4476 8.69947Z" fill="#F5F5F5"/>
<path d="M13.4476 10.6154L13.5697 10.9816L13.9558 10.9846C14.0058 10.985 14.0265 11.0487 13.9863 11.0784L13.6757 11.3078L13.7922 11.6759C13.8073 11.7235 13.753 11.763 13.7123 11.7339L13.3983 11.5094L13.0842 11.7339C13.0435 11.7629 12.9893 11.7235 13.0043 11.6759L13.1208 11.3078L12.8103 11.0784C12.7701 11.0487 12.7908 10.985 12.8408 10.9846L13.2268 10.9816L13.349 10.6154C13.3647 10.568 13.4317 10.568 13.4476 10.6154Z" fill="#F5F5F5"/>
<path d="M13.4476 12.5313L13.5697 12.8976L13.9558 12.9005C14.0058 12.9009 14.0265 12.9647 13.9863 12.9944L13.6757 13.2237L13.7922 13.5918C13.8073 13.6394 13.753 13.6789 13.7123 13.6498L13.3983 13.4253L13.0842 13.6498C13.0435 13.6789 12.9893 13.6394 13.0043 13.5918L13.1208 13.2237L12.8103 12.9944C12.7701 12.9646 12.7908 12.9009 12.8408 12.9005L13.2268 12.8976L13.349 12.5313C13.3647 12.4839 13.4317 12.4839 13.4476 12.5313Z" fill="#F5F5F5"/>
<path d="M13.4476 14.4472L13.5697 14.8135L13.9558 14.8164C14.0058 14.8169 14.0265 14.8806 13.9863 14.9103L13.6757 15.1397L13.7922 15.5077C13.8073 15.5554 13.753 15.5949 13.7123 15.5657L13.3983 15.3412L13.0842 15.5657C13.0435 15.5948 12.9893 15.5554 13.0043 15.5077L13.1208 15.1397L12.8103 14.9103C12.7701 14.8806 12.7908 14.8169 12.8408 14.8164L13.2268 14.8135L13.349 14.4472C13.3647 14.3997 13.4317 14.3997 13.4476 14.4472Z" fill="#F5F5F5"/>
</svg>
