<svg width="180" height="56" viewBox="0 0 180 56" fill="none" xmlns="http://www.w3.org/2000/svg">
<path d="M22.3501 25.0616V28.4987C22.3501 30.3452 22.2495 31.433 22.0484 31.7621C21.9753 32.2252 21.6188 32.9474 20.9789 33.9285C20.3695 34.6842 19.7936 35.251 19.2512 35.6288C18.0141 36.5247 16.5789 36.9817 14.9457 37H6.00554L5.97811 33.1058H15.2747C16.3047 33.1058 17.2005 32.5299 17.9623 31.3781C18.2913 30.9028 18.4559 30.0618 18.4559 28.8552V25.0341L22.3501 25.0616ZM22.3501 28.8552C22.3501 30.0618 22.5146 30.9028 22.8437 31.3781C23.6055 32.5299 24.5013 33.1058 25.5312 33.1058H26.2351L26.2077 37H25.8603C24.2271 36.9817 22.7919 36.5247 21.5548 35.6288C21.0124 35.251 20.4365 34.6842 19.8271 33.9285C19.1872 32.9474 18.8307 32.2252 18.7576 31.7621C18.5564 31.433 18.4559 30.3452 18.4559 28.4987L22.3501 28.8552ZM11.8011 25.9757C11.7706 25.9757 11.7523 25.9574 11.7462 25.9208V22.0815C11.7462 22.0449 11.7645 22.0267 11.8011 22.0267H15.5581C15.5947 22.0267 15.613 22.0449 15.613 22.0815V25.9208C15.613 25.9513 15.5947 25.9696 15.5581 25.9757H11.8011ZM7.77893 25.9757C7.74846 25.9757 7.73018 25.9574 7.72409 25.9208V22.0815C7.72409 22.0449 7.74237 22.0267 7.77893 22.0267H11.536C11.5725 22.0267 11.5908 22.0449 11.5908 22.0815V25.9208C11.5908 25.9513 11.5725 25.9696 11.536 25.9757H7.77893ZM48.4391 25.0616V28.4987C48.4391 30.3452 48.3751 31.436 48.2472 31.7712C48.1009 32.2283 47.7078 32.9474 47.0679 33.9285C46.4585 34.6842 45.8826 35.251 45.3402 35.6288C44.1031 36.5247 42.668 36.9817 41.0347 37H31.8204L36.912 33.1058H41.3638C42.3937 33.1058 43.2896 32.5299 44.0513 31.3781C44.3804 30.9028 44.545 30.0618 44.545 28.8552V25.0341L48.4391 25.0616ZM41.766 25.0616V28.4987C41.766 30.3452 41.702 31.4574 41.5741 31.8352C41.4278 32.2496 41.0347 32.9474 40.3948 33.9285C39.7854 34.6842 39.2095 35.251 38.6672 35.6288C37.43 36.5247 35.9949 36.9817 34.3616 37H26.6099L30.2389 33.1058H34.6907C35.7206 33.1058 36.6165 32.5299 37.3782 31.3781C37.7073 30.9028 37.8719 30.0618 37.8719 28.8552V25.0341L41.766 25.0616ZM34.8187 25.0616V28.4987C34.8187 30.3452 34.7486 31.4696 34.6084 31.8718C34.4744 32.2618 34.0874 32.9474 33.4475 33.9285C32.8381 34.6842 32.2622 35.251 31.7198 35.6288C30.4827 36.5247 29.0475 36.9817 27.4143 37H25.97L25.9426 33.1058H27.7434C28.7733 33.1058 29.6691 32.5299 30.4309 31.3781C30.76 30.9028 30.9245 30.0618 30.9245 28.8552V25.0341L34.8187 25.0616ZM51.2912 18.7907H55.1579C55.1945 18.7968 55.2128 18.815 55.2128 18.8455V36.9452C55.2128 36.9817 55.1945 37 55.1579 37H51.3186C51.282 37 51.2638 36.9817 51.2638 36.9452C51.2455 25.4089 51.2363 19.3666 51.2363 18.8181L51.2912 18.7907ZM56.1726 37H54.8654V33.1058H56.1726V37ZM60.1765 22.3009L61.9042 24.0012H69.2263C71.0728 24.0012 72.1423 24.0926 72.4349 24.2754C72.9041 24.3973 73.4983 24.6898 74.2174 25.153C76.0456 26.579 76.9598 28.389 76.9598 30.5829C76.9598 32.3136 76.2376 33.8859 74.7933 35.2997C73.6354 36.3784 71.7615 36.9452 69.1714 37H55.7613L55.7338 33.051C55.7399 33.0144 55.7582 32.9961 55.7887 32.9961H58.6956L58.7779 32.859C58.4488 32.079 58.2842 31.2837 58.2842 30.4732C58.2842 29.3579 58.5768 28.3433 59.1618 27.4291L57.105 25.3724L60.1765 22.3009ZM62.0961 30.4183V30.5829C62.0961 31.625 62.6629 32.4202 63.7964 32.9687L63.9335 32.9961H65.387C65.7404 32.9961 66.1975 32.6853 66.7582 32.0637C67.1055 31.6067 67.2792 31.0491 67.2792 30.3909C67.2792 29.5377 66.813 28.8064 65.8806 28.197C65.4967 27.9959 65.0853 27.8953 64.6465 27.8953C63.6044 27.8953 62.8091 28.4529 62.2607 29.5682C62.151 29.8851 62.0961 30.1685 62.0961 30.4183ZM69.6925 27.9228C70.1313 28.8186 70.3507 29.7144 70.3507 30.6103C70.3507 31.5 70.1313 32.341 69.6925 33.1333H70.954C72.2216 33.1333 73.09 32.5299 73.5592 31.3233C73.6324 31.0856 73.6689 30.8571 73.6689 30.6377V30.4183C73.6689 29.5469 73.2301 28.8247 72.3526 28.2518C72.0174 28.0325 71.4964 27.9228 70.7894 27.9228H69.6925Z" fill="black"/>
<path d="M95.9644 25.0981H96.8419L96.8694 29.0197C96.8694 29.0563 96.8511 29.0746 96.8145 29.0746H94.84C93.9625 29.0746 93.3744 29.23 93.0758 29.5408C92.6614 29.9795 92.4541 30.4457 92.4541 30.9394C93.0879 30.9698 93.9015 31.3446 94.8949 32.0637C95.8029 32.7768 96.4519 33.828 96.8419 35.2175C96.8968 35.577 96.9242 35.833 96.9242 35.9853V36.8903C96.9242 37.9446 96.4671 39.1055 95.553 40.3731C94.3342 41.921 92.2256 42.7011 89.2273 42.7133L86.0644 42.7316C85.065 42.7316 83.9406 42.3202 82.6913 41.4975C81.0337 40.364 80.1836 38.49 80.1409 35.8756V35.4917L84.0625 33.572C84.0442 33.8158 84.0351 33.9986 84.0351 34.1205V34.9158C84.0412 36.8355 84.4799 38.0421 85.3514 38.5357C85.65 38.7003 86.034 38.7825 86.5032 38.7825H90.6168C91.732 38.7825 92.509 38.1701 92.9478 36.9452C92.9843 36.6892 93.0026 36.5155 93.0026 36.4241C93.0026 35.6623 92.637 35.1413 91.9057 34.861C91.8265 34.8244 91.7076 34.8061 91.5492 34.8061H88.56C88.5234 34.8061 88.5051 34.7878 88.5051 34.7513V30.9394C88.5051 29.1111 89.337 27.5205 91.0007 26.1676C91.9087 25.4546 93.3987 25.0981 95.4708 25.0981H95.9644ZM99.7763 18.7907H103.643C103.68 18.7968 103.698 18.815 103.698 18.8455V36.9452C103.698 36.9817 103.68 37 103.643 37H99.8037C99.7671 37 99.7488 36.9817 99.7488 36.9452C99.7306 25.4089 99.7214 19.3666 99.7214 18.8181L99.7763 18.7907ZM104.658 37H103.35V33.1058H104.658V37ZM108.662 22.3009L110.389 24.0012H117.711C119.558 24.0012 120.627 24.0926 120.92 24.2754C121.389 24.3973 121.983 24.6898 122.702 25.153C124.531 26.579 125.445 28.389 125.445 30.5829C125.445 32.3136 124.723 33.8859 123.278 35.2997C122.12 36.3784 120.247 36.9452 117.657 37H104.246L104.219 33.051C104.225 33.0144 104.243 32.9961 104.274 32.9961H107.181L107.263 32.859C106.934 32.079 106.769 31.2837 106.769 30.4732C106.769 29.3579 107.062 28.3433 107.647 27.4291L105.59 25.3724L108.662 22.3009ZM110.581 30.4183V30.5829C110.581 31.625 111.148 32.4202 112.281 32.9687L112.419 32.9961H113.872C114.226 32.9961 114.683 32.6853 115.243 32.0637C115.591 31.6067 115.764 31.0491 115.764 30.3909C115.764 29.5377 115.298 28.8064 114.366 28.197C113.982 27.9959 113.57 27.8953 113.132 27.8953C112.09 27.8953 111.294 28.4529 110.746 29.5682C110.636 29.8851 110.581 30.1685 110.581 30.4183ZM118.178 27.9228C118.616 28.8186 118.836 29.7144 118.836 30.6103C118.836 31.5 118.616 32.341 118.178 33.1333H119.439C120.707 33.1333 121.575 32.5299 122.044 31.3233C122.117 31.0856 122.154 30.8571 122.154 30.6377V30.4183C122.154 29.5469 121.715 28.8247 120.838 28.2518C120.502 28.0325 119.981 27.9228 119.275 27.9228H118.178Z" fill="#2793FF"/>
<path d="M159.912 6.09326V9.74313C169.788 11.1405 176.036 19.3246 176.036 28.0295C176.036 37.4729 168.801 45.4449 159.489 46.363V43.9039C167.43 42.996 173.598 36.0924 173.598 28.0295C173.598 20.7331 168.687 13.714 159.912 12.2044V15.1809C165.767 16.5008 170.143 21.75 170.143 28.0284C170.143 35.3023 164.273 41.1991 157.028 41.1991C156.64 41.1991 156.258 41.1789 155.88 41.1452V50.005C169.615 50.9051 179.646 40.1519 179.646 28.0284C179.646 17.3448 171.936 7.5568 159.912 6.09326Z" fill="#2793FF"/>
<path d="M143.914 28.0293C143.914 20.7554 149.786 14.8586 157.029 14.8586C157.416 14.8586 157.798 14.8788 158.177 14.9113V6.05154C144.406 5.16152 134.413 15.9315 134.413 28.0293C134.413 38.714 142.124 48.5009 154.147 49.9655V46.3145C144.271 44.9184 138.022 36.7342 138.022 28.0293C138.022 18.5859 145.255 10.6139 154.568 9.69468V12.1526C146.628 13.0606 140.459 19.9653 140.459 28.0282C140.459 35.3818 145.431 42.3583 154.147 43.851V40.8757C148.291 39.5569 143.914 34.3077 143.914 28.0293Z" fill="#2793FF"/>
<path d="M155.611 38.7712C149.775 38.0012 145.684 32.7812 146.3 26.8878C146.822 21.89 150.651 17.9416 155.611 17.2872L155.873 17.2524V20.7239L155.684 20.7586C152.677 21.3164 150.339 23.679 149.789 26.6801H164.269C163.733 23.7598 161.468 21.413 158.559 20.7957L158.377 20.7564V17.2738L158.641 17.3142C163.872 18.1009 167.819 22.7082 167.819 28.0281C167.819 33.3491 163.874 37.9563 158.641 38.7431L158.377 38.7824V35.2998L158.559 35.2616C161.192 34.7027 163.334 32.7004 164.092 30.1201H149.965C150.743 32.7756 152.959 34.7925 155.683 35.2975L155.871 35.3323V38.8037L155.611 38.7712Z" fill="#2793FF"/>
</svg>
