<svg width="49" height="50" viewBox="0 0 49 50" fill="none" xmlns="http://www.w3.org/2000/svg">
<path d="M10.0368 24.2154C8.97447 24.2446 7.94432 24.5863 7.07524 25.1978C6.20612 25.8094 5.53658 26.6635 5.15031 27.6536C4.76405 28.6436 4.67821 29.7255 4.90352 30.7641C5.12884 31.8026 5.65531 32.7516 6.41711 33.4926C7.17891 34.2335 8.14224 34.7335 9.18663 34.9298C10.231 35.1262 11.3102 35.0104 12.289 34.5967C13.2679 34.1831 14.1032 33.4901 14.6903 32.6043C15.2775 31.7186 15.5905 30.6794 15.5902 29.6167C15.5678 28.1647 14.9707 26.7808 13.9297 25.7684C12.8887 24.7559 11.4888 24.1975 10.0368 24.2154ZM10.0368 33.2526C9.32222 33.2328 8.6294 33.0029 8.04493 32.5916C7.46036 32.1802 7.01002 31.6057 6.75019 30.9399C6.49036 30.274 6.43255 29.5463 6.58399 28.8477C6.73543 28.1492 7.08941 27.5108 7.60167 27.0124C8.11391 26.5139 8.76178 26.1775 9.46416 26.0451C10.1665 25.9128 10.8924 25.9904 11.551 26.2683C12.2095 26.5462 12.7714 27.0121 13.1667 27.6076C13.5619 28.2031 13.7729 28.9019 13.7732 29.6167C13.7587 30.594 13.3571 31.5256 12.6567 32.2072C11.9563 32.8888 11.014 33.2648 10.0368 33.2526Z" fill="#2533CC"/>
<path d="M18.8407 36.2743L18.5063 37.1742C18.2116 36.8663 17.8575 36.6212 17.4654 36.4538C17.0733 36.2864 16.6514 36.2002 16.2251 36.2003H5.24099C4.60032 36.1955 3.97367 36.3879 3.44609 36.7514C2.91851 37.1149 2.51555 37.6319 2.29189 38.2323L0.223832 43.9586C0.212761 43.9906 0.209583 44.0249 0.214568 44.0583C0.219552 44.0919 0.232553 44.1237 0.252464 44.1511C0.272376 44.1785 0.298611 44.2007 0.328942 44.2159C0.359272 44.231 0.392802 44.2386 0.426685 44.238H1.90682C1.94793 44.2382 1.98814 44.2259 2.02198 44.2024C2.0558 44.1791 2.08162 44.1458 2.09591 44.1073L4.00582 38.8194C4.09921 38.5682 4.26771 38.3518 4.48839 38.1997C4.70908 38.0476 4.97125 37.9672 5.23926 37.9693H16.2242C16.494 37.9673 16.7576 38.0488 16.9791 38.2028C17.2005 38.3566 17.369 38.5754 17.4611 38.8288L17.6708 39.4236L15.92 43.6088L14.7466 43.748H9.62982C9.46306 43.7457 9.30228 43.8097 9.18269 43.9259C9.0631 44.0421 8.9945 44.201 8.99205 44.3677V44.8955C8.9945 45.0622 9.0631 45.2212 9.18269 45.3373C9.30228 45.4535 9.46306 45.5175 9.62982 45.5152H17.3425L20.118 38.0372H35.037L30.7608 46.8715H0.00292969V48.6397H38.703V46.8715H32.7721L37.9053 36.2743H18.8407Z" fill="#2533CC"/>
<path d="M5.62256 44.233C5.66507 44.2333 5.7066 44.2202 5.74119 44.1955C5.77578 44.1708 5.80165 44.1357 5.8151 44.0955L6.46062 42.0558C6.4984 41.9311 6.50825 41.7997 6.48945 41.6709C6.47065 41.5421 6.42366 41.419 6.35184 41.3103C6.28002 41.2018 6.18512 41.1104 6.07392 41.0426C5.96272 40.9749 5.83796 40.9325 5.70851 40.9186C5.49059 40.8962 5.27169 40.9503 5.08922 41.0715C4.90673 41.1927 4.77199 41.3735 4.708 41.583L3.95419 43.9665C3.94171 43.9978 3.93755 44.0319 3.9421 44.0654C3.94665 44.0988 3.95976 44.1305 3.98017 44.1574C4.00057 44.1843 4.02758 44.2055 4.05857 44.2189C4.08955 44.2322 4.12347 44.2374 4.15704 44.2338H5.62342L5.62256 44.233Z" fill="#2533CC"/>
<path d="M21.1669 1.88945H42.6882C44.1527 1.87455 45.5631 2.44189 46.6093 3.46672C47.6556 4.49154 48.252 5.88994 48.2674 7.35442V21.408C48.252 22.8724 47.6556 24.2708 46.6093 25.2957C45.5631 26.3204 44.1527 26.8878 42.6882 26.8729H31.1832L27.3462 31.8643L23.3717 26.8729H21.1669C19.7024 26.8878 18.292 26.3204 17.2458 25.2957C16.1995 24.2708 15.603 22.8724 15.5876 21.408V7.35442C15.603 5.88994 16.1995 4.49154 17.2458 3.46672C18.292 2.44189 19.7024 1.87455 21.1669 1.88945Z" fill="#E9EBEF"/>
<path d="M43.816 1.36181H20.6668C19.3108 1.34321 18.003 1.86394 17.0308 2.80946C16.0587 3.75499 15.5019 5.0479 15.4829 6.40389V21.4588C15.5019 22.8148 16.0587 24.1078 17.0308 25.0535C18.0029 25.9991 19.3107 26.5201 20.6668 26.5017H22.8268L27.691 31.7596C27.7222 31.7929 27.76 31.8193 27.802 31.837C27.8442 31.8549 27.8894 31.8637 27.935 31.863C27.9807 31.8622 28.0257 31.852 28.0672 31.8328C28.1086 31.8137 28.1456 31.7861 28.1757 31.7518L28.6098 31.2507C28.6321 31.2241 30.8231 28.697 32.9265 26.5025H43.816C45.1719 26.5211 46.4799 26.0004 47.452 25.0549C48.4241 24.1094 48.9808 22.8165 48.9999 21.4605V6.40475C48.9811 5.04862 48.4244 3.75548 47.4523 2.80977C46.4801 1.86405 45.1721 1.34322 43.816 1.36181ZM47.1828 21.4597C47.1706 22.3404 46.809 23.1802 46.1776 23.7943C45.5462 24.4085 44.6967 24.7467 43.816 24.7345H32.1408L31.8726 25.0121C30.4974 26.4347 29.0439 28.0472 28.1353 29.0709C28.1047 29.1043 28.0674 29.1309 28.0259 29.1492C27.9844 29.1674 27.9396 29.1767 27.8942 29.1767C27.8489 29.1767 27.8041 29.1674 27.7626 29.1492C27.7211 29.1309 27.6838 29.1043 27.6531 29.0709L23.6365 24.731H20.6668C19.7863 24.7432 18.937 24.4051 18.3058 23.7912C17.6745 23.1771 17.3131 22.3375 17.3008 21.4571V6.4056C17.3133 5.52494 17.6749 4.68527 18.3062 4.07117C18.9376 3.45707 19.7869 3.11881 20.6676 3.13075H43.816C44.6966 3.11881 45.546 3.45707 46.1774 4.07117C46.8087 4.68527 47.1704 5.52494 47.1828 6.4056V21.4597Z" fill="#2533CC"/>
</svg>
