<svg width="140" height="50" viewBox="0 0 140 50" fill="none" xmlns="http://www.w3.org/2000/svg">
<rect x="0.46582" width="139.534" height="50" rx="14" fill="#F1F1F1"/>
<path d="M16.6655 25.906C16.6655 24.8047 16.9082 23.7453 17.3935 22.728C17.8788 21.7013 18.5695 20.866 19.4655 20.222C20.3708 19.578 21.4162 19.256 22.6015 19.256C23.7402 19.256 24.7155 19.508 25.5275 20.012C26.3488 20.5067 26.9602 21.2207 27.3615 22.154C27.7722 23.078 27.9588 24.1747 27.9215 25.444C27.9028 26.1813 27.7628 26.83 27.5015 27.39C27.2495 27.95 26.8995 28.384 26.4515 28.692C26.0128 28.9907 25.5135 29.14 24.9535 29.14C24.1602 29.14 23.6328 28.832 23.3715 28.216C22.8768 28.8227 22.2748 29.126 21.5655 29.126C21.0055 29.126 20.5388 28.9347 20.1655 28.552C19.8015 28.1693 19.6195 27.5347 19.6195 26.648C19.6195 26.5453 19.6288 26.3633 19.6475 26.102C19.7035 25.4393 19.8668 24.814 20.1375 24.226C20.4175 23.638 20.7815 23.162 21.2295 22.798C21.6775 22.434 22.1768 22.252 22.7275 22.252C23.0915 22.252 23.4228 22.2987 23.7215 22.392C24.0202 22.4853 24.2582 22.5927 24.4355 22.714C24.6222 22.826 24.7435 22.9193 24.7995 22.994L24.4775 26.564C24.4588 26.732 24.4495 26.942 24.4495 27.194C24.4495 27.6047 24.5055 27.8753 24.6175 28.006C24.7388 28.1273 24.9395 28.188 25.2195 28.188C25.7235 28.188 26.1202 27.922 26.4095 27.39C26.6988 26.8487 26.8435 26.1067 26.8435 25.164C26.8435 23.596 26.4842 22.3967 25.7655 21.566C25.0468 20.726 23.9875 20.306 22.5875 20.306C21.6448 20.306 20.8188 20.558 20.1095 21.062C19.4095 21.566 18.8635 22.238 18.4715 23.078C18.0888 23.918 17.8835 24.8233 17.8555 25.794C17.8088 27.474 18.1495 28.7713 18.8775 29.686C19.6055 30.6007 20.6882 31.0627 22.1255 31.072C22.4895 31.072 22.8955 31.0253 23.3435 30.932C23.7915 30.8387 24.1415 30.722 24.3935 30.582L24.6455 31.506C24.3282 31.6833 23.9362 31.8233 23.4695 31.926C23.0122 32.038 22.5595 32.094 22.1115 32.094C20.2915 32.094 18.9288 31.534 18.0235 30.414C17.1182 29.3033 16.6655 27.8007 16.6655 25.906ZM20.9775 26.102C20.9588 26.3633 20.9495 26.5453 20.9495 26.648C20.9495 27.1427 21.0335 27.4973 21.2015 27.712C21.3695 27.9267 21.6262 28.034 21.9715 28.034C22.2235 28.034 22.4475 27.9407 22.6435 27.754C22.8395 27.558 23.0308 27.2453 23.2175 26.816V26.732L23.5115 23.442C23.4088 23.3673 23.3062 23.3207 23.2035 23.302C23.1008 23.274 22.9608 23.2647 22.7835 23.274C22.2888 23.2833 21.8828 23.54 21.5655 24.044C21.2482 24.548 21.0522 25.234 20.9775 26.102ZM29.5063 18.5H31.1863V22.462C31.7183 21.7993 32.409 21.468 33.2583 21.468C34.8543 21.468 35.657 22.378 35.6663 24.198V29H33.9863V24.212C33.977 23.736 33.865 23.386 33.6503 23.162C33.445 22.938 33.1183 22.826 32.6703 22.826C32.3343 22.826 32.0357 22.9053 31.7743 23.064C31.5223 23.2227 31.3263 23.442 31.1863 23.722V29H29.5063V18.5ZM37.4256 21.608H39.1056V29H37.4256V21.608ZM37.2996 19.662C37.2996 19.4007 37.3836 19.186 37.5516 19.018C37.729 18.85 37.967 18.766 38.2656 18.766C38.555 18.766 38.7883 18.85 38.9656 19.018C39.143 19.186 39.2316 19.4007 39.2316 19.662C39.2316 19.9233 39.143 20.138 38.9656 20.306C38.7883 20.4647 38.555 20.544 38.2656 20.544C37.967 20.544 37.729 20.4647 37.5516 20.306C37.3836 20.138 37.2996 19.9233 37.2996 19.662ZM43.7657 31.912C43.2243 31.912 42.697 31.8 42.1837 31.576C41.6797 31.3613 41.297 31.072 41.0357 30.708L41.8057 29.714C42.319 30.3113 42.9443 30.61 43.6817 30.61C44.2603 30.61 44.699 30.4513 44.9977 30.134C45.3057 29.826 45.4597 29.378 45.4597 28.79V28.314C44.9837 28.8647 44.349 29.14 43.5557 29.14C42.9677 29.14 42.4497 28.9813 42.0017 28.664C41.563 28.3467 41.2177 27.8987 40.9657 27.32C40.723 26.732 40.6017 26.0507 40.6017 25.276V25.192C40.6017 24.436 40.7277 23.778 40.9797 23.218C41.2317 22.658 41.577 22.2287 42.0157 21.93C42.4637 21.622 42.9817 21.468 43.5697 21.468C44.419 21.468 45.0817 21.762 45.5577 22.35L45.6277 21.608H47.1537V28.776C47.1537 29.28 47.037 29.77 46.8037 30.246C46.5797 30.722 46.211 31.1187 45.6977 31.436C45.1937 31.7533 44.5497 31.912 43.7657 31.912ZM42.2957 25.388C42.2957 26.1347 42.4403 26.7227 42.7297 27.152C43.0283 27.572 43.4437 27.782 43.9757 27.782C44.657 27.782 45.1517 27.4973 45.4597 26.928V23.652C45.133 23.1013 44.643 22.826 43.9897 22.826C43.4483 22.826 43.0283 23.0453 42.7297 23.484C42.4403 23.9133 42.2957 24.548 42.2957 25.388ZM48.811 18.5H50.491V22.462C51.023 21.7993 51.7137 21.468 52.563 21.468C54.159 21.468 54.9617 22.378 54.971 24.198V29H53.291V24.212C53.2817 23.736 53.1697 23.386 52.955 23.162C52.7497 22.938 52.423 22.826 51.975 22.826C51.639 22.826 51.3404 22.9053 51.079 23.064C50.827 23.2227 50.631 23.442 50.491 23.722V29H48.811V18.5ZM56.5903 18.5H58.2703V22.462C58.8023 21.7993 59.493 21.468 60.3423 21.468C61.9383 21.468 62.741 22.378 62.7503 24.198V29H61.0703V24.212C61.061 23.736 60.949 23.386 60.7343 23.162C60.529 22.938 60.2023 22.826 59.7543 22.826C59.4183 22.826 59.1197 22.9053 58.8583 23.064C58.6063 23.2227 58.4103 23.442 58.2703 23.722V29H56.5903V18.5ZM67.5196 29.14C66.8476 29.14 66.2503 28.9907 65.7276 28.692C65.2143 28.384 64.813 27.95 64.5236 27.39C64.2343 26.83 64.085 26.1813 64.0756 25.444L64.0616 25.234C64.0523 24.534 64.183 23.8993 64.4536 23.33C64.7243 22.7607 65.121 22.308 65.6436 21.972C66.1663 21.636 66.787 21.468 67.5056 21.468C68.1963 21.468 68.803 21.6267 69.3256 21.944C69.8483 22.252 70.2496 22.6953 70.5296 23.274C70.819 23.8527 70.9636 24.5247 70.9636 25.29V25.388C70.9636 26.1347 70.819 26.7927 70.5296 27.362C70.2403 27.9313 69.8343 28.37 69.3116 28.678C68.7983 28.986 68.201 29.14 67.5196 29.14ZM65.7556 25.388C65.7463 26.144 65.9003 26.7367 66.2176 27.166C66.535 27.5953 66.969 27.81 67.5196 27.81C68.0703 27.81 68.4996 27.6 68.8076 27.18C69.125 26.76 69.2836 26.1673 69.2836 25.402V25.234C69.293 24.4873 69.139 23.8947 68.8216 23.456C68.5043 23.0173 68.0656 22.798 67.5056 22.798C66.983 22.798 66.563 23.0033 66.2456 23.414C65.9376 23.8153 65.7743 24.394 65.7556 25.15V25.388ZM75.113 29.14C74.5343 29.14 74.0023 29.0327 73.517 28.818C73.041 28.6033 72.663 28.3093 72.383 27.936C72.1123 27.5533 71.977 27.138 71.977 26.69H73.615C73.6243 27.0727 73.7643 27.3713 74.035 27.586C74.315 27.8007 74.6836 27.908 75.141 27.908C75.5516 27.908 75.8736 27.8287 76.107 27.67C76.3496 27.502 76.471 27.278 76.471 26.998C76.471 26.6993 76.345 26.4707 76.093 26.312C75.8503 26.1533 75.435 26.0087 74.847 25.878C73.9603 25.6913 73.3023 25.4207 72.873 25.066C72.4436 24.7113 72.229 24.2587 72.229 23.708C72.229 23.288 72.3503 22.91 72.593 22.574C72.8356 22.2287 73.1716 21.958 73.601 21.762C74.0396 21.566 74.5343 21.468 75.085 21.468C75.673 21.468 76.191 21.5707 76.639 21.776C77.0963 21.972 77.4463 22.2473 77.689 22.602C77.941 22.9567 78.067 23.3627 78.067 23.82H76.387C76.387 23.4933 76.2656 23.2273 76.023 23.022C75.7896 22.8073 75.477 22.7 75.085 22.7C74.7116 22.7 74.413 22.7887 74.189 22.966C73.9743 23.134 73.867 23.358 73.867 23.638C73.867 23.918 74.0023 24.128 74.273 24.268C74.553 24.408 74.9403 24.5387 75.435 24.66C75.4723 24.6693 75.6076 24.702 75.841 24.758C76.6156 24.954 77.185 25.2247 77.549 25.57C77.9223 25.906 78.109 26.354 78.109 26.914C78.109 27.3527 77.983 27.74 77.731 28.076C77.479 28.412 77.1243 28.6733 76.667 28.86C76.219 29.0467 75.701 29.14 75.113 29.14ZM81.8984 29.14C80.601 29.14 79.9524 28.4447 79.9524 27.054V22.84H78.7624V21.608H79.9524V19.788H81.6324V21.608H82.9484V22.84H81.6324V26.942C81.6324 27.2407 81.6884 27.4553 81.8004 27.586C81.9217 27.7073 82.127 27.768 82.4164 27.768C82.631 27.768 82.827 27.7447 83.0044 27.698V28.972C82.6404 29.084 82.2717 29.14 81.8984 29.14ZM85.6365 29.042C85.3285 29.042 85.0672 28.9347 84.8525 28.72C84.6378 28.496 84.5305 28.23 84.5305 27.922C84.5305 27.614 84.6332 27.3527 84.8385 27.138C85.0532 26.9233 85.3192 26.816 85.6365 26.816C85.9538 26.816 86.2198 26.9233 86.4345 27.138C86.6492 27.3527 86.7565 27.614 86.7565 27.922C86.7565 28.23 86.6492 28.496 86.4345 28.72C86.2198 28.9347 85.9538 29.042 85.6365 29.042ZM88.8866 21.608H90.5666V29H88.8866V21.608ZM88.7606 19.662C88.7606 19.4007 88.8446 19.186 89.0126 19.018C89.1899 18.85 89.4279 18.766 89.7266 18.766C90.0159 18.766 90.2492 18.85 90.4266 19.018C90.6039 19.186 90.6926 19.4007 90.6926 19.662C90.6926 19.9233 90.6039 20.138 90.4266 20.306C90.2492 20.4647 90.0159 20.544 89.7266 20.544C89.4279 20.544 89.1899 20.4647 89.0126 20.306C88.8446 20.138 88.7606 19.9233 88.7606 19.662ZM92.3566 21.608H93.9526L94.0086 22.504C94.4006 21.8133 94.9699 21.468 95.7166 21.468C95.9686 21.468 96.1646 21.5007 96.3046 21.566L96.2906 23.12C96.1319 23.0827 95.9033 23.064 95.6046 23.064C94.8113 23.064 94.2886 23.3673 94.0366 23.974V29H92.3566V21.608Z" fill="black"/>
<path d="M114.733 14.7329C117.523 14.7329 117.871 14.7432 118.965 14.7945C120.059 14.8458 120.803 15.0173 121.458 15.2719C122.136 15.5327 122.707 15.8859 123.277 16.4557C123.799 16.969 124.203 17.5898 124.461 18.2751C124.715 18.9291 124.887 19.6745 124.939 20.768C124.987 21.8624 125 22.2105 125 25.0001C125 27.7897 124.99 28.1378 124.939 29.2322C124.887 30.3257 124.715 31.0701 124.461 31.7251C124.204 32.4107 123.8 33.0317 123.277 33.5445C122.764 34.0664 122.143 34.4703 121.458 34.7283C120.804 34.9819 120.059 35.1544 118.965 35.2057C117.871 35.2539 117.523 35.2673 114.733 35.2673C111.943 35.2673 111.595 35.257 110.501 35.2057C109.407 35.1544 108.663 34.9819 108.008 34.7283C107.322 34.471 106.702 34.067 106.189 33.5445C105.666 33.0313 105.262 32.4104 105.005 31.7251C104.75 31.0711 104.579 30.3257 104.527 29.2322C104.479 28.1378 104.466 27.7897 104.466 25.0001C104.466 22.2105 104.476 21.8624 104.527 20.768C104.579 19.6735 104.75 18.9301 105.005 18.2751C105.262 17.5894 105.666 16.9684 106.189 16.4557C106.702 15.9334 107.323 15.5294 108.008 15.2719C108.663 15.0173 109.406 14.8458 110.501 14.7945C111.595 14.7463 111.943 14.7329 114.733 14.7329ZM114.733 19.8665C113.372 19.8665 112.066 20.4074 111.103 21.3701C110.14 22.3328 109.599 23.6386 109.599 25.0001C109.599 26.3616 110.14 27.6674 111.103 28.6301C112.066 29.5928 113.372 30.1337 114.733 30.1337C116.095 30.1337 117.4 29.5928 118.363 28.6301C119.326 27.6674 119.867 26.3616 119.867 25.0001C119.867 23.6386 119.326 22.3328 118.363 21.3701C117.4 20.4074 116.095 19.8665 114.733 19.8665ZM121.407 19.6098C121.407 19.2694 121.271 18.943 121.031 18.7023C120.79 18.4616 120.464 18.3264 120.123 18.3264C119.783 18.3264 119.456 18.4616 119.216 18.7023C118.975 18.943 118.84 19.2694 118.84 19.6098C118.84 19.9502 118.975 20.2766 119.216 20.5173C119.456 20.758 119.783 20.8932 120.123 20.8932C120.464 20.8932 120.79 20.758 121.031 20.5173C121.271 20.2766 121.407 19.9502 121.407 19.6098ZM114.733 21.9199C115.55 21.9199 116.333 22.2445 116.911 22.8221C117.489 23.3997 117.813 24.1832 117.813 25.0001C117.813 25.817 117.489 26.6005 116.911 27.1781C116.333 27.7557 115.55 28.0803 114.733 28.0803C113.916 28.0803 113.133 27.7557 112.555 27.1781C111.977 26.6005 111.653 25.817 111.653 25.0001C111.653 24.1832 111.977 23.3997 112.555 22.8221C113.133 22.2445 113.916 21.9199 114.733 21.9199Z" fill="black"/>
</svg>
