<svg width="51" height="50" viewBox="0 0 51 50" fill="none" xmlns="http://www.w3.org/2000/svg">
<rect x="0.46582" width="50" height="50" rx="14" fill="#F1F1F1"/>
<path d="M25.7862 35.5871C20.1157 35.5871 15.519 30.9905 15.519 25.3199C15.519 19.6494 20.1157 15.0527 25.7862 15.0527C31.4568 15.0527 36.0534 19.6494 36.0534 25.3199C36.0534 30.9905 31.4568 35.5871 25.7862 35.5871ZM22.5931 26.5212L22.6065 26.514L23.4997 29.4607C23.6147 29.78 23.7728 29.8375 23.9648 29.8108C24.1579 29.7851 24.2595 29.6814 24.3858 29.5603L25.6055 28.3816L28.2237 30.32C28.7021 30.5839 29.0461 30.4474 29.1652 29.8765L30.8664 21.8455C31.0543 21.0981 30.7258 20.7983 30.1457 21.0365L20.1526 24.8969C19.4709 25.17 19.475 25.552 20.0294 25.7214L22.5931 26.5222V26.5212Z" fill="black"/>
</svg>
