<svg width="50" height="50" viewBox="0 0 50 50" fill="none" xmlns="http://www.w3.org/2000/svg">
<rect width="50" height="50" rx="14" fill="#F1F1F1"/>
<path d="M25.3209 15.0527C19.6503 15.0527 15.0537 19.6494 15.0537 25.3199C15.0537 30.4443 18.8084 34.6918 23.7172 35.4629V28.2871H21.1093V25.3199H23.7172V23.0581C23.7172 20.4851 25.249 19.0641 27.5951 19.0641C28.7183 19.0641 29.8929 19.2643 29.8929 19.2643V21.7901H28.5992C27.323 21.7901 26.9257 22.5817 26.9257 23.3938V25.3199H29.7728L29.3179 28.2871H26.9257V35.4629C31.8334 34.6929 35.5881 30.4433 35.5881 25.3199C35.5881 19.6494 30.9915 15.0527 25.3209 15.0527Z" fill="black"/>
</svg>
