<svg width="51" height="50" viewBox="0 0 51 50" fill="none" xmlns="http://www.w3.org/2000/svg">
<rect x="0.46582" width="50" height="50" rx="14" fill="#F1F1F1"/>
<path d="M20.5913 18.1336C20.591 18.6782 20.3744 19.2004 19.9891 19.5853C19.6038 19.9702 19.0814 20.1863 18.5368 20.186C17.9922 20.1857 17.47 19.9691 17.0851 19.5838C16.7002 19.1985 16.4841 18.6761 16.4844 18.1315C16.4846 17.5869 16.7013 17.0647 17.0865 16.6798C17.4718 16.2949 17.9942 16.0788 18.5388 16.0791C19.0834 16.0794 19.6056 16.296 19.9905 16.6813C20.3754 17.0666 20.5915 17.589 20.5913 18.1336ZM20.6529 21.7065H16.546V34.5611H20.6529V21.7065ZM27.1417 21.7065H23.0554V34.5611H27.1007V27.8155C27.1007 24.0577 31.9981 23.7087 31.9981 27.8155V34.5611H36.0537V26.4192C36.0537 20.0843 28.805 20.3205 27.1007 23.4314L27.1417 21.7065Z" fill="black"/>
</svg>
