<svg width="44" height="44" viewBox="0 0 44 44" fill="none" xmlns="http://www.w3.org/2000/svg">
<rect width="44" height="44" rx="8" fill="#007BFF"/>
<path d="M18 18C18 15.7909 19.7909 14 22 14C24.2091 14 26 15.7909 26 18C26 20.2091 24.2091 22 22 22C19.7909 22 18 20.2091 18 18Z" stroke="white" stroke-linecap="round" stroke-linejoin="round"/>
<path d="M18.6294 24.2218C18.4457 24.0865 18.2281 23.9995 18 23.9995C16.3431 23.9995 15 25.3427 15 26.9995C15 28.6564 16.3431 29.9995 18 29.9995H26C27.6569 29.9995 29 28.6564 29 26.9995C29 25.3427 27.6569 23.9995 26 23.9995C25.7719 23.9995 25.5543 24.0865 25.3706 24.2218C24.7072 24.7107 23.8874 24.9997 23 24.9997H21C20.1127 24.9997 19.2928 24.7107 18.6294 24.2218Z" stroke="white" stroke-linecap="round" stroke-linejoin="round"/>
</svg>
