<svg width="44" height="44" viewBox="0 0 44 44" fill="none" xmlns="http://www.w3.org/2000/svg">
<rect x="1" y="1" width="42" height="42" rx="9" fill="white"/>
<rect x="1" y="1" width="42" height="42" rx="9" stroke="#007BFF" stroke-width="2"/>
<path d="M15.1111 14.7282C15.9222 13.5493 17.5429 13.8922 18.2954 15.1094L19.3588 16.8294C19.674 17.3392 19.5975 17.9992 19.174 18.4232L18.7561 18.8417C18.2522 19.3463 18.2522 20.1644 18.7561 20.6691L23.0904 25.0091C23.5944 25.5137 24.4114 25.5137 24.9154 25.0091L25.324 24.5999C25.7517 24.1717 26.419 24.0983 26.9293 24.4235L28.9149 25.6887C30.1105 26.4506 30.4414 28.0585 29.2781 28.869C27.2197 30.3032 23.426 31.2842 18.0718 25.9228C12.7405 20.5845 13.6889 16.7954 15.1111 14.7282Z" stroke="#007BFF" stroke-linecap="round" stroke-linejoin="round"/>
</svg>
