<svg width="46" height="45" viewBox="0 0 46 45" fill="none" xmlns="http://www.w3.org/2000/svg">
<path d="M25.4985 0.0931396V3.74301C35.375 5.14033 41.6225 13.3245 41.6225 22.0294C41.6225 31.4728 34.3881 39.4448 25.0761 40.3629V37.9038C33.0168 36.9958 39.185 30.0923 39.185 22.0294C39.185 14.733 34.2741 7.71386 25.4985 6.20431V9.18077C31.3538 10.5006 35.7304 15.7499 35.7304 22.0283C35.7304 29.3022 29.8595 35.199 22.6151 35.199C22.2273 35.199 21.845 35.1788 21.4673 35.1451V44.0049C35.2018 44.905 45.2324 34.1518 45.2324 22.0283C45.2324 11.3447 37.5231 1.55668 25.4985 0.0931396Z" fill="#2793FF"/>
<path d="M9.50091 22.0293C9.50091 14.7554 15.3729 8.85858 22.6162 8.85858C23.0029 8.85858 23.3851 8.87879 23.764 8.91133V0.0515414C9.99267 -0.838478 0 9.93155 0 22.0293C0 32.714 7.71048 42.5009 19.7339 43.9655V40.3145C9.85744 38.9184 3.6088 30.7342 3.6088 22.0293C3.6088 12.5859 10.8421 4.61388 20.1552 3.69468V6.15261C12.2145 7.06059 6.04634 13.9653 6.04634 22.0282C6.04634 29.3818 11.0175 36.3583 19.7339 37.851V34.8757C13.8775 33.5569 9.50091 28.3077 9.50091 22.0293Z" fill="#2793FF"/>
<path d="M21.1979 32.7713C15.3617 32.0014 11.2712 26.7813 11.887 20.8879C12.4089 15.8901 16.2379 11.9417 21.1979 11.2874L21.4594 11.2526V14.724L21.2705 14.7588C18.2641 15.3166 15.9261 17.6791 15.3762 20.6803H29.8561C29.3197 17.7599 27.0554 15.4131 24.1462 14.7958L23.964 14.7565V11.2739L24.2278 11.3143C29.4594 12.1011 33.4057 16.7083 33.4057 22.0282C33.4057 27.3492 29.4605 31.9565 24.2278 32.7432L23.964 32.7825V29.2999L24.1462 29.2617C26.7793 28.7028 28.9207 26.7005 29.6784 24.1203H15.5517C16.3295 26.7757 18.5458 28.7926 21.2694 29.2976L21.4583 29.3324V32.8038L21.1979 32.7713Z" fill="#2793FF"/>
</svg>
