<svg width="49" height="50" viewBox="0 0 49 50" fill="none" xmlns="http://www.w3.org/2000/svg">
<g clip-path="url(#clip0_11218_6424)">
<path d="M5.6875 1.8125H43.3125C44.4728 1.8125 45.5857 2.27343 46.4061 3.09391C47.2266 3.91438 47.6875 5.02718 47.6875 6.1875V12.3125H1.3125V6.1875C1.3125 5.02718 1.77343 3.91438 2.59391 3.09391C3.41438 2.27343 4.52718 1.8125 5.6875 1.8125Z" fill="#E9EBEF"/>
<path d="M43.3121 1.89966H5.68716C3.31923 1.89966 1.39966 3.81923 1.39966 6.18716V43.8121C1.39966 46.1801 3.31923 48.0997 5.68716 48.0997H43.3121C45.6801 48.0997 47.5997 46.1801 47.5997 43.8121V6.18716C47.5997 3.81923 45.6801 1.89966 43.3121 1.89966Z" stroke="#2533CC" stroke-width="1.925"/>
<path d="M2.11401 12.5056H47.614" stroke="#2533CC" stroke-width="1.925"/>
<path d="M25.3256 28.7407C25.4059 29.9485 25.0215 31.1415 24.2511 32.0753C23.8499 32.479 23.3669 32.7923 22.8346 32.9941C22.3024 33.1958 21.7331 33.2815 21.165 33.2452C20.5967 33.2816 20.0273 33.1961 19.4948 32.9943C18.9624 32.7925 18.4793 32.4791 18.078 32.0753C17.305 31.1371 16.9199 29.9387 17.0017 28.7258C16.919 27.5178 17.3058 26.3245 18.0815 25.3947C18.4872 24.9953 18.9726 24.6863 19.5062 24.4878C20.0397 24.2894 20.6092 24.206 21.1772 24.2432C21.7441 24.2054 22.3124 24.2894 22.8442 24.4895C23.3758 24.6897 23.8586 25.0013 24.2598 25.4034C25.0267 26.3398 25.4077 27.5332 25.3256 28.7407ZM18.9433 28.7407C18.8892 29.5167 19.0841 30.2899 19.4998 30.9474C19.6955 31.1973 19.9492 31.3954 20.2389 31.5248C20.5287 31.6541 20.8458 31.7106 21.1623 31.6894C22.6417 31.6894 23.3813 30.7065 23.3813 28.7407C23.3813 26.7748 22.6463 25.7898 21.1763 25.7858C20.8586 25.7651 20.5407 25.822 20.25 25.9517C19.9592 26.0815 19.7045 26.2801 19.5077 26.5304C19.0881 27.1877 18.8908 27.9626 18.9451 28.7407H18.9433ZM32.302 30.6972C32.3172 31.0532 32.248 31.4078 32.1 31.7321C31.952 32.0562 31.7295 32.3409 31.4506 32.5627C30.7613 33.0543 29.9245 33.2948 29.0793 33.2443C28.2246 33.2616 27.3773 33.082 26.6031 32.7193V30.9956C27.0869 31.2192 27.5875 31.4047 28.1002 31.5503C28.4657 31.652 28.8426 31.7064 29.222 31.7122C29.5507 31.7328 29.8778 31.6512 30.1582 31.4786C30.2665 31.3996 30.3532 31.2946 30.4102 31.1734C30.4673 31.0521 30.4928 30.9184 30.4846 30.7847C30.4871 30.62 30.4365 30.4589 30.3402 30.3253C30.2238 30.1725 30.081 30.0418 29.9185 29.9394C29.5513 29.7196 29.1715 29.5219 28.781 29.3471C28.3503 29.1594 27.9461 28.9161 27.5787 28.6234C27.3159 28.3974 27.0989 28.1233 26.9391 27.8158C26.7736 27.4817 26.6916 27.1123 26.7002 26.7396C26.6838 26.3955 26.7462 26.0523 26.8827 25.7361C27.0192 25.42 27.2262 25.1392 27.4877 24.9152C28.1097 24.4407 28.8812 24.205 29.6621 24.2511C30.101 24.2491 30.5382 24.3036 30.9632 24.4129C31.406 24.5312 31.8388 24.6833 32.2582 24.8679L31.6623 26.3126C31.2863 26.1521 30.8995 26.0181 30.5047 25.9118C30.2104 25.8374 29.908 25.7991 29.6043 25.7981C29.3143 25.7785 29.027 25.8656 28.7967 26.0431C28.7051 26.1219 28.6324 26.2203 28.5837 26.3309C28.5352 26.4416 28.5119 26.5619 28.5158 26.6827C28.5123 26.8332 28.5518 26.9816 28.6296 27.1106C28.7253 27.2506 28.8486 27.3697 28.9918 27.4606C29.3711 27.6877 29.7635 27.8923 30.167 28.0731C30.8077 28.3368 31.3819 28.7397 31.8478 29.2526C32.1584 29.6688 32.3185 30.1781 32.302 30.6972Z" fill="#2533CC"/>
</g>
<defs>
<clipPath id="clip0_11218_6424">
<rect width="49" height="48.125" fill="white" transform="translate(0 0.9375)"/>
</clipPath>
</defs>
</svg>
