<svg width="26" height="25" viewBox="0 0 26 25" fill="none" xmlns="http://www.w3.org/2000/svg">
<g id="dashboard" clip-path="url(#clip0_11146_2725)">
<g id="Group">
<g id="Group_2">
<path id="Vector" d="M23.248 0.195312H2.9506C1.70675 0.195312 0.695312 1.20675 0.695312 2.4506V22.748C0.695312 23.9918 1.70675 25.0033 2.9506 25.0033H23.248C24.4918 25.0033 25.5033 23.9919 25.5033 22.748V2.4506C25.5032 1.20675 24.4918 0.195312 23.248 0.195312ZM6.3335 21.6203C5.08965 21.6203 4.07821 20.6089 4.07821 19.3651C4.07821 18.1213 5.08965 17.1098 6.3335 17.1098C7.57735 17.1098 8.58879 18.1213 8.58879 19.3651C8.58879 20.609 7.5773 21.6203 6.3335 21.6203ZM8.58873 8.65257C8.58873 8.96364 8.33602 9.2164 8.0249 9.2164H7.46112C7.14947 9.2164 6.89728 9.46859 6.89728 9.78024V14.2908C6.89728 14.6018 6.64457 14.8546 6.33345 14.8546C6.02233 14.8546 5.76966 14.6018 5.76966 14.2908V9.78024C5.76966 9.46859 5.51748 9.2164 5.20583 9.2164H4.64205C4.33093 9.2164 4.07821 8.96364 4.07821 8.65257V6.39728C4.07821 6.08621 4.33093 5.83345 4.64205 5.83345H5.20588C5.51748 5.8335 5.76966 5.58132 5.76966 5.26966V4.14205C5.76966 3.83093 6.02238 3.57821 6.3335 3.57821C6.64462 3.57821 6.89733 3.83093 6.89733 4.14205V5.26966C6.89733 5.58132 7.14952 5.8335 7.46117 5.8335H8.025C8.33607 5.8335 8.58884 6.08621 8.58884 6.39733V8.65257H8.58873ZM13.0993 21.6203C11.8555 21.6203 10.844 20.6089 10.844 19.3651C10.844 18.1212 11.8555 17.1098 13.0993 17.1098C14.3432 17.1098 15.3546 18.1213 15.3546 19.3651C15.3546 20.609 14.3431 21.6203 13.0993 21.6203ZM15.3545 12.0355C15.3545 12.3465 15.1018 12.5993 14.7907 12.5993H14.2269C13.9153 12.5993 13.6631 12.8515 13.6631 13.1631V14.2908C13.6631 14.6018 13.4104 14.8546 13.0992 14.8546C12.7881 14.8546 12.5355 14.6018 12.5355 14.2908V13.1631C12.5355 12.8515 12.2833 12.5993 11.9716 12.5993H11.4078C11.0967 12.5993 10.844 12.3466 10.844 12.0355V9.78018C10.844 9.46911 11.0967 9.21635 11.4078 9.21635H11.9716C12.2833 9.21635 12.5355 8.96416 12.5355 8.65251V4.14205C12.5355 3.83093 12.7882 3.57821 13.0993 3.57821C13.4104 3.57821 13.6631 3.83093 13.6631 4.14205V8.65257C13.6631 8.96422 13.9153 9.2164 14.227 9.2164H14.7908C15.1019 9.2164 15.3546 9.46911 15.3546 9.78024V12.0355H15.3545ZM19.8651 21.6203C18.6213 21.6203 17.6098 20.6089 17.6098 19.3651C17.6098 18.1212 18.6213 17.1098 19.8651 17.1098C21.109 17.1098 22.1204 18.1213 22.1204 19.3651C22.1204 20.609 21.1089 21.6203 19.8651 21.6203ZM22.1203 10.9079C22.1203 11.2189 21.8676 11.4717 21.5565 11.4717H20.9927C20.6811 11.4717 20.4289 11.7239 20.4289 12.0355V14.2908C20.4289 14.6019 20.1762 14.8546 19.8651 14.8546C19.554 14.8546 19.3012 14.6019 19.3012 14.2908V12.0355C19.3012 11.7238 19.049 11.4716 18.7374 11.4716H18.1735C17.8625 11.4716 17.6097 11.2189 17.6097 10.9078V8.65257C17.6097 8.3415 17.8624 8.08873 18.1735 8.08873H18.7374C19.049 8.08873 19.3012 7.83655 19.3012 7.5249V4.142C19.3013 3.83093 19.554 3.57821 19.8651 3.57821C20.1762 3.57821 20.4289 3.83093 20.4289 4.14205V7.52495C20.4289 7.8366 20.6811 8.08879 20.9928 8.08879H21.5566C21.8677 8.08879 22.1204 8.3415 22.1204 8.65262V10.9079H22.1203Z" fill="white"/>
</g>
</g>
</g>
<defs>
<clipPath id="clip0_11146_2725">
<rect width="24.808" height="24.808" fill="white" transform="translate(0.695312 0.195312)"/>
</clipPath>
</defs>
</svg>
