<svg width="26" height="25" viewBox="0 0 26 25" fill="none" xmlns="http://www.w3.org/2000/svg">
<g id="speed" clip-path="url(#clip0_11146_2744)">
<g id="Group">
<g id="Group_2">
<g id="Group_3">
<path id="Vector" d="M23.2333 0.195312H2.94913C1.70667 0.195312 0.695312 1.20609 0.695312 2.44913V22.7333C0.695312 23.9763 1.70667 24.9871 2.94913 24.9871H23.2333C24.4758 24.9871 25.4871 23.9764 25.4871 22.7333V2.44913C25.4871 1.20609 24.4758 0.195312 23.2333 0.195312ZM8.02018 2.44913C8.33136 2.44913 8.58365 2.70136 8.58365 3.0126C8.58365 3.32378 8.33136 3.57606 8.02018 3.57606C7.709 3.57606 7.45671 3.32373 7.45671 3.01254C7.45671 2.70131 7.709 2.44913 8.02018 2.44913ZM5.76636 2.44913C6.07754 2.44913 6.32983 2.70136 6.32983 3.0126C6.32983 3.32373 6.07754 3.57601 5.76636 3.57601C5.45518 3.57601 5.20289 3.32373 5.20289 3.01254C5.20289 2.70131 5.45518 2.44913 5.76636 2.44913ZM3.51254 2.44913C3.82373 2.44913 4.07601 2.70131 4.07601 3.01254C4.07601 3.32373 3.82373 3.57601 3.51254 3.57601C3.20136 3.57601 2.94908 3.32373 2.94908 3.01254C2.94913 2.70131 3.20141 2.44913 3.51254 2.44913ZM23.2333 22.7333H2.94913V5.82983H23.2333V22.7333Z" fill="#005CBF"/>
<path id="Vector_2" d="M8.19414 18.6296C9.32894 20.0944 11.0996 21.0429 13.0912 21.0429C16.5082 21.0429 19.2892 18.2625 19.2892 14.845C19.2892 11.4274 16.5082 8.64697 13.0912 8.64697C9.67425 8.64697 6.89331 11.4273 6.89331 14.8449C6.89331 16.2049 7.33893 17.4599 8.08453 18.4831C8.11253 18.5374 8.1495 18.5866 8.19414 18.6296ZM8.58361 14.2815H8.07708C8.18659 13.3082 8.56496 12.4245 9.14702 11.697L9.5058 12.0558C9.61583 12.1658 9.76004 12.2208 9.90419 12.2208C10.0483 12.2208 10.1925 12.1658 10.3026 12.0558C10.5227 11.8357 10.5227 11.4791 10.3026 11.259L9.94381 10.9003C10.6713 10.3185 11.5547 9.9403 12.5278 9.83085V10.3373C12.5278 10.6488 12.7798 10.9008 13.0912 10.9008C13.4027 10.9008 13.6547 10.6488 13.6547 10.3373V9.8308C14.6278 9.94025 15.5112 10.3184 16.2387 10.9002L15.8799 11.259C15.6598 11.4791 15.6598 11.8357 15.8799 12.0557C15.9899 12.1658 16.1341 12.2208 16.2783 12.2208C16.4224 12.2208 16.5666 12.1658 16.6767 12.0557L17.0355 11.6969C17.6176 12.4245 17.9959 13.3081 18.1054 14.2814H17.5988C17.2874 14.2814 17.0353 14.5335 17.0353 14.8449C17.0353 15.1564 17.2874 15.4084 17.5988 15.4084H18.1053C18.0614 15.7994 17.9788 16.1761 17.8508 16.5353H14.6746C14.9153 15.8005 14.9747 13.5687 14.9863 12.8734C14.9896 12.6445 14.8553 12.4365 14.6451 12.3462C14.4339 12.2554 14.1895 12.3017 14.0278 12.4629C13.5117 12.9713 11.8059 14.6804 11.5385 15.3054C11.3691 15.6997 11.3609 16.1332 11.5035 16.5352H8.33174C8.2037 16.1759 8.12114 15.7993 8.07719 15.4083H8.58371C8.89516 15.4083 9.14718 15.1563 9.14718 14.8449C9.14707 14.5335 8.89505 14.2815 8.58361 14.2815Z" fill="#005CBF"/>
</g>
</g>
</g>
</g>
<defs>
<clipPath id="clip0_11146_2744">
<rect width="24.7918" height="24.7918" fill="white" transform="translate(0.695312 0.195312)"/>
</clipPath>
</defs>
</svg>
