<svg width="108" height="108" viewBox="0 0 108 108" fill="none" xmlns="http://www.w3.org/2000/svg">
<g filter="url(#filter0_d_11219_2118)">
<rect x="4" y="3" width="100" height="100" rx="10" fill="white"/>
<g clip-path="url(#clip0_11219_2118)">
<path d="M43.5741 55.8373C43.5752 54.7615 44.003 53.7301 44.7637 52.9694C45.5245 52.2088 46.5559 51.7809 47.6316 51.7798H60.1733C60.6622 51.7791 61.131 51.5846 61.4767 51.2388C61.8224 50.8931 62.0169 50.4244 62.0176 49.9355V39.5328C62.0158 38.066 61.4323 36.6597 60.3951 35.6225C59.3579 34.5853 57.9517 34.0018 56.4848 34H51.321C49.8542 34.0018 48.4479 34.5853 47.4107 35.6225C46.3735 36.6597 45.79 38.066 45.7882 39.5328V42.5576H53.9033C54.1968 42.5576 54.4783 42.6742 54.6859 42.8817C54.8934 43.0893 55.01 43.3707 55.01 43.6642C55.01 43.9578 54.8934 44.2392 54.6859 44.4468C54.4783 44.6543 54.1968 44.7709 53.9033 44.7709H40.5493C39.0823 44.7727 37.6759 45.3563 36.6387 46.3937C35.6015 47.4311 35.0181 48.8376 35.0165 50.3045L35.0165 55.4683C35.0183 56.9351 35.6018 58.3414 36.639 59.3786C37.6762 60.4158 39.0824 60.9993 40.5493 61.0011H43.5741V55.8373ZM51.321 39.6071C51.1022 39.6071 50.8884 39.5422 50.7064 39.4207C50.5245 39.2991 50.3827 39.1264 50.299 38.9242C50.2153 38.7221 50.1934 38.4997 50.2361 38.2851C50.2787 38.0705 50.3841 37.8734 50.5388 37.7187C50.6935 37.564 50.8906 37.4586 51.1052 37.4159C51.3198 37.3732 51.5422 37.3951 51.7443 37.4789C51.9465 37.5626 52.1193 37.7044 52.2409 37.8863C52.3624 38.0682 52.4272 38.2821 52.4272 38.5009C52.4272 38.7943 52.3107 39.0757 52.1032 39.2831C51.8958 39.4906 51.6144 39.6071 51.321 39.6071Z" fill="#007BFF"/>
<path d="M67.2564 44.7715H64.2316V49.9353C64.2305 51.0103 63.8032 52.0411 63.0435 52.8016C62.2837 53.5622 61.2534 53.9905 60.1783 53.9928H47.6324C47.144 53.9934 46.6759 54.1875 46.3302 54.5325C45.9846 54.8775 45.7896 55.3454 45.7881 55.8337V66.2356C45.7899 67.7024 46.3734 69.1086 47.4106 70.1459C48.4478 71.1831 49.854 71.7665 51.3209 71.7684H56.4855C57.9523 71.7665 59.3586 71.1831 60.3958 70.1459C61.4331 69.1086 62.0166 67.7024 62.0183 66.2356V63.2108H53.9032C53.6097 63.2108 53.3282 63.0942 53.1207 62.8866C52.9132 62.6791 52.7966 62.3976 52.7966 62.1041C52.7966 61.8106 52.9132 61.5291 53.1207 61.3216C53.3282 61.114 53.6097 60.9975 53.9032 60.9975H67.2564C68.7232 60.9956 70.1295 60.4122 71.1667 59.375C72.2039 58.3377 72.7875 56.9315 72.7892 55.4647V50.3001C72.7864 48.8339 72.2023 47.4288 71.1653 46.3925C70.1281 45.3562 68.7225 44.7733 67.2564 44.7715ZM56.4855 66.1663C56.7043 66.1663 56.9182 66.2312 57.1001 66.3527C57.282 66.4743 57.4238 66.6471 57.5076 66.8491C57.5913 67.0513 57.6132 67.2737 57.5705 67.4883C57.5278 67.7029 57.4224 67.9001 57.2677 68.0548C57.113 68.2095 56.916 68.3148 56.7014 68.3575C56.4867 68.4001 56.2643 68.3783 56.0622 68.2945C55.8601 68.2108 55.6873 68.069 55.5658 67.8871C55.4442 67.7052 55.3793 67.4913 55.3793 67.2726C55.3793 66.9791 55.4958 66.6977 55.7033 66.4903C55.9107 66.2829 56.1922 66.1663 56.4855 66.1663Z" fill="#CBCBCB"/>
</g>
</g>
<defs>
<filter id="filter0_d_11219_2118" x="0" y="0" width="108" height="108" filterUnits="userSpaceOnUse" color-interpolation-filters="sRGB">
<feFlood flood-opacity="0" result="BackgroundImageFix"/>
<feColorMatrix in="SourceAlpha" type="matrix" values="0 0 0 0 0 0 0 0 0 0 0 0 0 0 0 0 0 0 127 0" result="hardAlpha"/>
<feOffset dy="1"/>
<feGaussianBlur stdDeviation="2"/>
<feColorMatrix type="matrix" values="0 0 0 0 0 0 0 0 0 0 0 0 0 0 0 0 0 0 0.04 0"/>
<feBlend mode="normal" in2="BackgroundImageFix" result="effect1_dropShadow_11219_2118"/>
<feBlend mode="normal" in="SourceGraphic" in2="effect1_dropShadow_11219_2118" result="shape"/>
</filter>
<clipPath id="clip0_11219_2118">
<rect width="38" height="38" fill="white" transform="translate(35 34)"/>
</clipPath>
</defs>
</svg>
