<svg width="50" height="50" viewBox="0 0 50 50" fill="none" xmlns="http://www.w3.org/2000/svg">
<g clip-path="url(#clip0_11218_4669)">
<path d="M50 25C50 38.8 38.8 50 25 50C11.2 50 0 38.8 0 25C0.1 11.2 11.2 0 25.1 0C39 0 50 11.2 50 25Z" fill="#DD4814"/>
<path d="M8.00001 21.6C6.10001 21.6 4.70001 23.1 4.70001 24.9C4.70001 26.8 6.20001 28.2 8.00001 28.2C9.90001 28.2 11.3 26.7 11.3 24.9C11.4 23.1 9.90001 21.6 8.00001 21.6ZM31.8 36.8C30.2 37.7 29.6 39.8 30.6 41.4C31.5 43 33.6 43.6 35.2 42.6C36.8 41.7 37.4 39.6 36.4 38C35.5 36.5 33.5 35.9 31.8 36.8ZM15.3 25C15.3 21.7 17 18.8 19.4 17L17 12.9C14.1 14.9 11.9 17.8 11 21.3C12.1 22.2 12.7 23.5 12.7 24.9C12.7 26.3 12 27.7 11 28.5C11.9 32 14.1 35 17 37L19.4 32.9C16.9 31.2 15.3 28.3 15.3 25ZM25.1 15.2C30.2 15.2 34.4 19.1 34.8 24.1L39.6 24C39.3 20.3 37.7 17 35.2 14.5C33.9 15 32.5 14.9 31.2 14.2C29.9 13.4 29.1 12.2 28.9 10.9C27.6 10.5 26.4 10.4 25 10.4C22.7 10.4 20.5 11 18.6 11.9L20.9 16.1C22.2 15.6 23.5 15.2 25.1 15.2ZM25.1 34.8C23.6 34.8 22.2 34.5 21 33.9L18.6 38C20.5 39 22.7 39.5 25 39.5C26.4 39.5 27.6 39.3 28.9 39C29.1 37.6 29.9 36.4 31.2 35.7C32.5 34.9 33.9 34.9 35.2 35.4C37.7 33 39.3 29.7 39.5 26H34.8C34.3 30.8 30.1 34.8 25.1 34.8ZM31.8 13.2C33.4 14.1 35.4 13.6 36.4 12C37.3 10.4 36.8 8.40001 35.2 7.40001C33.6 6.50001 31.6 7.00001 30.6 8.60001C29.7 10.2 30.3 12.2 31.8 13.2Z" fill="white"/>
</g>
<defs>
<clipPath id="clip0_11218_4669">
<rect width="50" height="50" fill="white"/>
</clipPath>
</defs>
</svg>
