<svg width="51" height="50" viewBox="0 0 51 50" fill="none" xmlns="http://www.w3.org/2000/svg">
<g clip-path="url(#clip0_11218_4681)">
<path fill-rule="evenodd" clip-rule="evenodd" d="M44.5 24.2C43.4 24.1 42.5 23.3 42.5 22.2C42.5 21.7 42.8 21.2 43.2 20.9C43.6 20.5 44.1 20.4 44.7 20.4C45.8 20.5 46.7 21.3 46.7 22.4C46.7 22.9 46.4 23.4 46 23.7C45.6 24.1 45.1 24.2 44.5 24.2ZM45 22.5C45.5 22.5 45.9 22.2 45.9 21.9C45.9 21.6 45.5 21.3 45 21.3C44.5 21.3 44.1 21.6 44.1 21.9C44.1 22.3 44.5 22.5 45 22.5ZM21.5 35.2L21.6 35.1C21.6 35 21.5 35 21.4 34.2C21.3 33.5 21.2 31.6 22.3 30.7C22.7 30.3 23.3 30 23.8 29.9C25.8 29.4 28.1 29.7 30.3 32.1C31.4 33.3 32 33.9 32.3 34.1L32.4 34.2L32.5 34.3C32.6 34.4 36.3 35.9 36.3 35.9H36.4V35.8C36.3 35.8 34.1 33 34.5 30.7C34.8 28.9 36.4 29 38.5 29.3C39.2 29.4 40 29.5 40.8 29.5C43.1 29.5 45.6 29.1 47.1 28.5C48.1 28.1 48.7 27.8 49.1 27.5C49.3 27.4 49.3 27.2 49.4 27L49.5 26.8C49.6 26.6 49.7 26.3 49.7 26.1C49.7 26 49.8 25.9 49.6 25.9L49.4 26C48.7 26.4 47 27.1 45.5 27.1C43.5 27.2 39.6 25.3 39.2 25.1L39.1 25C39 24.8 38.4 23.5 38.3 23.2C41.1 24.9 43.5 25.9 45.3 26C47.3 26.2 48.9 25.1 49.5 24.7C49.7 24.6 49.8 24.5 49.8 24.5L49.9 24.4C49.8 23.7 48.7 20.6 47.9 19.8C47.7 19.6 47.5 19.4 47.1 19.2C44.2 17.6 37.5 16.7 37.2 16.7H37.1V16.8C37.1 16.8 37 18.1 37 18.3C36.3 18.1 31.3 16.6 26.6 16.4C22.6 16.3 16.8 15.8 9 20.2H8.8C5.2 22.3 2.7 24.9 1.4 27.9C1 28.9 0.400001 31 1 33C1.3 33.9 1.7 34.8 2.3 35.6C3.7 37.4 5.9 38.6 8.3 38.8C11.7 39.1 14.3 37.6 15.2 35C15.9 33.1 15.2 30.4 12.8 29.1C10.8 28 8.7 28.2 7.5 29C6.4 29.7 5.8 30.7 5.8 31.8C5.9 33.8 7.7 34.9 9 34.9C9.4 34.9 9.8 34.8 10.2 34.7C10.4 34.6 10.5 34.6 10.7 34.5L10.8 34.4H10.9C11.2 34.2 11.4 33.9 11.4 33.5C11.4 33.4 11.4 33.3 11.3 33.2C11.1 32.7 10.6 32.4 10 32.5H9.8L9.6 32.6L9.5 33C9.2 33 9 33 8.9 33.1C8.7 33.1 8 32.9 8 32.1C8 31.8 8.1 31.6 8.2 31.5C8.5 31.1 9.1 30.8 10 30.9C11.2 31 12 31.6 12.6 32.6C13.1 33.6 13 34.8 12.2 35.6C11.5 36.5 10.2 36.8 8.5 36.7C6.8 36.5 5.3 35.6 4.5 34.2C3.7 32.8 3.6 31.1 4.4 29.9C6.2 26.9 9.4 26.9 11.2 27.2C13.9 27.7 16.9 29.9 18 32.5C18.2 32.9 18.3 33.3 18.4 33.6L18.5 34.1L21.5 35.2ZM42.6 20.4C42 20.9 41.7 21.6 41.7 22.3C41.7 23.8 42.9 25 44.5 25C45.3 25 46 24.7 46.6 24.3C47.2 23.8 47.5 23.1 47.5 22.4C47.6 20.9 46.3 19.7 44.7 19.6C43.9 19.7 43.2 19.9 42.6 20.4Z" fill="#6EB927"/>
</g>
<defs>
<clipPath id="clip0_11218_4681">
<rect width="50" height="50" fill="white" transform="translate(0.5)"/>
</clipPath>
</defs>
</svg>
