<svg width="50" height="50" viewBox="0 0 50 50" fill="none" xmlns="http://www.w3.org/2000/svg">
<mask id="mask0_11218_4688" style="mask-type:luminance" maskUnits="userSpaceOnUse" x="0" y="0" width="50" height="50">
<path d="M50 0.400024H0V49.6H50V0.400024Z" fill="white"/>
</mask>
<g mask="url(#mask0_11218_4688)">
<path d="M45.7 28.1001C47.8 28.0001 49.5 29.3 49.7 31.4C49.9 33.6 48.4 35.3001 46.2 35.5001C44.2 35.7 42.4 34.2 42.2 32.1C42 29.9 43.5 28.3001 45.7 28.1001Z" fill="#86DA2F"/>
<path d="M20.1 45.2C20.1 43.1 21.7 41.5 23.6 41.5C25.5 41.5 27.4 43.3 27.4 45.3C27.4 47.3 25.8 49 23.9 49C21.7 49 20.1 47.6 20.1 45.2Z" fill="#24C2FF"/>
<path d="M25.9 21.7C25.6 21.8 25.4 21.6 25.4 21.4C22.4 15.8 23.3 8.79999 28.5 4.59999C29.9 3.49999 32.5 3.29999 33.6 4.39999C34.1 4.79999 34.1 5.29999 34.3 5.79999C34.5 6.99999 34.7 8.19999 35.5 9.19999C36.4 10.3 37.5 10.6 38.8 10.6C40 10.6 41 10.5 41.8 11.7C42.2 12.5 42 15.3 41.4 15.8C41.1 16.1 40.9 15.9 40.6 15.8C38.8 15 36.8 15 34.8 15.4C34.1 15.5 33.8 15.3 33.8 14.6C33.7 13.4 33.5 12.3 32.8 11.2C31.7 9.09999 29.5 8.99999 28 11C26.8 12.6 26.5 14.6 26.1 16.5C25.8 18.2 25.8 19.9 25.9 21.7Z" fill="#FFCB12"/>
<path d="M27.9 22.9C27.8 22.7 27.8 22.4 28 22.3C32.6 18.1 39.5 17.3 44.8 21.4C46.1 22.5 47 24.9 46.3 26.3C46 26.8 45.5 27.1 45.1 27.3C43.9 27.8 42.9 28.3 42.2 29.3C41.4 30.3 41.3 31.5 41.7 32.8C41.9 33.8 42.4 35 41.3 36C40.8 36.5 38 37 37.3 36.5C37 36.3 37.1 36 37.1 35.7C37.3 33.7 36.9 31.9 36.1 30.1C35.9 29.5 35.9 29.1 36.6 29C37.8 28.7 38.8 28.1 39.6 27.3C41.4 25.6 40.9 23.4 38.6 22.4C36.8 21.6 34.8 21.8 32.9 21.9C31.2 22 29.5 22.4 27.9 22.9Z" fill="#86DA2F"/>
<path d="M26.9 25C27.1 24.8 27.3 24.9 27.5 25C32.8 28.2 35.5 34.6 33.2 40.8C32.5 42.4 30.4 44 29 43.6C28.4 43.4 28 43.1 27.7 42.7C26.9 41.7 26.2 40.9 24.9 40.5C23.6 40.1 22.5 40.3 21.4 41C20.4 41.5 19.4 42.3 18.3 41.5C17.5 41.1 16.3 38.6 16.6 37.8C16.7 37.5 17.1 37.5 17.4 37.5C19.4 37.2 21 36.2 22.5 34.9C23 34.5 23.4 34.5 23.8 35.1C24.4 36.1 25.3 36.9 26.3 37.4C28.4 38.6 30.4 37.6 30.7 35.2C30.9 33.2 30.2 31.4 29.6 29.7C28.7 28 27.8 26.5 26.9 25Z" fill="#24C2FF"/>
<path d="M24.2 25.5C23.9 27.1 23.2 28.6 22.2 30C19.3 34.3 15.1 36.1 9.99999 35.6C8.09999 35.4 6.59999 33.9 6.39999 32.4C6.29999 31.8 6.49999 31.3 6.89999 30.8C7.49999 30 7.99999 29.4 8.19999 28.6C8.69999 26.8 8.09999 25.4 6.79999 24.1C4.99999 22.3 5.19999 20.7 7.39999 19.4C7.59999 19.3 7.99999 19.1 8.29999 18.9C8.79999 18.7 9.19999 18.7 9.39999 19.2C10.2 21.1 11.6 22.4 13.2 23.6C13.8 24.1 13.8 24.4 13.3 25C12.4 26 11.7 27.4 11.7 28.8C11.6 30.6 12.6 31.7 14.3 31.7C15.4 31.7 16.5 31.3 17.4 30.8C19.9 29.5 21.8 27.7 23.7 25.7C23.9 25.6 24 25.4 24.2 25.5Z" fill="#0069DA"/>
<path d="M11.1 8.60004C11.2 8.60004 11.7 8.70004 12 8.70004C15 9.30004 16.9 8.20004 17.8 5.40004C18.4 3.60004 19.8 3.00004 21.6 4.00004C21.7 4.00004 21.7 4.10004 21.7 4.10004C23.6 5.10004 23.6 5.30004 22.5 6.90004C21.5 8.20004 21 9.70004 20.8 11.1C20.7 12 20.3 12.2 19.5 11.9C18.2 11.4 16.9 11.4 15.4 11.9C13.8 12.4 13.2 13.8 13.7 15.3C14.3 17.3 16.1 18.2 17.7 19.3C19.2 20.3 21 20.9 22.7 21.7C22.9 21.8 23.3 21.8 23.2 22.2C23.1 22.4 22.8 22.4 22.4 22.4C18.8 22.5 15.3 22 12.5 19.6C9.9 17.3 8 14.7 8.3 11C8.6 9.70004 9.5 8.80004 11.1 8.60004Z" fill="#FF4649"/>
<path d="M4.4 31.2C2.4 31.4 0.599998 29.8 0.299998 27.8C0.0999978 25.8 1.8 23.9 3.6 23.7C5.7 23.5 7.7 24.9 7.8 26.8C8 28.8 6.8 31.1 4.4 31.2Z" fill="#0069DA"/>
<path d="M38.3 2.49999C40.3 2.29999 42.3 3.99999 42.4 5.89999C42.6 7.79999 40.9 9.69999 39 9.79999C36.9 9.89999 35 8.39999 34.9 6.39999C34.8 4.49999 36.2 2.69999 38.3 2.49999Z" fill="#FFCB12"/>
<path d="M17.2 4.10002C17.4 6.20002 16 7.90002 13.8 8.30002C12 8.50002 10.1 7.00002 9.8 5.20002C9.6 2.90002 10.9 1.20002 13.1 1.00002C15.1 0.700022 17 2.20002 17.2 4.10002Z" fill="#FF4649"/>
</g>
</svg>
