<svg width="50" height="50" viewBox="0 0 50 50" fill="none" xmlns="http://www.w3.org/2000/svg">
<g clip-path="url(#clip0_11218_4512)">
<path d="M21 23.2L22.8 25L21 26.8H8.3V32.8L0.5 24.9L8.2 17.3V23.1L21 23.2Z" fill="#932279"/>
<path d="M26.8 21L25 22.8L23.2 21V8.3H17.2L25 0.5L32.6 8.2H26.8V21Z" fill="#EFA724"/>
<path d="M28.9 26.8L27.1 25L28.9 23.2H41.6V17.2L49.3 25L41.5 32.7V26.9H28.9V26.8Z" fill="#262577"/>
<path d="M23.1 28.9L24.9 27.1L26.7 28.9V41.6H32.7L24.9 49.3L17.3 41.5H23.1V28.9ZM7.79999 7.79999H23.2V23.3H7.79999V7.79999Z" fill="#9CCD2A"/>
<path d="M7.29999 7.29999H23.9V23.9H7.29999V7.29999ZM8.39999 22.8H22.7V8.39999H8.39999V22.8Z" fill="white"/>
<path d="M26.6 7.79999H42.1V23.2H26.6C26.6 23.3 26.6 7.79999 26.6 7.79999Z" fill="#932279"/>
<path d="M26.1 7.29999H42.7V23.9H26.1V7.29999ZM27.2 22.8H41.5V8.39999H27.2V22.8Z" fill="white"/>
<path d="M26.6 26.6H42.1V42.1H26.6V26.6Z" fill="#EFA724"/>
<path d="M26.1 26.1H42.7V42.7H26.1V26.1ZM27.2 41.5H41.5V27.2H27.2V41.5Z" fill="white"/>
<path d="M7.79999 26.6H23.2V42.1H7.79999V26.6Z" fill="#262577"/>
<path d="M7.29999 26.1H23.9V42.7H7.29999V26.1ZM8.39999 41.5H22.7V27.2H8.39999V41.5Z" fill="white"/>
<path d="M11.7 36.7L0 25L11.7 13.3L23.4 25L11.7 36.7ZM1.5 25L11.6 35.1L21.9 25L11.7 14.8L1.5 25ZM25 23.4L13.3 11.7L25 0L36.7 11.7L25 23.4ZM14.8 11.7L25 21.9L35.1 11.8L25 1.5L14.8 11.7ZM38.3 36.7L26.5 25L38.2 13.3L50 25L38.3 36.7ZM28.1 25L38.2 35.1L48.4 25L38.3 14.8L28.1 25ZM25 50L13.3 38.3L25 26.5L36.7 38.2L25 50ZM14.8 38.3L25 48.4L35.1 38.3L25 28.1L14.8 38.3Z" fill="white"/>
</g>
<defs>
<clipPath id="clip0_11218_4512">
<rect width="50" height="50" fill="white"/>
</clipPath>
</defs>
</svg>
