<svg width="51" height="50" viewBox="0 0 51 50" fill="none" xmlns="http://www.w3.org/2000/svg">
<g clip-path="url(#clip0_11218_4683)">
<path d="M49.7 1.50002C52.3 4.10002 45 15.7 43.8 16.9C42.6 18.1 39.4 17 36.8 14.4C34.2 11.8 33 8.60002 34.3 7.40002C35.6 6.20002 47.1 -1.19998 49.7 1.50002Z" fill="#B5010F"/>
<path d="M12.7 4.20001C8.7 1.90001 2.9 -0.599988 1.1 1.20001C-0.699999 3.00001 1.9 8.90001 4.2 12.9C6.3 9.40001 9.2 6.40001 12.7 4.20001Z" fill="#B5010F"/>
<path d="M45.7 16C46 17.2 46 18.3 45.4 18.9C44 20.3 40.2 18.8 36.8 15.6C36.6 15.4 36.3 15.2 36.1 15C34.9 13.8 33.9 12.5 33.3 11.2C32.1 9.10001 31.8 7.20001 32.7 6.20001C33.2 5.70001 34 5.60001 34.9 5.80001C35.5 5.40001 36.3 5.00001 37.1 4.50001C33.8 2.80001 30 1.80001 26.1 1.80001C12.8 1.70001 2.1 12.4 2.1 25.6C2.1 38.8 12.8 49.5 26 49.5C39.2 49.5 49.9 38.8 49.9 25.6C49.9 21.3 48.8 17.3 46.8 13.9C46.5 14.7 46.1 15.4 45.7 16Z" fill="#B5010F"/>
</g>
<defs>
<clipPath id="clip0_11218_4683">
<rect width="50" height="50" fill="white" transform="translate(0.5)"/>
</clipPath>
</defs>
</svg>
