<svg width="50" height="50" viewBox="0 0 50 50" fill="none" xmlns="http://www.w3.org/2000/svg">
<g clip-path="url(#clip0_11218_4706)">
<path d="M49.4 24.7C49.4 11.1 38.3 0 24.7 0C11.1 0 0 11.1 0 24.7V43.8C0 46.9 2.5 49.4 5.6 49.4H24.7C38.3 49.4 49.4 38.3 49.4 24.7Z" fill="#294172"/>
<path d="M32 5.79999C25.6 5.79999 20.4 11 20.4 17.4V23.5H14.3C7.90001 23.5 2.70001 28.7 2.70001 35.1C2.70001 41.5 7.90001 46.7 14.3 46.7C20.7 46.7 25.9 41.5 25.9 35.1V29H32C38.4 29 43.6 23.8 43.6 17.4C43.5 11.1 38.3 5.79999 32 5.79999ZM20.4 35.2C20.4 38.6 17.6 41.4 14.2 41.4C10.8 41.4 8.00001 38.6 8.00001 35.2C8.00001 31.8 10.8 29 14.2 29H20.3L20.4 35.2ZM32 23.6H25.9V17.4C25.9 14 28.7 11.2 32.1 11.2C35.5 11.2 38.3 14 38.3 17.4C38.3 20.8 35.4 23.6 32 23.6Z" fill="#3C6EB4"/>
<path d="M34.5 6.20002C33.6 6.00002 32.9 5.90002 31.9 5.90002C25.5 5.90002 20.3 11.1 20.3 17.5V23.6H15.5C14 23.6 12.8 24.8 12.8 26.3C12.8 27.8 14 29 15.5 29H19.5C20 29 20.3 29.4 20.3 29.8V35.1C20.3 38.5 17.5 41.2 14.2 41.2C13.1 41.2 12.8 41.1 12 41.1C10.4 41.1 9.29999 42.2 9.29999 43.7C9.29999 44.9 10.4 46 11.7 46.4C12.6 46.6 13.3 46.7 14.3 46.7C20.7 46.7 25.9 41.5 25.9 35.1V29H30.7C32.2 29 33.4 27.8 33.4 26.3C33.4 24.8 32.2 23.6 30.7 23.6H26.7C26.2 23.6 25.9 23.2 25.9 22.8V17.5C25.9 14.1 28.7 11.4 32 11.4C33.1 11.4 33.4 11.5 34.2 11.5C35.8 11.5 36.9 10.4 36.9 8.90002C36.9 7.60002 35.8 6.50002 34.5 6.20002Z" fill="white"/>
</g>
<defs>
<clipPath id="clip0_11218_4706">
<rect width="50" height="50" fill="white"/>
</clipPath>
</defs>
</svg>
