<svg width="50" height="50" viewBox="0 0 50 50" fill="none" xmlns="http://www.w3.org/2000/svg">
<g clip-path="url(#clip0_11218_4666)">
<path d="M28.1 26.2C27.3 26.2 28.3 26.6 29.3 26.8C29.6 26.5 29.9 26.3 30.1 26.1C29.4 26.2 28.7 26.2 28.1 26.2ZM32.4 25.1C32.9 24.4 33.2 23.7 33.4 23C33.3 23.6 33 24 32.7 24.5C31.2 25.4 32.5 23.9 32.7 23.4C31 25.4 32.4 24.5 32.4 25.1ZM33.9 21C34 19.5 33.6 20 33.5 20.5C33.7 20.6 33.8 21.6 33.9 21ZM25 1.40001C25.4 1.50001 25.9 1.60001 25.9 1.70001C26.4 1.50001 26.5 1.40001 25 1.40001ZM39.2 21.5C39.3 22.8 38.8 23.4 38.4 24.5L37.7 24.9C37.1 26 37.8 25.6 37.3 26.5C36.4 27.3 34.6 29 34.1 29.1C33.7 29.1 34.4 28.6 34.5 28.4C33.3 29.2 33.5 29.6 31.7 30.1V30C27.3 32.1 21.1 27.9 21.2 22.3C21.1 22.7 21 22.6 20.9 22.7C20.6 19.8 22.3 16.8 24.9 15.7C27.5 14.4 30.5 14.9 32.4 16.7C31.4 15.4 29.3 13.9 27 14.1C24.6 14.2 22.4 15.7 21.7 17.3C20.5 18.1 20.3 20.2 19.8 20.6C19.1 25.8 21.1 28.1 24.6 30.7C25.2 31.1 24.8 31.1 24.9 31.4C23.7 30.8 22.7 30 21.8 29.1C22.3 29.8 22.8 30.4 23.4 31C22.3 30.6 20.9 28.4 20.5 28.3C22.3 31.5 28 34 31 32.8C29.6 32.9 27.9 32.8 26.3 32.2C25.6 31.8 24.7 31.2 24.9 31C29 32.5 33.2 32.2 36.7 29.3C37.6 28.6 38.6 27.4 38.9 27.4C38.5 28.1 39 27.7 38.6 28.3C39.5 26.8 38.2 27.7 39.5 25.8L40 26.5C39.8 25.3 41.5 23.8 41.3 22C41.7 21.4 41.7 22.6 41.3 24C41.9 22.5 41.5 22.3 41.6 21.1C41.8 21.5 42 22 42.1 22.4C41.7 21 42.5 20 42.7 19.2C42.5 19 42.1 19.7 42 18C42 17.2 42.2 17.6 42.3 17.4C42.1 17.3 41.8 16.7 41.5 15.7C41.7 15.4 42 16.4 42.2 16.4C42 15.5 41.8 14.9 41.8 14.2C41.1 12.8 41.5 14.4 41 13.6C40.3 11.4 41.6 13.1 41.7 12.1C42.8 13.7 43.4 16 43.7 17C43.5 15.8 43.1 14.6 42.7 13.5C43 13.7 42.2 11 43.1 12.7C42.1 9.00001 38.8 5.50001 35.7 3.90001C36.1 4.30001 36.6 4.70001 36.4 4.80001C34.9 3.90001 35.1 3.80001 34.9 3.40001C33.7 2.90001 33.6 3.50001 32.8 3.40001C30.5 2.20001 30 2.30001 27.9 1.50001L28 2.10001C26.4 1.60001 26.2 2.30001 24.5 2.10001C24.4 2.00001 25.1 1.80001 25.6 1.70001C24.1 1.80001 24.2 1.30001 22.8 1.60001C23.2 1.30001 23.6 1.20001 23.9 1.00001C22.7 1.10001 21 1.70001 21.5 1.20001C19.5 2.10001 16 3.30001 14 5.10001V4.80001C13.1 5.90001 10.1 8.00001 9.79998 9.40001L9.59998 9.50001C9.09998 10.3 8.79998 11.2 8.39998 12C7.79997 13.1 7.49998 12.4 7.59998 12.6C6.39998 15.1 5.79998 17.1 5.29998 18.8C5.69998 19.4 5.29998 22.1 5.49998 24.3C4.89998 35.3 13.2 46 22.3 48.4C23.6 48.9 25.6 48.9 27.3 48.9C25.3 48.3 25.1 48.6 23.1 47.9C21.7 47.2 21.4 46.5 20.4 45.6L20.8 46.3C18.9 45.6 19.7 45.4 18.1 44.9L18.5 44.3C17.9 44.2 16.8 43.2 16.5 42.7H15.8C15 41.7 14.5 40.9 14.6 40.4L14.3 40.8C14 40.3 11.3 37 12.7 37.8C12.4 37.5 12.1 37.4 11.7 36.7L12 36.3C11.3 35.4 10.7 34.2 10.8 33.9C11.2 34.4 11.4 34.5 11.7 34.6C9.89998 30.2 9.79998 34.3 8.49998 30.2H8.79998C8.59998 29.9 8.39998 29.5 8.29998 29.2L8.39998 28C7.09998 26.5 7.99998 21.8 8.19998 19.2C8.39998 18.1 9.29998 17 9.99998 15.2L9.49998 15.1C10.3 13.6 14.2 9.30001 16 9.60001C16.9 8.50001 15.8 9.60001 15.6 9.30001C17.5 7.30001 18.1 7.90001 19.4 7.50001C20.8 6.70001 18.2 7.80001 18.8 7.20001C21.2 6.60001 20.5 5.80001 23.6 5.50001C23.9 5.70001 22.8 5.80001 22.5 6.10001C24.5 5.10001 28.9 5.30001 31.6 6.70001C34.9 8.20001 38.5 12.8 38.7 17L38.9 17.1C38.8 18.8 39.2 20.7 38.5 22.5L39.2 21.5ZM19.3 27.3L19.2 27.9C19.8 28.6 20.2 29.4 20.8 29.9C20.4 28.9 20 28.6 19.3 27.3ZM20.6 27.2C20.3 26.9 20.1 26.5 20 26.1C20.2 26.8 20.6 27.3 20.9 27.9L20.6 27.2ZM42.5 22.4L42.3 22.7C42.1 24.2 41.6 25.7 40.9 27.1C41.8 25.7 42.3 24.1 42.5 22.4ZM25.2 1.00001C25.8 0.800012 26.5 0.900012 27.1 0.700012C26.3 0.800012 25.6 0.800012 24.9 0.900012L25.2 1.00001ZM6.19998 11.1C6.39998 12.3 5.29998 12.7 6.49998 12C6.99998 10.6 6.19998 11.5 6.19998 11.1ZM4.99998 16.4C5.29998 15.6 5.29998 15.2 5.39998 14.7C4.69998 15.6 5.09998 15.7 4.99998 16.4ZM89.7 39.4C89.5 39.4 89.8 39.5 90 39.5L90.2 39.3C90 39.4 89.8 39.4 89.7 39.4ZM90.6 39.2C90.7 39 90.8 38.9 90.8 38.7C90.8 38.8 90.7 38.9 90.6 39C90.3 39.2 90.5 38.9 90.6 38.7C90.3 39.2 90.6 39.1 90.6 39.2ZM90.9 38.3C90.9 38 90.8 38.1 90.8 38.2C90.9 38.2 90.9 38.4 90.9 38.3ZM89 34.2C89.1 34.2 89.2 34.3 89.2 34.3C89.3 34.2 89.3 34.2 89 34.2Z" fill="#D70751"/>
</g>
<defs>
<clipPath id="clip0_11218_4666">
<rect width="50" height="50" fill="white"/>
</clipPath>
</defs>
</svg>
