<svg width="51" height="50" viewBox="0 0 51 50" fill="none" xmlns="http://www.w3.org/2000/svg">
<g clip-path="url(#clip0_11218_4673)">
<path fill-rule="evenodd" clip-rule="evenodd" d="M25.5 0C23.3 5.4 22 9 19.5 14.3C21 15.9 22.9 17.8 25.9 19.9C22.7 18.5 20.5 17.2 18.8 15.8C15.6 22.5 10.6 31.9 0.5 50C8.4 45.5 14.6 42.6 20.3 41.5C20.1 40.5 19.9 39.3 19.9 38.1V37.9C20 32.8 22.7 28.9 25.8 29.2C28.9 29.4 31.3 33.8 31.3 38.9C31.3 39.8 31.2 40.7 31 41.7C36.6 42.8 42.7 45.6 50.5 50.1L46.3 42.3C44.3 40.7 42.1 38.6 37.6 36.3C40.6 37.1 42.8 38 44.4 39C31.1 14.1 30 10.8 25.5 0Z" fill="#1793D1"/>
</g>
<defs>
<clipPath id="clip0_11218_4673">
<rect width="50" height="50" fill="white" transform="translate(0.5)"/>
</clipPath>
</defs>
</svg>
