<svg width="161" height="48" viewBox="0 0 161 48" fill="none" xmlns="http://www.w3.org/2000/svg">
<g clip-path="url(#clip0_12093_6790)">
<path d="M39.222 9.33887C35.2054 9.33887 33.7956 12.1319 33.7956 14.7387V16.3347H32.9444C32.3326 16.3347 31.8538 16.8135 31.8538 17.4253C31.8538 18.0371 32.3326 18.5159 32.9444 18.5159H33.7956V29.5284C33.7956 30.1668 34.301 30.6988 34.966 30.6988C35.6044 30.6988 36.1364 30.1934 36.1364 29.5284V18.5159H38.7166C39.3284 18.5159 39.8072 18.0371 39.8072 17.4253C39.8072 16.8135 39.3284 16.3347 38.7166 16.3347H36.1364V14.7387C36.1364 13.2757 36.6684 11.5467 39.2486 11.5467C39.8604 11.5467 40.3392 11.0679 40.3392 10.4561C40.3126 9.81767 39.8338 9.33887 39.222 9.33887Z" fill="#4D4D4D"/>
<path d="M48.2664 15.9614C46.5374 15.9614 45.0744 16.6796 44.2498 17.85V17.2382C44.2498 16.5998 43.7443 16.0678 43.0793 16.0678C42.4409 16.0678 41.9089 16.5732 41.9089 17.2382V29.5275C41.9089 30.1659 42.4143 30.6979 43.0793 30.6979C43.7177 30.6979 44.2498 30.1925 44.2498 29.5275V22.7445C44.2498 19.8982 45.766 18.1958 48.2664 18.1958C48.8782 18.1958 49.3836 17.6904 49.3836 17.0786C49.4102 16.4668 48.9048 15.9614 48.2664 15.9614Z" fill="#4D4D4D"/>
<path d="M62.4977 21.9996C62.4977 21.3346 62.3913 19.6056 61.3805 18.1692C60.3431 16.6796 58.7205 15.9082 56.5127 15.9082C52.4163 15.9082 50.0754 18.6214 50.0754 23.3562C50.0754 28.2507 52.4162 30.8575 56.8053 30.8575C59.7579 30.8575 61.3805 29.3945 61.6731 29.1019C61.8593 28.9157 62.0721 28.6763 62.0721 28.2773C62.0721 27.6921 61.5933 27.2133 61.0081 27.2133C60.7155 27.2133 60.5293 27.2931 60.3431 27.4261C59.4919 28.0645 58.5077 28.7029 56.8319 28.7029C54.1985 28.7029 52.5227 26.9739 52.4429 24.1543H61.0879C62.4977 24.1277 62.4977 22.8508 62.4977 21.9996ZM56.5127 18.0362C58.9067 18.0362 60.1569 19.3928 60.2101 22.0528H52.4695C52.6823 19.4726 54.1187 18.0362 56.5127 18.0362Z" fill="#4D4D4D"/>
<path d="M70.3182 22.1866C68.5892 21.6014 67.0996 21.0694 67.0996 19.7926C67.0996 18.3828 68.669 18.17 69.6 18.17C71.2758 18.17 72.1004 18.7552 72.7654 19.3936C72.9782 19.6064 73.2442 19.7128 73.5368 19.7128C74.122 19.7128 74.6008 19.234 74.6008 18.6488C74.6008 18.3296 74.4678 18.1168 74.3614 17.9572C73.3772 16.6538 71.7014 15.9355 69.6 15.9355C66.6208 15.9355 64.7854 17.4252 64.7854 19.7926C64.7854 22.692 67.339 23.5698 69.5734 24.3146C71.2758 24.8998 72.7388 25.3786 72.7388 26.6288C72.7388 28.3312 70.8502 28.5972 69.7064 28.5972C68.1636 28.5972 66.9666 28.1184 65.9824 27.1608C65.6898 26.8682 65.3706 26.815 65.1844 26.815C64.5992 26.815 64.1204 27.2938 64.1204 27.879C64.1204 28.1184 64.2002 28.3046 64.3864 28.5706C65.2642 29.6878 67.2592 30.8316 69.7064 30.8316C73.058 30.8316 75.053 29.2622 75.053 26.6554C75.053 23.8358 72.5526 22.958 70.3182 22.1866Z" fill="#4D4D4D"/>
<path d="M84.1236 15.9085C82.5276 15.9085 81.0912 16.5469 80.2932 17.5577V9.68408C80.2932 9.04567 79.7878 8.51367 79.1228 8.51367C78.4844 8.51367 77.9524 9.01907 77.9524 9.68408V29.5544C77.9524 30.1928 78.4578 30.7248 79.1228 30.7248C79.7612 30.7248 80.2932 30.2194 80.2932 29.5544V22.0797C80.2932 19.3931 81.5966 18.0365 84.1236 18.0365C86.5708 18.0365 87.5817 19.1537 87.5817 21.8669V29.5544C87.5817 30.1928 88.0871 30.7248 88.7521 30.7248C89.3905 30.7248 89.9225 30.2194 89.9225 29.5544V21.4679C89.8693 17.7705 87.9275 15.9085 84.1236 15.9085Z" fill="#4D4D4D"/>
<path d="M109.26 16.0952C108.755 16.0952 108.356 16.3878 108.17 16.8666L104.845 26.3363L102.132 16.8666C102.025 16.4942 101.626 16.0952 101.041 16.0952C100.456 16.0952 100.057 16.4942 99.9504 16.8666L97.2372 26.3097L93.9121 16.84C93.7259 16.3612 93.3269 16.0952 92.8215 16.0952C92.1831 16.0952 91.6511 16.6006 91.6511 17.2656C91.6511 17.4252 91.6777 17.5848 91.7575 17.7444L96.1998 29.9539C96.386 30.4327 96.785 30.6987 97.2904 30.6987C97.8224 30.6987 98.2746 30.3529 98.4076 29.8741L101.014 20.9098L103.621 29.8741C103.754 30.3529 104.233 30.6987 104.738 30.6987C105.244 30.6987 105.643 30.4061 105.829 29.9273L110.271 17.7178C110.351 17.5582 110.378 17.372 110.378 17.2124C110.404 16.6006 109.899 16.0952 109.26 16.0952Z" fill="#4D4D4D"/>
<path d="M117.719 15.9082C113.49 15.9082 111.176 18.5682 111.176 23.3562C111.176 28.1975 113.49 30.8575 117.719 30.8575C121.949 30.8575 124.263 28.1975 124.263 23.3562C124.263 18.5416 121.922 15.9082 117.719 15.9082ZM117.719 28.7295C114.9 28.7295 113.516 26.9739 113.516 23.3828C113.516 19.845 114.926 18.0628 117.719 18.0628C120.512 18.0628 121.922 19.845 121.922 23.3828C121.922 26.9739 120.539 28.7295 117.719 28.7295Z" fill="#4D4D4D"/>
<path d="M133.254 15.9614C131.525 15.9614 130.062 16.6796 129.238 17.85V17.2382C129.238 16.5998 128.732 16.0678 128.067 16.0678C127.429 16.0678 126.897 16.5732 126.897 17.2382V29.5275C126.897 30.1659 127.402 30.6979 128.067 30.6979C128.706 30.6979 129.238 30.1925 129.238 29.5275V22.7445C129.238 19.8982 130.754 18.1958 133.254 18.1958C133.866 18.1958 134.371 17.6904 134.371 17.0786C134.371 16.4668 133.866 15.9614 133.254 15.9614Z" fill="#4D4D4D"/>
<path d="M142.085 22.0265L146.9 18.1695C147.299 17.8503 147.352 17.4513 147.352 17.2385C147.352 16.6001 146.847 16.0681 146.182 16.0681C145.996 16.0681 145.676 16.0947 145.384 16.3607L138.548 21.9467V9.68408C138.548 9.04567 138.042 8.51367 137.377 8.51367C136.739 8.51367 136.207 9.01907 136.207 9.68408V29.5544C136.207 30.1928 136.712 30.7248 137.377 30.7248C138.016 30.7248 138.548 30.2194 138.548 29.5544V24.7664L140.17 23.463L145.41 30.1928C145.703 30.5386 146.022 30.7248 146.395 30.7248C147.033 30.7248 147.565 30.2194 147.565 29.5544C147.565 29.3682 147.538 29.1022 147.326 28.8362L142.085 22.0265Z" fill="#4D4D4D"/>
<path d="M155.2 22.1866C153.471 21.6014 151.981 21.0694 151.981 19.7926C151.981 18.3828 153.55 18.17 154.481 18.17C156.157 18.17 156.982 18.7552 157.647 19.3936C157.86 19.6064 158.126 19.7128 158.418 19.7128C159.003 19.7128 159.482 19.234 159.482 18.6488C159.482 18.303 159.296 18.0636 159.243 17.9572C158.259 16.6538 156.583 15.9355 154.481 15.9355C151.502 15.9355 149.667 17.4252 149.667 19.7926C149.667 22.692 152.22 23.5698 154.455 24.3146C156.157 24.8998 157.62 25.3786 157.62 26.6288C157.62 28.3312 155.732 28.5972 154.588 28.5972C153.045 28.5972 151.848 28.1184 150.864 27.1608C150.571 26.8682 150.279 26.815 150.066 26.815C149.481 26.815 149.002 27.2938 149.002 27.879C149.002 28.1184 149.082 28.3046 149.268 28.5706C150.146 29.6878 152.141 30.8316 154.588 30.8316C157.939 30.8316 159.934 29.2622 159.934 26.6554C159.934 23.8358 157.434 22.958 155.2 22.1866Z" fill="#4D4D4D"/>
<path d="M0.49292 28.8891C0.945123 31.8417 2.32833 34.5017 4.32334 36.4967L8.97837 31.8417C8.97837 27.1335 11.4256 22.5583 15.788 20.0312L0.49292 28.8891Z" fill="#9B65C3"/>
<path d="M8.97837 31.8425C6.66415 31.8425 4.32334 31.2573 2.16873 30.0071C1.58353 29.6613 1.02492 29.2889 0.49292 28.8633C0.945123 31.8159 2.32833 34.4759 4.32334 36.4709L8.97837 31.8425Z" fill="#9B65C3"/>
<path d="M8.97803 31.8419L4.323 36.4969C6.34461 38.5185 8.97802 39.9017 11.9306 40.3273L20.7619 25.0322C18.2615 29.3947 13.6863 31.8419 8.97803 31.8419Z" fill="#BE63C5"/>
<path d="M10.8134 38.6778C9.56323 36.5232 8.97803 34.1824 8.97803 31.8682L4.323 36.5232C6.34461 38.5448 8.97802 39.928 11.9306 40.3536C11.5316 39.8216 11.1592 39.263 10.8134 38.6778Z" fill="#BF63C6"/>
<path d="M26.3219 13.9658L15.8148 20.0573C11.4524 22.5843 6.26534 22.3981 2.19552 20.0573C1.02511 22.0523 0.360107 24.3931 0.360107 26.8669C0.360107 27.5585 0.413307 28.2235 0.519708 28.8885C1.05171 29.3141 1.61031 29.6865 2.19552 30.0323C4.35013 31.2825 6.69094 31.8677 9.00516 31.8677L26.6145 14.2584C26.5081 14.152 26.4283 14.0456 26.3219 13.9658Z" fill="#3278B1"/>
<path d="M2.16847 30.0332C4.32309 31.2834 6.6639 31.8686 8.97811 31.8686C8.97811 27.1603 11.4253 22.5851 15.7878 20.0581L0.466064 28.8894C1.02467 29.2884 1.58327 29.6874 2.16847 30.0332Z" fill="#3278B2"/>
<path d="M2.16866 20.0581C0.998256 22.0531 0.333252 24.3939 0.333252 26.8677C0.333252 27.5594 0.386452 28.2244 0.492853 28.8894L15.8145 20.0581C11.4255 22.5585 6.23849 22.3989 2.16866 20.0581Z" fill="#45A4EC"/>
<path d="M26.6142 14.2325C26.5344 14.1527 26.428 14.0463 26.3216 13.9665C26.1886 13.8601 26.0556 13.7537 25.896 13.6739C25.3906 13.3813 24.8054 13.2217 24.1936 13.2217H13.9792C8.92514 13.2217 4.53611 15.9615 2.1687 20.0313C6.23852 22.3721 11.4256 22.5583 15.788 20.0313C11.4256 22.5583 8.97834 27.1336 8.97834 31.8418C13.6866 31.8418 18.2618 29.3946 20.7888 25.0322L26.8536 14.5251C26.7738 14.4187 26.694 14.3123 26.6142 14.2325Z" fill="#19BB7D"/>
<path d="M15.8146 20.0576L26.3216 13.9928C26.1886 13.8864 26.0556 13.78 25.896 13.7002L2.1687 20.0576C6.23852 22.3984 11.4256 22.558 15.8146 20.0576Z" fill="#08C7FB"/>
<path d="M24.1936 13.2217H13.9792C8.92514 13.2217 4.53611 15.9615 2.1687 20.0313L25.896 13.6739C25.3906 13.4079 24.832 13.2217 24.1936 13.2217Z" fill="#59F2F6"/>
<path d="M20.7887 25.0316L26.8536 14.5245C26.7738 14.4181 26.694 14.3383 26.5876 14.2319L8.97827 31.8412C8.97827 34.1554 9.56348 36.4963 10.8137 38.6509C11.1595 39.2361 11.5319 39.7947 11.9575 40.3267C12.6225 40.4331 13.2875 40.4863 13.9791 40.4863C16.4529 40.4863 18.7937 39.8213 20.7887 38.6509C18.4479 34.581 18.2617 29.394 20.7887 25.0316Z" fill="#DA3757"/>
<path d="M8.97827 31.8419C8.97827 34.1561 9.56348 36.4969 10.8137 38.6515C11.1595 39.2367 11.5319 39.7953 11.9575 40.3273L20.7887 25.0322C18.2617 29.3947 13.6865 31.8419 8.97827 31.8419Z" fill="#D33C4E"/>
<path d="M20.789 25.0322L11.9578 40.3539C12.6228 40.4603 13.2878 40.5135 13.9794 40.5135C16.4532 40.5135 18.794 39.8485 20.789 38.6781C18.4482 34.5817 18.262 29.3947 20.789 25.0322Z" fill="#EE5A24"/>
<path d="M27.1464 14.9505C27.0666 14.7909 26.9602 14.6579 26.8538 14.5249C26.774 14.4185 26.6942 14.3387 26.5878 14.2323C26.508 14.1525 26.4016 14.0461 26.2952 13.9663L15.8148 20.0577C11.4523 22.5848 9.00513 27.16 9.00513 31.8682C13.7134 31.8682 18.2886 29.421 20.8156 25.0586C18.2886 29.421 18.4748 34.608 20.8156 38.6779C24.8854 36.3104 27.6252 31.9214 27.6252 26.8674V16.6529C27.5986 16.0145 27.439 15.4293 27.1464 14.9505Z" fill="#8BDF55"/>
<path d="M26.3218 13.9663L15.8148 20.0577C11.4523 22.5848 9.00513 27.16 9.00513 31.8682L26.6144 14.2589C26.508 14.1525 26.4282 14.0461 26.3218 13.9663Z" fill="#25C16F"/>
<path d="M8.97827 31.8412C13.6865 31.8412 18.2617 29.394 20.7887 25.0316L26.8536 14.5245C26.7738 14.4181 26.694 14.3383 26.5876 14.2319L8.97827 31.8412Z" fill="#8BDF55"/>
<path d="M26.8536 14.5254L20.7887 25.0325C18.2617 29.3949 18.4479 34.5819 20.7887 38.6517L27.1462 14.9244C27.0664 14.7914 26.96 14.6584 26.8536 14.5254Z" fill="#FFBB00"/>
<path d="M20.7883 38.678C24.8582 36.3106 27.598 31.9216 27.598 26.8676V16.6531C27.598 16.0413 27.4384 15.4561 27.1458 14.9507L20.7883 38.678Z" fill="#FFA800"/>
</g>
<defs>
<clipPath id="clip0_12093_6790">
<rect width="160" height="48" fill="white" transform="translate(0.333252)"/>
</clipPath>
</defs>
</svg>
