<svg width="119" height="48" viewBox="0 0 119 48" fill="none" xmlns="http://www.w3.org/2000/svg">
<path d="M62.4103 17.0814C61.4373 16.2641 59.7637 15.8554 57.3895 15.8554H52.0574V32.3384H56.0467V27.1619H57.8371C59.9972 27.1619 61.593 26.6754 62.6049 25.7218C63.7531 24.6515 64.3174 23.2309 64.3174 21.4405C64.3174 19.6113 63.6752 18.1517 62.4103 17.0814ZM57.7203 23.4255H56.0273V19.5723H57.5452C59.3939 19.5723 60.3086 20.2145 60.3086 21.5184C60.328 22.7833 59.4523 23.4255 57.7203 23.4255ZM71.1286 15.8359H66.9835V32.3189H75.9548V28.5825H71.1286V15.8359ZM84.1087 15.8359L77.57 32.3189H82.0459L82.9021 29.9253H88.5846L89.363 32.3189H93.8973L87.4169 15.8359H84.1087ZM84.0503 26.5976L85.7628 20.954L87.4559 26.5976H84.0503Z" fill="#111111"/>
<path d="M95.9798 32.3193H100.144V15.8364H95.9798V32.3193ZM116.277 18.9306C115.752 18.1716 115.07 17.5294 114.292 17.0234C113.027 16.2256 111.315 15.8364 109.154 15.8364H103.667V32.3193H110.069C112.385 32.3193 114.253 31.5604 115.654 30.0425C117.055 28.5245 117.756 26.5201 117.756 24.0097C117.775 22.0248 117.269 20.3317 116.277 18.9306ZM109.622 28.5829H107.851V19.5728H109.66C110.925 19.5728 111.918 19.962 112.599 20.7598C113.28 21.5577 113.63 22.6864 113.63 24.146C113.611 27.1039 112.288 28.5829 109.622 28.5829ZM18.2743 2L4.78826 5.52234L1.07132 19.0862L5.74182 23.854L1.01294 28.544L4.51581 42.1663L17.9435 45.9222L22.6724 41.2322L27.3234 46L40.8095 42.4777L44.5264 28.9138L39.8754 24.146L44.6043 19.456L41.1014 5.8337L27.6737 2.07784L22.9448 6.7678L18.2743 2ZM10.0037 8.13003L17.1067 6.26183L20.2204 9.45334L15.6861 13.9487L10.0037 8.13003ZM25.5914 9.51172L28.744 6.37859L35.8082 8.36356L30.0284 14.1044C30.0479 14.0849 25.5914 9.51172 25.5914 9.51172ZM5.33315 17.977L7.29865 10.835L12.9811 16.6537L8.44682 21.1491L5.33315 17.977ZM32.714 16.8288L38.4937 11.088L40.3424 18.2689L37.1898 21.402C37.1704 21.402 32.714 16.8288 32.714 16.8288ZM18.3522 16.7121L22.8864 12.2167L27.3429 16.7899L22.8086 21.2853L18.3522 16.7121ZM11.1129 23.893L15.6472 19.3976L20.1036 23.9708L15.5693 28.4662L11.1129 23.893ZM25.4747 24.0097L30.009 19.5144L34.4654 24.0876L29.9311 28.5829C29.9311 28.6024 25.4747 24.0097 25.4747 24.0097ZM5.25531 29.7311L8.4079 26.598L12.8643 31.1712L7.10405 36.912C7.08459 36.912 5.25531 29.7311 5.25531 29.7311ZM18.2354 31.2101L22.7697 26.7147L27.2261 31.2879L22.6918 35.7833L18.2354 31.2101ZM32.5972 31.3268L37.1315 26.8315L40.2451 30.023L38.2991 37.165C38.2796 37.165 32.5972 31.3268 32.5972 31.3268ZM9.75067 39.6364L15.5109 33.8956L19.9674 38.4688L16.8148 41.6019L9.75067 39.6364ZM25.3579 38.5272L29.8922 34.0318L35.5746 39.8505L28.4716 41.7187L25.3579 38.5272Z" fill="#111111"/>
</svg>
