<svg width="510" height="405" viewBox="0 0 510 405" fill="none" xmlns="http://www.w3.org/2000/svg">
<path opacity="0.25" d="M427.384 267.771C427.384 267.91 427.384 267.91 427.314 267.98C427.105 268.885 426.409 269.79 425.155 270.486L288.877 349.663C286.997 350.777 284.351 351.125 281.983 350.847C281.914 350.847 281.844 350.847 281.774 350.777C280.451 350.638 279.198 350.22 278.153 349.593L76.4867 233.301C75.1636 232.535 74.3976 231.56 74.2583 230.585V230.515C74.3976 229.54 75.1636 228.565 76.417 227.799L212.695 148.623C215.69 146.882 220.494 146.882 223.489 148.623L425.086 264.985C426.478 265.821 427.244 266.796 427.384 267.771Z" fill="#1A1A1A"/>
<path d="M427.384 252.033C427.523 250.849 426.757 249.596 425.155 248.69L223.558 132.259C220.564 130.518 215.759 130.518 212.765 132.259L76.4867 211.435C75.0243 212.271 74.2583 213.454 74.2583 214.569V221.88C74.2583 222.995 75.0243 224.178 76.4867 225.014L278.084 341.515C278.432 341.724 278.78 341.864 279.198 342.072H279.267C279.337 342.072 279.407 342.142 279.476 342.142C279.685 342.212 279.894 342.281 280.173 342.351C280.312 342.421 280.451 342.421 280.591 342.421C280.66 342.421 280.73 342.49 280.799 342.49C280.869 342.49 280.939 342.56 281.008 342.56C281.217 342.63 281.496 342.63 281.774 342.699C281.844 342.699 281.983 342.699 282.053 342.769C282.123 342.769 282.192 342.769 282.262 342.769C282.331 342.769 282.471 342.769 282.54 342.839C282.819 342.839 283.028 342.839 283.306 342.908H284.072C284.351 342.908 284.629 342.839 284.908 342.839H284.978C285.047 342.839 285.117 342.839 285.187 342.769C285.395 342.769 285.604 342.699 285.813 342.699C285.883 342.699 286.022 342.63 286.092 342.63C286.37 342.56 286.579 342.49 286.858 342.421C286.997 342.351 287.136 342.351 287.276 342.281C287.345 342.212 287.485 342.212 287.554 342.142C287.624 342.073 287.763 342.073 287.833 342.003C288.181 341.864 288.529 341.655 288.877 341.515L425.155 262.339C425.225 262.339 425.225 262.269 425.225 262.269C425.295 262.2 425.364 262.2 425.434 262.13C425.504 262.06 425.643 261.991 425.712 261.921C425.782 261.852 425.852 261.782 425.921 261.782C425.991 261.712 426.061 261.643 426.13 261.573C426.13 261.573 426.13 261.573 426.2 261.503L426.269 261.434C426.409 261.294 426.478 261.225 426.618 261.086L426.687 261.016L426.757 260.946C426.827 260.877 426.896 260.737 426.966 260.668C426.966 260.598 427.035 260.598 427.035 260.529V260.459C427.105 260.389 427.105 260.32 427.175 260.25C427.175 260.18 427.244 260.18 427.244 260.111C427.244 260.111 427.244 260.111 427.244 260.041C427.244 259.971 427.314 259.902 427.314 259.832C427.314 259.762 427.384 259.693 427.384 259.693V259.623C427.384 259.554 427.384 259.484 427.384 259.414C427.384 259.345 427.384 259.345 427.384 259.275V259.205V251.824C427.384 251.894 427.384 251.963 427.384 252.033ZM281.983 335.318C281.844 335.318 281.705 335.248 281.565 335.248C281.705 335.318 281.844 335.318 281.983 335.318ZM427.384 252.311C427.384 252.381 427.384 252.381 427.314 252.451C427.314 252.381 427.384 252.311 427.384 252.311Z" fill="url(#paint0_linear_10948_11332)"/>
<path d="M427.384 252.033C427.384 251.894 427.384 251.754 427.384 251.615C427.384 251.476 427.314 251.337 427.314 251.197C427.314 251.128 427.245 251.058 427.245 250.988C427.175 250.849 427.175 250.779 427.105 250.64C427.105 250.571 427.036 250.571 427.036 250.501C426.966 250.362 426.897 250.292 426.827 250.153C426.757 250.013 426.618 249.874 426.479 249.735C426.131 249.317 425.643 248.969 425.086 248.621L223.559 132.259C220.564 130.518 215.76 130.518 212.765 132.259L202.041 138.456L414.501 261.155H414.571V268.467L425.225 262.269C425.295 262.269 425.295 262.2 425.295 262.2C425.365 262.13 425.434 262.13 425.504 262.061C425.574 261.991 425.713 261.921 425.782 261.852C425.852 261.782 425.922 261.712 425.991 261.712C426.061 261.643 426.131 261.573 426.2 261.503C426.2 261.503 426.2 261.503 426.27 261.434L426.339 261.364C426.479 261.225 426.548 261.155 426.688 261.016L426.757 260.946L426.827 260.877C426.897 260.807 426.966 260.668 427.036 260.598C427.036 260.529 427.105 260.528 427.105 260.459V260.389C427.175 260.32 427.175 260.25 427.245 260.18C427.245 260.111 427.314 260.111 427.314 260.041C427.314 260.041 427.314 260.041 427.314 259.971C427.314 259.902 427.384 259.832 427.384 259.762C427.384 259.693 427.454 259.623 427.454 259.623V259.554C427.454 259.484 427.454 259.414 427.454 259.345C427.454 259.275 427.454 259.275 427.454 259.205V259.136V251.754C427.384 251.894 427.384 251.963 427.384 252.033ZM224.255 144.166C222.862 145.002 220.564 145.002 219.172 144.166C217.779 143.331 217.779 142.077 219.172 141.242C220.564 140.406 222.793 140.406 224.255 141.242C225.648 142.077 225.648 143.4 224.255 144.166ZM235.397 150.573C234.004 151.339 231.776 151.339 230.453 150.573C229.06 149.807 229.06 148.484 230.453 147.718C231.846 146.952 234.004 146.952 235.397 147.718C236.72 148.553 236.79 149.807 235.397 150.573ZM246.26 156.91C244.867 157.745 242.57 157.745 241.177 156.91C239.784 156.074 239.784 154.821 241.177 153.985C242.57 153.149 244.798 153.149 246.26 153.985C247.653 154.751 247.653 156.074 246.26 156.91Z" fill="url(#paint1_linear_10948_11332)"/>
<g opacity="0.4">
<path opacity="0.4" d="M142.641 127.036L127.6 131.145L124.536 129.334L128.853 123.972L119.452 126.41L116.388 124.669L123.213 116.173L123.422 115.964L126.416 117.705L121.611 123.554L131.708 120.769L134.424 122.371L129.619 128.15L139.786 125.435L142.641 127.036Z" fill="white"/>
<path opacity="0.25" d="M137.488 132.399C138.602 133.025 138.742 134 137.558 134.697C136.374 135.393 134.703 135.323 133.589 134.697C132.474 134.07 132.405 133.095 133.589 132.399C134.703 131.702 136.374 131.772 137.488 132.399Z" fill="white"/>
<path opacity="0.4" d="M123.422 115.964L123.213 116.173L108.659 120.142L105.525 118.401L109.912 112.97L100.511 115.477L97.3779 113.666L104.202 105.24L104.411 104.962L107.405 106.703L102.601 112.552L112.767 109.836L115.483 111.368L110.678 117.218L120.776 114.432L123.422 115.964Z" fill="white"/>
<path d="M104.411 104.961L104.202 105.24L89.6481 109.209L86.5145 107.398L90.9016 102.036L81.5007 104.474L78.4367 102.733L85.4004 94.0283L88.3947 95.7692L83.5898 101.619L93.7567 98.8332L96.4725 100.435L91.6676 106.215L101.765 103.499L104.411 104.961Z" fill="white"/>
</g>
<g opacity="0.4">
<path d="M465.196 271.434C466.31 272.06 466.45 273.035 465.266 273.732C464.082 274.428 462.341 274.358 461.297 273.732C460.182 273.105 460.113 272.13 461.297 271.434C462.411 270.668 464.082 270.737 465.196 271.434Z" fill="url(#paint2_linear_10948_11332)"/>
<path opacity="0.6" d="M496.951 281.183L494.026 282.923C493.817 282.784 493.608 282.645 493.329 282.506C491.589 281.461 489.43 281.391 487.341 282.575L482.118 285.57L478.915 283.69L489.917 277.283L492.981 279.024L491.519 279.86C493.329 279.79 495.21 280.208 496.951 281.183Z" fill="white"/>
<path d="M506.908 287.171L509.972 288.912L500.85 294.204C496.741 296.572 492.633 296.363 488.664 294.065C486.575 292.881 485.043 291.349 484.764 290.026L488.315 289.4C488.524 290.374 489.569 291.558 490.962 292.394C493.26 293.717 495.209 293.647 497.229 292.533L497.716 292.255C495.975 292.324 494.304 291.837 492.842 291.001C489.778 289.26 489.43 286.614 492.633 284.734C495.836 282.854 500.432 283.063 503.496 284.873C505.028 285.778 505.794 286.823 505.585 287.937L506.908 287.171ZM496.045 289.957C497.716 290.932 500.014 291.001 501.616 290.096C503.218 289.191 503.078 287.798 501.407 286.823C499.736 285.848 497.438 285.779 495.767 286.684C494.235 287.659 494.374 288.982 496.045 289.957Z" fill="white"/>
<path d="M481.84 272.478C485.391 274.497 485.53 277.352 482.257 279.302C478.915 281.252 474.04 281.113 470.558 279.093C467.077 277.074 466.798 274.219 470.141 272.269C473.414 270.319 478.358 270.458 481.84 272.478ZM473.135 277.561C474.737 278.467 477.104 278.536 478.984 277.422C480.865 276.308 480.795 274.985 479.193 274.01C477.592 273.105 475.224 273.035 473.344 274.149C471.464 275.263 471.533 276.656 473.135 277.561Z" fill="white"/>
</g>
<g opacity="0.4">
<path opacity="0.4" d="M33.382 230.208C36.9334 232.228 37.0727 235.083 33.7998 237.033C30.5269 238.983 25.5827 238.843 22.1009 236.824C18.6191 234.804 18.3406 231.949 21.6831 230C24.956 228.05 29.9002 228.119 33.382 230.208ZM24.6775 235.222C26.2791 236.128 28.6468 236.197 30.5269 235.083C32.4071 233.969 32.3375 232.646 30.7358 231.671C29.1342 230.766 26.7666 230.696 24.8864 231.81C23.0062 232.924 23.0758 234.317 24.6775 235.222Z" fill="white"/>
<path opacity="0.4" d="M21.4741 223.314C23.7721 224.638 24.6077 226.309 23.6328 227.771L19.8028 227.075C20.2206 226.1 19.8028 225.334 18.8279 224.777C17.2263 223.871 14.789 223.732 12.9088 224.846C10.959 225.961 11.1679 227.353 12.7696 228.259C13.7445 228.816 15.1372 229.094 16.7388 228.816L17.853 231.044C15.2765 231.601 12.4214 231.114 10.1234 229.791C6.50231 227.701 6.29339 224.846 9.63593 222.966C12.9785 221.086 17.853 221.225 21.4741 223.314Z" fill="white"/>
<path opacity="0.4" d="M4.7616 222.131C5.87578 222.758 6.01504 223.732 4.83122 224.429C3.6474 225.125 1.97613 225.055 0.861946 224.429C-0.252234 223.802 -0.32187 222.827 0.861946 222.131C1.97613 221.434 3.64742 221.504 4.7616 222.131Z" fill="white"/>
<path d="M55.8049 243.091C58.4511 244.623 58.7993 246.573 55.4567 248.523L49.1895 252.214L45.9862 250.333L51.766 246.991C53.5069 245.946 53.5766 245.041 52.2535 244.275C50.7911 243.439 48.9109 243.37 46.9611 244.554L41.4599 247.757L38.2566 245.877L44.0364 242.534C45.7773 241.49 45.8469 240.584 44.5238 239.818C43.1311 238.983 41.1813 238.983 39.2315 240.097L33.7302 243.3L30.527 241.42L41.5295 235.013L44.5935 236.754L43.34 237.52C45.0809 237.451 46.8218 237.869 48.2145 238.704C49.7465 239.609 50.4429 240.724 50.0251 241.838C51.9749 241.698 54.1336 242.116 55.8049 243.091Z" fill="url(#paint3_linear_10948_11332)"/>
</g>
<g opacity="0.4">
<path opacity="0.25" d="M363.945 173.664C362.761 172.968 362.761 172.062 363.736 171.505C364.711 170.948 366.313 170.948 367.497 171.645C368.68 172.341 368.75 173.246 367.775 173.803C366.661 174.36 365.129 174.291 363.945 173.664Z" fill="white"/>
<path opacity="0.4" d="M375.853 182.299L373.973 183.413L361.717 184.04L367.566 187.383L365.059 188.845L355.241 183.135L357.121 182.021L369.377 181.394L363.876 178.26L366.313 176.798L375.853 182.299Z" fill="white"/>
<path opacity="0.25" d="M349.809 180.002L360.742 173.595L364.015 175.475L353.012 181.812L349.809 180.002Z" fill="white"/>
<path opacity="0.15" d="M353.291 169.068C356.424 170.879 356.564 173.525 353.151 175.544C349.67 177.564 345.074 177.424 342.01 175.683C340.547 174.848 339.781 173.873 339.99 172.828L338.737 173.594L335.673 171.853L350.853 163.079L354.057 164.96L348.695 168.024C350.366 167.884 351.898 168.302 353.291 169.068ZM344.029 173.803C345.631 174.709 347.998 174.778 349.879 173.664C351.759 172.55 351.689 171.227 350.087 170.252C348.486 169.347 346.118 169.277 344.238 170.391C342.358 171.505 342.427 172.898 344.029 173.803Z" fill="white"/>
<path d="M335.255 167.188C336.369 167.815 336.508 168.79 335.325 169.486C334.141 170.182 332.47 170.113 331.355 169.486C330.241 168.859 330.172 167.884 331.355 167.188C332.47 166.492 334.141 166.561 335.255 167.188Z" fill="white"/>
</g>
<g opacity="0.4">
<path d="M118.687 192.048L103.019 195.739L99.7456 193.859L106.083 184.806L109.355 186.686L104.968 192.814L115.623 190.307L118.687 192.048Z" fill="white"/>
<path d="M99.9546 181.045C103.506 183.065 103.645 185.92 100.372 187.87C97.0298 189.819 92.1553 189.68 88.6735 187.661C85.1917 185.641 84.9131 182.786 88.2557 180.836C91.5286 178.956 96.4728 179.026 99.9546 181.045ZM91.25 186.129C92.8517 187.034 95.2193 187.104 97.0995 185.989C98.9796 184.875 98.91 183.552 97.3084 182.577C95.7067 181.672 93.3391 181.602 91.4589 182.717C89.5788 183.831 89.6484 185.223 91.25 186.129Z" fill="white"/>
<path d="M68.9664 171.714C70.0805 172.341 70.2198 173.316 69.036 174.012C67.8522 174.709 66.1809 174.639 65.0667 174.012C63.9525 173.386 63.8829 172.411 65.0667 171.714C66.1809 170.948 67.8522 171.018 68.9664 171.714Z" fill="white"/>
<path d="M88.534 174.639L91.598 176.38L82.4757 181.672C78.3671 184.04 74.2586 183.831 70.2893 181.533C68.2002 180.349 66.6682 178.817 66.3897 177.494L69.9411 176.867C70.15 177.842 71.1946 179.026 72.5873 179.862C74.8157 181.185 76.8351 181.115 78.8546 180.001L79.342 179.722C77.6011 179.792 75.9298 179.305 74.4675 178.469C71.4035 176.728 71.0553 174.082 74.2586 172.202C77.4619 170.322 82.0578 170.53 85.1218 172.341C86.6538 173.246 87.4198 174.291 87.2109 175.335L88.534 174.639ZM77.6708 177.494C79.342 178.469 81.64 178.539 83.2417 177.633C84.8433 176.728 84.704 175.335 83.0327 174.36C81.3615 173.386 79.0635 173.316 77.3922 174.221C75.7906 175.126 75.9995 176.519 77.6708 177.494Z" fill="white"/>
</g>
<g opacity="0.4">
<path opacity="0.4" d="M402.036 315.61C403.15 316.237 403.29 317.212 402.106 317.908C400.922 318.605 399.251 318.535 398.137 317.908C397.022 317.282 396.953 316.307 398.137 315.61C399.32 314.914 400.992 314.984 402.036 315.61Z" fill="white"/>
<path opacity="0.4" d="M416.59 313.87C415.406 313.174 415.406 312.268 416.381 311.711C417.356 311.154 418.958 311.154 420.142 311.85C421.325 312.547 421.395 313.452 420.42 314.009C419.306 314.566 417.774 314.566 416.59 313.87Z" fill="white"/>
<path opacity="0.4" d="M402.454 320.207L413.456 313.87L416.66 315.68L405.657 322.087L402.454 320.207Z" fill="white"/>
<path opacity="0.25" d="M425.016 320.346C428.568 322.365 428.707 325.22 425.434 327.17C422.092 329.12 417.217 328.981 413.735 326.961C410.253 324.942 409.975 322.087 413.317 320.137C416.59 318.187 421.534 318.326 425.016 320.346ZM416.312 325.429C417.913 326.335 420.281 326.404 422.161 325.29C424.041 324.176 423.972 322.853 422.37 321.878C420.769 320.973 418.401 320.903 416.521 322.017C414.64 323.131 414.71 324.454 416.312 325.429Z" fill="white"/>
</g>
<g opacity="0.4">
<path d="M175.718 90.5881C176.832 91.2148 176.972 92.1897 175.788 92.886C174.604 93.5824 172.933 93.5128 171.819 92.886C170.704 92.2593 170.635 91.2844 171.819 90.5881C172.933 89.8917 174.604 89.9613 175.718 90.5881Z" fill="white"/>
<path opacity="0.8" d="M193.963 92.6076C196.539 94.1396 197.027 96.159 193.684 98.1088L187.417 101.73L184.214 99.8497L189.994 96.5072C191.735 95.4627 191.735 94.5574 190.342 93.7218C188.81 92.8165 186.721 92.7468 184.701 93.9307L179.27 97.0643L176.066 95.1841L187.069 88.7776L190.133 90.5185L188.879 91.2845C190.69 91.2845 192.501 91.7719 193.963 92.6076Z" fill="white"/>
<path opacity="0.4" d="M220.425 105.281L217.778 106.813L220.564 108.415L218.127 109.808L215.341 108.206L210.884 110.783C209.979 111.34 209.979 111.897 210.815 112.384C211.302 112.663 211.929 112.872 212.486 112.872L211.093 114.682C209.979 114.543 208.795 114.125 207.82 113.568C205.174 112.036 205.035 110.434 207.612 108.902L212.138 106.256L210.467 105.281L212.904 103.889L214.575 104.864L217.221 103.332L220.425 105.281Z" fill="white"/>
<path opacity="0.6" d="M206.707 106.605C206.428 106.744 206.08 106.953 205.801 107.092L197.445 102.287C196.4 103.262 196.749 104.446 198.42 105.421C199.604 106.117 200.787 106.396 202.25 106.396L202.111 108.415C199.952 108.485 197.793 107.997 195.774 106.813C191.944 104.585 191.874 101.8 195.147 99.8499C198.42 97.9697 203.364 98.0393 206.707 99.9891C209.91 101.8 210.258 104.515 206.707 106.605ZM199.255 101.103L204.687 104.237C205.871 103.332 205.732 102.148 204.269 101.312C202.807 100.546 200.857 100.407 199.255 101.103Z" fill="white"/>
</g>
<g opacity="0.4">
<path opacity="0.6" d="M172.028 320.875L175.231 322.755L160.05 331.529L156.986 329.788L158.24 329.023C156.499 329.092 154.828 328.744 153.365 327.839C150.232 326.028 150.023 323.382 153.505 321.363C156.986 319.343 161.582 319.482 164.716 321.293C166.039 322.059 166.805 322.964 166.666 323.939L172.028 320.875ZM156.569 326.725C158.17 327.63 160.538 327.699 162.418 326.585C164.298 325.471 164.229 324.078 162.627 323.173C161.025 322.268 158.658 322.198 156.778 323.312C154.897 324.427 154.967 325.75 156.569 326.725Z" fill="white"/>
<path opacity="0.8" d="M152.112 320.666C151.833 320.805 151.485 321.014 151.207 321.154L142.85 316.349C141.806 317.324 142.154 318.507 143.825 319.482C145.009 320.179 146.193 320.457 147.655 320.457L147.516 322.477C145.357 322.546 143.199 322.059 141.179 320.875C137.349 318.647 137.279 315.861 140.552 313.911C143.825 312.031 148.769 312.101 152.112 314.051C155.315 315.861 155.663 318.577 152.112 320.666ZM144.661 315.165L150.093 318.298C151.276 317.393 151.137 316.209 149.675 315.374C148.212 314.608 146.332 314.468 144.661 315.165Z" fill="white"/>
<path d="M135.608 313.006C136.722 313.633 136.861 314.608 135.678 315.304C134.494 316.001 132.822 315.931 131.708 315.304C130.594 314.678 130.524 313.703 131.708 313.006C132.822 312.31 134.494 312.38 135.608 313.006Z" fill="white"/>
<path opacity="0.4" d="M185.189 333.34L174.187 339.747L171.123 338.006L172.446 337.24C170.635 337.309 168.894 336.892 167.571 336.126C164.786 334.524 164.368 332.505 167.78 330.555L173.978 326.934L177.181 328.814L171.471 332.156C169.66 333.201 169.66 334.176 171.053 335.011C172.515 335.847 174.535 335.917 176.554 334.733L181.986 331.599L185.189 333.34Z" fill="white"/>
</g>
<g opacity="0.4">
<path d="M329.058 354.468L332.261 356.348L317.08 365.122L314.016 363.381L315.269 362.615C313.529 362.685 311.857 362.336 310.395 361.431C307.261 359.621 307.052 356.975 310.534 354.955C314.016 352.936 318.612 353.075 321.746 354.885C323.138 355.651 323.835 356.557 323.695 357.601L329.058 354.468ZM313.598 360.247C315.2 361.153 317.567 361.222 319.448 360.108C321.328 358.994 321.258 357.601 319.657 356.696C318.055 355.791 315.687 355.721 313.738 356.835C311.857 357.949 311.927 359.342 313.598 360.247Z" fill="white"/>
<path opacity="0.6" d="M358.792 376.333C361.438 377.865 361.786 379.815 358.444 381.765L352.177 385.386L348.973 383.506L354.753 380.163C356.494 379.119 356.564 378.213 355.241 377.447C353.778 376.612 351.898 376.542 349.948 377.726L344.447 380.929L341.244 379.049L347.023 375.706C348.764 374.662 348.834 373.757 347.511 372.991C346.118 372.155 344.168 372.155 342.219 373.269L336.717 376.473L333.514 374.592L344.517 368.186L347.581 369.927L346.327 370.693C348.068 370.623 349.809 371.041 351.202 371.877C352.734 372.782 353.43 373.896 353.012 375.01C355.032 374.94 357.121 375.358 358.792 376.333Z" fill="white"/>
<path opacity="0.8" d="M336.439 363.381C339.921 365.4 340.13 368.255 336.857 370.205C333.514 372.155 328.64 372.016 325.158 369.996C321.676 367.977 321.397 365.122 324.74 363.172C328.013 361.292 332.957 361.361 336.439 363.381ZM327.734 368.464C329.336 369.369 331.704 369.439 333.584 368.325C335.464 367.211 335.394 365.888 333.793 364.913C332.191 364.007 329.823 363.938 327.874 365.052C326.063 366.166 326.133 367.559 327.734 368.464Z" fill="white"/>
<path opacity="0.6" d="M391.8 395.344C394.446 396.876 394.864 398.895 391.521 400.845L385.254 404.466L382.051 402.586L387.83 399.244C389.571 398.199 389.571 397.294 388.179 396.458C386.647 395.553 384.557 395.483 382.538 396.667L377.106 399.801L373.903 397.92L384.906 391.514L387.97 393.255L386.716 394.021C388.527 394.021 390.337 394.508 391.8 395.344Z" fill="white"/>
<path d="M367.775 394.369L378.708 388.032L381.911 389.842L370.979 396.249L367.775 394.369Z" fill="white"/>
<path opacity="0.25" d="M370.7 383.157C374.042 385.107 374.46 387.127 371.118 389.076L364.85 392.697L361.856 390.957L363.249 390.191C361.647 390.4 359.976 390.051 358.374 389.146C355.798 387.684 355.658 385.943 357.608 384.829C359.558 383.714 362.274 383.714 365.616 385.664L368.193 387.127C369.586 386.361 369.516 385.386 367.775 384.411C366.591 383.714 364.99 383.227 363.597 383.157L364.641 381.208C366.661 381.416 368.889 382.113 370.7 383.157ZM365.129 388.868L366.243 388.241L364.015 386.987C362.483 386.152 361.508 386.152 360.742 386.57C359.976 387.057 360.115 387.753 361.229 388.38C362.343 389.007 363.736 389.216 365.129 388.868Z" fill="white"/>
<path d="M381.911 388.032C380.728 387.335 380.658 386.43 381.702 385.873C382.677 385.316 384.279 385.316 385.463 386.012C386.647 386.709 386.716 387.614 385.741 388.171C384.627 388.728 383.095 388.728 381.911 388.032Z" fill="white"/>
</g>
<path d="M427.384 252.033C427.384 251.894 427.384 251.754 427.384 251.615C427.384 251.476 427.314 251.337 427.314 251.197C427.314 251.128 427.244 251.058 427.244 250.988C427.175 250.849 427.175 250.779 427.105 250.64C427.105 250.571 427.035 250.571 427.035 250.501C426.966 250.362 426.896 250.292 426.827 250.153C426.757 250.013 426.618 249.874 426.478 249.735C426.13 249.317 425.643 248.969 425.086 248.621L223.558 132.259C220.564 130.518 215.759 130.518 212.765 132.259L76.4867 211.435C75.0243 212.271 74.2583 213.454 74.2583 214.569V215.335C74.2583 215.195 74.2583 215.126 74.328 214.986C74.4672 215.961 75.2332 216.936 76.5563 217.702L278.153 334.064C279.198 334.691 280.451 335.039 281.774 335.248C281.844 335.248 281.914 335.248 281.983 335.318C284.421 335.596 287.067 335.179 288.877 334.134L425.155 254.958C426.339 254.261 427.105 253.356 427.314 252.451C427.314 252.381 427.314 252.381 427.384 252.311V252.242C427.384 252.381 427.453 252.52 427.453 252.59V251.824C427.384 251.894 427.384 251.963 427.384 252.033Z" fill="url(#paint4_linear_10948_11332)"/>
<path d="M427.384 251.824C427.384 251.894 427.384 251.963 427.384 252.033C427.384 252.103 427.384 252.172 427.384 252.242V252.311C427.384 252.381 427.384 252.381 427.314 252.451C427.105 253.356 426.409 254.261 425.155 254.958L288.877 334.134C286.997 335.248 284.351 335.596 281.983 335.318C281.914 335.318 281.844 335.318 281.774 335.248C280.451 335.109 279.198 334.691 278.153 334.064L76.4868 217.702C75.1637 216.936 74.3977 215.961 74.2584 214.986V214.917C74.2584 214.777 74.1888 214.708 74.1888 214.569C74.1888 213.454 74.9548 212.271 76.4171 211.435L212.695 132.259C215.69 130.518 220.495 130.518 223.489 132.259L425.086 248.621C425.643 248.969 426.13 249.317 426.479 249.735C426.618 249.874 426.687 250.013 426.827 250.153C426.896 250.292 426.966 250.362 427.036 250.501C427.036 250.57 427.105 250.571 427.105 250.64C427.175 250.779 427.245 250.849 427.245 250.988C427.245 251.058 427.314 251.128 427.314 251.197C427.384 251.336 427.384 251.476 427.384 251.615C427.384 251.685 427.384 251.754 427.384 251.824Z" fill="url(#paint5_linear_10948_11332)"/>
<path d="M427.384 252.59C427.384 253.774 426.618 254.888 425.155 255.724L288.877 334.9C285.883 336.641 281.078 336.641 278.084 334.9L76.4867 218.538C74.9547 217.702 74.2583 216.519 74.2583 215.404C74.2583 215.265 74.2583 215.195 74.328 215.056C74.4672 216.031 75.2332 217.006 76.5563 217.772L278.153 334.134C279.198 334.761 280.451 335.109 281.774 335.318C281.844 335.318 281.914 335.318 281.983 335.388C284.421 335.666 287.067 335.248 288.877 334.204L425.155 255.027C426.339 254.331 427.105 253.426 427.314 252.52C427.314 252.451 427.314 252.451 427.384 252.381V252.312C427.384 252.312 427.384 252.451 427.384 252.59Z" fill="url(#paint6_radial_10948_11332)"/>
<path d="M427.384 252.242C427.384 252.381 427.384 252.381 427.314 252.451C427.105 253.356 426.409 254.261 425.155 254.957L288.877 334.134C286.997 335.248 284.351 335.596 281.983 335.318C281.914 335.318 281.844 335.318 281.774 335.248C280.451 335.109 279.198 334.691 278.153 334.064L76.4867 217.702C75.1636 216.936 74.3976 215.961 74.2583 214.986V214.917C74.3976 213.942 75.1636 212.967 76.417 212.201L212.695 133.024C215.69 131.284 220.494 131.284 223.489 133.024L425.086 249.387C426.478 250.222 427.244 251.197 427.384 252.242Z" fill="url(#paint7_linear_10948_11332)"/>
<path opacity="0.8" d="M224.255 141.241C222.862 140.406 220.564 140.406 219.171 141.241C217.779 142.077 217.779 143.331 219.171 144.166C220.564 145.002 222.862 145.002 224.255 144.166C225.647 143.4 225.647 142.077 224.255 141.241ZM235.397 147.718C234.004 146.952 231.775 146.952 230.452 147.718C229.06 148.484 229.06 149.807 230.452 150.573C231.845 151.339 234.073 151.339 235.397 150.573C236.789 149.807 236.72 148.553 235.397 147.718ZM246.26 153.985C244.867 153.149 242.569 153.149 241.176 153.985C239.784 154.821 239.784 156.074 241.176 156.91C242.569 157.745 244.867 157.745 246.26 156.91C247.653 156.074 247.653 154.751 246.26 153.985ZM264.365 196.393L196.122 157.049C192.988 155.238 187.835 155.238 184.701 157.049L89.5086 212.41C86.375 214.22 86.375 217.215 89.5783 219.025L157.822 258.37C160.955 260.18 166.108 260.18 169.242 258.37L264.435 203.009C267.568 201.198 267.568 198.204 264.365 196.393ZM385.95 267.353C385.811 267.074 385.602 266.796 385.323 266.517C385.114 266.239 384.766 265.96 384.418 265.751C384.279 265.612 384.07 265.542 383.861 265.403L278.989 204.889C277.387 203.984 275.368 203.496 273.279 203.496C271.19 203.496 269.17 203.984 267.568 204.889L172.445 260.18C169.312 261.991 169.312 264.985 172.515 266.796L277.387 327.309C278.989 328.215 281.008 328.702 283.097 328.702C283.654 328.702 284.142 328.633 284.629 328.633C285.674 328.493 286.649 328.284 287.554 327.936C287.972 327.797 288.459 327.588 288.808 327.309L384 271.949C384.975 271.392 385.671 270.695 386.02 269.999C386.437 269.163 386.437 268.258 385.95 267.353Z" fill="url(#paint8_linear_10948_11332)"/>
<path opacity="0.8" d="M263.809 202.591L168.616 257.952C165.83 259.554 161.234 259.554 158.449 257.952L90.2054 218.608C87.42 217.006 87.42 214.36 90.2054 212.758L185.398 157.397C188.184 155.796 192.71 155.796 195.565 157.397L263.809 196.811C266.594 198.343 266.594 200.99 263.809 202.591Z" fill="url(#paint9_linear_10948_11332)"/>
<path d="M485.112 181.979L213.949 25.4367C208.517 22.3031 204.13 24.81 204.13 31.0076C204.13 37.2053 208.517 44.7956 213.879 47.9292L485.043 204.471C490.474 207.605 494.861 205.098 494.861 198.831C494.931 192.703 490.544 185.113 485.112 181.979Z" fill="white"/>
<path d="M499.527 195.767C499.527 195.628 499.527 195.419 499.527 195.28C499.527 195.21 499.527 195.14 499.527 195.071V195.001C499.527 194.931 499.527 194.862 499.527 194.862C499.527 194.722 499.527 194.514 499.457 194.374C499.457 194.235 499.388 194.026 499.388 193.887C499.388 193.748 499.318 193.608 499.318 193.399C499.318 193.26 499.248 193.051 499.248 192.912C499.248 192.842 499.248 192.773 499.179 192.703C499.179 192.633 499.179 192.633 499.179 192.564C499.179 192.494 499.179 192.424 499.109 192.355C499.039 192.216 499.039 192.007 498.97 191.867C498.9 191.728 498.9 191.589 498.831 191.519V191.45V191.38C498.761 191.241 498.691 191.032 498.691 190.892C498.622 190.753 498.552 190.544 498.552 190.405C498.552 190.405 498.552 190.335 498.482 190.335V190.266C498.413 190.126 498.413 190.057 498.343 189.918C498.273 189.778 498.204 189.569 498.134 189.43C498.065 189.291 498.065 189.221 497.995 189.082V189.012V188.943C497.925 188.803 497.856 188.594 497.786 188.455C497.716 188.316 497.647 188.107 497.508 187.968C497.508 187.968 497.507 187.898 497.438 187.898C497.438 187.898 497.438 187.828 497.368 187.828C497.299 187.689 497.229 187.55 497.159 187.411C497.09 187.271 496.95 187.062 496.881 186.923C496.811 186.854 496.811 186.784 496.741 186.645L496.672 186.575C496.602 186.436 496.463 186.296 496.393 186.157C496.254 185.948 496.115 185.739 495.975 185.531L495.906 185.461C495.697 185.182 495.488 184.834 495.279 184.556C495.14 184.347 495.001 184.138 494.861 183.998C494.722 183.859 494.652 183.72 494.513 183.581C494.374 183.441 494.235 183.302 494.165 183.163C494.026 183.024 493.886 182.884 493.817 182.745L493.747 182.675L493.678 182.606C493.608 182.536 493.469 182.397 493.399 182.327C493.26 182.188 493.12 182.049 492.981 181.909C492.911 181.84 492.911 181.84 492.842 181.77L492.772 181.701C492.703 181.631 492.633 181.561 492.563 181.492C492.424 181.352 492.285 181.213 492.145 181.143C492.076 181.074 492.006 181.004 491.937 181.004L491.867 180.934C491.797 180.865 491.797 180.865 491.728 180.795C491.588 180.656 491.449 180.586 491.31 180.447C491.171 180.377 491.101 180.308 490.962 180.238C490.962 180.238 490.892 180.238 490.892 180.169C490.892 180.169 490.822 180.169 490.822 180.099C490.683 180.029 490.544 179.89 490.405 179.82C490.265 179.751 490.126 179.681 489.987 179.542L489.917 179.472L218.614 22.721C218.545 22.6513 218.405 22.5817 218.336 22.5121C218.197 22.4424 218.057 22.3728 217.918 22.3032C217.848 22.2335 217.779 22.2335 217.639 22.1639H217.57C217.57 22.1639 217.5 22.1639 217.5 22.0943C217.361 22.0246 217.222 21.955 217.082 21.955C216.943 21.8854 216.804 21.8853 216.665 21.8157H216.595H216.525C216.456 21.8157 216.316 21.7461 216.247 21.7461C216.107 21.6764 215.968 21.6764 215.829 21.6068C215.759 21.6068 215.69 21.6068 215.62 21.5372H215.55C215.481 21.5372 215.481 21.5372 215.411 21.5372C215.272 21.5372 215.133 21.4675 214.993 21.4675C214.924 21.4675 214.854 21.4675 214.715 21.4675H214.645H214.575C214.436 21.4675 214.297 21.4675 214.088 21.4675C214.018 21.4675 213.949 21.4675 213.879 21.4675C213.809 21.4675 213.809 21.4675 213.74 21.4675C213.67 21.4675 213.601 21.4675 213.601 21.4675C213.392 21.4675 213.252 21.5372 213.043 21.5372C212.974 21.5372 212.974 21.5372 212.904 21.5372C212.695 21.6068 212.556 21.6068 212.347 21.6764C212.347 21.6764 212.347 21.6764 212.277 21.6764C211.999 21.7461 211.79 21.8853 211.511 22.0246L206.846 24.7404C207.055 24.6012 207.333 24.4619 207.612 24.3923C207.821 24.3226 208.03 24.253 208.239 24.253C208.308 24.253 208.308 24.253 208.378 24.253C208.587 24.1833 208.865 24.1833 209.144 24.1833C209.213 24.1833 209.213 24.1833 209.283 24.1833C209.492 24.1833 209.771 24.1833 210.049 24.1833H210.119C210.397 24.1833 210.676 24.253 210.954 24.3226H211.024C211.303 24.3923 211.581 24.4619 211.86 24.5315H211.929C212.208 24.6708 212.556 24.7404 212.835 24.8797H212.904C213.252 25.019 213.531 25.2279 213.879 25.3672L485.112 181.979C485.46 182.188 485.739 182.397 486.087 182.606C486.087 182.606 486.157 182.606 486.157 182.675C486.435 182.884 486.784 183.093 487.062 183.372L487.132 183.441C487.41 183.65 487.689 183.929 487.967 184.138L488.037 184.207C488.315 184.486 488.594 184.764 488.873 185.043L488.942 185.113C489.221 185.391 489.499 185.739 489.778 186.018C490.056 186.366 490.335 186.714 490.613 187.062C490.822 187.411 491.101 187.689 491.31 188.037C491.449 188.246 491.588 188.455 491.728 188.664C491.867 188.873 491.937 189.012 492.076 189.221C492.145 189.291 492.145 189.361 492.215 189.5C492.354 189.778 492.563 190.126 492.703 190.405C492.703 190.405 492.703 190.475 492.772 190.475C492.981 190.823 493.12 191.241 493.329 191.589V191.658C493.469 192.007 493.677 192.424 493.817 192.773V192.842C493.956 193.26 494.095 193.608 494.235 194.026V194.096C494.374 194.444 494.443 194.862 494.513 195.21C494.513 195.28 494.513 195.28 494.513 195.349C494.583 195.767 494.652 196.115 494.722 196.533C494.792 196.951 494.861 197.299 494.861 197.717V197.786C494.861 198.135 494.931 198.552 494.931 198.901C494.931 199.249 494.931 199.597 494.861 199.945V200.015C494.861 200.363 494.792 200.642 494.722 200.92C494.722 200.99 494.722 200.99 494.722 201.059C494.652 201.338 494.583 201.616 494.513 201.895C494.513 201.965 494.513 201.965 494.443 202.034C494.374 202.313 494.304 202.522 494.165 202.731V202.8C494.026 203.079 493.886 203.288 493.747 203.497L493.678 203.566C493.538 203.775 493.399 203.914 493.329 204.054C493.26 204.123 493.26 204.193 493.19 204.193C493.051 204.332 492.981 204.472 492.842 204.541C492.772 204.611 492.772 204.611 492.703 204.68C492.494 204.82 492.354 204.959 492.145 205.098L496.811 202.382C497.02 202.243 497.229 202.104 497.368 201.965C497.438 201.895 497.508 201.895 497.508 201.825C497.647 201.686 497.786 201.616 497.856 201.477C497.925 201.408 497.925 201.338 497.995 201.338C498.134 201.199 498.273 200.99 498.343 200.85L498.413 200.781C498.552 200.572 498.691 200.363 498.761 200.084V200.015C498.831 199.876 498.9 199.736 498.97 199.527C498.97 199.458 499.039 199.388 499.039 199.318C499.039 199.249 499.039 199.249 499.109 199.179C499.109 199.11 499.109 199.11 499.179 199.04C499.248 198.901 499.248 198.692 499.318 198.552C499.318 198.483 499.318 198.413 499.388 198.344C499.388 198.274 499.388 198.274 499.388 198.204C499.388 198.135 499.388 198.065 499.457 197.995C499.457 197.856 499.527 197.717 499.527 197.508C499.527 197.438 499.527 197.299 499.527 197.229V197.16C499.527 197.09 499.527 197.09 499.527 197.02C499.527 196.881 499.527 196.742 499.527 196.533C499.527 196.394 499.527 196.185 499.527 196.046C499.597 196.046 499.597 195.906 499.527 195.767Z" fill="url(#paint10_linear_10948_11332)"/>
<path d="M177.738 230.097L138.045 207.187C133.937 204.819 127.391 204.819 123.282 207.187C119.243 209.555 119.243 213.385 123.352 215.752L163.045 238.663C167.153 241.03 173.699 241.03 177.808 238.663C181.846 236.295 181.846 232.465 177.738 230.097Z" fill="#00FFFF"/>
<path d="M198.211 179.75C199.604 180.586 199.604 181.839 198.211 182.675C196.818 183.511 194.52 183.511 193.128 182.675C191.735 181.839 191.735 180.586 193.128 179.75C194.59 178.915 196.818 178.915 198.211 179.75Z" fill="white"/>
<path d="M224.116 195.07C225.508 195.906 225.508 197.159 224.116 197.995C222.723 198.831 220.495 198.831 219.032 197.995C217.639 197.159 217.639 195.906 219.032 195.07C220.425 194.235 222.723 194.235 224.116 195.07Z" fill="white"/>
<path d="M206.219 187.48C204.826 188.315 204.826 189.569 206.219 190.404C207.612 191.24 209.91 191.24 211.302 190.404C212.695 189.569 212.695 188.246 211.302 187.48C209.84 186.644 207.612 186.644 206.219 187.48Z" fill="white"/>
<path d="M427.314 251.197C427.314 251.128 427.245 251.058 427.245 250.988C427.175 250.849 427.175 250.779 427.105 250.64C427.105 250.571 427.036 250.57 427.036 250.501C426.966 250.362 426.897 250.292 426.827 250.153C426.757 250.013 426.618 249.874 426.479 249.735C426.131 249.317 425.643 248.969 425.086 248.621L223.559 132.259C220.564 130.518 215.76 130.518 212.765 132.259L202.041 138.456L414.501 261.155L425.225 254.888C426.409 254.192 427.175 253.286 427.384 252.381C427.384 252.311 427.384 252.311 427.454 252.242C427.454 252.172 427.454 252.103 427.454 251.963C427.454 251.824 427.454 251.685 427.454 251.545C427.384 251.476 427.384 251.336 427.314 251.197Z" fill="url(#paint11_linear_10948_11332)"/>
<path d="M219.59 213.942C220.216 214.29 220.216 214.917 219.59 215.335C218.963 215.683 217.849 215.683 217.222 215.335L164.786 185.043C164.159 184.695 164.159 184.068 164.786 183.65C165.413 183.302 166.457 183.302 167.153 183.65L219.59 213.942Z" fill="#D1D5D8"/>
<path d="M210.188 219.373C210.815 219.722 210.815 220.348 210.188 220.766C209.562 221.114 208.517 221.114 207.821 220.766L155.385 190.474C154.758 190.126 154.758 189.5 155.385 189.082C156.011 188.734 157.126 188.734 157.752 189.082L210.188 219.373Z" fill="#D1D5D8"/>
<path d="M200.787 224.875C201.414 225.223 201.414 225.85 200.787 226.267C200.161 226.616 199.116 226.616 198.42 226.267L145.984 195.976C145.357 195.627 145.357 195.001 145.984 194.583C146.61 194.235 147.725 194.235 148.351 194.583L200.787 224.875Z" fill="#D1D5D8"/>
<path d="M245.285 251.754L242.43 253.426L227.806 245L230.662 243.328L245.285 251.754Z" fill="white"/>
<path d="M282.61 259.345L279.755 261.016L239.853 237.967L242.708 236.295L282.61 259.345Z" fill="white"/>
<path d="M273.976 275.361L271.12 277.032L221.748 248.481L224.603 246.88L273.976 275.361Z" fill="white"/>
<path d="M319.378 259.554L316.523 261.225L257.959 227.451L260.884 225.78L319.378 259.554Z" fill="white"/>
<path d="M257.263 272.715L254.408 274.386L215.759 252.033L218.615 250.362L257.263 272.715Z" fill="white"/>
<path d="M225.996 275.64L223.141 277.241L197.654 262.548L200.509 260.877L225.996 275.64Z" fill="white"/>
<path d="M292.011 299.734L289.156 301.405L209.701 255.515L212.556 253.844L292.011 299.734Z" fill="white"/>
<path d="M288.668 255.863L285.813 257.535L245.912 234.485L248.767 232.814L288.668 255.863Z" fill="white"/>
<path d="M206.498 257.395L203.643 259.066L279.686 302.937L282.541 301.266L206.498 257.395Z" fill="white"/>
<path d="M264.017 223.969L299.462 244.373L302.317 242.771L266.872 222.298L264.017 223.969Z" fill="white"/>
<path d="M287.137 247.994L284.282 249.666L251.97 231.003L254.825 229.332L287.137 247.994Z" fill="white"/>
<path d="M295.771 273.899L292.916 275.57L233.865 241.518L236.72 239.847L295.771 273.899Z" fill="white"/>
<path d="M151.416 221.045L150.58 221.532L151.346 221.95L150.65 222.368L149.884 221.95L148.212 222.925C148.073 222.995 148.073 223.064 148.073 223.134C148.073 223.204 148.143 223.273 148.282 223.343L148.7 223.552L147.934 223.97L147.377 223.621C146.611 223.204 146.611 222.786 147.307 222.368L148.978 221.393L148.56 221.184L149.257 220.766L149.675 220.975L150.51 220.488L151.416 221.045Z" fill="white"/>
<path d="M142.85 218.956C142.781 219.165 142.641 219.373 142.432 219.513C142.223 219.652 141.945 219.722 141.666 219.791C141.388 219.861 141.04 219.791 140.761 219.722C140.413 219.652 140.134 219.513 139.856 219.373L137.976 218.259L142.363 215.752L144.173 216.797C144.452 216.936 144.661 217.145 144.8 217.354C144.939 217.563 144.939 217.702 144.87 217.842C144.8 217.981 144.661 218.12 144.452 218.259C144.173 218.399 143.895 218.468 143.616 218.538C143.338 218.538 142.989 218.538 142.711 218.468C142.781 218.538 142.92 218.747 142.85 218.956ZM140.97 219.025C141.179 219.025 141.388 218.956 141.597 218.886C141.806 218.747 141.875 218.677 141.875 218.538C141.875 218.399 141.736 218.259 141.527 218.12L140.691 217.633L139.508 218.329L140.413 218.816C140.552 218.956 140.761 219.025 140.97 219.025ZM142.432 216.588L141.318 217.215L142.154 217.702C142.363 217.842 142.572 217.911 142.781 217.911C142.989 217.911 143.198 217.911 143.338 217.772C143.477 217.702 143.616 217.563 143.547 217.424C143.547 217.284 143.407 217.215 143.198 217.076L142.432 216.588Z" fill="white"/>
<path d="M148.7 220.488L145.218 222.507L144.313 222.02L144.73 221.741C144.452 221.741 144.173 221.741 143.964 221.672C143.686 221.602 143.477 221.532 143.268 221.393C142.99 221.254 142.781 221.045 142.711 220.906C142.641 220.697 142.641 220.557 142.711 220.349C142.781 220.14 142.99 219.931 143.338 219.791L145.357 218.608L146.262 219.095L144.382 220.209C144.104 220.349 143.964 220.557 143.964 220.697C143.964 220.836 144.104 221.045 144.313 221.184C144.522 221.323 144.8 221.393 145.079 221.393C145.357 221.393 145.636 221.323 145.914 221.115L147.794 220L148.7 220.488Z" fill="white"/>
<path d="M160.399 227.173C160.817 227.382 161.025 227.66 161.025 228.009C161.025 228.287 160.817 228.566 160.329 228.844L158.31 230.028L157.404 229.541L159.285 228.426C159.563 228.287 159.702 228.078 159.702 227.939C159.702 227.8 159.563 227.591 159.354 227.452C159.145 227.312 158.867 227.243 158.588 227.243C158.31 227.243 158.031 227.312 157.753 227.521L155.872 228.635L154.967 228.148L158.449 226.128L159.354 226.616L158.936 226.894C159.215 226.894 159.493 226.894 159.702 226.964C159.981 226.964 160.19 227.034 160.399 227.173Z" fill="white"/>
<path d="M156.777 226.059C156.638 226.337 156.429 226.546 156.081 226.755C155.733 226.964 155.315 227.103 154.897 227.173C154.479 227.243 154.062 227.243 153.644 227.173C153.226 227.103 152.808 226.964 152.53 226.755C152.182 226.546 151.973 226.337 151.833 226.128C151.694 225.92 151.694 225.641 151.833 225.362C151.973 225.084 152.182 224.875 152.53 224.666C152.878 224.457 153.296 224.318 153.713 224.248C154.131 224.179 154.549 224.179 154.967 224.248C155.385 224.318 155.733 224.457 156.081 224.666C156.429 224.875 156.638 225.084 156.777 225.293C156.847 225.571 156.847 225.78 156.777 226.059ZM154.48 226.477C154.688 226.407 154.967 226.337 155.176 226.198C155.524 225.989 155.663 225.78 155.663 225.641C155.663 225.432 155.524 225.293 155.315 225.084C155.037 224.945 154.758 224.875 154.41 224.875C154.062 224.875 153.714 224.945 153.435 225.154C153.087 225.362 152.947 225.571 152.947 225.711C152.947 225.92 153.087 226.059 153.296 226.198C153.435 226.268 153.644 226.337 153.853 226.407C153.992 226.477 154.201 226.477 154.48 226.477Z" fill="white"/>
<path d="M152.947 221.951L152.112 222.438L151.694 222.229L150.998 222.647L151.415 222.856L149.744 223.831C149.048 224.249 149.048 224.666 149.814 225.084L150.371 225.432L151.137 225.015L150.719 224.806C150.58 224.736 150.51 224.666 150.51 224.597C150.51 224.527 150.58 224.458 150.649 224.388L152.321 223.413L153.087 223.831L153.783 223.413L153.017 222.995L153.853 222.508L152.947 221.951Z" fill="white"/>
<path opacity="0.8" d="M461.297 77.246C461.297 84.5578 456.074 87.4825 449.737 83.7918L413.527 62.9009C407.19 59.2102 402.037 50.3664 402.106 43.0546C402.106 35.7428 407.329 32.818 413.596 36.5088L449.807 57.3996C456.214 61.0207 461.297 69.9342 461.297 77.246Z" fill="url(#paint12_linear_10948_11332)"/>
<path opacity="0.8" d="M461.436 42.3583C461.436 49.6701 456.214 52.5948 449.877 48.9041L413.666 28.0133C407.329 24.3225 402.176 15.4787 402.176 8.16693C402.176 0.855127 407.399 -2.06959 413.736 1.55149L449.946 22.4424C456.283 26.1331 461.436 35.0465 461.436 42.3583Z" fill="url(#paint13_linear_10948_11332)"/>
<path d="M460.809 251.615C460.809 258.927 455.587 261.852 449.25 258.161L413.039 237.27C406.702 233.58 401.549 224.736 401.549 217.424C401.549 210.112 406.772 207.187 413.109 210.878L449.319 231.769C455.726 235.39 460.809 244.304 460.809 251.615Z" fill="url(#paint14_linear_10948_11332)"/>
<path d="M433.93 198.413C435.183 199.11 436.088 200.711 436.088 202.382C436.088 204.054 435.183 204.541 433.93 203.845C432.676 203.148 431.771 201.547 431.771 199.876C431.771 198.204 432.676 197.717 433.93 198.413Z" fill="#0E3F64"/>
<path d="M449.319 232.813C455.169 236.156 459.904 244.373 459.835 251.058C459.835 257.743 455.03 260.459 449.25 257.116L413.039 236.226C407.19 232.883 402.454 224.666 402.524 217.981C402.524 211.226 407.259 208.58 413.109 211.923L449.319 232.813ZM449.319 256.072C454.612 259.136 458.999 256.699 458.999 250.571C458.999 244.443 454.681 236.992 449.389 233.928L413.178 213.037C407.886 209.973 403.499 212.41 403.499 218.538C403.499 224.666 407.816 232.117 413.109 235.181L449.319 256.072Z" fill="white"/>
<path d="M460.879 216.727C460.879 224.039 455.656 226.964 449.319 223.273L413.109 202.382C406.772 198.692 401.619 189.848 401.619 182.536C401.619 175.224 406.841 172.299 413.178 175.99L449.389 196.881C455.796 200.502 460.949 209.416 460.879 216.727Z" fill="url(#paint15_linear_10948_11332)"/>
<path d="M449.459 197.926C455.308 201.268 460.043 209.485 459.974 216.17C459.974 222.855 455.169 225.571 449.389 222.229L413.178 201.338C407.329 197.995 402.594 189.778 402.663 183.093C402.663 176.408 407.399 173.692 413.248 177.035L449.459 197.926ZM449.389 221.184C454.681 224.248 459.069 221.811 459.069 215.683C459.069 209.555 454.751 202.104 449.459 199.04L413.248 178.149C407.956 175.085 403.569 177.522 403.569 183.65C403.569 189.778 407.886 197.229 413.178 200.293L449.389 221.184Z" fill="white"/>
<path opacity="0.8" d="M461.088 146.952C461.088 154.264 455.865 157.189 449.528 153.498L413.317 132.607C406.981 128.916 401.827 120.072 401.827 112.761C401.827 105.449 407.05 102.524 413.387 106.215L449.598 127.106C456.004 130.796 461.157 139.71 461.088 146.952Z" fill="url(#paint16_linear_10948_11332)"/>
<path d="M461.018 181.84C461.018 189.152 455.796 192.076 449.459 188.386L413.248 167.495C406.911 163.804 401.758 154.96 401.828 147.648C401.828 140.337 407.05 137.412 413.318 141.103L449.528 161.993C455.865 165.684 461.018 174.598 461.018 181.84Z" fill="url(#paint17_linear_10948_11332)"/>
<path d="M418.053 53.7093C418.889 54.1967 419.585 55.3109 419.585 56.3555C419.585 57.4 418.889 57.7482 418.053 57.2607C417.217 56.7733 416.521 55.6591 416.521 54.6145C416.521 53.57 417.217 53.2218 418.053 53.7093Z" fill="white"/>
<path d="M425.225 51.3413C422.509 49.8093 420.56 50.7146 420.56 53.709C420.56 56.6337 422.509 59.9066 425.225 61.4386C427.941 62.9706 429.891 62.0653 429.891 59.0709C429.821 56.0766 427.871 52.8733 425.225 51.3413ZM425.156 59.0709C423.902 58.3746 422.997 56.773 422.997 55.1017C422.997 53.4304 423.972 52.943 425.156 53.6393C426.409 54.3357 427.314 55.9373 427.314 57.6086C427.314 59.2799 426.409 59.7673 425.156 59.0709Z" fill="white"/>
<path d="M461.227 112.064C461.227 119.376 456.004 122.301 449.667 118.61L413.457 97.7193C407.12 94.0285 401.967 85.1847 401.967 77.8729C401.967 70.5611 407.189 67.6364 413.457 71.3271L449.667 92.218C456.074 95.9087 461.227 104.822 461.227 112.064Z" fill="url(#paint18_linear_10948_11332)"/>
<path d="M444.584 62.692V63.9455C443.958 62.6224 442.983 61.5778 441.799 60.9511C439.431 59.5584 437.551 60.394 437.551 63.2491C437.551 66.1042 439.431 69.0289 441.799 70.4216C442.913 71.0484 443.818 71.1876 444.515 70.7698V71.1876C444.515 72.9285 443.749 73.416 442.008 72.4411C440.894 71.8144 439.71 70.7002 439.013 69.586L438.038 71.0484C439.013 72.5107 440.615 73.9034 442.217 74.8087C445.281 76.6193 447.022 75.8532 447.022 72.2322V64.0847L444.584 62.692ZM442.286 68.3326C440.963 67.5666 440.058 66.1042 440.058 64.6418C440.058 63.1795 441.033 62.7616 442.286 63.5276C443.609 64.2936 444.515 65.756 444.515 67.2184C444.515 68.6111 443.54 69.0289 442.286 68.3326Z" fill="white"/>
<path d="M449.876 58.4441C455.726 61.7867 460.461 70.0037 460.392 76.6888C460.392 83.3739 455.587 86.0897 449.807 82.7472L413.596 61.8563C407.747 58.5137 403.011 50.2967 403.081 43.6116C403.081 36.9265 407.816 34.2107 413.666 37.5532L449.876 58.4441ZM449.807 81.7026C455.099 84.7666 459.486 82.3293 459.486 76.2014C459.486 70.0734 455.169 62.6223 449.876 59.5583L413.666 38.6674C408.373 35.6034 403.986 38.0407 403.986 44.1687C403.986 50.2967 408.304 57.7477 413.596 60.8117L449.807 81.7026Z" fill="white"/>
<path d="M436.785 58.0265V60.6727C436.576 60.5334 436.437 60.3941 436.228 60.3245C434.835 59.5585 433.93 59.837 433.93 61.7172V66.3132L431.493 64.9205V55.1714L433.86 56.5641V57.8872C434.487 57.1909 435.462 57.2605 436.785 58.0265Z" fill="white"/>
<path d="M414.084 16.5234C414.919 17.0109 415.615 18.1251 415.615 19.1696C415.615 20.2141 414.919 20.5623 414.084 20.0749C413.248 19.5874 412.552 18.4732 412.552 17.4287C412.552 16.3145 413.248 16.036 414.084 16.5234Z" fill="white"/>
<path d="M430.448 19.4482C433.164 20.9802 435.114 24.2531 435.114 27.1778C435.114 30.1025 433.164 31.0774 430.448 29.5454C427.732 28.0134 425.782 24.7405 425.782 21.8158C425.782 18.8214 427.732 17.8465 430.448 19.4482ZM430.448 27.1778C431.702 27.8742 432.607 27.3867 432.607 25.7154C432.607 24.0442 431.702 22.4425 430.448 21.7462C429.195 21.0498 428.289 21.4676 428.289 23.2085C428.22 24.8798 429.195 26.4118 430.448 27.1778Z" fill="white"/>
<path d="M447.648 29.3367C449.668 30.5205 451.13 32.6792 451.13 35.6736V41.2445L448.693 39.8517V34.6987C448.693 33.097 448.066 32.0525 447.091 31.4954C445.977 30.8687 445.211 31.2168 445.211 32.9578V37.8323L442.774 36.4396V31.2865C442.774 29.6849 442.217 28.6403 441.172 28.0832C440.058 27.4565 439.292 27.8047 439.292 29.5456V34.4201L436.855 33.0274V23.2783L439.222 24.671V25.7852C439.849 25.2978 440.824 25.437 441.868 26.0638C443.052 26.7601 444.097 27.8743 444.654 29.267C445.211 28.5707 446.325 28.6403 447.648 29.3367Z" fill="white"/>
<path d="M449.946 23.5564C455.796 26.899 460.531 35.116 460.461 41.8011C460.461 48.4862 455.657 51.202 449.877 47.8595L413.666 26.9686C407.816 23.626 403.081 15.409 403.151 8.72391C403.151 2.03883 407.886 -0.676993 413.736 2.66555L449.946 23.5564ZM449.877 46.8149C455.169 49.8789 459.556 47.4416 459.556 41.3137C459.556 35.1857 455.239 27.7346 449.946 24.6706L413.736 3.77973C408.443 0.715736 404.056 3.153 404.056 9.28099C404.056 15.409 408.374 22.8601 413.666 25.924L449.877 46.8149Z" fill="white"/>
<path d="M421.256 14.1557C423.067 15.2002 424.459 16.8715 425.086 18.8213L423.206 18.8909C422.718 17.7071 422.092 16.8715 421.326 16.4537C420.072 15.7573 419.097 16.1751 419.097 17.8464C419.097 19.5177 420.072 21.1193 421.326 21.8157C422.092 22.2335 422.788 22.2335 423.275 21.6068L425.156 23.9047C424.529 25.0886 423.136 25.2278 421.326 24.1833C418.54 22.5817 416.59 19.3784 416.59 16.4537C416.521 13.4593 418.54 12.554 421.256 14.1557Z" fill="white"/>
<path d="M425.922 87.6915C427.941 88.8753 429.473 91.034 429.403 94.0284V99.5993L426.966 98.2065V93.0535C426.966 91.4518 426.34 90.4073 425.225 89.7805C424.042 89.0842 423.206 89.4324 423.206 91.2429V96.0478L420.769 94.6551V84.906L423.136 86.2987V87.4129C423.763 86.9255 424.808 87.0647 425.922 87.6915Z" fill="white"/>
<path d="M444.514 96.3963V98.7639L446.603 100.017V102.176L444.514 100.923V104.892C444.514 105.728 444.932 106.424 445.559 106.772C445.907 106.981 446.255 107.051 446.534 106.981L447.161 109.349C446.673 109.488 445.907 109.279 445.141 108.792C443.122 107.608 441.938 105.797 442.008 103.43V99.3906L440.684 98.6246V96.4659L442.008 97.2319V94.8643L444.514 96.3963Z" fill="white"/>
<path d="M449.737 93.3323C455.587 96.6748 460.322 104.892 460.252 111.577C460.252 118.262 455.447 120.978 449.668 117.635L413.457 96.7445C407.607 93.4019 402.872 85.1848 402.942 78.4998C402.942 71.8147 407.677 69.0989 413.526 72.4414L449.737 93.3323ZM449.668 116.521C454.96 119.585 459.347 117.148 459.347 111.02C459.347 104.892 455.03 97.4408 449.737 94.3768L413.526 73.486C408.234 70.422 403.847 72.8592 403.847 78.9872C403.847 85.1152 408.164 92.5663 413.457 95.6303L449.668 116.521Z" fill="white"/>
<path d="M440.058 100.922C440.058 97.7887 438.178 94.7247 435.671 93.332C433.094 91.8696 431.145 92.8446 431.145 95.7693C431.145 98.694 433.025 101.897 435.949 103.569C437.481 104.474 438.665 104.613 439.431 103.986L438.108 101.619C437.551 101.897 436.855 101.828 435.949 101.34C434.626 100.574 433.791 99.3207 433.512 97.9976L439.919 101.688C440.058 101.41 440.058 101.131 440.058 100.922ZM433.582 96.2567C433.791 95.1425 434.557 94.7944 435.671 95.4211C436.785 96.0478 437.551 97.3013 437.76 98.6244L433.582 96.2567Z" fill="white"/>
<path d="M416.033 90.2681C416.033 91.3127 416.73 92.4268 417.565 92.9143C418.401 93.4017 419.097 93.0536 419.097 92.009C419.097 90.9645 418.401 89.8503 417.565 89.3628C416.73 88.8754 416.033 89.2236 416.033 90.2681Z" fill="white"/>
<path d="M419.376 126.549C420.212 127.036 420.908 128.15 420.908 129.195C420.908 130.239 420.212 130.587 419.376 130.1C418.54 129.613 417.844 128.498 417.844 127.454C417.844 126.34 418.471 126.061 419.376 126.549Z" fill="white"/>
<path d="M433.442 138.039V128.29L435.949 129.752L435.88 139.501L433.442 138.039Z" fill="white"/>
<path d="M445.072 135.044V136.715L440.754 140.127L445.211 142.704V144.863L437.621 140.476V138.804L441.938 135.392L437.76 132.955V130.796L445.072 135.044Z" fill="white"/>
<path d="M434.696 127.663C433.791 127.106 433.164 126.061 433.164 125.226C433.164 124.32 433.791 123.972 434.696 124.529C435.601 125.086 436.228 126.061 436.228 126.967C436.228 127.872 435.601 128.22 434.696 127.663Z" fill="white"/>
<path d="M427.593 124.808C429.961 126.2 431.841 129.195 431.771 132.259C431.771 135.323 429.891 136.228 427.523 134.835C426.409 134.209 425.504 133.234 424.877 132.05V133.164L422.51 131.771L422.579 118.332L425.016 119.724V124.46C425.643 124.042 426.548 124.181 427.593 124.808ZM427.175 132.259C428.429 132.955 429.334 132.468 429.334 130.796C429.334 129.125 428.429 127.524 427.175 126.827C425.922 126.131 425.016 126.618 425.016 128.29C425.016 129.961 425.922 131.562 427.175 132.259Z" fill="white"/>
<path d="M449.668 128.15C455.517 131.493 460.252 139.71 460.183 146.395C460.183 153.08 455.378 155.796 449.598 152.453L413.387 131.562C407.538 128.22 402.802 120.003 402.872 113.318C402.872 106.633 407.607 103.917 413.457 107.259L449.668 128.15ZM449.598 151.409C454.89 154.473 459.277 152.035 459.277 145.907C459.277 139.779 454.96 132.328 449.668 129.264L413.457 108.373C408.164 105.309 403.777 107.747 403.777 113.875C403.777 120.003 408.095 127.454 413.387 130.518L449.598 151.409Z" fill="white"/>
<path d="M423.833 164.083C424.668 164.57 425.365 165.614 425.365 166.729C425.365 167.773 424.668 168.121 423.833 167.634C422.997 167.146 422.301 166.032 422.301 164.988C422.301 163.874 422.997 163.595 423.833 164.083Z" fill="white"/>
<path d="M427.036 169.305L427.105 159.556L429.543 160.949L429.473 170.768L427.036 169.305Z" fill="white"/>
<path d="M435.88 164.5C433.164 162.968 431.214 163.873 431.214 166.798C431.214 169.723 433.164 172.996 435.88 174.528C438.596 176.06 440.546 175.154 440.546 172.16C440.546 169.235 438.596 166.032 435.88 164.5ZM435.81 172.23C434.557 171.533 433.652 169.932 433.652 168.261C433.652 166.589 434.626 166.102 435.81 166.798C437.064 167.495 437.969 169.027 437.969 170.767C438.039 172.439 437.064 172.926 435.81 172.23Z" fill="white"/>
<path d="M428.289 158.929C427.384 158.372 426.757 157.328 426.757 156.492C426.757 155.587 427.384 155.239 428.289 155.796C429.195 156.353 429.821 157.328 429.821 158.233C429.821 159.138 429.195 159.417 428.289 158.929Z" fill="white"/>
<path d="M449.528 163.038L413.318 142.147C407.468 138.805 402.733 141.451 402.733 148.205C402.733 154.96 407.398 163.108 413.248 166.45L449.459 187.341C455.308 190.684 460.043 188.037 460.043 181.283C460.113 174.598 455.378 166.45 449.528 163.038ZM449.459 186.296L413.248 165.406C407.956 162.342 403.638 154.891 403.638 148.763C403.638 142.635 408.025 140.197 413.318 143.261L449.528 164.152C454.89 167.216 459.138 174.667 459.138 180.795C459.138 186.923 454.821 189.36 449.459 186.296Z" fill="white"/>
<path d="M415.755 192.146C416.59 192.633 417.287 193.747 417.287 194.792C417.287 195.836 416.59 196.185 415.755 195.697C414.919 195.21 414.223 194.096 414.223 193.051C414.223 191.937 414.919 191.658 415.755 192.146Z" fill="white"/>
<path d="M425.295 191.241V192.494C424.668 191.171 423.693 190.126 422.509 189.5C420.142 188.107 418.262 188.943 418.262 191.798C418.262 194.653 420.142 197.577 422.509 198.97C423.624 199.597 424.529 199.736 425.225 199.318V199.736C425.225 201.477 424.459 201.965 422.718 200.99C421.604 200.363 420.42 199.249 419.724 198.135L418.749 199.597C419.724 201.059 421.326 202.382 422.927 203.357C425.991 205.098 427.732 204.402 427.732 200.781V192.633L425.295 191.241ZM422.927 196.881C421.604 196.115 420.699 194.653 420.699 193.19C420.699 191.728 421.674 191.31 422.927 192.076C424.25 192.842 425.156 194.305 425.156 195.767C425.156 197.229 424.25 197.647 422.927 196.881Z" fill="white"/>
<path d="M448.414 204.68L444.863 212.34L442.286 210.878L438.735 199.04L441.311 200.502L443.609 208.51L446.046 203.288L448.414 204.68Z" fill="white"/>
<path d="M433.93 196.115C431.214 194.583 429.264 195.489 429.264 198.483C429.264 201.408 431.214 204.681 433.93 206.213C436.646 207.745 438.596 206.839 438.596 203.845C438.596 200.92 436.646 197.647 433.93 196.115ZM433.93 203.845C432.677 203.148 431.771 201.547 431.771 199.876C431.771 198.204 432.746 197.717 433.93 198.413C435.183 199.11 436.089 200.711 436.089 202.383C436.089 204.123 435.183 204.541 433.93 203.845Z" fill="white"/>
<path d="M448.275 239.499V249.248L445.907 247.925V246.741C445.281 247.228 444.306 247.089 443.261 246.532C441.102 245.278 439.64 243.05 439.64 240.056V234.554L442.077 235.947V241.031C442.077 242.702 442.704 243.746 443.818 244.373C444.932 245 445.768 244.652 445.768 242.841V238.036L448.275 239.499Z" fill="white"/>
<path d="M415.685 227.103C416.521 227.591 417.217 228.705 417.217 229.749C417.217 230.794 416.521 231.142 415.685 230.655C414.85 230.167 414.153 229.053 414.153 228.009C414.153 226.894 414.85 226.616 415.685 227.103Z" fill="white"/>
<path d="M427.106 232.187C427.106 232.395 427.106 232.674 427.036 232.953L420.629 229.262C420.838 230.585 421.744 231.908 423.067 232.604C423.972 233.092 424.599 233.161 425.225 232.883L426.549 235.251C425.783 235.808 424.599 235.668 423.067 234.833C420.142 233.161 418.192 229.889 418.262 227.033C418.262 224.109 420.212 223.134 422.788 224.596C425.225 226.059 427.175 229.053 427.106 232.187ZM420.629 227.521L424.808 229.958C424.668 228.635 423.833 227.382 422.719 226.755C421.604 226.128 420.769 226.407 420.629 227.521Z" fill="white"/>
<path d="M434.974 228.078L437.412 229.471L437.342 242.911L434.974 241.518V240.404C434.348 240.891 433.442 240.822 432.328 240.125C429.96 238.733 428.08 235.738 428.08 232.674C428.08 229.61 429.96 228.705 432.328 230.098C433.373 230.725 434.278 231.56 434.835 232.744L434.974 228.078ZM432.816 238.176C433.999 238.872 434.974 238.385 434.974 236.713C434.974 235.042 434.069 233.44 432.816 232.744C431.562 232.048 430.657 232.465 430.657 234.206C430.657 235.878 431.632 237.479 432.816 238.176Z" fill="white"/>
<path d="M226.414 47.3722L229.408 52.5253C229.826 53.2216 229.756 53.918 229.408 54.1269C229.199 54.2662 228.99 54.1965 228.712 54.0573C228.433 53.918 228.224 53.6394 228.015 53.2913L225.021 48.0685C223.976 48.3471 222.653 48.0685 221.261 47.3025C217.709 45.2134 214.784 40.1996 214.784 36.0911C214.784 31.9826 217.709 30.3113 221.261 32.4004C224.812 34.4895 227.737 39.5033 227.737 43.6118C227.667 45.3527 227.18 46.6062 226.414 47.3722ZM221.191 45.1438C223.698 46.6062 225.717 45.4224 225.717 42.5673C225.717 39.7122 223.698 36.2304 221.191 34.768C218.684 33.3057 216.665 34.4895 216.665 37.3446C216.734 40.1996 218.684 43.6814 221.191 45.1438Z" fill="#45108A"/>
<path d="M466.032 73.7644V73.6948V73.6251V73.5555V73.4859V73.4162V73.3466V73.277V73.2073V73.1377V73.0681L461.714 60.7424L460.461 61.5084L464.778 73.8341C464.848 74.043 464.917 74.3215 464.917 74.5304C464.917 74.7393 464.917 74.9482 464.917 75.1571C464.917 75.366 464.848 75.5053 464.778 75.6446C464.709 75.7839 464.569 75.8535 464.5 75.9231L465.753 75.1571C465.892 75.0875 465.962 75.0179 466.032 74.8786C466.032 74.8786 466.032 74.809 466.101 74.809C466.101 74.809 466.101 74.7393 466.171 74.7393V74.6697V74.6001V74.5304V74.4608V74.3911V74.3215V74.2519V74.1822C466.032 73.7644 466.032 73.7644 466.032 73.7644Z" fill="white"/>
<path d="M472.09 63.667V63.5973V63.5277V63.4581V63.3884V63.3188C472.09 63.3188 472.09 63.3188 472.09 63.2492V63.1795V63.1099V63.0403V62.9706V62.901V62.8313V62.7617V62.6921C472.09 62.6921 472.09 62.6224 472.02 62.6224C472.02 62.6224 472.02 62.5528 471.951 62.5528V62.4832C471.951 62.4135 471.881 62.4135 471.881 62.3439C471.812 62.2743 471.812 62.2046 471.742 62.135C471.742 62.135 471.742 62.0654 471.672 62.0654L453.567 36.4392C453.567 36.3696 453.497 36.3696 453.497 36.2999C453.428 36.2303 453.428 36.2303 453.358 36.1607C453.358 36.091 453.288 36.091 453.288 36.0214L453.219 35.9518C453.219 35.9518 453.219 35.9518 453.219 35.8821C453.219 35.8125 453.149 35.8125 453.149 35.7428C453.149 35.6732 453.079 35.6732 453.079 35.6036C453.01 35.534 453.01 35.5339 452.94 35.4643L452.87 35.3947C452.801 35.3947 452.801 35.325 452.731 35.325C452.662 35.325 452.662 35.2554 452.592 35.2554C452.592 35.2554 452.522 35.2554 452.522 35.1858C452.453 35.1858 452.453 35.1161 452.383 35.1161C452.313 35.1161 452.313 35.0465 452.244 35.0465L452.174 34.9768C452.174 34.9768 452.104 34.9769 452.104 34.9072L452.035 34.8376C452.035 34.8376 451.965 34.8376 451.965 34.7679C451.965 34.7679 451.896 34.7679 451.896 34.6983C451.896 34.6983 451.826 34.6983 451.826 34.6287H451.756C451.687 34.6287 451.687 34.6287 451.617 34.6287C451.547 34.6287 451.547 34.6287 451.478 34.6287C451.408 34.6287 451.408 34.6287 451.338 34.6287H451.269C451.269 34.6287 451.269 34.6287 451.199 34.6287C451.13 34.6287 451.13 34.6287 451.06 34.6287C450.99 34.6287 450.99 34.6287 450.921 34.6287C450.851 34.6287 450.851 34.6287 450.781 34.6287C450.712 34.6287 450.642 34.6287 450.573 34.6983C450.503 34.6983 450.433 34.7679 450.364 34.7679L449.11 35.5339C449.249 35.4643 449.389 35.3947 449.528 35.3947C449.667 35.3947 449.806 35.3947 449.946 35.3947C450.085 35.3947 450.224 35.4643 450.433 35.5339C450.572 35.6036 450.781 35.6732 450.921 35.7428C451.06 35.8125 451.199 35.8821 451.269 36.0214C451.408 36.091 451.478 36.2303 451.617 36.2999C451.756 36.4392 451.826 36.5089 451.965 36.6481C452.105 36.7874 452.174 36.9267 452.313 37.0659L470.419 62.6921C470.558 62.8313 470.628 63.0402 470.697 63.1795C470.767 63.3188 470.837 63.5277 470.906 63.667C470.976 63.8062 470.976 64.0152 471.046 64.1544C471.046 64.2937 471.115 64.433 471.115 64.5722C471.115 64.7115 471.115 64.8508 471.115 64.9204C471.115 65.0597 471.046 65.1293 471.046 65.199C471.046 65.2686 470.976 65.2686 470.976 65.3382C470.906 65.4079 470.837 65.5472 470.697 65.5472L471.951 64.7812C472.02 64.7115 472.16 64.6419 472.229 64.5722L472.299 64.5026V64.433V64.3633V64.2937V64.2241V64.1544V64.0848V64.0152V63.9455C472.09 63.7366 472.09 63.7366 472.09 63.667Z" fill="white"/>
<path d="M450.573 35.4644C451.06 35.7429 451.617 36.2304 452.035 36.8571L470.14 62.4832C470.558 63.1099 470.837 63.8063 470.837 64.3634C470.837 65.3383 470.14 65.7561 469.305 65.3383L460.252 61.2298L464.569 73.5554C464.987 74.7392 464.639 75.7141 463.803 75.7837C463.525 75.7837 463.316 75.7141 463.037 75.5748C462.411 75.2267 461.854 74.4606 461.505 73.625L457.188 61.2298L450.781 65.5472C450.433 65.7561 449.946 65.7561 449.528 65.4776C449.11 65.199 448.623 64.7812 448.344 64.1545C448.135 63.667 447.926 63.1796 447.996 62.6921L448.066 36.9267C447.996 35.1858 449.249 34.6984 450.573 35.4644Z" fill="url(#paint19_linear_10948_11332)"/>
<g opacity="0.25">
<path d="M449.389 36.0217C449.598 36.0217 449.807 36.0914 450.085 36.2306C450.364 36.3699 450.851 36.7181 451.269 37.4144L469.374 63.0406C469.723 63.4584 469.862 64.0155 469.931 64.4333C469.931 64.5726 469.931 64.6422 469.931 64.6422C469.931 64.6422 469.862 64.6422 469.723 64.5726L460.67 60.464C460.531 60.3944 460.391 60.3944 460.322 60.3944C460.113 60.3944 459.904 60.464 459.695 60.6033C459.416 60.8819 459.347 61.23 459.486 61.5782L463.803 73.9038C464.012 74.4609 463.943 74.8091 463.873 74.8787C463.803 74.8787 463.664 74.8091 463.595 74.7395C463.246 74.5306 462.759 73.9735 462.48 73.2771L458.163 60.8819C458.093 60.6033 457.884 60.3944 457.606 60.3248C457.536 60.3248 457.397 60.2551 457.327 60.2551C457.118 60.2551 456.979 60.3248 456.84 60.3944L450.433 64.7119C450.433 64.7119 450.294 64.7118 450.085 64.5726C449.737 64.3637 449.458 64.0155 449.249 63.5977C449.041 63.2495 448.971 62.9013 448.971 62.5531L449.041 36.7877C448.901 36.3003 449.041 36.0217 449.389 36.0217ZM449.389 35.1165C448.553 35.1165 447.996 35.7432 447.996 36.927L447.926 62.6924C447.926 63.1799 448.066 63.6673 448.275 64.1548C448.553 64.7815 449.041 65.1993 449.458 65.4779C449.737 65.6171 450.016 65.6868 450.224 65.6868C450.433 65.6868 450.573 65.6171 450.712 65.5475L457.118 61.23L461.436 73.6253C461.714 74.4609 462.341 75.2269 462.968 75.5751C463.246 75.7144 463.525 75.784 463.734 75.784C464.57 75.784 464.918 74.8091 464.5 73.5557L460.182 61.23L469.235 65.3386C469.444 65.4082 469.653 65.4779 469.862 65.4779C470.419 65.4779 470.767 65.06 470.767 64.294C470.767 63.7369 470.489 63.0406 470.071 62.4139L451.965 36.7877C451.478 36.161 450.99 35.6735 450.503 35.395C450.155 35.2557 449.737 35.1165 449.389 35.1165Z" fill="#666666"/>
</g>
<path d="M261.337 59.5301L261.456 59.8891L258.045 68.6259L255.412 67.07L253.318 59.0513L251.044 64.5567L248.411 63.0607L245 50.135L247.573 51.631L249.847 60.308L252.181 54.2641L254.515 55.5805L256.789 64.3173L259.122 58.2734L261.337 59.5301Z" fill="black"/>
<path d="M294.309 78.5594L290.778 87.5356L288.145 85.9797L286.051 77.961L283.777 83.4664L281.144 81.9704L277.853 69.3439L277.733 68.9849L280.366 70.5407L282.58 79.2177L284.914 73.1737L287.248 74.4902L289.522 83.227L291.856 77.1831L294.309 78.5594Z" fill="black"/>
<path d="M277.733 68.9849L277.853 69.3439L274.442 78.0807L271.749 76.5249L269.654 68.5062L267.44 74.0116L264.748 72.5155L261.456 59.8891L261.337 59.53L263.97 61.0859L266.184 69.7628L268.577 63.7189L270.911 65.0354L273.125 73.7722L275.459 67.7283L277.733 68.9849Z" fill="black"/>
<g opacity="0.45">
<path d="M296.328 87.6915C297.442 88.3182 298.348 89.7806 298.348 91.1037C298.348 92.4268 297.442 92.9142 296.328 92.2875C295.214 91.6608 294.309 90.1288 294.309 88.8057C294.309 87.413 295.214 87.0648 296.328 87.6915Z" fill="#45108A"/>
</g>
<path d="M224.255 141.242C225.648 142.078 225.648 143.331 224.255 144.167C222.862 145.002 220.564 145.002 219.171 144.167C217.779 143.331 217.779 142.078 219.171 141.242C220.634 140.476 222.862 140.476 224.255 141.242Z" fill="white"/>
<path d="M236.406 149.191C236.409 148.075 234.853 147.167 232.93 147.161C231.007 147.156 229.445 148.056 229.442 149.171C229.439 150.286 230.995 151.195 232.918 151.2C234.841 151.206 236.403 150.306 236.406 149.191Z" fill="white"/>
<path d="M246.26 153.985C247.653 154.821 247.653 156.074 246.26 156.91C244.868 157.746 242.57 157.746 241.177 156.91C239.784 156.074 239.784 154.821 241.177 153.985C242.57 153.15 244.868 153.15 246.26 153.985Z" fill="white"/>
<defs>
<linearGradient id="paint0_linear_10948_11332" x1="74.2296" y1="236.876" x2="427.409" y2="236.876" gradientUnits="userSpaceOnUse">
<stop stop-color="#2481D6"/>
<stop offset="0.7424" stop-color="#200657"/>
<stop offset="1" stop-color="#12054E"/>
</linearGradient>
<linearGradient id="paint1_linear_10948_11332" x1="404.645" y1="163.925" x2="377.769" y2="174.676" gradientUnits="userSpaceOnUse">
<stop stop-color="#1A50B9"/>
<stop offset="0.3939" stop-color="#3480F1"/>
<stop offset="1" stop-color="#1350AB"/>
</linearGradient>
<linearGradient id="paint2_linear_10948_11332" x1="460.394" y1="272.547" x2="466.085" y2="272.547" gradientUnits="userSpaceOnUse">
<stop stop-color="white"/>
<stop offset="0.770833" stop-color="white"/>
<stop offset="1" stop-color="white"/>
</linearGradient>
<linearGradient id="paint3_linear_10948_11332" x1="30.451" y1="243.597" x2="57.8458" y2="243.597" gradientUnits="userSpaceOnUse">
<stop stop-color="white"/>
<stop offset="1" stop-color="white"/>
</linearGradient>
<linearGradient id="paint4_linear_10948_11332" x1="74.2476" y1="233.199" x2="427.409" y2="233.199" gradientUnits="userSpaceOnUse">
<stop stop-color="#248BD6"/>
<stop offset="0.7424" stop-color="#200657"/>
<stop offset="1" stop-color="#12054E"/>
</linearGradient>
<linearGradient id="paint5_linear_10948_11332" x1="74.2477" y1="233.199" x2="427.409" y2="233.199" gradientUnits="userSpaceOnUse">
<stop offset="0.010101" stop-color="#9F19AB"/>
<stop offset="0.4293" stop-color="#5F27BD"/>
<stop offset="0.904" stop-color="#3D065F"/>
</linearGradient>
<radialGradient id="paint6_radial_10948_11332" cx="0" cy="0" r="1" gradientUnits="userSpaceOnUse" gradientTransform="translate(417.144 250.215) scale(334.275 334.275)">
<stop stop-color="white"/>
<stop offset="0.1614" stop-color="#6C1E52"/>
<stop offset="0.3626" stop-color="#5C1946"/>
<stop offset="0.5849" stop-color="#431233"/>
<stop offset="0.8208" stop-color="#200918"/>
<stop offset="1"/>
</radialGradient>
<linearGradient id="paint7_linear_10948_11332" x1="74.2798" y1="233.596" x2="427.373" y2="233.596" gradientUnits="userSpaceOnUse">
<stop offset="0.010101" stop-color="#1930AB"/>
<stop offset="0.4293" stop-color="#2763BD"/>
<stop offset="0.904" stop-color="#062A5F"/>
</linearGradient>
<linearGradient id="paint8_linear_10948_11332" x1="173.434" y1="234.123" x2="392.746" y2="235.659" gradientUnits="userSpaceOnUse">
<stop offset="0.030303" stop-color="#1D81C9"/>
<stop offset="0.2138" stop-color="#4184D2"/>
<stop offset="0.6184" stop-color="#4C9BE8"/>
<stop offset="1" stop-color="#2AF6FF"/>
</linearGradient>
<linearGradient id="paint9_linear_10948_11332" x1="88.1385" y1="211.58" x2="275.813" y2="203.287" gradientUnits="userSpaceOnUse">
<stop offset="0.030303" stop-color="#1D6CC9"/>
<stop offset="0.2138" stop-color="#4195D2"/>
<stop offset="0.6184" stop-color="#0094FF"/>
<stop offset="1" stop-color="#2AA6FF"/>
</linearGradient>
<linearGradient id="paint10_linear_10948_11332" x1="467.293" y1="188.93" x2="-49.6545" y2="-189.106" gradientUnits="userSpaceOnUse">
<stop stop-color="#248BD6"/>
<stop offset="0.7424" stop-color="#200657"/>
<stop offset="1" stop-color="#12054E"/>
</linearGradient>
<linearGradient id="paint11_linear_10948_11332" x1="202.02" y1="196.074" x2="427.398" y2="196.074" gradientUnits="userSpaceOnUse">
<stop offset="0.0353535" stop-color="#2440D6"/>
<stop offset="0.316" stop-color="#1C44D0"/>
<stop offset="0.8574" stop-color="#0667C1"/>
<stop offset="0.9848" stop-color="#0085FF"/>
</linearGradient>
<linearGradient id="paint12_linear_10948_11332" x1="420.323" y1="53.842" x2="589.601" y2="147.259" gradientUnits="userSpaceOnUse">
<stop offset="0.030303" stop-color="#1D81C9"/>
<stop offset="0.2138" stop-color="#0057FF"/>
<stop offset="0.6184" stop-color="#4C9BE8"/>
<stop offset="1" stop-color="#2AF6FF"/>
</linearGradient>
<linearGradient id="paint13_linear_10948_11332" x1="435.105" y1="27.0571" x2="604.382" y2="120.474" gradientUnits="userSpaceOnUse">
<stop offset="0.030303" stop-color="#1D76C9"/>
<stop offset="0.2138" stop-color="#4184D2"/>
<stop offset="0.6184" stop-color="#4C9BE8"/>
<stop offset="1" stop-color="#2AF6FF"/>
</linearGradient>
<linearGradient id="paint14_linear_10948_11332" x1="346.436" y1="187.731" x2="515.712" y2="281.148" gradientUnits="userSpaceOnUse">
<stop offset="0.030303" stop-color="#7C1DC9"/>
<stop offset="0.2138" stop-color="#6E41D2"/>
<stop offset="0.6184" stop-color="#4C9BE8"/>
<stop offset="1" stop-color="#2AF6FF"/>
</linearGradient>
<linearGradient id="paint15_linear_10948_11332" x1="361.212" y1="160.955" x2="530.489" y2="254.372" gradientUnits="userSpaceOnUse">
<stop offset="0.030303" stop-color="#7C1DC9"/>
<stop offset="0.2138" stop-color="#6E41D2"/>
<stop offset="0.6184" stop-color="#4C9BE8"/>
<stop offset="1" stop-color="#2AF6FF"/>
</linearGradient>
<linearGradient id="paint16_linear_10948_11332" x1="390.769" y1="107.395" x2="560.046" y2="200.812" gradientUnits="userSpaceOnUse">
<stop offset="0.030303" stop-color="#1D4DC9"/>
<stop offset="0.2138" stop-color="#416AD2"/>
<stop offset="0.6184" stop-color="#4C9BE8"/>
<stop offset="1" stop-color="#2AF6FF"/>
</linearGradient>
<linearGradient id="paint17_linear_10948_11332" x1="375.988" y1="134.18" x2="545.265" y2="227.597" gradientUnits="userSpaceOnUse">
<stop offset="0.030303" stop-color="#1D57C9"/>
<stop offset="0.2138" stop-color="#4184D2"/>
<stop offset="0.6184" stop-color="#4C9BE8"/>
<stop offset="1" stop-color="#2AF6FF"/>
</linearGradient>
<linearGradient id="paint18_linear_10948_11332" x1="405.545" y1="80.6201" x2="574.822" y2="174.037" gradientUnits="userSpaceOnUse">
<stop offset="0.030303" stop-color="#1D57C9"/>
<stop offset="0.2138" stop-color="#4158D2"/>
<stop offset="0.6184" stop-color="#4C9BE8"/>
<stop offset="1" stop-color="#2AF6FF"/>
</linearGradient>
<linearGradient id="paint19_linear_10948_11332" x1="447.913" y1="55.4803" x2="470.805" y2="55.4803" gradientUnits="userSpaceOnUse">
<stop stop-color="#D1B4E3"/>
<stop offset="0.2692" stop-color="#DBC4E9"/>
<stop offset="0.791" stop-color="#F4EDF8"/>
<stop offset="1" stop-color="white"/>
</linearGradient>
</defs>
</svg>
