<svg width="49" height="50" viewBox="0 0 49 50" fill="none" xmlns="http://www.w3.org/2000/svg">
<g clip-path="url(#clip0_11218_6439)">
<path d="M46.8196 16.9234H1.70374V33.5484H46.8196V16.9234Z" fill="#E9EBEF"/>
<path d="M13.0786 22.211H6.95361V27.461H13.0786V22.211Z" fill="white"/>
<path d="M26.4309 22.211H19.4309V27.461H26.4309V22.211Z" fill="white"/>
<path d="M13.2398 6.2132H6.87766C6.5892 6.2132 6.31256 6.32779 6.10859 6.53175C5.90462 6.73572 5.79004 7.01236 5.79004 7.30082V13.1196C5.79004 13.4081 5.90462 13.6846 6.10859 13.8886C6.31256 14.0926 6.5892 14.2072 6.87766 14.2072H13.2398C13.5283 14.2072 13.8049 14.0926 14.0088 13.8886C14.2128 13.6846 14.3274 13.4081 14.3274 13.1196V7.30082C14.3274 7.01236 14.2128 6.73572 14.0088 6.53175C13.8049 6.32779 13.5283 6.2132 13.2398 6.2132ZM12.1522 12.0319H7.96529V8.38845H12.1522V12.0319Z" fill="#2533CC"/>
<path d="M25.6421 6.2132H19.28C18.9916 6.2132 18.7149 6.32779 18.511 6.53175C18.307 6.73572 18.1924 7.01236 18.1924 7.30082V13.1196C18.1924 13.4081 18.307 13.6846 18.511 13.8886C18.7149 14.0926 18.9916 14.2072 19.28 14.2072H25.6421C25.9306 14.2072 26.2072 14.0926 26.4113 13.8886C26.6152 13.6846 26.7298 13.4081 26.7298 13.1196V7.30082C26.7298 7.01236 26.6152 6.73572 26.4113 6.53175C26.2072 6.32779 25.9306 6.2132 25.6421 6.2132ZM24.5545 12.0319H20.3676V8.38845H24.5545V12.0319Z" fill="#2533CC"/>
<path d="M41.9529 8.59552H32.0016C31.8587 8.59552 31.7173 8.62365 31.5853 8.67831C31.4534 8.73297 31.3335 8.81309 31.2324 8.91406C31.1315 9.01504 31.0514 9.135 30.9967 9.26695C30.942 9.3989 30.9139 9.5403 30.9139 9.68319C30.9139 9.82599 30.942 9.96739 30.9967 10.0993C31.0514 10.2313 31.1315 10.3513 31.2324 10.4522C31.3335 10.5532 31.4534 10.6334 31.5853 10.688C31.7173 10.7426 31.8587 10.7708 32.0016 10.7708H41.9529C42.2413 10.7708 42.518 10.6562 42.722 10.4522C42.9259 10.2483 43.0406 9.97159 43.0406 9.68319C43.0406 9.3947 42.9259 9.11803 42.722 8.91406C42.518 8.71011 42.2413 8.59552 41.9529 8.59552Z" fill="#2533CC"/>
<path d="M13.2398 20.9771H6.87767C6.73484 20.9771 6.5934 21.0053 6.46145 21.06C6.3295 21.1146 6.20959 21.1947 6.10859 21.2957C6.0076 21.3967 5.92749 21.5166 5.87283 21.6486C5.81817 21.7805 5.79004 21.9219 5.79004 22.0647V27.9377C5.78981 28.0807 5.81777 28.2224 5.87233 28.3545C5.92688 28.4867 6.00696 28.6068 6.10798 28.708C6.209 28.8091 6.32897 28.8894 6.46104 28.9442C6.59312 28.9989 6.73469 29.0271 6.87767 29.0271H13.2398C13.3826 29.0271 13.5241 28.999 13.656 28.9443C13.788 28.8897 13.9079 28.8096 14.0088 28.7086C14.1098 28.6076 14.19 28.4877 14.2446 28.3557C14.2992 28.2238 14.3274 28.0824 14.3274 27.9395V22.0647C14.3274 21.9219 14.2992 21.7805 14.2446 21.6486C14.19 21.5166 14.1098 21.3967 14.0088 21.2957C13.9079 21.1947 13.788 21.1146 13.656 21.06C13.5241 21.0053 13.3826 20.9771 13.2398 20.9771ZM12.1522 26.8501H7.96529V23.1524H12.1522V26.8501Z" fill="#2533CC"/>
<path d="M25.6421 20.9771H19.28C19.1372 20.9771 18.9958 21.0053 18.8638 21.06C18.7318 21.1146 18.6119 21.1947 18.511 21.2957C18.41 21.3967 18.3298 21.5166 18.2752 21.6486C18.2206 21.7805 18.1924 21.9219 18.1924 22.0647V27.9377C18.1922 28.0807 18.2201 28.2224 18.2747 28.3545C18.3292 28.4867 18.4093 28.6068 18.5104 28.708C18.6113 28.8091 18.7313 28.8894 18.8634 28.9442C18.9955 28.9989 19.137 29.0271 19.28 29.0271H25.6421C25.785 29.0271 25.9264 28.999 26.0584 28.9443C26.1903 28.8897 26.3102 28.8096 26.4113 28.7086C26.5122 28.6076 26.5923 28.4877 26.647 28.3557C26.7017 28.2238 26.7298 28.0824 26.7298 27.9395V22.0647C26.7298 21.9219 26.7017 21.7805 26.647 21.6486C26.5923 21.5166 26.5122 21.3967 26.4113 21.2957C26.3102 21.1947 26.1903 21.1146 26.0584 21.06C25.9264 21.0053 25.785 20.9771 25.6421 20.9771ZM24.5545 26.8501H20.3676V23.1524H24.5545V26.8501Z" fill="#2533CC"/>
<path d="M41.9529 23.9132H32.0016C31.7131 23.9132 31.4365 24.0278 31.2324 24.2318C31.0285 24.4358 30.9139 24.7123 30.9139 25.0008C30.9139 25.2893 31.0285 25.5659 31.2324 25.7699C31.4365 25.9739 31.7131 26.0885 32.0016 26.0885H41.9529C42.2413 26.0885 42.518 25.9739 42.722 25.7699C42.9259 25.5659 43.0406 25.2893 43.0406 25.0008C43.0406 24.7123 42.9259 24.4358 42.722 24.2318C42.518 24.0278 42.2413 23.9132 41.9529 23.9132Z" fill="#2533CC"/>
<path d="M48.4769 32.6823V6.53815C48.4163 4.99488 47.7462 3.53864 46.6133 2.48883C45.4805 1.43902 43.9776 0.881357 42.4341 0.938154H6.39468C4.85126 0.881357 3.34833 1.43902 2.21552 2.48883C1.08271 3.53864 0.412514 4.99488 0.351929 6.53815V43.4631C0.412514 45.0064 1.08271 46.4626 2.21552 47.5125C3.34833 48.5623 4.85126 49.1199 6.39468 49.0631H42.4341C43.9776 49.1199 45.4805 48.5623 46.6133 47.5125C47.7462 46.4626 48.4163 45.0064 48.4769 43.4631V32.6823ZM2.54905 6.53815C2.58822 5.55645 3.01501 4.63032 3.73587 3.96277C4.45673 3.29521 5.41286 2.94069 6.39468 2.9769H42.4341C43.416 2.94069 44.3721 3.29521 45.093 3.96277C45.8138 4.63032 46.2407 5.55645 46.2798 6.53815V16.3014H2.54905V6.53815ZM2.54905 18.3401H46.2798V31.6646H2.54905V18.3401ZM42.4341 47.0279H6.39468C5.41228 47.0641 4.45564 46.7091 3.73468 46.0408C3.01372 45.3725 2.58732 44.4455 2.54905 43.4631V33.6999H46.2798V43.4631C46.2415 44.4455 45.8151 45.3725 45.0941 46.0408C44.3732 46.7091 43.4166 47.0641 42.4341 47.0279Z" fill="#2533CC"/>
<path d="M13.2398 35.7958H6.87766C6.5892 35.7958 6.31256 35.9103 6.10859 36.1144C5.90462 36.3183 5.79004 36.5949 5.79004 36.8834V42.7022C5.79004 42.9906 5.90462 43.2672 6.10859 43.4712C6.31256 43.6752 6.5892 43.7898 6.87766 43.7898H13.2398C13.5283 43.7898 13.8049 43.6752 14.0088 43.4712C14.2128 43.2672 14.3274 42.9906 14.3274 42.7022V36.8834C14.3274 36.5949 14.2128 36.3183 14.0088 36.1144C13.8049 35.9103 13.5283 35.7958 13.2398 35.7958ZM12.1522 41.6145H7.96529V37.971H12.1522V41.6145Z" fill="#2533CC"/>
<path d="M25.6421 35.7958H19.28C18.9916 35.7958 18.7149 35.9103 18.511 36.1144C18.307 36.3183 18.1924 36.5949 18.1924 36.8834V42.7022C18.1924 42.9906 18.307 43.2672 18.511 43.4712C18.7149 43.6752 18.9916 43.7898 19.28 43.7898H25.6421C25.9306 43.7898 26.2072 43.6752 26.4113 43.4712C26.6152 43.2672 26.7298 42.9906 26.7298 42.7022V36.8834C26.7298 36.5949 26.6152 36.3183 26.4113 36.1144C26.2072 35.9103 25.9306 35.7958 25.6421 35.7958ZM24.5545 41.6145H20.3676V37.971H24.5545V41.6145Z" fill="#2533CC"/>
<path d="M41.9529 39.229H32.0016C31.7131 39.229 31.4365 39.3436 31.2324 39.5476C31.0285 39.7516 30.9139 40.0282 30.9139 40.3166C30.9139 40.6051 31.0285 40.8817 31.2324 41.0858C31.4365 41.2897 31.7131 41.4043 32.0016 41.4043H41.9529C42.2413 41.4043 42.518 41.2897 42.722 41.0858C42.9259 40.8817 43.0406 40.6051 43.0406 40.3166C43.0406 40.0282 42.9259 39.7516 42.722 39.5476C42.518 39.3436 42.2413 39.229 41.9529 39.229Z" fill="#2533CC"/>
</g>
<defs>
<clipPath id="clip0_11218_6439">
<rect width="49" height="49.875" fill="white" transform="translate(0 0.0625)"/>
</clipPath>
</defs>
</svg>
