<svg width="457" height="335" viewBox="0 0 457 335" fill="none" xmlns="http://www.w3.org/2000/svg">
<path d="M257.619 -33.0612V3.72113C357.406 17.8029 420.527 100.28 420.527 188.006C420.527 283.174 347.435 363.513 253.351 372.765V347.984C333.58 338.833 395.9 269.261 395.9 188.006C395.9 114.475 346.283 43.7382 257.619 28.5254V58.5213C316.777 71.8226 360.996 124.723 360.996 187.994C360.996 261.299 301.68 320.725 228.486 320.725C224.568 320.725 220.706 320.521 216.889 320.182V409.468C355.655 418.54 457 310.172 457 187.994C457 80.3282 379.109 -18.3121 257.619 -33.0612Z" fill="url(#paint0_linear_11283_7817)"/>
<path d="M95.9923 188.005C95.9923 114.7 155.32 55.2741 228.503 55.2741C232.41 55.2741 236.271 55.4777 240.099 55.8057V-33.4806C100.961 -42.4499 0 66.0871 0 188.005C0 295.682 77.9027 394.311 199.381 409.072V372.278C99.5944 358.207 36.4615 275.73 36.4615 188.005C36.4615 92.8368 109.543 12.4973 203.638 3.23383V28.0042C123.409 37.1545 61.0891 106.738 61.0891 187.993C61.0891 262.101 111.315 332.408 199.381 347.451V317.467C140.211 304.177 95.9923 251.277 95.9923 188.005Z" fill="url(#paint1_linear_11283_7817)"/>
<path d="M214.178 296.259C155.211 288.5 113.883 235.894 120.105 176.502C125.378 126.136 164.064 86.3449 214.178 79.7508L216.82 79.4002V114.384L214.912 114.735C184.536 120.356 160.914 144.165 155.358 174.41H301.656C296.236 144.979 273.358 121.329 243.965 115.108L242.125 114.712V79.6151L244.79 80.0222C297.647 87.951 337.519 134.381 337.519 187.994C337.519 241.618 297.658 288.048 244.79 295.977L242.125 296.372V261.276L243.965 260.891C270.569 255.258 292.204 235.08 299.86 209.077H157.131C164.99 235.838 187.382 256.163 214.9 261.253L216.809 261.604V296.587L214.178 296.259Z" fill="url(#paint2_linear_11283_7817)"/>
<defs>
<linearGradient id="paint0_linear_11283_7817" x1="229.116" y1="-69.6676" x2="228.502" y2="410" gradientUnits="userSpaceOnUse">
<stop stop-color="#CAE5FF"/>
<stop offset="0.680076" stop-color="#CAE5FF" stop-opacity="0"/>
</linearGradient>
<linearGradient id="paint1_linear_11283_7817" x1="229.116" y1="-69.6676" x2="228.502" y2="410" gradientUnits="userSpaceOnUse">
<stop stop-color="#CAE5FF"/>
<stop offset="0.680076" stop-color="#CAE5FF" stop-opacity="0"/>
</linearGradient>
<linearGradient id="paint2_linear_11283_7817" x1="229.116" y1="-69.6676" x2="228.502" y2="410" gradientUnits="userSpaceOnUse">
<stop stop-color="#CAE5FF"/>
<stop offset="0.680076" stop-color="#CAE5FF" stop-opacity="0"/>
</linearGradient>
</defs>
</svg>
