<svg width="526" height="584" viewBox="0 0 526 584" fill="none" xmlns="http://www.w3.org/2000/svg">
<g clip-path="url(#clip0_11133_2155)">
<g style="mix-blend-mode:multiply" opacity="0.3">
<path opacity="0.05" d="M165.779 309.755L139.58 322.849C136.696 324.29 132.058 324.29 129.193 322.849L102.989 309.755C100.105 308.314 100.105 305.994 102.989 304.563L129.193 291.464C132.077 290.023 136.71 290.023 139.58 291.464L165.779 304.563C168.648 305.994 168.648 308.319 165.779 309.755Z" fill="#A7B1F2"/>
<path opacity="0.1" d="M167.057 309.117L140.853 322.21C137.969 323.651 133.336 323.651 130.467 322.21L104.263 309.117C101.379 307.676 101.379 305.356 104.263 303.924L130.467 290.83C133.351 289.389 137.984 289.389 140.853 290.83L167.057 303.924C169.926 305.356 169.926 307.68 167.057 309.117Z" fill="#A7B1F2"/>
<path opacity="0.14" d="M168.335 308.478L142.132 321.572C139.248 323.013 134.614 323.013 131.745 321.572L105.541 308.478C102.657 307.037 102.657 304.722 105.541 303.285L131.745 290.192C134.629 288.751 139.262 288.751 142.132 290.192L168.335 303.285C171.2 304.722 171.2 307.042 168.335 308.478Z" fill="#A7B1F2"/>
<path opacity="0.19" d="M169.609 307.839L143.405 320.938C140.521 322.378 135.888 322.378 133.019 320.938L106.82 307.839C103.936 306.398 103.936 304.083 106.82 302.647L133.019 289.553C135.903 288.112 140.541 288.112 143.405 289.553L169.609 302.647C172.479 304.083 172.479 306.408 169.609 307.839Z" fill="#A7B1F2"/>
<path opacity="0.24" d="M170.888 307.2L144.669 320.299C141.786 321.74 137.152 321.74 134.283 320.299L108.093 307.2C105.21 305.759 105.21 303.444 108.093 302.012L134.297 288.914C137.181 287.473 141.814 287.473 144.684 288.914L170.888 302.012C173.757 303.444 173.757 305.769 170.888 307.2Z" fill="#A7B1F2"/>
<path opacity="0.29" d="M172.161 306.561L145.962 319.66C143.078 321.101 138.44 321.101 135.576 319.66L109.372 306.561C106.488 305.12 106.488 302.805 109.372 301.374L135.576 288.275C138.459 286.834 143.093 286.834 145.962 288.275L172.161 301.374C175.031 302.805 175.031 305.13 172.161 306.561Z" fill="#A7B1F2"/>
<path opacity="0.33" d="M173.44 305.927L147.236 319.021C144.352 320.462 139.719 320.462 136.849 319.021L110.645 305.927C107.762 304.486 107.762 302.166 110.645 300.735L136.849 287.636C139.733 286.195 144.366 286.195 147.236 287.636L173.44 300.735C176.309 302.166 176.309 304.491 173.44 305.927Z" fill="#A7B1F2"/>
<path opacity="0.38" d="M174.718 305.288L148.514 318.382C145.631 319.823 140.997 319.823 138.128 318.382L111.924 305.288C109.04 303.847 109.04 301.532 111.924 300.096L138.128 287.002C141.012 285.561 145.645 285.561 148.514 287.002L174.718 300.096C177.583 301.532 177.583 303.852 174.718 305.288Z" fill="#A7B1F2"/>
<path opacity="0.43" d="M175.992 304.649L149.788 317.743C146.904 319.184 142.271 319.184 139.402 317.743L113.203 304.649C110.319 303.209 110.319 300.893 113.203 299.457L139.382 286.363C142.266 284.922 146.904 284.922 149.769 286.363L175.973 299.457C178.861 300.893 178.861 303.218 175.992 304.649Z" fill="#A7B1F2"/>
<path opacity="0.48" d="M177.27 304.011L151.066 317.109C148.183 318.55 143.549 318.55 140.68 317.109L114.476 304.011C111.592 302.57 111.592 300.254 114.476 298.818L140.68 285.724C143.564 284.283 148.197 284.283 151.066 285.724L177.27 298.818C180.135 300.254 180.135 302.579 177.27 304.011Z" fill="#A7B1F2"/>
<path opacity="0.52" d="M178.544 303.372L152.359 316.47C149.476 317.911 144.837 317.911 141.973 316.47L115.769 303.372C112.885 301.931 112.885 299.616 115.769 298.184L141.973 285.086C144.857 283.645 149.49 283.645 152.359 285.086L178.558 298.184C181.413 299.616 181.413 301.94 178.544 303.372Z" fill="#A7B1F2"/>
<path opacity="0.57" d="M179.822 302.733L153.619 315.832C150.735 317.273 146.102 317.273 143.232 315.832L117.028 302.733C114.145 301.292 114.145 298.977 117.028 297.545L143.227 284.447C146.111 283.006 150.744 283.006 153.614 284.447L179.818 297.545C182.692 298.977 182.692 301.302 179.822 302.733Z" fill="#A7B1F2"/>
<path opacity="0.62" d="M181.101 302.099L154.897 315.193C152.013 316.634 147.375 316.634 144.511 315.193L118.307 302.099C115.423 300.658 115.423 298.338 118.307 296.907L144.511 283.808C147.395 282.367 152.028 282.367 154.897 283.808L181.101 296.907C183.966 298.338 183.966 300.687 181.101 302.099Z" fill="#A7B1F2"/>
<path opacity="0.67" d="M182.375 301.46L156.171 314.554C153.287 315.995 148.654 315.995 145.784 314.554L119.585 301.46C116.701 300.019 116.701 297.704 119.585 296.268L145.784 283.174C148.668 281.733 153.306 281.733 156.171 283.174L182.375 296.268C185.244 297.704 185.244 300.024 182.375 301.46Z" fill="#A7B1F2"/>
<path opacity="0.71" d="M183.653 300.821L157.449 313.92C154.565 315.361 149.932 315.361 147.063 313.92L120.859 300.821C117.975 299.38 117.975 297.065 120.859 295.629L147.072 282.535C149.956 281.094 154.589 281.094 157.459 282.535L183.663 295.629C186.518 297.065 186.518 299.39 183.653 300.821Z" fill="#A7B1F2"/>
<path opacity="0.76" d="M184.927 300.206L158.723 313.305C155.839 314.746 151.206 314.746 148.341 313.305L122.137 300.206C119.254 298.765 119.254 296.45 122.137 295.019L148.341 281.92C151.225 280.479 155.858 280.479 158.723 281.92L184.927 295.019C187.796 296.426 187.796 298.765 184.927 300.206Z" fill="#A7B1F2"/>
<path opacity="0.81" d="M186.205 299.544L160.001 312.642C157.118 314.083 152.484 314.083 149.615 312.642L123.411 299.544C120.527 298.103 120.527 295.787 123.411 294.356L149.615 281.257C152.499 279.816 157.132 279.816 160.001 281.257L186.205 294.356C189.075 295.787 189.075 298.112 186.205 299.544Z" fill="#A7B1F2"/>
<path opacity="0.86" d="M187.479 298.91L161.28 312.003C158.396 313.444 153.758 313.444 150.893 312.003L124.689 298.91C121.806 297.469 121.806 295.149 124.689 293.717L150.917 280.619C153.801 279.178 158.434 279.178 161.304 280.619L187.503 293.717C190.329 295.149 190.329 297.473 187.479 298.91Z" fill="#A7B1F2"/>
<path opacity="0.9" d="M188.757 298.285L162.553 311.379C159.67 312.82 155.036 312.82 152.167 311.379L125.963 298.285C123.079 296.844 123.079 294.524 125.963 293.093L152.167 279.985C155.051 278.544 159.684 278.544 162.553 279.985L188.757 293.078C191.627 294.51 191.627 296.844 188.757 298.285Z" fill="#A7B1F2"/>
<path opacity="0.95" d="M190.036 297.632L163.832 310.726C160.948 312.167 156.315 312.167 153.446 310.726L127.242 297.632C124.358 296.191 124.358 293.876 127.242 292.44L153.446 279.346C156.329 277.905 160.963 277.905 163.832 279.346L190.036 292.44C192.9 293.876 192.9 296.196 190.036 297.632Z" fill="#A7B1F2"/>
<path d="M191.29 296.993L165.086 310.092C162.203 311.533 157.569 311.533 154.7 310.092L128.52 296.993C125.636 295.552 125.636 293.237 128.52 291.801L154.719 278.707C157.603 277.266 162.241 277.266 165.106 278.707L191.29 291.801C194.174 293.237 194.174 295.562 191.29 296.993Z" fill="#A7B1F2"/>
</g>
<path d="M191.319 258.754L165.221 245.708C162.362 244.267 157.728 244.267 154.873 245.708L128.775 258.754C127.333 259.465 126.632 260.401 126.632 261.338V294.481C126.632 295.413 127.343 296.349 128.775 297.065L154.873 310.111C157.728 311.552 162.362 311.552 165.221 310.111L191.319 297.065C192.761 296.349 193.463 295.413 193.463 294.481V261.338C193.463 260.401 192.732 259.465 191.319 258.754Z" fill="url(#paint0_linear_11133_2155)"/>
<path d="M191.319 263.922L165.221 276.968C162.361 278.409 157.728 278.409 154.873 276.968L128.775 263.922C125.915 262.481 125.915 260.181 128.775 258.754L154.873 245.708C157.728 244.267 162.361 244.267 165.221 245.708L191.319 258.754C194.174 260.181 194.174 262.496 191.319 263.922Z" fill="url(#paint1_linear_11133_2155)"/>
<path d="M167.22 155.694C167.22 153.259 169.08 150.823 172.8 148.969L255.113 107.829C262.548 104.111 274.607 104.111 282.028 107.829L520.42 227.369C524.14 229.228 526 231.663 526 234.093V584H167.22V155.694Z" fill="url(#paint2_linear_11133_2155)"/>
<path d="M172.8 162.424L411.178 281.954C418.613 285.672 430.672 285.672 438.093 281.954L520.405 240.814C527.841 237.096 527.841 231.073 520.405 227.364L282.013 107.825C274.578 104.107 262.519 104.107 255.098 107.825L172.8 148.965C165.365 152.683 165.365 158.706 172.8 162.424Z" fill="url(#paint3_linear_11133_2155)"/>
<g style="mix-blend-mode:multiply">
<path opacity="0.05" d="M244.943 183.794L358.409 240.367C361.538 241.933 366.614 241.933 369.743 240.367L387.526 231.49C390.655 229.925 390.655 227.388 387.526 225.827L274.035 169.249C270.906 167.688 265.835 167.688 262.707 169.249L244.923 178.13C241.809 179.692 241.809 182.228 244.943 183.794Z" fill="#B4C1F3"/>
<path opacity="0.1" d="M246.466 183.049L359.933 239.622C363.062 241.188 368.137 241.188 371.266 239.622L389.049 230.746C392.178 229.18 392.178 226.644 389.049 225.083L275.563 168.505C272.43 166.944 267.359 166.944 264.23 168.505L246.447 177.386C243.337 178.947 243.337 181.483 246.466 183.049Z" fill="#B4C1F3"/>
<path opacity="0.14" d="M248.004 182.305L361.456 238.878C364.585 240.444 369.661 240.444 372.79 238.878L390.573 230.001C393.702 228.435 393.702 225.899 390.573 224.338L277.087 167.76C273.958 166.199 268.883 166.199 265.754 167.76L247.97 176.641C244.861 178.203 244.861 180.739 248.004 182.305Z" fill="#B4C1F3"/>
<path opacity="0.19" d="M249.513 181.565L362.985 238.133C366.114 239.699 371.185 239.699 374.313 238.133L392.097 229.257C395.226 227.691 395.226 225.155 392.097 223.594L278.611 167.016C275.482 165.455 270.406 165.455 267.277 167.016L249.494 175.897C246.384 177.458 246.385 179.994 249.513 181.565Z" fill="#B4C1F3"/>
<path opacity="0.24" d="M251.037 180.816L364.508 237.389C367.637 238.955 372.708 238.955 375.837 237.389L393.62 228.512C396.749 226.946 396.749 224.41 393.62 222.849L280.134 166.271C277.005 164.71 271.93 164.71 268.801 166.271L251.018 175.152C247.908 176.714 247.908 179.25 251.037 180.816Z" fill="#B4C1F3"/>
<path opacity="0.29" d="M252.56 180.071L366.032 236.649C369.161 238.21 374.236 238.21 377.365 236.649L395.149 227.768C398.277 226.202 398.277 223.671 395.149 222.105L281.648 165.531C278.519 163.966 273.449 163.966 270.315 165.531L252.532 174.408C249.446 175.974 249.446 178.505 252.56 180.071Z" fill="#B4C1F3"/>
<path opacity="0.33" d="M254.089 179.327L367.556 235.905C370.685 237.466 375.76 237.466 378.889 235.905L396.672 227.023C399.801 225.462 399.801 222.926 396.672 221.36L283.181 164.787C280.053 163.221 274.982 163.221 271.853 164.787L254.07 173.663C250.955 175.229 250.955 177.765 254.089 179.327Z" fill="#B4C1F3"/>
<path opacity="0.38" d="M255.613 178.582L369.079 235.16C372.208 236.721 377.284 236.721 380.413 235.16L398.196 226.279C401.325 224.718 401.325 222.182 398.196 220.616L284.71 164.042C281.581 162.477 276.505 162.477 273.377 164.042L255.593 172.919C252.484 174.485 252.484 177.021 255.613 178.582Z" fill="#B4C1F3"/>
<path opacity="0.43" d="M257.136 177.837L370.603 234.401C373.732 235.962 378.807 235.962 381.936 234.401L399.719 225.52C402.848 223.959 402.848 221.423 399.719 219.857L286.233 163.312C283.105 161.746 278.029 161.746 274.9 163.312L257.117 172.189C254.007 173.74 254.007 176.281 257.136 177.837Z" fill="#B4C1F3"/>
<path opacity="0.48" d="M258.66 177.093L372.131 233.671C375.26 235.232 380.331 235.232 383.46 233.671L401.243 224.79C404.372 223.229 404.372 220.693 401.243 219.127L287.757 162.553C284.628 160.987 279.553 160.987 276.424 162.553L258.64 171.43C255.531 172.996 255.531 175.532 258.66 177.093Z" fill="#B4C1F3"/>
<path opacity="0.52" d="M260.183 176.353L373.655 232.927C376.784 234.492 381.854 234.492 384.988 232.927L402.771 224.045C405.9 222.484 405.9 219.948 402.771 218.382L289.281 161.809C286.152 160.243 281.076 160.243 277.947 161.809L260.164 170.685C257.054 172.251 257.054 174.787 260.183 176.353Z" fill="#B4C1F3"/>
<path opacity="0.57" d="M261.707 175.609L375.178 232.182C378.307 233.748 383.383 233.748 386.512 232.182L404.295 223.306C407.424 221.74 407.424 219.204 404.295 217.638L290.804 161.064C287.675 159.498 282.605 159.498 279.476 161.064L261.692 169.941C258.578 171.507 258.578 174.043 261.707 175.609Z" fill="#B4C1F3"/>
<path opacity="0.62" d="M263.235 174.864L376.702 231.438C379.831 233.003 384.906 233.003 388.035 231.438L405.819 222.561C408.947 220.995 408.947 218.459 405.819 216.898L292.328 160.32C289.199 158.754 284.128 158.754 280.999 160.32L263.216 169.201C260.106 170.762 260.106 173.298 263.235 174.864Z" fill="#B4C1F3"/>
<path opacity="0.67" d="M264.759 174.12L378.226 230.693C381.354 232.259 386.43 232.259 389.559 230.693L407.342 221.817C410.471 220.251 410.471 217.715 407.342 216.153L293.856 159.575C290.727 158.014 285.652 158.014 282.523 159.575L264.74 168.457C261.63 170.037 261.63 172.554 264.759 174.12Z" fill="#B4C1F3"/>
<path opacity="0.71" d="M266.268 173.399L379.749 229.949C382.883 231.514 387.954 231.514 391.083 229.949L408.866 221.072C411.995 219.506 411.995 216.97 408.866 215.409L295.38 158.831C292.251 157.27 287.175 157.27 284.047 158.831L266.263 167.712C263.154 169.273 263.154 171.809 266.268 173.399Z" fill="#B4C1F3"/>
<path opacity="0.76" d="M267.806 172.631L381.278 229.204C384.407 230.77 389.477 230.77 392.606 229.204L410.389 220.328C413.523 218.762 413.523 216.225 410.389 214.664L296.903 158.086C293.774 156.525 288.699 156.525 285.57 158.086L267.787 166.968C264.677 168.529 264.677 171.065 267.806 172.631Z" fill="#B4C1F3"/>
<path opacity="0.81" d="M269.33 171.886L382.801 228.46C385.93 230.025 391.001 230.025 394.134 228.46L411.918 219.583C415.047 218.017 415.047 215.481 411.918 213.92L298.427 157.342C295.298 155.781 290.222 155.781 287.094 157.342L269.31 166.223C266.201 167.784 266.201 170.32 269.33 171.886Z" fill="#B4C1F3"/>
<path opacity="0.86" d="M270.853 171.142L384.325 227.715C387.454 229.281 392.529 229.281 395.658 227.715L413.441 218.838C416.57 217.273 416.57 214.741 413.441 213.175L299.95 156.588C296.822 155.027 291.751 155.027 288.622 156.588L270.839 165.469C267.71 167.044 267.71 169.557 270.853 171.142Z" fill="#B4C1F3"/>
<path opacity="0.9" d="M272.382 170.397L385.848 226.975C388.977 228.536 394.053 228.536 397.182 226.975L414.965 218.094C418.094 216.533 418.094 213.997 414.965 212.431L301.479 155.858C298.345 154.292 293.274 154.292 290.146 155.858L272.362 164.734C269.253 166.3 269.253 168.836 272.382 170.397Z" fill="#B4C1F3"/>
<path opacity="0.95" d="M273.905 169.653L387.386 226.236C390.515 227.797 395.591 227.797 398.72 226.236L416.503 217.354C419.632 215.793 419.632 213.257 416.503 211.691L303.002 155.113C299.874 153.547 294.798 153.547 291.669 155.113L273.886 163.99C270.776 165.555 270.776 168.116 273.905 169.653Z" fill="#B4C1F3"/>
<path d="M275.429 168.908L388.896 225.486C392.029 227.047 397.1 227.047 400.229 225.486L418.012 216.605C421.141 215.044 421.141 212.508 418.012 210.942L304.526 154.369C301.397 152.803 296.322 152.803 293.193 154.369L275.41 163.245C272.3 164.811 272.3 167.347 275.429 168.908Z" fill="#B4C1F3"/>
</g>
<path d="M450.142 87.4538L278.284 1.56108C274.626 -0.268974 271.315 -0.43709 268.921 0.773342L259.352 5.57665C256.949 6.76787 255.459 9.33283 255.459 12.9929V117.806C255.459 125.097 261.375 133.969 268.671 137.615L440.53 223.507C444.096 225.285 447.326 225.491 449.7 224.386L449.787 224.348L449.96 224.261L459.303 219.593C461.797 218.435 463.359 215.841 463.359 212.099V107.263C463.359 99.9664 457.443 91.0995 450.142 87.4538Z" fill="url(#paint4_linear_11133_2155)"/>
<path d="M255.468 117.806V12.9689C255.468 5.67272 261.385 2.71868 268.681 6.36439L440.529 92.2571C447.83 95.9028 453.747 104.774 453.747 112.066V216.903C453.747 224.199 447.83 227.153 440.529 223.507L268.671 137.615C261.385 133.969 255.468 125.097 255.468 117.806Z" fill="url(#paint5_linear_11133_2155)"/>
<path style="mix-blend-mode:hard-light" d="M236.243 127.412V22.5755C236.243 15.2841 242.16 12.3301 249.456 15.9758L421.304 101.864C428.605 105.514 434.522 114.381 434.522 121.672V226.514C434.522 233.806 428.605 236.76 421.304 233.114L249.446 147.221C242.16 143.576 236.243 134.709 236.243 127.412Z" fill="url(#paint6_linear_11133_2155)"/>
<path d="M430.917 97.0604L259.059 11.1725C255.401 9.34243 252.09 9.17432 249.696 10.3799L240.127 15.1833C242.53 14.0016 245.808 14.1746 249.446 15.995L421.304 101.864C428.605 105.514 434.522 114.381 434.522 121.672V226.514C434.522 230.117 433.08 232.658 430.734 233.868L440.078 229.199C442.572 228.042 444.134 225.448 444.134 221.706V116.869C444.134 109.578 438.218 100.706 430.917 97.0604Z" fill="url(#paint7_linear_11133_2155)"/>
<g style="mix-blend-mode:multiply">
<path opacity="0.05" d="M352.3 195.797C352.346 195.816 352.389 195.838 352.43 195.864C358.871 199.082 364.095 196.474 364.095 190.038C364.095 183.601 358.871 175.772 352.43 172.549C352.051 172.362 351.676 172.194 351.301 172.045C351.994 170.289 352.333 168.413 352.3 166.526C352.3 156.227 343.952 143.705 333.647 138.556C323.343 133.407 314.989 137.595 314.989 147.879C314.989 148.403 315.018 148.936 315.061 149.469C313.914 148.578 312.684 147.798 311.389 147.14C303.594 143.244 297.278 146.4 297.278 154.191C297.278 161.982 303.613 171.478 311.409 175.349L352.3 195.797Z" fill="#A7B1F2"/>
<path opacity="0.1" d="M352.3 193.511C352.344 193.511 352.387 193.554 352.43 193.573C358.871 196.796 364.095 194.188 364.095 187.752C364.095 181.315 358.871 173.481 352.43 170.263C352.051 170.075 351.676 169.907 351.301 169.754C351.994 167.999 352.334 166.125 352.3 164.239C352.3 153.941 343.952 141.419 333.647 136.27C323.343 131.121 314.989 135.309 314.989 145.593C314.989 146.116 315.018 146.65 315.061 147.183C313.914 146.292 312.684 145.512 311.389 144.853C303.594 140.958 297.278 144.114 297.278 151.904C297.278 159.695 303.594 169.168 311.389 173.063L352.3 193.511Z" fill="#A7B1F2"/>
<path opacity="0.14" d="M352.3 191.224C352.344 191.224 352.387 191.268 352.43 191.287C358.871 194.505 364.095 191.897 364.095 185.46C364.095 179.024 358.871 171.195 352.43 167.976C352.051 167.784 351.676 167.621 351.301 167.467C351.993 165.713 352.333 163.839 352.3 161.953C352.3 151.655 343.952 139.132 333.647 133.983C323.343 128.834 314.989 133.023 314.989 143.302C314.989 143.83 315.018 144.363 315.061 144.896C313.915 144.004 312.685 143.224 311.389 142.567C303.594 138.671 297.278 141.827 297.278 149.618C297.278 157.409 303.594 166.881 311.389 170.777L352.3 191.224Z" fill="#A7B1F2"/>
<path opacity="0.19" d="M352.3 188.938C352.344 188.938 352.387 188.981 352.43 189C358.871 192.219 364.095 189.61 364.095 183.174C364.095 176.738 358.871 168.908 352.43 165.69C352.051 165.498 351.676 165.33 351.301 165.181C351.993 163.426 352.333 161.552 352.3 159.667C352.3 149.368 343.952 136.846 333.647 131.697C323.343 126.548 314.989 130.736 314.989 141.015C314.989 141.539 315.018 142.077 315.061 142.61C313.915 141.718 312.685 140.938 311.389 140.28C303.594 136.38 297.278 139.536 297.278 147.332C297.278 155.127 303.594 164.595 311.389 168.466L352.3 188.938Z" fill="#A7B1F2"/>
<path opacity="0.24" d="M352.3 186.647L352.43 186.714C358.871 189.932 364.095 187.324 364.095 180.888C364.095 174.451 358.871 166.622 352.43 163.404C352.051 163.211 351.676 163.043 351.301 162.894C351.993 161.14 352.333 159.266 352.3 157.38C352.3 147.077 343.952 134.56 333.647 129.406C323.343 124.252 314.989 128.445 314.989 138.729C314.989 139.253 315.018 139.786 315.061 140.324C313.915 139.43 312.685 138.648 311.389 137.989C303.594 134.094 297.278 137.25 297.278 145.041C297.278 152.832 303.613 162.304 311.409 166.194L352.3 186.647Z" fill="#A7B1F2"/>
<path opacity="0.29" d="M352.3 184.36L352.43 184.428C358.871 187.646 364.095 185.038 364.095 178.601C364.095 172.165 358.871 164.335 352.43 161.112C352.051 160.925 351.676 160.757 351.301 160.608C351.994 158.852 352.333 156.976 352.3 155.089C352.3 144.791 343.952 132.269 333.647 127.119C323.343 121.97 314.989 126.159 314.989 136.443C314.989 136.966 315.018 137.499 315.061 138.033C313.914 137.142 312.684 136.362 311.389 135.703C303.594 131.807 297.278 134.963 297.278 142.754C297.278 150.545 303.594 160.017 311.389 163.913L352.3 184.36Z" fill="#A7B1F2"/>
<path opacity="0.33" d="M352.3 182.074C352.344 182.074 352.387 182.117 352.43 182.136C358.871 185.36 364.095 182.751 364.095 176.315C364.095 169.878 358.871 162.044 352.43 158.826C352.051 158.639 351.676 158.471 351.301 158.317C351.994 156.563 352.334 154.689 352.3 152.803C352.3 142.504 343.952 129.982 333.647 124.833C323.343 119.684 314.989 123.872 314.989 134.156C314.989 134.68 315.018 135.213 315.061 135.746C313.914 134.855 312.684 134.075 311.389 133.417C303.594 129.521 297.278 132.677 297.278 140.468C297.278 148.259 303.594 157.731 311.389 161.626L352.3 182.074Z" fill="#A7B1F2"/>
<path opacity="0.38" d="M352.3 179.788C352.344 179.788 352.387 179.831 352.43 179.85C358.871 183.068 364.095 180.46 364.095 174.024C364.095 167.587 358.871 159.758 352.43 156.54C352.051 156.348 351.676 156.184 351.301 156.031C351.993 154.276 352.333 152.402 352.3 150.516C352.3 140.218 343.952 127.696 333.647 122.547C323.343 117.398 314.989 121.586 314.989 131.865C314.989 132.393 315.018 132.927 315.061 133.46C313.914 132.569 312.684 131.789 311.389 131.13C303.594 127.235 297.278 130.39 297.278 138.181C297.278 145.972 303.594 155.445 311.389 159.34L352.3 179.788Z" fill="#A7B1F2"/>
<path opacity="0.43" d="M352.3 177.501C352.344 177.501 352.387 177.545 352.43 177.564C358.871 180.782 364.095 178.174 364.095 171.737C364.095 165.301 358.871 157.472 352.43 154.253C352.051 154.061 351.676 153.898 351.301 153.744C351.993 151.99 352.333 150.116 352.3 148.23C352.3 137.932 343.952 125.409 333.647 120.26C323.343 115.111 314.989 119.3 314.989 129.579C314.989 130.107 315.018 130.64 315.061 131.173C313.915 130.281 312.685 129.501 311.389 128.844C303.594 124.948 297.278 128.104 297.278 135.895C297.278 143.686 303.613 153.158 311.409 157.068L352.3 177.501Z" fill="#A7B1F2"/>
<path opacity="0.48" d="M352.3 175.21L352.43 175.277C358.871 178.496 364.095 175.887 364.095 169.451C364.095 163.014 358.871 155.185 352.43 151.967C352.051 151.775 351.676 151.607 351.301 151.458C351.993 149.703 352.333 147.829 352.3 145.944C352.3 135.645 343.952 123.123 333.647 117.969C323.343 112.815 314.989 117.008 314.989 127.292C314.989 127.816 315.018 128.354 315.061 128.887C313.914 127.995 312.684 127.213 311.389 126.553C303.594 122.657 297.278 125.813 297.278 133.609C297.278 141.404 303.594 150.867 311.389 154.743L352.3 175.21Z" fill="#A7B1F2"/>
<path opacity="0.52" d="M352.3 172.919L352.43 172.986C358.871 176.204 364.095 173.596 364.095 167.16C364.095 160.723 358.871 152.894 352.43 149.671C352.051 149.484 351.676 149.315 351.301 149.167C351.993 147.412 352.333 145.538 352.3 143.652C352.3 133.354 343.952 120.832 333.647 115.683C323.343 110.534 314.989 114.722 314.989 125.006C314.989 125.53 315.018 126.063 315.061 126.596C313.914 125.705 312.684 124.925 311.389 124.266C303.594 120.371 297.278 123.527 297.278 131.318C297.278 139.108 303.594 148.581 311.389 152.476L352.3 172.919Z" fill="#A7B1F2"/>
<path opacity="0.57" d="M352.3 170.637C352.344 170.637 352.387 170.681 352.43 170.7C358.871 173.923 364.095 171.315 364.095 164.878C364.095 158.442 358.871 150.608 352.43 147.389C352.051 147.202 351.676 147.034 351.301 146.885C351.994 145.129 352.333 143.253 352.3 141.366C352.3 131.068 343.952 118.546 333.647 113.396C323.343 108.247 314.989 112.436 314.989 122.72C314.989 123.243 315.018 123.776 315.061 124.309C313.914 123.419 312.684 122.639 311.389 121.98C303.594 118.084 297.278 121.24 297.278 129.031C297.278 136.822 303.594 146.294 311.389 150.19L352.3 170.637Z" fill="#A7B1F2"/>
<path opacity="0.62" d="M352.3 168.351C352.344 168.351 352.387 168.394 352.43 168.413C358.871 171.632 364.095 169.023 364.095 162.587C364.095 156.151 358.871 148.321 352.43 145.103C352.051 144.911 351.676 144.748 351.301 144.594C351.993 142.839 352.333 140.965 352.3 139.08C352.3 128.781 343.952 116.259 333.647 111.11C323.343 105.961 314.989 110.149 314.989 120.433C314.989 120.957 315.018 121.49 315.061 122.023C313.914 121.132 312.684 120.352 311.389 119.694C303.594 115.798 297.278 118.954 297.278 126.745C297.278 134.536 303.594 144.008 311.389 147.903L352.3 168.351Z" fill="#A7B1F2"/>
<path opacity="0.67" d="M352.3 166.065C352.344 166.065 352.387 166.108 352.43 166.127C358.871 169.345 364.095 166.737 364.095 160.301C364.095 153.864 358.871 146.035 352.43 142.817C352.051 142.624 351.676 142.461 351.301 142.307C351.993 140.553 352.333 138.679 352.3 136.793C352.3 126.495 343.952 113.973 333.647 108.824C323.343 103.674 314.989 107.863 314.989 118.142C314.989 118.67 315.018 119.204 315.061 119.737C313.915 118.844 312.685 118.064 311.389 117.407C303.594 113.512 297.278 116.667 297.278 124.458C297.278 132.249 303.594 141.721 311.389 145.617L352.3 166.065Z" fill="#A7B1F2"/>
<path opacity="0.71" d="M352.3 163.793L352.43 163.86C358.871 167.078 364.095 164.47 364.095 158.033C364.095 151.597 358.871 143.768 352.43 140.549C352.051 140.357 351.676 140.189 351.301 140.04C351.998 138.275 352.337 136.39 352.3 134.492C352.3 124.194 343.952 111.672 333.647 106.523C323.343 101.374 314.989 105.562 314.989 115.841C314.989 116.365 315.018 116.903 315.061 117.436C313.914 116.544 312.684 115.762 311.389 115.102C303.594 111.206 297.278 114.362 297.278 122.158C297.278 129.953 303.594 139.416 311.389 143.292L352.3 163.793Z" fill="#A7B1F2"/>
<path opacity="0.76" d="M352.3 161.487L352.43 161.554C358.871 164.773 364.095 162.164 364.095 155.728C364.095 149.291 358.871 141.462 352.43 138.244C352.051 138.052 351.676 137.884 351.301 137.735C351.994 135.979 352.333 134.103 352.3 132.216C352.3 121.917 343.952 109.395 333.647 104.246C323.343 99.097 314.989 103.285 314.989 113.569C314.989 114.093 315.018 114.626 315.061 115.159C313.914 114.269 312.684 113.488 311.389 112.83C303.594 108.934 297.278 112.09 297.278 119.881C297.278 127.672 303.594 137.144 311.389 141.015L352.3 161.487Z" fill="#A7B1F2"/>
<path opacity="0.81" d="M352.3 159.201C352.346 159.219 352.389 159.242 352.43 159.268C358.871 162.486 364.095 159.878 364.095 153.442C364.095 147.005 358.871 139.176 352.43 135.953C352.051 135.765 351.676 135.597 351.301 135.448C351.994 133.692 352.333 131.817 352.3 129.929C352.3 119.631 343.952 107.109 333.647 101.96C323.343 96.8106 314.989 100.999 314.989 111.283C314.989 111.806 315.018 112.34 315.061 112.873C313.914 111.982 312.684 111.202 311.389 110.543C303.594 106.648 297.278 109.804 297.278 117.594C297.278 125.385 303.594 134.858 311.389 138.753L352.3 159.201Z" fill="#A7B1F2"/>
<path opacity="0.86" d="M352.3 156.914C352.344 156.914 352.387 156.958 352.43 156.977C358.871 160.2 364.095 157.592 364.095 151.15C364.095 144.709 358.871 136.885 352.43 133.666C352.051 133.479 351.676 133.311 351.301 133.157C351.994 131.403 352.333 129.529 352.3 127.643C352.3 117.345 343.952 104.822 333.647 99.6733C323.343 94.5242 314.989 98.7127 314.989 108.997C314.989 109.52 315.018 110.053 315.061 110.586C313.914 109.696 312.684 108.916 311.389 108.257C303.594 104.361 297.278 107.517 297.278 115.308C297.278 123.099 303.613 132.571 311.409 136.467L352.3 156.914Z" fill="#A7B1F2"/>
<path opacity="0.9" d="M352.3 154.628C352.344 154.628 352.387 154.671 352.43 154.69C358.871 157.909 364.095 155.3 364.095 148.864C364.095 142.428 358.871 134.598 352.43 131.38C352.051 131.188 351.676 131.024 351.301 130.871C351.992 129.119 352.332 127.249 352.3 125.366C352.3 115.068 343.952 102.546 333.647 97.3966C323.343 92.2474 314.989 96.4359 314.989 106.715C314.989 107.243 315.018 107.777 315.061 108.31C313.915 107.417 312.685 106.637 311.389 105.98C303.594 102.085 297.278 105.24 297.278 113.031C297.278 120.822 303.594 130.294 311.389 134.19L352.3 154.628Z" fill="#A7B1F2"/>
<path opacity="0.95" d="M352.3 152.342C352.344 152.342 352.387 152.385 352.43 152.404C358.871 155.622 364.095 153.014 364.095 146.578C364.095 140.141 358.871 132.312 352.43 129.094C352.051 128.901 351.676 128.733 351.301 128.584C351.993 126.83 352.333 124.956 352.3 123.07C352.3 112.772 343.952 100.25 333.647 95.1006C323.343 89.9515 314.989 94.14 314.989 104.419C314.989 104.943 315.018 105.481 315.061 106.014C313.914 105.122 312.684 104.34 311.389 103.679C303.594 99.7838 297.278 102.94 297.278 110.735C297.278 118.531 303.594 127.994 311.389 131.87L352.3 152.342Z" fill="#A7B1F2"/>
<path d="M352.3 150.05L352.43 150.118C358.871 153.336 364.095 150.728 364.095 144.291C364.095 137.855 358.871 130.025 352.43 126.807C352.051 126.615 351.676 126.447 351.301 126.298C351.993 124.543 352.333 122.67 352.3 120.784C352.3 110.481 343.952 97.9634 333.647 92.8094C323.343 87.6555 314.989 91.8488 314.989 102.133C314.989 102.656 315.018 103.189 315.061 103.727C313.915 102.833 312.685 102.052 311.389 101.393C303.594 97.4974 297.278 100.653 297.278 108.444C297.278 116.235 303.594 125.707 311.389 129.579L352.3 150.05Z" fill="#A7B1F2"/>
</g>
<path d="M364.114 144.291C364.114 137.855 358.89 130.025 352.449 126.807C352.07 126.615 351.695 126.447 351.32 126.298C352.006 124.542 352.339 122.668 352.3 120.784C352.3 110.481 343.952 97.9633 333.647 92.8094C329.057 90.5182 324.857 90.0763 321.603 91.2002H321.54C320.962 91.4014 320.405 91.6589 319.877 91.9688L301.916 100.283C301.718 100.365 301.524 100.456 301.335 100.557H301.301L301.2 100.615L291.828 105.288C289.256 106.556 287.666 109.299 287.666 113.214C287.666 121 293.981 130.472 301.777 134.348L342.688 154.858C342.731 154.858 342.774 154.902 342.818 154.921C345.99 156.506 348.859 156.674 350.988 155.675H351.032L351.147 155.617L360.913 150.728C362.874 149.613 364.114 147.399 364.114 144.291Z" fill="url(#paint8_linear_11133_2155)"/>
<path d="M342.688 154.858C342.731 154.858 342.774 154.902 342.818 154.921C349.258 158.139 354.483 155.531 354.483 149.095C354.483 142.658 349.258 134.829 342.818 131.611C342.438 131.418 342.063 131.25 341.688 131.101C342.381 129.347 342.72 127.473 342.688 125.587C342.688 115.289 334.339 102.767 324.035 97.6175C313.73 92.4684 305.377 96.6569 305.377 106.936C305.377 107.459 305.406 107.997 305.449 108.531C304.301 107.638 303.072 106.857 301.777 106.196C293.981 102.301 287.666 105.457 287.666 113.252C287.666 121.048 293.981 130.511 301.777 134.387L342.688 154.858Z" fill="url(#paint9_linear_11133_2155)"/>
<path d="M426.269 126.053L377.884 101.873V98.9913L426.269 123.171V126.053Z" fill="#6B92FF"/>
<path d="M426.269 139.233L377.884 115.054V112.172L426.269 136.351V139.233Z" fill="#6B92FF"/>
<path d="M426.269 152.414L377.884 128.229V125.347L426.269 149.532V152.414Z" fill="#6B92FF"/>
<path d="M372.487 97.7328L367.123 89.6873L361.754 92.3723L367.123 100.418L372.487 97.7328Z" fill="white"/>
<path d="M361.754 105.548L367.123 113.593L372.487 110.913L367.123 102.868L361.754 105.548Z" fill="white"/>
<path d="M361.754 118.728L367.123 126.774L372.487 124.093L367.123 116.043L361.754 118.728Z" fill="white"/>
<path d="M272.603 84.1106C260.813 78.2218 251.224 63.8407 251.224 52.0582C251.224 40.2757 260.813 35.4868 272.603 41.3805C284.393 47.2741 293.981 61.6504 293.981 73.4329C293.981 85.2154 284.393 90.0043 272.603 84.1106ZM272.603 44.2432C262.404 39.1469 254.108 43.2826 254.108 53.48C254.108 63.6774 262.423 76.1324 272.603 81.2287C282.782 86.325 291.097 82.1893 291.097 71.9871C291.097 61.7849 282.802 49.3587 272.603 44.2624V44.2432Z" fill="url(#paint10_linear_11133_2155)"/>
<path d="M272.603 86.9926C259.222 80.3064 248.336 63.9896 248.336 50.6172C248.336 37.2448 259.222 31.8075 272.603 38.4937V47.1396C263.995 42.8167 256.992 46.3375 256.992 54.9402C256.992 63.5429 263.995 74.0381 272.603 78.3419C281.211 82.6456 288.213 79.144 288.213 70.5413L296.865 74.8643C296.865 88.2415 285.974 93.6644 272.603 86.9926Z" fill="#6B92FF"/>
<path d="M261.318 57.1065L244.015 48.4605C244.015 32.7057 256.843 26.2981 272.607 34.1755V51.4674C266.379 48.3597 261.318 50.8862 261.318 57.1065Z" fill="#3176FF"/>
<path d="M231 339C231 337.287 229.797 335.573 227.392 334.269L168.904 306C164.096 303.384 156.299 303.384 151.5 306L3.60828 368.071C1.20276 369.379 -1.52588e-05 371.093 -1.52588e-05 372.803V619H232L231 339Z" fill="url(#paint11_linear_11133_2155)"/>
<path d="M221.089 352.884L111.155 407.839C97.7551 414.535 76.0355 414.535 62.6404 407.839L10.0452 381.555C-3.36435 374.859 -3.36435 364.004 10.0452 357.308L120.003 302.354C133.399 295.658 155.118 295.658 168.513 302.354L221.089 328.637C234.504 335.333 234.504 346.188 221.089 352.884Z" fill="url(#paint12_linear_11133_2155)"/>
<g style="mix-blend-mode:multiply">
<path opacity="0.05" d="M161.208 338.835L47.7359 395.408C44.607 396.974 39.5364 396.974 36.4075 395.408L18.6243 386.531C15.4954 384.966 15.4954 382.429 18.6243 380.868L132.11 324.29C135.239 322.729 140.315 322.729 143.444 324.29L161.227 333.172C164.336 334.733 164.336 337.269 161.208 338.835Z" fill="#B4C1F3"/>
<path opacity="0.1" d="M162.38 338.258L48.9087 394.832C45.7798 396.393 40.7044 396.393 37.5755 394.832L19.7922 385.95C16.6633 384.389 16.6633 381.853 19.7922 380.287L133.283 323.743C136.412 322.177 141.487 322.177 144.616 323.743L162.4 332.619C165.509 334.161 165.509 336.712 162.38 338.258Z" fill="#B4C1F3"/>
<path opacity="0.14" d="M163.553 337.672L50.0816 394.26C46.9527 395.826 41.8772 395.826 38.7483 394.26L20.9651 385.383C17.8362 383.818 17.8362 381.281 20.9651 379.72L134.456 323.142C137.585 321.581 142.655 321.581 145.789 323.142L163.572 332.024C166.682 333.585 166.682 336.121 163.553 337.672Z" fill="#B4C1F3"/>
<path opacity="0.19" d="M164.721 337.11L51.2542 393.688C48.1253 395.249 43.0498 395.249 39.9209 393.688L22.1377 384.807C19.0088 383.246 19.0088 380.71 22.1377 379.144L135.629 322.571C138.757 321.005 143.828 321.005 146.957 322.571L164.74 331.447C167.855 333.013 167.855 335.549 164.721 337.11Z" fill="#B4C1F3"/>
<path opacity="0.24" d="M165.894 336.539L52.427 393.112C49.2981 394.678 44.2227 394.678 41.0938 393.112L23.3105 384.235C20.1816 382.67 20.1816 380.133 23.3105 378.568L136.801 321.994C139.93 320.428 145.001 320.428 148.13 321.994L165.913 330.871C169.023 332.437 169.023 334.973 165.894 336.539Z" fill="#B4C1F3"/>
<path opacity="0.29" d="M167.066 335.962L53.5996 392.536C50.4707 394.101 45.3953 394.101 42.2664 392.536L24.512 383.659C21.3831 382.093 21.3831 379.557 24.512 377.996L137.969 321.418C141.103 319.857 146.173 319.857 149.302 321.418L167.086 330.299C170.195 331.86 170.195 334.396 167.066 335.962Z" fill="#B4C1F3"/>
<path opacity="0.33" d="M168.22 335.386L54.7915 391.95C51.6626 393.511 46.5872 393.511 43.4583 391.95L25.675 383.068C22.5461 381.507 22.5461 378.971 25.675 377.405L139.142 320.861C142.271 319.295 147.346 319.295 150.475 320.861L168.258 329.737C171.368 331.289 171.368 333.83 168.22 335.386Z" fill="#B4C1F3"/>
<path opacity="0.38" d="M169.412 334.814L55.9451 391.388C52.8162 392.953 47.7408 392.953 44.6119 391.388L26.8286 382.511C23.6997 380.945 23.6997 378.409 26.8286 376.848L140.315 320.27C143.444 318.709 148.519 318.709 151.648 320.27L169.431 329.151C172.546 330.712 172.546 333.248 169.412 334.814Z" fill="#B4C1F3"/>
<path opacity="0.43" d="M170.585 334.238L57.1179 390.816C53.9842 392.377 48.9136 392.377 45.7847 390.816L28.0015 381.935C24.8726 380.374 24.8726 377.837 28.0015 376.272L141.487 319.698C144.616 318.132 149.692 318.132 152.821 319.698L170.604 328.575C173.714 330.141 173.714 332.677 170.585 334.238Z" fill="#B4C1F3"/>
<path opacity="0.48" d="M171.757 333.666L58.2858 390.24C55.1569 391.805 50.0863 391.805 46.9574 390.24L29.1933 381.382C26.0645 379.816 26.0645 377.28 29.1933 375.714L142.66 319.122C145.789 317.556 150.864 317.556 153.993 319.122L171.777 327.998C174.886 329.564 174.886 332.1 171.757 333.666Z" fill="#B4C1F3"/>
<path opacity="0.52" d="M172.93 333.09L59.4585 389.663C56.3296 391.229 51.259 391.229 48.1301 389.663L30.3469 380.787C27.2132 379.221 27.2132 376.685 30.3469 375.124L143.833 318.545C146.962 316.984 152.037 316.984 155.166 318.545L172.949 327.427C176.059 328.988 176.059 331.524 172.93 333.09Z" fill="#B4C1F3"/>
<path opacity="0.57" d="M174.103 332.513L60.6312 389.092C57.5023 390.653 52.4317 390.653 49.3028 389.092L31.5195 380.21C28.3906 378.649 28.3906 376.113 31.5195 374.547L145.006 317.979C148.134 316.413 153.21 316.413 156.339 317.979L174.122 326.855C177.232 328.416 177.232 330.948 174.103 332.513Z" fill="#B4C1F3"/>
<path opacity="0.62" d="M175.276 331.942L61.804 388.515C58.6751 390.081 53.6044 390.081 50.4707 388.515L32.6875 379.639C29.5586 378.073 29.5586 375.537 32.6875 373.976L146.178 317.397C149.307 315.836 154.383 315.836 157.512 317.397L175.295 326.279C178.404 327.84 178.404 330.376 175.276 331.942Z" fill="#B4C1F3"/>
<path opacity="0.67" d="M176.448 331.365L62.9624 387.944C59.8335 389.505 54.7581 389.505 51.6292 387.944L33.8459 379.062C30.717 377.501 30.717 374.965 33.8459 373.399L147.351 316.826C150.48 315.26 155.551 315.26 158.684 316.826L176.468 325.702C179.577 327.268 179.577 329.804 176.448 331.365Z" fill="#B4C1F3"/>
<path opacity="0.71" d="M177.621 330.794L64.1495 387.367C61.0206 388.933 55.9452 388.933 52.8163 387.367L35.0522 378.5C31.9233 376.934 31.9233 374.398 35.0522 372.832L148.514 316.25C151.643 314.684 156.714 314.684 159.843 316.25L177.626 325.126C180.75 326.692 180.75 329.228 177.621 330.794Z" fill="#B4C1F3"/>
<path opacity="0.76" d="M178.794 330.217L65.3223 386.791C62.1934 388.357 57.118 388.357 53.9891 386.791L36.2058 377.914C33.0769 376.348 33.0769 373.812 36.2058 372.251L149.697 315.673C152.84 314.136 157.896 314.136 161.011 315.673L178.794 324.554C181.923 326.144 181.923 328.652 178.794 330.217Z" fill="#B4C1F3"/>
<path opacity="0.81" d="M179.962 329.641L66.4949 386.219C63.366 387.78 58.2906 387.78 55.1617 386.219L37.3784 377.338C34.2495 375.777 34.2495 373.241 37.3784 371.675L150.864 315.097C153.998 313.531 159.069 313.531 162.198 315.097L179.981 323.973C183.091 325.544 183.091 328.066 179.962 329.641Z" fill="#B4C1F3"/>
<path opacity="0.86" d="M181.135 329.07L67.6677 385.643C64.5388 387.209 59.4634 387.209 56.3345 385.643L38.5513 376.766C35.4224 375.2 35.4224 372.664 38.5513 371.103L152.037 314.525C155.166 312.964 160.242 312.964 163.371 314.525L181.154 323.406C184.263 324.967 184.263 327.504 181.135 329.07Z" fill="#B4C1F3"/>
<path opacity="0.9" d="M182.307 328.493L68.8403 385.071C65.7115 386.632 60.636 386.632 57.5071 385.071L39.7239 376.19C36.595 374.629 36.595 372.093 39.7239 370.527L153.21 313.954C156.339 312.388 161.414 312.388 164.543 313.954L182.326 322.83C185.436 324.396 185.436 326.932 182.307 328.493Z" fill="#B4C1F3"/>
<path opacity="0.95" d="M183.48 327.922L70.013 384.495C66.8841 386.061 61.8087 386.061 58.6798 384.495L40.9158 375.618C37.7869 374.052 37.7869 371.516 40.9158 369.95L154.383 313.377C157.511 311.811 162.587 311.811 165.716 313.377L183.499 322.258C186.609 323.819 186.609 326.356 183.48 327.922Z" fill="#B4C1F3"/>
<path d="M184.653 327.345L71.1858 383.918C68.0521 385.484 62.9815 385.484 59.8526 383.918L42.0693 375.042C38.9404 373.476 38.9404 370.945 42.0693 369.379L155.555 312.801C158.684 311.24 163.76 311.24 166.889 312.801L184.672 321.682C187.782 323.262 187.782 325.779 184.653 327.345Z" fill="#B4C1F3"/>
</g>
<path d="M175.309 117.849L165.879 113.137L165.73 113.06C163.327 111.907 160.064 112.099 156.464 113.896L51.5618 166.329C44.2611 169.974 38.3494 178.841 38.3494 186.138V357.88C38.3494 361.42 39.7432 363.937 42.0166 365.171C42.1511 365.248 42.2857 365.31 42.4203 365.373L51.6147 369.97C54.0179 371.286 57.4111 371.166 61.1744 369.283L166.076 316.855C173.372 313.209 179.274 304.337 179.274 297.046V125.304C179.274 121.6 177.765 119.021 175.309 117.849Z" fill="url(#paint13_linear_11133_2155)"/>
<path d="M166.076 316.855L61.1744 369.288C53.8736 372.933 47.9619 369.979 47.9619 362.683V190.941C47.9619 183.649 53.8736 174.778 61.1744 171.132L166.076 118.699C173.372 115.054 179.289 118.008 179.289 125.304V297.046C179.274 304.337 173.372 313.209 166.076 316.855Z" fill="url(#paint14_linear_11133_2155)"/>
<path style="mix-blend-mode:hard-light" d="M185.302 326.461L80.3995 378.894C73.0987 382.54 67.187 379.586 67.187 372.294V200.548C67.187 193.256 73.0987 184.389 80.3995 180.739L185.302 128.311C192.597 124.66 198.514 127.619 198.514 134.91V306.652C198.5 313.949 192.597 322.816 185.302 326.461Z" fill="url(#paint15_linear_11133_2155)"/>
<path d="M194.534 127.456L185.104 122.744L184.955 122.667C182.552 121.514 179.289 121.706 175.689 123.507L70.7869 175.935C63.4862 179.581 57.5745 188.453 57.5745 195.744V367.486C57.5745 371.031 58.9683 373.543 61.2417 374.783L61.6454 374.984L70.8398 379.581C68.5761 378.342 67.187 375.83 67.187 372.294V200.548C67.187 193.256 73.0988 184.389 80.3995 180.739L185.302 128.311C188.887 126.514 192.15 126.327 194.534 127.456Z" fill="url(#paint16_linear_11133_2155)"/>
<g style="mix-blend-mode:multiply">
<path opacity="0.05" d="M105.767 240.545C105.666 240.463 102.148 246.568 102.081 246.683L87.3686 273.222C86.3112 275.143 87.2965 276.627 89.0316 275.762L95.4864 272.535V302.07C95.4864 303.228 96.4477 303.694 97.582 303.117L113.558 295.129C114.144 294.824 114.643 294.376 115.01 293.827C115.377 293.278 115.6 292.646 115.658 291.988V262.453L122.108 259.229C123.848 258.36 124.829 255.867 123.771 255.027L105.767 240.545Z" fill="#A7B1F2"/>
<path opacity="0.1" d="M105.964 239.056C105.758 238.892 102.254 244.723 102.119 244.954L87.3591 271.574C86.3017 273.495 87.287 274.984 89.0221 274.115L95.4865 270.906V300.437C95.4865 301.595 96.4478 302.065 97.5821 301.484L113.558 293.482C114.143 293.175 114.642 292.726 115.009 292.176C115.376 291.626 115.599 290.994 115.659 290.336V260.819L122.109 257.592C123.848 256.722 124.829 254.229 123.772 253.389L105.964 239.056Z" fill="#A7B1F2"/>
<path opacity="0.14" d="M106.161 237.595C105.854 237.346 102.364 242.903 102.172 243.249L87.3686 269.946C86.3112 271.867 87.2965 273.351 89.0316 272.482L95.4864 269.259V298.789C95.4864 299.947 96.4477 300.418 97.582 299.837L113.558 291.854C114.143 291.546 114.642 291.097 115.009 290.548C115.376 289.998 115.599 289.365 115.658 288.707V259.186L122.108 255.963C123.848 255.094 124.829 252.601 123.771 251.76L106.161 237.595Z" fill="#A7B1F2"/>
<path opacity="0.19" d="M106.358 236.13C105.945 235.799 102.475 241.083 102.22 241.544L87.3686 268.332C86.3112 270.253 87.2965 271.737 89.0316 270.873L95.4864 267.645V297.18C95.4864 298.338 96.4477 298.804 97.582 298.228L113.558 290.24C114.144 289.934 114.643 289.486 115.01 288.937C115.377 288.388 115.6 287.756 115.658 287.098V257.563L122.108 254.34C123.848 253.47 124.829 250.977 123.771 250.137L106.358 236.13Z" fill="#A7B1F2"/>
<path opacity="0.24" d="M106.555 234.67C106.041 234.257 102.585 239.262 102.268 239.839L87.3686 266.713C86.3112 268.634 87.2965 270.119 89.0316 269.249L95.4864 266.026V295.557C95.4864 296.714 96.4477 297.185 97.582 296.609L113.558 288.621C114.144 288.314 114.643 287.865 115.01 287.315C115.377 286.766 115.6 286.133 115.658 285.475V255.944L122.108 252.721C123.848 251.852 124.829 249.359 123.771 248.518L106.555 234.67Z" fill="#A7B1F2"/>
<path opacity="0.29" d="M106.748 233.205C106.132 232.725 102.696 237.447 102.311 238.138L87.3686 265.094C86.3112 267.016 87.2965 268.5 89.0316 267.63L95.4864 264.407V293.962C95.4864 295.12 96.4477 295.586 97.582 295.009L113.558 287.021C114.144 286.715 114.643 286.266 115.01 285.716C115.377 285.166 115.6 284.533 115.658 283.875V254.325L122.108 251.102C123.848 250.233 124.829 247.74 123.771 246.899L106.748 233.205Z" fill="#A7B1F2"/>
<path opacity="0.33" d="M106.945 231.75C106.228 231.173 102.806 235.631 102.359 236.438L87.3686 263.476C86.3112 265.397 87.2965 266.886 89.0316 266.017L95.4864 262.794V292.324C95.4864 293.482 96.4477 293.953 97.582 293.371L113.558 285.383C114.144 285.078 114.643 284.63 115.01 284.081C115.377 283.532 115.6 282.9 115.658 282.242V252.707L122.108 249.484C123.848 248.614 124.829 246.121 123.771 245.281L106.945 231.75Z" fill="#A7B1F2"/>
<path opacity="0.38" d="M107.142 230.29C106.32 229.632 102.917 233.82 102.403 234.737L87.3686 261.862C86.3112 263.783 87.2965 265.267 89.0316 264.403L95.4864 261.175V290.71C95.4864 291.868 96.4477 292.334 97.582 291.757L113.558 283.77C114.144 283.464 114.643 283.016 115.01 282.467C115.377 281.918 115.6 281.286 115.658 280.628V251.093L122.108 247.85C123.848 246.981 124.829 244.488 123.771 243.648L107.142 230.29Z" fill="#A7B1F2"/>
<path opacity="0.43" d="M107.339 228.834C106.416 228.094 103.013 232.004 102.451 233.042L87.3686 260.248C86.3112 262.169 87.2965 263.658 89.0316 262.789L95.4864 259.561V289.096C95.4864 290.254 96.4477 290.72 97.582 290.144L113.558 282.156C114.144 281.85 114.643 281.402 115.01 280.853C115.377 280.304 115.6 279.672 115.658 279.014V249.479L122.108 246.256C123.848 245.386 124.829 242.893 123.771 242.053L107.339 228.834Z" fill="#A7B1F2"/>
<path opacity="0.48" d="M107.536 227.384C106.507 226.557 103.133 230.198 102.499 231.346L87.3686 258.639C86.3112 260.56 87.2965 262.044 89.0316 261.175L95.4864 257.937V287.468C95.4864 288.626 96.4477 289.096 97.582 288.52L113.558 280.532C114.143 280.225 114.642 279.776 115.009 279.226C115.376 278.677 115.599 278.044 115.658 277.386V247.85L122.108 244.627C123.848 243.758 124.829 241.265 123.771 240.425L107.536 227.384Z" fill="#A7B1F2"/>
<path opacity="0.52" d="M107.733 225.933C106.603 225.025 103.244 228.392 102.542 229.656L87.3686 257.034C86.3112 258.956 87.2965 260.44 89.0316 259.575L95.4864 256.347V285.883C95.4864 287.041 96.4477 287.507 97.582 286.93L113.558 278.942C114.144 278.636 114.643 278.189 115.01 277.64C115.377 277.091 115.6 276.458 115.658 275.801V246.261L122.108 243.047C123.848 242.178 124.829 239.685 123.771 238.844L107.733 225.933Z" fill="#A7B1F2"/>
<path opacity="0.57" d="M107.93 224.487C106.7 223.498 103.354 226.586 102.59 227.97L87.3686 255.425C86.3112 257.347 87.2965 258.831 89.0316 257.961L95.4864 254.738V284.269C95.4864 285.427 96.4477 285.897 97.582 285.321L113.558 277.333C114.143 277.026 114.642 276.577 115.009 276.027C115.376 275.478 115.599 274.845 115.658 274.187V244.656L122.108 241.433C123.848 240.564 124.829 238.071 123.771 237.23L107.93 224.487Z" fill="#A7B1F2"/>
<path opacity="0.62" d="M108.141 223.041C106.81 221.97 103.484 224.785 102.657 226.284L87.3879 253.821C86.3305 255.742 87.3158 257.231 89.0509 256.362L95.4865 253.134V282.665C95.4865 283.822 96.4478 284.293 97.582 283.712L113.558 275.729C114.143 275.422 114.642 274.973 115.009 274.423C115.376 273.873 115.599 273.241 115.658 272.583V243.047L122.109 239.819C123.848 238.95 124.829 236.457 123.771 235.616L108.141 223.041Z" fill="#A7B1F2"/>
<path opacity="0.67" d="M108.319 221.6C106.877 220.448 103.575 222.993 102.681 224.602L87.3686 252.226C86.3112 254.148 87.2965 255.632 89.0316 254.762L95.4864 251.539V281.07C95.4864 282.228 96.4477 282.698 97.582 282.122L113.558 274.134C114.143 273.827 114.642 273.378 115.009 272.828C115.376 272.279 115.599 271.646 115.658 270.988V241.457L122.108 238.244C123.848 237.374 124.829 234.882 123.771 234.041L108.319 221.6Z" fill="#A7B1F2"/>
<path opacity="0.71" d="M108.516 220.169C106.978 218.93 103.686 221.202 102.749 222.926L87.3686 250.632C86.3112 252.553 87.2965 254.037 89.0316 253.173L95.4864 249.945V279.48C95.4864 280.638 96.4477 281.104 97.582 280.527L113.558 272.539C114.144 272.234 114.643 271.786 115.01 271.237C115.377 270.688 115.6 270.056 115.658 269.398V239.863L122.108 236.64C123.848 235.77 124.829 233.277 123.771 232.437L108.516 220.169Z" fill="#A7B1F2"/>
<path opacity="0.76" d="M108.713 218.738C107.074 217.417 103.797 219.415 102.773 221.255L87.3686 249.042C86.3112 250.963 87.2965 252.452 89.0316 251.583L95.4864 248.36V277.89C95.4864 279.048 96.4477 279.519 97.582 278.937L113.558 270.954C114.143 270.647 114.642 270.198 115.009 269.649C115.376 269.099 115.599 268.466 115.658 267.808V238.277L122.108 235.05C123.848 234.185 124.829 231.687 123.771 230.847L108.713 218.738Z" fill="#A7B1F2"/>
<path opacity="0.81" d="M108.91 217.311C107.166 215.908 103.907 217.633 102.821 219.588L87.3686 247.447C86.3112 249.368 87.2965 250.853 89.0316 249.988L95.4864 246.76V276.296C95.4864 277.453 96.4477 277.919 97.582 277.343L113.558 269.355C114.144 269.049 114.643 268.601 115.01 268.052C115.377 267.503 115.6 266.871 115.658 266.213V236.692L122.108 233.469C123.848 232.6 124.829 230.107 123.771 229.266L108.91 217.311Z" fill="#A7B1F2"/>
<path opacity="0.86" d="M109.103 215.894C107.257 214.41 104.013 215.856 102.854 217.931L87.3542 245.886C86.2968 247.807 87.2821 249.291 89.0172 248.422L95.472 245.199V274.749C95.472 275.907 96.4333 276.372 97.5676 275.796L113.544 267.808C114.129 267.501 114.628 267.052 114.995 266.503C115.362 265.953 115.585 265.32 115.644 264.662V235.117L122.094 231.894C123.834 231.024 124.814 228.532 123.757 227.691L109.103 215.894Z" fill="#A7B1F2"/>
<path opacity="0.9" d="M109.305 214.482C107.353 212.916 104.123 214.088 102.912 216.278L87.3686 244.315C86.3112 246.237 87.2965 247.726 89.0316 246.856L95.4864 243.628V273.164C95.4864 274.321 96.4477 274.792 97.582 274.211L113.558 266.223C114.144 265.917 114.643 265.469 115.01 264.92C115.377 264.372 115.6 263.739 115.658 263.082V233.546L122.108 230.323C123.848 229.454 124.829 226.961 123.771 226.12L109.305 214.482Z" fill="#A7B1F2"/>
<path opacity="0.95" d="M109.502 213.079C107.449 211.432 104.215 212.33 102.96 214.631L87.3686 242.754C86.3112 244.675 87.2965 246.16 89.0316 245.295L95.4864 242.086V271.622C95.4864 272.78 96.4477 273.246 97.582 272.669L113.558 264.662C114.144 264.356 114.643 263.908 115.01 263.359C115.377 262.811 115.6 262.178 115.658 261.521V232L122.108 228.777C123.848 227.907 124.829 225.414 123.771 224.574L109.502 213.079Z" fill="#A7B1F2"/>
<path d="M109.694 211.682C109.187 211.275 108.598 210.985 107.968 210.83C107.338 210.675 106.681 210.659 106.044 210.784C105.407 210.909 104.805 211.171 104.279 211.553C103.754 211.934 103.319 212.426 103.003 212.993L87.3686 241.198C86.3112 243.119 87.2965 244.608 89.0316 243.739L95.4864 240.516V270.047C95.4864 271.204 96.4477 271.675 97.582 271.094L113.558 263.111C114.143 262.803 114.642 262.354 115.009 261.805C115.376 261.255 115.599 260.622 115.658 259.964V230.434L122.108 227.196C123.848 226.332 124.829 223.834 123.771 222.993L109.694 211.682Z" fill="#A7B1F2"/>
</g>
<g style="mix-blend-mode:multiply">
<path opacity="0.05" d="M143.04 323.916L124.838 309.28C123.781 308.43 124.762 305.942 126.501 305.077L132.951 301.849V272.318C133.011 271.66 133.234 271.028 133.601 270.478C133.968 269.928 134.467 269.48 135.052 269.172L151.028 261.189C152.186 260.608 153.123 261.079 153.123 262.236V291.767L159.569 288.544C161.304 287.675 162.289 289.178 161.232 291.085L143.04 323.916Z" fill="#A7B1F2"/>
<path opacity="0.1" d="M143.04 322.302L124.838 307.661C123.781 306.811 124.762 304.328 126.501 303.458L132.951 300.235V270.719C133.011 270.061 133.234 269.428 133.601 268.879C133.968 268.329 134.467 267.88 135.052 267.573L151.028 259.585C152.186 259.009 153.123 259.479 153.123 260.637V290.168L159.569 286.945C161.304 286.075 162.289 287.574 161.232 289.481L143.04 322.302Z" fill="#A7B1F2"/>
<path opacity="0.14" d="M143.04 320.717L124.838 306.076C123.781 305.226 124.762 302.743 126.501 301.873L132.951 298.65V269.115C133.01 268.457 133.233 267.825 133.6 267.276C133.967 266.727 134.466 266.279 135.052 265.973L151.028 257.985C152.186 257.409 153.123 257.875 153.123 259.033V288.568L159.569 285.34C161.304 284.471 162.289 285.974 161.232 287.881L143.04 320.717Z" fill="#A7B1F2"/>
<path opacity="0.19" d="M143.04 319.112L124.838 304.477C123.781 303.626 124.762 301.138 126.501 300.274L132.951 297.046V267.515C133.011 266.857 133.234 266.224 133.601 265.675C133.968 265.125 134.467 264.676 135.052 264.369L151.028 256.386C152.186 255.805 153.123 256.275 153.123 257.433V286.964L159.569 283.741C161.304 282.871 162.289 284.375 161.232 286.282L143.04 319.112Z" fill="#A7B1F2"/>
<path opacity="0.24" d="M143.04 317.498L124.838 302.858C123.781 302.008 124.762 299.524 126.501 298.655L132.951 295.432V265.916C133.011 265.258 133.234 264.625 133.601 264.075C133.968 263.526 134.467 263.077 135.052 262.77L151.028 254.782C152.186 254.205 153.123 254.676 153.123 255.834V285.364L159.569 282.141C161.304 281.272 162.289 282.77 161.232 284.677L143.04 317.498Z" fill="#A7B1F2"/>
<path opacity="0.29" d="M143.04 315.913L124.838 301.273C123.781 300.423 124.762 297.939 126.501 297.07L132.951 293.847V264.311C133.01 263.654 133.233 263.022 133.6 262.473C133.967 261.924 134.466 261.476 135.052 261.17L151.028 253.182C152.186 252.606 153.123 253.072 153.123 254.229V283.765L159.569 280.537C161.304 279.668 162.289 281.171 161.232 283.078L143.04 315.913Z" fill="#A7B1F2"/>
<path opacity="0.33" d="M143.04 314.309L124.838 299.673C123.781 298.823 124.762 296.335 126.501 295.47L132.951 292.243V262.712C133.011 262.054 133.234 261.421 133.601 260.871C133.968 260.322 134.467 259.873 135.052 259.566L151.028 251.583C152.186 251.001 153.123 251.472 153.123 252.63V282.16L159.569 278.937C161.304 278.068 162.289 279.571 161.232 281.478L143.04 314.309Z" fill="#A7B1F2"/>
<path opacity="0.38" d="M143.04 312.695L124.838 298.055C123.781 297.204 124.762 294.721 126.501 293.852L132.951 290.629V261.112C133.011 260.454 133.234 259.822 133.601 259.272C133.968 258.722 134.467 258.273 135.052 257.966L151.028 249.978C152.186 249.402 153.123 249.873 153.123 251.03V280.561L159.569 277.338C161.304 276.469 162.289 277.967 161.232 279.874L143.04 312.695Z" fill="#A7B1F2"/>
<path opacity="0.43" d="M143.04 311.11L124.838 296.469C123.781 295.619 124.762 293.136 126.501 292.267L132.951 289.044V259.508C133.01 258.851 133.233 258.218 133.6 257.669C133.967 257.12 134.466 256.672 135.052 256.367L151.028 248.379C152.186 247.802 153.123 248.268 153.123 249.426V278.961L159.569 275.734C161.304 274.864 162.289 276.368 161.232 278.275L143.04 311.11Z" fill="#A7B1F2"/>
<path opacity="0.48" d="M143.04 309.506L124.838 294.87C123.781 294.02 124.762 291.532 126.501 290.667L132.951 287.439V257.909C133.011 257.251 133.234 256.618 133.601 256.068C133.968 255.519 134.467 255.07 135.052 254.762L151.028 246.779C152.186 246.198 153.123 246.669 153.123 247.826V277.357L159.569 274.134C161.304 273.265 162.289 274.768 161.232 276.675L143.04 309.506Z" fill="#A7B1F2"/>
<path opacity="0.52" d="M143.04 307.892L124.838 293.251C123.781 292.401 124.762 289.918 126.501 289.048L132.951 285.825V256.309C133.011 255.651 133.234 255.018 133.601 254.469C133.968 253.919 134.467 253.47 135.052 253.163L151.028 245.175C152.186 244.599 153.123 245.069 153.123 246.227V275.758L159.569 272.535C161.304 271.665 162.289 273.164 161.232 275.071L143.04 307.892Z" fill="#A7B1F2"/>
<path opacity="0.57" d="M143.04 306.307L124.838 291.666C123.781 290.816 124.762 288.333 126.501 287.463L132.951 284.24V254.705C133.01 254.047 133.233 253.415 133.6 252.866C133.967 252.317 134.466 251.869 135.052 251.563L151.028 243.576C152.186 242.999 153.123 243.465 153.123 244.623V274.158L159.569 270.93C161.304 270.061 162.289 271.564 161.232 273.471L143.04 306.307Z" fill="#A7B1F2"/>
<path opacity="0.62" d="M143.04 304.702L124.838 290.067C123.781 289.216 124.762 286.728 126.501 285.864L132.951 282.636V253.105C133.011 252.447 133.234 251.814 133.601 251.265C133.968 250.715 134.467 250.266 135.052 249.959L151.028 241.976C152.186 241.395 153.123 241.866 153.123 243.023V272.554L159.569 269.331C161.304 268.461 162.289 269.965 161.232 271.872L143.04 304.702Z" fill="#A7B1F2"/>
<path opacity="0.67" d="M143.04 303.088L124.838 288.448C123.781 287.598 124.762 285.114 126.501 284.245L132.951 281.022V251.506C133.011 250.848 133.234 250.215 133.601 249.665C133.968 249.116 134.467 248.667 135.052 248.36L151.028 240.372C152.186 239.795 153.123 240.266 153.123 241.424V270.954L159.569 267.731C161.304 266.862 162.289 268.361 161.232 270.267L143.04 303.088Z" fill="#A7B1F2"/>
<path opacity="0.71" d="M143.04 301.503L124.838 286.863C123.781 286.013 124.762 283.529 126.501 282.66L132.951 279.437V249.901C133.01 249.244 133.233 248.612 133.6 248.063C133.967 247.514 134.466 247.066 135.052 246.76L151.028 238.772C152.186 238.196 153.123 238.662 153.123 239.819V269.355L159.569 266.127C161.304 265.258 162.289 266.761 161.232 268.668L143.04 301.503Z" fill="#A7B1F2"/>
<path opacity="0.76" d="M143.04 299.899L124.838 285.263C123.781 284.413 124.762 281.925 126.501 281.06L132.951 277.833V248.302C133.011 247.644 133.234 247.011 133.601 246.462C133.968 245.912 134.467 245.463 135.052 245.156L151.028 237.173C152.186 236.592 153.123 237.062 153.123 238.22V267.751L159.569 264.528C161.304 263.658 162.289 265.162 161.232 267.068L143.04 299.899Z" fill="#A7B1F2"/>
<path opacity="0.81" d="M143.04 298.285L124.838 283.645C123.781 282.794 124.762 280.311 126.501 279.442L132.951 276.219V246.702C133.011 246.044 133.234 245.412 133.601 244.862C133.968 244.312 134.467 243.864 135.052 243.556L151.028 235.568C152.186 234.992 153.123 235.463 153.123 236.62V266.151L159.569 262.928C161.304 262.059 162.289 263.557 161.232 265.464L143.04 298.285Z" fill="#A7B1F2"/>
<path opacity="0.86" d="M143.04 296.7L124.838 282.06C123.781 281.209 124.762 278.726 126.501 277.857L132.951 274.634V245.098C133.01 244.441 133.233 243.808 133.6 243.259C133.967 242.71 134.466 242.263 135.052 241.957L151.028 233.969C152.186 233.393 153.123 233.858 153.123 235.016V264.552L159.569 261.324C161.304 260.454 162.289 261.958 161.232 263.865L143.04 296.7Z" fill="#A7B1F2"/>
<path opacity="0.9" d="M143.04 295.096L124.838 280.46C123.781 279.61 124.762 277.122 126.501 276.257L132.951 273.029V243.499C133.011 242.841 133.234 242.208 133.601 241.658C133.968 241.109 134.467 240.66 135.052 240.353L151.028 232.369C152.186 231.788 153.123 232.259 153.123 233.417V262.947L159.569 259.724C161.304 258.855 162.289 260.358 161.232 262.265L143.04 295.096Z" fill="#A7B1F2"/>
<path opacity="0.95" d="M143.04 293.482L124.838 278.841C123.781 277.991 124.762 275.508 126.501 274.638L132.951 271.415V241.899C133.011 241.241 133.234 240.608 133.601 240.059C133.968 239.509 134.467 239.06 135.052 238.753L151.028 230.765C152.186 230.189 153.123 230.659 153.123 231.817V261.348L159.569 258.125C161.304 257.255 162.289 258.754 161.232 260.661L143.04 293.482Z" fill="#A7B1F2"/>
<path d="M143.04 291.897L124.838 277.256C123.781 276.406 124.762 273.923 126.501 273.053L132.951 269.83V240.295C133.01 239.637 133.233 239.005 133.6 238.456C133.967 237.907 134.466 237.459 135.052 237.154L151.028 229.166C152.186 228.589 153.123 229.055 153.123 230.213V259.748L159.569 256.52C161.304 255.651 162.289 257.154 161.232 259.061L143.04 291.897Z" fill="#A7B1F2"/>
</g>
<path d="M95.4863 240.516V270.047C95.4642 270.281 95.5106 270.517 95.6197 270.726C95.7289 270.935 95.8962 271.107 96.1015 271.223L107.156 276.752L106.464 246.011L95.4863 240.516Z" fill="url(#paint17_linear_11133_2155)"/>
<path d="M123.771 223.003L116.562 213.877L110.122 210.658C108.904 210.039 107.494 209.914 106.187 210.311C104.879 210.708 103.776 211.595 103.109 212.786L87.3686 241.183C86.6476 242.485 86.8879 243.585 87.6473 243.897L98.5288 249.349L115.668 230.434L122.108 227.196C123.848 226.336 124.829 223.834 123.771 223.003Z" fill="url(#paint18_linear_11133_2155)"/>
<path d="M116.552 213.853L98.351 246.688C97.2937 248.609 98.2789 250.094 100.014 249.229L106.464 246.001V275.537C106.464 276.694 107.425 277.16 108.564 276.584L124.54 268.596C125.126 268.29 125.625 267.842 125.992 267.293C126.359 266.744 126.582 266.112 126.641 265.455V235.919L133.091 232.696C134.831 231.827 135.811 229.334 134.754 228.493L116.552 213.853Z" fill="url(#paint19_linear_11133_2155)"/>
<path d="M164.601 276.848L172.2 261.958L161.145 256.424C160.899 256.301 160.626 256.244 160.351 256.258C160.076 256.272 159.81 256.358 159.578 256.506L153.124 259.734L164.601 276.848Z" fill="url(#paint20_linear_11133_2155)"/>
<path d="M132.951 269.83L126.501 273.053C124.762 273.923 123.781 276.416 124.838 277.256L142.598 291.561C142.895 291.796 143.218 291.999 143.559 292.166L154.109 297.449L144.016 275.383L132.951 269.83Z" fill="url(#paint21_linear_11133_2155)"/>
<path d="M163.587 234.584L152.532 229.05C152.29 228.949 152.028 228.907 151.766 228.927C151.505 228.947 151.252 229.029 151.028 229.166L135.057 237.153C134.471 237.459 133.972 237.907 133.605 238.456C133.238 239.005 133.015 239.637 132.956 240.295V269.83L144.011 275.359L163.587 234.584Z" fill="url(#paint22_linear_11133_2155)"/>
<path d="M154.022 297.382L135.816 282.746C134.759 281.896 135.744 279.408 137.484 278.544L143.934 275.316V245.785C143.992 245.127 144.214 244.495 144.58 243.945C144.947 243.395 145.445 242.946 146.029 242.639L162.01 234.656C163.169 234.075 164.106 234.545 164.106 235.703V265.234L170.556 262.011C172.296 261.141 173.281 262.645 172.224 264.552L154.022 297.382Z" fill="url(#paint23_linear_11133_2155)"/>
<path style="mix-blend-mode:multiply" d="M265.706 443.883H301.114V401.109L283.413 392.262L265.706 401.109V443.883Z" fill="url(#paint24_linear_11133_2155)"/>
<path d="M283.413 419.295L318.821 401.599V397.315L283.413 415.015V419.295Z" fill="url(#paint25_linear_11133_2155)"/>
<path d="M248 401.599L283.413 419.295V415.015L248 397.315V401.599Z" fill="url(#paint26_linear_11133_2155)"/>
<path d="M248 397.315L283.413 415.015L318.821 397.315L283.413 379.614L248 397.315Z" fill="url(#paint27_linear_11133_2155)"/>
<path d="M265.706 397.315L283.413 406.162L301.114 397.315L283.413 388.467L265.706 397.315Z" fill="url(#paint28_linear_11133_2155)"/>
<path style="mix-blend-mode:multiply" d="M265.706 326H301.114V397.315L283.413 406.162L265.706 397.315V326Z" fill="url(#paint29_linear_11133_2155)"/>
<path d="M463.36 355.175L483.128 345.295V325.539L463.36 335.419V355.175Z" fill="url(#paint30_linear_11133_2155)"/>
<path d="M443.591 345.295L463.36 355.175V335.419L443.591 325.539V345.295Z" fill="url(#paint31_linear_11133_2155)"/>
<path d="M448.532 342.826L458.414 347.764V337.888L448.532 332.946V342.826Z" fill="url(#paint32_linear_11133_2155)"/>
<path d="M443.591 325.539L463.36 335.419L483.128 325.539L463.36 315.659L443.591 325.539Z" fill="url(#paint33_linear_11133_2155)"/>
<path d="M453.473 325.539L463.36 330.477L473.241 325.539L463.36 320.596L453.473 325.539Z" fill="url(#paint34_linear_11133_2155)"/>
<path d="M178.508 187.153C189.321 173.311 191.242 156.75 182.799 150.163C174.356 143.575 158.746 149.456 147.933 163.297C137.12 177.139 135.199 193.7 143.642 200.287C152.084 206.875 167.695 200.994 178.508 187.153Z" fill="url(#paint35_linear_11133_2155)"/>
<path d="M185.421 190.603C196.234 176.762 198.156 160.201 189.713 153.613C181.27 147.026 165.66 152.906 154.846 166.748C144.033 180.59 142.112 197.151 150.555 203.738C158.998 210.326 174.608 204.445 185.421 190.603Z" fill="url(#paint36_linear_11133_2155)"/>
<path d="M173.237 157.395V160.764C181.133 157.496 186.127 162.167 186.127 170.203C186.127 178.92 180.344 189.619 172.899 194.764V192.494C179.247 187.991 184.179 178.771 184.179 171.328C184.179 164.592 180.253 160.38 173.237 163.037V165.784C177.918 164.3 181.417 167.126 181.417 172.921C181.417 179.636 176.723 187.79 170.932 191.133C170.622 191.312 170.316 191.47 170.014 191.613V199.792C180.994 194.284 189.013 179.727 189.013 168.536C189.013 158.673 182.85 153.196 173.237 157.395Z" fill="#2793FF"/>
<path d="M160.448 185.029C160.448 178.314 165.142 170.16 170.933 166.817C171.242 166.639 171.547 166.481 171.85 166.336V158.157C160.841 163.692 152.852 178.247 152.852 189.414C152.852 199.278 159.016 204.753 168.628 200.556V197.186C160.733 200.455 155.737 195.784 155.737 187.749C155.737 179.031 161.52 168.333 168.965 163.186V165.455C162.617 169.958 157.686 179.179 157.686 186.623C157.686 193.411 161.66 197.557 168.628 194.911V192.165C163.947 193.65 160.448 190.825 160.448 185.029Z" fill="#2793FF"/>
<path d="M169.799 189.546C165.133 191.529 161.863 188.599 162.355 182.874C162.772 178.02 165.834 172.607 169.799 169.714L170.008 169.561V172.766L169.857 172.885C167.453 174.788 165.584 178.048 165.145 181.072L176.721 174.388C176.292 171.94 174.482 170.819 172.156 171.592L172.01 171.64V168.425L172.221 168.34C176.403 166.652 179.558 169.083 179.558 173.994C179.558 178.906 176.404 184.98 172.221 188.122L172.01 188.28V185.065L172.156 184.946C174.261 183.214 175.973 180.378 176.579 177.646L165.285 184.166C165.907 186.259 167.679 187.098 169.856 186.307L170.007 186.252V189.456L169.799 189.546Z" fill="#2793FF"/>
</g>
<defs>
<linearGradient id="paint0_linear_11133_2155" x1="126.973" y1="277.9" x2="193.122" y2="277.9" gradientUnits="userSpaceOnUse">
<stop stop-color="#E3E5F9"/>
<stop offset="0.45" stop-color="#D6DCFD"/>
<stop offset="0.64" stop-color="#F2F3FF"/>
<stop offset="1" stop-color="#F2F3FF"/>
</linearGradient>
<linearGradient id="paint1_linear_11133_2155" x1="126.631" y1="261.338" x2="193.463" y2="261.338" gradientUnits="userSpaceOnUse">
<stop stop-color="#E8EAFB"/>
<stop offset="1" stop-color="white"/>
</linearGradient>
<linearGradient id="paint2_linear_11133_2155" x1="346.61" y1="218.891" x2="346.61" y2="500.504" gradientUnits="userSpaceOnUse">
<stop stop-color="#CCD6FF"/>
<stop offset="1" stop-color="white"/>
</linearGradient>
<linearGradient id="paint3_linear_11133_2155" x1="526" y1="194.894" x2="167.225" y2="194.894" gradientUnits="userSpaceOnUse">
<stop stop-color="white"/>
<stop offset="1" stop-color="#E8EAFB"/>
</linearGradient>
<linearGradient id="paint4_linear_11133_2155" x1="452.627" y1="93.8422" x2="258.381" y2="132.834" gradientUnits="userSpaceOnUse">
<stop stop-color="#2388FF"/>
<stop offset="0.63" stop-color="#1776BA"/>
<stop offset="1" stop-color="#6EB9FF"/>
</linearGradient>
<linearGradient id="paint5_linear_11133_2155" x1="449.95" y1="95.8163" x2="264.556" y2="133.038" gradientUnits="userSpaceOnUse">
<stop stop-color="#8FB5FF"/>
<stop offset="0.37" stop-color="#1E69FF"/>
<stop offset="1" stop-color="#7023FF"/>
</linearGradient>
<linearGradient id="paint6_linear_11133_2155" x1="251.604" y1="8.16564" x2="401.06" y2="248.901" gradientUnits="userSpaceOnUse">
<stop stop-color="#31C9FB"/>
<stop offset="1" stop-color="#22D2FD"/>
</linearGradient>
<linearGradient id="paint7_linear_11133_2155" x1="342.135" y1="227.086" x2="342.135" y2="13.8095" gradientUnits="userSpaceOnUse">
<stop stop-color="#C3CFF7"/>
<stop offset="1" stop-color="white"/>
</linearGradient>
<linearGradient id="paint8_linear_11133_2155" x1="310.971" y1="95.9459" x2="340.043" y2="160.597" gradientUnits="userSpaceOnUse">
<stop stop-color="#E3E4F8"/>
<stop offset="0.11" stop-color="#F2F3FF"/>
<stop offset="0.6" stop-color="#D3D7F2"/>
<stop offset="0.65" stop-color="#E1E3F8"/>
<stop offset="0.74" stop-color="#F2F3FF"/>
<stop offset="0.92" stop-color="#E1E3F8"/>
<stop offset="1" stop-color="#E2E7FB"/>
</linearGradient>
<linearGradient id="paint9_linear_11133_2155" x1="288.026" y1="125.856" x2="354.16" y2="125.856" gradientUnits="userSpaceOnUse">
<stop stop-color="#D3D7F2"/>
<stop offset="1" stop-color="#BBC9F8"/>
</linearGradient>
<linearGradient id="paint10_linear_11133_2155" x1="272.603" y1="85.1866" x2="272.603" y2="39.7521" gradientUnits="userSpaceOnUse">
<stop stop-color="#C3CFF7"/>
<stop offset="1" stop-color="white"/>
</linearGradient>
<linearGradient id="paint11_linear_11133_2155" x1="116" y1="363.106" x2="116" y2="561.252" gradientUnits="userSpaceOnUse">
<stop stop-color="#CCD6FF"/>
<stop offset="1" stop-color="white"/>
</linearGradient>
<linearGradient id="paint12_linear_11133_2155" x1="5.28254e-05" y1="355.094" x2="231.154" y2="355.094" gradientUnits="userSpaceOnUse">
<stop stop-color="#E8EAFB"/>
<stop offset="1" stop-color="white"/>
</linearGradient>
<linearGradient id="paint13_linear_11133_2155" x1="108.819" y1="370.844" x2="108.819" y2="118.887" gradientUnits="userSpaceOnUse">
<stop stop-color="#237BFF"/>
<stop offset="0.63" stop-color="#174DBA"/>
<stop offset="1" stop-color="#6EB1FF"/>
</linearGradient>
<linearGradient id="paint14_linear_11133_2155" x1="113.625" y1="370.849" x2="113.625" y2="123.565" gradientUnits="userSpaceOnUse">
<stop stop-color="#7023FF"/>
<stop offset="0.63" stop-color="#1E69FF"/>
<stop offset="1" stop-color="#8FB5FF"/>
</linearGradient>
<linearGradient id="paint15_linear_11133_2155" x1="42.6461" y1="354.676" x2="221.023" y2="154.556" gradientUnits="userSpaceOnUse">
<stop stop-color="#31C9FB"/>
<stop offset="1" stop-color="#22D2FD"/>
</linearGradient>
<linearGradient id="paint16_linear_11133_2155" x1="126.054" y1="371.79" x2="126.054" y2="126.774" gradientUnits="userSpaceOnUse">
<stop stop-color="#C3CFF7"/>
<stop offset="1" stop-color="white"/>
</linearGradient>
<linearGradient id="paint17_linear_11133_2155" x1="95.544" y1="258.634" x2="107.098" y2="258.634" gradientUnits="userSpaceOnUse">
<stop stop-color="#D3D7F2"/>
<stop offset="1" stop-color="#BBC9F8"/>
</linearGradient>
<linearGradient id="paint18_linear_11133_2155" x1="115.067" y1="214.472" x2="98.2427" y2="248.013" gradientUnits="userSpaceOnUse">
<stop stop-color="#D3D7F2"/>
<stop offset="1" stop-color="#BBC9F8"/>
</linearGradient>
<linearGradient id="paint19_linear_11133_2155" x1="116.552" y1="274.927" x2="116.552" y2="215.034" gradientUnits="userSpaceOnUse">
<stop stop-color="#C3CFF7"/>
<stop offset="1" stop-color="white"/>
</linearGradient>
<linearGradient id="paint20_linear_11133_2155" x1="163.904" y1="258.384" x2="156.851" y2="272.447" gradientUnits="userSpaceOnUse">
<stop stop-color="#D3D7F2"/>
<stop offset="1" stop-color="#BBC9F8"/>
</linearGradient>
<linearGradient id="paint21_linear_11133_2155" x1="144.463" y1="276.108" x2="138.038" y2="288.917" gradientUnits="userSpaceOnUse">
<stop stop-color="#D3D7F2"/>
<stop offset="1" stop-color="#BBC9F8"/>
</linearGradient>
<linearGradient id="paint22_linear_11133_2155" x1="152.109" y1="230.376" x2="132.999" y2="268.466" gradientUnits="userSpaceOnUse">
<stop stop-color="#D3D7F2"/>
<stop offset="1" stop-color="#BBC9F8"/>
</linearGradient>
<linearGradient id="paint23_linear_11133_2155" x1="154.022" y1="295.48" x2="154.022" y2="235.588" gradientUnits="userSpaceOnUse">
<stop stop-color="#C3CFF7"/>
<stop offset="1" stop-color="white"/>
</linearGradient>
<linearGradient id="paint24_linear_11133_2155" x1="283.408" y1="444.267" x2="283.408" y2="392.42" gradientUnits="userSpaceOnUse">
<stop stop-color="white"/>
<stop offset="1" stop-color="#22D2FD"/>
</linearGradient>
<linearGradient id="paint25_linear_11133_2155" x1="290.565" y1="402.978" x2="311.952" y2="413.786" gradientUnits="userSpaceOnUse">
<stop stop-color="#174DBA"/>
<stop offset="1" stop-color="#7023FF"/>
</linearGradient>
<linearGradient id="paint26_linear_11133_2155" x1="252.994" y1="414.241" x2="276.88" y2="403.072" gradientUnits="userSpaceOnUse">
<stop stop-color="#7023FF"/>
<stop offset="1" stop-color="#3377FF"/>
</linearGradient>
<linearGradient id="paint27_linear_11133_2155" x1="317.225" y1="397.315" x2="249.355" y2="397.315" gradientUnits="userSpaceOnUse">
<stop stop-color="#1E69FF"/>
<stop offset="1" stop-color="#6697FF"/>
</linearGradient>
<linearGradient id="paint28_linear_11133_2155" x1="296.625" y1="404.731" x2="271.063" y2="390.37" gradientUnits="userSpaceOnUse">
<stop stop-color="#E9ECFC"/>
<stop offset="0.46" stop-color="#D2DAFA"/>
<stop offset="1" stop-color="#BBC9F8"/>
</linearGradient>
<linearGradient id="paint29_linear_11133_2155" x1="283.408" y1="325.4" x2="283.408" y2="405.917" gradientUnits="userSpaceOnUse">
<stop stop-color="white"/>
<stop offset="1" stop-color="#22D2FD"/>
</linearGradient>
<linearGradient id="paint30_linear_11133_2155" x1="464.114" y1="335.751" x2="482.609" y2="345.098" gradientUnits="userSpaceOnUse">
<stop stop-color="#174DBA"/>
<stop offset="1" stop-color="#7023FF"/>
</linearGradient>
<linearGradient id="paint31_linear_11133_2155" x1="442.837" y1="345.324" x2="462.826" y2="335.977" gradientUnits="userSpaceOnUse">
<stop stop-color="#7023FF"/>
<stop offset="1" stop-color="#3377FF"/>
</linearGradient>
<linearGradient id="paint32_linear_11133_2155" x1="460.269" y1="344.171" x2="447.123" y2="336.786" gradientUnits="userSpaceOnUse">
<stop stop-color="#E9ECFC"/>
<stop offset="0.46" stop-color="#D2DAFA"/>
<stop offset="1" stop-color="#BBC9F8"/>
</linearGradient>
<linearGradient id="paint33_linear_11133_2155" x1="482.234" y1="325.539" x2="444.346" y2="325.539" gradientUnits="userSpaceOnUse">
<stop stop-color="#1E69FF"/>
<stop offset="1" stop-color="#6697FF"/>
</linearGradient>
<linearGradient id="paint34_linear_11133_2155" x1="470.737" y1="329.68" x2="456.467" y2="321.66" gradientUnits="userSpaceOnUse">
<stop stop-color="#E9ECFC"/>
<stop offset="0.46" stop-color="#D2DAFA"/>
<stop offset="1" stop-color="#BBC9F8"/>
</linearGradient>
<linearGradient id="paint35_linear_11133_2155" x1="163.22" y1="202.995" x2="163.22" y2="148.878" gradientUnits="userSpaceOnUse">
<stop stop-color="#7023FF"/>
<stop offset="0.63" stop-color="#1E69FF"/>
<stop offset="1" stop-color="#8FB5FF"/>
</linearGradient>
<linearGradient id="paint36_linear_11133_2155" x1="170.128" y1="204.763" x2="170.128" y2="151.956" gradientUnits="userSpaceOnUse">
<stop stop-color="#C3CFF7"/>
<stop offset="1" stop-color="white"/>
</linearGradient>
<clipPath id="clip0_11133_2155">
<rect width="526" height="584" fill="white"/>
</clipPath>
</defs>
</svg>
