<svg width="84" height="85" viewBox="0 0 84 85" fill="none" xmlns="http://www.w3.org/2000/svg">
<rect y="0.924927" width="84" height="84" rx="17" fill="white"/>
<g clip-path="url(#clip0_12170_13632)">
<path d="M57.6981 28.5916C57.6981 26.0142 50.5349 23.9249 41.6983 23.9249C32.8617 23.9249 25.6982 26.0142 25.6982 28.5916C25.6982 31.169 32.8617 33.2583 41.6983 33.2583C50.5349 33.2583 57.6981 31.169 57.6981 28.5916Z" fill="#BDDBFF"/>
<path d="M41.6983 42.5916C50.5315 42.5916 57.6981 40.5049 57.6981 37.9249V28.5916C57.6981 31.1716 50.5315 33.2583 41.6983 33.2583C32.8649 33.2583 25.6982 31.1716 25.6982 28.5916V37.9249C25.6982 40.5049 32.8649 42.5916 41.6983 42.5916Z" fill="#9BC9FF"/>
<path d="M41.6983 51.9249C50.5315 51.9249 57.6981 49.8383 57.6981 47.2583V37.9249C57.6981 40.5049 50.5315 42.5916 41.6983 42.5916C32.8649 42.5916 25.6982 40.5049 25.6982 37.9249V47.2583C25.6982 49.8383 32.8649 51.9249 41.6983 51.9249Z" fill="#57A4FF"/>
<path d="M57.6981 47.2582C57.6981 49.8382 50.5315 51.9249 41.6983 51.9249C32.8649 51.9249 25.6982 49.8382 25.6982 47.2582V56.5916C25.6982 59.1716 32.8649 61.2582 41.6983 61.2582C50.5315 61.2582 57.6981 59.1716 57.6981 56.5916V47.2582Z" fill="#2488FF"/>
</g>
<defs>
<clipPath id="clip0_12170_13632">
<rect width="37.3333" height="37.3333" fill="white" transform="translate(23 23.9249)"/>
</clipPath>
</defs>
</svg>
