<svg width="111" height="110" viewBox="0 0 111 110" fill="none" xmlns="http://www.w3.org/2000/svg">
<g filter="url(#filter0_d_12295_239047)">
<rect x="20.251" y="16" width="70" height="70" rx="15" fill="white"/>
</g>
<path d="M74.0497 37.8219C68.4322 29.9619 59.2747 29.1819 55.5885 29.1257C52.026 29.0732 44.451 30.2582 38.916 35.9469C34.8097 40.1657 32.8147 45.4194 32.8897 51.4907C32.9572 56.9919 34.8435 61.5257 38.2897 65.6582C43.3785 71.7594 50.6085 73.3419 55.6635 73.3419C55.806 73.3419 55.9485 73.3419 56.091 73.3382C61.0185 73.2069 69.5422 71.7932 74.631 63.4644C76.881 59.7819 78.1522 55.4919 78.2047 51.3857C78.291 44.7632 75.6397 40.0419 74.0497 37.8219ZM75.5122 49.5482L71.1997 49.5369C71.0647 46.4469 70.536 43.8032 69.7822 41.5494L73.071 41.5607C74.1435 43.4882 75.246 46.1844 75.5122 49.5482ZM35.6272 52.4507L40.1235 52.4619C40.3035 54.9857 40.716 57.7907 41.6047 60.5432H37.9485C36.576 58.1019 35.8035 55.4132 35.6272 52.4507ZM57.0172 31.5032C58.3447 32.0019 62.1997 33.7682 65.0272 38.5382L56.9985 38.5157L57.0172 31.5032ZM54.3735 31.6119V38.5082L46.1197 38.4857C49.2097 33.6182 53.5935 31.8857 54.3735 31.6119ZM54.3735 41.5082V49.4994L43.0372 49.4732C43.1122 46.3082 43.7047 43.6719 44.586 41.4819L54.3735 41.5082ZM40.0147 49.4619L35.661 49.4507C35.9197 46.5557 36.8347 43.8669 38.2822 41.4594L41.331 41.4669C40.5472 43.7207 40.0372 46.3682 40.0147 49.4619ZM43.101 52.4694L54.3735 52.4957V60.5432H44.6947C43.8847 58.3419 43.3035 55.6794 43.101 52.4694ZM54.3735 63.5432V70.7357C52.851 70.2482 48.8797 68.5457 46.0672 63.5432H54.3735ZM56.946 70.7882L56.9985 63.5432H65.3197C62.751 68.5232 58.9072 70.3194 56.946 70.7882ZM56.9985 60.5432V52.5032L68.1097 52.5294C67.9785 55.7169 67.4422 58.3569 66.6697 60.5432H56.9985ZM56.9985 49.5032V41.5157L66.5085 41.5419C67.3635 43.7282 67.9635 46.3607 68.106 49.5294L56.9985 49.5032ZM71.0535 38.5569L68.5447 38.5494C67.6335 36.7157 66.5872 35.2307 65.5522 34.0382C67.4947 35.0694 69.411 36.5207 71.0535 38.5569ZM45.6322 34.2144C44.4602 35.5029 43.4537 36.9327 42.636 38.4707L40.4685 38.4632C40.7272 38.1669 40.9935 37.8744 41.2672 37.5894C42.6547 36.1719 44.1397 35.0657 45.6322 34.2144ZM40.356 63.9069C40.251 63.7869 40.1497 63.6632 40.0447 63.5432H42.7935C43.596 65.2194 44.6235 66.8207 45.936 68.2682C43.9222 67.1882 41.9797 65.7444 40.356 63.9069ZM65.5035 68.4744C66.6285 67.1057 68.0235 65.4407 68.796 63.5432H71.241C69.726 65.4519 67.3672 67.4207 65.5035 68.4744ZM73.1797 60.5432H69.9285C70.7685 57.7869 71.1135 55.0007 71.2072 52.5369L75.5235 52.5482C75.2685 55.9719 74.1622 58.6944 73.1797 60.5432Z" fill="url(#paint0_radial_12295_239047)"/>
<path d="M66.6884 42.0069L56.9947 41.9769L56.9984 41.0394L66.3472 41.0844L66.6884 42.0069ZM54.3734 41.9694L44.4059 41.9469L44.7622 41.0207L54.3734 41.0319V41.9694ZM54.3734 52.9607L43.1309 52.9419L43.0597 52.0007L54.3734 52.0232V52.9607ZM68.0909 52.9869L56.9984 52.9644V52.0269L68.1359 52.0682L68.0909 52.9869ZM75.4784 53.0057L71.1809 53.0094L71.2222 52.0644L75.5647 52.0757L75.4784 53.0057ZM73.3072 41.9957L69.9359 42.0144L69.6359 41.1069L72.8459 41.1294L73.3072 41.9957ZM54.3734 64.0044L46.3334 64.0007L45.8084 63.1232L54.3884 63.0707L54.3734 64.0044ZM65.0834 63.9782L56.9909 64.0044L56.9984 63.0669L65.5672 63.0932L65.0834 63.9782ZM43.0147 63.9857L40.4684 64.0307L39.7147 63.1757L42.6434 63.1719L43.0147 63.9857ZM40.1534 52.9232L35.6534 52.9194L35.5859 51.9782L40.1009 52.0007L40.1534 52.9232ZM41.1772 41.9319L38.0122 41.9169L38.5297 41.0057L41.4884 40.9982L41.1772 41.9319ZM70.8434 64.0232L68.5859 64.0044L68.9834 63.1194L71.5709 63.1344L70.8434 64.0232ZM46.1347 38.4669L46.1384 38.4332C46.2134 38.3244 47.4322 35.6319 49.7534 33.6669C52.1122 31.6682 54.2984 31.0682 54.3922 31.0419L54.3734 32.0357C54.3509 32.0432 52.4234 32.5269 50.1884 34.3269C47.5559 36.4457 46.1534 38.4444 46.1347 38.4669ZM65.0309 38.5419C65.0197 38.5232 64.0897 36.8657 61.4872 34.7319C59.4209 33.0407 57.0397 31.9794 57.0134 31.9682L57.0247 30.9932C57.1372 31.0382 59.6047 32.1069 61.7197 34.0044C64.1047 36.1419 64.9672 38.3882 65.0122 38.4707L65.0309 38.5419ZM71.0459 38.5457C71.0347 38.5307 69.7784 37.3719 68.4059 36.2769C67.1084 35.2382 66.1897 34.8032 66.1747 34.7919L65.2222 33.6257C65.2972 33.6632 67.4084 34.7207 68.7472 35.8832C70.0709 37.0344 70.9747 38.4332 71.0197 38.4894L71.0459 38.5457ZM40.4722 38.4632L40.4834 38.4257C40.5247 38.3769 41.2709 37.2144 42.5684 36.0032C44.1472 34.5332 45.9022 33.8544 45.9622 33.8207L45.1222 34.7957C45.1072 34.8032 44.4472 35.0357 42.8009 36.3594C41.4884 37.4169 40.4834 38.4519 40.4722 38.4632Z" fill="#188AFF"/>
<path d="M55.6112 73.8066C40.2174 73.8066 35.1174 60.9029 35.0649 60.7754L35.1099 60.8654C35.1624 60.9891 40.8549 72.8691 55.6112 72.8691H55.6599C63.5949 72.8541 68.5674 69.5504 71.3462 66.7791C74.3649 63.7679 75.9587 60.9704 75.9699 60.9404L75.9887 60.9029C75.9399 61.0304 71.5149 73.7766 55.6637 73.8066H55.6112Z" fill="#188AFF"/>
<defs>
<filter id="filter0_d_12295_239047" x="0.250977" y="0" width="110" height="110" filterUnits="userSpaceOnUse" color-interpolation-filters="sRGB">
<feFlood flood-opacity="0" result="BackgroundImageFix"/>
<feColorMatrix in="SourceAlpha" type="matrix" values="0 0 0 0 0 0 0 0 0 0 0 0 0 0 0 0 0 0 127 0" result="hardAlpha"/>
<feOffset dy="4"/>
<feGaussianBlur stdDeviation="10"/>
<feColorMatrix type="matrix" values="0 0 0 0 0.090196 0 0 0 0 0.0588235 0 0 0 0 0.286275 0 0 0 0.08 0"/>
<feBlend mode="normal" in2="BackgroundImageFix" result="effect1_dropShadow_12295_239047"/>
<feBlend mode="normal" in="SourceGraphic" in2="effect1_dropShadow_12295_239047" result="shape"/>
</filter>
<radialGradient id="paint0_radial_12295_239047" cx="0" cy="0" r="1" gradientUnits="userSpaceOnUse" gradientTransform="translate(55.9541 28.9895) scale(39.7219 39.7219)">
<stop offset="0.21" stop-color="#01B3F7"/>
<stop offset="0.457" stop-color="#01B3F7"/>
</radialGradient>
</defs>
</svg>
