<svg width="111" height="110" viewBox="0 0 111 110" fill="none" xmlns="http://www.w3.org/2000/svg">
<g filter="url(#filter0_d_12295_239065)">
<rect x="20.2505" y="16" width="70" height="70" rx="15" fill="white"/>
</g>
<g clip-path="url(#clip0_12295_239065)">
<path d="M80.6142 45.7764H30.6143V35.719C30.6143 35.243 31.0003 34.8569 31.4764 34.8569H79.7522C80.2282 34.8569 80.6143 35.243 80.6143 35.719L80.6142 45.7764Z" fill="#73AF00"/>
<path d="M79.7521 67.6158H31.4764C31.0003 67.6158 30.6143 67.2298 30.6143 66.7537V56.6963H80.6142V66.7537C80.6142 67.2298 80.2281 67.6158 79.7521 67.6158Z" fill="#FF4B55"/>
<path d="M80.6151 45.7759H30.6152V56.6948H80.6151V45.7759Z" fill="#F5F5F5"/>
<path d="M30.7499 45.1987H30.7574C30.8323 45.1987 30.8931 45.1381 30.8931 45.0631V44.7693C30.8931 44.6944 30.9537 44.6337 31.0287 44.6337H31.5978C31.6727 44.6337 31.7334 44.6943 31.7334 44.7693V45.0631C31.7334 45.138 31.794 45.1987 31.869 45.1987H32.9923C33.0672 45.1987 33.1279 45.1381 33.1279 45.0631V44.4832C33.1279 44.4083 33.0673 44.3476 32.9923 44.3476H32.4269C32.352 44.3476 32.2912 44.4082 32.2912 44.4832V44.498C32.2912 44.5729 32.3519 44.6337 32.4269 44.6337H32.7135C32.7884 44.6337 32.8491 44.6943 32.8491 44.7693V44.7841C32.8491 44.859 32.7885 44.9197 32.7135 44.9197H32.1478C32.0729 44.9197 32.0122 44.8591 32.0122 44.7841V44.4832C32.0122 44.4083 31.9516 44.3476 31.8766 44.3476H30.7499C30.675 44.3476 30.6143 44.4082 30.6143 44.4832V45.0631C30.6143 45.1379 30.6749 45.1987 30.7499 45.1987ZM31.3112 45.1987H31.3189C31.3938 45.1987 31.4546 45.1381 31.4546 45.0631V45.0554C31.4546 44.9805 31.3939 44.9197 31.3189 44.9197H31.3112C31.2363 44.9197 31.1756 44.9804 31.1756 45.0554V45.0631C31.1756 45.1379 31.2363 45.1987 31.3112 45.1987ZM30.7499 44.0615H34.1115C34.1864 44.0615 34.2472 44.0009 34.2472 43.9259V43.911C34.2472 43.8361 34.1865 43.7754 34.1115 43.7754H30.7499C30.675 43.7754 30.6143 43.836 30.6143 43.911V43.9259C30.6143 44.0009 30.6749 44.0615 30.7499 44.0615ZM34.1114 45.1987H33.546C33.4711 45.1987 33.4103 45.1381 33.4103 45.0631V44.4832C33.4103 44.4083 33.471 44.3476 33.546 44.3476H34.3905C34.4654 44.3476 34.5262 44.2869 34.5262 44.2119V43.911C34.5262 43.8361 34.5868 43.7754 34.6618 43.7754H34.6693C34.7442 43.7754 34.805 43.836 34.805 43.911V44.7841C34.805 44.859 34.8656 44.9197 34.9406 44.9197H34.9483C35.0232 44.9197 35.084 44.8591 35.084 44.7841V43.911C35.084 43.8361 35.1446 43.7754 35.2196 43.7754H35.2271C35.302 43.7754 35.3628 43.836 35.3628 43.911V44.7841C35.3628 44.859 35.4234 44.9197 35.4984 44.9197H35.5097C35.5846 44.9197 35.6453 44.8591 35.6453 44.7841V43.911C35.6453 43.8361 35.7059 43.7754 35.7809 43.7754H35.785C35.86 43.7754 35.9207 43.836 35.9207 43.911V45.0631C35.9207 45.138 35.86 45.1987 35.785 45.1987H34.6618C34.5869 45.1987 34.5262 45.1381 34.5262 45.0631V44.7693C34.5262 44.6944 34.4655 44.6337 34.3905 44.6337H33.8251C33.7502 44.6337 33.6894 44.6943 33.6894 44.7693V44.7841C33.6894 44.859 33.7501 44.9197 33.8251 44.9197H34.1115C34.1864 44.9197 34.2472 44.9804 34.2472 45.0554V45.0631C34.2472 45.1379 34.1863 45.1987 34.1114 45.1987Z" fill="#F5F5F5"/>
<path d="M36.3393 45.1987H36.3505C36.4254 45.1987 36.4861 45.1381 36.4861 45.0631V44.7693C36.4861 44.6944 36.5468 44.6337 36.6218 44.6337H37.1837C37.2586 44.6337 37.3193 44.6943 37.3193 44.7693V45.0631C37.3193 45.138 37.38 45.1987 37.455 45.1987H38.5782C38.6531 45.1987 38.7139 45.1381 38.7139 45.0631V44.4832C38.7139 44.4083 38.6532 44.3476 38.5782 44.3476H38.0128C37.9379 44.3476 37.8771 44.4082 37.8771 44.4832V44.498C37.8771 44.5729 37.9378 44.6337 38.0128 44.6337H38.2994C38.3743 44.6337 38.4351 44.6943 38.4351 44.7693V44.7841C38.4351 44.859 38.3744 44.9197 38.2994 44.9197H37.734C37.6591 44.9197 37.5983 44.8591 37.5983 44.7841V44.4832C37.5983 44.4083 37.5377 44.3476 37.4627 44.3476H36.3393C36.2644 44.3476 36.2036 44.4082 36.2036 44.4832V45.0631C36.2037 45.1379 36.2645 45.1987 36.3393 45.1987ZM36.8972 45.1987H36.9047C36.9796 45.1987 37.0403 45.1381 37.0403 45.0631V45.0554C37.0403 44.9805 36.9797 44.9197 36.9047 44.9197H36.8972C36.8223 44.9197 36.7615 44.9804 36.7615 45.0554V45.0631C36.7616 45.1379 36.8223 45.1987 36.8972 45.1987ZM36.3393 44.0615H39.6975C39.7724 44.0615 39.8331 44.0009 39.8331 43.9259V43.911C39.8331 43.8361 39.7725 43.7754 39.6975 43.7754H36.3393C36.2644 43.7754 36.2036 43.836 36.2036 43.911V43.9259C36.2037 44.0009 36.2645 44.0615 36.3393 44.0615ZM39.6975 45.1987H39.1284C39.0535 45.1987 38.9928 45.1381 38.9928 45.0631V44.4832C38.9928 44.4083 39.0534 44.3476 39.1284 44.3476H39.9729C40.0478 44.3476 40.1086 44.2869 40.1086 44.2119V43.911C40.1086 43.8361 40.1692 43.7754 40.2442 43.7754H40.2555C40.3304 43.7754 40.3911 43.836 40.3911 43.911V44.7841C40.3911 44.859 40.4517 44.9197 40.5267 44.9197H40.538C40.6129 44.9197 40.6736 44.8591 40.6736 44.7841V43.911C40.6736 43.8361 40.7343 43.7754 40.8093 43.7754H40.8134C40.8883 43.7754 40.949 43.836 40.949 43.911V44.7841C40.949 44.859 41.0097 44.9197 41.0847 44.9197H41.0959C41.1708 44.9197 41.2315 44.8591 41.2315 44.7841V43.911C41.2315 43.8361 41.2922 43.7754 41.3672 43.7754H41.3747C41.4496 43.7754 41.5103 43.836 41.5103 43.911V45.0631C41.5103 45.138 41.4497 45.1987 41.3747 45.1987H40.2444C40.1695 45.1987 40.1088 45.1381 40.1088 45.0631V44.7693C40.1088 44.6944 40.0481 44.6337 39.9731 44.6337H39.4112C39.3363 44.6337 39.2756 44.6943 39.2756 44.7693V44.7841C39.2756 44.859 39.3362 44.9197 39.4112 44.9197H39.6978C39.7727 44.9197 39.8335 44.9804 39.8335 45.0554V45.0631C39.833 45.1379 39.7724 45.1987 39.6975 45.1987Z" fill="#F5F5F5"/>
<path d="M41.9252 45.1987H41.9327C42.0076 45.1987 42.0684 45.1381 42.0684 45.0631V44.7693C42.0684 44.6944 42.129 44.6337 42.204 44.6337H42.7696C42.8445 44.6337 42.9053 44.6943 42.9053 44.7693V45.0631C42.9053 45.138 42.9659 45.1987 43.0409 45.1987H44.1677C44.2426 45.1987 44.3033 45.1381 44.3033 45.0631V44.4832C44.3033 44.4083 44.2427 44.3476 44.1677 44.3476H43.6022C43.5273 44.3476 43.4666 44.4082 43.4666 44.4832V44.498C43.4666 44.5729 43.5272 44.6337 43.6022 44.6337H43.8889C43.9638 44.6337 44.0245 44.6943 44.0245 44.7693V44.7841C44.0245 44.859 43.9639 44.9197 43.8889 44.9197H43.3198C43.2449 44.9197 43.1842 44.8591 43.1842 44.7841V44.4832C43.1842 44.4083 43.1235 44.3476 43.0485 44.3476H41.9253C41.8504 44.3476 41.7896 44.4082 41.7896 44.4832V45.0631C41.7895 45.1379 41.8503 45.1987 41.9252 45.1987ZM42.483 45.1987H42.4905C42.5654 45.1987 42.6262 45.1381 42.6262 45.0631V45.0554C42.6262 44.9805 42.5655 44.9197 42.4905 44.9197H42.483C42.4081 44.9197 42.3474 44.9804 42.3474 45.0554V45.0631C42.3474 45.1379 42.4081 45.1987 42.483 45.1987ZM41.9252 44.0615H45.2869C45.3618 44.0615 45.4226 44.0009 45.4226 43.9259V43.911C45.4226 43.8361 45.3619 43.7754 45.2869 43.7754H41.9252C41.8503 43.7754 41.7896 43.836 41.7896 43.911V43.9259C41.7895 44.0009 41.8503 44.0615 41.9252 44.0615ZM45.2869 45.1987H44.7179C44.643 45.1987 44.5822 45.1381 44.5822 45.0631V44.4832C44.5822 44.4083 44.6429 44.3476 44.7179 44.3476H45.5622C45.6371 44.3476 45.6978 44.2869 45.6978 44.2119V43.911C45.6978 43.8361 45.7585 43.7754 45.8335 43.7754H45.8412C45.9161 43.7754 45.9768 43.836 45.9768 43.911V44.7841C45.9768 44.859 46.0375 44.9197 46.1125 44.9197H46.1237C46.1986 44.9197 46.2594 44.8591 46.2594 44.7841V43.911C46.2594 43.8361 46.32 43.7754 46.395 43.7754H46.4062C46.4811 43.7754 46.5419 43.836 46.5419 43.911V44.7841C46.5419 44.859 46.6025 44.9197 46.6775 44.9197H46.6816C46.7565 44.9197 46.8173 44.8591 46.8173 44.7841V43.911C46.8173 43.8361 46.8779 43.7754 46.9529 43.7754H46.9604C47.0353 43.7754 47.0961 43.836 47.0961 43.911V45.0631C47.0961 45.138 47.0354 45.1987 46.9604 45.1987H45.8335C45.7586 45.1987 45.6978 45.1381 45.6978 45.0631V44.7693C45.6978 44.6944 45.6372 44.6337 45.5622 44.6337H44.9968C44.9219 44.6337 44.8611 44.6943 44.8611 44.7693V44.7841C44.8611 44.859 44.9218 44.9197 44.9968 44.9197H45.2871C45.362 44.9197 45.4227 44.9804 45.4227 45.0554V45.0631C45.4226 45.1379 45.3618 45.1987 45.2869 45.1987Z" fill="#F5F5F5"/>
<path d="M47.5102 45.1987H47.5177C47.5926 45.1987 47.6533 45.1381 47.6533 45.0631V44.7693C47.6533 44.6944 47.714 44.6337 47.789 44.6337H48.3544C48.4293 44.6337 48.49 44.6943 48.49 44.7693V45.0631C48.49 45.138 48.5507 45.1987 48.6257 45.1987H49.7526C49.8275 45.1987 49.8883 45.1381 49.8883 45.0631V44.4832C49.8883 44.4083 49.8276 44.3476 49.7526 44.3476H49.1836C49.1087 44.3476 49.0479 44.4082 49.0479 44.4832V44.498C49.0479 44.5729 49.1086 44.6337 49.1836 44.6337H49.4702C49.5451 44.6337 49.6059 44.6943 49.6059 44.7693V44.7841C49.6059 44.859 49.5452 44.9197 49.4702 44.9197H48.9048C48.8299 44.9197 48.7691 44.8591 48.7691 44.7841V44.4832C48.7691 44.4083 48.7085 44.3476 48.6335 44.3476H47.5103C47.4354 44.3476 47.3746 44.4082 47.3746 44.4832V45.0631C47.3746 45.1379 47.4354 45.1987 47.5102 45.1987ZM48.0681 45.1987H48.0756C48.1505 45.1987 48.2112 45.1381 48.2112 45.0631V45.0554C48.2112 44.9805 48.1506 44.9197 48.0756 44.9197H48.0681C47.9932 44.9197 47.9324 44.9804 47.9324 45.0554V45.0631C47.9325 45.1379 47.9932 45.1987 48.0681 45.1987ZM47.5102 44.0615H50.8684C50.9433 44.0615 51.004 44.0009 51.004 43.9259V43.911C51.004 43.8361 50.9434 43.7754 50.8684 43.7754H47.5102C47.4353 43.7754 47.3745 43.836 47.3745 43.911V43.9259C47.3746 44.0009 47.4354 44.0615 47.5102 44.0615ZM50.8684 45.1987H50.2993C50.2244 45.1987 50.1637 45.1381 50.1637 45.0631V44.4832C50.1637 44.4083 50.2243 44.3476 50.2993 44.3476H51.151C51.2259 44.3476 51.2866 44.2869 51.2866 44.2119V43.911C51.2866 43.8361 51.3473 43.7754 51.4223 43.7754H51.4298C51.5047 43.7754 51.5654 43.836 51.5654 43.911V44.7841C51.5654 44.859 51.6261 44.9197 51.7011 44.9197H51.7052C51.7801 44.9197 51.8408 44.8591 51.8408 44.7841V43.911C51.8408 43.8361 51.9015 43.7754 51.9765 43.7754H51.9877C52.0626 43.7754 52.1233 43.836 52.1233 43.911V44.7841C52.1233 44.859 52.184 44.9197 52.259 44.9197H52.2667C52.3416 44.9197 52.4023 44.8591 52.4023 44.7841V43.911C52.4023 43.8361 52.463 43.7754 52.538 43.7754H52.5455C52.6204 43.7754 52.6811 43.836 52.6811 43.911V45.0631C52.6811 45.138 52.6205 45.1987 52.5455 45.1987H51.4218C51.3469 45.1987 51.2861 45.1381 51.2861 45.0631V44.7693C51.2861 44.6944 51.2255 44.6337 51.1505 44.6337H50.5814C50.5065 44.6337 50.4458 44.6943 50.4458 44.7693V44.7841C50.4458 44.859 50.5064 44.9197 50.5814 44.9197H50.8681C50.943 44.9197 51.0037 44.9804 51.0037 45.0554V45.0631C51.0039 45.1379 50.9433 45.1987 50.8684 45.1987Z" fill="#F5F5F5"/>
<path d="M53.0956 45.1987H53.1033C53.1782 45.1987 53.239 45.1381 53.239 45.0631V44.7693C53.239 44.6944 53.2996 44.6337 53.3746 44.6337H53.94C54.0149 44.6337 54.0757 44.6943 54.0757 44.7693V45.0631C54.0757 45.138 54.1363 45.1987 54.2113 45.1987H55.3383C55.4132 45.1987 55.4739 45.1381 55.4739 45.0631V44.4832C55.4739 44.4083 55.4133 44.3476 55.3383 44.3476H54.7692C54.6943 44.3476 54.6336 44.4082 54.6336 44.4832V44.498C54.6336 44.5729 54.6942 44.6337 54.7692 44.6337H55.0593C55.1342 44.6337 55.1949 44.6943 55.1949 44.7693V44.7841C55.1949 44.859 55.1343 44.9197 55.0593 44.9197H54.4938C54.4189 44.9197 54.3582 44.8591 54.3582 44.7841V44.4832C54.3582 44.4083 54.2976 44.3476 54.2226 44.3476H53.0956C53.0207 44.3476 52.96 44.4082 52.96 44.4832V45.0631C52.9601 45.1379 53.0207 45.1987 53.0956 45.1987ZM53.6571 45.1987H53.6612C53.7361 45.1987 53.7969 45.1381 53.7969 45.0631V45.0554C53.7969 44.9805 53.7362 44.9197 53.6612 44.9197H53.6571C53.5822 44.9197 53.5215 44.9804 53.5215 45.0554V45.0631C53.5215 45.1379 53.5822 45.1987 53.6571 45.1987ZM53.0956 44.0615H56.4574C56.5323 44.0615 56.5931 44.0009 56.5931 43.9259V43.911C56.5931 43.8361 56.5324 43.7754 56.4574 43.7754H53.0956C53.0207 43.7754 52.96 43.836 52.96 43.911V43.9259C52.9601 44.0009 53.0207 44.0615 53.0956 44.0615ZM56.4575 45.1987H55.8885C55.8136 45.1987 55.7528 45.1381 55.7528 45.0631V44.4832C55.7528 44.4083 55.8135 44.3476 55.8885 44.3476H56.7365C56.8114 44.3476 56.8722 44.2869 56.8722 44.2119V43.911C56.8722 43.8361 56.9328 43.7754 57.0078 43.7754H57.0153C57.0902 43.7754 57.151 43.836 57.151 43.911V44.7841C57.151 44.859 57.2116 44.9197 57.2866 44.9197H57.2943C57.3692 44.9197 57.43 44.8591 57.43 44.7841V43.911C57.43 43.8361 57.4906 43.7754 57.5656 43.7754H57.5731C57.648 43.7754 57.7088 43.836 57.7088 43.911V44.7841C57.7088 44.859 57.7694 44.9197 57.8444 44.9197H57.8519C57.9268 44.9197 57.9876 44.8591 57.9876 44.7841V43.911C57.9876 43.8361 58.0482 43.7754 58.1232 43.7754H58.1309C58.2058 43.7754 58.2666 43.836 58.2666 43.911V45.0631C58.2666 45.138 58.2059 45.1987 58.1309 45.1987H57.0077C56.9328 45.1987 56.8721 45.1381 56.8721 45.0631V44.7693C56.8721 44.6944 56.8114 44.6337 56.7364 44.6337H56.1674C56.0925 44.6337 56.0317 44.6943 56.0317 44.7693V44.7841C56.0317 44.859 56.0924 44.9197 56.1674 44.9197H56.4574C56.5323 44.9197 56.5931 44.9804 56.5931 45.0554V45.0631C56.5931 45.1379 56.5324 45.1987 56.4575 45.1987Z" fill="#F5F5F5"/>
<path d="M58.6806 45.1987H58.6883C58.7632 45.1987 58.8239 45.1381 58.8239 45.0631V44.7693C58.8239 44.6944 58.8846 44.6337 58.9596 44.6337H59.525C59.5999 44.6337 59.6606 44.6943 59.6606 44.7693V45.0631C59.6606 45.138 59.7213 45.1987 59.7963 45.1987H60.9232C60.9981 45.1987 61.0589 45.1381 61.0589 45.0631V44.4832C61.0589 44.4083 60.9982 44.3476 60.9232 44.3476H60.3576C60.2827 44.3476 60.222 44.4082 60.222 44.4832V44.498C60.222 44.5729 60.2826 44.6337 60.3576 44.6337H60.6407C60.7156 44.6337 60.7764 44.6943 60.7764 44.7693V44.7841C60.7764 44.859 60.7157 44.9197 60.6407 44.9197H60.0788C60.0039 44.9197 59.9432 44.8591 59.9432 44.7841V44.4832C59.9432 44.4083 59.8825 44.3476 59.8075 44.3476H58.6806C58.6057 44.3476 58.5449 44.4082 58.5449 44.4832V45.0631C58.5449 45.1379 58.6057 45.1987 58.6806 45.1987ZM59.242 45.1987H59.2461C59.321 45.1987 59.3817 45.1381 59.3817 45.0631V45.0554C59.3817 44.9805 59.3211 44.9197 59.2461 44.9197H59.242C59.1671 44.9197 59.1063 44.9804 59.1063 45.0554V45.0631C59.1064 45.1379 59.1671 45.1987 59.242 45.1987ZM58.6806 44.0615H62.0423C62.1172 44.0615 62.1779 44.0009 62.1779 43.9259V43.911C62.1779 43.8361 62.1173 43.7754 62.0423 43.7754H58.6806C58.6057 43.7754 58.5449 43.836 58.5449 43.911V43.9259C58.5449 44.0009 58.6057 44.0615 58.6806 44.0615ZM62.0424 45.1987H61.4769C61.402 45.1987 61.3413 45.1381 61.3413 45.0631V44.4832C61.3413 44.4083 61.4019 44.3476 61.4769 44.3476H62.3213C62.3962 44.3476 62.4569 44.2869 62.4569 44.2119V43.911C62.4569 43.8361 62.5176 43.7754 62.5926 43.7754H62.6003C62.6752 43.7754 62.7359 43.836 62.7359 43.911V44.7841C62.7359 44.859 62.7966 44.9197 62.8716 44.9197H62.8791C62.954 44.9197 63.0147 44.8591 63.0147 44.7841V43.911C63.0147 43.8361 63.0754 43.7754 63.1504 43.7754H63.1581C63.233 43.7754 63.2937 43.836 63.2937 43.911V44.7841C63.2937 44.859 63.3544 44.9197 63.4294 44.9197H63.4369C63.5118 44.9197 63.5725 44.8591 63.5725 44.7841V43.911C63.5725 43.8361 63.6332 43.7754 63.7082 43.7754H63.7159C63.7908 43.7754 63.8516 43.836 63.8516 43.911V45.0631C63.8516 45.138 63.7909 45.1987 63.7159 45.1987H62.5924C62.5175 45.1987 62.4567 45.1381 62.4567 45.0631V44.7693C62.4567 44.6944 62.3961 44.6337 62.3211 44.6337H61.7521C61.6772 44.6337 61.6165 44.6943 61.6165 44.7693V44.7841C61.6165 44.859 61.6771 44.9197 61.7521 44.9197H62.0422C62.1171 44.9197 62.1778 44.9804 62.1778 45.0554V45.0631C62.178 45.1379 62.1172 45.1987 62.0424 45.1987Z" fill="#F5F5F5"/>
<path d="M64.266 45.1987H64.2737C64.3486 45.1987 64.4094 45.1381 64.4094 45.0631V44.7693C64.4094 44.6944 64.47 44.6337 64.545 44.6337H65.114C65.1889 44.6337 65.2496 44.6943 65.2496 44.7693V45.0631C65.2496 45.138 65.3102 45.1987 65.3852 45.1987H66.5088C66.5837 45.1987 66.6444 45.1381 66.6444 45.0631V44.4832C66.6444 44.4083 66.5838 44.3476 66.5088 44.3476H65.9432C65.8683 44.3476 65.8075 44.4082 65.8075 44.4832V44.498C65.8075 44.5729 65.8682 44.6337 65.9432 44.6337H66.2335C66.3084 44.6337 66.3691 44.6943 66.3691 44.7693V44.7841C66.3691 44.859 66.3085 44.9197 66.2335 44.9197H65.6607C65.5858 44.9197 65.5251 44.8591 65.5251 44.7841V44.4832C65.5251 44.4083 65.4644 44.3476 65.3894 44.3476H64.2662C64.1913 44.3476 64.1306 44.4082 64.1306 44.4832V45.0631C64.1305 45.1379 64.1911 45.1987 64.266 45.1987ZM64.8239 45.1987H64.8352C64.9101 45.1987 64.9708 45.1381 64.9708 45.0631V45.0554C64.9708 44.9805 64.9102 44.9197 64.8352 44.9197H64.8239C64.749 44.9197 64.6883 44.9804 64.6883 45.0554V45.0631C64.6883 45.1379 64.749 45.1987 64.8239 45.1987ZM64.266 44.0615H67.6277C67.7026 44.0615 67.7634 44.0009 67.7634 43.9259V43.911C67.7634 43.8361 67.7027 43.7754 67.6277 43.7754H64.266C64.1911 43.7754 64.1304 43.836 64.1304 43.911V43.9259C64.1305 44.0009 64.1911 44.0615 64.266 44.0615ZM67.6279 45.1987H67.0625C66.9876 45.1987 66.9268 45.1381 66.9268 45.0631V44.4832C66.9268 44.4083 66.9875 44.3476 67.0625 44.3476H67.9068C67.9817 44.3476 68.0425 44.2869 68.0425 44.2119V43.911C68.0425 43.8361 68.1031 43.7754 68.1781 43.7754H68.1858C68.2607 43.7754 68.3215 43.836 68.3215 43.911V44.7841C68.3215 44.859 68.3821 44.9197 68.4571 44.9197H68.4646C68.5395 44.9197 68.6003 44.8591 68.6003 44.7841V43.911C68.6003 43.8361 68.6609 43.7754 68.7359 43.7754H68.7436C68.8185 43.7754 68.8793 43.836 68.8793 43.911V44.7841C68.8793 44.859 68.9399 44.9197 69.0149 44.9197H69.0262C69.1011 44.9197 69.1618 44.8591 69.1618 44.7841V43.911C69.1618 43.8361 69.2224 43.7754 69.2974 43.7754H69.3013C69.3762 43.7754 69.437 43.836 69.437 43.911V45.0631C69.437 45.138 69.3763 45.1987 69.3013 45.1987H68.1781C68.1032 45.1987 68.0425 45.1381 68.0425 45.0631V44.7693C68.0425 44.6944 67.9818 44.6337 67.9068 44.6337H67.3449C67.27 44.6337 67.2093 44.6943 67.2093 44.7693V44.7841C67.2093 44.859 67.2699 44.9197 67.3449 44.9197H67.628C67.7029 44.9197 67.7637 44.9804 67.7637 45.0554V45.0631C67.7635 45.1379 67.7028 45.1987 67.6279 45.1987Z" fill="#F5F5F5"/>
<path d="M69.8554 45.1987H69.8595C69.9344 45.1987 69.9951 45.1381 69.9951 45.0631V44.7693C69.9951 44.6944 70.0558 44.6337 70.1308 44.6337H70.6964C70.7713 44.6337 70.832 44.6943 70.832 44.7693V45.0631C70.832 45.138 70.8927 45.1987 70.9677 45.1987H72.0944C72.1693 45.1987 72.2301 45.1381 72.2301 45.0631V44.4832C72.2301 44.4083 72.1694 44.3476 72.0944 44.3476H71.5327C71.4578 44.3476 71.3971 44.4082 71.3971 44.4832V44.498C71.3971 44.5729 71.4577 44.6337 71.5327 44.6337H71.8191C71.894 44.6337 71.9548 44.6943 71.9548 44.7693V44.7841C71.9548 44.859 71.8941 44.9197 71.8191 44.9197H71.2502C71.1753 44.9197 71.1145 44.8591 71.1145 44.7841V44.4832C71.1145 44.4083 71.0539 44.3476 70.9789 44.3476H69.8554C69.7805 44.3476 69.7197 44.4082 69.7197 44.4832V45.0631C69.7196 45.1379 69.7805 45.1987 69.8554 45.1987ZM70.4132 45.1987H70.4209C70.4958 45.1987 70.5565 45.1381 70.5565 45.0631V45.0554C70.5565 44.9805 70.4959 44.9197 70.4209 44.9197H70.4132C70.3383 44.9197 70.2775 44.9804 70.2775 45.0554V45.0631C70.2775 45.1379 70.3383 45.1987 70.4132 45.1987ZM69.8554 44.0615H73.2208C73.2957 44.0615 73.3564 44.0009 73.3564 43.9259V43.911C73.3564 43.8361 73.2958 43.7754 73.2208 43.7754H69.8554C69.7805 43.7754 69.7197 43.836 69.7197 43.911V43.9259C69.7196 44.0009 69.7805 44.0615 69.8554 44.0615ZM73.2207 45.1987H72.6479C72.573 45.1987 72.5123 45.1381 72.5123 45.0631V44.4832C72.5123 44.4083 72.5729 44.3476 72.6479 44.3476H73.4925C73.5674 44.3476 73.6281 44.2869 73.6281 44.2119V43.911C73.6281 43.8361 73.6888 43.7754 73.7638 43.7754H73.775C73.8499 43.7754 73.9106 43.836 73.9106 43.911V44.7841C73.9106 44.859 73.9713 44.9197 74.0463 44.9197H74.0538C74.1287 44.9197 74.1894 44.8591 74.1894 44.7841V43.911C74.1894 43.8361 74.2501 43.7754 74.3251 43.7754H74.3292C74.4041 43.7754 74.4648 43.836 74.4648 43.911V44.7841C74.4648 44.859 74.5255 44.9197 74.6005 44.9197H74.6117C74.6866 44.9197 74.7474 44.8591 74.7474 44.7841V43.911C74.7474 43.8361 74.808 43.7754 74.883 43.7754H74.8907C74.9656 43.7754 75.0264 43.836 75.0264 43.911V45.0631C75.0264 45.138 74.9657 45.1987 74.8907 45.1987H73.7638C73.6889 45.1987 73.6281 45.1381 73.6281 45.0631V44.7693C73.6281 44.6944 73.5675 44.6337 73.4925 44.6337H72.927C72.8521 44.6337 72.7914 44.6943 72.7914 44.7693V44.7841C72.7914 44.859 72.852 44.9197 72.927 44.9197H73.2208C73.2957 44.9197 73.3564 44.9804 73.3564 45.0554V45.0631C73.3564 45.1379 73.2956 45.1987 73.2207 45.1987Z" fill="#F5F5F5"/>
<path d="M75.4408 45.1987H75.4485C75.5234 45.1987 75.5842 45.1381 75.5842 45.0631V44.7693C75.5842 44.6944 75.6448 44.6337 75.7198 44.6337H76.2853C76.3602 44.6337 76.4209 44.6943 76.4209 44.7693V45.0631C76.4209 45.138 76.4815 45.1987 76.5565 45.1987H77.6835C77.7584 45.1987 77.8191 45.1381 77.8191 45.0631V44.4832C77.8191 44.4083 77.7585 44.3476 77.6835 44.3476H77.1216C77.0467 44.3476 76.9859 44.4082 76.9859 44.4832V44.498C76.9859 44.5729 77.0466 44.6337 77.1216 44.6337H77.4082C77.4831 44.6337 77.5438 44.6943 77.5438 44.7693V44.7841C77.5438 44.859 77.4832 44.9197 77.4082 44.9197H76.8354C76.7605 44.9197 76.6998 44.8591 76.6998 44.7841V44.4832C76.6998 44.4083 76.6392 44.3476 76.5642 44.3476H75.4409C75.366 44.3476 75.3053 44.4082 75.3053 44.4832V45.0631C75.3053 45.1379 75.366 45.1987 75.4408 45.1987ZM75.9987 45.1987H76.0064C76.0813 45.1987 76.1421 45.1381 76.1421 45.0631V45.0554C76.1421 44.9805 76.0814 44.9197 76.0064 44.9197H75.9987C75.9238 44.9197 75.8631 44.9804 75.8631 45.0554V45.0631C75.8632 45.1379 75.9238 45.1987 75.9987 45.1987ZM75.4408 44.0615H78.799C78.8739 44.0615 78.9347 44.0009 78.9347 43.9259V43.911C78.9347 43.8361 78.874 43.7754 78.799 43.7754H75.4408C75.3659 43.7754 75.3052 43.836 75.3052 43.911V43.9259C75.3053 44.0009 75.366 44.0615 75.4408 44.0615ZM78.799 45.1987H78.2336C78.1587 45.1987 78.0979 45.1381 78.0979 45.0631V44.4832C78.0979 44.4083 78.1586 44.3476 78.2336 44.3476H79.0852C79.1601 44.3476 79.2209 44.2869 79.2209 44.2119V43.911C79.2209 43.8361 79.2815 43.7754 79.3565 43.7754H79.3569C79.4318 43.7754 79.4926 43.836 79.4926 43.911V44.7841C79.4926 44.859 79.5532 44.9197 79.6282 44.9197H79.6431C79.718 44.9197 79.7787 44.8591 79.7787 44.7841V43.911C79.7787 43.8361 79.8393 43.7754 79.9143 43.7754H79.9147C79.9896 43.7754 80.0504 43.836 80.0504 43.911V44.7841C80.0504 44.859 80.111 44.9197 80.186 44.9197H80.1937C80.2686 44.9197 80.3294 44.8591 80.3294 44.7841V43.911C80.3294 43.8361 80.39 43.7754 80.465 43.7754H80.4798C80.5547 43.7754 80.6154 43.836 80.6154 43.911V45.0631C80.6154 45.138 80.5548 45.1987 80.4798 45.1987H79.3565C79.2816 45.1987 79.2209 45.1381 79.2209 45.0631V44.7693C79.2209 44.6944 79.1602 44.6337 79.0852 44.6337H78.5126C78.4377 44.6337 78.3769 44.6943 78.3769 44.7693V44.7841C78.3769 44.859 78.4376 44.9197 78.5126 44.9197H78.799C78.8739 44.9197 78.9347 44.9804 78.9347 45.0554V45.0631C78.9347 45.1379 78.8739 45.1987 78.799 45.1987Z" fill="#F5F5F5"/>
<path d="M30.7509 46.0639H32.9934C33.0683 46.0639 33.129 46.0032 33.129 45.9282V45.6273C33.129 45.5524 33.0684 45.4917 32.9934 45.4917H30.7509C30.676 45.4917 30.6152 45.5523 30.6152 45.6273V45.9282C30.6152 46.0032 30.6759 46.0639 30.7509 46.0639ZM33.5471 46.0639H35.786C35.8609 46.0639 35.9217 46.0032 35.9217 45.9282V45.6273C35.9217 45.5524 35.861 45.4917 35.786 45.4917H33.5471C33.4722 45.4917 33.4114 45.5523 33.4114 45.6273V45.9282C33.4114 46.0032 33.4722 46.0639 33.5471 46.0639Z" fill="#F5F5F5"/>
<path d="M36.3393 46.0639H38.5782C38.6531 46.0639 38.7139 46.0032 38.7139 45.9282V45.6273C38.7139 45.5524 38.6532 45.4917 38.5782 45.4917H36.3393C36.2644 45.4917 36.2036 45.5523 36.2036 45.6273V45.9282C36.2037 46.0032 36.2645 46.0639 36.3393 46.0639ZM39.1284 46.0639H41.3745C41.4494 46.0639 41.5101 46.0032 41.5101 45.9282V45.6273C41.5101 45.5524 41.4495 45.4917 41.3745 45.4917H39.1284C39.0535 45.4917 38.9928 45.5523 38.9928 45.6273V45.9282C38.9928 46.0032 39.0535 46.0639 39.1284 46.0639Z" fill="#F5F5F5"/>
<path d="M41.9252 46.0639H44.1677C44.2426 46.0639 44.3033 46.0032 44.3033 45.9282V45.6273C44.3033 45.5524 44.2427 45.4917 44.1677 45.4917H41.9252C41.8503 45.4917 41.7896 45.5523 41.7896 45.6273V45.9282C41.7895 46.0032 41.8503 46.0639 41.9252 46.0639ZM44.7178 46.0639H46.9602C47.0351 46.0639 47.0959 46.0032 47.0959 45.9282V45.6273C47.0959 45.5524 47.0352 45.4917 46.9602 45.4917H44.7178C44.6429 45.4917 44.5821 45.5523 44.5821 45.6273V45.9282C44.5822 46.0032 44.643 46.0639 44.7178 46.0639Z" fill="#F5F5F5"/>
<path d="M47.5102 46.0639H49.7526C49.8275 46.0639 49.8883 46.0032 49.8883 45.9282V45.6273C49.8883 45.5524 49.8276 45.4917 49.7526 45.4917H47.5102C47.4353 45.4917 47.3745 45.5523 47.3745 45.6273V45.9282C47.3746 46.0032 47.4354 46.0639 47.5102 46.0639ZM50.2993 46.0639H52.5454C52.6203 46.0639 52.681 46.0032 52.681 45.9282V45.6273C52.681 45.5524 52.6204 45.4917 52.5454 45.4917H50.2993C50.2244 45.4917 50.1637 45.5523 50.1637 45.6273V45.9282C50.1637 46.0032 50.2243 46.0639 50.2993 46.0639Z" fill="#F5F5F5"/>
<path d="M53.0956 46.0639H55.3383C55.4132 46.0639 55.4739 46.0032 55.4739 45.9282V45.6273C55.4739 45.5524 55.4133 45.4917 55.3383 45.4917H53.0956C53.0207 45.4917 52.96 45.5523 52.96 45.6273V45.9282C52.9601 46.0032 53.0207 46.0639 53.0956 46.0639ZM55.8883 46.0639H58.1309C58.2058 46.0639 58.2666 46.0032 58.2666 45.9282V45.6273C58.2666 45.5524 58.2059 45.4917 58.1309 45.4917H55.8883C55.8134 45.4917 55.7526 45.5523 55.7526 45.6273V45.9282C55.7527 46.0032 55.8134 46.0639 55.8883 46.0639Z" fill="#F5F5F5"/>
<path d="M58.6806 46.0639H60.9232C60.9981 46.0639 61.0589 46.0032 61.0589 45.9282V45.6273C61.0589 45.5524 60.9982 45.4917 60.9232 45.4917H58.6806C58.6057 45.4917 58.5449 45.5523 58.5449 45.6273V45.9282C58.5449 46.0032 58.6057 46.0639 58.6806 46.0639ZM61.4769 46.0639H63.7159C63.7908 46.0639 63.8516 46.0032 63.8516 45.9282V45.6273C63.8516 45.5524 63.7909 45.4917 63.7159 45.4917H61.4769C61.402 45.4917 61.3413 45.5523 61.3413 45.6273V45.9282C61.3413 46.0032 61.402 46.0639 61.4769 46.0639Z" fill="#F5F5F5"/>
<path d="M64.266 46.0639H66.5087C66.5836 46.0639 66.6443 46.0032 66.6443 45.9282V45.6273C66.6443 45.5524 66.5837 45.4917 66.5087 45.4917H64.266C64.1911 45.4917 64.1304 45.5523 64.1304 45.6273V45.9282C64.1305 46.0032 64.1911 46.0639 64.266 46.0639ZM67.0624 46.0639H69.3012C69.3761 46.0639 69.4368 46.0032 69.4368 45.9282V45.6273C69.4368 45.5524 69.3762 45.4917 69.3012 45.4917H67.0624C66.9875 45.4917 66.9267 45.5523 66.9267 45.6273V45.9282C66.9268 46.0032 66.9875 46.0639 67.0624 46.0639Z" fill="#F5F5F5"/>
<path d="M69.8554 46.0639H72.0943C72.1692 46.0639 72.23 46.0032 72.23 45.9282V45.6273C72.23 45.5524 72.1693 45.4917 72.0943 45.4917H69.8554C69.7805 45.4917 69.7197 45.5523 69.7197 45.6273V45.9282C69.7196 46.0032 69.7805 46.0639 69.8554 46.0639ZM72.648 46.0639H74.8907C74.9656 46.0639 75.0264 46.0032 75.0264 45.9282V45.6273C75.0264 45.5524 74.9657 45.4917 74.8907 45.4917H72.648C72.5731 45.4917 72.5124 45.5523 72.5124 45.6273V45.9282C72.5124 46.0032 72.5731 46.0639 72.648 46.0639Z" fill="#F5F5F5"/>
<path d="M75.4408 46.0639H77.6835C77.7584 46.0639 77.8191 46.0032 77.8191 45.9282V45.6273C77.8191 45.5524 77.7585 45.4917 77.6835 45.4917H75.4408C75.3659 45.4917 75.3052 45.5523 75.3052 45.6273V45.9282C75.3053 46.0032 75.366 46.0639 75.4408 46.0639ZM78.2337 46.0639H80.4798C80.5547 46.0639 80.6154 46.0032 80.6154 45.9282V45.6273C80.6154 45.5524 80.5548 45.4917 80.4798 45.4917H78.2337C78.1588 45.4917 78.098 45.5523 78.098 45.6273V45.9282C78.0979 46.0032 78.1587 46.0639 78.2337 46.0639Z" fill="#F5F5F5"/>
<path d="M80.4794 57.2739H80.4719C80.397 57.2739 80.3362 57.3346 80.3362 57.4096V57.7033C80.3362 57.7782 80.2756 57.839 80.2006 57.839H79.6315C79.5566 57.839 79.4959 57.7783 79.4959 57.7033V57.4096C79.4959 57.3347 79.4352 57.2739 79.3602 57.2739H78.237C78.1621 57.2739 78.1014 57.3346 78.1014 57.4096V57.9895C78.1014 58.0645 78.162 58.1252 78.237 58.1252H78.8024C78.8773 58.1252 78.9381 58.0645 78.9381 57.9895V57.9747C78.9381 57.8998 78.8774 57.8391 78.8024 57.8391H78.5158C78.4409 57.8391 78.3802 57.7784 78.3802 57.7034V57.6887C78.3802 57.6138 78.4408 57.553 78.5158 57.553H79.0814C79.1563 57.553 79.2171 57.6137 79.2171 57.6887V57.9895C79.2171 58.0645 79.2777 58.1252 79.3527 58.1252H80.4795C80.5544 58.1252 80.6151 58.0645 80.6151 57.9895V57.4096C80.615 57.3347 80.5544 57.2739 80.4794 57.2739ZM79.9181 57.2739H79.9103C79.8354 57.2739 79.7747 57.3346 79.7747 57.4096V57.4173C79.7747 57.4922 79.8353 57.5529 79.9103 57.5529H79.9181C79.993 57.5529 80.0537 57.4923 80.0537 57.4173V57.4096C80.0537 57.3347 79.993 57.2739 79.9181 57.2739ZM80.4794 58.4111H77.1178C77.0429 58.4111 76.9821 58.4718 76.9821 58.5468V58.5616C76.9821 58.6365 77.0428 58.6973 77.1178 58.6973H80.4794C80.5543 58.6973 80.615 58.6366 80.615 58.5616V58.5468C80.615 58.4718 80.5544 58.4111 80.4794 58.4111ZM77.1179 57.2739H77.6833C77.7582 57.2739 77.8189 57.3346 77.8189 57.4096V57.9895C77.8189 58.0645 77.7583 58.1252 77.6833 58.1252H76.8388C76.7639 58.1252 76.7031 58.1858 76.7031 58.2608V58.5617C76.7031 58.6366 76.6425 58.6974 76.5675 58.6974H76.56C76.4851 58.6974 76.4243 58.6367 76.4243 58.5617V57.6887C76.4243 57.6138 76.3637 57.553 76.2887 57.553H76.281C76.2061 57.553 76.1453 57.6137 76.1453 57.6887V58.5617C76.1453 58.6366 76.0847 58.6974 76.0097 58.6974H76.0021C75.9272 58.6974 75.8665 58.6367 75.8665 58.5617V57.6887C75.8665 57.6138 75.8059 57.553 75.7309 57.553H75.7196C75.6447 57.553 75.584 57.6137 75.584 57.6887V58.5617C75.584 58.6366 75.5233 58.6974 75.4483 58.6974H75.4442C75.3693 58.6974 75.3086 58.6367 75.3086 58.5617V57.4097C75.3086 57.3348 75.3692 57.274 75.4442 57.274H76.5675C76.6424 57.274 76.7031 57.3347 76.7031 57.4097V57.7034C76.7031 57.7783 76.7638 57.8391 76.8388 57.8391H77.4042C77.4791 57.8391 77.5398 57.7784 77.5398 57.7034V57.6887C77.5398 57.6138 77.4792 57.553 77.4042 57.553H77.1178C77.0429 57.553 76.9821 57.4924 76.9821 57.4174V57.4097C76.9821 57.3347 77.043 57.2739 77.1179 57.2739Z" fill="#F5F5F5"/>
<path d="M74.8908 57.2739H74.8796C74.8047 57.2739 74.7439 57.3346 74.7439 57.4096V57.7033C74.7439 57.7782 74.6833 57.839 74.6083 57.839H74.0464C73.9715 57.839 73.9107 57.7783 73.9107 57.7033V57.4096C73.9107 57.3347 73.8501 57.2739 73.7751 57.2739H72.6518C72.5769 57.2739 72.5162 57.3346 72.5162 57.4096V57.9895C72.5162 58.0645 72.5768 58.1252 72.6518 58.1252H73.2173C73.2922 58.1252 73.3529 58.0645 73.3529 57.9895V57.9747C73.3529 57.8998 73.2923 57.8391 73.2173 57.8391H72.9307C72.8558 57.8391 72.795 57.7784 72.795 57.7034V57.6887C72.795 57.6138 72.8557 57.553 72.9307 57.553H73.4963C73.5712 57.553 73.6319 57.6137 73.6319 57.6887V57.9895C73.6319 58.0645 73.6926 58.1252 73.7676 58.1252H74.8908C74.9657 58.1252 75.0265 58.0645 75.0265 57.9895V57.4096C75.0264 57.3347 74.9656 57.2739 74.8908 57.2739ZM74.3329 57.2739H74.3254C74.2505 57.2739 74.1897 57.3346 74.1897 57.4096V57.4173C74.1897 57.4922 74.2504 57.5529 74.3254 57.5529H74.3329C74.4078 57.5529 74.4685 57.4923 74.4685 57.4173V57.4096C74.4685 57.3347 74.4078 57.2739 74.3329 57.2739ZM74.8908 58.4111H71.5326C71.4577 58.4111 71.397 58.4718 71.397 58.5468V58.5616C71.397 58.6365 71.4576 58.6973 71.5326 58.6973H74.8908C74.9657 58.6973 75.0265 58.6366 75.0265 58.5616V58.5468C75.0264 58.4718 74.9656 58.4111 74.8908 58.4111ZM71.5326 57.2739H72.1017C72.1766 57.2739 72.2373 57.3346 72.2373 57.4096V57.9895C72.2373 58.0645 72.1767 58.1252 72.1017 58.1252H71.2571C71.1822 58.1252 71.1215 58.1858 71.1215 58.2608V58.5617C71.1215 58.6366 71.0608 58.6974 70.9858 58.6974H70.9746C70.8997 58.6974 70.839 58.6367 70.839 58.5617V57.6887C70.839 57.6138 70.7783 57.553 70.7033 57.553H70.6921C70.6172 57.553 70.5564 57.6137 70.5564 57.6887V58.5617C70.5564 58.6366 70.4958 58.6974 70.4208 58.6974H70.4167C70.3418 58.6974 70.2811 58.6367 70.2811 58.5617V57.6887C70.2811 57.6138 70.2204 57.553 70.1454 57.553H70.1342C70.0593 57.553 69.9985 57.6137 69.9985 57.6887V58.5617C69.9985 58.6366 69.9379 58.6974 69.8629 58.6974H69.8554C69.7805 58.6974 69.7197 58.6367 69.7197 58.5617V57.4097C69.7197 57.3348 69.7804 57.274 69.8554 57.274H70.9857C71.0606 57.274 71.1214 57.3347 71.1214 57.4097V57.7034C71.1214 57.7783 71.182 57.8391 71.257 57.8391H71.8189C71.8938 57.8391 71.9546 57.7784 71.9546 57.7034V57.6887C71.9546 57.6138 71.8939 57.553 71.8189 57.553H71.5323C71.4574 57.553 71.3967 57.4924 71.3967 57.4174V57.4097C71.397 57.3347 71.4577 57.2739 71.5326 57.2739Z" fill="#F5F5F5"/>
<path d="M69.3047 57.2739H69.2972C69.2223 57.2739 69.1615 57.3346 69.1615 57.4096V57.7033C69.1615 57.7782 69.1009 57.839 69.0259 57.839H68.4602C68.3853 57.839 68.3246 57.7783 68.3246 57.7033V57.4096C68.3246 57.3347 68.264 57.2739 68.189 57.2739H67.0622C66.9873 57.2739 66.9266 57.3346 66.9266 57.4096V57.9895C66.9266 58.0645 66.9872 58.1252 67.0622 58.1252H67.6276C67.7025 58.1252 67.7633 58.0645 67.7633 57.9895V57.9747C67.7633 57.8998 67.7026 57.8391 67.6276 57.8391H67.341C67.2661 57.8391 67.2054 57.7784 67.2054 57.7034V57.6887C67.2054 57.6138 67.266 57.553 67.341 57.553H67.9101C67.985 57.553 68.0457 57.6137 68.0457 57.6887V57.9895C68.0457 58.0645 68.1063 58.1252 68.1813 58.1252H69.3046C69.3795 58.1252 69.4402 58.0645 69.4402 57.9895V57.4096C69.4404 57.3347 69.3796 57.2739 69.3047 57.2739ZM68.7469 57.2739H68.7394C68.6644 57.2739 68.6037 57.3346 68.6037 57.4096V57.4173C68.6037 57.4922 68.6644 57.5529 68.7394 57.5529H68.7469C68.8218 57.5529 68.8825 57.4923 68.8825 57.4173V57.4096C68.8825 57.3347 68.8218 57.2739 68.7469 57.2739ZM69.3047 58.4111H65.9429C65.868 58.4111 65.8072 58.4718 65.8072 58.5468V58.5616C65.8072 58.6365 65.8679 58.6973 65.9429 58.6973H69.3047C69.3796 58.6973 69.4403 58.6366 69.4403 58.5616V58.5468C69.4404 58.4718 69.3796 58.4111 69.3047 58.4111ZM65.943 57.2739H66.512C66.5869 57.2739 66.6477 57.3346 66.6477 57.4096V57.9895C66.6477 58.0645 66.587 58.1252 66.512 58.1252H65.6677C65.5928 58.1252 65.532 58.1858 65.532 58.2608V58.5617C65.532 58.6366 65.4714 58.6974 65.3964 58.6974H65.3887C65.3138 58.6974 65.253 58.6367 65.253 58.5617V57.6887C65.253 57.6138 65.1924 57.553 65.1174 57.553H65.1062C65.0312 57.553 64.9705 57.6137 64.9705 57.6887V58.5617C64.9705 58.6366 64.9099 58.6974 64.8349 58.6974H64.8236C64.7487 58.6974 64.688 58.6367 64.688 58.5617V57.6887C64.688 57.6138 64.6273 57.553 64.5523 57.553H64.5482C64.4733 57.553 64.4126 57.6137 64.4126 57.6887V58.5617C64.4126 58.6366 64.352 58.6974 64.277 58.6974H64.2694C64.1945 58.6974 64.1338 58.6367 64.1338 58.5617V57.4097C64.1338 57.3348 64.1944 57.274 64.2694 57.274H65.3964C65.4713 57.274 65.532 57.3347 65.532 57.4097V57.7034C65.532 57.7783 65.5927 57.8391 65.6677 57.8391H66.2331C66.308 57.8391 66.3687 57.7784 66.3687 57.7034V57.6887C66.3687 57.6138 66.3081 57.553 66.2331 57.553H65.9428C65.8679 57.553 65.8071 57.4924 65.8071 57.4174V57.4097C65.8073 57.3347 65.8681 57.2739 65.943 57.2739Z" fill="#F5F5F5"/>
<path d="M63.7198 57.2739H63.7123C63.6374 57.2739 63.5767 57.3346 63.5767 57.4096V57.7033C63.5767 57.7782 63.516 57.839 63.441 57.839H62.8756C62.8007 57.839 62.7399 57.7783 62.7399 57.7033V57.4096C62.7399 57.3347 62.6793 57.2739 62.6043 57.2739H61.4773C61.4024 57.2739 61.3417 57.3346 61.3417 57.4096V57.9895C61.3417 58.0645 61.4023 58.1252 61.4773 58.1252H62.0464C62.1213 58.1252 62.182 58.0645 62.182 57.9895V57.9747C62.182 57.8998 62.1214 57.8391 62.0464 57.8391H61.7598C61.6849 57.8391 61.6241 57.7784 61.6241 57.7034V57.6887C61.6241 57.6138 61.6848 57.553 61.7598 57.553H62.3252C62.4001 57.553 62.4608 57.6137 62.4608 57.6887V57.9895C62.4608 58.0645 62.5215 58.1252 62.5965 58.1252H63.7197C63.7946 58.1252 63.8554 58.0645 63.8554 57.9895V57.4096C63.8554 57.3347 63.7946 57.2739 63.7198 57.2739ZM63.1619 57.2739H63.1544C63.0795 57.2739 63.0187 57.3346 63.0187 57.4096V57.4173C63.0187 57.4922 63.0794 57.5529 63.1544 57.5529H63.1619C63.2368 57.5529 63.2976 57.4923 63.2976 57.4173V57.4096C63.2975 57.3347 63.2368 57.2739 63.1619 57.2739ZM63.7198 58.4111H60.3616C60.2867 58.4111 60.226 58.4718 60.226 58.5468V58.5616C60.226 58.6365 60.2866 58.6973 60.3616 58.6973H63.7198C63.7947 58.6973 63.8555 58.6366 63.8555 58.5616V58.5468C63.8554 58.4718 63.7946 58.4111 63.7198 58.4111ZM60.3616 57.2739H60.9307C61.0056 57.2739 61.0663 57.3346 61.0663 57.4096V57.9895C61.0663 58.0645 61.0057 58.1252 60.9307 58.1252H60.079C60.0041 58.1252 59.9434 58.1858 59.9434 58.2608V58.5617C59.9434 58.6366 59.8827 58.6974 59.8077 58.6974H59.8002C59.7253 58.6974 59.6646 58.6367 59.6646 58.5617V57.6887C59.6646 57.6138 59.6039 57.553 59.5289 57.553H59.5248C59.4499 57.553 59.3892 57.6137 59.3892 57.6887V58.5617C59.3892 58.6366 59.3285 58.6974 59.2535 58.6974H59.2423C59.1674 58.6974 59.1066 58.6367 59.1066 58.5617V57.6887C59.1066 57.6138 59.046 57.553 58.971 57.553H58.9633C58.8884 57.553 58.8276 57.6137 58.8276 57.6887V58.5617C58.8276 58.6366 58.767 58.6974 58.692 58.6974H58.6845C58.6096 58.6974 58.5488 58.6367 58.5488 58.5617V57.4097C58.5488 57.3348 58.6095 57.274 58.6845 57.274H59.8077C59.8826 57.274 59.9434 57.3347 59.9434 57.4097V57.7034C59.9434 57.7783 60.004 57.8391 60.079 57.8391H60.648C60.7229 57.8391 60.7837 57.7784 60.7837 57.7034V57.6887C60.7837 57.6138 60.723 57.553 60.648 57.553H60.3614C60.2865 57.553 60.2258 57.4924 60.2258 57.4174V57.4097C60.2261 57.3347 60.2867 57.2739 60.3616 57.2739Z" fill="#F5F5F5"/>
<path d="M58.1344 57.2739H58.1267C58.0517 57.2739 57.991 57.3346 57.991 57.4096V57.7033C57.991 57.7782 57.9304 57.839 57.8554 57.839H57.2899C57.215 57.839 57.1543 57.7783 57.1543 57.7033V57.4096C57.1543 57.3347 57.0936 57.2739 57.0186 57.2739H55.8917C55.8168 57.2739 55.7561 57.3346 55.7561 57.4096V57.9895C55.7561 58.0645 55.8167 58.1252 55.8917 58.1252H56.4607C56.5356 58.1252 56.5964 58.0645 56.5964 57.9895V57.9747C56.5964 57.8998 56.5357 57.8391 56.4607 57.8391H56.1707C56.0958 57.8391 56.0351 57.7784 56.0351 57.7034V57.6887C56.0351 57.6138 56.0957 57.553 56.1707 57.553H56.7361C56.811 57.553 56.8718 57.6137 56.8718 57.6887V57.9895C56.8718 58.0645 56.9324 58.1252 57.0074 58.1252H58.1344C58.2093 58.1252 58.27 58.0645 58.27 57.9895V57.4096C58.2699 57.3347 58.2093 57.2739 58.1344 57.2739ZM57.5728 57.2739H57.5687C57.4938 57.2739 57.4331 57.3346 57.4331 57.4096V57.4173C57.4331 57.4922 57.4937 57.5529 57.5687 57.5529H57.5728C57.6477 57.5529 57.7085 57.4923 57.7085 57.4173V57.4096C57.7085 57.3347 57.6477 57.2739 57.5728 57.2739ZM58.1344 58.4111H54.7726C54.6977 58.4111 54.6369 58.4718 54.6369 58.5468V58.5616C54.6369 58.6365 54.6976 58.6973 54.7726 58.6973H58.1344C58.2093 58.6973 58.27 58.6366 58.27 58.5616V58.5468C58.2699 58.4718 58.2093 58.4111 58.1344 58.4111ZM54.7725 57.2739H55.3415C55.4164 57.2739 55.4771 57.3346 55.4771 57.4096V57.9895C55.4771 58.0645 55.4165 58.1252 55.3415 58.1252H54.4935C54.4186 58.1252 54.3578 58.1858 54.3578 58.2608V58.5617C54.3578 58.6366 54.2972 58.6974 54.2222 58.6974H54.2146C54.1397 58.6974 54.079 58.6367 54.079 58.5617V57.6887C54.079 57.6138 54.0184 57.553 53.9434 57.553H53.9356C53.8607 57.553 53.8 57.6137 53.8 57.6887V58.5617C53.8 58.6366 53.7394 58.6974 53.6644 58.6974H53.6568C53.5819 58.6974 53.5212 58.6367 53.5212 58.5617V57.6887C53.5212 57.6138 53.4605 57.553 53.3855 57.553H53.378C53.3031 57.553 53.2424 57.6137 53.2424 57.6887V58.5617C53.2424 58.6366 53.1817 58.6974 53.1067 58.6974H53.099C53.0241 58.6974 52.9634 58.6367 52.9634 58.5617V57.4097C52.9634 57.3348 53.024 57.274 53.099 57.274H54.2223C54.2972 57.274 54.3579 57.3347 54.3579 57.4097V57.7034C54.3579 57.7783 54.4186 57.8391 54.4936 57.8391H55.0626C55.1375 57.8391 55.1982 57.7784 55.1982 57.7034V57.6887C55.1982 57.6138 55.1376 57.553 55.0626 57.553H54.7726C54.6977 57.553 54.6369 57.4924 54.6369 57.4174V57.4097C54.6369 57.3347 54.6976 57.2739 54.7725 57.2739Z" fill="#F5F5F5"/>
<path d="M52.5494 57.2739H52.5417C52.4668 57.2739 52.406 57.3346 52.406 57.4096V57.7033C52.406 57.7782 52.3454 57.839 52.2704 57.839H51.705C51.6301 57.839 51.5693 57.7783 51.5693 57.7033V57.4096C51.5693 57.3347 51.5087 57.2739 51.4337 57.2739H50.3067C50.2318 57.2739 50.1711 57.3346 50.1711 57.4096V57.9895C50.1711 58.0645 50.2317 58.1252 50.3067 58.1252H50.8724C50.9473 58.1252 51.008 58.0645 51.008 57.9895V57.9747C51.008 57.8998 50.9474 57.8391 50.8724 57.8391H50.5893C50.5143 57.8391 50.4536 57.7784 50.4536 57.7034V57.6887C50.4536 57.6138 50.5143 57.553 50.5893 57.553H51.1512C51.2261 57.553 51.2868 57.6137 51.2868 57.6887V57.9895C51.2868 58.0645 51.3475 58.1252 51.4225 58.1252H52.5494C52.6243 58.1252 52.685 58.0645 52.685 57.9895V57.4096C52.685 57.3347 52.6243 57.2739 52.5494 57.2739ZM51.988 57.2739H51.9839C51.909 57.2739 51.8482 57.3346 51.8482 57.4096V57.4173C51.8482 57.4922 51.9089 57.5529 51.9839 57.5529H51.988C52.0629 57.5529 52.1236 57.4923 52.1236 57.4173V57.4096C52.1235 57.3347 52.0629 57.2739 51.988 57.2739ZM52.5494 58.4111H49.1876C49.1127 58.4111 49.0519 58.4718 49.0519 58.5468V58.5616C49.0519 58.6365 49.1126 58.6973 49.1876 58.6973H52.5493C52.6242 58.6973 52.6849 58.6366 52.6849 58.5616V58.5468C52.685 58.4718 52.6243 58.4111 52.5494 58.4111ZM49.1876 57.2739H49.753C49.8279 57.2739 49.8887 57.3346 49.8887 57.4096V57.9895C49.8887 58.0645 49.828 58.1252 49.753 58.1252H48.9087C48.8338 58.1252 48.773 58.1858 48.773 58.2608V58.5617C48.773 58.6366 48.7124 58.6974 48.6374 58.6974H48.6297C48.5548 58.6974 48.494 58.6367 48.494 58.5617V57.6887C48.494 57.6138 48.4334 57.553 48.3584 57.553H48.3509C48.276 57.553 48.2152 57.6137 48.2152 57.6887V58.5617C48.2152 58.6366 48.1546 58.6974 48.0796 58.6974H48.0719C47.997 58.6974 47.9362 58.6367 47.9362 58.5617V57.6887C47.9362 57.6138 47.8756 57.553 47.8006 57.553H47.7931C47.7182 57.553 47.6574 57.6137 47.6574 57.6887V58.5617C47.6574 58.6366 47.5968 58.6974 47.5218 58.6974H47.5141C47.4392 58.6974 47.3784 58.6367 47.3784 58.5617V57.4097C47.3784 57.3348 47.4391 57.274 47.5141 57.274H48.6376C48.7125 57.274 48.7732 57.3347 48.7732 57.4097V57.7034C48.7732 57.7783 48.8339 57.8391 48.9089 57.8391H49.4778C49.5527 57.8391 49.6135 57.7784 49.6135 57.7034V57.6887C49.6135 57.6138 49.5528 57.553 49.4778 57.553H49.1878C49.1129 57.553 49.0521 57.4924 49.0521 57.4174V57.4097C49.0519 57.3347 49.1128 57.2739 49.1876 57.2739Z" fill="#F5F5F5"/>
<path d="M46.9636 57.2739H46.9559C46.8809 57.2739 46.8202 57.3346 46.8202 57.4096V57.7033C46.8202 57.7782 46.7596 57.839 46.6846 57.839H46.1156C46.0407 57.839 45.98 57.7783 45.98 57.7033V57.4096C45.98 57.3347 45.9193 57.2739 45.8443 57.2739H44.7208C44.6459 57.2739 44.5852 57.3346 44.5852 57.4096V57.9895C44.5852 58.0645 44.6458 58.1252 44.7208 58.1252H45.2864C45.3613 58.1252 45.4221 58.0645 45.4221 57.9895V57.9747C45.4221 57.8998 45.3614 57.8391 45.2864 57.8391H44.9961C44.9212 57.8391 44.8604 57.7784 44.8604 57.7034V57.6887C44.8604 57.6138 44.9211 57.553 44.9961 57.553H45.5688C45.6437 57.553 45.7045 57.6137 45.7045 57.6887V57.9895C45.7045 58.0645 45.7651 58.1252 45.8401 58.1252H46.9634C47.0383 58.1252 47.099 58.0645 47.099 57.9895V57.4096C47.0991 57.3347 47.0385 57.2739 46.9636 57.2739ZM46.4057 57.2739H46.3944C46.3195 57.2739 46.2588 57.3346 46.2588 57.4096V57.4173C46.2588 57.4922 46.3194 57.5529 46.3944 57.5529H46.4057C46.4806 57.5529 46.5413 57.4923 46.5413 57.4173V57.4096C46.5413 57.3347 46.4806 57.2739 46.4057 57.2739ZM46.9636 58.4111H43.6019C43.527 58.4111 43.4662 58.4718 43.4662 58.5468V58.5616C43.4662 58.6365 43.5269 58.6973 43.6019 58.6973H46.9636C47.0385 58.6973 47.0992 58.6366 47.0992 58.5616V58.5468C47.0991 58.4718 47.0385 58.4111 46.9636 58.4111ZM43.6017 57.2739H44.1671C44.242 57.2739 44.3027 57.3346 44.3027 57.4096V57.9895C44.3027 58.0645 44.2421 58.1252 44.1671 58.1252H43.3228C43.2478 58.1252 43.1871 58.1858 43.1871 58.2608V58.5617C43.1871 58.6366 43.1265 58.6974 43.0515 58.6974H43.0437C42.9688 58.6974 42.9081 58.6367 42.9081 58.5617V57.6887C42.9081 57.6138 42.8475 57.553 42.7725 57.553H42.7649C42.69 57.553 42.6293 57.6137 42.6293 57.6887V58.5617C42.6293 58.6366 42.5687 58.6974 42.4937 58.6974H42.4859C42.411 58.6974 42.3503 58.6367 42.3503 58.5617V57.6887C42.3503 57.6138 42.2896 57.553 42.2146 57.553H42.2034C42.1285 57.553 42.0678 57.6137 42.0678 57.6887V58.5617C42.0678 58.6366 42.0071 58.6974 41.9321 58.6974H41.9281C41.8532 58.6974 41.7925 58.6367 41.7925 58.5617V57.4097C41.7925 57.3348 41.8531 57.274 41.9281 57.274H43.0514C43.1263 57.274 43.187 57.3347 43.187 57.4097V57.7034C43.187 57.7783 43.2477 57.8391 43.3227 57.8391H43.8846C43.9595 57.8391 44.0202 57.7784 44.0202 57.7034V57.6887C44.0202 57.6138 43.9596 57.553 43.8846 57.553H43.6015C43.5266 57.553 43.4658 57.4924 43.4658 57.4174V57.4097C43.4661 57.3347 43.5268 57.2739 43.6017 57.2739Z" fill="#F5F5F5"/>
<path d="M41.3746 57.2739H41.3705C41.2956 57.2739 41.2349 57.3346 41.2349 57.4096V57.7033C41.2349 57.7782 41.1742 57.839 41.0992 57.839H40.5336C40.4587 57.839 40.3979 57.7783 40.3979 57.7033V57.4096C40.3979 57.3347 40.3373 57.2739 40.2623 57.2739H39.1357C39.0608 57.2739 39.0001 57.3346 39.0001 57.4096V57.9895C39.0001 58.0645 39.0607 58.1252 39.1357 58.1252H39.6975C39.7724 58.1252 39.8331 58.0645 39.8331 57.9895V57.9747C39.8331 57.8998 39.7725 57.8391 39.6975 57.8391H39.411C39.3361 57.8391 39.2754 57.7784 39.2754 57.7034V57.6887C39.2754 57.6138 39.336 57.553 39.411 57.553H39.9801C40.055 57.553 40.1157 57.6137 40.1157 57.6887V57.9895C40.1157 58.0645 40.1764 58.1252 40.2514 58.1252H41.3749C41.4498 58.1252 41.5105 58.0645 41.5105 57.9895V57.4096C41.5103 57.3347 41.4495 57.2739 41.3746 57.2739ZM40.8168 57.2739H40.8091C40.7342 57.2739 40.6734 57.3346 40.6734 57.4096V57.4173C40.6734 57.4922 40.7341 57.5529 40.8091 57.5529H40.8168C40.8917 57.5529 40.9524 57.4923 40.9524 57.4173V57.4096C40.9524 57.3347 40.8917 57.2739 40.8168 57.2739ZM41.3746 58.4111H38.0093C37.9344 58.4111 37.8736 58.4718 37.8736 58.5468V58.5616C37.8736 58.6365 37.9343 58.6973 38.0093 58.6973H41.3747C41.4496 58.6973 41.5103 58.6366 41.5103 58.5616V58.5468C41.5103 58.4718 41.4495 58.4111 41.3746 58.4111ZM38.0093 57.2739H38.582C38.6569 57.2739 38.7177 57.3346 38.7177 57.4096V57.9895C38.7177 58.0645 38.657 58.1252 38.582 58.1252H37.7375C37.6626 58.1252 37.6019 58.1858 37.6019 58.2608V58.5617C37.6019 58.6366 37.5412 58.6974 37.4662 58.6974H37.455C37.3801 58.6974 37.3193 58.6367 37.3193 58.5617V57.6887C37.3193 57.6138 37.2587 57.553 37.1837 57.553H37.1762C37.1013 57.553 37.0405 57.6137 37.0405 57.6887V58.5617C37.0405 58.6366 36.9799 58.6974 36.9049 58.6974H36.9008C36.8259 58.6974 36.7651 58.6367 36.7651 58.5617V57.6887C36.7651 57.6138 36.7045 57.553 36.6295 57.553H36.6183C36.5434 57.553 36.4826 57.6137 36.4826 57.6887V58.5617C36.4826 58.6366 36.422 58.6974 36.347 58.6974H36.3393C36.2644 58.6974 36.2036 58.6367 36.2036 58.5617V57.4097C36.2036 57.3348 36.2643 57.274 36.3393 57.274H37.4662C37.5411 57.274 37.6019 57.3347 37.6019 57.4097V57.7034C37.6019 57.7783 37.6625 57.8391 37.7375 57.8391H38.3029C38.3778 57.8391 38.4386 57.7784 38.4386 57.7034V57.6887C38.4386 57.6138 38.3779 57.553 38.3029 57.553H38.0095C37.9346 57.553 37.8738 57.4924 37.8738 57.4174V57.4097C37.8735 57.3347 37.9344 57.2739 38.0093 57.2739Z" fill="#F5F5F5"/>
<path d="M35.7896 57.2739H35.7819C35.707 57.2739 35.6463 57.3346 35.6463 57.4096V57.7033C35.6463 57.7782 35.5856 57.839 35.5106 57.839H34.9452C34.8703 57.839 34.8096 57.7783 34.8096 57.7033V57.4096C34.8096 57.3347 34.7489 57.2739 34.6739 57.2739H33.5471C33.4722 57.2739 33.4114 57.3346 33.4114 57.4096V57.9895C33.4114 58.0645 33.4721 58.1252 33.5471 58.1252H34.109C34.1839 58.1252 34.2446 58.0645 34.2446 57.9895V57.9747C34.2446 57.8998 34.184 57.8391 34.109 57.8391H33.8224C33.7475 57.8391 33.6867 57.7784 33.6867 57.7034V57.6887C33.6867 57.6138 33.7474 57.553 33.8224 57.553H34.3951C34.47 57.553 34.5308 57.6137 34.5308 57.6887V57.9895C34.5308 58.0645 34.5914 58.1252 34.6664 58.1252H35.7896C35.8645 58.1252 35.9253 58.0645 35.9253 57.9895V57.4096C35.9253 57.3347 35.8645 57.2739 35.7896 57.2739ZM35.2318 57.2739H35.2241C35.1492 57.2739 35.0885 57.3346 35.0885 57.4096V57.4173C35.0885 57.4922 35.1491 57.5529 35.2241 57.5529H35.2318C35.3067 57.5529 35.3675 57.4923 35.3675 57.4173V57.4096C35.3674 57.3347 35.3067 57.2739 35.2318 57.2739ZM35.7896 58.4111H32.4315C32.3566 58.4111 32.2959 58.4718 32.2959 58.5468V58.5616C32.2959 58.6365 32.3565 58.6973 32.4315 58.6973H35.7897C35.8646 58.6973 35.9254 58.6366 35.9254 58.5616V58.5468C35.9253 58.4718 35.8645 58.4111 35.7896 58.4111ZM32.4315 57.2739H32.997C33.0719 57.2739 33.1326 57.3346 33.1326 57.4096V57.9895C33.1326 58.0645 33.072 58.1252 32.997 58.1252H32.1455C32.0706 58.1252 32.0099 58.1858 32.0099 58.2608V58.5617C32.0099 58.6366 31.9492 58.6974 31.8742 58.6974H31.8738C31.7989 58.6974 31.7382 58.6367 31.7382 58.5617V57.6887C31.7382 57.6138 31.6775 57.553 31.6025 57.553H31.5875C31.5126 57.553 31.4519 57.6137 31.4519 57.6887V58.5617C31.4519 58.6366 31.3912 58.6974 31.3162 58.6974H31.3159C31.241 58.6974 31.1803 58.6367 31.1803 58.5617V57.6887C31.1803 57.6138 31.1196 57.553 31.0446 57.553H31.0368C30.9619 57.553 30.9012 57.6137 30.9012 57.6887V58.5617C30.9012 58.6366 30.8405 58.6974 30.7655 58.6974H30.7509C30.676 58.6974 30.6152 58.6367 30.6152 58.5617V57.4097C30.6152 57.3348 30.6759 57.274 30.7509 57.274H31.8741C31.949 57.274 32.0098 57.3347 32.0098 57.4097V57.7034C32.0098 57.7783 32.0704 57.8391 32.1454 57.8391H32.7181C32.793 57.8391 32.8537 57.7784 32.8537 57.7034V57.6887C32.8537 57.6138 32.7931 57.553 32.7181 57.553H32.4316C32.3567 57.553 32.296 57.4924 32.296 57.4174V57.4097C32.2959 57.3347 32.3566 57.2739 32.4315 57.2739Z" fill="#F5F5F5"/>
<path d="M80.4794 56.4087H78.2369C78.162 56.4087 78.1013 56.4693 78.1013 56.5443V56.8452C78.1013 56.9201 78.1619 56.9809 78.2369 56.9809H80.4794C80.5543 56.9809 80.615 56.9202 80.615 56.8452V56.5443C80.615 56.4693 80.5544 56.4087 80.4794 56.4087ZM77.6832 56.4087H75.4442C75.3693 56.4087 75.3086 56.4693 75.3086 56.5443V56.8452C75.3086 56.9201 75.3692 56.9809 75.4442 56.9809H77.6832C77.7581 56.9809 77.8188 56.9202 77.8188 56.8452V56.5443C77.8188 56.4693 77.7581 56.4087 77.6832 56.4087Z" fill="#F5F5F5"/>
<path d="M74.8906 56.4087H72.6517C72.5768 56.4087 72.516 56.4693 72.516 56.5443V56.8452C72.516 56.9201 72.5767 56.9809 72.6517 56.9809H74.8906C74.9655 56.9809 75.0263 56.9202 75.0263 56.8452V56.5443C75.0262 56.4693 74.9654 56.4087 74.8906 56.4087ZM72.1015 56.4087H69.8554C69.7805 56.4087 69.7197 56.4693 69.7197 56.5443V56.8452C69.7197 56.9201 69.7804 56.9809 69.8554 56.9809H72.1015C72.1764 56.9809 72.2371 56.9202 72.2371 56.8452V56.5443C72.2371 56.4693 72.1765 56.4087 72.1015 56.4087Z" fill="#F5F5F5"/>
<path d="M69.305 56.4087H67.0625C66.9876 56.4087 66.9269 56.4693 66.9269 56.5443V56.8452C66.9269 56.9201 66.9875 56.9809 67.0625 56.9809H69.305C69.3799 56.9809 69.4406 56.9202 69.4406 56.8452V56.5443C69.4407 56.4693 69.3799 56.4087 69.305 56.4087ZM66.5124 56.4087H64.2699C64.195 56.4087 64.1343 56.4693 64.1343 56.5443V56.8452C64.1343 56.9201 64.1949 56.9809 64.2699 56.9809H66.5124C66.5873 56.9809 66.648 56.9202 66.648 56.8452V56.5443C66.648 56.4693 66.5872 56.4087 66.5124 56.4087Z" fill="#F5F5F5"/>
<path d="M63.7197 56.4087H61.4772C61.4023 56.4087 61.3416 56.4693 61.3416 56.5443V56.8452C61.3416 56.9201 61.4022 56.9809 61.4772 56.9809H63.7197C63.7946 56.9809 63.8554 56.9202 63.8554 56.8452V56.5443C63.8553 56.4693 63.7945 56.4087 63.7197 56.4087ZM60.9306 56.4087H58.6845C58.6096 56.4087 58.5488 56.4693 58.5488 56.5443V56.8452C58.5488 56.9201 58.6095 56.9809 58.6845 56.9809H60.9306C61.0055 56.9809 61.0662 56.9202 61.0662 56.8452V56.5443C61.0662 56.4693 61.0056 56.4087 60.9306 56.4087Z" fill="#F5F5F5"/>
<path d="M58.1344 56.4087H55.8917C55.8168 56.4087 55.7561 56.4693 55.7561 56.5443V56.8452C55.7561 56.9201 55.8167 56.9809 55.8917 56.9809H58.1344C58.2093 56.9809 58.27 56.9202 58.27 56.8452V56.5443C58.2699 56.4693 58.2093 56.4087 58.1344 56.4087ZM55.3417 56.4087H53.099C53.0241 56.4087 52.9634 56.4693 52.9634 56.5443V56.8452C52.9634 56.9201 53.024 56.9809 53.099 56.9809H55.3417C55.4166 56.9809 55.4773 56.9202 55.4773 56.8452V56.5443C55.4772 56.4693 55.4166 56.4087 55.3417 56.4087Z" fill="#F5F5F5"/>
<path d="M52.5494 56.4087H50.3067C50.2318 56.4087 50.1711 56.4693 50.1711 56.5443V56.8452C50.1711 56.9201 50.2317 56.9809 50.3067 56.9809H52.5494C52.6243 56.9809 52.685 56.9202 52.685 56.8452V56.5443C52.685 56.4693 52.6243 56.4087 52.5494 56.4087ZM49.753 56.4087H47.5141C47.4392 56.4087 47.3784 56.4693 47.3784 56.5443V56.8452C47.3784 56.9201 47.4391 56.9809 47.5141 56.9809H49.753C49.8279 56.9809 49.8887 56.9202 49.8887 56.8452V56.5443C49.8887 56.4693 49.8279 56.4087 49.753 56.4087Z" fill="#F5F5F5"/>
<path d="M46.9638 56.4087H44.7211C44.6462 56.4087 44.5854 56.4693 44.5854 56.5443V56.8452C44.5854 56.9201 44.6461 56.9809 44.7211 56.9809H46.9638C47.0387 56.9809 47.0994 56.9202 47.0994 56.8452V56.5443C47.0993 56.4693 47.0387 56.4087 46.9638 56.4087ZM44.1674 56.4087H41.9286C41.8537 56.4087 41.793 56.4693 41.793 56.5443V56.8452C41.793 56.9201 41.8536 56.9809 41.9286 56.9809H44.1674C44.2423 56.9809 44.303 56.9202 44.303 56.8452V56.5443C44.3029 56.4693 44.2423 56.4087 44.1674 56.4087Z" fill="#F5F5F5"/>
<path d="M41.3746 56.4087H39.1357C39.0608 56.4087 39.0001 56.4693 39.0001 56.5443V56.8452C39.0001 56.9201 39.0607 56.9809 39.1357 56.9809H41.3747C41.4496 56.9809 41.5103 56.9202 41.5103 56.8452V56.5443C41.5103 56.4693 41.4495 56.4087 41.3746 56.4087ZM38.5819 56.4087H36.3393C36.2644 56.4087 36.2036 56.4693 36.2036 56.5443V56.8452C36.2036 56.9201 36.2643 56.9809 36.3393 56.9809H38.5819C38.6568 56.9809 38.7176 56.9202 38.7176 56.8452V56.5443C38.7176 56.4693 38.6568 56.4087 38.5819 56.4087Z" fill="#F5F5F5"/>
<path d="M35.7896 56.4087H33.5471C33.4722 56.4087 33.4114 56.4693 33.4114 56.5443V56.8452C33.4114 56.9201 33.4721 56.9809 33.5471 56.9809H35.7897C35.8646 56.9809 35.9254 56.9202 35.9254 56.8452V56.5443C35.9253 56.4693 35.8645 56.4087 35.7896 56.4087ZM32.9969 56.4087H30.7509C30.6759 56.4087 30.6152 56.4693 30.6152 56.5443V56.8452C30.6152 56.9201 30.6759 56.9809 30.7509 56.9809H32.997C33.0719 56.9809 33.1326 56.9202 33.1326 56.8452V56.5443C33.1326 56.4693 33.0719 56.4087 32.9969 56.4087Z" fill="#F5F5F5"/>
<path d="M54.8997 47.1615C55.1554 47.2297 55.4284 47.1546 55.6159 46.9637C55.8989 47.2502 56.3627 47.257 56.6561 46.9774C56.8471 46.7933 56.9255 46.5136 56.8572 46.2612C56.6084 46.6637 56.0833 46.7933 55.6809 46.5408C55.6604 46.5271 55.6331 46.5135 55.6161 46.4998C55.2377 46.7794 54.7024 46.7044 54.4158 46.3294C54.4055 46.3088 54.3852 46.2815 54.3714 46.2612C54.269 46.657 54.5076 47.066 54.8997 47.1615Z" fill="#FF4B55"/>
<path d="M56.4885 55.1285C57.4051 54.6253 58.17 53.8324 58.5895 52.7881C59.3037 50.998 58.8539 48.9775 57.4876 47.667C57.4406 47.622 57.3692 47.6822 57.4033 47.7377C58.7509 49.9352 58.22 52.823 56.1348 54.4054L56.2345 48.022C56.2358 47.9353 56.1972 47.8528 56.1299 47.7982L55.7907 47.5241C55.6868 47.4401 55.5384 47.4406 55.4351 47.5251L55.1009 47.7982C55.0342 47.8527 54.9961 47.9348 54.9975 48.0209L55.0943 54.4089C53.0088 52.8272 52.4768 49.9368 53.8223 47.7378C53.8563 47.6823 53.7849 47.6221 53.738 47.6672C52.3743 48.9777 51.9217 50.9981 52.6359 52.7881C53.0553 53.8322 53.8201 54.6252 54.737 55.1284C54.1535 55.3284 53.5402 55.4344 52.9201 55.4167C52.8546 55.4148 52.8414 55.507 52.9042 55.526C53.6921 55.7651 54.5025 55.7815 55.2644 55.6107L55.5635 56.1911C55.5842 56.2311 55.6415 56.2313 55.6623 56.1912L55.9635 55.611C56.7254 55.7815 57.536 55.7648 58.3245 55.5257C58.3872 55.5067 58.3741 55.4145 58.3086 55.4164C57.6877 55.4345 57.073 55.3284 56.4885 55.1285Z" fill="#FF4B55"/>
<path d="M60.2192 49.1939C59.7501 48.3175 58.971 47.6531 58.0436 47.3276C57.9855 47.3072 57.9401 47.384 57.9876 47.4231C60.0351 49.1097 60.4455 52.1137 58.8622 54.2885C58.7803 54.3977 58.6916 54.5136 58.6064 54.6089C60.5502 53.5655 61.2696 51.1377 60.2192 49.1939Z" fill="#FF4B55"/>
<path d="M52.3663 54.2884C50.7829 52.1136 51.1902 49.1097 53.2372 47.4231C53.2848 47.3838 53.2394 47.3073 53.1813 47.3276C52.255 47.6532 51.4813 48.3173 51.0091 49.1938C49.9521 51.1375 50.6784 53.5654 52.6255 54.6087C52.5335 54.5134 52.4448 54.3976 52.3663 54.2884Z" fill="#FF4B55"/>
</g>
<defs>
<filter id="filter0_d_12295_239065" x="0.250488" y="0" width="110" height="110" filterUnits="userSpaceOnUse" color-interpolation-filters="sRGB">
<feFlood flood-opacity="0" result="BackgroundImageFix"/>
<feColorMatrix in="SourceAlpha" type="matrix" values="0 0 0 0 0 0 0 0 0 0 0 0 0 0 0 0 0 0 127 0" result="hardAlpha"/>
<feOffset dy="4"/>
<feGaussianBlur stdDeviation="10"/>
<feColorMatrix type="matrix" values="0 0 0 0 0.090196 0 0 0 0 0.0588235 0 0 0 0 0.286275 0 0 0 0.08 0"/>
<feBlend mode="normal" in2="BackgroundImageFix" result="effect1_dropShadow_12295_239065"/>
<feBlend mode="normal" in="SourceGraphic" in2="effect1_dropShadow_12295_239065" result="shape"/>
</filter>
<clipPath id="clip0_12295_239065">
<rect width="50" height="50" fill="white" transform="translate(30.6133 26.2363)"/>
</clipPath>
</defs>
</svg>
