<svg width="417" height="420" viewBox="0 0 417 420" fill="none" xmlns="http://www.w3.org/2000/svg">
<g clip-path="url(#clip0_11664_12505)">
<path d="M349.921 249.645L361.524 243.845C368.204 240.506 373.616 232.388 373.616 225.715V214.114C373.616 207.441 368.204 204.735 361.524 208.073L349.921 213.873C343.241 217.212 337.829 225.33 337.829 232.003V243.597C337.826 250.277 343.237 252.983 349.921 249.645Z" fill="#32B4FF"/>
<path d="M379.175 196.498L386.603 192.787C390.878 190.649 394.343 185.456 394.343 181.183V173.759C394.343 169.489 390.878 167.756 386.603 169.907L379.175 173.621C374.903 175.755 371.438 180.949 371.438 185.221V192.646C371.438 196.906 374.903 198.636 379.175 196.498Z" fill="#4066FF"/>
<path d="M352.005 175.104L359.433 171.39C363.708 169.252 367.17 164.058 367.17 159.786V152.361C367.17 148.092 363.708 146.358 359.433 148.509L352.005 152.223C347.73 154.358 344.265 159.551 344.265 163.824V171.248C344.265 175.508 347.73 177.238 352.005 175.104Z" fill="#E3E5F9"/>
<g style="mix-blend-mode:multiply">
<path opacity="0.09" d="M303.555 345.806L183.522 405.806C170.383 412.374 149.081 412.374 135.942 405.806L15.9155 345.806C2.77687 339.238 2.77687 328.591 15.9155 322.023L135.942 262.023C149.081 255.455 170.383 255.455 183.522 262.023L303.555 322.023C316.693 328.591 316.693 339.254 303.555 345.806Z" fill="#A7B1F2"/>
<path opacity="0.18" d="M309.111 343.029L189.074 403.03C175.939 409.594 154.636 409.594 141.498 403.03L21.4648 343.029C8.32619 336.462 8.32619 325.814 21.4648 319.247L141.488 259.246C154.627 252.678 175.929 252.678 189.065 259.246L309.111 319.247C322.249 325.814 322.249 336.462 309.111 343.029Z" fill="#A7B1F2"/>
<path opacity="0.27" d="M314.667 340.253L194.631 400.243C181.492 406.808 160.193 406.808 147.054 400.243L27.018 340.253C13.8794 333.685 13.8794 323.038 27.018 316.47L147.054 256.469C160.193 249.902 181.492 249.902 194.631 256.469L314.667 316.464C327.806 323.038 327.806 333.685 314.667 340.253Z" fill="#A7B1F2"/>
<path opacity="0.36" d="M320.22 337.476L200.186 397.473C187.048 404.041 165.745 404.041 152.61 397.473L32.5738 337.476C19.4481 330.908 19.4481 320.261 32.5738 313.693L152.61 253.693C165.745 247.125 187.048 247.125 200.186 253.693L320.22 313.693C333.358 320.261 333.358 330.908 320.22 337.476Z" fill="#A7B1F2"/>
<path opacity="0.45" d="M325.776 334.699L205.743 394.697C192.604 401.264 171.301 401.264 158.163 394.697L38.1298 334.699C24.9912 328.132 24.9912 317.484 38.1298 310.917L158.163 250.916C171.301 244.349 192.604 244.349 205.743 250.916L325.776 310.917C338.914 317.484 338.914 328.132 325.776 334.699Z" fill="#A7B1F2"/>
<path opacity="0.55" d="M331.332 331.923L211.295 391.92C198.16 398.488 176.858 398.488 163.719 391.92L43.686 331.923C30.5474 325.355 30.5474 314.708 43.686 308.14L163.719 248.14C176.858 241.572 198.16 241.572 211.295 248.14L331.332 308.14C344.461 314.708 344.461 325.355 331.332 331.923Z" fill="#A7B1F2"/>
<path opacity="0.64" d="M336.888 329.146L216.851 389.143C203.713 395.711 182.414 395.711 169.275 389.143L49.2387 329.146C36.1001 322.579 36.1001 311.931 49.2387 305.364L169.275 245.363C182.414 238.795 203.713 238.795 216.851 245.363L336.888 305.364C350.026 311.931 350.026 322.579 336.888 329.146Z" fill="#A7B1F2"/>
<path opacity="0.73" d="M342.441 326.366L222.42 386.367C209.282 392.934 187.979 392.934 174.844 386.367L54.7949 326.366C41.6563 319.802 41.6563 309.154 54.7949 302.587L174.831 242.586C187.967 236.019 209.269 236.019 222.408 242.586L342.441 302.587C355.579 309.154 355.579 319.802 342.441 326.366Z" fill="#A7B1F2"/>
<path opacity="0.82" d="M347.994 323.59L227.964 383.59C214.825 390.158 193.523 390.158 180.384 383.59L60.351 323.59C47.2124 317.025 47.2124 306.378 60.351 299.81L180.384 239.81C193.523 233.242 214.825 233.242 227.964 239.81L347.994 299.81C361.135 306.378 361.135 317.025 347.994 323.59Z" fill="#A7B1F2"/>
<path opacity="0.91" d="M353.553 320.813L233.516 380.814C220.378 387.381 199.079 387.381 185.94 380.814L65.9038 320.813C52.7684 314.245 52.7684 303.598 65.9038 297.034L185.94 237.033C199.079 230.466 220.378 230.466 233.516 237.033L353.553 297.034C366.691 303.598 366.691 314.245 353.553 320.813Z" fill="#A7B1F2"/>
<path d="M359.109 318.036L239.072 378.037C225.934 384.605 204.635 384.605 191.496 378.037L71.4757 318.036C58.3082 311.469 58.3082 300.821 71.4757 294.257L191.496 234.256C204.635 227.689 225.934 227.689 239.072 234.256L359.109 294.257C372.244 300.821 372.244 311.469 359.109 318.036Z" fill="#A7B1F2"/>
</g>
<path d="M360.49 271.142L235.447 208.638C224.152 202.991 205.839 202.991 194.544 208.638L69.501 271.142C63.8518 273.964 61.0288 277.665 61.0288 281.366V306.972C61.0288 310.673 63.8518 314.371 69.501 317.195L194.544 379.7C205.839 385.343 224.152 385.343 235.447 379.7L360.49 317.195C366.139 314.371 368.962 310.673 368.962 306.972V281.366C368.962 277.665 366.139 273.964 360.49 271.142Z" fill="url(#paint0_linear_11664_12505)"/>
<path d="M360.49 291.586L235.447 354.091C224.151 359.737 205.839 359.737 194.544 354.091L69.5007 291.586C58.2055 285.94 58.2055 276.788 69.5007 271.142L194.544 208.638C205.839 202.991 224.151 202.991 235.447 208.638L360.49 271.142C371.785 276.788 371.785 285.94 360.49 291.586Z" fill="url(#paint1_linear_11664_12505)"/>
<g style="mix-blend-mode:multiply">
<path opacity="0.09" d="M199.403 334.995C258.415 334.995 306.253 311.083 306.253 281.587C306.253 252.091 258.415 228.18 199.403 228.18C140.392 228.18 92.5537 252.091 92.5537 281.587C92.5537 311.083 140.392 334.995 199.403 334.995Z" fill="#A7B1F2"/>
<path opacity="0.18" d="M201.401 333.996C260.412 333.996 308.25 310.085 308.25 280.589C308.25 251.093 260.412 227.182 201.401 227.182C142.389 227.182 94.5513 251.093 94.5513 280.589C94.5513 310.085 142.389 333.996 201.401 333.996Z" fill="#A7B1F2"/>
<path opacity="0.27" d="M203.401 332.998C262.413 332.998 310.251 309.087 310.251 279.591C310.251 250.095 262.413 226.183 203.401 226.183C144.39 226.183 96.5518 250.095 96.5518 279.591C96.5518 309.087 144.39 332.998 203.401 332.998Z" fill="#A7B1F2"/>
<path opacity="0.36" d="M205.399 331.997C264.411 331.997 312.249 308.085 312.249 278.589C312.249 249.093 264.411 225.182 205.399 225.182C146.388 225.182 98.5498 249.093 98.5498 278.589C98.5498 308.085 146.388 331.997 205.399 331.997Z" fill="#A7B1F2"/>
<path opacity="0.45" d="M207.4 330.998C266.411 330.998 314.249 307.087 314.249 277.591C314.249 248.095 266.411 224.184 207.4 224.184C148.388 224.184 100.55 248.095 100.55 277.591C100.55 307.087 148.388 330.998 207.4 330.998Z" fill="#A7B1F2"/>
<path opacity="0.55" d="M209.398 330C268.409 330 316.247 306.089 316.247 276.593C316.247 247.097 268.409 223.185 209.398 223.185C150.386 223.185 102.548 247.097 102.548 276.593C102.548 306.089 150.386 330 209.398 330Z" fill="#A7B1F2"/>
<path opacity="0.64" d="M211.398 328.998C270.41 328.998 318.248 305.087 318.248 275.591C318.248 246.095 270.41 222.184 211.398 222.184C152.387 222.184 104.549 246.095 104.549 275.591C104.549 305.087 152.387 328.998 211.398 328.998Z" fill="#A7B1F2"/>
<path opacity="0.73" d="M213.396 328C272.407 328 320.245 304.089 320.245 274.593C320.245 245.097 272.407 221.186 213.396 221.186C154.385 221.186 106.546 245.097 106.546 274.593C106.546 304.089 154.385 328 213.396 328Z" fill="#A7B1F2"/>
<path opacity="0.82" d="M215.393 327.002C274.405 327.002 322.243 303.091 322.243 273.595C322.243 244.099 274.405 220.187 215.393 220.187C156.382 220.187 108.544 244.099 108.544 273.595C108.544 303.091 156.382 327.002 215.393 327.002Z" fill="#A7B1F2"/>
<path opacity="0.91" d="M217.394 326C276.406 326 324.244 302.089 324.244 272.593C324.244 243.097 276.406 219.186 217.394 219.186C158.383 219.186 110.545 243.097 110.545 272.593C110.545 302.089 158.383 326 217.394 326Z" fill="#A7B1F2"/>
<path d="M219.392 325.002C278.403 325.002 326.241 301.091 326.241 271.595C326.241 242.099 278.403 218.188 219.392 218.188C160.381 218.188 112.542 242.099 112.542 271.595C112.542 301.091 160.381 325.002 219.392 325.002Z" fill="#A7B1F2"/>
</g>
<path d="M112.545 246.708V271.556C112.545 285.224 122.977 298.892 143.839 309.321C185.567 330.186 253.219 330.186 294.947 309.321C315.823 298.889 326.251 285.215 326.241 271.54V246.708H112.545Z" fill="url(#paint2_linear_11664_12505)"/>
<path d="M219.395 300.099C278.407 300.099 326.245 276.187 326.245 246.689C326.245 217.191 278.407 193.278 219.395 193.278C160.384 193.278 112.546 217.191 112.546 246.689C112.546 276.187 160.384 300.099 219.395 300.099Z" fill="url(#paint3_linear_11664_12505)"/>
<g style="mix-blend-mode:multiply">
<path opacity="0.09" d="M278.44 266.69L209.253 301.268C201.683 305.052 189.409 305.052 181.836 301.268L112.674 266.69C105.105 262.905 105.105 256.771 112.674 252.987L181.849 218.409C189.422 214.624 201.696 214.624 209.266 218.409L278.44 252.987C286.01 256.758 286.01 262.905 278.44 266.69Z" fill="#A7B1F2"/>
<path opacity="0.18" d="M280.872 265.473L211.701 300.051C204.128 303.836 191.853 303.836 184.283 300.051L115.109 265.473C107.536 261.689 107.536 255.555 115.109 251.77L184.283 217.192C191.853 213.408 204.128 213.408 211.701 217.192L280.872 251.77C288.445 255.555 288.445 261.689 280.872 265.473Z" fill="#A7B1F2"/>
<path opacity="0.27" d="M283.306 264.257L214.131 298.834C206.562 302.619 194.287 302.619 186.714 298.834L117.543 264.257C109.97 260.472 109.97 254.338 117.543 250.553L186.714 215.992C194.287 212.207 206.562 212.207 214.131 215.992L283.306 250.553C290.876 254.338 290.876 260.472 283.306 264.257Z" fill="#A7B1F2"/>
<path opacity="0.36" d="M285.74 263.043L216.566 297.618C208.993 301.402 196.719 301.402 189.149 297.618L119.971 263.043C112.402 259.259 112.402 253.121 119.971 249.337L189.149 214.759C196.719 210.975 208.993 210.975 216.566 214.759L285.74 249.337C293.31 253.121 293.31 259.259 285.74 263.043Z" fill="#A7B1F2"/>
<path opacity="0.45" d="M288.172 261.827L218.997 296.401C211.427 300.186 199.153 300.186 191.58 296.401L122.409 261.827C114.836 258.042 114.836 251.905 122.409 248.12L191.589 213.546C199.162 209.761 211.437 209.761 219.007 213.546L288.172 248.12C295.744 251.905 295.744 258.042 288.172 261.827Z" fill="#A7B1F2"/>
<path opacity="0.55" d="M290.606 260.61L221.432 295.188C213.862 298.972 201.584 298.972 194.014 295.188L124.84 260.61C117.27 256.826 117.27 250.688 124.84 246.904L194.014 212.329C201.584 208.545 213.862 208.545 221.432 212.329L290.606 246.904C298.176 250.688 298.176 256.826 290.606 260.61Z" fill="#A7B1F2"/>
<path opacity="0.64" d="M293.037 259.394L223.866 293.971C216.293 297.756 204.018 297.756 196.446 293.971L127.274 259.394C119.701 255.609 119.701 249.472 127.274 245.687L196.446 211.113C204.018 207.328 216.293 207.328 223.866 211.113L293.037 245.687C300.61 249.472 300.61 255.609 293.037 259.394Z" fill="#A7B1F2"/>
<path opacity="0.73" d="M295.472 258.177L226.297 292.755C218.728 296.539 206.453 296.539 198.88 292.755L129.706 258.177C122.136 254.393 122.136 248.258 129.706 244.474L198.88 209.893C206.453 206.108 218.728 206.108 226.297 209.893L295.472 244.474C303.032 248.258 303.032 254.393 295.472 258.177Z" fill="#A7B1F2"/>
<path opacity="0.82" d="M297.893 256.96L228.731 291.538C221.158 295.323 208.884 295.323 201.314 291.538L132.14 256.96C124.567 253.176 124.567 247.042 132.14 243.257L201.314 208.679C208.884 204.895 221.158 204.895 228.731 208.679L297.893 243.257C305.475 247.042 305.475 253.176 297.893 256.96Z" fill="#A7B1F2"/>
<path opacity="0.91" d="M300.337 255.744L231.163 290.322C223.593 294.106 211.318 294.106 203.745 290.322L134.574 255.744C127.001 251.959 127.001 245.825 134.574 242.041L203.745 207.463C211.318 203.678 223.593 203.678 231.163 207.463L300.337 242.041C307.91 245.825 307.91 251.959 300.337 255.744Z" fill="#A7B1F2"/>
<path d="M302.772 254.531L233.597 289.105C226.024 292.89 213.75 292.89 206.18 289.105L136.993 254.531C129.423 250.746 129.423 244.609 136.993 240.824L206.18 206.246C213.75 202.462 226.024 202.462 233.597 206.246L302.772 240.824C310.341 244.609 310.341 250.746 302.772 254.531Z" fill="#A7B1F2"/>
</g>
<path d="M148.137 37.377L216.736 3.08826C221.875 0.520295 226.506 0.318068 229.833 2.05466L307.001 40.6384C307.287 40.7636 307.563 40.9048 307.833 41.0557C310.925 42.8404 312.798 46.2751 312.798 51.09V225.943C312.798 236.064 304.589 248.377 294.46 253.439L225.86 287.741C220.747 290.309 216.129 290.511 212.802 288.8L135.592 250.188C135.309 250.066 135.034 249.928 134.767 249.774C131.684 248.018 129.798 244.577 129.798 239.739V64.8736C129.798 54.7526 138.007 42.4392 148.137 37.377Z" fill="url(#paint4_linear_11664_12505)"/>
<path d="M191.955 223.568L145.066 200.135C141.925 198.562 139.378 194.745 139.378 191.603V105.935C139.378 102.793 141.925 101.522 145.066 103.091L191.955 126.524C195.099 128.097 197.646 131.917 197.646 135.056V220.727C197.646 223.866 195.099 225.14 191.955 223.568Z" fill="url(#paint5_linear_11664_12505)"/>
<path d="M151.445 132.507C153.372 133.47 154.524 119.761 157.338 121.167C160.209 122.601 160.434 134.575 162.798 135.756C165.531 137.123 167.743 144.038 168.864 148.117L145.818 136.597C146.865 133.971 149.559 131.57 151.445 132.507Z" fill="url(#paint6_linear_11664_12505)"/>
<path d="M151.445 156.958C153.371 157.921 154.759 164.263 156.262 165.024C159.133 166.459 160.421 151.831 162.781 153.013C165.514 154.377 166.154 170.131 168.848 174.089L145.802 162.569C147.08 160.395 149.559 156.023 151.445 156.958Z" fill="#42EAFF"/>
<path d="M151.445 184.534C153.372 185.497 153.805 188.213 156.619 189.619C159.49 191.054 160.434 184.766 162.795 185.947C165.528 187.311 167.448 194.293 168.861 200.051L145.815 188.534C146.907 184.64 149.56 183.61 151.445 184.534Z" fill="#32B4FF"/>
<path d="M172.347 143.17L172.06 143.745L191.089 153.257L191.377 152.683L172.347 143.17Z" fill="#42EAFF"/>
<path d="M172.345 145.284L172.058 145.858L191.088 155.37L191.375 154.796L172.345 145.284Z" fill="#42EAFF"/>
<path d="M172.347 147.398L172.06 147.972L191.089 157.484L191.377 156.91L172.347 147.398Z" fill="#42EAFF"/>
<path d="M172.347 149.507L172.06 150.081L186.859 157.478L187.146 156.904L172.347 149.507Z" fill="#42EAFF"/>
<path d="M172.345 169.142L172.058 169.716L191.088 179.229L191.375 178.654L172.345 169.142Z" fill="#42EAFF"/>
<path d="M172.344 171.255L172.057 171.83L191.086 181.342L191.374 180.767L172.344 171.255Z" fill="#42EAFF"/>
<path d="M172.348 173.37L172.061 173.944L191.091 183.456L191.378 182.882L172.348 173.37Z" fill="#42EAFF"/>
<path d="M172.346 175.479L172.059 176.053L186.857 183.45L187.145 182.876L172.346 175.479Z" fill="#42EAFF"/>
<path d="M172.347 195.114L172.06 195.688L191.089 205.2L191.377 204.626L172.347 195.114Z" fill="#42EAFF"/>
<path d="M172.348 197.229L172.061 197.803L191.091 207.315L191.378 206.741L172.348 197.229Z" fill="#42EAFF"/>
<path d="M172.347 199.342L172.06 199.916L191.089 209.428L191.377 208.854L172.347 199.342Z" fill="#42EAFF"/>
<path d="M172.344 201.454L172.057 202.028L186.855 209.425L187.143 208.851L172.344 201.454Z" fill="#42EAFF"/>
<path d="M225.86 287.741L294.46 253.452C304.589 248.39 312.798 236.077 312.798 225.956V51.0899C312.798 40.9657 304.589 36.8634 294.46 41.9255L225.86 76.2175C215.734 81.2796 207.522 93.5898 207.522 103.714V278.586C207.522 288.701 215.734 292.803 225.86 287.741Z" fill="url(#paint7_linear_11664_12505)"/>
<path d="M268.589 123.25C270.323 121.029 270.631 118.372 269.276 117.315C267.922 116.258 265.417 117.201 263.683 119.421C261.949 121.642 261.641 124.299 262.995 125.356C264.35 126.413 266.854 125.47 268.589 123.25Z" fill="#42EAFF"/>
<path d="M256.634 129.223C258.368 127.003 258.676 124.346 257.321 123.289C255.967 122.232 253.462 123.175 251.728 125.395C249.993 127.616 249.686 130.273 251.04 131.33C252.395 132.387 254.899 131.444 256.634 129.223Z" fill="#42EAFF"/>
<path d="M238.248 135.278C238.248 137.476 240.03 138.369 242.23 137.268C244.43 136.167 246.216 133.493 246.216 131.294C246.216 129.095 244.433 128.203 242.23 129.304C240.027 130.405 238.248 133.079 238.248 135.278Z" fill="#42EAFF"/>
<path d="M232.729 141.176C234.463 138.956 234.771 136.299 233.416 135.242C232.061 134.185 229.557 135.128 227.823 137.348C226.088 139.568 225.78 142.225 227.135 143.283C228.49 144.34 230.994 143.397 232.729 141.176Z" fill="white"/>
<path d="M268.589 134.285C270.323 132.064 270.631 129.407 269.276 128.35C267.922 127.293 265.417 128.236 263.683 130.456C261.949 132.677 261.641 135.334 262.995 136.391C264.35 137.448 266.854 136.505 268.589 134.285Z" fill="white"/>
<path d="M256.636 140.26C258.37 138.04 258.678 135.383 257.323 134.326C255.968 133.269 253.464 134.212 251.73 136.432C249.995 138.652 249.688 141.309 251.042 142.367C252.397 143.424 254.901 142.481 256.636 140.26Z" fill="white"/>
<path d="M238.248 146.313C238.248 148.515 240.03 149.405 242.23 148.307C244.43 147.209 246.216 144.532 246.216 142.333C246.216 140.134 244.433 139.242 242.23 140.34C240.027 141.437 238.248 144.115 238.248 146.313Z" fill="#32B4FF"/>
<path d="M232.728 152.211C234.462 149.991 234.77 147.334 233.416 146.277C232.061 145.219 229.557 146.162 227.822 148.383C226.088 150.603 225.78 153.26 227.135 154.317C228.489 155.375 230.994 154.432 232.728 152.211Z" fill="#32B4FF"/>
<path d="M268.591 145.325C270.325 143.104 270.633 140.447 269.278 139.39C267.924 138.333 265.419 139.276 263.685 141.496C261.95 143.717 261.643 146.374 262.997 147.431C264.352 148.488 266.856 147.545 268.591 145.325Z" fill="#32B4FF"/>
<path d="M256.636 151.298C258.37 149.078 258.678 146.421 257.323 145.364C255.968 144.307 253.464 145.25 251.73 147.47C249.995 149.691 249.688 152.348 251.042 153.405C252.397 154.462 254.901 153.519 256.636 151.298Z" fill="#32B4FF"/>
<path d="M244.68 157.272C246.415 155.052 246.722 152.395 245.368 151.338C244.013 150.281 241.509 151.224 239.774 153.444C238.04 155.664 237.732 158.321 239.087 159.379C240.442 160.436 242.946 159.493 244.68 157.272Z" fill="#42EAFF"/>
<path d="M226.294 163.326C226.294 165.525 228.076 166.417 230.276 165.316C232.476 164.215 234.262 161.545 234.262 159.343C234.262 157.141 232.479 156.251 230.276 157.352C228.073 158.453 226.294 161.127 226.294 163.326Z" fill="#42EAFF"/>
<path d="M268.587 156.36C270.322 154.139 270.63 151.482 269.275 150.425C267.92 149.368 265.416 150.311 263.681 152.531C261.947 154.752 261.639 157.409 262.994 158.466C264.349 159.523 266.853 158.58 268.587 156.36Z" fill="#32B4FF"/>
<path d="M256.635 162.333C258.37 160.113 258.677 157.456 257.323 156.399C255.968 155.342 253.464 156.285 251.729 158.505C249.995 160.725 249.687 163.382 251.042 164.44C252.397 165.497 254.901 164.554 256.635 162.333Z" fill="#32B4FF"/>
<path d="M292.497 111.3C294.232 109.08 294.539 106.423 293.185 105.366C291.83 104.309 289.326 105.252 287.591 107.472C285.857 109.692 285.549 112.349 286.904 113.407C288.258 114.464 290.763 113.521 292.497 111.3Z" fill="#42EAFF"/>
<path d="M280.542 117.271C282.276 115.05 282.584 112.393 281.229 111.336C279.874 110.279 277.37 111.222 275.636 113.443C273.901 115.663 273.593 118.32 274.948 119.377C276.303 120.434 278.807 119.491 280.542 117.271Z" fill="#42EAFF"/>
<path d="M292.494 122.335C294.228 120.115 294.536 117.458 293.181 116.401C291.826 115.343 289.322 116.286 287.588 118.507C285.853 120.727 285.546 123.384 286.9 124.441C288.255 125.499 290.759 124.556 292.494 122.335Z" fill="white"/>
<path d="M274.108 128.389C274.108 130.591 275.89 131.48 278.09 130.382C280.29 129.285 282.076 126.607 282.076 124.405C282.076 122.203 280.29 121.317 278.09 122.415C275.89 123.513 274.108 126.19 274.108 128.389Z" fill="white"/>
<path d="M286.062 133.451C286.062 135.653 287.844 136.542 290.044 135.444C292.244 134.347 294.039 131.67 294.039 129.468C294.039 127.265 292.253 126.38 290.054 127.477C287.854 128.575 286.062 131.249 286.062 133.451Z" fill="#32B4FF"/>
<path d="M274.108 139.428C274.108 141.627 275.89 142.519 278.09 141.418C280.29 140.317 282.076 137.643 282.076 135.445C282.076 133.246 280.29 132.353 278.09 133.454C275.89 134.555 274.108 137.229 274.108 139.428Z" fill="#32B4FF"/>
<path d="M286.062 144.49C286.062 146.689 287.844 147.581 290.044 146.48C292.244 145.379 294.039 142.705 294.039 140.507C294.039 138.308 292.253 137.415 290.054 138.516C287.854 139.617 286.062 142.291 286.062 144.49Z" fill="#32B4FF"/>
<path d="M280.543 150.386C282.277 148.165 282.585 145.508 281.23 144.451C279.876 143.394 277.371 144.337 275.637 146.558C273.903 148.778 273.595 151.435 274.95 152.492C276.304 153.549 278.809 152.606 280.543 150.386Z" fill="#32B4FF"/>
<path d="M244.683 168.309C246.417 166.089 246.725 163.432 245.37 162.374C244.015 161.317 241.511 162.26 239.777 164.481C238.042 166.701 237.734 169.358 239.089 170.415C240.444 171.472 242.948 170.529 244.683 168.309Z" fill="#42EAFF"/>
<path d="M234.101 174.684C235.848 172.458 236.164 169.791 234.806 168.726C233.448 167.661 230.931 168.602 229.184 170.827C227.436 173.052 227.12 175.72 228.478 176.785C229.836 177.85 232.353 176.909 234.101 174.684Z" fill="#42EAFF"/>
<path d="M230.337 97.7563L289.986 67.939C292.465 66.6999 294.482 63.6858 294.482 61.1981C294.482 58.7104 292.472 57.7153 289.986 58.9511L230.337 88.7845C227.858 90.0235 225.841 93.0345 225.841 95.5254C225.841 98.0163 227.858 98.9953 230.337 97.7563Z" fill="#42EAFF"/>
<path d="M269.904 73.4923C269.904 74.1343 270.421 74.3879 271.06 74.0669L289.781 64.7099C290.102 64.5407 290.376 64.2938 290.577 63.9915C290.779 63.6893 290.901 63.3414 290.934 62.9797C290.934 62.3377 290.416 62.0841 289.781 62.4019L271.06 71.759C270.738 71.9282 270.463 72.1756 270.261 72.4784C270.059 72.7812 269.936 73.1298 269.904 73.4923ZM242.882 86.9998C242.882 87.6418 243.396 87.8954 244.035 87.5744L251.604 83.7931C251.926 83.6242 252.2 83.3773 252.402 83.075C252.603 82.7727 252.725 82.4247 252.757 82.0629C252.757 81.4209 252.244 81.1673 251.604 81.4851L244.035 85.2697C243.713 85.4379 243.438 85.6846 243.236 85.987C243.035 86.2895 242.913 86.6378 242.882 86.9998ZM229.393 93.7408C229.393 94.3827 229.91 94.6363 230.549 94.3186L238.119 90.534C238.441 90.3647 238.716 90.1174 238.918 89.8146C239.12 89.5117 239.243 89.1631 239.275 88.8006C239.275 88.1586 238.758 87.9083 238.119 88.226L230.549 92.0106C230.225 92.1781 229.948 92.4249 229.745 92.7279C229.542 93.031 229.419 93.3805 229.387 93.744L229.393 93.7408Z" fill="white"/>
<path d="M230.337 110.567L289.986 80.75C292.465 79.5109 294.482 76.5 294.482 74.0091C294.482 71.5181 292.472 70.5263 289.986 71.7621L230.337 101.595C227.858 102.835 225.841 105.849 225.841 108.336C225.841 110.824 227.858 111.806 230.337 110.567Z" fill="#32B4FF"/>
<path d="M269.904 86.3096C269.904 86.9515 270.421 87.2051 271.06 86.8841L289.781 77.5271C290.102 77.3582 290.376 77.1113 290.578 76.809C290.779 76.5067 290.902 76.1587 290.934 75.7969C290.934 75.1549 290.416 74.9014 289.781 75.2224L271.06 84.5794C270.738 84.7474 270.463 84.994 270.26 85.2964C270.058 85.5988 269.936 85.9473 269.904 86.3096ZM242.882 99.8171C242.882 100.459 243.396 100.713 244.035 100.395L251.604 96.6103C251.926 96.4416 252.201 96.1948 252.402 95.8924C252.604 95.5901 252.726 95.242 252.757 94.8801C252.757 94.2382 252.244 93.9846 251.604 94.3024L244.035 98.0805C243.713 98.2492 243.439 98.496 243.237 98.7983C243.036 99.1007 242.913 99.4488 242.882 99.8106V99.8171ZM229.393 106.558C229.393 107.2 229.91 107.454 230.549 107.136L238.119 103.351C238.441 103.182 238.716 102.936 238.918 102.633C239.12 102.331 239.243 101.983 239.275 101.621C239.275 100.979 238.758 100.725 238.119 101.043L230.549 104.828C230.226 104.995 229.95 105.241 229.747 105.543C229.544 105.845 229.42 106.193 229.387 106.555L229.393 106.558Z" fill="#42EAFF"/>
<path d="M230.337 123.378L289.986 93.5642C292.465 92.3251 294.482 89.311 294.482 86.8233C294.482 84.3355 292.472 83.3437 289.986 84.5763L230.337 114.406C227.858 115.645 225.841 118.66 225.841 121.147C225.841 123.635 227.858 124.617 230.337 123.378Z" fill="#42EAFF"/>
<path d="M269.904 99.1141C269.904 99.7561 270.421 100.01 271.06 99.6919L289.781 90.3317C290.102 90.1628 290.376 89.9158 290.578 89.6136C290.779 89.3113 290.902 88.9633 290.934 88.6015C290.934 87.9595 290.416 87.7059 289.781 88.0269L271.06 97.3839C270.738 97.5525 270.463 97.7992 270.261 98.1015C270.059 98.4038 269.936 98.752 269.904 99.1141ZM242.882 112.631C242.882 113.273 243.396 113.527 244.035 113.209L251.604 109.421C251.927 109.253 252.201 109.006 252.403 108.704C252.604 108.402 252.726 108.053 252.757 107.691C252.757 107.049 252.244 106.796 251.604 107.113L244.035 110.891C243.712 111.061 243.437 111.31 243.235 111.614C243.034 111.918 242.912 112.268 242.882 112.631ZM229.393 119.372C229.393 120.014 229.91 120.268 230.549 119.95L238.113 116.162C238.435 115.994 238.71 115.747 238.912 115.445C239.114 115.142 239.236 114.794 239.269 114.432C239.269 113.79 238.752 113.536 238.113 113.854L230.543 117.639C230.22 117.808 229.945 118.055 229.743 118.358C229.541 118.661 229.419 119.01 229.387 119.372H229.393Z" fill="white"/>
<path d="M230.337 199.74L289.986 169.926C292.465 168.687 294.482 165.673 294.482 163.185C294.482 160.697 292.472 159.705 289.986 160.938L230.337 190.771C227.858 192.01 225.841 195.021 225.841 197.512C225.841 200.003 227.858 200.979 230.337 199.74Z" fill="#42EAFF"/>
<path d="M269.904 175.476C269.904 176.118 270.421 176.372 271.06 176.054L289.781 166.697C290.102 166.527 290.375 166.28 290.577 165.978C290.778 165.676 290.901 165.328 290.934 164.967C290.934 164.325 290.416 164.071 289.781 164.389L271.06 173.746C270.738 173.915 270.464 174.161 270.262 174.464C270.06 174.766 269.937 175.114 269.904 175.476ZM242.882 188.987C242.882 189.629 243.396 189.882 244.035 189.561L251.604 185.777C251.927 185.608 252.201 185.362 252.403 185.059C252.604 184.757 252.726 184.409 252.757 184.047C252.757 183.405 252.244 183.151 251.604 183.472L244.035 187.256C243.713 187.425 243.438 187.671 243.236 187.974C243.035 188.276 242.913 188.625 242.882 188.987ZM229.393 195.728C229.393 196.37 229.91 196.623 230.549 196.302L238.119 192.518C238.442 192.35 238.717 192.103 238.919 191.801C239.121 191.498 239.243 191.15 239.275 190.787C239.275 190.145 238.758 189.892 238.119 190.213L230.549 193.997C230.225 194.165 229.948 194.412 229.745 194.715C229.542 195.018 229.419 195.367 229.387 195.731L229.393 195.728Z" fill="white"/>
<path d="M230.337 212.554L289.986 182.737C292.465 181.498 294.482 178.484 294.482 175.996C294.482 173.508 292.472 172.513 289.986 173.749L230.337 203.582C227.858 204.821 225.841 207.832 225.841 210.323C225.841 212.814 227.858 213.793 230.337 212.554Z" fill="#32B4FF"/>
<path d="M269.904 188.29C269.904 188.932 270.421 189.186 271.06 188.865L289.781 179.508C290.102 179.338 290.376 179.091 290.577 178.789C290.779 178.487 290.901 178.139 290.934 177.777C290.934 177.135 290.416 176.882 289.781 177.2L271.06 186.557C270.738 186.726 270.463 186.973 270.261 187.276C270.059 187.579 269.936 187.928 269.904 188.29ZM242.882 201.798C242.882 202.44 243.396 202.693 244.035 202.372L251.604 198.591C251.926 198.422 252.2 198.175 252.402 197.873C252.603 197.57 252.725 197.222 252.757 196.861C252.757 196.219 252.244 195.965 251.604 196.283L244.035 200.067C243.713 200.236 243.438 200.482 243.236 200.785C243.035 201.087 242.913 201.436 242.882 201.798ZM229.393 208.538C229.393 209.18 229.91 209.434 230.549 209.116L238.119 205.332C238.441 205.162 238.716 204.915 238.918 204.612C239.12 204.309 239.243 203.961 239.275 203.598C239.275 202.956 238.758 202.706 238.119 203.024L230.543 206.812C230.22 206.98 229.945 207.226 229.743 207.529C229.541 207.831 229.418 208.179 229.387 208.542L229.393 208.538Z" fill="#42EAFF"/>
<path d="M230.337 225.365L289.986 195.548C292.465 194.309 294.482 191.298 294.482 188.807C294.482 186.316 292.472 185.324 289.986 186.56L230.337 216.393C227.858 217.632 225.841 220.646 225.841 223.134C225.841 225.622 227.858 226.604 230.337 225.365Z" fill="#42EAFF"/>
<path d="M269.904 201.101C269.904 201.743 270.421 201.997 271.06 201.676L289.781 192.319C290.102 192.15 290.376 191.903 290.578 191.6C290.779 191.298 290.902 190.95 290.934 190.588C290.934 189.946 290.416 189.693 289.781 190.014L271.06 199.371C270.738 199.539 270.463 199.786 270.26 200.088C270.058 200.39 269.936 200.739 269.904 201.101ZM242.882 214.609C242.882 215.251 243.396 215.504 244.035 215.186L251.604 211.402C251.926 211.233 252.201 210.986 252.402 210.684C252.604 210.382 252.726 210.034 252.757 209.672C252.757 209.03 252.244 208.776 251.604 209.094L244.035 212.878C243.713 213.047 243.439 213.294 243.237 213.596C243.036 213.899 242.913 214.247 242.882 214.609ZM229.393 221.349C229.393 221.991 229.91 222.245 230.549 221.927L238.119 218.143C238.441 217.974 238.716 217.727 238.918 217.425C239.12 217.123 239.243 216.775 239.275 216.413C239.275 215.771 238.758 215.517 238.119 215.835L230.549 219.619C230.225 219.787 229.949 220.034 229.746 220.337C229.543 220.64 229.419 220.989 229.387 221.353L229.393 221.349Z" fill="white"/>
<path d="M230.337 245.289L289.986 215.472C292.465 214.233 294.482 211.222 294.482 208.731C294.482 206.24 292.472 205.251 289.986 206.484L230.337 236.317C227.858 237.556 225.841 240.57 225.841 243.058C225.841 245.546 227.858 246.528 230.337 245.289Z" fill="#32B4FF"/>
<path d="M269.904 221.025C269.904 221.667 270.421 221.921 271.06 221.603L289.78 212.243C290.102 212.074 290.376 211.827 290.577 211.524C290.779 211.222 290.901 210.874 290.933 210.512C290.933 209.87 290.416 209.617 289.78 209.938L271.06 219.295C270.737 219.463 270.463 219.71 270.261 220.012C270.059 220.315 269.936 220.663 269.904 221.025ZM242.881 234.533C242.881 235.175 243.395 235.428 244.034 235.11L251.604 231.326C251.926 231.157 252.2 230.91 252.402 230.608C252.603 230.306 252.725 229.957 252.757 229.596C252.757 228.954 252.243 228.7 251.604 229.018L244.034 232.802C243.713 232.971 243.438 233.218 243.237 233.52C243.036 233.823 242.913 234.171 242.881 234.533ZM229.393 241.273C229.393 241.915 229.91 242.169 230.549 241.851L238.119 238.067C238.441 237.898 238.716 237.651 238.918 237.349C239.12 237.047 239.242 236.699 239.275 236.337C239.275 235.695 238.758 235.441 238.119 235.759L230.549 239.543C230.225 239.711 229.949 239.958 229.746 240.261C229.543 240.564 229.419 240.913 229.386 241.277L229.393 241.273Z" fill="#42EAFF"/>
<path d="M230.337 258.1L289.986 228.286C292.465 227.047 294.482 224.033 294.482 221.545C294.482 219.057 292.472 218.065 289.986 219.298L230.337 249.131C227.858 250.37 225.841 253.381 225.841 255.872C225.841 258.363 227.858 259.326 230.337 258.1Z" fill="#32B4FF"/>
<path d="M269.904 233.836C269.904 234.478 270.421 234.732 271.06 234.414L289.78 225.057C290.101 224.887 290.375 224.64 290.576 224.338C290.778 224.036 290.9 223.688 290.933 223.327C290.933 222.685 290.416 222.431 289.78 222.749L271.06 232.106C270.738 232.275 270.463 232.521 270.261 232.824C270.059 233.126 269.936 233.474 269.904 233.836ZM242.881 247.347C242.881 247.989 243.395 248.242 244.034 247.921L251.604 244.137C251.926 243.968 252.201 243.722 252.402 243.419C252.604 243.117 252.726 242.769 252.757 242.407C252.757 241.765 252.243 241.511 251.604 241.832L244.034 245.613C243.712 245.782 243.438 246.03 243.236 246.333C243.035 246.636 242.913 246.984 242.881 247.347ZM229.393 254.088C229.393 254.73 229.91 254.983 230.549 254.662L238.119 250.878C238.441 250.71 238.716 250.463 238.918 250.161C239.12 249.858 239.243 249.51 239.275 249.147C239.275 248.505 238.758 248.252 238.119 248.573L230.542 252.361C230.22 252.529 229.945 252.775 229.743 253.078C229.54 253.38 229.418 253.729 229.386 254.091L229.393 254.088Z" fill="#42EAFF"/>
<path d="M230.337 270.914L289.986 241.097C292.465 239.858 294.482 236.844 294.482 234.356C294.482 231.868 292.472 230.873 289.986 232.109L230.337 261.942C227.858 263.181 225.841 266.192 225.841 268.683C225.841 271.174 227.858 272.166 230.337 270.914Z" fill="#42EAFF"/>
<path d="M269.904 246.65C269.904 247.292 270.421 247.543 271.06 247.225L289.78 237.868C290.102 237.699 290.376 237.452 290.577 237.149C290.778 236.847 290.901 236.499 290.933 236.138C290.933 235.496 290.416 235.242 289.78 235.56L271.06 244.917C270.737 245.086 270.463 245.333 270.261 245.636C270.059 245.939 269.936 246.288 269.904 246.65ZM242.881 260.158C242.881 260.8 243.395 261.053 244.034 260.732L251.604 256.951C251.926 256.782 252.2 256.535 252.401 256.233C252.603 255.931 252.725 255.583 252.757 255.221C252.757 254.579 252.243 254.325 251.604 254.643L244.034 258.428C243.712 258.596 243.437 258.842 243.236 259.145C243.034 259.447 242.912 259.796 242.881 260.158ZM229.393 266.899C229.393 267.541 229.91 267.794 230.549 267.473L238.119 263.689C238.441 263.521 238.716 263.274 238.918 262.972C239.12 262.669 239.243 262.321 239.275 261.958C239.275 261.316 238.758 261.063 238.119 261.384L230.549 265.168C230.225 265.336 229.948 265.583 229.745 265.886C229.541 266.189 229.418 266.538 229.386 266.902L229.393 266.899Z" fill="white"/>
<g style="mix-blend-mode:multiply" opacity="0.3">
<path opacity="0.09" d="M389.818 394.36C383.829 391.39 377.234 389.845 370.548 389.845C363.863 389.845 357.268 391.39 351.279 394.36L351.099 394.45C348.069 395.954 345.134 397.643 342.312 399.509C341.542 400.02 340.911 400.714 340.474 401.528C340.038 402.342 339.809 403.252 339.809 404.176C339.809 405.1 340.038 406.009 340.474 406.824C340.911 407.638 341.542 408.332 342.312 408.843C345.133 410.709 348.068 412.397 351.099 413.899C351.157 413.931 351.218 413.96 351.279 413.989C357.267 416.961 363.862 418.508 370.548 418.508C377.234 418.508 383.83 416.961 389.818 413.989L389.998 413.899C393.029 412.397 395.963 410.709 398.785 408.843C399.554 408.332 400.186 407.638 400.622 406.824C401.059 406.009 401.288 405.1 401.288 404.176C401.288 403.252 401.059 402.342 400.622 401.528C400.186 400.714 399.554 400.02 398.785 399.509C395.963 397.643 393.028 395.954 389.998 394.45L389.818 394.36Z" fill="#A7B1F2"/>
<path opacity="0.18" d="M391.308 393.618C385.32 390.646 378.724 389.1 372.039 389.1C365.353 389.1 358.757 390.646 352.769 393.618L352.589 393.708C349.559 395.211 346.624 396.899 343.802 398.764C343.032 399.275 342.401 399.969 341.964 400.783C341.528 401.598 341.299 402.507 341.299 403.431C341.299 404.355 341.528 405.265 341.964 406.079C342.401 406.893 343.032 407.587 343.802 408.098C346.625 409.963 349.559 411.653 352.589 413.157L352.769 413.244C358.757 416.216 365.353 417.762 372.039 417.762C378.724 417.762 385.32 416.216 391.308 413.244L391.485 413.157C394.516 411.653 397.451 409.963 400.275 408.098C401.044 407.586 401.675 406.892 402.111 406.078C402.547 405.264 402.775 404.355 402.775 403.431C402.775 402.508 402.547 401.598 402.111 400.784C401.675 399.97 401.044 399.276 400.275 398.764C397.453 396.899 394.518 395.211 391.488 393.708L391.308 393.618Z" fill="#A7B1F2"/>
<path opacity="0.27" d="M392.795 392.861C386.806 389.891 380.211 388.345 373.526 388.345C366.84 388.345 360.245 389.891 354.256 392.861L354.076 392.951C351.046 394.455 348.112 396.145 345.289 398.009C344.519 398.521 343.888 399.214 343.451 400.028C343.015 400.842 342.786 401.751 342.786 402.675C342.786 403.599 343.015 404.508 343.451 405.322C343.888 406.136 344.519 406.83 345.289 407.341C348.112 409.205 351.046 410.895 354.076 412.4L354.256 412.49C360.245 415.459 366.84 417.005 373.526 417.005C380.211 417.005 386.806 415.459 392.795 412.49L392.975 412.4C396.005 410.895 398.939 409.205 401.762 407.341C402.532 406.83 403.163 406.136 403.6 405.322C404.036 404.508 404.265 403.599 404.265 402.675C404.265 401.751 404.036 400.842 403.6 400.028C403.163 399.214 402.532 398.521 401.762 398.009C398.939 396.145 396.005 394.455 392.975 392.951L392.795 392.861Z" fill="#A7B1F2"/>
<path opacity="0.36" d="M394.282 392.129C388.293 389.159 381.698 387.614 375.013 387.614C368.327 387.614 361.732 389.159 355.743 392.129L355.567 392.219C352.536 393.723 349.6 395.413 346.776 397.277C346.007 397.789 345.377 398.483 344.94 399.297C344.504 400.111 344.276 401.02 344.276 401.943C344.276 402.867 344.504 403.776 344.94 404.59C345.377 405.404 346.007 406.097 346.776 406.609C349.599 408.475 352.535 410.164 355.567 411.668L355.743 411.758C361.732 414.729 368.327 416.276 375.013 416.276C381.699 416.276 388.294 414.729 394.282 411.758L394.462 411.668C397.493 410.164 400.427 408.475 403.249 406.609C404.019 406.098 404.65 405.404 405.087 404.59C405.524 403.776 405.752 402.867 405.752 401.943C405.752 401.019 405.524 400.11 405.087 399.296C404.65 398.482 404.019 397.789 403.249 397.277C400.427 395.413 397.492 393.723 394.462 392.219L394.282 392.129Z" fill="#A7B1F2"/>
<path opacity="0.45" d="M395.772 391.387C389.784 388.416 383.188 386.869 376.502 386.869C369.817 386.869 363.221 388.416 357.233 391.387C357.172 391.416 357.111 391.445 357.053 391.477C354.022 392.979 351.088 394.667 348.266 396.533C347.496 397.044 346.865 397.738 346.428 398.552C345.992 399.367 345.763 400.276 345.763 401.2C345.763 402.124 345.992 403.034 346.428 403.848C346.865 404.662 347.496 405.356 348.266 405.867C351.089 407.732 354.023 409.422 357.053 410.926L357.233 411.013C363.221 413.985 369.817 415.531 376.502 415.531C383.188 415.531 389.784 413.985 395.772 411.013L395.949 410.926C398.98 409.422 401.915 407.732 404.739 405.867C405.508 405.355 406.138 404.661 406.575 403.847C407.011 403.033 407.239 402.124 407.239 401.2C407.239 400.277 407.011 399.367 406.575 398.553C406.138 397.739 405.508 397.045 404.739 396.533C401.916 394.668 398.98 392.98 395.949 391.477L395.772 391.387Z" fill="#A7B1F2"/>
<path opacity="0.55" d="M397.259 390.643C391.271 387.671 384.676 386.124 377.99 386.124C371.304 386.124 364.709 387.671 358.72 390.643L358.541 390.732C355.511 392.237 352.576 393.927 349.754 395.791C348.984 396.302 348.352 396.996 347.916 397.81C347.479 398.624 347.25 399.533 347.25 400.457C347.25 401.381 347.479 402.29 347.916 403.104C348.352 403.918 348.984 404.612 349.754 405.123C352.572 406.991 355.502 408.685 358.528 410.194L358.708 410.284C364.696 413.254 371.291 414.799 377.977 414.799C384.663 414.799 391.258 413.254 397.247 410.284L397.426 410.194C400.456 408.69 403.391 407 406.213 405.136C406.983 404.624 407.614 403.931 408.051 403.117C408.488 402.303 408.716 401.394 408.716 400.47C408.716 399.546 408.488 398.637 408.051 397.823C407.614 397.009 406.983 396.315 406.213 395.804C403.391 393.939 400.456 392.25 397.426 390.745L397.259 390.643Z" fill="#A7B1F2"/>
<path opacity="0.64" d="M398.736 389.898C392.748 386.928 386.153 385.383 379.467 385.383C372.781 385.383 366.186 386.928 360.197 389.898L360.018 389.988C356.988 391.492 354.053 393.182 351.231 395.047C350.461 395.558 349.83 396.251 349.393 397.065C348.956 397.879 348.728 398.789 348.728 399.712C348.728 400.636 348.956 401.545 349.393 402.359C349.83 403.173 350.461 403.867 351.231 404.378C354.052 406.244 356.987 407.933 360.018 409.437L360.197 409.527C366.186 412.499 372.781 414.045 379.467 414.045C386.153 414.045 392.748 412.499 398.736 409.527L398.916 409.437C401.947 407.933 404.882 406.244 407.703 404.378C408.473 403.867 409.104 403.173 409.541 402.359C409.978 401.545 410.206 400.636 410.206 399.712C410.206 398.789 409.978 397.879 409.541 397.065C409.104 396.251 408.473 395.558 407.703 395.047C404.881 393.182 401.946 391.492 398.916 389.988L398.736 389.898Z" fill="#A7B1F2"/>
<path opacity="0.73" d="M400.233 389.156C394.244 386.185 387.649 384.638 380.963 384.638C374.277 384.638 367.682 386.185 361.694 389.156L361.517 389.246C358.486 390.749 355.55 392.437 352.727 394.302C351.958 394.814 351.327 395.508 350.891 396.322C350.455 397.136 350.227 398.046 350.227 398.969C350.227 399.893 350.455 400.802 350.891 401.616C351.327 402.431 351.958 403.124 352.727 403.636C355.551 405.501 358.486 407.191 361.517 408.695L361.694 408.782C367.682 411.754 374.277 413.3 380.963 413.3C387.649 413.3 394.244 411.754 400.233 408.782L400.413 408.695C403.443 407.191 406.377 405.501 409.199 403.636C409.969 403.125 410.601 402.431 411.037 401.617C411.474 400.803 411.702 399.893 411.702 398.969C411.702 398.045 411.474 397.136 411.037 396.321C410.601 395.507 409.969 394.813 409.199 394.302C406.378 392.436 403.443 390.748 400.413 389.246L400.233 389.156Z" fill="#A7B1F2"/>
<path opacity="0.82" d="M401.723 388.412C395.735 385.44 389.14 383.893 382.454 383.893C375.768 383.893 369.173 385.44 363.184 388.412L363.004 388.501C359.974 390.005 357.04 391.695 354.217 393.56C353.448 394.071 352.816 394.765 352.38 395.579C351.943 396.393 351.714 397.302 351.714 398.226C351.714 399.15 351.943 400.059 352.38 400.873C352.816 401.687 353.448 402.381 354.217 402.892C357.036 404.755 359.966 406.443 362.992 407.947L363.171 408.037C369.16 411.007 375.755 412.552 382.441 412.552C389.126 412.552 395.721 411.007 401.71 408.037L401.887 407.947C404.918 406.443 407.854 404.753 410.677 402.889C411.446 402.377 412.077 401.683 412.513 400.869C412.949 400.055 413.178 399.146 413.178 398.223C413.178 397.299 412.949 396.39 412.513 395.576C412.077 394.762 411.446 394.069 410.677 393.557C407.854 391.692 404.918 390.003 401.887 388.498L401.723 388.412Z" fill="#A7B1F2"/>
<path opacity="0.91" d="M403.21 387.667C397.221 384.697 390.626 383.152 383.941 383.152C377.255 383.152 370.66 384.697 364.671 387.667L364.491 387.757C361.461 389.261 358.527 390.951 355.704 392.816C354.935 393.327 354.303 394.02 353.866 394.834C353.43 395.648 353.201 396.558 353.201 397.481C353.201 398.405 353.43 399.314 353.866 400.128C354.303 400.942 354.935 401.636 355.704 402.147C358.527 404.012 361.461 405.701 364.491 407.206L364.671 407.296C370.659 410.268 377.255 411.814 383.941 411.814C390.626 411.814 397.222 410.268 403.21 407.296L403.39 407.206C406.42 405.701 409.354 404.012 412.177 402.147C412.947 401.636 413.578 400.942 414.015 400.128C414.451 399.314 414.68 398.405 414.68 397.481C414.68 396.558 414.451 395.648 414.015 394.834C413.578 394.02 412.947 393.327 412.177 392.816C409.354 390.951 406.42 389.261 403.39 387.757L403.21 387.667Z" fill="#A7B1F2"/>
<path d="M404.697 386.925C398.709 383.954 392.113 382.407 385.428 382.407C378.742 382.407 372.146 383.954 366.158 386.925L365.978 387.012C362.948 388.517 360.014 390.206 357.191 392.071C356.422 392.583 355.792 393.277 355.355 394.091C354.919 394.905 354.691 395.815 354.691 396.738C354.691 397.662 354.919 398.571 355.355 399.385C355.792 400.2 356.422 400.894 357.191 401.406C360.015 403.27 362.95 404.96 365.981 406.464L366.158 406.551C372.146 409.523 378.742 411.069 385.428 411.069C392.113 411.069 398.709 409.523 404.697 406.551L404.877 406.464C407.907 404.96 410.841 403.27 413.664 401.406C414.434 400.894 415.065 400.2 415.502 399.386C415.938 398.572 416.167 397.662 416.167 396.738C416.167 395.814 415.938 394.905 415.502 394.091C415.065 393.276 414.434 392.582 413.664 392.071C410.841 390.206 407.907 388.517 404.877 387.012L404.697 386.925Z" fill="#A7B1F2"/>
</g>
<path d="M404.261 394.87C399.122 393.172 390.733 387.92 387.239 384.736C383.581 381.417 386.17 377.613 390.772 378.316L410.684 380.81V390.44C410.668 393.503 407.848 396.071 404.261 394.87Z" fill="#1E4ABF"/>
<path d="M403.271 389.224C402.274 389.224 401.286 389.027 400.365 388.646C399.443 388.264 398.606 387.705 397.901 387C397.195 386.295 396.636 385.458 396.254 384.537C395.872 383.616 395.676 382.629 395.676 381.632V302.16C395.655 301.15 395.836 300.146 396.209 299.207C396.581 298.268 397.137 297.413 397.844 296.691C398.551 295.97 399.395 295.396 400.327 295.005C401.259 294.614 402.259 294.412 403.27 294.412C404.28 294.412 405.281 294.614 406.212 295.005C407.144 295.396 407.988 295.97 408.695 296.691C409.403 297.413 409.959 298.268 410.331 299.207C410.703 300.146 410.884 301.15 410.864 302.16V381.626C410.865 382.623 410.669 383.611 410.288 384.533C409.907 385.454 409.348 386.292 408.643 386.998C407.938 387.703 407.101 388.263 406.179 388.645C405.257 389.027 404.269 389.224 403.271 389.224Z" fill="#3176FF"/>
<path d="M390.984 399.409L390.129 391.256L364.806 397.486C361.148 398.407 361.186 404.953 365.663 404.953H386.651C389.744 404.965 391.231 401.646 390.984 399.409Z" fill="#1E4ABF"/>
<path d="M383.569 399.55C381.958 399.549 380.388 399.037 379.088 398.087C377.787 397.136 376.822 395.797 376.333 394.263L365.937 361.682C363.109 352.87 362.982 343.414 365.574 334.529C370.051 319.195 374.566 306.696 379.063 297.374C379.976 295.63 381.531 294.309 383.4 293.69C385.269 293.07 387.306 293.2 389.081 294.052C390.856 294.905 392.23 296.412 392.914 298.258C393.598 300.103 393.538 302.142 392.747 303.945C388.636 312.525 384.397 324.251 380.158 338.798C378.412 344.786 378.499 351.158 380.408 357.095L390.804 389.651C391.168 390.789 391.257 391.997 391.066 393.176C390.874 394.355 390.407 395.472 389.702 396.437C388.996 397.402 388.074 398.186 387.008 398.727C385.942 399.268 384.764 399.55 383.569 399.55Z" fill="#3176FF"/>
<path d="M392.513 251.516L391.562 259.4L400.481 258.935V249.298L392.513 251.516Z" fill="#F3ABC7"/>
<path d="M389.314 249.696C389.314 250.929 391.019 252.797 393.344 251.898C394.131 251.593 399.19 249.286 399.19 249.286C399.19 249.286 399.058 240.83 398.062 240.083C396.678 239.039 393.245 238.799 391.845 239.842C389.821 241.35 389.343 246.958 389.314 249.696Z" fill="#F3ABC7"/>
<path d="M392.024 242.477C393.267 243.248 392.56 245.662 392.464 246.57C392.278 248.303 396.806 251.918 400.493 251.847C400.493 248.22 406.117 241.386 401.36 241.386C399.632 236.067 391.931 238.969 390.152 238.102C389.102 239.139 389.718 241.055 392.024 242.477Z" fill="#1E4ABF"/>
<path d="M393.068 244.435L392.002 247.145C391.885 247.411 391.678 247.628 391.417 247.756C391.156 247.885 390.858 247.917 390.576 247.847L390.027 247.713C389.756 247.647 389.471 247.675 389.218 247.791C388.965 247.908 388.759 248.106 388.633 248.355L387.226 251.08C387.084 251.352 387.049 251.668 387.127 251.964C387.206 252.261 387.392 252.518 387.65 252.685L387.885 252.839C388.099 252.976 388.35 253.045 388.604 253.035L391.921 252.913C392.172 252.903 392.414 252.817 392.615 252.666C392.816 252.515 392.966 252.307 393.046 252.069L394.671 247.196L393.068 244.435Z" fill="#1E4ABF"/>
<path d="M374.181 309.318L373.346 319.503C375.125 324.639 408.779 316.637 409.897 311.719C409.897 311.719 410.764 305.742 411.727 298.237L374.181 309.318Z" fill="#3176FF"/>
<path d="M380.039 264.501C387.249 258.832 399.752 255.121 408.301 254.161C413.057 253.629 416.792 257.166 416.471 261.865C415.588 274.789 411.975 299.708 411.975 299.708C410.793 304.904 375.209 313.379 373.327 307.935L376.346 271.1C376.479 269.807 376.875 268.554 377.511 267.419C378.146 266.285 379.006 265.291 380.039 264.501Z" fill="#42C8FF"/>
<path d="M356.453 256.601C356.609 256.45 356.795 256.333 356.999 256.258C357.203 256.183 357.42 256.151 357.637 256.165C357.854 256.179 358.066 256.238 358.258 256.339C358.451 256.439 358.62 256.579 358.756 256.749L358.717 256.235L357.754 253.921C357.68 253.765 357.671 253.586 357.729 253.424C357.788 253.262 357.908 253.129 358.064 253.056C358.22 252.982 358.398 252.973 358.561 253.031C358.723 253.089 358.856 253.21 358.929 253.365L360.291 255.933L360.683 257.766L361.123 255.596C361.159 255.432 361.255 255.286 361.392 255.188C361.529 255.09 361.697 255.046 361.865 255.064C362.033 255.082 362.188 255.162 362.3 255.287C362.413 255.413 362.475 255.575 362.475 255.744L362.382 260.976C362.382 262.629 361.849 263.435 360.631 263.778L360.156 263.913L358.409 264.408C357.975 264.53 357.511 264.476 357.118 264.256C356.724 264.036 356.434 263.669 356.312 263.236L355.451 260.196L354.94 258.065L356.453 256.601Z" fill="#F3ABC7"/>
<path d="M361.774 291.712C361.081 291.71 360.392 291.613 359.725 291.423C351.073 288.97 353.736 274.936 355.329 266.552L355.541 265.428C355.631 264.938 355.817 264.471 356.089 264.053C356.36 263.635 356.711 263.274 357.121 262.991C357.532 262.709 357.994 262.51 358.482 262.406C358.97 262.302 359.473 262.295 359.963 262.385C360.453 262.476 360.921 262.662 361.339 262.933C361.758 263.204 362.119 263.555 362.401 263.965C362.684 264.376 362.883 264.838 362.987 265.325C363.091 265.812 363.098 266.315 363.008 266.805L362.789 267.967C362.301 270.535 361.563 274.432 361.341 277.983C361.087 282.104 361.662 283.629 361.9 284.081C362.407 283.96 364.01 283.314 367.359 279.909C370.375 276.837 373.734 272.644 377.502 267.881C377.808 267.481 378.19 267.147 378.627 266.897C379.063 266.646 379.545 266.485 380.044 266.423C380.544 266.36 381.051 266.398 381.535 266.533C382.02 266.668 382.473 266.898 382.868 267.21C383.263 267.522 383.592 267.909 383.836 268.349C384.08 268.789 384.234 269.273 384.289 269.773C384.344 270.273 384.299 270.779 384.156 271.262C384.014 271.744 383.777 272.193 383.459 272.583C374.219 284.268 367.857 291.708 361.774 291.712Z" fill="#42C8FF"/>
</g>
<defs>
<linearGradient id="paint0_linear_11664_12505" x1="62.6089" y1="294.167" x2="367.388" y2="294.167" gradientUnits="userSpaceOnUse">
<stop stop-color="#D3D7F2"/>
<stop offset="0.45" stop-color="#BBC9F8"/>
<stop offset="0.55" stop-color="#D3D7F2"/>
<stop offset="1" stop-color="#F2F3FF"/>
</linearGradient>
<linearGradient id="paint1_linear_11664_12505" x1="61.0285" y1="281.366" x2="368.962" y2="281.366" gradientUnits="userSpaceOnUse">
<stop stop-color="#E8EAFB"/>
<stop offset="1" stop-color="white"/>
</linearGradient>
<linearGradient id="paint2_linear_11664_12505" x1="113.641" y1="285.837" x2="325.152" y2="285.837" gradientUnits="userSpaceOnUse">
<stop stop-color="#D3D7F2"/>
<stop offset="0.45" stop-color="#BBC9F8"/>
<stop offset="0.55" stop-color="#D3D7F2"/>
<stop offset="1" stop-color="#F2F3FF"/>
</linearGradient>
<linearGradient id="paint3_linear_11664_12505" x1="112.546" y1="246.689" x2="326.242" y2="246.689" gradientUnits="userSpaceOnUse">
<stop stop-color="#E8EAFB"/>
<stop offset="1" stop-color="white"/>
</linearGradient>
<linearGradient id="paint4_linear_11664_12505" x1="280.174" y1="29.9171" x2="161.952" y2="262.065" gradientUnits="userSpaceOnUse">
<stop stop-color="#EDEEFB"/>
<stop offset="0.06" stop-color="#FCFCFE"/>
<stop offset="0.3" stop-color="#E1E3F8"/>
<stop offset="0.37" stop-color="#C5D0F9"/>
<stop offset="1" stop-color="#DDE2FB"/>
</linearGradient>
<linearGradient id="paint5_linear_11664_12505" x1="139.385" y1="148.755" x2="197.646" y2="148.755" gradientUnits="userSpaceOnUse">
<stop stop-color="#1E69FF"/>
<stop offset="1" stop-color="#6697FF"/>
</linearGradient>
<linearGradient id="paint6_linear_11664_12505" x1="145.799" y1="123.035" x2="168.845" y2="123.035" gradientUnits="userSpaceOnUse">
<stop stop-color="#E8EAFB"/>
<stop offset="1" stop-color="white"/>
</linearGradient>
<linearGradient id="paint7_linear_11664_12505" x1="166.478" y1="208.587" x2="342.55" y2="126.269" gradientUnits="userSpaceOnUse">
<stop stop-color="#7023FF"/>
<stop offset="1" stop-color="#3377FF"/>
</linearGradient>
<clipPath id="clip0_11664_12505">
<rect width="416" height="418.328" fill="white" transform="translate(0.5 0.924805)"/>
</clipPath>
</defs>
</svg>
