<svg width="18" height="19" viewBox="0 0 18 19" fill="none" xmlns="http://www.w3.org/2000/svg">
<g clip-path="url(#clip0_10948_9559)">
<path d="M2.41772 8.28323C2.75016 8.28323 3.04105 8.23034 3.29037 8.12456C3.54727 8.01878 3.76259 7.87523 3.93637 7.6939C4.11015 7.51257 4.24237 7.30101 4.33304 7.05924C4.4237 6.82501 4.47659 6.57569 4.49169 6.31125H3.35838C2.97305 6.31125 2.65572 6.26969 2.40638 6.18657C2.15706 6.10347 1.96061 5.98258 1.81706 5.82392C1.67351 5.66525 1.57151 5.47636 1.51106 5.25726C1.45818 5.03059 1.43173 4.77748 1.43173 4.49793C1.43173 4.21083 1.47329 3.93883 1.5564 3.68194C1.63951 3.42505 1.76039 3.19838 1.91906 3.00195C2.07772 2.8055 2.27416 2.65062 2.50839 2.53729C2.75016 2.4164 3.02593 2.35595 3.33571 2.35595C3.58505 2.35595 3.82304 2.39751 4.0497 2.48062C4.27637 2.56373 4.47659 2.69595 4.65036 2.87729C4.82414 3.05105 4.96014 3.2815 5.05836 3.56861C5.16414 3.84816 5.21703 4.18816 5.21703 4.58859V5.52925H6.30501C6.39568 5.52925 6.45612 5.56326 6.48634 5.63125C6.52412 5.6917 6.54301 5.78614 6.54301 5.91458C6.54301 6.05059 6.52412 6.15258 6.48634 6.22058C6.45612 6.28102 6.39568 6.31125 6.30501 6.31125H5.19436C5.17925 6.68146 5.10369 7.03279 4.96769 7.36524C4.83925 7.69768 4.65792 7.98857 4.4237 8.23789C4.18949 8.48722 3.90992 8.68367 3.58505 8.82722C3.26016 8.97833 2.89371 9.05389 2.48572 9.05389H1.2844L1.2164 8.28323H2.41772ZM2.13439 4.4526C2.13439 4.64149 2.15328 4.80393 2.19106 4.93993C2.23639 5.07593 2.30817 5.18925 2.40638 5.27993C2.51217 5.36303 2.65194 5.42726 2.82572 5.47258C2.99949 5.51036 3.2186 5.52925 3.48304 5.52925H4.50303V4.67927C4.50303 4.12015 4.39348 3.71972 4.17437 3.47795C3.95526 3.23616 3.65304 3.11528 3.26772 3.11528C2.90505 3.11528 2.6255 3.23616 2.42905 3.47795C2.23261 3.71972 2.13439 4.0446 2.13439 4.4526ZM8.17791 5.52925C8.27614 5.52925 8.34036 5.56326 8.37058 5.63125C8.40836 5.6917 8.42725 5.78614 8.42725 5.91458C8.42725 6.05059 8.40836 6.15258 8.37058 6.22058C8.34036 6.28102 8.27614 6.31125 8.17791 6.31125H6.30794C6.20972 6.31125 6.14549 6.28102 6.11527 6.22058C6.07749 6.16014 6.05861 6.06569 6.05861 5.93725C6.05861 5.80125 6.07749 5.69925 6.11527 5.63125C6.14549 5.56326 6.20972 5.52925 6.30794 5.52925H8.17791ZM10.0483 5.52925C10.1466 5.52925 10.2108 5.56326 10.241 5.63125C10.2788 5.6917 10.2977 5.78614 10.2977 5.91458C10.2977 6.05059 10.2788 6.15258 10.241 6.22058C10.2108 6.28102 10.1466 6.31125 10.0483 6.31125H8.17791C8.07969 6.31125 8.01591 6.28102 7.9857 6.22058C7.94792 6.16014 7.92903 6.06569 7.92903 5.93725C7.92903 5.80125 7.94792 5.69925 7.9857 5.63125C8.01591 5.56326 8.07969 5.52925 8.17791 5.52925H10.0483ZM11.9188 5.52925C12.017 5.52925 12.0812 5.56326 12.1114 5.63125C12.1492 5.6917 12.1681 5.78614 12.1681 5.91458C12.1681 6.05059 12.1492 6.15258 12.1114 6.22058C12.0812 6.28102 12.017 6.31125 11.9188 6.31125H10.0483C9.95013 6.31125 9.88634 6.28102 9.85612 6.22058C9.81834 6.16014 9.79946 6.06569 9.79946 5.93725C9.79946 5.80125 9.81834 5.69925 9.85612 5.63125C9.88634 5.56326 9.95013 5.52925 10.0483 5.52925H11.9188ZM13.7891 5.52925C13.8875 5.52925 13.9516 5.56326 13.9818 5.63125C14.0196 5.6917 14.0385 5.78614 14.0385 5.91458C14.0385 6.05059 14.0196 6.15258 13.9818 6.22058C13.9516 6.28102 13.8875 6.31125 13.7891 6.31125H11.9188C11.8205 6.31125 11.7568 6.28102 11.7265 6.22058C11.6888 6.16014 11.6699 6.06569 11.6699 5.93725C11.6699 5.80125 11.6888 5.69925 11.7265 5.63125C11.7568 5.56326 11.8205 5.52925 11.9188 5.52925H13.7891ZM14.8096 5.52925C15.1043 5.52925 15.3385 5.44993 15.5123 5.29126C15.6936 5.1326 15.7843 4.91348 15.7843 4.63393V3.06994H16.521V4.63393C16.521 5.17036 16.3698 5.58592 16.0676 5.88059C15.773 6.16769 15.3687 6.31125 14.855 6.31125H13.7891C13.6909 6.31125 13.6271 6.28102 13.597 6.22058C13.5592 6.16014 13.5403 6.06569 13.5403 5.93725C13.5403 5.80125 13.5592 5.69925 13.597 5.63125C13.6271 5.56326 13.6909 5.52925 13.7891 5.52925H14.8096ZM16.6343 1.61929H15.7276V0.814636H16.6343V1.61929ZM15.1949 1.61929H14.2883V0.814636H15.1949V1.61929ZM7.47234 15.0846C7.47234 15.4925 7.40811 15.8741 7.27967 16.2292C7.15123 16.5919 6.96612 16.9054 6.72435 17.1699C6.48257 17.4419 6.1879 17.6573 5.84036 17.8159C5.50036 17.9745 5.11502 18.0539 4.68436 18.0539H4.01571C3.16949 18.0539 2.51217 17.7933 2.04372 17.2719C1.57528 16.7506 1.34107 16.0366 1.34107 15.1299V13.1466H2.06639V15.1072C2.06639 15.4321 2.10417 15.7268 2.17972 15.9912C2.26283 16.2557 2.38749 16.4823 2.55372 16.6712C2.72749 16.8676 2.94283 17.0188 3.19971 17.1246C3.4566 17.2303 3.76637 17.2832 4.12904 17.2832H4.6277C4.9828 17.2832 5.29258 17.2228 5.55702 17.1018C5.82147 16.9886 6.04057 16.8336 6.21435 16.6372C6.39568 16.4408 6.5279 16.2104 6.61101 15.9459C6.70168 15.6814 6.747 15.4057 6.747 15.1186V12.0699H7.47234V15.0846ZM4.74103 11.8206H3.78904V10.9933H4.74103V11.8206ZM10.4013 15.3113C10.2048 15.3113 10.0159 15.2849 9.8346 15.2319C9.65327 15.1715 9.49082 15.0732 9.34727 14.9372C9.21127 14.8012 9.10172 14.6237 9.01862 14.4045C8.9355 14.178 8.89394 13.8984 8.89394 13.566V8.28466H9.6306V13.43C9.6306 13.7473 9.6986 14.0117 9.8346 14.2233C9.97815 14.4273 10.2086 14.5293 10.5259 14.5293H10.7186C10.8848 14.5293 10.9679 14.6577 10.9679 14.9146C10.9679 15.179 10.8848 15.3113 10.7186 15.3113H10.4013ZM10.9052 14.5293C11.1999 14.5293 11.4228 14.4575 11.5739 14.3139C11.725 14.1703 11.8006 13.9777 11.8006 13.736V13.3053C11.8006 12.648 11.9668 12.1342 12.2992 11.7639C12.6393 11.3937 13.1076 11.2086 13.7045 11.2086C14.0144 11.2086 14.2863 11.2577 14.5205 11.356C14.7547 11.4542 14.9474 11.594 15.0985 11.7753C15.2571 11.9567 15.3743 12.172 15.4499 12.4213C15.5255 12.6706 15.5631 12.9464 15.5631 13.2486C15.5631 13.8984 15.3932 14.4045 15.0532 14.7672C14.7132 15.1299 14.2486 15.3113 13.6592 15.3113C13.357 15.3113 13.0661 15.2546 12.7865 15.1412C12.507 15.0204 12.2879 14.8088 12.1292 14.5066C12.0612 14.6804 11.9781 14.8201 11.8799 14.9259C11.7817 15.0317 11.6797 15.1148 11.5739 15.1753C11.4681 15.2282 11.3548 15.266 11.2339 15.2886C11.1206 15.3036 11.011 15.3113 10.9052 15.3113H10.7239C10.6257 15.3113 10.5615 15.281 10.5312 15.2206C10.4935 15.1601 10.4746 15.0657 10.4746 14.9372C10.4746 14.8012 10.4935 14.6993 10.5312 14.6312C10.5615 14.5633 10.6257 14.5293 10.7239 14.5293H10.9052ZM14.8379 13.3166C14.8379 12.9237 14.751 12.6063 14.5772 12.3646C14.4034 12.1153 14.105 11.9906 13.6819 11.9906C12.8961 11.9906 12.5033 12.4477 12.5033 13.3619C12.5033 13.7473 12.609 14.0381 12.8205 14.2346C13.0397 14.431 13.3192 14.5293 13.6592 14.5293C14.0445 14.5293 14.3354 14.4234 14.5319 14.2119C14.7358 14.0003 14.8379 13.702 14.8379 13.3166Z" fill="black"/>
</g>
<defs>
<clipPath id="clip0_10948_9559">
<rect width="18" height="18" fill="white" transform="translate(0 0.5)"/>
</clipPath>
</defs>
</svg>
