<svg width="244" height="136" viewBox="0 0 244 136" fill="none" xmlns="http://www.w3.org/2000/svg">
<g clip-path="url(#clip0_12181_86495)">
<circle cx="122.006" cy="122.1" r="121.882" stroke="#E5F1FF" stroke-width="0.436072"/>
<circle cx="122.007" cy="122.1" r="106.619" stroke="#CCE4FF" stroke-width="0.436072"/>
<circle cx="122.006" cy="122.1" r="92.4472" stroke="#99CAFF" stroke-width="0.872143"/>
<circle cx="122.007" cy="122.1" r="77.8388" stroke="#57A8FF" stroke-width="1.30821"/>
<circle cx="122.006" cy="122.1" r="64.9746" fill="#007BFF"/>
<g clip-path="url(#clip1_12181_86495)">
<path d="M122.028 78.9492C124.875 78.9492 127.606 80.0803 129.619 82.0936C131.633 84.1069 132.764 86.8375 132.764 89.6847C132.764 92.532 131.633 95.2626 129.619 97.2759C127.606 99.2892 124.875 100.42 122.028 100.42C119.181 100.42 116.45 99.2892 114.437 97.2759C112.424 95.2626 111.293 92.532 111.293 89.6847C111.293 86.8375 112.424 84.1069 114.437 82.0936C116.45 80.0803 119.181 78.9492 122.028 78.9492ZM100.557 86.6174C102.275 86.6174 103.87 87.0775 105.25 87.9057C104.79 92.2919 106.078 96.6475 108.716 100.052C107.182 102.997 104.115 105.021 100.557 105.021C98.1167 105.021 95.7761 104.052 94.0504 102.326C92.3248 100.6 91.3553 98.2598 91.3553 95.8193C91.3553 93.3788 92.3248 91.0383 94.0504 89.3126C95.7761 87.5869 98.1167 86.6174 100.557 86.6174ZM143.499 86.6174C145.94 86.6174 148.28 87.5869 150.006 89.3126C151.732 91.0383 152.701 93.3788 152.701 95.8193C152.701 98.2598 151.732 100.6 150.006 102.326C148.28 104.052 145.94 105.021 143.499 105.021C139.941 105.021 136.874 102.997 135.34 100.052C138.014 96.5997 139.256 92.2496 138.806 87.9057C140.186 87.0775 141.781 86.6174 143.499 86.6174ZM102.091 118.057C102.091 111.708 111.017 106.555 122.028 106.555C133.04 106.555 141.966 111.708 141.966 118.057V123.425H102.091V118.057ZM85.2207 123.425V118.824C85.2207 114.56 91.0179 110.972 98.8701 109.929C97.0604 112.015 95.9562 114.898 95.9562 118.057V123.425H85.2207ZM158.836 123.425H148.1V118.057C148.1 114.898 146.996 112.015 145.186 109.929C153.038 110.972 158.836 114.56 158.836 118.824V123.425Z" fill="#FDFDFD"/>
</g>
</g>
<defs>
<clipPath id="clip0_12181_86495">
<rect width="244" height="135.82" fill="white"/>
</clipPath>
<clipPath id="clip1_12181_86495">
<rect width="73.6149" height="73.6149" fill="white" transform="translate(85.2207 62.0792)"/>
</clipPath>
</defs>
</svg>
