<svg width="184" height="105" viewBox="0 0 184 105" fill="none" xmlns="http://www.w3.org/2000/svg">
<path d="M110.271 21.7542C109.734 21.2556 109.021 20.9904 108.288 21.0167H96.0296C95.4681 21.0265 94.9129 21.1376 94.3908 21.3445C93.9872 21.4436 93.6221 21.6603 93.3419 21.9672C92.9822 22.3613 92.7656 22.865 92.7269 23.3971C92.6883 23.9293 92.8299 24.4589 93.1288 24.9008L100.323 37.4546C104.208 44.1412 108.174 51.0245 112.041 57.58L131.331 91.1114L135.74 98.9616C135.882 99.3181 136.116 99.6304 136.418 99.8666C136.72 100.103 137.08 100.254 137.46 100.306C137.77 100.37 138.09 100.367 138.398 100.296C138.707 100.225 138.996 100.089 139.247 99.8958C139.62 99.4998 139.965 99.0781 140.279 98.6339C142.541 94.8644 144.639 91.095 146.835 87.342C147.091 86.9345 147.227 86.463 147.227 85.9817C147.227 85.5005 147.091 85.029 146.835 84.6215C145.376 81.9993 143.901 79.3935 142.344 76.7713L133.347 61.2839C128.84 53.7123 124.448 45.9768 119.957 38.3396C117.024 33.3083 114.09 28.195 111.156 23.1636C110.886 22.679 110.59 22.2086 110.271 21.7542Z" fill="url(#paint0_linear_12246_165055)"/>
<path d="M181.202 21.0167H150.227V21.0003H119.466C118.902 20.9934 118.344 21.1051 117.827 21.3281L117.712 21.5247C117.18 21.862 116.803 22.3953 116.662 23.0088C116.521 23.6224 116.627 24.2668 116.958 24.8025C118.958 28.3425 120.99 32.0135 123.038 35.5699C123.242 35.9081 123.484 36.2216 123.759 36.5041C124.02 36.7176 124.322 36.8744 124.647 36.9647C124.971 37.055 125.311 37.0767 125.644 37.0285H174.614C175.294 37.0409 175.959 36.8212 176.498 36.4057C176.833 36.1048 177.116 35.7504 177.334 35.3569C179.104 32.4233 180.776 29.3913 182.562 26.3594C183.167 25.5864 183.597 24.6919 183.824 23.7372C183.883 23.3564 183.847 22.9668 183.718 22.6035C183.589 22.2402 183.372 21.9146 183.087 21.6559C182.554 21.226 181.886 20.9994 181.202 21.0167Z" fill="url(#paint1_linear_12246_165055)"/>
<path d="M135.066 56.2673C135.549 56.526 136.095 56.6403 136.641 56.5967H146.999C146.828 56.7598 146.728 56.9834 146.72 57.2195C144.95 60.0547 143.278 62.8736 141.492 65.8072C141.236 66.1752 141.099 66.6127 141.099 67.0609C141.099 67.5091 141.236 67.9466 141.492 68.3147C143.803 72.0841 145.999 75.7388 148.293 79.5082C148.408 79.6065 148.408 79.7212 148.506 79.8196C148.927 80.3149 149.525 80.6252 150.172 80.6835C150.819 80.7417 151.463 80.5433 151.964 80.1309C152.255 79.9002 152.5 79.6166 152.686 79.2951L155.193 74.9029L163.879 60.0547C166.501 55.5478 169.009 51.0573 171.631 46.5504C172.154 45.7316 172.572 44.8507 172.877 43.9282C172.936 43.5212 172.891 43.1057 172.745 42.7213C172.598 42.3369 172.356 41.9963 172.041 41.7321C171.466 41.4057 170.817 41.2309 170.156 41.224H130.561C130.105 41.2041 129.649 41.2371 129.2 41.3224C128.951 41.4049 128.71 41.5091 128.479 41.6338C127.976 41.9633 127.619 42.4739 127.481 43.0596C127.344 43.6454 127.437 44.2615 127.742 44.7804C129.725 48.3368 131.823 51.6801 133.92 55.1381C134.186 55.6167 134.584 56.0087 135.066 56.2673Z" fill="url(#paint2_linear_12246_165055)"/>
<path d="M16.1178 39.4635L10.4002 50.7539L4.77671 39.4997H0L10.4943 61.5739L20.8945 39.4635H16.1178Z" fill="#606060"/>
<path d="M30.8821 43.9507C31.5095 44.2524 32.0743 44.6698 32.5467 45.1811L35.2246 41.5624C34.3826 40.7636 33.4014 40.1258 32.3296 39.6806C31.3 39.243 30.1915 39.0213 29.0728 39.0293C27.8944 39.0433 26.7334 39.315 25.6712 39.8254C24.5989 40.3321 23.6946 41.1359 23.0657 42.1414C22.382 43.196 22.0291 44.431 22.0525 45.6877C21.9539 47.1099 22.3643 48.5209 23.2105 49.6683C23.9673 50.5689 24.9377 51.2656 26.0331 51.6948L26.8292 52.0566L27.5529 52.3461C28.0705 52.5368 28.5778 52.7542 29.0728 52.9975C30.086 53.4318 30.5926 54.0107 30.5926 54.7345C30.6127 55.0267 30.5484 55.3185 30.4072 55.5752C30.266 55.8318 30.0541 56.0425 29.7965 56.182C29.2824 56.5233 28.6765 56.7 28.0595 56.6886C27.3594 56.7237 26.6615 56.5831 26.0295 56.2798C25.3975 55.9764 24.8514 55.5198 24.4408 54.9516L21.6182 59.0046C22.5009 59.8216 23.533 60.4606 24.6579 60.8863C25.8155 61.3183 27.0412 61.5389 28.2767 61.5377C30.2159 61.6244 32.1122 60.949 33.56 59.6559C34.2753 58.9827 34.834 58.1605 35.1967 57.2476C35.5593 56.3346 35.7171 55.3532 35.6588 54.3726C35.8036 52.901 35.3903 51.4286 34.5009 50.2473C33.7239 49.3686 32.7593 48.676 31.6783 48.2208C30.6195 47.8671 29.5806 47.4563 28.5662 46.9904C27.6253 46.5562 27.1187 45.9772 27.1187 45.2535C27.1151 45.0102 27.1729 44.7699 27.2867 44.5548C27.4006 44.3398 27.5668 44.1569 27.77 44.0231C28.1676 43.73 28.6513 43.5772 29.1452 43.5888C29.7473 43.5332 30.3523 43.6592 30.8821 43.9507Z" fill="#606060"/>
<path d="M73.583 49.5959H76.7675L76.8905 55.0964C76.8359 56.3201 77.0845 57.5383 77.6143 58.6427C78.0868 59.5626 78.8501 60.3005 79.7855 60.7416C80.9286 61.2307 82.1609 61.4771 83.4042 61.4653C83.6477 61.4772 83.8916 61.4528 84.1279 61.3929L85.5031 56.5438C85.0834 56.6862 84.6435 56.7595 84.2003 56.761C82.4633 56.761 81.5948 56.0372 81.5948 54.6621V49.5235H83.7661L84.8517 45.3258H81.6672V39.3911H76.7675V45.3982H74.6686L73.583 49.5959Z" fill="#606060"/>
<path fill-rule="evenodd" clip-rule="evenodd" d="M54.9828 39.3911H59.8319V45.8324L60.5556 45.5429C62.7286 44.747 65.1134 44.747 67.2864 45.5429C68.3515 45.9359 69.3335 46.5251 70.1814 47.2799C71.4462 48.4181 72.317 49.9285 72.6682 51.5934C73.0194 53.2583 72.8329 54.9918 72.1355 56.5438C71.1483 58.5852 69.4112 60.1667 67.2864 60.9587C66.2042 61.3899 65.0498 61.611 63.8848 61.6101C62.347 61.6116 60.8318 61.239 59.47 60.5244C58.1299 59.8569 57.0022 58.8294 56.2132 57.5571C55.4059 56.3062 54.9785 54.8481 54.9828 53.3594V39.3911ZM62.3718 56.8492C61.881 56.644 61.4359 56.3434 61.0622 55.9649H61.084C60.6882 55.6091 60.3722 55.1737 60.1564 54.6873C59.9406 54.2009 59.83 53.6744 59.8319 53.1423C59.8337 52.4489 60.0346 51.7706 60.4109 51.1882C60.7863 50.5843 61.3093 50.0862 61.9307 49.7407C62.5339 49.3855 63.2211 49.1982 63.921 49.1982C64.621 49.1982 65.3082 49.3855 65.9113 49.7407C66.5327 50.0862 67.0558 50.5843 67.4312 51.1882C67.8074 51.7706 68.0084 52.4489 68.0102 53.1423C68.0148 53.6728 67.9076 54.1983 67.6956 54.6846C67.4836 55.1709 67.1716 55.6071 66.7798 55.9649C66.4062 56.3434 65.9611 56.644 65.4703 56.8492C64.9796 57.0543 64.4529 57.16 63.921 57.16C63.3891 57.16 62.8625 57.0543 62.3718 56.8492Z" fill="#606060"/>
<path fill-rule="evenodd" clip-rule="evenodd" d="M48.9303 60.7912C48.831 60.8264 48.7462 60.8563 48.6862 60.8863C47.4359 61.355 46.1017 61.5585 44.7685 61.4837C43.4353 61.4089 42.1323 61.0576 40.9422 60.4521C39.6317 59.7421 38.5139 58.7236 37.6853 57.4847C36.983 56.3572 36.5694 55.0739 36.481 53.7485C36.3927 52.423 36.6323 51.0962 37.1787 49.8854C37.6623 48.9029 38.325 48.0193 39.1328 47.2799C39.9991 46.5503 40.9764 45.9639 42.0278 45.5429C43.1282 45.1177 44.3004 44.9088 45.48 44.9278C46.6375 44.9382 47.7859 45.1337 48.8816 45.5068C49.9461 45.8555 50.9132 46.4506 51.7042 47.2437C52.5355 47.9901 53.2012 48.9023 53.6583 49.9216C54.1534 50.9606 54.4011 52.1001 54.3821 53.2508V61.1396L49.533 61.0672V60.633L49.41 60.5968C49.2404 60.6816 49.0708 60.7416 48.9303 60.7912ZM41.2317 53.1423C41.2335 52.4489 41.4344 51.7706 41.8107 51.1882H41.8613C42.206 50.5959 42.7168 50.1178 43.3305 49.813C43.9449 49.4922 44.6277 49.3246 45.3208 49.3246C46.0139 49.3246 46.6968 49.4922 47.3111 49.813C47.9325 50.1585 48.4556 50.6567 48.831 51.2605C49.2072 51.843 49.4082 52.5212 49.41 53.2146C49.4067 53.7333 49.2956 54.2456 49.0838 54.7191C48.872 55.1925 48.5641 55.6167 48.1796 55.9649C47.4078 56.6969 46.3846 57.1049 45.3208 57.1049C44.2571 57.1049 43.2339 56.6969 42.462 55.9649C42.0703 55.6071 41.7582 55.1709 41.5462 54.6846C41.3343 54.1983 41.2271 53.6728 41.2317 53.1423Z" fill="#606060"/>
<defs>
<linearGradient id="paint0_linear_12246_165055" x1="138.223" y1="6.40505" x2="138.223" y2="125.74" gradientUnits="userSpaceOnUse">
<stop stop-color="#BEBEBE" stop-opacity="0.935"/>
<stop offset="1" stop-color="white" stop-opacity="0"/>
</linearGradient>
<linearGradient id="paint1_linear_12246_165055" x1="138.223" y1="6.40505" x2="138.223" y2="125.74" gradientUnits="userSpaceOnUse">
<stop stop-color="#BEBEBE" stop-opacity="0.935"/>
<stop offset="1" stop-color="white" stop-opacity="0"/>
</linearGradient>
<linearGradient id="paint2_linear_12246_165055" x1="138.223" y1="6.40505" x2="138.223" y2="125.74" gradientUnits="userSpaceOnUse">
<stop stop-color="#BEBEBE" stop-opacity="0.935"/>
<stop offset="1" stop-color="white" stop-opacity="0"/>
</linearGradient>
</defs>
</svg>
