<svg width="552" height="416" viewBox="0 0 552 416" fill="none" xmlns="http://www.w3.org/2000/svg">
<g clip-path="url(#clip0_11228_9611)">
<path d="M107.863 161.635C106.758 164.705 106.191 167.943 106.186 171.206C106.186 183.678 114.492 195.357 129.579 204.089L131.176 203.119L130.409 202.675C115.846 194.247 107.824 183.072 107.824 171.206C107.829 168.246 108.325 165.307 109.291 162.51L107.863 161.635Z" fill="#4CD3DC"/>
<path d="M437.417 252.419C442.463 245.118 444.151 237.165 442.291 229.368C439.949 219.617 432.405 210.804 420.43 203.877C417.279 202.066 414.01 200.466 410.647 199.09L408.888 200.148C412.578 201.597 416.156 203.318 419.593 205.294C431.167 211.992 438.461 220.453 440.694 229.748C442.495 237.292 440.743 245.023 435.63 252.101C435.505 252.275 435.453 252.49 435.484 252.701C435.515 252.912 435.626 253.103 435.795 253.233C436.499 253.783 437.202 254.347 437.87 254.915L444.053 258.683C442.032 256.4 439.811 254.303 437.417 252.419Z" fill="#4CD3DC"/>
<path d="M142.461 209.652L140.868 210.624L250.739 274.208L252.332 273.238L142.461 209.652Z" fill="#4CD3DC"/>
<path d="M114.921 152.519C118.688 147.834 123.889 143.509 130.395 139.741C145.127 131.213 164.729 126.518 185.587 126.518C195.892 126.505 206.162 127.715 216.183 130.124C216.333 130.162 216.491 130.156 216.637 130.106C239.717 122.316 267.124 118.872 293.813 120.398C307.794 121.159 321.66 123.355 335.194 126.951C348.695 130.596 360.923 135.556 371.54 141.701C374.799 143.581 377.856 145.545 380.712 147.595L382.231 146.671C379.052 144.371 375.756 142.237 372.356 140.28C361.619 134.065 349.258 129.049 335.62 125.369C321.985 121.744 308.014 119.53 293.929 118.762C267.124 117.222 239.587 120.673 216.363 128.474C206.283 126.073 195.958 124.866 185.598 124.879C164.455 124.879 144.564 129.652 129.586 138.32C122.816 142.236 117.415 146.749 113.511 151.659L114.921 152.519Z" fill="#4CD3DC"/>
<path d="M392.324 323.193C386.034 324.091 379.688 324.539 373.334 324.533C352.465 324.533 332.866 319.837 318.142 311.317L263.632 279.77L262.035 280.743L317.319 312.738C332.29 321.399 352.18 326.172 373.33 326.172C380.421 326.18 387.501 325.628 394.505 324.522L392.324 323.193Z" fill="#4CD3DC"/>
<path d="M429.335 312.738C441.478 305.708 449.303 296.702 451.877 286.951L450.847 286.87L452.078 286.165C452.426 284.676 452.653 283.161 452.757 281.635C452.848 280.216 452.828 278.793 452.697 277.377L450.938 276.295C451.186 278.027 451.254 279.78 451.142 281.526C450.404 292.732 442.375 303.315 428.533 311.324C422.247 314.9 415.558 317.712 408.607 319.7L410.485 320.846C417.051 318.859 423.374 316.139 429.335 312.738Z" fill="#4CD3DC"/>
<path d="M402.467 170.709C405.383 175.781 407.345 181.347 408.255 187.129L409.771 186.209C408.777 180.474 406.786 174.957 403.888 169.912C400.566 164.165 396.419 158.939 391.579 154.402L390.13 155.283C395.243 160.101 399.356 165.243 402.467 170.709Z" fill="#4CD3DC"/>
<g opacity="0.75">
<path d="M99.0746 156.277C96.6984 160.895 95.4463 166.011 95.4207 171.206C95.4207 185.349 104.853 198.593 121.972 208.502L122.162 208.612L123.755 207.632L122.792 207.075C106.207 197.479 97.063 184.736 97.063 171.206C97.0907 166.311 98.2627 161.49 100.485 157.13L99.0746 156.277Z" fill="#4CD3DC"/>
<path d="M244.915 277.758L135.044 214.174L133.451 215.147L243.322 278.73L244.915 277.758Z" fill="#4CD3DC"/>
<path d="M295.761 309.075L298.637 308.849L256.208 284.293L254.615 285.266L295.761 309.075Z" fill="#4CD3DC"/>
<path d="M436.129 315.723C429.841 319.31 423.188 322.214 416.284 324.385L418.127 325.506C424.666 323.36 430.971 320.559 436.949 317.144C439.127 315.882 441.181 314.565 443.11 313.192L442.702 311.472C440.585 313.001 438.391 314.42 436.129 315.723Z" fill="#4CD3DC"/>
<path d="M449.412 251.544C453.566 244.142 454.793 236.207 452.957 228.515C452.252 225.614 451.174 222.817 449.75 220.195L448.224 220.315L448.691 218.352C444.362 211.301 437.381 204.875 428.044 199.471C425.86 198.205 423.532 197.003 421.116 195.865C421.165 194.807 421.173 193.75 421.151 192.692L419.523 193.683C419.523 194.567 419.506 195.445 419.456 196.334C419.446 196.498 419.486 196.662 419.571 196.804C419.656 196.945 419.781 197.058 419.931 197.127C422.477 198.301 424.932 199.566 427.225 200.895C440.473 208.562 448.821 218.246 451.364 228.902C453.147 236.372 451.87 244.117 447.664 251.301C447.569 251.465 447.533 251.657 447.564 251.844C447.594 252.031 447.688 252.202 447.83 252.327C453.263 257.171 457.205 262.55 459.519 268.116L461.795 269.505C459.6 263.135 455.422 257.019 449.412 251.544Z" fill="#4CD3DC"/>
<path d="M400.687 328.291C391.66 329.95 382.501 330.776 373.323 330.758C349.581 330.758 327.275 325.418 310.517 315.72L300.951 310.185L300.762 310.989L300.558 311.849L309.701 317.137C326.708 326.983 349.297 332.422 373.323 332.422C383.205 332.442 393.066 331.489 402.762 329.577L400.687 328.291Z" fill="#4CD3DC"/>
<path d="M105.602 146.837L107.026 147.704C111.109 143.206 116.395 139.036 122.792 135.334C139.556 125.629 161.863 120.285 185.598 120.289C195.61 120.29 205.597 121.287 215.413 123.264C215.547 123.292 215.687 123.285 215.817 123.243C239.791 115.861 267.866 112.646 294.896 114.197C310.054 115.022 325.089 117.403 339.763 121.304C354.406 125.256 367.668 130.635 379.175 137.294C382.366 139.141 385.376 141.057 388.206 143.04L389.732 142.11C386.685 139.952 383.439 137.874 379.995 135.874C368.361 129.141 354.969 123.708 340.188 119.721C325.406 115.791 310.261 113.392 294.991 112.562C267.855 111.004 239.647 114.215 215.536 121.618C205.678 119.645 195.65 118.651 185.598 118.65C161.578 118.65 138.983 124.071 121.972 133.917C115.319 137.763 109.829 142.12 105.602 146.837Z" fill="#4CD3DC"/>
<path d="M412.697 168.763C414.94 172.698 416.673 176.904 417.856 181.278L419.312 180.389C418.096 176.046 416.352 171.869 414.118 167.952C410.439 161.47 405.463 155.378 399.245 149.727L397.786 150.619C404.043 156.245 409.014 162.293 412.697 168.763Z" fill="#4CD3DC"/>
<path d="M462.54 287.801L460.884 287.667C458.802 295.323 453.685 302.599 445.973 308.948L448.29 309.131C455.651 302.737 460.536 295.461 462.54 287.801Z" fill="#4CD3DC"/>
</g>
<g opacity="0.5">
<path d="M237.502 282.28L136.089 223.59L133.212 223.819L235.905 283.25L237.502 282.28Z" fill="#4CD3DC"/>
<path d="M430.299 193.531C430.298 193.681 430.34 193.829 430.418 193.957C430.496 194.085 430.608 194.189 430.742 194.257C432.148 194.983 433.527 195.734 434.839 196.496C441.26 200.211 446.659 204.35 450.953 208.834L451.403 206.948C447.123 202.658 441.855 198.678 435.658 195.093C434.459 194.388 433.196 193.711 431.93 193.045C431.896 190.841 431.723 188.641 431.41 186.46L429.884 187.39C430.148 189.427 430.287 191.477 430.299 193.531Z" fill="#4CD3DC"/>
<path d="M90.6343 151.13C86.7096 157.476 84.6558 164.244 84.6558 171.206C84.6558 185.381 93.1382 198.748 108.696 209.352L109.101 207.642C94.3304 197.419 86.2911 184.662 86.2911 171.206C86.2911 164.554 88.2569 158.075 92.0304 151.984L90.6343 151.13Z" fill="#4CD3DC"/>
<path d="M282.369 310.14L285.249 309.911L248.791 288.812L247.198 289.785L282.369 310.14Z" fill="#4CD3DC"/>
<path d="M462.03 228.046C463.789 235.466 462.878 243.229 459.358 250.501C459.284 250.654 459.259 250.827 459.288 250.995C459.316 251.163 459.396 251.318 459.516 251.439C466.525 258.468 470.872 266.417 472.24 274.49L473.745 273.619C472.247 265.578 467.928 257.692 461.084 250.706C464.562 243.239 465.445 235.29 463.627 227.676C462.93 224.791 461.898 221.997 460.553 219.353L458.795 219.49C460.226 222.195 461.313 225.07 462.03 228.046Z" fill="#4CD3DC"/>
<path d="M408.814 333.247C397.153 335.773 385.254 337.033 373.323 337.005C346.705 337.005 321.693 331.012 302.903 320.14L299.112 317.948L298.718 319.612L302.084 321.561C321.12 332.577 346.42 338.644 373.323 338.644C385.939 338.681 398.518 337.285 410.819 334.481L408.814 333.247Z" fill="#4CD3DC"/>
<path d="M410.615 150.827C415.41 155.585 419.55 160.964 422.924 166.821C424.534 169.658 425.904 172.624 427.021 175.69L428.428 174.819C427.3 171.776 425.929 168.829 424.327 166.007C420.708 159.733 416.235 153.995 411.037 148.959L410.812 149.907L410.615 150.827Z" fill="#4CD3DC"/>
<path d="M444.633 319.605C444.337 319.781 444.046 319.957 443.747 320.13C437.441 323.736 430.801 326.719 423.919 329.038L425.73 330.141C432.257 327.863 438.561 324.987 444.563 321.551L445.03 321.276L444.633 319.605Z" fill="#4CD3DC"/>
<path d="M97.8015 142.081L99.2399 142.959C103.551 138.616 108.883 134.569 115.178 130.928C133.975 120.046 158.986 114.056 185.598 114.056C195.292 114.066 204.969 114.897 214.523 116.542C214.641 116.561 214.761 116.554 214.875 116.52C239.728 109.449 268.52 106.421 295.951 107.997C312.288 108.885 328.492 111.452 344.306 115.657C360.093 119.915 374.385 125.711 386.782 132.888C388.17 133.691 389.526 134.507 390.851 135.334L393.566 135.119C391.646 133.874 389.653 132.656 387.587 131.467C375.064 124.219 360.642 118.368 344.718 114.074C328.795 109.839 312.481 107.255 296.032 106.361C268.485 104.778 239.573 107.81 214.594 114.892C205.007 113.256 195.301 112.43 185.577 112.424C158.684 112.424 133.384 118.491 114.341 129.514C107.807 133.297 102.261 137.527 97.8015 142.081Z" fill="#4CD3DC"/>
<path d="M473.21 288.647L471.554 288.516C469.514 296.113 464.823 303.378 457.807 309.889L460.005 310.062C466.736 303.516 471.248 296.251 473.21 288.647Z" fill="#4CD3DC"/>
</g>
<g opacity="0.25">
<path d="M454.237 322.922L448.526 326.225L446.483 327.409L446.437 327.212C444.376 328.269 442.258 329.278 440.082 330.237L440.469 331.858C444.478 330.11 448.386 328.14 452.176 325.957C453.381 325.252 454.554 324.539 455.693 323.817L454.237 322.922Z" fill="#4CD3DC"/>
<path d="M106.745 125.101C100.727 128.519 95.135 132.64 90.0857 137.379L91.5381 138.264C96.4112 133.744 101.789 129.804 107.564 126.521C108.619 125.908 109.699 125.316 110.789 124.734L107.814 124.498C107.459 124.695 107.096 124.896 106.745 125.101Z" fill="#4CD3DC"/>
<path d="M472.697 227.193C474.455 234.596 473.812 242.351 470.826 249.711C470.767 249.854 470.751 250.011 470.777 250.163C470.804 250.316 470.873 250.457 470.977 250.572C480.23 260.816 484.58 272.738 483.226 284.149C483.106 285.154 482.945 286.156 482.741 287.152L483.286 289.447L482.231 289.362C480.226 296.92 475.862 304.168 469.395 310.809L471.505 310.975C479.14 302.825 483.75 293.751 484.868 284.343C486.275 272.597 481.89 260.371 472.56 249.852C475.498 242.537 476.113 234.49 474.318 226.812C473.623 223.939 472.63 221.147 471.353 218.482L469.595 218.62C470.947 221.351 471.988 224.227 472.697 227.193Z" fill="#4CD3DC"/>
<path d="M268.981 311.204L271.857 310.975L241.374 293.335L239.781 294.305L268.981 311.204Z" fill="#4CD3DC"/>
<path d="M228.492 287.773L230.085 286.8L122.7 224.655L119.82 224.884L156.771 246.267L156.964 246.25L156.94 246.363L228.492 287.773Z" fill="#4CD3DC"/>
<path d="M465.53 316.386L465.691 316.488C465.927 316.287 466.163 316.09 466.395 315.886L465.53 316.386Z" fill="#4CD3DC"/>
<path d="M75.5333 171.206C75.5333 162.746 78.3854 154.564 83.8294 146.985L82.4227 146.128C76.824 153.958 73.8875 162.443 73.8875 171.206C73.8875 188.68 85.5561 205.048 106.738 217.315L106.797 217.347L107.191 215.68C86.7764 203.754 75.5333 187.968 75.5333 171.206Z" fill="#4CD3DC"/>
<path d="M114.921 122.63C134.717 113.045 159.458 107.824 185.608 107.824C194.966 107.837 204.31 108.536 213.567 109.914C213.677 109.932 213.789 109.926 213.897 109.897C239.605 103.072 269.111 100.195 297.03 101.789C315.064 102.825 332.508 105.585 348.871 110.002C365.801 114.568 381.123 120.782 394.413 128.474C397.667 130.354 400.759 132.299 403.687 134.308L406.265 134.104C402.816 131.665 399.139 129.314 395.233 127.054C381.82 119.298 366.363 113.02 349.297 108.416C332.234 103.881 314.752 101.111 297.125 100.15C269.111 98.5422 239.475 101.422 213.644 108.258C204.361 106.884 194.992 106.187 185.608 106.174C159.37 106.174 134.51 111.395 114.548 120.98L114.921 122.63Z" fill="#4CD3DC"/>
<path d="M416.784 338.105C403.233 341.461 388.516 343.227 373.323 343.227C344.76 343.227 317.867 337.001 297.28 325.661L296.89 327.311C317.663 338.644 344.669 344.866 373.323 344.866C389.233 344.866 404.623 342.948 418.746 339.303L416.784 338.105Z" fill="#4CD3DC"/>
<path d="M433.158 164.875C434.16 166.638 435.067 168.453 435.887 170.286L437.293 169.426C436.475 167.612 435.569 165.824 434.575 164.064C429.546 155.202 422.421 146.981 413.302 139.483L412.88 141.264C421.552 148.494 428.343 156.39 433.158 164.875Z" fill="#4CD3DC"/>
<path d="M435.44 332.179C434.146 332.691 432.835 333.186 431.508 333.663L432.173 334.068L435.44 332.179Z" fill="#4CD3DC"/>
<path d="M443.272 190.658L442.593 190.267C442.378 186.981 441.881 183.72 441.109 180.52L439.635 181.419C440.354 184.504 440.805 187.646 440.986 190.81C440.994 190.947 441.036 191.081 441.108 191.198C441.181 191.315 441.281 191.412 441.401 191.479C441.753 191.677 442.104 191.878 442.456 192.079C449.683 196.259 455.746 200.923 460.55 205.961L461.981 205.086C457.022 199.838 450.756 194.987 443.272 190.658Z" fill="#4CD3DC"/>
</g>
<g opacity="0.17">
<path d="M222.668 291.322L155.494 252.447L155.1 254.111L221.075 292.292L222.668 291.322Z" fill="#4CD3DC"/>
<path d="M109.308 225.716L107.142 225.888L106.432 225.945L143.382 247.332L146.259 247.103L109.308 225.716Z" fill="#4CD3DC"/>
<path d="M94.6188 123.447C90.3094 126.196 86.2315 129.293 82.4261 132.708L83.8856 133.6C88.074 129.896 92.5814 126.572 97.3549 123.666L94.6188 123.447Z" fill="#4CD3DC"/>
<path d="M480.198 217.47L480.666 217.738L480.335 217.766C481.636 220.512 482.651 223.385 483.363 226.34C485.115 233.832 484.691 241.671 482.139 248.929C482.093 249.062 482.082 249.205 482.107 249.344C482.132 249.483 482.193 249.614 482.283 249.722C491.209 260.474 495.359 272.851 493.97 284.575C492.44 297.456 484.692 309.773 471.782 320.2L473.266 321.103C486.236 310.482 494.015 297.928 495.594 284.769C497.022 272.724 492.848 260.047 483.834 249.028C486.359 241.597 486.75 233.605 484.963 225.962C483.467 219.936 480.842 214.25 477.226 209.207L475.82 210.06C477.484 212.403 478.948 214.882 480.198 217.47Z" fill="#4CD3DC"/>
<path d="M99.9503 220.301C77.2635 207.173 64.7825 189.738 64.7825 171.206C64.7825 160.983 68.5912 151.113 75.8076 142.085L74.4009 141.225C67.0368 150.485 63.1472 160.662 63.1472 171.206C63.1472 190.348 75.9307 208.287 99.1449 221.722L104.979 225.099L105.306 223.724L105.377 223.431L99.9503 220.301Z" fill="#4CD3DC"/>
<path d="M270.461 320.874L272.054 319.904L233.957 297.854L232.364 298.827L270.461 320.874Z" fill="#4CD3DC"/>
<path d="M461.566 327.388C460.715 327.913 459.853 328.446 458.974 328.943C453.439 332.123 447.68 334.894 441.742 337.234L442.125 338.845C448.213 336.457 454.118 333.622 459.79 330.363C460.933 329.704 462.044 329.027 463.135 328.347L461.566 327.388Z" fill="#4CD3DC"/>
<path d="M417.578 346.227L412.166 345.797C399.367 348.258 386.362 349.485 373.33 349.459C340.976 349.459 310.542 342.173 287.683 328.943L283.347 326.429L281.753 327.402L286.856 330.356C309.961 343.727 340.663 351.091 373.323 351.091C388.325 351.133 403.285 349.509 417.93 346.248L417.578 346.227Z" fill="#4CD3DC"/>
<path d="M450.415 174.848L448.973 175.725C450.265 179.771 451.132 183.94 451.561 188.166C451.573 188.293 451.615 188.415 451.683 188.522C451.75 188.63 451.842 188.721 451.951 188.786C457.856 192.295 463.336 196.475 468.283 201.244L469.725 200.363C464.712 195.477 459.148 191.192 453.147 187.595C452.677 183.263 451.761 178.991 450.415 174.848Z" fill="#4CD3DC"/>
<path d="M113.24 115.459C134.028 106.46 159.169 101.591 185.615 101.591C194.625 101.605 203.625 102.194 212.561 103.354C212.662 103.373 212.766 103.373 212.867 103.354C239.415 96.7267 269.687 93.9736 298.099 95.5987C317.347 96.7021 335.961 99.6526 353.429 104.362C371.498 109.237 387.851 115.872 402.034 124.078C418.785 133.769 431.55 145.025 440.082 157.596L441.95 157.448C433.281 144.359 420.146 132.673 402.854 122.658C388.547 114.377 372.061 107.69 353.854 102.779C336.27 98.0381 317.551 95.0699 298.194 93.9665C269.673 92.3309 239.288 95.0875 212.621 101.722C203.665 100.564 194.645 99.9748 185.615 99.9593C159.067 99.9593 133.799 104.831 112.857 113.845L113.24 115.459Z" fill="#4CD3DC"/>
<path d="M444.809 162.118C444.457 161.519 444.105 160.92 443.754 160.324L440.708 158.561C441.646 160 442.538 161.454 443.385 162.926C443.778 163.631 444.155 164.318 444.52 165.02L445.927 164.166C445.575 163.483 445.192 162.795 444.809 162.118Z" fill="#4CD3DC"/>
</g>
<g opacity="0.1">
<path d="M132.867 248.171L92.3365 224.707C67.6206 210.402 54.0036 191.402 54.0036 171.206C54.0036 159.221 58.797 147.658 67.8597 137.248L66.453 136.399C64.915 138.185 63.4931 140.01 62.1872 141.873C55.6636 151.201 52.3402 161.071 52.3402 171.206C52.3402 181.341 55.646 191.211 62.1872 200.539C68.9288 210.152 78.7758 218.761 91.5171 226.128L129.991 248.393H130.163L132.867 248.171Z" fill="#4CD3DC"/>
<path d="M76.2753 128.961C78.9124 126.713 81.6652 124.606 84.5222 122.647L83.0697 122.531L87.9686 119.711L92.0129 117.37L90.8805 116.665C85.1859 119.963 79.806 123.779 74.8088 128.065L76.2753 128.961Z" fill="#4CD3DC"/>
<path d="M102.743 110.478L103.302 110.831L107.589 108.363C105.95 109.038 104.335 109.743 102.743 110.478Z" fill="#4CD3DC"/>
<path d="M409.63 119.668C428.062 130.336 441.96 142.783 451.023 156.721L452.869 156.577C443.68 142.124 429.433 129.232 410.45 118.248C401.085 112.874 391.301 108.269 381.194 104.479L377.304 104.789C388.498 108.778 399.316 113.758 409.63 119.668Z" fill="#4CD3DC"/>
<path d="M494.03 225.487C495.776 232.972 495.533 240.785 493.326 248.146C493.289 248.27 493.281 248.402 493.305 248.53C493.329 248.657 493.383 248.777 493.463 248.879C502.136 260.125 506.124 272.953 504.696 285.002C502.983 299.455 494.1 313.231 479.305 324.794L480.799 325.707C495.654 313.943 504.576 299.917 506.321 285.196C507.791 272.836 503.774 259.716 495.011 248.21C497.189 240.688 497.395 232.73 495.609 225.106C493.875 217.837 490.386 210.843 485.287 204.286L483.88 205.143C488.913 211.559 492.349 218.394 494.03 225.487Z" fill="#4CD3DC"/>
<path d="M459.453 169.412L459.393 169.377L458.011 170.216C459.958 175.156 461.313 180.311 462.048 185.571C462.064 185.689 462.105 185.802 462.169 185.903C462.233 186.003 462.318 186.088 462.417 186.153C467.231 189.215 471.764 192.699 475.964 196.563L477.413 195.678C473.143 191.704 468.525 188.122 463.617 184.975C462.843 179.642 461.445 174.418 459.453 169.412Z" fill="#4CD3DC"/>
<path d="M468.994 331.918C468.202 332.397 467.401 332.877 466.588 333.349C459.178 337.597 451.411 341.187 443.377 344.08L443.757 345.684C451.948 342.745 459.865 339.089 467.415 334.756C468.491 334.135 469.525 333.501 470.58 332.859L468.994 331.918Z" fill="#4CD3DC"/>
<path d="M433.073 347.457C414.786 352.84 394.442 355.692 373.323 355.692C338.075 355.692 304.954 347.757 280.058 333.349L275.93 330.959L274.337 331.929L279.232 334.77C304.37 349.318 337.783 357.331 373.313 357.331C396.119 357.331 418.05 354.024 437.487 347.813L433.073 347.457Z" fill="#4CD3DC"/>
<path d="M208.302 292.835L208.513 291.943L153.659 260.195L153.261 261.863L208.119 293.607L208.302 292.835Z" fill="#4CD3DC"/>
<path d="M111.57 108.49C133.233 99.9522 158.8 95.359 185.598 95.3625C194.252 95.3758 202.898 95.8772 211.495 96.8642C211.588 96.8801 211.684 96.8801 211.777 96.8642C239.158 90.3955 270.183 87.7517 299.144 89.412C319.601 90.5859 339.39 93.7198 357.958 98.729C361.618 99.7161 365.21 100.774 368.734 101.902L369.114 100.301C365.597 99.1849 362.02 98.1356 358.384 97.1533C339.706 92.1123 319.805 88.9608 299.239 87.7799C270.176 86.1125 239.035 88.7634 211.541 95.2426C202.928 94.2604 194.267 93.7602 185.598 93.7444C158.691 93.7444 132.997 98.3483 111.19 106.9L111.57 108.49Z" fill="#4CD3DC"/>
<path d="M234.397 306.921L231.52 307.15L263.044 325.396L264.641 324.424L234.397 306.921Z" fill="#4CD3DC"/>
</g>
<path d="M151.348 262.317L154.696 248.199L130.304 250.138L136.915 253.963L53.1877 305.007L61.0055 309.53L144.736 258.489L151.348 262.317Z" fill="url(#paint0_linear_11228_9611)"/>
<path d="M110.349 210.015L107.001 224.133L131.394 222.194L124.782 218.369L208.51 167.325L200.688 162.802L116.964 213.843L110.349 210.015Z" fill="url(#paint1_linear_11228_9611)"/>
<g opacity="0.77">
<g style="mix-blend-mode:multiply" opacity="0.3">
<path d="M485.586 121.389L466.528 110.362C462.449 108 462.959 103.876 467.671 101.147L484.443 91.4425C489.155 88.714 496.284 88.4179 500.367 90.7798L519.428 101.81C523.511 104.172 522.997 108.296 518.285 111.025L501.517 120.73C496.797 123.454 489.669 123.751 485.586 121.389Z" fill="#DFE2F5"/>
</g>
<path d="M522.178 85.3334H510.924L500.374 79.2208C496.291 76.8589 489.162 77.1551 484.45 79.8835L475.028 85.3334H463.775V94.3014H463.799C463.578 95.9794 464.464 97.6151 466.518 98.803L485.575 109.83C489.658 112.192 496.787 111.895 501.499 109.171L518.267 99.4622C520.824 97.9852 522.136 96.0992 522.157 94.3014L522.178 85.3334Z" fill="#E2E4F6"/>
<g style="mix-blend-mode:multiply">
<path d="M463.81 92.5318H463.786V93.0288C463.783 92.8628 463.791 92.6968 463.81 92.5318Z" fill="#E8EDFA"/>
<path d="M518.278 97.6928L501.51 107.398C496.797 110.126 489.669 110.422 485.586 108.06L466.528 97.0336C464.77 96.0043 463.856 94.6436 463.785 93.2124V94.3016H463.81C463.588 95.9796 464.475 97.6153 466.528 98.8032L485.586 109.83C489.669 112.192 496.797 111.896 501.51 109.171L518.278 99.4624C520.834 97.9854 522.146 96.0995 522.167 94.3016V92.539C522.143 94.3263 520.834 96.2158 518.278 97.6928Z" fill="#E8EDFA"/>
</g>
<path d="M485.586 100.64L466.529 89.6094C462.449 87.2476 462.959 83.1232 467.671 80.3947L484.443 70.6899C489.155 67.965 496.284 67.6689 500.367 70.0307L519.428 81.0574C523.511 83.4193 522.997 87.5437 518.285 90.2722L501.517 99.9769C496.797 102.705 489.669 103.002 485.586 100.64Z" fill="white"/>
<path d="M506.416 87.9491L500.609 91.3015L497.504 93.0993C495.007 94.5482 491.22 94.7068 489.064 93.4519L485.35 91.3015L478.943 87.593C476.783 86.3416 477.051 84.149 479.547 82.7001L488.452 77.5534C490.952 76.1116 494.733 75.953 496.892 77.2009L506.999 83.0562C509.176 84.3182 508.902 86.5073 506.416 87.9491Z" fill="url(#paint2_linear_11228_9611)"/>
<g style="mix-blend-mode:multiply">
<path d="M500.609 85.3087V91.3015L497.504 93.0993C495.007 94.5482 491.22 94.7068 489.064 93.4519L485.35 91.3015V85.3087H500.609Z" fill="#E2E4F6"/>
</g>
<path d="M491.047 89.331L486.064 86.4509C485.009 85.834 485.132 84.7553 486.363 84.0397L490.748 81.5051C491.979 80.8001 493.843 80.7155 494.909 81.3324L499.888 84.2124C500.944 84.8329 500.82 85.908 499.59 86.6236L495.208 89.1582C493.977 89.8703 492.113 89.9479 491.047 89.331Z" fill="white"/>
</g>
<g opacity="0.7">
<g style="mix-blend-mode:multiply" opacity="0.3">
<path d="M230.11 52.9549L211.052 41.9282C206.973 39.5663 207.486 35.4384 212.199 32.7134L228.967 23.0052C233.679 20.2802 240.808 19.9841 244.891 22.346L263.948 33.3726C268.027 35.7345 267.517 39.8625 262.805 42.5874L246.034 52.2957C241.321 55.0206 234.193 55.3167 230.11 52.9549Z" fill="#DFE2F5"/>
</g>
<path d="M266.702 16.8996H255.448L244.898 10.787C240.815 8.42512 233.686 8.72123 228.974 11.4462L219.545 16.8996H208.309V25.8676H208.334C208.112 27.5456 209.002 29.1812 211.052 30.3692L230.11 41.3959C234.193 43.7578 241.321 43.4616 246.034 40.7367L262.802 31.0214C265.358 29.5443 266.67 27.6548 266.691 25.8605L266.702 16.8996Z" fill="#E2E4F6"/>
<g style="mix-blend-mode:multiply">
<path d="M208.334 24.0944H208.309V24.595C208.307 24.4278 208.315 24.2606 208.334 24.0944Z" fill="#E8EDFA"/>
<path d="M262.802 29.2587L246.034 38.9634C241.321 41.6919 234.193 41.988 230.11 39.6262L211.052 28.596C209.294 27.5701 208.379 26.2094 208.309 24.7747V25.8675H208.334C208.112 27.5455 209.002 29.1811 211.052 30.3691L230.11 41.3958C234.193 43.7577 241.321 43.4615 246.034 40.7331L262.802 31.0213C265.358 29.5442 266.67 27.6547 266.691 25.8604V24.0979C266.666 25.8922 265.358 27.7816 262.802 29.2587Z" fill="#E8EDFA"/>
</g>
<path d="M230.11 32.2058L211.052 21.1756C206.973 18.8138 207.486 14.6893 212.199 11.9609L228.967 2.2561C233.679 -0.47237 240.808 -0.768483 244.891 1.59337L263.948 12.6236C268.027 14.9854 267.517 19.1099 262.805 21.8383L246.034 31.5431C241.321 34.2716 234.193 34.5677 230.11 32.2058Z" fill="white"/>
<path d="M250.925 19.5153L245.119 22.8712L242.031 24.6761C239.531 26.1285 235.743 26.2836 233.591 25.0286L229.874 22.8783L223.466 19.1698C221.307 17.9148 221.574 15.7257 224.075 14.2769L232.976 9.12663C235.476 7.68484 239.257 7.52621 241.416 8.77411L251.52 14.6294C253.7 15.8843 253.426 18.0735 250.925 19.5153Z" fill="url(#paint3_linear_11228_9611)"/>
<g style="mix-blend-mode:multiply">
<path d="M245.119 16.8679V22.8606L242.031 24.6761C239.531 26.1284 235.743 26.2836 233.591 25.0286L229.874 22.8783V16.8855L245.119 16.8679Z" fill="#E2E4F6"/>
</g>
<path d="M235.571 20.8971L230.588 18.0135C229.533 17.3966 229.656 16.3179 230.887 15.6059L235.272 13.0713C236.503 12.3662 238.367 12.2781 239.433 12.8985L244.416 15.7786C245.471 16.3955 245.351 17.4742 244.117 18.1863L239.735 20.7244C238.501 21.4365 236.637 21.5034 235.571 20.8971Z" fill="white"/>
</g>
<g opacity="0.85">
<g style="mix-blend-mode:multiply" opacity="0.3">
<path d="M21.8041 366.93L2.75369 355.9C-1.32577 353.538 -0.812318 349.413 3.90016 346.685L20.6681 336.98C25.3806 334.255 32.5091 333.959 36.5921 336.321L55.6495 347.348C59.729 349.709 59.2155 353.834 54.503 356.562L37.7351 366.264C33.0226 368.996 25.8941 369.292 21.8041 366.93Z" fill="#DFE2F5"/>
</g>
<path d="M58.4031 330.875H47.1494L36.5991 324.762C32.5161 322.4 25.3876 322.696 20.6751 325.421L11.2537 330.875H0V339.843H0.0351677C-0.186389 341.521 0.703355 343.153 2.75363 344.341L21.804 355.371C25.887 357.733 33.0155 357.437 37.728 354.708L54.51 345.003C57.0667 343.526 58.3785 341.637 58.3996 339.843L58.4031 330.875Z" fill="#E2E4F6"/>
<g style="mix-blend-mode:multiply">
<path d="M0.0351677 338.062H0V338.559C0.0013444 338.393 0.01309 338.227 0.0351677 338.062Z" fill="#E8EDFA"/>
<path d="M54.51 343.234L37.735 352.939C33.0225 355.667 25.894 355.963 21.811 353.601L2.75363 342.571C0.98118 341.545 0.0808858 340.177 0 338.767V339.86H0.0351677C-0.186389 341.538 0.703355 343.17 2.75363 344.358L21.804 355.371C25.887 357.733 33.0155 357.437 37.728 354.708L54.51 345.003C57.0667 343.526 58.3785 341.637 58.3996 339.843V338.08C58.3785 339.867 57.0597 341.757 54.51 343.234Z" fill="#E8EDFA"/>
</g>
<path d="M21.8041 346.17L2.75369 335.151C-1.32577 332.789 -0.812318 328.664 3.90016 325.936L20.6681 316.231C25.3806 313.503 32.5091 313.206 36.5921 315.568L55.6495 326.599C59.729 328.96 59.2155 333.085 54.503 335.813L37.7351 345.518C33.0226 348.247 25.8941 348.543 21.8041 346.17Z" fill="white"/>
<path d="M42.6268 333.48L36.8346 336.836L33.7328 338.63C31.2324 340.079 27.4449 340.237 25.2926 338.982L21.5859 336.839L15.1678 333.145C13.0085 331.89 13.2758 329.701 15.7727 328.252L24.6772 323.098C27.1776 321.656 30.9581 321.501 33.1174 322.746L43.2211 328.597C45.4015 329.859 45.1272 332.048 42.6268 333.48Z" fill="url(#paint4_linear_11228_9611)"/>
<g style="mix-blend-mode:multiply">
<path d="M36.8347 330.843V336.836L33.7329 338.63C31.2324 340.079 27.4449 340.237 25.2926 338.982L21.5859 336.839V330.846L36.8347 330.843Z" fill="#E2E4F6"/>
</g>
<path d="M27.2725 334.89L22.2893 332.006C21.2342 331.389 21.3573 330.311 22.5882 329.598L26.9736 327.06C28.2045 326.355 30.0684 326.271 31.134 326.888L36.1137 329.771C37.1687 330.388 37.0492 331.467 35.8148 332.179L31.4329 334.717C30.202 335.411 28.3381 335.489 27.2725 334.89Z" fill="white"/>
</g>
<g style="mix-blend-mode:multiply" opacity="0.3">
<path d="M163.323 375.496C169.13 375.496 173.838 372.772 173.838 369.412C173.838 366.051 169.13 363.327 163.323 363.327C157.515 363.327 152.807 366.051 152.807 369.412C152.807 372.772 157.515 375.496 163.323 375.496Z" fill="#DFE2F5"/>
</g>
<g style="mix-blend-mode:multiply" opacity="0.3">
<path d="M141.891 365.908C147.699 365.908 152.407 363.183 152.407 359.823C152.407 356.463 147.699 353.739 141.891 353.739C136.084 353.739 131.376 356.463 131.376 359.823C131.376 363.183 136.084 365.908 141.891 365.908Z" fill="#DFE2F5"/>
</g>
<g opacity="0.9">
<path d="M149.902 327.092C149.673 326.994 149.427 326.937 149.178 326.926C149.007 326.902 148.838 326.867 148.672 326.821C148.214 326.715 147.641 326.902 147.195 327.004L146.463 327.173C145.658 327.356 144.852 327.547 144.051 327.751C144.079 327.247 144.114 326.743 144.177 326.239C144.318 325.436 144.381 324.622 144.367 323.807C144.338 323.231 144.173 322.67 143.885 322.171C144.01 321.775 144.034 321.355 143.956 320.948C143.84 320.398 143.502 319.915 143.403 319.361C143.21 318.262 143.994 317.158 143.776 316.058C143.664 315.537 143.358 315.077 142.922 314.772C142.487 314.467 141.977 314.287 141.448 314.25C140.703 314.199 139.961 314.373 139.316 314.75C138.671 315.127 138.155 315.69 137.833 316.365C137.348 317.423 137.397 318.642 137.502 319.802C137.62 320.683 137.652 321.573 137.597 322.46C136.276 323.792 135.025 325.194 133.852 326.659C133.546 327.011 133.222 327.452 133.261 327.931C133.3 328.411 133.676 328.77 134.031 329.084L136.405 331.199C136.841 331.617 137.32 331.988 137.833 332.306C138.017 332.406 138.208 332.491 138.406 332.56C138.341 333.025 138.24 333.485 138.104 333.934C138.037 334.149 138.012 334.386 137.931 334.594C137.822 334.862 137.685 335.119 137.58 335.387C137.123 336.456 136.763 337.563 136.504 338.697C136.3 339.58 136.158 340.477 136.078 341.38C136.029 341.958 136.001 342.539 136.004 343.117C136.004 343.822 136.064 344.609 136.518 345.166C136.704 345.381 136.934 345.554 137.193 345.673C137.043 346.661 137.012 347.663 137.098 348.659C137.154 349.413 137.256 350.164 137.383 350.912C137.815 353.446 138.459 356.009 138.086 358.554C137.974 359.035 137.96 359.534 138.044 360.021C138.208 360.526 138.559 360.949 139.025 361.202C139.489 361.451 139.983 361.638 140.495 361.758C140.659 361.825 140.841 361.835 141.012 361.787C141.3 361.663 141.336 361.258 141.23 360.962C140.977 360.257 140.256 359.873 139.862 359.249C139.352 358.441 139.465 357.405 139.581 356.457C140.005 353.073 140.24 349.668 140.284 346.258C140.717 346.283 141.149 346.297 141.582 346.294C141.582 346.406 141.557 346.519 141.554 346.646C141.471 348.707 141.555 350.771 141.803 352.819C141.93 353.978 142.081 355.135 142.236 356.291C142.27 356.783 142.404 357.263 142.63 357.701C142.947 358.172 143.42 358.516 143.966 358.67C144.508 358.822 145.067 358.908 145.63 358.924C145.709 358.944 145.793 358.943 145.872 358.921C145.952 358.9 146.024 358.858 146.083 358.801C146.199 358.639 146.083 358.448 145.999 358.297C145.913 358.125 145.809 357.963 145.689 357.814C145.445 357.516 145.181 357.236 144.898 356.975C144.43 356.573 144.068 356.062 143.843 355.487C143.734 355.071 143.71 354.637 143.773 354.211C143.84 353.573 143.917 352.939 143.998 352.3C144.287 350.01 144.444 347.704 144.469 345.395C144.613 345.123 144.731 344.839 144.821 344.545C144.981 344.101 145.106 343.645 145.194 343.181C145.369 342.259 145.437 341.32 145.397 340.382C145.346 339.221 145.213 338.066 145 336.924C144.951 336.628 144.898 336.332 144.845 336.039C144.803 335.82 144.817 335.609 144.782 335.394C144.68 334.837 144.529 334.283 144.43 333.726C144.165 332.273 144.031 330.798 144.029 329.32C144.771 329.133 145.507 328.939 146.238 328.717C146.646 328.57 147.074 328.488 147.508 328.474C147.895 328.51 148.277 328.59 148.647 328.71C149.019 328.833 149.416 328.858 149.8 328.781C149.991 328.739 150.164 328.64 150.297 328.497C150.43 328.354 150.515 328.174 150.543 327.98C150.536 327.785 150.472 327.596 150.358 327.438C150.244 327.28 150.085 327.159 149.902 327.092ZM135.927 328.428C135.839 328.348 135.77 328.249 135.726 328.138C135.682 328.027 135.665 327.908 135.674 327.789C135.684 327.67 135.72 327.555 135.781 327.452C135.842 327.35 135.926 327.263 136.025 327.198C136.406 326.824 136.806 326.471 137.225 326.14C137.344 326.39 137.506 326.616 137.703 326.81C137.734 326.842 137.777 326.866 137.812 326.898C137.879 327.399 137.963 327.903 138.061 328.396C138.251 329.274 138.384 330.163 138.459 331.058C137.499 330.301 136.647 329.416 135.927 328.428Z" fill="url(#paint5_linear_11228_9611)"/>
<path d="M170.563 341.334C170.507 341.075 170.447 340.818 170.384 340.562C170.254 340.051 170.103 339.539 169.937 339.039C170.018 338.826 170.081 338.607 170.124 338.383C170.301 337.319 170.145 336.225 169.677 335.253C168.925 333.607 167.507 332.288 167.001 330.55C166.795 329.651 166.677 328.734 166.649 327.811C166.623 326.885 166.346 325.983 165.847 325.203C165.518 324.738 165.041 324.399 164.494 324.244C164.027 324.144 163.542 324.186 163.1 324.364C162.657 324.543 162.278 324.849 162.011 325.245C161.79 325.587 161.641 325.97 161.573 326.371C161.505 326.772 161.518 327.183 161.613 327.579C161.645 327.716 161.67 327.85 161.698 327.984C161.741 328.226 161.812 328.463 161.909 328.689C162.08 329.071 162.318 329.42 162.612 329.718C162.988 330.096 163.446 330.388 163.797 330.776C163.896 330.886 163.985 331.004 164.064 331.128C163.983 331.137 163.902 331.151 163.822 331.171C163.368 331.321 162.965 331.594 162.658 331.96C162.531 332.106 162.414 332.259 162.306 332.419H162.253C162.026 332.491 161.823 332.622 161.663 332.799C161.357 333.149 161.156 333.578 161.082 334.037C161.011 334.495 160.984 334.959 161.001 335.422V337.601C161.001 339.011 159.672 340.121 158.86 341.26C158.54 341.746 158.152 342.184 157.71 342.56C157.418 342.797 157.087 342.983 156.785 343.202C156.472 343.412 156.215 343.697 156.039 344.03C155.957 344.196 155.917 344.379 155.922 344.563C155.928 344.748 155.979 344.928 156.071 345.088C156.236 345.279 156.453 345.418 156.694 345.49C156.936 345.562 157.193 345.563 157.435 345.493C158.053 345.366 158.6 345.01 158.968 344.497C159.335 343.983 159.496 343.35 159.419 342.723C160.105 342.018 160.713 341.239 161.325 340.467C160.741 344.972 159.099 349.509 159.598 353.989C159.665 354.571 159.767 355.195 160.171 355.621C160.323 355.771 160.502 355.891 160.699 355.974C160.819 358.173 160.952 360.371 161.1 362.566C161.16 363.447 161.219 364.328 161.286 365.203C161.311 365.555 161.262 365.862 161.286 366.197C161.349 366.605 161.319 367.022 161.198 367.416C161.005 367.884 160.7 368.297 160.309 368.618C159.918 368.939 159.555 369.293 159.225 369.676C159.146 369.77 159.088 369.879 159.053 369.997C159.033 370.057 159.03 370.122 159.043 370.184C159.057 370.246 159.087 370.303 159.13 370.349C159.24 370.435 159.379 370.475 159.517 370.462C159.778 370.481 160.04 370.471 160.298 370.434C160.563 370.374 160.82 370.284 161.065 370.166C161.515 369.965 161.965 369.757 162.419 369.57C162.669 369.53 162.901 369.41 163.08 369.23C163.26 369.05 163.378 368.817 163.417 368.566C164.217 368.507 165.001 368.317 165.738 368.002C166.055 367.915 166.338 367.734 166.551 367.483C166.28 365.238 166.952 363.006 167.31 360.786C167.617 358.834 167.686 356.852 167.514 354.884C167.532 354.817 167.55 354.747 167.564 354.68C168.288 351.409 169.238 347.63 167.933 344.598C168.605 344.069 169.283 343.54 169.952 343.015C170.229 342.793 170.655 342.458 170.676 342.07C170.67 341.821 170.633 341.573 170.563 341.334ZM165.221 365.527C165.095 366.046 164.794 366.507 164.37 366.831C164.072 367.046 163.744 367.215 163.428 367.399C163.396 367.208 163.361 367.018 163.333 366.828C163.073 365.065 163.526 363.281 163.657 361.501C163.742 359.83 163.641 358.154 163.354 356.506C163.927 356.555 164.501 356.584 165.077 356.584H165.158C165.292 359.005 165.401 361.431 165.383 363.856C165.402 364.418 165.348 364.979 165.221 365.527ZM168.703 341.908C168.543 342.228 168.3 342.498 168 342.691C167.775 342.871 167.557 343.043 167.342 343.255C167.116 342.629 166.965 341.978 166.892 341.316C167.404 341.325 167.91 341.204 168.362 340.964C168.442 340.92 168.518 340.87 168.591 340.816C168.76 341.151 168.8 341.538 168.703 341.901V341.908Z" fill="url(#paint6_linear_11228_9611)"/>
</g>
<g style="mix-blend-mode:multiply" opacity="0.3">
<path d="M356.889 414.096C352.507 416.635 345.4 416.635 341.018 414.096C336.636 411.558 336.636 407.451 341.018 404.931C345.4 402.411 352.507 402.396 356.889 404.931C361.271 407.466 361.271 411.562 356.889 414.096Z" fill="#DFE2F5"/>
</g>
<path opacity="0.9" d="M357.354 385.849C357.164 385.356 356.826 384.95 356.703 384.439C356.569 383.854 356.429 383.272 356.281 382.677C355.988 381.502 355.676 380.342 355.346 379.197C355.23 378.799 355.11 378.404 354.994 378.006C355.346 377.111 355.467 376.14 355.346 375.186C355.154 373.794 354.433 372.531 353.334 371.661C352.813 371.259 352.198 370.956 351.857 370.356C351.477 369.704 351.533 368.872 351.66 368.118C351.787 367.363 351.973 366.588 351.811 365.837C351.668 365.247 351.32 364.728 350.828 364.373C350.337 364.018 349.735 363.851 349.131 363.902C347.96 364.029 346.947 365.023 346.599 366.221C346.251 367.42 346.455 369.003 347.345 369.873C347.445 369.992 347.536 370.118 347.616 370.251C347.457 370.377 347.309 370.516 347.173 370.666C347.004 370.74 346.844 370.831 346.694 370.938C346.422 371.126 346.174 371.348 345.956 371.597C345.703 371.888 345.484 372.206 345.302 372.545C344.87 373.436 344.517 374.363 344.247 375.316C343.73 376.888 343.073 378.41 342.284 379.864C341.623 381.083 340.835 382.285 339.692 383.072C339.376 383.259 339.078 383.476 338.803 383.72C338.665 383.843 338.558 383.998 338.492 384.171C338.426 384.344 338.402 384.53 338.423 384.714C338.438 384.804 338.472 384.89 338.523 384.966C338.573 385.042 338.639 385.106 338.716 385.155C338.793 385.204 338.879 385.236 338.969 385.249C339.059 385.263 339.151 385.257 339.239 385.232C339.657 385.063 339.703 384.436 340.1 384.224C340.361 384.087 340.691 384.171 340.955 384.041C341.307 383.875 341.391 383.431 341.504 383.061C341.954 381.566 343.318 380.572 344.44 379.483C344.871 379.061 345.273 378.61 345.643 378.133C345.685 378.88 345.724 379.624 345.699 380.368C345.625 382.596 345.013 384.767 344.567 386.949C344.12 389.131 343.835 391.419 344.412 393.573C344.56 394.298 344.929 394.959 345.467 395.466C345.794 395.718 346.172 395.896 346.575 395.988C346.838 396.372 347.13 396.742 347.429 397.105C347.496 397.592 347.563 398.075 347.633 398.561L347.985 401.085C348.25 402.584 348.352 404.108 348.291 405.629C348.243 406.313 348.114 406.988 347.908 407.642C347.704 408.295 347.397 408.911 347 409.468C346.882 409.637 346.749 409.795 346.603 409.94C346.427 410.101 346.27 410.282 346.135 410.48C346.064 410.573 346.015 410.681 345.994 410.797C345.984 410.855 345.991 410.915 346.014 410.97C346.037 411.024 346.075 411.071 346.125 411.104C346.194 411.135 346.27 411.147 346.346 411.139C346.723 411.122 347.092 411.027 347.43 410.86C347.768 410.692 348.067 410.456 348.308 410.166C348.44 410.028 348.603 409.924 348.783 409.863C348.824 409.845 348.869 409.835 348.913 409.835C348.958 409.835 349.002 409.845 349.043 409.863C349.113 409.914 349.159 409.989 349.174 410.074C349.185 410.159 349.226 410.236 349.29 410.293C349.321 410.309 349.356 410.319 349.392 410.321C349.392 410.321 349.434 410.321 349.455 410.321H349.476C349.513 410.331 349.552 410.331 349.589 410.321C349.615 410.326 349.643 410.326 349.669 410.321C349.753 410.275 349.815 410.2 349.845 410.109C349.91 409.818 349.926 409.518 349.891 409.221L350.366 405.728C350.63 404.096 350.756 402.445 350.742 400.792C351.503 401.515 352.17 402.329 352.729 403.218C353.309 404.24 353.594 405.502 353.186 406.605C353.156 406.68 353.149 406.762 353.165 406.841C353.181 406.92 353.22 406.993 353.278 407.05C353.341 407.11 353.415 407.157 353.497 407.189C353.578 407.22 353.665 407.235 353.752 407.233C353.971 407.227 354.184 407.164 354.37 407.048C354.555 406.932 354.706 406.768 354.807 406.574C355.005 406.186 355.098 405.753 355.075 405.319C355.075 404.885 355.015 404.455 355.022 404.021C355.019 404 355.022 403.979 355.029 403.958C355.037 403.938 355.049 403.92 355.064 403.905C355.084 403.897 355.105 403.895 355.126 403.9C355.147 403.904 355.166 403.915 355.18 403.93C355.215 403.958 355.237 403.993 355.272 404.021C355.314 404.052 355.365 404.068 355.418 404.068C355.47 404.068 355.521 404.052 355.564 404.021C355.643 403.953 355.707 403.867 355.75 403.771C355.793 403.675 355.857 403.59 355.936 403.521C355.838 403.168 355.469 402.929 355.152 402.721C354.431 402.247 353.798 401.65 353.281 400.958C352.423 399.812 351.874 398.402 350.77 397.507C350.628 397.4 350.47 397.315 350.303 397.257C350.232 396.865 350.162 396.474 350.102 396.083C350.292 396.018 350.473 395.93 350.64 395.818C351.231 395.406 351.544 394.712 351.794 394.035C352.879 391.055 353.195 387.849 352.711 384.714C352.504 383.399 352.159 382.088 351.846 380.78C352.19 380.768 352.528 380.689 352.842 380.547C353.237 380.362 353.595 380.105 353.897 379.79C354.305 380.879 354.695 381.979 355.04 383.089C355.368 383.987 355.534 384.936 355.532 385.892C355.472 386.328 355.452 386.77 355.472 387.21C355.486 387.431 355.561 387.643 355.69 387.823C355.819 388.003 355.996 388.142 356.2 388.225C356.453 388.268 356.713 388.221 356.935 388.093C357.158 387.964 357.328 387.762 357.417 387.52C357.611 386.976 357.589 386.377 357.354 385.849Z" fill="url(#paint7_linear_11228_9611)"/>
<path d="M295.701 324.699L299.049 310.584L274.66 312.523L281.272 316.347L197.544 367.392L205.362 371.914L289.09 320.874L295.701 324.699Z" fill="url(#paint8_linear_11228_9611)"/>
<path d="M465.98 171.153L469.328 157.039L444.935 158.974L451.55 162.802L367.823 213.843L375.641 218.369L459.368 167.325L465.98 171.153Z" fill="url(#paint9_linear_11228_9611)"/>
<path d="M409.124 149.502L412.472 135.387L388.08 137.322L394.691 141.151L310.964 192.191L318.782 196.718L402.509 145.673L409.124 149.502Z" fill="url(#paint10_linear_11228_9611)"/>
<path d="M453.843 204.251L450.495 218.369L474.884 216.43L468.273 212.602L552 161.561L544.182 157.039L460.455 208.079L453.843 204.251Z" fill="url(#paint11_linear_11228_9611)"/>
<path d="M373.485 89.4755L370.137 103.59L394.529 101.651L387.914 97.8266L471.642 46.7859L463.824 42.2596L380.096 93.3003L373.485 89.4755Z" fill="url(#paint12_linear_11228_9611)"/>
<path d="M210.015 293.24L206.667 307.355L231.059 305.419L224.444 301.591L308.171 250.55L300.354 246.024L216.626 297.068L210.015 293.24Z" fill="url(#paint13_linear_11228_9611)"/>
<path d="M109.892 109.044L113.24 123.158L88.8478 121.223L95.4629 117.395L11.7355 66.354L19.5533 61.8277L103.281 112.868L109.892 109.044Z" fill="url(#paint14_linear_11228_9611)"/>
<path d="M477.669 273.383L481.017 287.498L456.625 285.562L463.237 281.734L379.509 230.693L387.331 226.167L471.054 277.211L477.669 273.383Z" fill="url(#paint15_linear_11228_9611)"/>
<path d="M438.763 332.292L442.111 346.406L417.719 344.471L424.331 340.643L340.603 289.602L348.421 285.076L432.148 336.12L438.763 332.292Z" fill="url(#paint16_linear_11228_9611)"/>
<path d="M447.647 324.699L444.302 310.584L468.691 312.523L462.08 316.347L545.807 367.392L537.989 371.914L454.262 320.874L447.647 324.699Z" fill="url(#paint17_linear_11228_9611)"/>
<path d="M52.4316 133.639L49.0836 119.52L73.476 121.459L66.8644 125.284L150.592 176.328L142.774 180.851L59.0466 129.81L52.4316 133.639Z" fill="url(#paint18_linear_11228_9611)"/>
<path d="M421.517 267.478C395.285 282.661 352.761 282.661 326.533 267.478L193.574 190.538L136.838 157.701C111.077 142.272 111.352 117.68 137.664 102.452C160.798 89.056 196.419 87.3181 222.805 97.2167C266.86 79.9435 327.254 82.5909 366.29 105.177C385.108 116.066 395.922 129.853 398.714 144.041C400.314 152.17 399.288 160.44 395.637 168.39L396.541 168.897C416.421 180.407 423.972 196.351 419.143 211.224C419.952 211.643 420.733 212.077 421.496 212.521C447.745 227.69 447.742 252.302 421.517 267.478Z" fill="#2D50C2"/>
<path d="M360.174 108.712C373.365 116.348 382.797 125.876 387.447 136.265C391.962 146.357 391.906 157.021 387.281 167.096L385.977 169.934L389.62 171.982L389.87 172.123L390.425 172.436C407.545 182.346 415.106 196.496 410.647 210.293L409.757 213.046L413.334 214.929C414.037 215.306 414.74 215.687 415.387 216.06C438.194 229.258 438.194 250.734 415.387 263.935C392.581 277.137 355.469 277.134 332.662 263.935L143.639 154.539L143.084 154.208C132.203 147.69 126.277 139.106 126.403 130.032C126.53 120.959 132.709 112.407 143.808 105.991C153.486 100.389 166.315 96.8712 179.89 96.0887C193.3 95.3131 206.874 97.2061 218.11 101.419L222.932 103.227L227.687 101.362C269.058 85.1466 324.778 88.2276 360.174 108.712ZM366.304 105.166C327.268 82.5838 266.87 79.9364 222.819 97.2097C196.444 87.3146 160.805 89.056 137.675 102.445C111.359 117.673 111.088 142.279 136.845 157.694L326.533 267.482C352.764 282.661 395.289 282.661 421.517 267.482C447.745 252.302 447.745 227.69 421.517 212.51C420.748 212.066 419.964 211.635 419.164 211.217C423.972 196.344 416.439 180.396 396.555 168.89C396.26 168.717 395.957 168.538 395.658 168.383C405.681 146.527 395.897 122.295 366.304 105.166Z" fill="white"/>
<path d="M421.517 267.482C395.289 282.661 352.764 282.661 326.533 267.482L307.574 256.508L193.574 190.535L136.838 157.701L136.546 157.522C123.928 149.868 117.657 140.002 117.731 130.149V170.519C117.443 180.611 123.808 190.753 136.831 198.554L326.533 308.359C352.764 323.539 395.289 323.539 421.517 308.359C434.571 300.805 441.127 290.913 441.186 281.011V240.504C440.954 250.286 434.406 260.022 421.517 267.482Z" fill="url(#paint19_linear_11228_9611)"/>
<path opacity="0.5" d="M289.515 140.262L266.171 126.75C263.519 125.217 263.85 122.538 266.913 120.758L288.773 108.106C291.833 106.343 296.464 106.142 299.116 107.676L322.46 121.188C325.112 122.721 324.778 125.418 321.718 127.181L299.858 139.832C296.795 141.602 292.167 141.796 289.515 140.262Z" fill="white"/>
<path opacity="0.3" d="M238.807 133.505L227.061 126.708C225.728 125.936 225.897 124.593 227.437 123.698L238.437 117.331C239.978 116.443 242.306 116.344 243.639 117.116L255.385 123.913C256.718 124.685 256.552 126.028 255.012 126.923L244.011 133.29C242.471 134.181 240.139 134.277 238.807 133.505Z" fill="white"/>
<path opacity="0.3" d="M285.298 163.031L266.308 152.043C264.152 150.799 264.423 148.617 266.909 147.179L284.686 136.889C287.176 135.451 290.943 135.292 293.099 136.536L312.089 147.524C314.245 148.772 313.974 150.951 311.488 152.392L293.71 162.679C291.221 164.124 287.454 164.272 285.298 163.031Z" fill="white"/>
<path opacity="0.4" d="M294.319 216.956L275.328 205.968C273.173 204.723 273.443 202.541 275.933 201.103L293.71 190.813C296.2 189.375 299.963 189.216 302.119 190.461L321.11 201.449C323.265 202.696 322.995 204.875 320.505 206.317L302.727 216.603C300.238 218.048 296.464 218.207 294.319 216.956Z" fill="white"/>
<path opacity="0.4" d="M358.461 206.179L349.631 201.071C348.628 200.49 348.755 199.474 349.912 198.805L358.18 194.021C359.337 193.351 361.088 193.277 362.091 193.859L370.921 198.97C371.924 199.548 371.797 200.564 370.64 201.233L362.372 206.017C361.215 206.687 359.464 206.761 358.461 206.179Z" fill="white"/>
<path opacity="0.4" d="M224.722 157.856L211.397 150.147C209.885 149.269 210.075 147.743 211.822 146.731L224.296 139.512C226.055 138.5 228.685 138.391 230.201 139.265L243.523 146.974C245.035 147.852 244.845 149.382 243.101 150.39L230.637 157.61C228.889 158.632 226.248 158.731 224.722 157.856Z" fill="white"/>
<path opacity="0.3" d="M205.337 180.77L188.851 171.231C186.98 170.149 187.215 168.256 189.375 167.001L204.81 158.068C206.973 156.817 210.24 156.683 212.111 157.765L228.59 167.307C230.461 168.39 230.226 170.283 228.066 171.538L212.631 180.47C210.479 181.718 207.212 181.852 205.337 180.77Z" fill="white"/>
<path opacity="0.3" d="M354.987 197.211L338.504 187.672C336.629 186.59 336.865 184.697 339.028 183.442L354.463 174.509C356.622 173.261 359.893 173.124 361.764 174.206L378.247 183.745C380.118 184.831 379.882 186.72 377.723 187.975L362.288 196.908C360.118 198.16 356.858 198.293 354.987 197.211Z" fill="white"/>
<path opacity="0.4" d="M337.216 247.032L320.73 237.493C318.855 236.411 319.091 234.518 321.254 233.263L336.689 224.33C338.848 223.079 342.119 222.945 343.99 224.027L360.469 233.57C362.34 234.655 362.105 236.545 359.945 237.8L344.51 246.733C342.354 247.981 339.087 248.115 337.216 247.032Z" fill="white"/>
<path opacity="0.2" d="M314.751 215.993L307.482 211.788C306.656 211.308 306.779 210.476 307.714 209.923L314.523 205.985C315.476 205.432 316.918 205.372 317.741 205.851L325.013 210.057C325.836 210.536 325.734 211.368 324.781 211.922L317.973 215.859C317.013 216.413 315.571 216.473 314.751 215.993Z" fill="white"/>
<path opacity="0.3" d="M189.554 137.876L176.229 130.166C174.717 129.292 174.907 127.762 176.655 126.75L189.129 119.531C190.887 118.519 193.518 118.41 195.03 119.284L208.355 126.997C209.867 127.871 209.677 129.401 207.929 130.413L195.455 137.633C193.718 138.641 191.077 138.754 189.554 137.876Z" fill="white"/>
<path opacity="0.3" d="M186.684 154.525L180.868 151.159C180.207 150.778 180.291 150.101 181.051 149.668L186.502 146.516C186.892 146.298 187.329 146.174 187.776 146.155C188.223 146.136 188.668 146.222 189.076 146.407L194.896 149.777C195.557 150.158 195.473 150.834 194.71 151.268L189.262 154.419C188.871 154.638 188.434 154.762 187.986 154.78C187.538 154.798 187.092 154.711 186.684 154.525Z" fill="white"/>
<path opacity="0.3" d="M256.222 170.297L250.394 166.927C249.733 166.546 249.818 165.869 250.581 165.436L256.028 162.284C256.42 162.065 256.857 161.942 257.305 161.924C257.752 161.905 258.198 161.992 258.606 162.178L264.423 165.545C265.084 165.926 264.999 166.602 264.236 167.036L258.789 170.187C258.399 170.404 257.964 170.527 257.518 170.546C257.073 170.565 256.629 170.479 256.222 170.297Z" fill="white"/>
<path opacity="0.2" d="M247.099 144.507L241.282 141.14C240.621 140.756 240.706 140.083 241.469 139.646L246.916 136.494C247.308 136.275 247.745 136.152 248.193 136.134C248.64 136.115 249.086 136.202 249.494 136.388L255.318 139.755C255.979 140.135 255.895 140.812 255.131 141.246L249.691 144.397C249.298 144.619 248.859 144.744 248.408 144.763C247.958 144.782 247.509 144.694 247.099 144.507Z" fill="white"/>
<path opacity="0.2" d="M370.411 225.828L360.786 220.255C359.692 219.624 359.829 218.521 361.092 217.788L370.105 212.567C371.368 211.837 373.27 211.756 374.368 212.387L383.993 217.96C385.087 218.591 384.95 219.698 383.687 220.428L374.674 225.642C373.411 226.382 371.505 226.459 370.411 225.828Z" fill="white"/>
<path opacity="0.2" d="M382.069 244.558L369.887 237.507C368.502 236.707 368.678 235.308 370.274 234.384L381.683 227.781C383.279 226.858 385.695 226.759 387.081 227.559L399.263 234.61C400.645 235.41 400.473 236.809 398.876 237.733L387.468 244.336C385.871 245.259 383.455 245.351 382.069 244.558Z" fill="white"/>
<path opacity="0.2" d="M244.493 192.276L233.728 186.047C232.508 185.342 232.673 184.105 234.08 183.287L244.156 177.456C245.562 176.638 247.701 176.55 248.924 177.259L259.686 183.484C260.906 184.189 260.741 185.427 259.334 186.245L249.258 192.075C247.848 192.893 245.714 192.981 244.493 192.276Z" fill="white"/>
<path opacity="0.2" d="M315.314 242.125L304.553 235.896C303.329 235.191 303.498 233.954 304.904 233.14L314.983 227.306C316.39 226.491 318.528 226.4 319.749 227.108L330.51 233.337C331.734 234.042 331.565 235.279 330.158 236.094L320.079 241.928C318.669 242.742 316.534 242.83 315.314 242.125Z" fill="white"/>
<path opacity="0.2" d="M293.099 197.627L275.163 187.256C273.13 186.079 273.383 184.02 275.733 182.674L292.511 172.962C294.86 171.601 298.416 171.457 300.449 172.634L318.384 183.001C320.417 184.179 320.164 186.237 317.814 187.584L301.036 197.296C298.687 198.657 295.131 198.819 293.099 197.627Z" fill="white"/>
<path opacity="0.2" d="M311.277 160.335L299.341 153.425C297.987 152.643 298.156 151.271 299.721 150.365L310.883 143.897C312.448 142.991 314.815 142.896 316.158 143.678L328.115 150.588C329.473 151.37 329.3 152.741 327.735 153.647L316.563 160.113C314.998 161.019 312.641 161.117 311.277 160.335Z" fill="white"/>
<path opacity="0.2" d="M347.457 168.185L337.698 162.545C336.591 161.903 336.731 160.782 338.008 160.042L347.151 154.754C348.428 154.014 350.366 153.933 351.473 154.575L361.229 160.215C362.337 160.856 362.2 161.977 360.92 162.718L351.776 168.005C350.492 168.746 348.558 168.823 347.457 168.185Z" fill="white"/>
<path opacity="0.2" d="M343.895 144.531L338.078 141.165C337.417 140.784 337.498 140.107 338.261 139.674L343.708 136.522C344.1 136.303 344.537 136.179 344.984 136.16C345.432 136.141 345.878 136.228 346.286 136.413L352.103 139.779C352.764 140.164 352.683 140.837 351.92 141.271L346.473 144.426C346.081 144.644 345.644 144.768 345.196 144.786C344.749 144.804 344.303 144.717 343.895 144.531Z" fill="white"/>
<path opacity="0.4" d="M401.616 241.233L395.795 237.863C395.134 237.483 395.219 236.806 395.982 236.372L401.429 233.221C401.821 233.002 402.258 232.879 402.706 232.86C403.153 232.842 403.599 232.929 404.007 233.115L409.824 236.481C410.485 236.862 410.401 237.539 409.637 237.973L404.183 241.121C403.793 241.338 403.358 241.462 402.913 241.482C402.467 241.501 402.023 241.416 401.616 241.233Z" fill="white"/>
<path opacity="0.3" d="M267.686 107.651L261.866 104.281C261.208 103.9 261.289 103.224 262.052 102.79L267.5 99.6385C267.891 99.4199 268.329 99.2964 268.776 99.278C269.224 99.2597 269.67 99.3469 270.078 99.5328L275.894 102.899C276.556 103.28 276.475 103.957 275.712 104.39L270.264 107.542C269.873 107.76 269.436 107.884 268.988 107.903C268.541 107.922 268.095 107.836 267.686 107.651Z" fill="white"/>
<path opacity="0.3" d="M366.627 258.581L360.821 255.221C360.16 254.841 360.244 254.164 361.007 253.73L366.455 250.579C366.846 250.359 367.283 250.235 367.731 250.216C368.179 250.197 368.625 250.284 369.033 250.469L374.85 253.836C375.511 254.22 375.426 254.893 374.663 255.331L369.216 258.482C368.438 258.916 367.285 258.965 366.627 258.581Z" fill="white"/>
<path opacity="0.4" d="M160.717 143.202L145.327 134.308C143.569 133.297 143.797 131.531 145.816 130.364L160.235 122.027C162.253 120.856 165.302 120.729 167.05 121.741L182.44 130.649C184.198 131.657 183.966 133.424 181.951 134.594L167.532 142.931C165.513 144.084 162.475 144.211 160.717 143.202Z" fill="white"/>
<path opacity="0.4" d="M185.89 114.568L180.615 111.525C180.017 111.173 180.091 110.574 180.78 110.175L185.703 107.327C186.057 107.129 186.453 107.017 186.857 107C187.262 106.983 187.666 107.061 188.035 107.228L193.292 110.274C193.89 110.626 193.816 111.222 193.127 111.621L188.204 114.472C187.852 114.667 187.46 114.777 187.058 114.794C186.656 114.81 186.256 114.733 185.89 114.568Z" fill="white"/>
<path style="mix-blend-mode:soft-light" d="M398.728 144.034C349.669 165.03 281.887 184.686 193.574 190.538L136.838 157.701C111.077 142.272 111.352 117.68 137.664 102.452C160.798 89.056 196.419 87.3181 222.805 97.2167C266.86 79.9435 327.254 82.5909 366.29 105.177C385.122 116.059 395.936 129.831 398.728 144.034Z" fill="url(#paint20_linear_11228_9611)"/>
</g>
<defs>
<linearGradient id="paint0_linear_11228_9611" x1="55.0002" y1="310" x2="137.054" y2="237.061" gradientUnits="userSpaceOnUse">
<stop offset="0.05" stop-color="#A8E3ED" stop-opacity="0"/>
<stop offset="1" stop-color="#4CD3DC"/>
</linearGradient>
<linearGradient id="paint1_linear_11228_9611" x1="203.175" y1="187.62" x2="109.857" y2="176.414" gradientUnits="userSpaceOnUse">
<stop offset="0.05" stop-color="#A8E3ED"/>
<stop offset="0.22" stop-color="#A2E2EC"/>
<stop offset="0.45" stop-color="#90DFE9"/>
<stop offset="0.71" stop-color="#73DAE3"/>
<stop offset="1" stop-color="#4CD3DC"/>
</linearGradient>
<linearGradient id="paint2_linear_11228_9611" x1="492.978" y1="94.668" x2="492.978" y2="76.7602" gradientUnits="userSpaceOnUse">
<stop stop-color="#1951AD"/>
<stop offset="0.48" stop-color="#2B64C7"/>
<stop offset="1" stop-color="#427CE8"/>
</linearGradient>
<linearGradient id="paint3_linear_11228_9611" x1="237.502" y1="26.2342" x2="237.502" y2="8.32642" gradientUnits="userSpaceOnUse">
<stop stop-color="#1951AD"/>
<stop offset="0.48" stop-color="#2B64C7"/>
<stop offset="1" stop-color="#427CE8"/>
</linearGradient>
<linearGradient id="paint4_linear_11228_9611" x1="29.2032" y1="340.209" x2="29.2032" y2="322.301" gradientUnits="userSpaceOnUse">
<stop stop-color="#1951AD"/>
<stop offset="0.48" stop-color="#2B64C7"/>
<stop offset="1" stop-color="#427CE8"/>
</linearGradient>
<linearGradient id="paint5_linear_11228_9611" x1="141.891" y1="314.236" x2="141.891" y2="361.825" gradientUnits="userSpaceOnUse">
<stop stop-color="#427CE8"/>
<stop offset="0.52" stop-color="#2B64C7"/>
<stop offset="1" stop-color="#1951AD"/>
</linearGradient>
<linearGradient id="paint6_linear_11228_9611" x1="163.322" y1="324.184" x2="163.322" y2="370.49" gradientUnits="userSpaceOnUse">
<stop stop-color="#427CE8"/>
<stop offset="0.52" stop-color="#2B64C7"/>
<stop offset="1" stop-color="#1951AD"/>
</linearGradient>
<linearGradient id="paint7_linear_11228_9611" x1="347.981" y1="363.683" x2="347.981" y2="410.793" gradientUnits="userSpaceOnUse">
<stop stop-color="#427CE8"/>
<stop offset="0.52" stop-color="#2B64C7"/>
<stop offset="1" stop-color="#1951AD"/>
</linearGradient>
<linearGradient id="paint8_linear_11228_9611" x1="205" y1="371" x2="281.439" y2="303.478" gradientUnits="userSpaceOnUse">
<stop offset="0.05" stop-color="#A8E3ED" stop-opacity="0"/>
<stop offset="1" stop-color="#4CD3DC"/>
</linearGradient>
<linearGradient id="paint9_linear_11228_9611" x1="376.778" y1="189.308" x2="470.094" y2="200.509" gradientUnits="userSpaceOnUse">
<stop offset="0.05" stop-color="#A8E3ED"/>
<stop offset="0.22" stop-color="#A2E2EC"/>
<stop offset="0.45" stop-color="#90DFE9"/>
<stop offset="0.71" stop-color="#73DAE3"/>
<stop offset="1" stop-color="#4CD3DC"/>
</linearGradient>
<linearGradient id="paint10_linear_11228_9611" x1="319.701" y1="167.682" x2="413.019" y2="178.888" gradientUnits="userSpaceOnUse">
<stop offset="0.05" stop-color="#A8E3ED"/>
<stop offset="0.22" stop-color="#A2E2EC"/>
<stop offset="0.45" stop-color="#90DFE9"/>
<stop offset="0.71" stop-color="#73DAE3"/>
<stop offset="1" stop-color="#4CD3DC"/>
</linearGradient>
<linearGradient id="paint11_linear_11228_9611" x1="552" y1="160" x2="460.697" y2="234.456" gradientUnits="userSpaceOnUse">
<stop offset="0.05" stop-color="#A8E3ED" stop-opacity="0"/>
<stop offset="1" stop-color="#4CD3DC"/>
</linearGradient>
<linearGradient id="paint12_linear_11228_9611" x1="466" y1="45" x2="382.999" y2="109.096" gradientUnits="userSpaceOnUse">
<stop offset="0.05" stop-color="#A8E3ED" stop-opacity="0"/>
<stop offset="1" stop-color="#4CD3DC"/>
</linearGradient>
<linearGradient id="paint13_linear_11228_9611" x1="303.403" y1="270.902" x2="210.085" y2="259.696" gradientUnits="userSpaceOnUse">
<stop offset="0.05" stop-color="#A8E3ED"/>
<stop offset="0.22" stop-color="#A2E2EC"/>
<stop offset="0.45" stop-color="#90DFE9"/>
<stop offset="0.71" stop-color="#73DAE3"/>
<stop offset="1" stop-color="#4CD3DC"/>
</linearGradient>
<linearGradient id="paint14_linear_11228_9611" x1="22.0001" y1="69.5" x2="120.857" y2="108.306" gradientUnits="userSpaceOnUse">
<stop offset="0.05" stop-color="#A8E3ED" stop-opacity="0"/>
<stop offset="1" stop-color="#4CD3DC"/>
</linearGradient>
<linearGradient id="paint15_linear_11228_9611" x1="391.785" y1="255.185" x2="485.096" y2="243.98" gradientUnits="userSpaceOnUse">
<stop offset="0.05" stop-color="#A8E3ED"/>
<stop offset="0.22" stop-color="#A2E2EC"/>
<stop offset="0.45" stop-color="#90DFE9"/>
<stop offset="0.71" stop-color="#73DAE3"/>
<stop offset="1" stop-color="#4CD3DC"/>
</linearGradient>
<linearGradient id="paint16_linear_11228_9611" x1="352.554" y1="314.176" x2="445.866" y2="302.971" gradientUnits="userSpaceOnUse">
<stop offset="0.05" stop-color="#A8E3ED"/>
<stop offset="0.22" stop-color="#A2E2EC"/>
<stop offset="0.45" stop-color="#90DFE9"/>
<stop offset="0.71" stop-color="#73DAE3"/>
<stop offset="1" stop-color="#4CD3DC"/>
</linearGradient>
<linearGradient id="paint17_linear_11228_9611" x1="538.5" y1="375" x2="439.332" y2="331.245" gradientUnits="userSpaceOnUse">
<stop offset="0.05" stop-color="#A8E3ED" stop-opacity="0"/>
<stop offset="1" stop-color="#4CD3DC"/>
</linearGradient>
<linearGradient id="paint18_linear_11228_9611" x1="147.135" y1="154.726" x2="53.8235" y2="165.931" gradientUnits="userSpaceOnUse">
<stop offset="0.05" stop-color="#A8E3ED"/>
<stop offset="0.22" stop-color="#A2E2EC"/>
<stop offset="0.45" stop-color="#90DFE9"/>
<stop offset="0.71" stop-color="#73DAE3"/>
<stop offset="1" stop-color="#4CD3DC"/>
</linearGradient>
<linearGradient id="paint19_linear_11228_9611" x1="117.735" y1="224.94" x2="441.186" y2="224.94" gradientUnits="userSpaceOnUse">
<stop stop-color="#F3F4FB"/>
<stop offset="0.7" stop-color="#F3F4FB"/>
<stop offset="0.88" stop-color="#E2E4F6"/>
<stop offset="1" stop-color="#E2E4F6"/>
</linearGradient>
<linearGradient id="paint20_linear_11228_9611" x1="178.719" y1="87.9432" x2="199.447" y2="199.044" gradientUnits="userSpaceOnUse">
<stop stop-color="white"/>
<stop offset="1" stop-color="#8F8F8F"/>
</linearGradient>
<clipPath id="clip0_11228_9611">
<rect width="552" height="416" fill="white"/>
</clipPath>
</defs>
</svg>
