<svg width="108" height="108" viewBox="0 0 108 108" fill="none" xmlns="http://www.w3.org/2000/svg">
<g filter="url(#filter0_d_11219_2162)">
<rect x="4" y="3" width="100" height="100" rx="10" fill="white"/>
<g clip-path="url(#clip0_11219_2162)">
<path d="M54.6157 33C50.7065 32.9998 46.8852 34.1552 43.6348 36.3199C40.3844 38.4847 37.851 41.5616 36.3549 45.1616C34.8589 48.7617 34.4673 52.723 35.2299 56.5448C35.9924 60.3666 37.8747 63.8772 40.6388 66.6327C43.4029 69.3881 46.9246 71.2646 50.7586 72.0249C54.5926 72.7851 58.5667 72.3951 62.1782 70.9038C65.7897 69.4127 68.8766 66.8875 71.0485 63.6476C73.2203 60.4076 74.3794 56.5984 74.3794 52.7017C74.3737 47.4784 72.2896 42.4707 68.5845 38.7772C64.8793 35.0836 59.8556 33.006 54.6157 33ZM36.8444 52.7C36.8404 50.2166 37.3646 47.7606 38.3823 45.4939L46.8614 68.6435C43.8588 67.1912 41.3268 64.9257 39.5553 62.1061C37.7838 59.2866 36.8443 56.0269 36.8444 52.7ZM54.6157 70.4165C52.9156 70.4184 51.2241 70.1757 49.5936 69.6957L54.9254 54.253L60.3853 69.1722C60.4232 69.2564 60.4654 69.3384 60.5118 69.4183C58.617 70.0802 56.6235 70.4177 54.6157 70.4165ZM57.0582 44.4026C58.1251 44.347 59.089 44.2365 59.089 44.2365C59.2784 44.2151 59.4521 44.1214 59.5736 43.975C59.695 43.8286 59.7549 43.641 59.7404 43.4516C59.7259 43.2622 59.6383 43.0857 59.4961 42.9593C59.3538 42.8329 59.1678 42.7664 58.9774 42.7739C58.9774 42.7739 56.0987 42.9957 54.2441 42.9957C52.4994 42.9957 49.5648 42.7739 49.5648 42.7739C49.3746 42.7668 49.1888 42.8335 49.0468 42.9599C48.9048 43.0863 48.8174 43.2628 48.8031 43.4521C48.7888 43.6413 48.8485 43.8288 48.97 43.9751C49.0913 44.1214 49.2648 44.215 49.454 44.2365C49.454 44.2365 50.3613 44.3478 51.3182 44.4026L54.0835 51.9678L50.1981 63.5852L43.7289 44.4009C44.7975 44.3452 45.7614 44.2348 45.7614 44.2348C45.9508 44.2134 46.1245 44.1197 46.246 43.9733C46.3674 43.8269 46.4273 43.6393 46.4128 43.4498C46.3983 43.2604 46.3107 43.0839 46.1685 42.9576C46.0262 42.8311 45.8402 42.7647 45.6498 42.7722C45.6498 42.7722 42.771 42.9939 40.9165 42.9939C40.5823 42.9939 40.1898 42.9861 39.7685 42.9713C41.1818 40.8285 43.045 39.0171 45.2294 37.6623C47.4136 36.3074 49.8669 35.4413 52.4198 35.1239C54.9727 34.8065 57.5643 35.0453 60.0155 35.8238C62.4667 36.6023 64.7192 37.902 66.6173 39.633C66.5409 39.6241 66.4641 39.6192 66.387 39.6183C65.5738 39.643 64.8035 39.988 64.2448 40.5777C63.6862 41.1673 63.3846 41.9536 63.4062 42.7643C63.4062 44.2252 64.2515 45.46 65.1509 46.92C66.0873 48.3805 66.5955 50.0729 66.6182 51.8061C66.6182 53.3235 66.0372 55.0783 65.2626 57.5339L63.4926 63.4348L57.0582 44.4026ZM70.2096 44.2026C72.4302 48.2537 72.9768 53.0087 71.7331 57.4555C70.4895 61.9023 67.5539 65.6897 63.5511 68.0113L68.9779 52.3687C69.8401 50.361 70.3005 48.2046 70.3335 46.0209C70.3363 45.413 70.2966 44.8058 70.2149 44.2035L70.2096 44.2026Z" fill="#007BFF"/>
<circle cx="54.5" cy="53" r="18.5" stroke="#CBCBCB" stroke-width="3"/>
</g>
</g>
<defs>
<filter id="filter0_d_11219_2162" x="0" y="0" width="108" height="108" filterUnits="userSpaceOnUse" color-interpolation-filters="sRGB">
<feFlood flood-opacity="0" result="BackgroundImageFix"/>
<feColorMatrix in="SourceAlpha" type="matrix" values="0 0 0 0 0 0 0 0 0 0 0 0 0 0 0 0 0 0 127 0" result="hardAlpha"/>
<feOffset dy="1"/>
<feGaussianBlur stdDeviation="2"/>
<feColorMatrix type="matrix" values="0 0 0 0 0 0 0 0 0 0 0 0 0 0 0 0 0 0 0.04 0"/>
<feBlend mode="normal" in2="BackgroundImageFix" result="effect1_dropShadow_11219_2162"/>
<feBlend mode="normal" in="SourceGraphic" in2="effect1_dropShadow_11219_2162" result="shape"/>
</filter>
<clipPath id="clip0_11219_2162">
<rect width="41" height="40" fill="white" transform="translate(34 33)"/>
</clipPath>
</defs>
</svg>
